<svg width="412" height="403" viewBox="0 0 412 403" fill="none" xmlns="http://www.w3.org/2000/svg">
<g clip-path="url(#clip0)">
<g clip-path="url(#clip1)">
<path d="M278.441 380.529H210.002C206.109 380.529 202.035 375.654 200.949 369.696C199.681 362.744 200.949 357.327 199.048 346.945C196.06 330.785 189.723 308.125 189.723 308.125C188.637 302.166 190.9 297.291 194.793 297.291H263.232C267.125 297.291 274.82 302.256 275.997 308.215C275.997 308.215 278.531 322.931 279.618 328.618C281.7 340.174 288.037 369.154 288.037 369.154C289.033 375.203 282.334 380.529 278.441 380.529Z" fill="#444444"/>
<path d="M265.676 352.363C263.141 359.946 251.825 356.967 237.794 356.967C220.503 356.967 206.29 360.759 203.846 342.071C201.401 323.383 193.163 300 193.163 300H195.698C197.871 306.681 203.483 324.466 205.475 339.363C207.919 358.051 222.223 354.259 239.514 354.259C251.463 354.259 261.512 356.516 265.676 352.363Z" fill="black"/>
<path d="M194.793 297.292C194.793 297.292 203.031 320.584 205.475 339.362C207.919 358.05 222.223 354.259 239.514 354.259C256.804 354.259 269.931 358.773 267.668 342.612C265.495 326.452 258.615 298.285 267.306 298.375L263.232 297.202H194.793V297.292Z" fill="#1E1E1E"/>
<path d="M222.132 365.815C220.865 365.815 219.598 364.099 219.326 362.203L217.334 344.779H219.054L223.49 362.203C224.124 364.19 223.4 365.815 222.132 365.815Z" fill="#7215CC"/>
<path d="M257.71 365.815C256.443 365.815 255.175 364.099 254.904 362.203L252.912 344.779H254.632L259.068 362.203C259.611 364.19 258.887 365.815 257.71 365.815Z" fill="black"/>
<path d="M243.044 340.265H228.288L227.745 337.376H242.501L243.044 340.265Z" fill="black"/>
<path d="M146.179 168.553C142.015 167.018 136.221 148.691 153.421 140.837C177.864 136.413 186.554 143.726 202.306 144.358C205.022 144.448 208.191 145.622 210.725 146.524C213.26 147.427 216.791 150.677 217.425 153.295C199.681 151.67 177.049 150.768 159.306 152.031" fill="#1E1E1E"/>
<path d="M156.228 159.705C152.063 158.17 151.067 148.149 155.684 145.712C167.091 141.649 183.658 145.17 199.5 145.802C202.216 145.892 204.932 146.073 207.376 147.066C209.82 148.059 212.174 149.955 212.808 152.573C195.064 150.948 177.683 153.386 159.849 154.198" fill="black"/>
<path d="M202.85 153.837L195.608 158.08L183.749 154.289V134.878H202.85V153.837Z" fill="#180249"/>
<path d="M242.682 92.1756L226.296 63.1055L185.106 51.2788L191.624 67.0778L160.845 71.9529L186.374 100.933L167.725 103.822L212.355 139.573L262.598 104.093L264.047 97.0507L242.682 92.1756Z" fill="#E3B9B7"/>
<path d="M252.821 94.4326L252.64 110.593L262.598 104.093L264.047 97.0507L252.821 94.4326Z" fill="#36176E"/>
<path d="M199.047 89.9189H225.753" stroke="black" stroke-width="4.3769" stroke-miterlimit="10"/>
<path d="M215.524 89.2871L215.252 97.954H225.572L225.753 89.2871H215.524Z" fill="black"/>
<path d="M218.602 127.656L218.24 124.225L237.341 121.968L231.276 126.121L218.602 127.656Z" fill="black"/>
<path d="M262.87 41.0774L226.297 18.9588L236.255 3.6112L164.557 14.7156L160.845 0L134.954 31.598L123.367 22.0283L122.824 51.279L110.421 52.7235L122.461 84.7729L108.067 87.0299L139.752 114.114L130.699 115.558L170.713 139.573H212.356L167.725 103.822L186.374 100.933L160.845 71.9531L191.625 67.078L185.107 51.279L226.297 63.1057L262.87 41.0774Z" fill="#36176E"/>
<path d="M262.87 41.0774L226.296 18.9588L236.254 3.6112L164.556 14.7156L160.845 0L157.495 21.2158L217.244 20.4033L201.673 32.6813L262.87 41.0774Z" fill="#7215CC"/>
<path d="M163.38 116.461L154.236 119.621L170.712 139.573L130.699 115.558L139.752 114.114L108.067 87.03L122.461 84.773L110.421 52.7236L142.83 90.6412L132.872 91.6343L163.38 116.461Z" fill="#180249"/>
<path d="M185.107 51.2788L220.503 67.1681L233.449 91.9951L252.822 94.4326L242.682 92.1756L226.297 63.1055L185.107 51.2788Z" fill="#FFEAE1"/>
<path opacity="0.44" d="M168.63 70.689L197.69 102.558L180.67 105.718L218.421 135.239L212.355 139.573L167.725 103.822L186.374 100.933L160.845 71.9529L168.63 70.689Z" fill="#D38484"/>
<path d="M202.76 81.3423L224.215 82.9673" stroke="black" stroke-width="2.91797" stroke-miterlimit="10"/>
<path d="M174.062 47.5775C171.98 47.8484 169.807 48.1192 167.906 48.6609C165.914 49.2929 164.104 50.1054 162.565 51.3693L162.203 49.654C165.914 50.1054 169.354 51.6401 172.523 53.1749L175.058 54.3485L172.523 55.6125C169.988 56.8764 167.544 58.1403 165.19 59.6751C162.836 61.1195 160.664 62.8349 158.401 64.6405L157.133 62.2932C160.483 61.3001 163.923 60.7584 167.363 60.5779C170.803 60.3973 174.333 60.7584 177.592 61.4807C174.152 61.4807 170.803 61.7515 167.453 62.2932C164.104 62.8349 160.935 63.7377 157.767 64.821L151.973 66.8072L156.68 62.564C158.853 60.6681 161.116 58.8625 163.561 57.2375C166.005 55.6125 168.63 54.3485 171.255 53.1749V55.6125C168.087 53.9874 165.009 52.4527 161.75 51.6401L159.487 51.0082L161.478 49.8345C163.38 48.6609 165.462 47.7581 167.725 47.4873C169.807 47.2164 171.98 47.3067 174.062 47.5775Z" fill="#7215CC"/>
<path d="M215.072 166.386L219.779 162.956L234.354 161.331L250.468 172.345L258.163 218.207L254.723 242.402L236.979 244.749L222.585 220.283L215.072 166.386Z" fill="#36176E"/>
<path d="M217.969 169.275L230.642 172.706L253.455 239.603" stroke="#180249" stroke-width="1.58418" stroke-miterlimit="10"/>
<path d="M253.818 181.553L235.803 187.692" stroke="#180249" stroke-width="1.58441" stroke-miterlimit="10"/>
<path d="M252.913 239.784L237.885 217.124L219.96 167.289L222.405 162.143L219.779 162.956L215.796 167.199L233.902 218.568L252.913 239.784Z" fill="#180249"/>
<path d="M244.131 215.679L242.954 168.553L216.701 151.941L166.005 150.858L142.74 163.497L143.102 239.061L158.401 275.083L166.639 278.604L225.03 279.146L244.131 215.679Z" fill="#36176E"/>
<path d="M166.639 278.604L152.064 238.7L157.858 224.617L158.401 164.581L150.525 159.435L142.74 163.497L143.102 239.061L158.401 275.083" fill="#180249"/>
<path d="M151.521 194.283L176.597 204.304H240.238" stroke="#180249" stroke-width="1.58441" stroke-miterlimit="10"/>
<path d="M166.005 150.858L179.222 168.553H200.587" stroke="#180249" stroke-width="1.58441" stroke-miterlimit="10"/>
<path d="M207.195 201.866L201.401 168.462" stroke="#180249" stroke-width="1.58441" stroke-miterlimit="10"/>
<path d="M212.084 151.941L224.486 168.553H200.587" stroke="#180249" stroke-width="1.58441" stroke-miterlimit="10"/>
<path d="M205.475 224.346L199.863 279.146" stroke="#180249" stroke-width="1.58441" stroke-miterlimit="10"/>
<path d="M224.305 215.228L205.476 224.346L187.37 215.228V190.671L205.838 181.463L224.305 190.671V215.228Z" stroke="#7215CC" stroke-width="1.58441" stroke-miterlimit="10"/>
<path d="M214.709 208.817L205.656 213.241L196.966 208.817V196.991L205.837 192.657L214.709 196.991V208.817Z" fill="#7215CC"/>
<path d="M154.961 250.166H163.742H175.149L191.444 233.103H215.705L228.56 254.048" stroke="#180249" stroke-width="1.58441" stroke-miterlimit="10"/>
<path d="M184.654 278.875L177.321 265.965H168.721H160.574" stroke="#180249" stroke-width="1.58441" stroke-miterlimit="10"/>
<path d="M216.973 278.694L222.133 264.972H225.301" stroke="#180249" stroke-width="1.58441" stroke-miterlimit="10"/>
<path d="M220.775 279.146L238.428 216.04L237.341 169.275L216.701 151.941L242.954 168.553L244.131 215.679L225.03 279.146" fill="#7215CC"/>
<path d="M144.731 167.56L132.601 175.865L131.243 240.145" stroke="#180249" stroke-width="1.57971" stroke-miterlimit="10"/>
<path d="M202.217 278.694H182.844V289.257H202.217V278.694Z" fill="#180249"/>
<path d="M202.217 278.694H197.419V289.257H202.217V278.694Z" fill="#36176E"/>
<path d="M134.864 185.887H130.247L127.984 191.665L130.247 197.443H134.864L137.127 191.665L134.864 185.887Z" fill="#7215CC"/>
<path d="M161.298 353.717L167.726 360.217L168.993 358.863L163.29 351.46L161.298 353.717Z" fill="#FFEAE1"/>
<path d="M233.811 158.532L247.933 168.372V216.13L236.617 240.596L244.131 215.679L242.954 168.553L229.284 159.976L233.811 158.532Z" fill="#180249"/>
<path d="M149.257 159.705C153.059 159.435 164.285 155.823 170.893 155.462C177.411 155.101 177.773 154.921 181.938 160.969C185.83 166.657 187.098 186.789 188.003 202.949C188.908 219.11 193.163 241.138 192.439 253.145C191.715 265.152 187.55 277.791 189.542 285.104C191.534 292.507 194.159 295.125 189.542 299.098C173.338 313.452 151.339 311.466 152.245 298.556C152.969 288.264 150.343 250.076 150.343 250.076L149.257 159.705Z" fill="#180249"/>
<path d="M230.46 279.236C230.46 269.937 231.999 263.798 234.082 255.041C236.707 244.207 240.237 224.346 240.237 224.346C240.237 224.346 243.587 190.581 242.229 173.879C242.048 171.171 243.949 168.823 240.69 167.379C237.522 166.025 233.81 163.677 232.09 162.414C230.37 161.15 218.42 154.017 217.424 153.205C216.429 152.392 216.248 150.767 212.989 150.948C209.73 151.129 206.108 151.67 206.108 151.67C206.561 156.726 210.363 165.664 214.346 174.962C218.33 184.261 221.317 207.012 219.688 221.727C218.149 234.999 212.989 262.263 213.26 279.055" fill="#180249"/>
<path d="M207.105 402.197L202.036 423.052L212.265 424.135L216.067 406.17L207.105 402.197Z" fill="#180249"/>
<path d="M195.426 350.556L202.125 316.43L210.997 288.173H221.861L229.737 291.423L237.16 315.257L241.053 349.834L231.638 414.836L215.343 413.572L203.121 405.988L195.426 350.556Z" fill="#36176E"/>
<path d="M200.586 350.738L217.968 354.168L237.612 347.578" stroke="#180249" stroke-width="1.58441" stroke-miterlimit="10"/>
<path d="M236.707 361.752L218.239 369.245" stroke="#7215CC" stroke-width="1.58441" stroke-miterlimit="10"/>
<path d="M223.49 414.205L224.939 398.406L231.185 399.128" stroke="#7215CC" stroke-width="1.58441" stroke-miterlimit="10"/>
<path d="M216.791 291.424L208.734 317.966L201.763 350.828L208.644 409.42L203.121 405.989L195.427 350.557L202.126 316.431L210.997 288.083L216.791 291.424Z" fill="#180249"/>
<path d="M228.741 414.656L237.16 348.842L232.543 315.258L225.573 291.063L229.737 291.424L237.07 315.258L241.053 349.835L231.638 414.837L228.741 414.656Z" fill="#7215CC"/>
<path d="M208.191 317.966H219.235L216.972 412.038" stroke="#180249" stroke-width="1.58441" stroke-miterlimit="10"/>
<path d="M218.239 373.127C220.389 373.127 222.132 371.389 222.132 369.245C222.132 367.101 220.389 365.363 218.239 365.363C216.089 365.363 214.347 367.101 214.347 369.245C214.347 371.389 216.089 373.127 218.239 373.127Z" fill="#7215CC"/>
<path d="M219.597 291.424L209.458 288.083H172.161L180.037 291.424H219.597Z" fill="#36176E"/>
<path d="M180.037 291.424H216.158L222.314 295.757V309.39L211.993 315.619L187.46 315.258L180.037 291.424Z" fill="#36176E"/>
<path d="M182.119 291.424L189.905 315.258H187.46L180.037 291.424H182.119Z" fill="#180249"/>
<path d="M167.092 291.424L161.298 288.083L221.861 288.174L229.737 291.424H167.092Z" fill="#010F33"/>
<path d="M183.658 299.82H224.034" stroke="#180249" stroke-width="1.58441" stroke-miterlimit="10"/>
<path d="M211.632 296.119H195.699V303.341H211.632V296.119Z" fill="#7215CC"/>
<path d="M207.829 318.598L212.084 318.508L224.577 310.744L224.667 294.945L221.589 291.424H216.158L222.314 295.757V309.39L211.993 315.619H208.01L207.829 318.598Z" fill="#180249"/>
<path d="M157.405 402.197L152.336 423.052L162.565 424.135L166.367 406.17L157.405 402.197Z" fill="#180249"/>
<path d="M145.726 350.556L152.426 316.43L161.297 288.173H172.161L180.037 291.423L187.46 315.257L191.353 349.834L182.3 413.12L165.28 411.947L153.512 405.988L145.726 350.556Z" fill="#36176E"/>
<path d="M174.062 412.58L175.239 398.406L181.576 399.128" stroke="#7215CC" stroke-width="1.58441" stroke-miterlimit="10"/>
<path d="M167.091 291.424L159.034 317.966L152.154 350.828L158.853 408.878L153.512 405.989L145.727 350.557L152.426 316.431L161.297 288.083L167.091 291.424Z" fill="#180249"/>
<path d="M179.403 412.941L187.46 348.842L182.934 315.258L175.873 291.063L180.037 291.424L187.46 315.258L191.353 349.835L182.3 413.121L179.403 412.941Z" fill="#7215CC"/>
<path d="M159.034 317.966H170.078L167.091 412.038" stroke="#180249" stroke-width="1.58441" stroke-miterlimit="10"/>
<path d="M160.483 309.209H172.161L177.773 299.098" stroke="#180249" stroke-width="1.58441" stroke-miterlimit="10"/>
<path d="M168.539 373.127C170.689 373.127 172.432 371.389 172.432 369.245C172.432 367.101 170.689 365.363 168.539 365.363C166.39 365.363 164.647 367.101 164.647 369.245C164.647 371.389 166.39 373.127 168.539 373.127Z" fill="#7215CC"/>
<path d="M150.886 350.738L168.358 354.168L187.912 347.578" stroke="#180249" stroke-width="1.58441" stroke-miterlimit="10"/>
<path d="M187.007 361.752L168.539 369.245" stroke="#7215CC" stroke-width="1.58441" stroke-miterlimit="10"/>
<path d="M214.618 290.702C216.338 300.271 220.684 303.431 226.568 303.341C228.378 303.341 229.736 303.16 230.823 302.98C232.814 302.619 233.991 300.632 233.539 298.737C233.267 297.563 231.366 293.771 231.094 291.243" fill="#010F33"/>
<path d="M208.644 304.334V363.919C208.644 368.342 205.022 371.953 200.587 371.953H198.414L195.426 350.557L195.879 328.709L191.353 349.835L188.184 371.953H148.714L145.727 350.557L152.426 316.431L158.672 296.389H200.587C200.768 296.389 200.949 296.389 201.039 296.389C205.294 296.57 208.644 300.091 208.644 304.334Z" fill="#010F33"/>
<path d="M224.033 297.021C207.829 311.376 148.805 311.466 149.71 298.556C150.344 288.354 147.718 250.075 147.718 250.075L146.723 159.615C150.525 159.344 159.487 151.219 166.005 150.767C172.523 150.316 210.092 149.052 212.898 152.393C217.334 157.719 223.762 195.546 224.667 211.616C224.848 216.401 228.56 292.958 224.033 297.021Z" fill="#1E1E1E"/>
<path d="M158.582 186.157C158.129 192.838 157.586 199.609 157.133 206.29C156.771 211.165 156.409 215.95 155.866 220.825C154.598 232.381 152.516 243.846 149.529 255.041C148.895 254.77 148.352 254.319 147.899 253.867C148.08 245.02 153.059 220.193 153.059 220.193C153.059 220.193 156.952 188.866 155.323 168.372C155.051 164.851 153.421 162.504 151.068 161.15V160.879C155.051 163.316 157.405 167.74 158.31 172.344C159.306 176.858 158.944 181.553 158.582 186.157Z" fill="black"/>
<path d="M154.327 282.576C156.952 290.16 154.599 293.951 156.228 301.806C156.409 302.799 156.5 304.153 155.595 304.605C155.323 304.695 155.051 304.785 154.78 304.695C154.237 299.729 153.422 293.139 152.607 287.812C152.607 286.549 152.607 285.285 152.517 284.021C152.335 282.215 151.883 280.41 151.43 278.694C151.43 278.514 151.43 278.243 151.34 278.153C150.887 274.632 152.879 269.937 152.064 268.041C151.521 266.958 150.163 264.972 148.986 263.347C149.71 262.805 151.159 264.881 152.335 265.784C153.603 266.777 154.327 272.194 154.237 273.729C154.237 275.264 153.693 280.59 154.327 282.576Z" fill="black"/>
<path d="M149.529 255.041L150.887 264.972L149.076 263.347L147.899 253.867L149.529 255.041Z" fill="black"/>
<path d="M150.887 244.749C150.887 244.749 160.573 264.972 164.557 270.027C164.557 270.027 148.533 253.416 148.714 248.36C148.895 243.305 150.887 244.749 150.887 244.749Z" fill="black"/>
<path d="M205.928 301.625V361.21C205.928 365.634 202.306 369.245 197.871 369.245H99.6477C95.2119 369.245 91.5908 365.634 91.5908 361.21V301.625C91.5908 297.202 95.2119 293.59 99.6477 293.59H197.871C198.052 293.59 198.233 293.59 198.323 293.59C202.578 293.861 205.928 297.292 205.928 301.625Z" fill="#ADADAD"/>
<path d="M103.631 369.245H99.6477C95.2119 369.245 91.5908 365.634 91.5908 361.21V301.625C91.5908 297.202 95.2119 293.59 99.6477 293.59H103.631C99.1951 293.59 95.574 297.202 95.574 301.625V361.21C95.574 365.634 99.1951 369.245 103.631 369.245Z" fill="#969696"/>
<path opacity="0.39" d="M205.928 301.625V361.571C205.928 365.814 202.488 369.245 198.233 369.245L109.787 368.613L101.096 354.981L198.414 293.59C202.578 293.861 205.928 297.292 205.928 301.625Z" fill="url(#paint0_linear)"/>
<path d="M148.804 338.82C154.404 338.82 158.944 334.293 158.944 328.709C158.944 323.125 154.404 318.598 148.804 318.598C143.205 318.598 138.665 323.125 138.665 328.709C138.665 334.293 143.205 338.82 148.804 338.82Z" fill="white"/>
<path d="M118.749 194.734C118.387 195.185 118.116 195.637 117.935 196.088C117.844 195.637 117.844 195.276 117.844 194.824C117.753 193.741 117.753 192.658 117.844 191.574V191.755L118.749 194.734Z" fill="black"/>
<path d="M244.855 173.879C246.213 190.671 242.863 224.346 242.863 224.346C242.863 224.346 239.333 244.207 236.707 255.041C235.44 260.187 234.444 264.52 233.81 269.034C233.086 273.999 232.905 279.326 233.358 286.458C233.72 291.694 234.173 294.764 234.535 296.569C234.987 298.556 233.72 300.452 231.819 300.813C230.732 300.993 229.284 301.174 227.564 301.174C220.503 301.264 218.059 299.729 216.339 283.84C214.619 268.041 220.774 236.353 222.404 221.637C224.124 206.921 221.046 184.171 217.063 174.872C213.17 165.573 209.277 156.636 208.825 151.58C208.825 151.58 209.911 151.038 213.17 150.858C216.429 150.677 219.145 152.302 220.141 153.115C221.046 153.927 232.996 161.059 234.806 162.323C236.617 163.587 240.238 165.934 243.406 167.289C246.484 168.733 244.674 171.171 244.855 173.879Z" fill="#1E1E1E"/>
<path d="M268.844 259.735L255.537 262.534C255.537 262.534 240.962 254.499 238.246 247.548C235.53 240.506 239.242 200.331 239.242 200.331L227.021 157.719C227.021 157.719 232.181 156.455 235.802 157.809C239.423 159.073 243.044 164.851 245.941 165.754C248.838 166.657 253.726 167.74 253.726 172.344C253.726 172.976 253.817 173.879 253.998 175.233C254.269 177.4 254.722 180.379 255.265 183.81C255.899 187.873 256.714 192.387 257.438 196.539C258.615 203.401 259.792 209.359 260.154 210.984C260.787 213.602 261.783 216.13 262.145 219.471C262.145 219.651 262.145 219.741 262.236 219.922C262.236 220.193 262.326 220.464 262.326 220.734C262.417 221.818 262.417 223.082 262.236 224.436C262.236 224.887 262.145 225.248 262.145 225.7C261.874 231.568 262.779 238.068 263.865 239.783C264.952 241.409 268.03 257.298 268.844 259.735Z" fill="#1E1E1E"/>
<path d="M253.183 215.047C252.731 208.727 252.188 202.859 253.002 196.54C253.364 194.192 253.455 190.039 254.903 188.053C255.175 187.782 255.447 187.512 255.718 187.331C255.99 189.498 256.533 192.477 257.076 195.908C254.089 201.776 252.731 208.457 253.183 215.047Z" fill="black"/>
<path d="M249.109 168.553C249.109 168.553 251.282 170.539 251.101 173.337C250.92 176.136 254.631 189.046 254.631 189.046C254.631 189.046 255.084 187.872 255.989 187.511L253.998 175.143C253.998 175.143 253.817 173.157 253.726 172.254C253.636 171.351 253.364 168.101 249.652 166.927C245.941 165.664 247.48 166.205 247.48 166.205L249.109 168.553Z" fill="#444444"/>
<path d="M262.055 225.609C261.965 226.693 261.874 227.596 261.874 227.596C261.874 227.596 261.059 223.714 260.788 222.63C260.607 221.547 259.701 220.193 259.701 220.193C259.701 217.304 257.71 211.616 257.257 209.81C256.804 208.005 255.356 200.241 255.356 200.241L257.257 195.998L257.438 196.449C258.615 203.31 259.792 209.269 260.154 210.894C260.788 213.512 261.783 216.04 262.146 219.38C262.146 219.561 262.146 219.741 262.236 219.831C262.236 220.193 262.236 220.463 262.327 220.644C262.327 220.734 262.327 220.825 262.327 220.825C262.327 222.088 262.236 224.075 262.055 225.609Z" fill="#444444"/>
<path d="M238.246 247.457C238.789 238.159 245.398 180.921 244.854 173.879C244.673 171.171 246.574 168.824 243.315 167.379C240.147 166.025 236.435 163.678 234.715 162.414C233.81 161.782 230.189 159.525 226.749 157.448L230.46 156.636C230.46 156.636 240.6 164.49 244.945 165.573C249.2 166.747 249.743 166.657 248.657 170.539C247.661 174.421 244.583 241.77 244.583 241.77L239.513 249.082L238.246 247.457Z" fill="black"/>
<path d="M153.512 165.754L148.352 162.955L133.686 163.316L119.202 176.226L117.572 222.72L124.09 246.374H142.015L153.059 220.193L153.512 165.754Z" fill="#36176E"/>
<path d="M122.189 191.574L130.246 200.873L141.29 191.574" stroke="#7215CC" stroke-width="1.58441" stroke-miterlimit="10"/>
<path d="M133.686 163.316L124.724 177.761L122.098 239.151L117.572 222.72L119.201 176.226L133.686 163.316Z" fill="#180249"/>
<path d="M152.154 168.372L141.29 175.685L141.381 246.374" stroke="#180249" stroke-width="1.58441" stroke-miterlimit="10"/>
<path d="M142.014 246.374L148.804 220.012L149.619 167.108L145.635 163.045L148.351 162.955L153.511 165.754L153.059 220.193L142.014 246.374Z" fill="#7215CC"/>
<path d="M126.806 245.922L125.81 282.125L139.299 280.499L138.484 244.026L126.806 245.922Z" fill="#180249"/>
<path d="M155.322 309.389L152.878 338.459L133.414 340.806L123.456 313.361L118.477 273.277L124.724 263.707L140.747 261.721L150.343 269.305L155.322 309.389Z" fill="#36176E"/>
<path d="M141.562 339.813L136.04 323.292L130.336 277.791L131.151 271.11L132.962 262.624" stroke="#180249" stroke-width="1.58441" stroke-miterlimit="10"/>
<path d="M132.845 284.638L129.611 285.038L132.742 310.213L135.976 309.813L132.845 284.638Z" fill="#7215CC"/>
<path d="M124.724 314.535L136.04 323.292L154.326 310.292" stroke="#7215CC" stroke-width="1.58441" stroke-miterlimit="10"/>
<path d="M128.797 263.166L123.094 273.096L128.254 314.806L137.669 340.355L133.414 340.806L123.456 313L118.477 273.277L124.724 263.707L128.797 263.166Z" fill="#180249"/>
<path d="M136.402 262.263L140.747 261.721L150.343 269.305L155.322 309.389L152.878 338.459L148.714 338.911L151.248 310.743L146.269 270.478L136.402 262.263Z" fill="#7215CC"/>
<path d="M165.823 361.932L158.762 356.425L161.75 366.446L163.832 373.669L159.939 374.481L156.952 367.53L155.141 363.286L156.318 367.71L158.309 374.842L155.141 375.564L151.52 368.884L149.347 364.641L150.705 369.064L152.878 376.106L149.89 376.738L145.817 370.238L143.282 366.085L144.911 370.418L147.537 377.28L146.45 377.551L139.751 371.682L135.678 367.981L133.414 340.536L137.669 340.084L147.446 338.911L152.878 338.279L163.198 351.46L168.901 358.772L165.823 361.932Z" fill="#E3B9B7"/>
<path d="M158.762 356.425L161.75 366.446L156.952 367.53L155.141 363.286L156.318 367.71L151.52 368.884L149.347 364.641L150.705 369.064L145.817 370.238L143.282 366.085L144.911 370.418L139.751 371.682H139.48L135.678 367.981L133.414 340.536L137.669 340.084L147.446 338.911L152.878 338.279L163.198 351.46L161.206 353.626L158.762 356.425Z" fill="#36176E"/>
<path d="M137.669 340.084L139.48 365.814L143.282 370.689L139.48 371.682L135.677 367.981L133.414 340.536L137.669 340.084Z" fill="#180249"/>
<path d="M147.446 338.911L161.207 353.626L163.198 351.46L152.878 338.279L147.446 338.911Z" fill="#7215CC"/>
<path d="M143.01 346.223L143.553 362.745L149.709 361.029L145.816 345.862L143.01 346.223Z" fill="#E3B9B7"/>
<path d="M149.71 264.249C149.438 263.888 149.166 263.527 148.895 263.166C149.257 263.527 149.619 264.069 149.71 264.249Z" fill="#ADADAD"/>
<path d="M155.322 309.389C155.775 315.529 155.684 327.987 154.598 334.036C153.783 338.821 154.689 338.279 148.623 338.911C142.558 339.543 133.505 342.974 131.151 343.696C128.798 344.418 128.073 340.987 128.073 338.279C128.073 335.571 123.909 317.876 123.366 313.001C122.823 308.216 122.461 305.598 121.736 299.82C121.012 294.042 118.477 284.472 117.572 282.125C116.667 279.778 115.49 275.083 116.667 272.375C116.667 272.375 120.469 262.534 120.378 261.631C120.197 260.458 118.658 260.006 118.477 258.833C118.296 256.576 119.835 257.027 120.016 255.673C120.016 255.222 120.016 254.77 120.016 254.319C120.016 253.145 119.926 251.791 119.745 250.346C119.292 244.93 118.115 237.978 117.21 233.013C116.305 227.686 116.576 213.512 117.029 204.123C117.119 201.324 117.3 198.887 117.482 197.352C117.482 197.081 117.572 196.72 117.572 196.449C117.572 195.908 117.663 195.366 117.663 194.734C117.663 193.741 117.663 192.658 117.663 191.574C117.572 184.803 116.848 176.768 117.482 175.324C118.387 173.518 125.176 168.553 127.983 165.574C130.699 162.594 133.414 161.421 139.208 160.157C146.994 158.622 154.598 160.157 155.232 168.282C156.861 188.866 152.969 220.103 152.969 220.103C152.969 220.103 146.269 253.687 148.171 256.666C150.072 259.645 146.722 260.729 147.175 260.999C147.265 261.09 147.537 261.361 147.808 261.722C148.08 262.083 148.442 262.444 148.804 262.986C150.072 264.611 151.611 266.777 152.154 267.951C153.059 269.847 151.067 274.541 151.43 278.062C151.882 281.583 154.779 301.535 155.322 309.389Z" fill="#1E1E1E"/>
<path d="M130.065 262.896C129.974 262.264 126.715 260.368 126.172 259.916C124.814 258.923 123.456 257.84 122.098 256.847C121.012 256.034 120.469 255.222 120.107 254.319C120.107 253.145 120.016 251.791 119.835 250.347C122.098 252.604 124.361 254.951 126.625 257.298C128.164 258.923 129.793 260.729 130.065 262.896Z" fill="black"/>
<path d="M124.09 224.436C122.37 219.651 120.65 214.867 118.93 210.082C118.206 208.186 117.572 206.2 117.119 204.214C117.21 201.415 117.391 198.977 117.572 197.443C117.572 197.172 117.662 196.811 117.662 196.54C117.753 196.359 117.753 196.269 117.843 196.088C118.93 205.658 124.543 214.776 124.09 224.436Z" fill="black"/>
<path d="M155.322 309.389C155.775 315.528 155.684 327.987 154.598 334.036C153.783 338.821 154.688 338.279 148.623 338.911C142.558 339.543 133.505 342.974 131.151 343.696C130.246 343.967 129.612 343.606 129.16 342.974C132.871 341.71 139.661 339.453 144.459 338.911C150.524 338.279 149.619 338.821 150.434 334.036C151.52 327.987 151.52 315.528 151.158 309.389C150.886 305.778 150.162 299.549 149.347 293.59C148.985 290.972 148.623 288.354 148.351 286.097C147.808 282.305 147.446 279.326 147.265 278.153C146.813 274.632 148.804 269.937 147.989 268.041C147.718 267.409 147.084 266.416 146.36 265.333C146.088 264.972 145.907 264.611 145.636 264.249C145.545 264.159 145.455 263.979 145.364 263.888C145.274 263.798 145.183 263.708 145.092 263.527C145.002 263.437 145.002 263.347 144.911 263.256L144.821 263.166C144.821 263.076 144.73 263.076 144.73 262.986C144.64 262.895 144.64 262.805 144.549 262.805C144.278 262.444 144.006 262.083 143.735 261.812C143.372 261.451 143.191 261.18 143.101 261.09C142.648 260.729 145.998 259.735 144.097 256.756C142.196 253.777 148.895 220.193 148.895 220.193C148.895 220.193 152.787 188.866 151.158 168.372C150.705 162.865 147.084 160.337 142.286 159.796C148.985 159.164 154.779 161.24 155.413 168.372C157.042 188.956 153.149 220.193 153.149 220.193C153.149 220.193 146.45 253.777 148.351 256.756C150.253 259.735 146.903 260.819 147.356 261.09C147.446 261.18 147.718 261.451 147.989 261.812C148.261 262.173 148.623 262.534 148.985 263.076C148.985 263.076 149.076 263.166 149.076 263.256L149.166 263.347C149.257 263.437 149.347 263.527 149.347 263.618C149.347 263.618 149.347 263.708 149.438 263.708C149.619 263.888 149.709 264.069 149.8 264.249C150.796 265.604 151.792 267.138 152.244 267.951C153.149 269.847 151.158 274.541 151.52 278.062C151.882 281.583 154.779 301.535 155.322 309.389Z" fill="#444444"/>
<path d="M149.71 264.25C148.714 264.701 147.446 264.972 146.27 265.333C145.998 264.972 145.817 264.611 145.545 264.25C145.364 263.979 145.183 263.798 145.093 263.527C145.002 263.437 145.002 263.347 144.912 263.256L144.821 263.166C144.821 263.076 144.731 263.076 144.731 262.986C144.64 262.895 144.64 262.805 144.55 262.805C145.817 262.263 146.994 261.902 147.99 261.812C148.261 262.173 148.623 262.534 148.985 263.076C148.985 263.076 149.076 263.166 149.076 263.256L149.166 263.347C149.257 263.437 149.348 263.527 149.348 263.618C149.348 263.618 149.348 263.708 149.438 263.708C149.529 263.979 149.71 264.159 149.71 264.25Z" fill="#444444"/>
<path d="M151.701 282.125C150.977 285.555 150.343 288.986 149.619 292.417C149.528 292.778 149.438 293.229 149.347 293.59C148.985 290.972 148.623 288.354 148.351 286.097C149.076 282.576 150.071 279.145 151.158 275.715L151.701 282.125Z" fill="#444444"/>
<path d="M149.8 264.25C147.628 265.152 144.459 265.604 142.196 266.326C140.838 266.777 136.674 267.229 135.587 268.222C137.307 266.326 144.097 262.354 147.899 261.812C148.171 262.173 148.533 262.534 148.895 263.076C149.076 263.347 149.619 264.069 149.8 264.25Z" fill="black"/>
<path d="M151.068 275.715C148.352 284.201 146.632 292.958 145.907 301.896C148.171 299.278 148.895 295.847 149.529 292.417C150.253 288.986 150.887 285.555 151.611 282.125" fill="black"/>
<path d="M163.198 351.46L152.878 338.46C154.326 338.098 154.145 337.196 154.688 334.126C155.775 328.077 155.775 315.619 155.413 309.48C155.141 305.868 154.417 299.639 153.602 293.681H155.775C155.775 293.681 159.034 313.362 158.31 319.772C157.585 326.182 155.775 339.092 155.775 339.092L163.198 351.46Z" fill="#ADADAD"/>
<path d="M223.309 106.891C231.459 106.891 238.065 100.303 238.065 92.1756C238.065 84.0484 231.459 77.46 223.309 77.46C215.16 77.46 208.553 84.0484 208.553 92.1756C208.553 100.303 215.16 106.891 223.309 106.891Z" stroke="#010F33" stroke-width="0.926442" stroke-miterlimit="10"/>
<path d="M208.553 89.9189H166.638" stroke="#010F33" stroke-width="0.926442" stroke-miterlimit="10"/>
<path d="M237.975 92.1758C237.975 92.1758 238.699 90.5508 242.682 92.1758" stroke="#010F33" stroke-width="0.926442" stroke-miterlimit="10"/>
<path d="M220.05 153.205C220.05 153.205 240.6 168.192 240.6 170.629C240.6 171.712 240.871 196.269 238.608 219.651C235.892 246.825 230.642 273.277 230.642 273.277L234.716 263.527L238.246 247.457C238.246 247.457 245.398 180.379 244.855 173.879C244.674 172.074 245.307 171.622 245.217 169.907C245.126 168.192 243.316 167.379 243.316 167.379L220.05 153.205Z" fill="#444444"/>
<path d="M231.728 300.903C226.749 284.111 233.358 257.388 233.358 257.388L235.078 261.451C232.815 270.118 232.815 279.326 233.267 286.458C233.629 291.695 234.082 294.764 234.444 296.57C234.897 298.556 233.72 300.542 231.728 300.903Z" fill="#444444"/>
<path d="M145.545 264.249C145.364 263.978 145.183 263.798 145.002 263.527C145.274 263.888 145.455 264.159 145.545 264.249Z" fill="#444444"/>
<path d="M229.736 288.083C229.736 288.083 224.486 272.194 223.943 264.972C223.943 264.972 229.284 280.41 231.185 281.583" fill="#444444"/>
<path d="M257.619 273.91C257.619 273.91 260.335 271.111 260.788 268.132C261.241 265.152 266.763 258.02 267.759 257.298C268.754 256.576 272.466 250.166 272.466 250.166C272.466 250.166 271.47 254.951 269.297 257.75C267.125 260.548 263.413 267.68 263.051 271.292C263.142 271.382 259.973 273.639 257.619 273.91Z" fill="#444444"/>
<path d="M238.608 248.451C238.608 248.451 241.052 247.006 241.414 245.471C241.777 243.937 255.446 220.012 258.705 215.137C259.429 213.964 260.787 213.603 260.787 213.603L262.236 217.575L240.238 250.708L238.608 248.451Z" fill="black"/>
<path d="M313.657 178.664L315.196 183.268L311.122 185.435L315.377 183.9L317.006 188.505L312.932 191.123L317.278 189.407L317.368 193.289L311.303 197.894L315.467 195.908L316.191 197.894L312.027 202.408L289.486 204.936L287.403 195.366L286.77 192.026L313.657 178.664Z" fill="#E3B9B7"/>
<path d="M303.879 182.546L312.117 179.206L313.838 183.99L311.122 185.435L313.928 184.442L315.648 189.407L312.932 191.123L314.743 190.4L315.286 194.914L311.303 197.894L314.109 196.539L315.014 199.248L312.027 202.408L285.864 207.553L284.144 201.324L278.894 196.991L300.168 179.838L307.048 181.282L303.879 182.546Z" fill="#36176E"/>
<path d="M289.486 204.935L311.665 199.79L312.027 202.408L289.486 204.935Z" fill="#180249"/>
<path d="M282.153 199.699L302.884 180.38L300.258 179.838L278.894 196.991L282.153 199.699Z" fill="#7215CC"/>
<path d="M321.712 179.657L288.579 179.206V182.185H291.657L291.385 202.137C291.385 205.387 294.011 208.096 297.27 208.096L313.203 208.276C316.462 208.276 319.177 205.658 319.177 202.408L319.449 182.456H321.803L321.712 179.657Z" fill="#919191"/>
<path d="M317.096 182.637H319.36L319.088 202.589C319.088 205.839 316.372 208.457 313.113 208.457H310.85C314.109 208.457 316.825 205.839 316.825 202.589L317.096 182.637Z" fill="#ADADAD"/>
<path d="M319.446 179.624L319.406 182.603L321.669 182.633L321.709 179.654L319.446 179.624Z" fill="#ADADAD"/>
<path d="M288.552 179.242L288.512 182.221L291.409 182.259L291.448 179.28L288.552 179.242Z" fill="#727272"/>
<path d="M300.077 208.276H297.18C293.921 208.276 291.296 205.568 291.296 202.318L291.567 182.366H294.464L294.193 202.318C294.193 205.477 296.818 208.186 300.077 208.276Z" fill="#727272"/>
<path opacity="0.32" d="M290.028 179.206C291.386 178.845 295.098 178.935 297.361 178.032C299.081 177.4 299.262 175.775 300.892 175.414C303.879 174.692 306.323 175.234 307.41 174.511C308.677 173.609 308.224 172.886 306.142 171.622C304.151 170.358 304.965 168.101 306.595 167.831C308.224 167.56 314.018 168.553 314.38 164.039C314.742 159.435 308.949 162.775 307.41 160.518C307.41 160.518 308.949 161.15 310.126 160.247C310.126 160.247 306.052 159.976 304.875 156.094C304.875 156.094 305.78 159.073 311.574 157.719C317.368 156.365 315.376 160.699 315.376 160.699C315.376 160.699 317.911 164.039 316.281 166.567C313.113 171.442 310.578 170.358 311.031 173.97C311.574 178.303 315.195 179.838 320.174 179.657L290.028 179.206Z" fill="#ADADAD"/>
<path d="M288.399 220.464C288.399 220.464 275.544 260.639 275.182 264.25C274.819 267.861 269.569 268.041 269.569 268.041C269.116 268.041 268.754 268.042 268.301 268.222C268.12 268.312 267.939 268.312 267.758 268.403C267.396 268.583 266.944 268.764 266.581 268.944C265.405 269.576 264.228 270.569 263.051 271.382C261.421 272.556 259.611 273.639 257.619 273.91C253.093 274.451 241.596 268.042 241.505 265.423C241.415 264.791 241.143 263.979 240.781 263.076C239.604 260.548 237.431 257.118 237.522 254.048C237.612 250.617 240.147 249.534 241.867 247.999C242.139 247.729 242.41 247.458 242.682 247.097C242.682 247.097 242.773 247.006 242.773 246.916L242.863 246.826L245.941 241.409L259.973 217.033L268.12 208.547L272.737 203.762L275.996 200.332L279.255 196.991L279.617 196.63L280.161 196.088C281.156 196.811 282.062 197.713 282.786 198.616C282.876 198.616 282.876 198.706 282.876 198.797C282.876 198.887 282.967 198.887 283.057 198.977C283.239 199.158 283.329 199.338 283.42 199.519C283.963 200.241 284.506 201.054 284.959 201.776C285.683 203.04 286.226 204.394 286.769 205.748C287.041 206.561 287.312 207.283 287.493 208.096C287.765 208.998 287.946 209.991 288.127 210.804V210.894C288.218 211.436 288.308 211.887 288.308 212.429C288.761 217.033 288.399 220.464 288.399 220.464Z" fill="#1E1E1E"/>
<path d="M263.141 271.382C264.771 270.208 266.31 268.944 267.849 268.312C268.573 267.319 269.025 266.326 269.388 264.882C270.836 260.097 271.922 255.131 272.466 250.166C271.56 254.499 268.935 258.291 266.672 262.173C265.042 265.062 263.594 268.132 263.141 271.382Z" fill="black"/>
<path d="M242.592 247.187C243.407 247.097 244.402 246.284 244.946 245.923C247.571 244.027 250.015 241.77 252.369 239.513C253.093 238.791 253.817 238.069 254.542 237.346C255.085 236.805 255.628 236.263 256.081 235.721C257.257 234.457 258.344 232.652 259.611 231.659C255.175 234.999 250.287 238.069 245.941 241.589C245.941 241.589 245.941 241.589 245.851 241.589L242.773 247.006C242.773 247.097 242.682 247.097 242.682 247.187C242.592 247.097 242.592 247.097 242.592 247.187Z" fill="black"/>
<path d="M275 226.603C275.272 225.159 274.367 222.902 274.186 221.457C273.914 219.652 274.457 216.853 274.276 215.048C274.005 211.346 273.28 206.651 272.285 202.679C272.013 201.596 275.363 199.339 275.725 200.151C276.268 201.596 276.63 206.651 276.539 208.186C276.539 210.082 276.449 211.978 276.358 213.874C276.177 218.117 275.634 222.36 275 226.603Z" fill="black"/>
<path d="M259.973 217.123L279.798 196.72C279.798 196.72 275.815 197.623 274.548 198.706C271.198 201.505 262.87 210.533 259.158 214.776L259.973 217.123Z" fill="black"/>
<path d="M288.399 220.464C288.399 220.464 275.544 260.638 275.182 264.25C274.819 267.861 269.569 268.041 269.569 268.041C269.116 268.041 268.754 268.041 268.301 268.222C269.569 267.77 270.474 266.687 271.289 265.694C271.923 264.791 272.466 263.979 272.828 263.798C273.733 263.257 272.828 258.923 274.367 255.673C275.634 253.145 283.329 226.693 286.498 215.769C286.498 215.679 286.498 215.589 286.588 215.498C287.403 212.7 287.855 211.075 287.855 211.075C287.946 211.616 288.036 212.068 288.036 212.609C288.761 217.033 288.399 220.464 288.399 220.464Z" fill="#444444"/>
<path d="M187.641 99.8495L167.453 114.565L147.175 99.8495V74.9322L167.453 63.1958L187.641 74.9322V99.8495Z" fill="black"/>
<path d="M175.872 93.4394L167.453 99.5785L159.034 93.4394V83.0572L167.453 78.1821L175.872 83.0572V93.4394Z" fill="#7215CC"/>
<path d="M159.668 15.6183V48.0288L166.729 56.5151L173.881 48.0288V13.3613L159.668 15.6183Z" fill="black"/>
<path d="M152.425 71.8628V97.3217L172.161 111.044L167.453 114.565L147.175 99.8496V74.9323L152.425 71.8628Z" fill="#1E1E1E"/>
<path d="M162.474 66.0848L181.485 77.0086V104.273L187.641 99.8495V74.9322L167.453 63.1958L162.474 66.0848Z" fill="#444444"/>
<path d="M187.641 74.9323V65.814L167.453 54.0776L147.265 65.814V74.9323L149.438 73.6684V66.9877L167.453 59.4042L185.468 66.9877V73.6684" fill="black"/>
<path d="M268.845 310.292C260.878 268.222 150.796 131.628 146.723 159.705" stroke="black" stroke-width="5.72443" stroke-miterlimit="10" stroke-linecap="round" stroke-linejoin="round"/>
</g>
</g>
<defs>
<linearGradient id="paint0_linear" x1="101.104" y1="331.379" x2="205.919" y2="331.379" gradientUnits="userSpaceOnUse">
<stop stop-color="white" stop-opacity="0"/>
<stop offset="1" stop-color="white"/>
</linearGradient>
<clipPath id="clip0">
<rect width="411.497" height="403" fill="white"/>
</clipPath>
<clipPath id="clip1">
<rect width="230.122" height="514.054" fill="white" transform="translate(91.5908)"/>
</clipPath>
</defs>
</svg>
