<svg width="425" height="375" viewBox="0 0 425 375" fill="none" xmlns="http://www.w3.org/2000/svg">
<g clip-path="url(#clip0)">
<path d="M265.562 405.203H200.158C196.438 405.203 192.545 400.537 191.507 394.834C190.296 388.181 191.507 382.997 189.69 373.06C186.835 357.593 180.78 335.905 180.78 335.905C179.741 330.203 181.904 325.537 185.624 325.537H251.028C254.748 325.537 262.101 330.289 263.226 335.992C263.226 335.992 265.649 350.076 266.687 355.52C268.676 366.58 274.732 394.316 274.732 394.316C275.684 400.105 269.282 405.203 265.562 405.203Z" fill="#444444"/>
<path d="M253.363 378.244C250.94 385.502 240.126 382.651 226.716 382.651C210.192 382.651 196.609 386.28 194.273 368.394C191.937 350.507 184.064 328.127 184.064 328.127H186.487C188.563 334.522 193.927 351.544 195.83 365.801C198.166 383.688 211.836 380.059 228.36 380.059C239.78 380.059 249.383 382.219 253.363 378.244Z" fill="black"/>
<path d="M185.624 325.54C185.624 325.54 193.497 347.833 195.833 365.806C198.169 383.693 211.838 380.063 228.362 380.063C244.887 380.063 257.431 384.384 255.268 368.917C253.192 353.45 246.617 326.49 254.922 326.577L251.029 325.454H185.624V325.54Z" fill="#1E1E1E"/>
<path d="M211.751 391.123C210.54 391.123 209.329 389.482 209.069 387.667L207.166 370.991H208.81L213.049 387.667C213.654 389.568 212.962 391.123 211.751 391.123Z" fill="#7215CC"/>
<path d="M245.745 391.12C244.534 391.12 243.323 389.478 243.063 387.663L241.16 370.987H242.804L247.043 387.663C247.562 389.564 246.87 391.12 245.745 391.12Z" fill="black"/>
<path d="M231.738 366.668H217.636L217.117 363.903H231.219L231.738 366.668Z" fill="black"/>
<path d="M139.17 202.315C135.19 200.846 129.653 183.305 146.091 175.788C169.45 171.554 177.755 178.553 192.809 179.158C195.404 179.244 198.432 180.367 200.855 181.232C203.277 182.096 206.651 185.206 207.257 187.712C190.3 186.157 168.671 185.293 151.714 186.502" fill="#1E1E1E"/>
<path d="M148.766 193.845C144.787 192.376 143.835 182.784 148.247 180.451C159.148 176.563 174.98 179.933 190.12 180.538C192.716 180.624 195.311 180.797 197.647 181.747C199.983 182.698 202.233 184.513 202.838 187.018C185.881 185.463 169.27 187.796 152.227 188.574" fill="black"/>
<path d="M193.315 188.232L186.394 192.293L175.061 188.664V170.086H193.315V188.232Z" fill="#180249"/>
<path d="M231.374 129.22L215.715 101.397L176.352 90.0781L182.581 105.199L153.167 109.865L177.563 137.601L159.741 140.366L202.392 174.583L250.407 140.626L251.791 133.886L231.374 129.22Z" fill="#E3B9B7"/>
<path d="M241.064 131.378L240.891 146.845L250.408 140.623L251.792 133.884L241.064 131.378Z" fill="#36176E"/>
<path d="M189.678 127.061H215.2" stroke="black" stroke-width="3.80597" stroke-miterlimit="10"/>
<path d="M205.418 126.455L205.159 134.75H215.021L215.194 126.455H205.418Z" fill="black"/>
<path d="M208.364 163.181L208.018 159.897L226.272 157.737L220.476 161.712L208.364 163.181Z" fill="black"/>
<path d="M250.664 80.3142L215.714 59.145L225.23 44.4562L156.713 55.084L153.166 41L128.424 71.2417L117.35 62.0828L116.831 90.0779L104.979 91.4604L116.485 122.134L102.73 124.294L133.009 150.216L124.358 151.598L162.596 174.582H202.391L159.741 140.366L177.562 137.601L153.166 109.865L182.58 105.199L176.351 90.0779L215.714 101.397L250.664 80.3142Z" fill="#36176E"/>
<path d="M250.678 80.3147L215.727 59.1453L225.243 44.4562L156.725 55.0842L153.178 41L149.977 61.3054L207.075 60.5278L192.195 72.279L250.678 80.3147Z" fill="#7215CC"/>
<path d="M155.589 152.462L146.852 155.486L162.597 174.582L124.358 151.598L133.009 150.215L102.729 124.293L116.485 122.132L104.978 91.4575L135.951 127.749L126.434 128.699L155.589 152.462Z" fill="#180249"/>
<path d="M176.356 90.0781L210.183 105.286L222.555 129.048L241.069 131.381L231.379 129.221L215.72 101.398L176.356 90.0781Z" fill="#FFEAE1"/>
<path opacity="0.44" d="M160.607 108.657L188.378 139.159L172.113 142.184L208.19 170.439L202.393 174.587L159.742 140.369L177.564 137.604L153.167 109.867L160.607 108.657Z" fill="#D38484"/>
<path d="M193.229 118.851L213.733 120.405" stroke="black" stroke-width="2.53735" stroke-miterlimit="10"/>
<path d="M165.809 86.5335C163.819 86.7927 161.743 87.0519 159.926 87.5703C158.023 88.1752 156.292 88.9528 154.822 90.1625L154.476 88.5208C158.023 88.9528 161.31 90.4217 164.338 91.8907L166.761 93.0139L164.338 94.2236C161.916 95.4333 159.58 96.643 157.331 98.1119C155.081 99.4944 153.005 101.136 150.842 102.864L149.631 100.618C152.832 99.6672 156.119 99.1488 159.407 98.976C162.694 98.8032 166.068 99.1488 169.183 99.84C165.895 99.84 162.694 100.099 159.493 100.618C156.292 101.136 153.265 102 150.237 103.037L144.7 104.938L149.198 100.877C151.275 99.0624 153.438 97.3343 155.773 95.7789C158.109 94.2236 160.618 93.0139 163.127 91.8907V94.2236C160.099 92.6683 157.158 91.1994 154.043 90.4217L151.88 89.8169L153.784 88.6936C155.6 87.5703 157.59 86.7063 159.753 86.447C161.743 86.1878 163.819 86.2742 165.809 86.5335Z" fill="#7215CC"/>
<path d="M204.995 200.24L209.493 196.957L223.422 195.401L238.822 205.943L246.176 249.838L242.888 272.996L225.931 275.242L212.175 251.826L204.995 200.24Z" fill="#36176E"/>
<path d="M207.756 203.019L219.868 206.303L241.67 270.331" stroke="#180249" stroke-width="1.37754" stroke-miterlimit="10"/>
<path d="M242.011 214.762L224.795 220.638" stroke="#180249" stroke-width="1.37774" stroke-miterlimit="10"/>
<path d="M241.156 270.494L226.794 248.805L209.664 201.108L212 196.183L209.491 196.96L205.685 201.021L222.988 250.188L241.156 270.494Z" fill="#180249"/>
<path d="M232.764 247.412L231.639 202.308L206.55 186.409L158.103 185.373L135.869 197.469L136.215 269.791L150.836 304.267L158.709 307.637L214.509 308.156L232.764 247.412Z" fill="#36176E"/>
<path d="M158.708 307.637L144.78 269.445L150.317 255.966L150.836 198.505L143.309 193.58L135.869 197.468L136.215 269.791L150.836 304.267" fill="#180249"/>
<path d="M144.273 226.942L168.238 236.533H229.058" stroke="#180249" stroke-width="1.37774" stroke-miterlimit="10"/>
<path d="M158.116 185.373L170.747 202.308H191.164" stroke="#180249" stroke-width="1.37774" stroke-miterlimit="10"/>
<path d="M197.464 234.198L191.927 202.228" stroke="#180249" stroke-width="1.37774" stroke-miterlimit="10"/>
<path d="M202.146 186.409L213.999 202.307H191.159" stroke="#180249" stroke-width="1.37774" stroke-miterlimit="10"/>
<path d="M195.819 255.719L190.455 308.167" stroke="#180249" stroke-width="1.37774" stroke-miterlimit="10"/>
<path d="M213.815 246.983L195.82 255.71L178.517 246.983V223.48L196.166 214.667L213.815 223.48V246.983Z" stroke="#7215CC" stroke-width="1.37774" stroke-miterlimit="10"/>
<path d="M204.659 240.847L196.008 245.081L187.703 240.847V229.528L196.181 225.38L204.659 229.528V240.847Z" fill="#7215CC"/>
<path d="M147.549 280.432H155.941H166.841L182.414 264.101H205.6L217.885 284.147" stroke="#180249" stroke-width="1.37774" stroke-miterlimit="10"/>
<path d="M175.93 307.895L168.923 295.539H160.704H152.918" stroke="#180249" stroke-width="1.37774" stroke-miterlimit="10"/>
<path d="M206.814 307.727L211.745 294.593H214.773" stroke="#180249" stroke-width="1.37774" stroke-miterlimit="10"/>
<path d="M210.445 308.155L227.315 247.757L226.276 202.999L206.552 186.409L231.64 202.307L232.765 247.411L214.511 308.155" fill="#7215CC"/>
<path d="M137.772 201.364L126.179 209.314L124.881 270.836" stroke="#180249" stroke-width="1.37365" stroke-miterlimit="10"/>
<path d="M192.706 307.726H174.192V317.836H192.706V307.726Z" fill="#180249"/>
<path d="M192.707 307.726H188.122V317.836H192.707V307.726Z" fill="#36176E"/>
<path d="M128.343 218.908H123.931L121.768 224.438L123.931 229.968H128.343L130.506 224.438L128.343 218.908Z" fill="#7215CC"/>
<path d="M222.902 192.728L236.399 202.146V247.856L225.584 271.273L232.765 247.424L231.64 202.319L218.577 194.111L222.902 192.728Z" fill="#180249"/>
<path d="M142.113 193.849C145.747 193.59 156.474 190.134 162.79 189.788C169.018 189.442 169.364 189.269 173.344 195.059C177.064 200.502 178.275 219.77 179.14 235.237C180.005 250.703 184.071 271.786 183.379 283.278C182.687 294.77 178.708 306.866 180.611 313.865C182.514 320.95 185.023 323.456 180.611 327.258C165.125 340.996 144.103 339.095 144.968 326.739C145.66 316.889 143.151 280.34 143.151 280.34L142.113 193.849Z" fill="#180249"/>
<path d="M219.711 308.247C219.711 299.347 221.182 293.472 223.172 285.09C225.681 274.722 229.055 255.712 229.055 255.712C229.055 255.712 232.256 223.396 230.958 207.411C230.785 204.819 232.602 202.572 229.487 201.19C226.459 199.894 222.912 197.647 221.269 196.438C219.625 195.228 208.205 188.402 207.254 187.624C206.302 186.846 206.129 185.291 203.014 185.464C199.9 185.637 196.439 186.155 196.439 186.155C196.872 190.994 200.506 199.548 204.312 208.448C208.119 217.348 210.974 239.122 209.416 253.206C207.946 265.908 203.014 292.003 203.274 308.074" fill="#180249"/>
<path d="M186.211 376.509L192.613 343.847L201.091 316.802H211.472L218.999 319.913L226.093 342.724L229.813 375.818L220.816 438.03L205.244 436.82L193.564 429.562L186.211 376.509Z" fill="#36176E"/>
<path d="M191.144 376.688L207.755 379.972L226.528 373.664" stroke="#180249" stroke-width="1.37774" stroke-miterlimit="10"/>
<path d="M206.628 319.916L198.928 345.319L192.267 376.772L198.842 432.85L193.564 429.566L186.211 376.512L192.613 343.851L201.091 316.719L206.628 319.916Z" fill="#180249"/>
<path d="M218.049 437.857L226.095 374.867L221.683 342.723L215.021 319.566L219.001 319.912L226.009 342.723L229.815 375.817L220.818 438.03L218.049 437.857Z" fill="#7215CC"/>
<path d="M198.412 345.321H208.967L206.804 435.356" stroke="#180249" stroke-width="1.37774" stroke-miterlimit="10"/>
<path d="M209.321 319.907L199.631 316.71H163.988L171.514 319.907H209.321Z" fill="#36176E"/>
<path d="M171.521 319.906H206.039L211.922 324.054V337.101L202.06 343.063L178.615 342.718L171.521 319.906Z" fill="#36176E"/>
<path d="M173.51 319.906L180.95 342.718H178.615L171.521 319.906H173.51Z" fill="#180249"/>
<path d="M159.145 319.907L153.608 316.71L211.487 316.796L219.014 319.907H159.145Z" fill="#010F33"/>
<path d="M174.976 327.946H213.56" stroke="#180249" stroke-width="1.37774" stroke-miterlimit="10"/>
<path d="M201.712 324.401H186.485V331.314H201.712V324.401Z" fill="#7215CC"/>
<path d="M198.079 345.915L202.145 345.828L214.084 338.397L214.171 323.276L211.229 319.906H206.038L211.921 324.054V337.101L202.059 343.063H198.252L198.079 345.915Z" fill="#180249"/>
<path d="M138.734 376.502L145.136 343.841L153.614 316.795H163.996L171.523 319.906L178.617 342.717L182.337 375.811L173.685 436.382L157.421 435.258L146.174 429.555L138.734 376.502Z" fill="#36176E"/>
<path d="M159.152 319.909L151.452 345.313L144.877 376.765L151.279 432.324L146.175 429.559L138.735 376.505L145.137 343.844L153.615 316.712L159.152 319.909Z" fill="#180249"/>
<path d="M170.92 436.213L178.619 374.864L174.294 342.721L167.546 319.563L171.525 319.909L178.619 342.721L182.339 375.814L173.688 436.386L170.92 436.213Z" fill="#7215CC"/>
<path d="M151.459 345.316H162.013L159.158 435.351" stroke="#180249" stroke-width="1.37774" stroke-miterlimit="10"/>
<path d="M152.84 336.934H164L169.364 327.256" stroke="#180249" stroke-width="1.37774" stroke-miterlimit="10"/>
<path d="M143.67 376.681L160.367 379.965L179.054 373.657" stroke="#180249" stroke-width="1.37774" stroke-miterlimit="10"/>
<path d="M204.566 319.221C206.21 328.38 210.363 331.404 215.986 331.318C217.716 331.318 219.014 331.145 220.052 330.972C221.956 330.626 223.08 328.725 222.648 326.911C222.388 325.788 220.571 322.159 220.312 319.739" fill="#010F33"/>
<path d="M198.86 332.271V389.3C198.86 393.534 195.4 396.991 191.16 396.991H189.084L186.229 376.512L186.662 355.601L182.336 375.821L179.308 396.991H141.587L138.732 376.512L145.135 343.85L151.104 324.667H191.16C191.333 324.667 191.506 324.667 191.593 324.667C195.659 324.84 198.86 328.21 198.86 332.271Z" fill="#010F33"/>
<path d="M213.574 325.266C198.089 339.005 141.683 339.091 142.548 326.735C143.154 316.971 140.645 280.336 140.645 280.336L139.693 193.758C143.327 193.499 151.891 185.723 158.12 185.29C164.349 184.858 200.251 183.649 202.933 186.846C207.172 191.944 213.315 228.147 214.18 243.527C214.353 248.107 217.9 321.378 213.574 325.266Z" fill="#1E1E1E"/>
<path d="M151.017 219.167C150.585 225.561 150.065 232.041 149.633 238.435C149.287 243.101 148.941 247.681 148.422 252.347C147.211 263.407 145.221 274.38 142.366 285.095C141.76 284.835 141.241 284.403 140.809 283.971C140.982 275.504 145.74 251.742 145.74 251.742C145.74 251.742 149.46 221.759 147.903 202.145C147.643 198.775 146.086 196.528 143.837 195.232V194.973C147.643 197.306 149.892 201.54 150.758 205.947C151.709 210.267 151.363 214.76 151.017 219.167Z" fill="black"/>
<path d="M146.958 311.447C149.467 318.705 147.217 322.334 148.775 329.851C148.948 330.802 149.034 332.098 148.169 332.53C147.909 332.616 147.65 332.703 147.39 332.616C146.871 327.864 146.093 321.556 145.314 316.458C145.314 315.248 145.314 314.039 145.228 312.829C145.055 311.101 144.622 309.373 144.189 307.731C144.189 307.558 144.189 307.299 144.103 307.213C143.67 303.843 145.574 299.35 144.795 297.535C144.276 296.498 142.978 294.597 141.854 293.042C142.546 292.524 143.93 294.511 145.054 295.375C146.266 296.325 146.958 301.51 146.871 302.979C146.871 304.448 146.352 309.546 146.958 311.447Z" fill="black"/>
<path d="M142.366 285.096L143.664 294.601L141.933 293.046L140.809 283.973L142.366 285.096Z" fill="black"/>
<path d="M143.666 275.238C143.666 275.238 152.923 294.593 156.729 299.432C156.729 299.432 141.416 283.533 141.589 278.695C141.762 273.856 143.666 275.238 143.666 275.238Z" fill="black"/>
<path d="M196.266 329.672V386.7C196.266 390.933 192.805 394.39 188.566 394.39H94.6996C90.4605 394.39 87 390.933 87 386.7V329.672C87 325.438 90.4605 321.981 94.6996 321.981H188.566C188.739 321.981 188.912 321.981 188.998 321.981C193.065 322.241 196.266 325.524 196.266 329.672Z" fill="#ADADAD"/>
<path d="M98.5065 394.391H94.6998C90.4606 394.391 87 390.935 87 386.701V329.672C87 325.438 90.4606 321.981 94.6998 321.981H98.5065C94.2672 321.981 90.8066 325.438 90.8066 329.672V386.701C90.8066 390.935 94.2672 394.391 98.5065 394.391Z" fill="#969696"/>
<path opacity="0.39" d="M196.262 329.671V387.045C196.262 391.106 192.975 394.389 188.908 394.389L104.386 393.784L96.0803 380.737L189.081 321.981C193.061 322.24 196.262 325.524 196.262 329.671Z" fill="url(#paint0_linear)"/>
<path d="M141.676 365.278C147.027 365.278 151.365 360.946 151.365 355.601C151.365 350.256 147.027 345.923 141.676 345.923C136.324 345.923 131.986 350.256 131.986 355.601C131.986 360.946 136.324 365.278 141.676 365.278Z" fill="white"/>
<path d="M112.952 227.377C112.606 227.809 112.346 228.241 112.173 228.673C112.086 228.241 112.086 227.895 112.086 227.463C112 226.426 112 225.389 112.086 224.353V224.525L112.952 227.377Z" fill="black"/>
<path d="M233.465 207.419C234.762 223.49 231.562 255.719 231.562 255.719C231.562 255.719 228.188 274.728 225.679 285.097C224.468 290.022 223.516 294.169 222.91 298.49C222.218 303.242 222.045 308.34 222.478 315.166C222.824 320.177 223.256 323.115 223.602 324.843C224.035 326.744 222.824 328.559 221.007 328.904C219.969 329.077 218.585 329.25 216.941 329.25C210.193 329.336 207.857 327.867 206.214 312.66C204.57 297.539 210.453 267.211 212.01 253.127C213.654 239.043 210.712 217.269 206.906 208.37C203.186 199.47 199.466 190.916 199.033 186.077C199.033 186.077 200.071 185.559 203.186 185.386C206.3 185.213 208.896 186.768 209.847 187.546C210.712 188.324 222.132 195.15 223.862 196.359C225.592 197.569 229.053 199.815 232.081 201.112C235.022 202.494 233.292 204.827 233.465 207.419Z" fill="#1E1E1E"/>
<path d="M256.383 289.591L243.666 292.269C243.666 292.269 229.737 284.579 227.142 277.926C224.546 271.186 228.093 232.736 228.093 232.736L216.414 191.952C216.414 191.952 221.345 190.742 224.806 192.038C228.266 193.248 231.727 198.778 234.495 199.642C237.264 200.506 241.935 201.543 241.935 205.95C241.935 206.554 242.022 207.419 242.195 208.715C242.454 210.788 242.887 213.64 243.406 216.923C244.012 220.812 244.79 225.132 245.482 229.106C246.607 235.673 247.732 241.376 248.078 242.931C248.683 245.437 249.635 247.857 249.981 251.054C249.981 251.226 249.981 251.313 250.068 251.486C250.068 251.745 250.154 252.004 250.154 252.263C250.241 253.3 250.241 254.51 250.068 255.806C250.068 256.238 249.981 256.584 249.981 257.016C249.721 262.632 250.587 268.853 251.625 270.495C252.663 272.05 255.604 287.258 256.383 289.591Z" fill="#1E1E1E"/>
<path d="M241.42 246.816C240.988 240.768 240.469 235.151 241.247 229.103C241.593 226.856 241.68 222.882 243.064 220.981C243.323 220.722 243.583 220.462 243.843 220.29C244.102 222.363 244.621 225.215 245.14 228.498C242.285 234.115 240.988 240.509 241.42 246.816Z" fill="black"/>
<path d="M237.524 202.32C237.524 202.32 239.6 204.221 239.427 206.899C239.254 209.578 242.801 221.934 242.801 221.934C242.801 221.934 243.233 220.811 244.099 220.465L242.195 208.628C242.195 208.628 242.022 206.727 241.936 205.863C241.849 204.998 241.59 201.888 238.043 200.765C234.496 199.555 235.966 200.073 235.966 200.073L237.524 202.32Z" fill="#444444"/>
<path d="M249.9 256.923C249.814 257.96 249.727 258.824 249.727 258.824C249.727 258.824 248.948 255.108 248.689 254.071C248.516 253.035 247.651 251.738 247.651 251.738C247.651 248.973 245.747 243.53 245.315 241.802C244.882 240.074 243.498 232.643 243.498 232.643L245.315 228.582L245.488 229.014C246.613 235.58 247.737 241.283 248.083 242.839C248.689 245.344 249.64 247.764 249.987 250.961C249.987 251.134 249.987 251.306 250.073 251.393C250.073 251.738 250.073 251.998 250.16 252.17C250.16 252.257 250.16 252.343 250.16 252.343C250.16 253.553 250.073 255.454 249.9 256.923Z" fill="#444444"/>
<path d="M227.147 277.833C227.666 268.933 233.982 214.151 233.463 207.411C233.29 204.819 235.107 202.572 231.992 201.19C228.964 199.894 225.417 197.647 223.773 196.437C222.908 195.832 219.448 193.672 216.16 191.685L219.707 190.907C219.707 190.907 229.397 198.425 233.549 199.462C237.616 200.585 238.135 200.498 237.096 204.214C236.145 207.929 233.203 272.389 233.203 272.389L228.359 279.388L227.147 277.833Z" fill="black"/>
<path d="M146.163 199.625L141.231 196.946L127.216 197.292L113.374 209.648L111.816 254.148L118.045 276.787H135.175L145.73 251.729L146.163 199.625Z" fill="#36176E"/>
<path d="M116.23 224.353L123.93 233.253L134.485 224.353" stroke="#7215CC" stroke-width="1.37774" stroke-miterlimit="10"/>
<path d="M127.216 197.294L118.651 211.12L116.142 269.877L111.816 254.151L113.374 209.651L127.216 197.294Z" fill="#180249"/>
<path d="M144.876 202.131L134.494 209.13L134.581 276.787" stroke="#180249" stroke-width="1.37774" stroke-miterlimit="10"/>
<path d="M135.174 276.787L141.663 251.556L142.441 200.921L138.635 197.032L141.23 196.946L146.161 199.624L145.729 251.728L135.174 276.787Z" fill="#7215CC"/>
<path d="M120.642 276.367L119.69 311.016L132.581 309.461L131.802 274.553L120.642 276.367Z" fill="#180249"/>
<path d="M147.897 337.108L145.561 364.931L126.96 367.178L117.444 340.91L112.686 302.545L118.655 293.385L133.968 291.484L143.139 298.743L147.897 337.108Z" fill="#36176E"/>
<path d="M134.743 366.225L129.466 350.412L124.016 306.863L124.794 300.469L126.525 292.346" stroke="#180249" stroke-width="1.37774" stroke-miterlimit="10"/>
<path d="M126.421 313.425L123.33 313.808L126.323 337.904L129.413 337.521L126.421 313.425Z" fill="#7215CC"/>
<path d="M118.656 342.038L129.47 350.419L146.946 337.977" stroke="#7215CC" stroke-width="1.37774" stroke-miterlimit="10"/>
<path d="M122.548 292.872L117.098 302.377L122.029 342.297L131.027 366.751L126.96 367.183L117.444 340.569L112.686 302.55L118.655 293.391L122.548 292.872Z" fill="#180249"/>
<path d="M129.818 292.003L133.971 291.484L143.142 298.743L147.9 337.108L145.564 364.931L141.584 365.363L144.007 338.404L139.248 299.866L129.818 292.003Z" fill="#7215CC"/>
<path d="M157.933 387.393L151.185 382.122L154.04 391.713L156.029 398.626L152.309 399.403L149.454 392.75L147.724 388.689L148.849 392.923L150.752 399.749L147.724 400.44L144.264 394.046L142.187 389.985L143.485 394.219L145.561 400.959L142.706 401.564L138.813 395.342L136.391 391.368L137.948 395.515L140.457 402.082L139.419 402.341L133.017 396.725L129.124 393.182L126.961 366.915L131.027 366.483L140.37 365.359L145.561 364.754L155.424 377.37L160.874 384.369L157.933 387.393Z" fill="#E3B9B7"/>
<path d="M151.185 382.122L154.04 391.713L149.454 392.75L147.724 388.689L148.849 392.923L144.264 394.046L142.187 389.985L143.485 394.219L138.813 395.342L136.391 391.368L137.948 395.515L133.017 396.725H132.757L129.124 393.182L126.961 366.915L131.027 366.483L140.37 365.359L145.561 364.754L155.424 377.37L153.52 379.443L151.185 382.122Z" fill="#36176E"/>
<path d="M131.027 366.482L132.757 391.108L136.391 395.774L132.757 396.725L129.124 393.182L126.961 366.914L131.027 366.482Z" fill="#180249"/>
<path d="M140.37 365.359L153.52 379.443L155.423 377.37L145.56 364.754L140.37 365.359Z" fill="#7215CC"/>
<path d="M136.131 372.361L136.65 388.173L142.533 386.531L138.813 372.015L136.131 372.361Z" fill="#E3B9B7"/>
<path d="M142.543 293.901C142.283 293.555 142.023 293.21 141.764 292.864C142.11 293.21 142.456 293.728 142.543 293.901Z" fill="#ADADAD"/>
<path d="M147.907 337.107C148.34 342.983 148.253 354.907 147.215 360.696C146.437 365.275 147.302 364.757 141.506 365.362C135.709 365.966 127.058 369.25 124.809 369.941C122.559 370.632 121.867 367.349 121.867 364.757C121.867 362.165 117.888 345.229 117.369 340.563C116.85 335.984 116.504 333.478 115.811 327.948C115.119 322.418 112.697 313.259 111.832 311.013C110.967 308.766 109.842 304.273 110.967 301.681C110.967 301.681 114.6 292.263 114.514 291.399C114.341 290.275 112.87 289.843 112.697 288.72C112.524 286.56 113.995 286.992 114.168 285.696C114.168 285.264 114.168 284.832 114.168 284.4C114.168 283.277 114.081 281.98 113.908 280.598C113.476 275.414 112.351 268.76 111.486 264.008C110.621 258.91 110.88 245.345 111.313 236.358C111.399 233.68 111.572 231.347 111.745 229.878C111.745 229.619 111.832 229.273 111.832 229.014C111.832 228.496 111.918 227.977 111.918 227.372C111.918 226.422 111.918 225.385 111.918 224.348C111.832 217.868 111.14 210.178 111.745 208.795C112.61 207.067 119.099 202.315 121.781 199.463C124.376 196.612 126.971 195.489 132.508 194.279C139.948 192.81 147.215 194.279 147.821 202.056C149.378 221.756 145.658 251.652 145.658 251.652C145.658 251.652 139.256 283.795 141.073 286.646C142.89 289.498 139.689 290.535 140.121 290.794C140.208 290.88 140.467 291.139 140.727 291.485C140.986 291.831 141.332 292.176 141.679 292.695C142.89 294.25 144.36 296.324 144.879 297.447C145.745 299.262 143.841 303.755 144.187 307.124C144.62 310.494 147.388 329.59 147.907 337.107Z" fill="#1E1E1E"/>
<path d="M123.774 292.606C123.688 292.001 120.573 290.187 120.054 289.755C118.756 288.804 117.459 287.767 116.161 286.817C115.123 286.039 114.604 285.262 114.258 284.398C114.258 283.274 114.171 281.978 113.998 280.596C116.161 282.756 118.324 285.002 120.487 287.249C121.957 288.804 123.514 290.532 123.774 292.606Z" fill="black"/>
<path d="M118.064 255.804C116.42 251.224 114.776 246.645 113.133 242.065C112.441 240.251 111.835 238.35 111.402 236.449C111.489 233.77 111.662 231.437 111.835 229.968C111.835 229.709 111.921 229.364 111.921 229.104C112.008 228.932 112.008 228.845 112.094 228.672C113.133 237.831 118.496 246.559 118.064 255.804Z" fill="black"/>
<path d="M147.908 337.109C148.341 342.985 148.254 354.909 147.216 360.698C146.438 365.277 147.303 364.759 141.506 365.364C135.71 365.969 127.059 369.252 124.81 369.943C123.944 370.202 123.339 369.857 122.906 369.252C126.453 368.042 132.942 365.882 137.527 365.364C143.323 364.759 142.458 365.277 143.237 360.698C144.275 354.909 144.275 342.985 143.929 337.109C143.669 333.653 142.977 327.691 142.198 321.988C141.852 319.483 141.506 316.977 141.247 314.817C140.728 311.188 140.382 308.336 140.209 307.213C139.776 303.843 141.679 299.35 140.901 297.536C140.641 296.931 140.036 295.98 139.344 294.943C139.084 294.598 138.911 294.252 138.651 293.907C138.565 293.82 138.478 293.647 138.392 293.561C138.305 293.475 138.219 293.388 138.132 293.215C138.046 293.129 138.046 293.042 137.959 292.956L137.873 292.87C137.873 292.783 137.786 292.783 137.786 292.697C137.7 292.61 137.7 292.524 137.613 292.524C137.354 292.178 137.094 291.833 136.835 291.574C136.489 291.228 136.316 290.969 136.229 290.882C135.797 290.537 138.997 289.586 137.181 286.735C135.364 283.884 141.766 251.741 141.766 251.741C141.766 251.741 145.486 221.758 143.929 202.144C143.496 196.873 140.036 194.454 135.451 193.936C141.852 193.331 147.389 195.318 147.995 202.144C149.552 221.844 145.832 251.741 145.832 251.741C145.832 251.741 139.43 283.884 141.247 286.735C143.064 289.586 139.863 290.623 140.295 290.882C140.382 290.969 140.641 291.228 140.901 291.574C141.16 291.919 141.506 292.265 141.852 292.783C141.852 292.783 141.939 292.87 141.939 292.956L142.025 293.043C142.112 293.129 142.198 293.215 142.198 293.302C142.198 293.302 142.198 293.388 142.285 293.388C142.458 293.561 142.544 293.734 142.631 293.907C143.583 295.203 144.534 296.672 144.967 297.449C145.832 299.264 143.929 303.757 144.275 307.127C144.621 310.496 147.389 329.592 147.908 337.109Z" fill="#444444"/>
<path d="M142.545 293.902C141.593 294.334 140.382 294.594 139.257 294.939C138.997 294.594 138.824 294.248 138.565 293.902C138.392 293.643 138.219 293.47 138.132 293.211C138.046 293.125 138.046 293.038 137.959 292.952L137.873 292.865C137.873 292.779 137.786 292.779 137.786 292.693C137.7 292.606 137.7 292.52 137.613 292.52C138.824 292.001 139.949 291.656 140.901 291.569C141.16 291.915 141.506 292.261 141.852 292.779C141.852 292.779 141.939 292.865 141.939 292.952L142.025 293.038C142.112 293.125 142.198 293.211 142.198 293.297C142.198 293.297 142.198 293.384 142.285 293.384C142.372 293.643 142.545 293.816 142.545 293.902Z" fill="#444444"/>
<path d="M144.447 311.013C143.755 314.296 143.149 317.58 142.457 320.863C142.371 321.209 142.284 321.641 142.198 321.986C141.852 319.481 141.506 316.975 141.246 314.815C141.938 311.445 142.89 308.161 143.928 304.878L144.447 311.013Z" fill="#444444"/>
<path d="M142.631 293.906C140.555 294.77 137.527 295.202 135.364 295.893C134.067 296.325 130.087 296.757 129.049 297.708C130.693 295.893 137.181 292.091 140.815 291.573C141.074 291.918 141.42 292.264 141.766 292.782C141.939 293.042 142.458 293.733 142.631 293.906Z" fill="black"/>
<path d="M143.839 304.877C141.244 313 139.6 321.381 138.908 329.935C141.071 327.43 141.763 324.146 142.369 320.863C143.061 317.579 143.666 314.296 144.359 311.012" fill="black"/>
<path d="M155.433 377.376L145.57 364.933C146.955 364.588 146.782 363.723 147.301 360.786C148.339 354.996 148.339 343.072 147.993 337.196C147.733 333.74 147.041 327.778 146.262 322.075H148.339C148.339 322.075 151.453 340.912 150.761 347.047C150.069 353.182 148.339 365.538 148.339 365.538L155.433 377.376Z" fill="#ADADAD"/>
<path d="M212.875 143.306C220.663 143.306 226.977 137 226.977 129.222C226.977 121.443 220.663 115.138 212.875 115.138C205.087 115.138 198.773 121.443 198.773 129.222C198.773 137 205.087 143.306 212.875 143.306Z" stroke="#010F33" stroke-width="0.805595" stroke-miterlimit="10"/>
<path d="M198.772 127.061H158.717" stroke="#010F33" stroke-width="0.805595" stroke-miterlimit="10"/>
<path d="M226.891 129.221C226.891 129.221 227.583 127.667 231.389 129.221" stroke="#010F33" stroke-width="0.805595" stroke-miterlimit="10"/>
<path d="M209.756 187.622C209.756 187.622 229.394 201.966 229.394 204.299C229.394 205.335 229.654 228.838 227.491 251.218C224.896 277.226 219.878 302.543 219.878 302.543L223.771 293.211L227.145 277.831C227.145 277.831 233.98 213.631 233.461 207.409C233.288 205.681 233.893 205.249 233.807 203.607C233.72 201.966 231.99 201.188 231.99 201.188L209.756 187.622Z" fill="#444444"/>
<path d="M220.921 328.987C216.163 312.916 222.479 287.339 222.479 287.339L224.122 291.228C221.96 299.523 221.96 308.336 222.392 315.162C222.738 320.174 223.171 323.112 223.517 324.84C223.949 326.741 222.825 328.642 220.921 328.987Z" fill="#444444"/>
<path d="M138.564 293.903C138.391 293.644 138.218 293.471 138.045 293.212C138.305 293.557 138.478 293.816 138.564 293.903Z" fill="#444444"/>
<path d="M219.015 316.714C219.015 316.714 213.998 301.506 213.479 294.594C213.479 294.594 218.583 309.369 220.4 310.493" fill="#444444"/>
<path d="M245.664 303.156C245.664 303.156 248.259 300.477 248.692 297.626C249.125 294.774 254.402 287.948 255.354 287.257C256.305 286.566 259.852 280.431 259.852 280.431C259.852 280.431 258.901 285.01 256.824 287.689C254.748 290.367 251.201 297.194 250.855 300.65C250.941 300.736 247.913 302.896 245.664 303.156Z" fill="#444444"/>
<path d="M227.49 278.786C227.49 278.786 229.826 277.404 230.172 275.935C230.518 274.466 243.582 251.568 246.696 246.903C247.388 245.779 248.686 245.434 248.686 245.434L250.07 249.235L229.047 280.947L227.49 278.786Z" fill="black"/>
<path d="M299.217 212.004L300.687 216.411L296.794 218.484L300.86 217.015L302.418 221.422L298.525 223.928L302.677 222.286L302.764 226.002L296.967 230.409L300.947 228.508L301.639 230.409L297.66 234.729L276.118 237.148L274.128 227.989L273.522 224.792L299.217 212.004Z" fill="#E3B9B7"/>
<path d="M289.869 215.715L297.741 212.518L299.385 217.098L296.79 218.48L299.472 217.53L301.115 222.282L298.52 223.924L300.25 223.232L300.769 227.553L296.963 230.404L299.645 229.108L300.51 231.7L297.655 234.725L272.652 239.65L271.009 233.688L265.991 229.54L286.322 213.123L292.897 214.505L289.869 215.715Z" fill="#36176E"/>
<path d="M276.12 237.146L297.316 232.221L297.662 234.726L276.12 237.146Z" fill="#180249"/>
<path d="M269.105 232.141L288.917 213.65L286.408 213.131L265.991 229.549L269.105 232.141Z" fill="#7215CC"/>
<path d="M306.913 212.948L275.249 212.516V215.368H278.19L277.931 234.463C277.931 237.574 280.44 240.166 283.554 240.166L298.781 240.339C301.895 240.339 304.49 237.833 304.49 234.723L304.75 215.627H306.999L306.913 212.948Z" fill="#919191"/>
<path d="M302.503 215.801H304.666L304.406 234.897C304.406 238.008 301.811 240.514 298.697 240.514H296.534C299.648 240.514 302.244 238.008 302.244 234.897L302.503 215.801Z" fill="#ADADAD"/>
<path d="M304.743 212.917L304.706 215.768L306.868 215.797L306.906 212.945L304.743 212.917Z" fill="#ADADAD"/>
<path d="M275.22 212.554L275.182 215.405L277.95 215.441L277.988 212.59L275.22 212.554Z" fill="#727272"/>
<path d="M286.232 240.334H283.464C280.349 240.334 277.84 237.742 277.84 234.631L278.1 215.536H280.868L280.609 234.631C280.609 237.656 283.118 240.248 286.232 240.334Z" fill="#727272"/>
<path opacity="0.32" d="M276.632 212.513C277.93 212.168 281.477 212.254 283.64 211.39C285.283 210.785 285.456 209.23 287.014 208.884C289.868 208.193 292.204 208.711 293.242 208.02C294.454 207.156 294.021 206.465 292.031 205.255C290.128 204.045 290.907 201.885 292.464 201.626C294.021 201.367 299.558 202.317 299.904 197.997C300.25 193.59 294.713 196.787 293.242 194.627C293.242 194.627 294.713 195.232 295.838 194.368C295.838 194.368 291.945 194.109 290.82 190.393C290.82 190.393 291.685 193.244 297.222 191.948C302.759 190.652 300.856 194.8 300.856 194.8C300.856 194.8 303.278 197.997 301.721 200.416C298.693 205.082 296.27 204.045 296.703 207.502C297.222 211.649 300.683 213.118 305.441 212.945L276.632 212.513Z" fill="#ADADAD"/>
<path d="M275.081 251.999C275.081 251.999 262.796 290.45 262.45 293.907C262.104 297.363 257.086 297.536 257.086 297.536C256.653 297.536 256.307 297.536 255.875 297.709C255.702 297.795 255.529 297.795 255.356 297.881C255.01 298.054 254.577 298.227 254.231 298.4C253.106 299.005 251.981 299.955 250.857 300.733C249.3 301.856 247.569 302.893 245.666 303.152C241.34 303.671 230.353 297.536 230.266 295.03C230.18 294.425 229.92 293.647 229.574 292.783C228.449 290.364 226.373 287.08 226.46 284.142C226.546 280.859 228.969 279.822 230.612 278.353C230.872 278.094 231.131 277.835 231.391 277.489C231.391 277.489 231.478 277.403 231.478 277.316L231.564 277.23L234.506 272.045L247.915 248.715L255.702 240.593L260.114 236.013L263.228 232.73L266.343 229.533L266.689 229.187L267.208 228.668C268.16 229.36 269.025 230.224 269.717 231.088C269.804 231.088 269.804 231.174 269.804 231.261C269.804 231.347 269.89 231.347 269.977 231.434C270.15 231.606 270.236 231.779 270.323 231.952C270.842 232.643 271.361 233.421 271.793 234.112C272.485 235.322 273.005 236.618 273.524 237.914C273.783 238.692 274.043 239.383 274.216 240.161C274.475 241.025 274.648 241.975 274.821 242.753V242.839C274.908 243.358 274.994 243.79 274.994 244.308C275.427 248.715 275.081 251.999 275.081 251.999Z" fill="#1E1E1E"/>
<path d="M250.941 300.733C252.499 299.61 253.969 298.4 255.44 297.795C256.132 296.845 256.565 295.894 256.911 294.512C258.295 289.932 259.333 285.18 259.852 280.428C258.987 284.575 256.478 288.204 254.315 291.92C252.758 294.685 251.374 297.623 250.941 300.733Z" fill="black"/>
<path d="M231.307 277.574C232.085 277.487 233.037 276.71 233.556 276.364C236.065 274.55 238.401 272.389 240.65 270.229C241.342 269.538 242.034 268.847 242.726 268.156C243.245 267.637 243.765 267.119 244.197 266.6C245.322 265.391 246.36 263.662 247.571 262.712C243.332 265.909 238.66 268.847 234.508 272.217C234.508 272.217 234.508 272.217 234.421 272.217L231.48 277.401C231.48 277.487 231.393 277.487 231.393 277.574C231.307 277.487 231.307 277.487 231.307 277.574Z" fill="black"/>
<path d="M262.28 257.876C262.54 256.493 261.675 254.333 261.502 252.95C261.242 251.222 261.761 248.544 261.588 246.816C261.329 243.273 260.637 238.78 259.685 234.978C259.425 233.941 262.626 231.781 262.972 232.558C263.491 233.941 263.838 238.78 263.751 240.249C263.751 242.063 263.664 243.878 263.578 245.692C263.405 249.753 262.886 253.814 262.28 257.876Z" fill="black"/>
<path d="M247.909 248.802L266.856 229.274C266.856 229.274 263.049 230.138 261.838 231.175C258.637 233.853 250.678 242.494 247.131 246.555L247.909 248.802Z" fill="black"/>
<path d="M275.077 252.001C275.077 252.001 262.792 290.453 262.446 293.909C262.1 297.365 257.082 297.538 257.082 297.538C256.65 297.538 256.304 297.538 255.871 297.711C257.082 297.279 257.947 296.242 258.726 295.291C259.332 294.427 259.851 293.65 260.197 293.477C261.062 292.958 260.197 288.811 261.668 285.7C262.879 283.281 270.233 257.963 273.261 247.508C273.261 247.421 273.261 247.335 273.347 247.249C274.126 244.57 274.558 243.015 274.558 243.015C274.645 243.533 274.731 243.965 274.731 244.484C275.423 248.718 275.077 252.001 275.077 252.001Z" fill="#444444"/>
<path d="M178.781 136.56L159.488 150.644L140.109 136.56V112.712L159.488 101.479L178.781 112.712V136.56Z" fill="black"/>
<path d="M167.533 130.424L159.487 136.3L151.441 130.424V120.488L159.487 115.822L167.533 120.488V130.424Z" fill="#7215CC"/>
<path d="M152.054 55.9414V86.9613L158.802 95.0835L165.637 86.9613V53.7812L152.054 55.9414Z" fill="black"/>
<path d="M145.127 109.775V134.142L163.987 147.275L159.488 150.645L140.109 136.561V112.713L145.127 109.775Z" fill="#1E1E1E"/>
<path d="M154.729 104.244L172.896 114.699V140.794L178.779 136.56V112.712L159.487 101.479L154.729 104.244Z" fill="#444444"/>
<path d="M178.776 112.713V103.986L159.484 92.7534L140.191 103.986V112.713L142.268 111.504V105.11L159.484 97.8514L176.7 105.11V111.504" fill="black"/>
<path d="M256.397 337.972C248.784 297.707 143.586 166.977 139.693 193.849" stroke="black" stroke-width="4.97773" stroke-miterlimit="10" stroke-linecap="round" stroke-linejoin="round"/>
</g>
<defs>
<linearGradient id="paint0_linear" x1="96.0872" y1="358.149" x2="196.253" y2="358.149" gradientUnits="userSpaceOnUse">
<stop stop-color="white" stop-opacity="0"/>
<stop offset="1" stop-color="white"/>
</linearGradient>
<clipPath id="clip0">
<rect width="425" height="375" fill="white"/>
</clipPath>
</defs>
</svg>
