<svg fill="none" xmlns="http://www.w3.org/2000/svg" viewBox="0 0 500 346">
  <g clip-path="url(#clip0)">
    <path fill="#181E29" d="M0 0h500v346H0z"/>
    <path fill="#fff" fill-opacity=".1" d="M0 0h500v346H0z"/>
    <g clip-path="url(#clip1)">
      <g style="mix-blend-mode:luminosity">
        <path d="M426.945 219.668H72.055a4.005 4.005 0 01-4.022-4.023V4.022A4.005 4.005 0 0172.054 0h355.003a4.006 4.006 0 014.022 4.022v211.623c-.112 2.235-1.9 4.023-4.134 4.023z" fill="#1F1F20"/>
        <path d="M421.807 7.486H77.304v204.696h344.503V7.486z" fill="#636466"/>
        <path d="M309.32 99.22c0 1.823-1.65 3.387-3.734 3.56-2.084.174-3.733-1.129-3.733-2.866s1.649-3.387 3.733-3.56c2.084-.261 3.734 1.042 3.734 2.866z" fill="#B6B7B8"/>
        <path d="M293.343 119.021l-.174-.086-10.245-2.78c-5.818-8.511-13.112-18.586-14.241-22.407 0-.087-.086-.174-.086-.26-2.692-4.517 2.865-8.338 6.338-4.778l7.728 7.122 9.291 8.685.174 2.085 1.215 12.419z" fill="#7F8183"/>
        <path d="M290.565 97.222l3.734-2.779c2.344-1.39 7.293.434 10.072 3.3l-2.171 4.69c-3.734.261-9.551-1.823-11.635-5.21z" fill="#B6B7B8"/>
        <path opacity=".47" d="M286.31 89.058l-2.431 2.259-1.476-1.65c-.434.347-1.129.086-1.65-.522l-1.736-1.91c.781-1.477 1.91-2.52 3.299-3.735l1.129 1.303.608-.608c0 .087.868 1.39.955 1.563.173.434.173.956 0 1.477l-.174.26 1.476 1.563z" fill="#DCDDDE"/>
        <path opacity=".47" d="M282.056 84.629c.26.26.608.26.868 0l.087-.087c.174-.087.174-.26.26-.434 0-.174 0-.348-.173-.435l-.782-.955c-.173-.26-.608-.26-.868 0l-.174.174c-.26.173-.26.52-.087.781l.869.956z" fill="#E5E6E7"/>
        <path opacity=".47" d="M281.101 85.671a.66.66 0 00.434.174.664.664 0 00.434-.174l.087-.087c.26-.26.347-.608.086-.868l-.955-1.216a.66.66 0 00-.434-.174.664.664 0 00-.434.174l-.174.174c-.26.173-.26.52-.086.781l1.042 1.216z" fill="#E5E6E7"/>
        <path opacity=".47" d="M280.146 86.713c.26.261.607.261.868 0l.087-.086c.173-.087.173-.26.26-.435 0-.173 0-.347-.173-.434l-.782-.955c-.174-.26-.608-.26-.868 0l-.174.174c-.087.086-.174.26-.174.347 0 .174 0 .26.087.434l.869.956z" fill="#E5E6E7"/>
        <path opacity=".47" d="M279.277 87.494c.174.174.521.174.695 0l.087-.086a.46.46 0 00.086-.695l-.607-.695c-.174-.174-.435-.174-.695 0l-.174.174c-.173.173-.26.434-.087.608l.695.694zM284.313 89.492l-.868-.955c-1.389-1.216-.261-2.78-.261-2.78l-.086-.173c-.087-.087-.174-.174-.261-.174l-.608-.087c-.26 0-.434-.087-.521-.26-.173-.174-.173-.435-.173-.608v-.174c0-.26.26-.347.434-.347l.694.086 1.042.087c.087 0 .174.087.261.174 0 .087.868 1.39.955 1.563.174.435.174.956 0 1.477l-.174.26.435.435-.869 1.476z" fill="#E5E6E7"/>
        <path d="M282.403 89.666c1.042-.173 1.736-1.129 2.431-2.17 3.386 2.692 7.294 2.518 9.812 6.6.521 2.432-.608 4.082-2.692 4.776-3.734-1.476-6.946-4.776-9.551-9.206z" fill="#B6B7B8"/>
        <path d="M292.735 96.354c-3.82 1.737-9.377-5.298-8.943-7.47-1.563.522-3.213-.347-4.602-1.476l.087.087 1.476 1.65c.521.608 1.215.869 1.65.521 2.605 4.43 5.73 7.643 9.464 9.12 2.605 2.431 7.207 3.908 10.246 3.647l.347-.781c.695.781 1.824 1.216 3.126 1.129 2.084-.174 3.734-1.824 3.734-3.561 0-.26 0-.521-.087-.782-4.515 3.127-17.019 3.127-16.498-2.084z" fill="#717173"/>
        <path d="M315.311 105.994l-1.128 9.988c-8.162 1.65-15.456 4.776-21.013 3.039-1.91-1.823-2.952-6.166-2.084-11.116.174-1.13.434-2.259.781-3.388 1.303.087 2.518.087 3.56-.086 6.686-1.043 8.162-6.601 13.198-6.862l1.129.956 1.737 1.476 3.039 4.951.781 1.042z" fill="#8A8C8E"/>
        <path d="M281.361 172.262c-.261 1.129-.695 2.518 2.17 1.997 5.297-1.042 6.252-.608 12.157-1.129.26 0 .521-.26.521-.521a.654.654 0 00-.435-.608l-6.164-1.476a3.206 3.206 0 01-2.258-2.085l-.434-1.476-4.168.347-.087.782c-.087 1.129-.347 2.258-.955 3.213-.087.261-.26.608-.347.956z" fill="#B6B7B8"/>
        <path d="M282.837 141.256c.174 5.558 7.207 5.645 7.902.434 1.823-7.817 2.952-15.373 3.125-22.495l-12.416-5.124c0 10.683.26 20.584 1.389 27.185z" fill="#7F8183"/>
        <path d="M282.403 169.482l4.949-1.303 3.126-25.447-7.641-.26c-3.386 8.164-1.65 17.37-.434 27.01z" fill="#7F8183"/>
        <path d="M307.583 111.466c-.347.782-1.215.26-2.605.26-4.341.087-8.075 5.211-11.461 2.606-.955-.695-2.084-2.171-1.042-4.516-.695.781-1.476 1.563-1.823 2.518-3.56 9.901 3.907 20.584-3.213 29.79-.695.782 1.389 1.303 1.389 2.692-.347 8.946-1.389 17.892-2.865 26.837-.174 1.477-2.258 1.737-4.689 2.085.174.521.781.781 2.344.434 5.297-1.042 6.252-.608 12.156-1.129.261 0 .521-.261.521-.521a.652.652 0 00-.434-.608l-6.165-1.477a3.203 3.203 0 01-2.257-2.084l-.087-.261 3.126-25.447.26-1.042c1.824-7.817 2.953-15.373 3.126-22.494 5.47 1.303 12.504-1.65 20.318-3.214l.782-6.6 4.168-5.733c-2.779 3.822-8.249 4.604-11.549 7.904z" fill="#717173"/>
        <path d="M314.964 109.382c-2.084-1.564-4.168-.695-6.078-.174-2.518.695-4.429-.347-4.95-2.692-.607-3.04-.521-6.427 5.818-8.078 3.82 1.477 3.994 5.993 9.378 2.953l1.128.782-5.296 7.209z" fill="#B6B7B8"/>
        <path d="M314.617 104.779c-.869.868-1.737 1.129-2.605 1.389-3.994 1.042-3.473-4.95-2.258-7.816l2.084.347 2.779 6.08z" fill="#717173"/>
        <path d="M319.479 103.39c-.087 0-2.518-.955-2.518-.955-.087.086-.174.26-.26.347a2.604 2.604 0 00-.434.608c-1.129 1.476-2.171 1.997-3.3 2.171-1.042.174-1.216.174-1.476.087-1.042-.434-1.65-.869-1.476-3.04 0-.434.434-1.91.434-1.91s-.608-.435-.695-.522c-.087-.173 0-.434.174-.608.521-.694 1.302-1.302 1.823-1.997 0 0-.086-.695.348-1.563.607-1.216 1.389-2.172 2.257-2.78 1.737-1.302 3.821-1.302 5.471-.52.173.086.26.173.434.173 2.084 1.129 3.473 3.474 2.691 5.558v.087c-.173.348-1.128 3.387-3.473 4.864z" fill="#B6B7B8"/>
        <path d="M319.815 103.668s-1.611 1.02-3.043-.556c.09-.186.537-1.113.627-1.206.089-.186.179-.278.179-.371.268-1.02-.627-1.391-1.074-1.577 1.79-3.524 3.132-6.12-1.879-6.955 1.789-1.391 3.937-1.391 5.638-.556.179.092.268.185.447.185 2.148 1.206 3.58 3.71 2.774 5.935v.093c-.268.186-1.252 3.431-3.669 5.008z" fill="#505153"/>
        <path d="M319.132 100.957c-.521 1.129-1.65 2.171-2.257 1.39-.435-.521-.348-1.216 0-2.085.347-.868 1.128-1.216 1.823-1.042.695.087.868.869.434 1.737z" fill="#B6B7B8"/>
        <path d="M258.872 75.423c-.781-.782-1.563-1.65-2.344-2.432a19.063 19.063 0 01-1.737-1.998c-.695-.868-1.216-1.824-1.737-2.779-.26-.608-.521-1.216-1.042-1.65a2.26 2.26 0 00-2.083-.608c-.782.087-1.563.608-1.998 1.216-.347-.087-.694.174-.868.52-.174.348-.087.696 0 1.043.695 2.171 3.387 3.04 4.255 5.124.173.521.347 1.13.781 1.39.261.174.608.26.955.26 1.042.261 1.997.956 2.518 1.911a41.536 41.536 0 003.3-1.997zM314.877 117.372c0 .087 0 .087 0 0a3.818 3.818 0 01-1.389 1.651c-.955.608-2.084.781-3.387.434-2.084-.521-3.299-2.519-2.691-4.603.086-.261.173-.521.347-.869.955-1.997 3.386-4.169 5.21-3.821h.087c.868.174 1.476 1.042 1.91 2.171.521 1.65.608 3.648-.087 5.037z" fill="#E5E6E7"/>
        <path d="M296.729 119.369l3.734-5.124c2.779-2.085 7.207-1.824 9.117-.348l.782 5.385c-3.3 1.911-9.291 1.65-13.633.087z" fill="#E5E6E7"/>
        <path d="M297.251 105.561l3.299.173c1.042 3.822.956 7.817.521 11.551-1.476 2.085-3.125 2.953-4.862 1.824-.955-3.821-.434-8.685 1.042-13.548z" fill="#B6B7B8"/>
        <path d="M254.531 76.638c.694-1.737 1.65-2.866 2.865-3.3 7.381 4.256 11.896 8.338 16.585 14.678l-5.297 6.08c-7.641-3.388-8.943-9.641-14.153-17.458z" fill="#7F8183"/>
        <path opacity=".47" d="M301.071 102.52c.348 0 .695-.26.695-.608l.173-1.997a.593.593 0 00-.607-.608c-.348 0-.695.26-.695.608l-.174 1.997c0 .348.261.608.608.608z" fill="#DCDDDE"/>
        <path opacity=".47" d="M299.768 102.694c.348 0 .695-.261.695-.608l.174-2.345a.594.594 0 00-.608-.608c-.347 0-.695.26-.695.608l-.173 2.345c0 .347.26.608.607.608z" fill="#DCDDDE"/>
        <path opacity=".47" d="M301.418 104.343c.174-.521.434-1.042.608-1.563.087-.261.174-.608 0-.869a8.515 8.515 0 01-.434-1.389c-.087-.348-.434-.521-.868-.434-.348.086-.608.521-.521.868.173.434.26.955.434 1.39-.174.434-.434.955-.608 1.476-.174.434 0 .869.434.955.434.174.782-.086.955-.434zM298.466 102.781c.347 0 .695-.261.695-.608l.173-1.998a.593.593 0 00-.607-.608c-.348 0-.695.26-.695.608l-.174 1.998c0 .26.261.608.608.608z" fill="#DCDDDE"/>
        <path opacity=".47" d="M297.25 102.781c.348 0 .608-.26.608-.608l.087-1.737c0-.347-.174-.521-.521-.521a.594.594 0 00-.608.608l-.087 1.737c0 .261.261.521.521.521z" fill="#DCDDDE"/>
        <path opacity=".47" d="M298.379 105.56h1.216c1.042 0 1.91-.869 1.997-1.911l.087-1.563-4.949.087-.087 1.563c-.087.955.694 1.824 1.736 1.824z" fill="#E5E6E7"/>
        <path opacity=".47" d="M297.164 107.384l3.473-.087.173-3.387-3.473.087-.173 3.387zM296.729 102.346l.087-1.129c0-.347.261-.608.608-.608s.521.261.521.521v-.174c0-.347.347-.607.695-.607.347 0 .608.26.608.607v-.173c0-.348.347-.608.694-.608.348 0 .608.26.608.608 0-.348.347-.608.695-.608.347 0 .607.26.607.608l-.086 1.563h-5.037z" fill="#E5E6E7"/>
        <path d="M314.877 117.372c0 .087 0 .087 0 0a3.818 3.818 0 01-1.389 1.651c-.955.608-2.084.781-3.387.434-2.084-.521-3.299-2.519-2.691-4.603.086-.261.173-.521.347-.869.955-1.997 3.386-4.169 5.21-3.821h.087c.868.174 1.476 1.042 1.91 2.171.521 1.65.608 3.648-.087 5.037z" fill="#B6B7B8"/>
        <path d="M296.729 119.369l3.734-5.124c2.779-2.085 7.207-1.824 9.117-.348l.782 5.385c-3.3 1.911-9.291 1.65-13.633.087z" fill="#B6B7B8"/>
        <path d="M301.071 102.52c.348 0 .695-.26.695-.608l.173-1.997a.593.593 0 00-.607-.608c-.348 0-.695.26-.695.608l-.174 1.997c0 .348.261.608.608.608z" fill="#AEAFB0"/>
        <path d="M299.768 102.694c.348 0 .695-.261.695-.608l.174-2.345a.594.594 0 00-.608-.608c-.347 0-.695.26-.695.608l-.173 2.345c0 .347.26.608.607.608z" fill="#AEAFB0"/>
        <path opacity=".47" d="M301.418 104.343c.174-.521.434-1.042.608-1.563.087-.261.174-.608 0-.869a8.515 8.515 0 01-.434-1.389c-.087-.348-.434-.521-.868-.434-.348.086-.608.521-.521.868.173.434.26.955.434 1.39-.174.434-.434.955-.608 1.476-.174.434 0 .869.434.955.434.174.782-.086.955-.434z" fill="#DCDDDE"/>
        <path d="M298.466 102.781c.347 0 .695-.261.695-.608l.173-1.998a.593.593 0 00-.607-.608c-.348 0-.695.26-.695.608l-.174 1.998c0 .26.261.608.608.608z" fill="#AEAFB0"/>
        <path d="M297.25 102.781c.348 0 .608-.26.608-.608l.087-1.737c0-.347-.174-.521-.521-.521a.594.594 0 00-.608.608l-.087 1.737c0 .261.261.521.521.521z" fill="#AEAFB0"/>
        <path d="M298.379 105.56h1.216c1.042 0 1.91-.869 1.997-1.911l.087-1.563-4.949.087-.087 1.563c-.087.955.694 1.824 1.736 1.824z" fill="#AEAFB0"/>
        <path opacity=".47" d="M297.164 107.384l3.473-.087.173-3.387-3.473.087-.173 3.387z" fill="#B6B7B9"/>
        <path d="M296.729 102.346l.087-1.129c0-.347.261-.608.608-.608s.521.261.521.521v-.174c0-.347.347-.607.695-.607.347 0 .608.26.608.607v-.173c0-.348.347-.608.694-.608.348 0 .608.26.608.608 0-.348.347-.608.695-.608.347 0 .607.26.607.608l-.086 1.563h-5.037z" fill="#E5E6E7"/>
        <path d="M297.598 117.024c-1.824-1.216-1.476-4.169-1.389-7.209-.608 3.388-.695 6.601.086 9.38.174.087.348.174.434.261h.087c.174.087.348.087.434.174 4.168 1.302 9.639 1.563 12.851-.087 1.303.347 2.518.173 3.387-.435.521-.347.955-.868 1.302-1.65v-.087c.347-.781.521-1.737.521-2.692-3.126 5.993-13.806 5.211-17.713 2.345zM287.005 110.944c-9.899-2.258-14.24-12.506-16.672-19.454-8.075-1.824-10.593-11.725-16.324-16.936a17.937 17.937 0 00-3.907-2.345c.521.521 1.042 1.042 1.302 1.737.174.521.348 1.13.782 1.39.26.173.608.26.955.26.608.087 1.129.434 1.563.782-.087.087-.087.174-.174.26 5.21 7.904 6.513 14.07 14.154 17.457 1.302 3.735 7.467 12.333 12.764 20.15-.087 9.987.086 19.107 1.042 25.621 1.476-7.643 0-15.72 1.562-23.624.782-1.91 2.258-3.474 2.953-5.298zM295.427 104.257c-.26.261-.521.435-.781.522-.521.26-1.129.434-1.65.781a4.11 4.11 0 00-.868.869c-.434.781-.608 1.737-.261 2.518-.347-.347-.607-.781-.781-1.129-.521-1.129-.695-2.345-1.302-3.126-.435-.521-.869-1.129-1.303-1.65a67.874 67.874 0 01-2.344-2.867c-1.216-1.476-2.345-2.952-3.56-4.429l9.29 8.685c1.303.087 2.518 0 3.56-.174z" fill="#717173"/>
        <path d="M219.142 145.945c.521 4.777 7.207 3.908 8.336-1.997.781-3.735 1.563-7.47 1.563-11.552l-10.159.435c-.782 3.474-.435 8.685.26 13.114z" fill="#B2B3B5"/>
        <path d="M218.013 125.969l-1.042 12.159c3.994.174 8.162-.174 13.025-1.737.868-4.082 1.128-8.077 1.041-11.985-.173-4.951-.955-9.641-2.083-14.157l-11.636 5.819c-.694 3.561-.868 6.861.695 9.467v.434z" fill="#646567"/>
        <path d="M211.588 166.355l3.473 1.303c4.515-7.035 8.683-14.765 11.635-21.713h-7.554c-5.731 4.169-4.428 13.288-7.554 20.41z" fill="#B2B3B5"/>
        <path d="M212.803 174.693c-.521-.347-.781-.955-.955-1.563-.521-1.39.087-2.171-.434-3.561-.26-.608-1.042-.869-1.042-2.519 0-.868 1.042-1.476 1.823-1.997.956.173 3.3.26 4.255.347-.781 1.737-.434 2.953.087 4.256.521 1.303.608 2.258 1.389 2.518.608.174 2.171.261 2.779.435.608.173 1.042.955.694 1.563-1.997.174-4.081.434-6.078.608-.781.174-1.91.347-2.518-.087z" fill="#E5E6E7"/>
        <path d="M219.142 145.946c-5.384 3.995-4.515 12.419-7.12 19.28-.782.521-1.65 1.043-1.65 1.911 0 1.65.782 1.911 1.042 2.519.521 1.389-.087 2.171.434 3.561.261.608.434 1.216.955 1.563.608.434 1.737.174 2.518.174 1.997-.174 4.081-.435 6.078-.608.174-.261.174-.435.087-.695-3.299-.174-7.554 1.389-8.422-1.65.26-7.991 1.65-20.15 8.422-25.274-.868-3.126-.868-5.993-.347-8.511-.955.174-1.91 0-2.779.087.174 2.171.435 5.298.782 7.643z" fill="#7A7A7C"/>
        <path d="M236.074 120.758c-.261-1.477-6.773-7.99-7.12-9.38l-11.549 4.603c-.694 3.561-.868 6.861.695 9.467v.521l-1.042 12.159c.434 0 3.213.087 4.168 0 1.389-6.688 7.033-11.812 14.848-17.37z" fill="#49494B"/>
        <path d="M202.123 98.785c.261.695.608 1.39.868 1.998.434.781.869 1.476 1.39 2.171 3.82 5.124 9.464 6.948 13.024 13.027l10.333-5.124 1.389-.695c-1.129-4.516-2.518-9.032-4.168-13.288-.087-.347-.26-.608-.347-.955l-.782-1.824a138.297 138.297 0 00-3.212-7.209V86.8c-.608-.087-1.303-.087-1.91-.174h-1.911c-2.257.087-4.341.608-6.165 1.563-.607.348-1.128.695-1.736 1.043-.348.26-.695.52-1.042.868l-.261.26-.26.261-.782.782a19.776 19.776 0 00-1.823 2.432c-1.042 1.39-1.823 3.04-2.605 4.95z" fill="#B2B3B5"/>
        <path d="M204.381 102.954c3.82 5.124 9.464 6.948 13.024 13.027l10.333-5.124c-2.865-.087-10.333 3.735-18.495-6.427.955-.955 2.345-3.474 2.345-5.992 1.476.694 2.691.868 4.341 1.39 2.084.694 2.952.434 5.036-.696 1.042-.52 2.518-1.39 3.908-2.258-.087-.347-.261-.608-.348-.955l-.781-1.824-13.893-2.084-5.47 10.943z" fill="#7A7A7C"/>
        <path opacity=".47" d="M242.065 67.954l-.174.434-.955 2.345c-.347.868-.955 1.563-1.476 1.39l-.955 2.344-.434-.086-2.692-.869.608-1.65.26-.695-.26-.174c-.348-.434-.521-.955-.434-1.476 0-.087.086-.521.26-1.042.087-.434.261-.956.261-.956l.781.26.174-.433.26-.695.261-.695c.26.087.607.174.868.26.434.174.868.261 1.302.435.435.174.869.347 1.216.608.521.26.781.434 1.129.695z" fill="#D5D7D8"/>
        <path opacity=".47" d="M238.158 66.998c-.174.347-.521.608-.869.434h-.087a.68.68 0 01-.347-.347.553.553 0 010-.521l.521-1.303c.087-.347.521-.521.782-.434l.26.087c.347.087.434.434.347.781l-.607 1.303z" fill="#E5E6E7"/>
        <path opacity=".47" d="M239.46 67.519c-.087.173-.174.347-.347.434-.174.087-.348.087-.521.087h-.087c-.348-.087-.521-.434-.348-.869l.608-1.65c.087-.174.174-.347.348-.347.173-.087.347-.087.521-.087l.26.087c.261.087.434.434.347.695l-.781 1.65z" fill="#E5E6E7"/>
        <path opacity=".47" d="M240.763 68.127c-.174.347-.521.608-.869.434h-.087a.68.68 0 01-.347-.347.553.553 0 010-.521l.521-1.303c.087-.347.521-.521.782-.434l.26.087c.174.086.261.173.347.26.087.087.087.26 0 .434l-.607 1.39z" fill="#E5E6E7"/>
        <path opacity=".47" d="M241.891 68.388c-.087.26-.434.434-.695.347h-.086c-.261-.087-.434-.347-.348-.695l.348-1.042c.086-.26.434-.434.694-.348l.174.087c.26.087.347.348.26.608l-.347 1.043zM237.463 72.903l.521-1.39c1.041-1.997-.608-2.866-.608-2.866l.087-.26c0-.087.086-.26.173-.26l.608-.348c.261-.087.347-.347.434-.608.087-.26.087-.521-.087-.695l-.086-.087c-.087-.173-.348-.26-.608-.173l-.695.434-1.042.608-.26.26c0 .087-.435 1.911-.435 1.998-.086.521.087 1.042.435 1.477l.26.173-.26.695 1.563 1.042z" fill="#E5E6E7"/>
        <path d="M214.887 94.53c.347.347.868.52 1.476.608 2.171.26 5.384-1.216 6.686-3.04 1.389-1.998 1.042-3.822-.695-5.385a3.638 3.638 0 00-1.215-.782c-1.476-.608-3.213-.347-4.602.695-.087.087-.261.174-.347.348-.174.173-.348.347-.435.52-1.389 1.998-2.431 5.646-.868 7.036z" fill="#E5E6E7"/>
        <path d="M234.945 83.847l-3.995-2.258c-2.518-1.042-7.901 1.91-10.766 5.472l2.344 4.603c3.907-.348 10.159-3.822 12.417-7.817z" fill="#B2B3B5"/>
        <path d="M239.46 72.122c-1.216 5.82-2.431 8.164-4.515 11.725-.608.087-1.216.174-1.91.26-2.084.174-4.342-.086-4.515-2.084 1.91-3.821 5.296-6.427 7.814-10.77a6.575 6.575 0 001.563.783c.434.173.955.26 1.563.086z" fill="#B2B3B5"/>
        <path d="M239.46 72.123c-1.216 5.819-2.431 8.164-4.515 11.725-2.258 4.082-8.51 7.469-12.417 7.903l-2.344-4.516c4.167 3.387 9.464.869 12.85-3.127.087-.086.174-.173.261-.347 2.257-2.866 3.734-6.861 4.775-9.38.521-1.216.956-2.084 1.39-2.258z" fill="#7A7A7C"/>
        <path d="M248.664 115.114c4.602-1.998 2.952-8.251-3.039-7.643-3.734.434-7.554.782-11.548 1.998l1.736 9.901c3.647-.261 8.683-2.172 12.851-4.256zM208.549 91.055c.781.782 7.728 5.906 7.728 5.906s0-.695.087-1.824c.086-2.345.26-6.253.26-7.816v-.869l-.347-1.303v-4.168l-2.518.26-1.216.087H211.762l-1.303.087h-1.476l.174 1.216.086.52.174 1.477.087.434-.608 4.256-.174 1.216-.173.521z" fill="#B2B3B5"/>
        <path d="M203.686 93.401l.955.348 6.165 2.431 5.731 2.172c1.129.608 2.518.694 3.82.087 0 0 3.821-1.911 4.081-2.52.348-.607.434-1.389.261-1.997-.869-2.953-2.171-5.819-4.342-7.469h-3.907a14.44 14.44 0 00-6.165 1.65c-.608.348-1.129.695-1.65 1.043-.347.26-.694.52-1.042.868a63.795 63.795 0 01-.521.521l-.781.782c-.782.174-1.823 1.042-2.605 2.084z" fill="#B2B3B5"/>
        <path d="M202.123 98.785c0 .087 0 .087 0 0 .174.869.434 1.477.868 1.998.782.781 1.997 1.129 3.56.955 2.432-.261 4.429-2.258 4.429-4.603 0-.26 0-.608-.087-.955-.434-2.259-2.171-5.038-4.342-4.777h-.086c-.956.087-1.998.955-2.779 2.084-1.129 1.564-1.823 3.735-1.563 5.298z" fill="#B2B3B5"/>
        <path d="M198.824 109.381l5.036 1.824c2.692-1.216 4.515-6.948 4.168-11.29l-5.123-1.13c-2.779 3.127-3.473 6.427-4.081 10.596z" fill="#B2B3B5"/>
        <path d="M197.608 124.32l3.647-.347c1.823-4.256 2.344-8.599 2.518-12.767-1.303-2.172-2.952-3.127-5.036-1.824-1.737 4.255-1.91 9.553-1.129 14.938z" fill="#B2B3B5"/>
        <path opacity=".47" d="M201.342 127.532c.434 0 .694.348.694.695l-.173 2.171c0 .348-.348.695-.782.695-.347 0-.694-.347-.608-.695l.174-2.171c0-.347.261-.695.695-.695z" fill="#DCDDDE"/>
        <path opacity=".47" d="M199.953 127.358c.434 0 .694.348.694.695l-.173 2.606c0 .347-.348.695-.782.695-.347 0-.695-.348-.608-.695l.174-2.606c0-.347.26-.695.695-.695z" fill="#DCDDDE"/>
        <path opacity=".47" d="M202.036 125.535c.087.608.261 1.129.434 1.737.087.261.087.608-.086.956-.261.521-.521 1.042-.695 1.563-.174.434-.608.608-1.042.521-.347-.087-.608-.521-.347-.955.26-.521.434-1.043.694-1.564-.173-.521-.26-1.042-.434-1.563-.087-.434.174-.955.608-1.129.347-.261.781 0 .868.434zM198.563 127.358c.435 0 .695.348.695.695l-.174 2.171c0 .348-.347.695-.781.695-.347 0-.695-.347-.608-.695l.174-2.171c-.087-.347.26-.695.694-.695zM197.174 127.358c.347 0 .608.261.608.608l-.174 1.911c0 .347-.347.608-.695.608a.593.593 0 01-.607-.608l.173-1.911c.087-.26.348-.608.695-.608z" fill="#DCDDDE"/>
        <path opacity=".47" d="M198.91 124.319h1.39c1.128 0 1.997.869 1.91 1.998l-.174 1.65-5.47.087.174-1.65c0-1.129 1.042-2.085 2.17-2.085z" fill="#E5E6E7"/>
        <path opacity=".47" d="M197.782 122.321l3.907-.087-.347 3.735-3.821.087.261-3.735zM196.566 127.793l-.087 1.216c0 .347.261.608.608.608.348 0 .608-.261.695-.608v.26c0 .348.26.695.608.695.347 0 .694-.347.781-.695v.174c0 .348.261.695.608.695s.695-.347.781-.695c0 .348.261.695.608.695.348 0 .695-.347.782-.695l.173-1.65h-5.557z" fill="#E5E6E7"/>
        <path d="M240.155 134.741l3.733.521c3.126-7.642 5.731-15.893 7.381-23.189l-7.554 1.477c-4.863 5.124-1.824 13.722-3.56 21.191z" fill="#B2B3B5"/>
        <path d="M239.112 139.344c-.26-.608-.694-1.129-1.042-1.65-.347-.608-.607-1.216-.434-1.91.261-.956 1.129-1.651 1.997-2.172.695-.434 1.39-.868 2.171-1.042.782-.174 1.65 0 2.345.347l-.782 9.38c-.087 1.477-.26 3.04.521 4.169.347.521.782 1.042.434 1.65-.347.521-1.129.521-1.65.261-1.649-.782-2.778-2.345-3.039-4.169-.26-1.737.087-3.474-.521-4.864z" fill="#E5E6E7"/>
        <path d="M218.1 125.448c1.91 2.084 12.503-.347 20.057-2.084 1.303-4.169 3.126-11.117 2.866-15.547-3.387.261-7.468 1.129-11.896 2.432-4.689 1.129-8.509 3.127-11.635 5.819-.782 3.474-1.042 6.861.608 9.38z" fill="#646567"/>
        <path d="M212.195 82.892c.174 4.168 1.737 4.95 3.647 4.69.261 0 .521-.087.782-.174 1.736-.521 3.56-1.564 4.602-1.477-1.477-.608-3.213-.347-4.602.695l-.348-1.476v-1.564l-4.081-.694zM244.235 147.28c-5.122-2.084-1.91-11.323-1.91-15.839-.347-6.08-.608-12.507 1.91-18.239-1.128 1.303-2.865 2.432-4.341 3.3l-.521 2.172c.434-.087 1.476-.435 1.91-.608-1.042 4.429-.087 9.727-.781 14.764-.261.174-.608.348-.869.521-.868.522-1.823 1.216-1.997 2.172-.173.695-.095 1.266.252 1.787.348.608.75 1.412 1.01 2.019.608 1.39.562 3.348.735 4.912.261 1.824 1.477 3.387 3.04 4.169.521.26 1.389.347 1.649-.261.261-.087.174-.434-.087-.869z" fill="#7A7A7C"/>
        <path d="M226.262 120.758c-1.65.434-3.56 0-4.515-1.216-2.171-1.998-1.303-4.516.521-6.861-1.824.955-3.387 2.084-4.863 3.3-.694 3.561-.868 6.861.695 9.467 1.91 2.084 12.503-.348 20.058-2.085.434-1.302 1.823-6.774 1.823-6.774-4.341 2.519-9.204 3.213-13.719 4.169z" fill="#49494B"/>
        <path d="M206.465 91.404c.608-.26 1.389-.608 2.171-.956 1.823-.868 3.994-1.65 5.47-1.39-1.65-.52-2.952-.347-3.647-.868-.26-.174-.347-.347-.521-.695-.521-2.605 1.823-4.603 3.734-6.253l-1.216.087H211.675l-1.303.087h-1.476l.174 1.216.087.52.173 1.477.087.435-.608 4.255c-.347.26-.694.521-1.042.869l-.26.26-.261.26c-.26.175-.521.435-.781.696z" fill="#7A7A7C"/>
        <path d="M209.156 83.066c.087 0 2.866-.608 2.953-.608.086.173.086.26.173.434.087.26.174.434.261.695.694 1.65 1.563 2.431 2.691 2.779.956.26 1.216.347 1.477.347 1.215-.26 1.997-.694 2.518-2.866.086-.52.173-1.997.173-1.997s.782-.348.869-.435c.086-.173.173-.434.086-.694-.347-.782-.868-1.564-1.215-2.258 0 0 .347-.695.173-1.65-.26-1.39-.694-2.433-1.389-3.214-1.389-1.563-3.473-1.91-5.383-1.39-.174.087-.348.087-.521.174-2.605.868-4.776 3.04-4.602 5.298v.087c-.174.173-.174 3.387 1.736 5.298z" fill="#B2B3B5"/>
        <path d="M209.156 83.066s1.303 1.215 3.213-.087c0-.174-.174-1.13-.26-1.303 0-.174-.087-.26-.087-.434 0-.956 1.042-1.216 1.649-1.39-.694-3.648-1.215-6.34 4.081-6.34-1.389-1.563-3.473-1.91-5.383-1.39-.174.087-.347.087-.521.174-2.605.869-4.776 3.04-4.602 5.298v.087c0 .26 0 3.474 1.91 5.385z" fill="#505153"/>
        <path d="M210.285 80.635c.174 1.215.955 2.431 1.823 1.736.608-.52.782-1.129.695-2.084-.087-.955-.695-1.39-1.476-1.39-.782 0-1.129.782-1.042 1.737zM202.297 128.228c-1.476.695-3.386.869-5.818.521l.087-.868.087-1.39c.087-.695.434-1.303.955-1.65l-.26-2.432 4.602-.087-.521 2.432c.173.174.347.347.434.521.087.174.174.434.174.695.086.434.173.868.347 1.303.174.26.087.608-.087.955 0-.087 0 0 0 0z" fill="#B2B3B5"/>
        <path d="M200.386 110.249c-4.602 5.037.521 13.028-3.82 17.544l.087-1.39c.087-.695.434-1.303.955-1.65v-.434c-.782-5.385-.608-10.683 1.215-14.939.521-3.821 1.216-6.948 3.387-9.9-.087-.174-.087-.348-.174-.609v-.086c-.173-.956.087-2.172.521-3.3.174 1.91-.26 3.213.868 5.037-3.039 1.824-4.254 7.816-3.039 9.727z" fill="#7A7A7C"/>
        <path d="M421.918 174.304H76.746v37.989h345.172v-37.989z" fill="#4F5153"/>
        <path d="M101.321 239.109h-7.26l5.473-22.57h12.735l-10.948 22.57zM397.679 239.109h7.261l-5.474-22.57h-12.735l10.948 22.57z" fill="#1F1F1F"/>
        <path d="M296.249 42.346h93.387c4.356 0 7.819-3.575 7.819-7.82v-2.347c0-4.358-3.574-7.822-7.819-7.822h-93.387c-4.356 0-7.819 3.576-7.819 7.822v2.346a7.772 7.772 0 007.819 7.822z" fill="#7D7D7D"/>
        <path d="M333.894 40.112c3.016-4.58 5.921-9.274 8.937-13.967h44.682c3.91 0 7.15 3.24 7.15 7.151 0 3.911-3.24 7.151-7.15 7.151h-53.842c.112-.111.112-.223.223-.335z" fill="#A467DE"/>
        <path d="M102.774 42.346h93.498c4.356 0 7.819-3.575 7.819-7.82v-2.347c0-4.358-3.574-7.822-7.819-7.822h-93.498c-4.357 0-7.82 3.576-7.82 7.822v2.346a7.772 7.772 0 007.82 7.822z" fill="#7D7D7D"/>
        <path d="M249.241 49.363l15.044-14.444-14.44-15.048L234.8 34.315l14.441 15.048z" fill="#A9ABAE"/>
        <g opacity=".43" fill="#fff">
          <path opacity=".13" d="M408.625 212.181h-59.092c-1.006-1.788-2.011-3.576-3.128-5.363-23.905-41.565-46.246-84.024-68.364-126.594-12.065-23.24-23.347-47.04-34.964-70.504-.336-.67-.671-1.453-1.118-2.235h73.615c3.91 7.263 7.819 14.526 11.617 21.788 11.171 21.118 21.895 42.459 31.613 64.359 10.166 22.793 19.102 46.034 28.821 69.163a1304.186 1304.186 0 0012.399 28.715c2.458 7.039 5.474 13.855 8.601 20.671zM218.725 153.521c-10.948-20.335-21.448-41.006-32.395-61.341-10.948-20.336-22.23-40.56-33.289-60.895-4.245-7.821-8.154-15.866-12.399-23.911H77.304v67.71c2.793 4.246 5.697 8.492 8.49 12.738 10.053 15.196 19.772 30.615 29.379 46.034 9.606 15.419 19.66 30.503 29.378 45.811 6.815 10.726 13.629 21.564 20.666 32.291h86.237c-11.282-19.218-22.117-38.772-32.729-58.437z"/>
        </g>
        <path d="M453.643 246.036H45.245v76.091h408.398v-76.091z" fill="#737475"/>
        <path d="M458 238.662H41v7.375h417v-7.375z" fill="#4D4E4F"/>
        <path d="M439.457 256.539H321.383v57.431h118.074v-57.431zM177.617 256.539H59.544v57.431h118.073v-57.431z" fill="#909294"/>
        <path d="M434.989 267.377h-13.07v46.705h13.07v-46.705z" fill="#4B4B4B"/>
        <path d="M422.924 276.763h-10.5v37.319h10.5v-37.319z" fill="#6B6C6D"/>
        <path d="M405.721 314.082l-6.255-1.676 6.926-32.738 6.143 1.676-6.814 32.738z" fill="#4B4B4B"/>
        <path d="M377.907 280.562c1.564-3.799 2.346-8.604 0-9.386-2.681-1.006-5.697 4.134-6.479 5.922-.335.558-.559 1.229-.894 1.899.112-.782.112-1.676.224-2.346.223-2.347.782-7.933-1.788-9.497-2.904-1.788-5.697 3.016-6.479 5.139-.781 2.011-.893 4.134-.893 6.257-.335-2.905-1.117-6.368-3.24-5.922-4.245.671-1.34 11.286-.893 13.855-.671-2.234-5.586-14.637-8.49-10.391-1.899 2.682-1.676 6.369-.447 9.274 2.569 6.369 9.495 9.386 15.974 9.721 3.016.112 6.703 0 9.272-1.676 3.351-2.123 5.585-6.034 6.814-9.721 1.229-3.799-.67-4.134-2.681-3.128z" fill="#737475"/>
        <path d="M380.923 293.97h-32.172v20.112h32.172V293.97z" fill="#636567"/>
        <path d="M382.71 289.054h-35.857v5.698h35.857v-5.698z" fill="#4B4B4B"/>
        <path d="M158.068 314.082H70.602l1.564-11.732 1.117-8.715h82.216l1.117 8.715 1.452 11.732z" fill="#595B5D"/>
        <path d="M143.546 293.635H84.454v11.061h59.092v-11.061z" fill="#333"/>
        <path d="M93.725 298.328a2.003 2.003 0 01-2.01 2.011 2.003 2.003 0 01-2.011-2.011c0-1.118.893-2.012 2.01-2.012 1.117.112 2.011.894 2.011 2.012zM107.465 299.221h-9.83a1.001 1.001 0 01-1.005-1.005c0-.559.447-1.006 1.005-1.006h9.83c.559 0 1.006.447 1.006 1.006 0 .558-.447 1.005-1.006 1.005z" fill="#A467DE"/>
        <path d="M252.237 381.569c-11.618.112-35.746-3.463-35.746-3.463l-46.693-27.263-22.118-28.827 11.729-12.391 21.336 2.781 26.474 14.749s18.655 8.939 24.352 15.978c6.367-.559 12.623.335 18.99.224 7.931-.112 16.198-1.341 23.682-3.688 12.511-4.022 33.177-17.653 33.177-17.653l39.656-12.391 16.085 15.184-24.463 26.034-50.045 28.939s-31.724 1.676-36.416 1.787z" fill="#1F1F20"/>
        <path d="M275.025 203.913c1.564 4.581 1.564 9.609 1.229 14.302-.447 6.815-1.117 14.078-3.575 20.67-1.787 4.693-6.255 6.369-12.176 6.816-5.92.447-12.958-.559-17.203-3.687-9.606-6.928-8.824-19.106-3.016-27.933 2.681-4.023 6.591-7.822 11.059-10.615 3.351-2.123 7.82-4.469 12.176-4.358 4.915.224 9.83 2.012 11.506 4.805z" fill="#BEBFC1"/>
        <path d="M202.639 228.718l-2.346-2.682-12.958-4.897-10.277 1.657-15.08 17.431 1.229 9.609 7.149 7.039 6.814 2.57 5.921-2.57-2.235-4.246-1.787-1.9.335-1.452 8.266-10.168 3.017-3.911 1.675-2.234 3.463-.335 7.038-1.118.223-1.117-.447-1.676z" fill="#515152"/>
        <path d="M183.202 224.808c.224.558-.111 1.117-.67 1.229-.558.223-1.117-.112-1.34-.559-.224-.559.111-1.117.67-1.229.558-.224 1.229.112 1.34.559z" fill="#BDBFC1"/>
        <path d="M187.671 223.467c.223.558-.112 1.117-.671 1.229-.558.223-1.117-.112-1.34-.559-.224-.559.112-1.117.67-1.229.559-.224 1.229 0 1.341.559z" fill="#D2D3D5"/>
        <path d="M184.208 228.048c.223.559-.112 1.117-.671 1.229-.558.224-1.117-.112-1.34-.559-.223-.558.112-1.117.67-1.229.559-.111 1.229.112 1.341.559z" fill="#ADB0B2"/>
        <path d="M188.788 226.595c.223.559-.112 1.118-.671 1.23-.558.223-1.117-.112-1.34-.559-.223-.559.112-1.117.67-1.229.559-.224 1.117 0 1.341.558z" fill="#838587"/>
        <path d="M188.34 230.841c.559 1.229 0 2.793-1.34 3.24-1.229.559-2.681 0-3.24-1.341-.558-1.229 0-2.793 1.341-3.24 1.229-.559 2.793.112 3.239 1.341zM179.851 239.444c.559 1.229 0 2.794-1.34 3.24-1.229.559-2.681 0-3.24-1.34-.558-1.229 0-2.794 1.341-3.241 1.228-.558 2.681.112 3.239 1.341z" fill="#A467DE"/>
        <path d="M165.329 240.45c-.223.335.112 1.229.223 1.564.112.224.224.782.559.894.559.223 1.34-.67 1.564-1.117.223-.336.67-.894.447-1.229-.224-.336-1.117-.447-1.564-.559-.447 0-.894 0-1.229.447zM172.813 245.142c.224-.335-.447-1.452-.67-1.787-.112-.224-.447-.783-.782-.894-.558-.112-1.229.782-1.452 1.229-.112.335-.559 1.005-.224 1.341.336.447 1.341.447 1.788.447.558.223 1.117.223 1.34-.336zM171.138 238.886c-.335-.112-1.229.335-1.564.558-.223.112-.782.336-.782.671-.223.559.67 1.117 1.117 1.341.335.111.894.558 1.229.223.335-.335.335-1.117.447-1.564.111-.559.111-1.006-.447-1.229zM165.776 247.043c.335.223 1.452-.336 1.787-.559.335-.112.894-.335 1.006-.782.223-.671-.671-1.341-1.118-1.565-.335-.223-.893-.558-1.228-.335-.447.335-.559 1.229-.671 1.676-.335.671-.335 1.229.224 1.565z" fill="#707173"/>
        <path d="M176.165 267.266l-12.176-7.263-.559-8.38s.894-.335 1.006.112c1.228 2.347 6.032 3.017 6.032 3.017l1.117-8.715.782-5.028 3.909 2.681 1.117 3.688 2.346 6.368 2.346 6.928s.224 3.911-.894 5.251c-1.117 1.229-5.026 1.341-5.026 1.341z" fill="#BEBFC1"/>
        <path d="M343.389 166.818c-.782 1.118-3.574 5.587-6.59 10.392-2.681 4.469-5.586 9.162-7.149 11.732-.112.111-.112.223-.224.335l-3.351 5.698c-2.346 4.246-4.692 8.492-6.926 12.738-1.229 2.458-2.457 4.916-3.686 7.263-2.569 5.251-5.027 10.502-7.261 15.754-.112.335-.335.782-.447 1.229-1.34 3.24-2.681 6.481-4.133 9.833-2.011 4.916-4.133 9.72-6.144 14.637-1.34 3.24-2.793 6.48-4.245 9.609-3.463 7.933-7.149 15.866-10.947 23.687.335-.67-3.239-4.246-5.027-5.922l-.893-.894c-.224-.335-.447-.558-.782-.893-1.564-1.788-3.016-3.799-4.469-5.699-1.34-1.899-2.569-3.911-3.463-6.033-3.574-8.045-.893-14.414 2.458-21.9 2.458-5.363 5.25-10.615 8.266-15.755.782-1.34 1.564-2.569 2.346-3.91 2.123-3.464 4.245-6.928 6.479-10.503.894-1.453 1.899-3.017 2.793-4.47 1.005-1.564 1.899-3.016 2.904-4.581 3.016-4.581 6.032-9.162 9.272-13.743 1.005-1.452 2.01-2.793 3.016-4.246 3.016-4.134 6.032-8.044 9.16-12.067 1.117-1.341 2.122-2.681 3.239-4.022a229.168 229.168 0 019.719-11.062c1.675-1.899 3.463-3.687 5.362-5.587 3.574 2.123 7.484 7.04 10.723 8.38z" fill="#4A4B4D"/>
        <path d="M295.579 337.547c-.112 1.676-.335 4.916-1.564 8.827-1.757 5.647-10.947 15.083-10.947 15.083l-31.501 6.146-32.284-6.146-11.729-20.558 1.229-4.805 3.575-4.581s1.787-2.011 2.904-3.352c1.005-1.229 2.234-2.682 3.575-4.469.111-.224.223-.335.446-.559 1.788-2.346 3.463-9.274 3.463-9.274l.447-4.916-.782-13.408-.894-5.587-1.228-5.922 27.144-15.084 23.906 7.375 5.808 4.581s0 .335.112.894c0 .447.112 1.117.112 2.011.111 1.564.223 3.799.558 6.369.224 2.681.894 9.05.894 9.05s.67 6.257 1.229 9.721c.111.782.335 2.458.335 2.458.447 3.352 2.681 8.715 2.681 8.715l4.245 6.257 8.378 9.386s0 .112-.112 1.788z" fill="#4A4B4D"/>
        <path d="M217.049 300.116c-2.792 2.794-6.255 5.14-10.053 7.151-2.234 1.229-4.468 2.347-6.814 3.241-3.798 1.564-7.708 2.905-11.283 3.687-2.569.67-4.915 1.117-6.925 1.341-2.905.335-5.139.223-6.256-.336-5.25-2.234-5.362-9.05-6.032-13.855a49.335 49.335 0 01-.67-5.698 48.607 48.607 0 01-.335-5.698c-.112-3.352 0-6.704.223-10.056l.335-3.352c.223-1.453.335-3.017.559-4.47.111-.447.223-1.005.223-1.452.335-1.676.894-3.352 1.899-4.693 2.234-2.905 6.032-3.017 9.272-2.905.223 0 .558.223.558.447.112.447.224 1.005.335 1.452.447 2.123.782 4.134 1.117 6.257.112.447.112.894.224 1.229.223 1.341.447 2.794.558 4.246l.671 6.369c0 .447.111.894.111 1.453.112 1.229.224 2.57.224 3.91 0 .671 0 1.229.111 1.9 1.564-.894 3.016-1.788 4.58-2.682 1.229-.782 2.458-1.452 3.798-2.234a82.374 82.374 0 005.251-3.241 233.18 233.18 0 0112.957-7.486c1.676-.894 3.575-2.123 6.144-3.352-.446.224 1.117 15.084 1.006 16.648-.224 4.023 1.34 9.163-1.788 12.179z" fill="#4A4B4D"/>
        <path d="M207.108 307.379c-2.234 1.229-4.469 2.347-6.814 3.241-.782-1.341-1.341-2.682-1.788-3.688a51.522 51.522 0 01-4.245-13.519c-.446-2.682-.67-5.364-.782-7.933a82.374 82.374 0 005.251-3.241c.447 6.034 1.787 11.956 4.133 17.542.558 1.006 2.681 4.358 4.245 7.598zM343.39 166.818c-.782 1.118-3.575 5.587-6.591 10.391-2.234-4.916-5.362-9.162-9.272-12.849 1.676-1.899 3.463-3.687 5.362-5.587 3.351 1.788 7.261 6.704 10.501 8.045zM279.829 308.943c-1.899 1.118-3.798 2.012-5.251 2.794-6.032 2.905-12.511 4.804-18.99 5.81-10.947 1.788-22.564.782-32.841-3.687.223-1.565.446-3.241.446-4.917 10.613 2.012 21.225 2.347 31.837.112 6.032-1.341 11.841-3.464 17.426-6.257 1.899-1.005 4.021-2.57 6.256-3.575.335 3.128.67 6.368 1.117 9.72zM277.818 290.283c-8.378 4.693-19.549 6.257-28.821 6.928-8.266.558-18.096.782-26.586-1.565a53.458 53.458 0 00-.893-5.586c8.936-.335 17.984.447 27.033-.894 9.83-1.564 18.99-5.363 28.596-7.263 0 .447.112 1.118.112 2.012.112 1.564.335 3.687.559 6.368z" fill="#D6D7D9"/>
        <path d="M353.554 147.488l-.67-3.017-2.346-1.676-1.452-2.458-2.904-1.117-6.814 4.581-2.346-2.458h-4.468s2.122 8.044 2.457 9.609c.224 1.229.335 2.57.559 3.91-.559.894-1.117 1.9-1.788 2.682-.781.894-1.563 1.788-2.234 2.682 1.229 1.564 4.022 4.469 4.022 4.469s3.574 2.346 5.473 3.24c.112 0 .112.112.224.112 0 0 .111 0 .223.112.224.111.335.111.559.223 1.675-2.123 4.803-5.587 4.803-5.587l7.596-9.497-.894-5.81z" fill="#BEBFC1"/>
        <path d="M307.42 303.356s-9.16 5.699-17.65 9.162c-3.351 1.341-10.277 3.576-10.277 3.576s-25.469 5.251-38.539 5.363c-13.069.112-.893 0-.893 0a149.748 149.748 0 01-49.598-8.492c-.223-.111-.447-.111-.782-.223-3.016-1.117-8.825-3.464-8.825-3.464s-11.617-6.145-11.952-5.922l.223-.223c-2.569-1.229-6.702-5.252-6.702-5.252l9.942-7.597 3.909-9.498 11.618-8.492-2.681-8.38-.782-8.826 8.378-12.962 19.66-12.625 1.341-19.442 9.16-20.335 9.16-4.358 2.345-7.151 8.267-4.358 24.673 4.358 13.083 16.648 1.564 11.956-3.686 12.737-5.585-.559-4.692 14.638 5.25 9.05 4.692 9.274.335 10.279-.112 3.911 11.841 8.604 12.065 10.838 3.462 13.519 1.788 4.246z" fill="#636568"/>
        <path d="M267.17 205.461l-3.534 4.544-7.068 3.534-14.135 2.524m17.669-21.203l-6.058 8.582-8.582 5.553m-23.223-15.144v8.077l4.039 9.086m-9.592-7.067l2.019 8.077M238.394 218.082l6.058 4.543 10.097 2.525 10.096-1.01" stroke="#828282" stroke-width=".8" stroke-linecap="round"/>
        <path d="M222.746 217.321c-.335.447-.67.894-1.005 1.229-.447.447-.894.782-1.34 1.006-1.006.558-2.011.894-3.128 1.005-.112 0-.112.224 0 .224 1.117-.112 2.346-.447 3.239-1.006a6.483 6.483 0 002.458-2.458s-.112-.112-.224 0z" fill="#333"/>
        <path d="M273.493 199.7c-.822-3.08-2.465-6.045-4.655-8.669-4.518-5.132-11.363-8.326-18.893-9.125-4.38-.456-8.898 0-13.005 1.369-.137 0 0 .114 0 .114 7.119-2.167 15.333-1.711 22.041 1.141 6.708 2.851 11.637 8.098 13.553 14.143 1.096 3.308 1.096 6.73.685 10.152 0 .228.411.228.411 0 .958-2.852.684-6.16-.137-9.125z" fill="#828282"/>
        <path d="M230.316 213.539l1.01 4.543-3.534 6.058-8.582 7.068-3.029 10.096 1.514 10.097 3.534 14.134-3.534 10.097-12.116 12.62-10.097 8.077-5.048 8.582v7.603M240.413 321.065l4.039-9.591 11.106-10.097 3.534-7.572 1.01-11.611-5.554-10.601-11.611-12.62-6.058-12.621 1.514-13.125 1.01-6.563-2.019-7.067" stroke="#828282" stroke-width=".8" stroke-linecap="round"/>
        <path d="M247.88 208.159l-4.691-2.055-6.144 5.63-4.133-1.676-3.798 1.453-5.586-5.222-5.026 1.87-1.341 10.838 6.367 2.458 5.139-1.564 4.245 1.788 4.356-2.011 5.586 1.787 6.367-2.458-1.341-10.838z" fill="#333"/>
        <path d="M228.444 218.55c-.447-.893-.671-1.787-.671-2.681 0-.447 0-.894.112-1.341l.335-1.341c0-.111-.111-.223-.223-.111-.559.782-.67 1.899-.559 2.905-1.34.558-2.904.67-4.356.335-.335-.112-.782-.224-1.006-.559-.223-.335-.223-.67.112-1.005.559-.447 1.452-.112 2.123-.112.111 0 .111-.112 0-.112-.782 0-1.788-.559-2.458.112-.67.559-.223 1.452.447 1.788.782.446 1.787.558 2.793.447.893 0 1.675-.224 2.345-.671.112.894.335 1.676.782 2.458 0 .224.224.112.224-.112zM242.742 214.64c-.335.223-.559.447-.894.558-.335.224-.67.336-1.005.447-.67.224-1.452.224-2.234 0a4.887 4.887 0 00-.894-2.793c-.112-.112-.223 0-.223.112.558 1.005.67 2.234.67 3.352 0 .558-.223 1.117-.335 1.676-.224.558-.559 1.005-.782 1.564 0 .112.112.223.223.112.447-.336.782-.894 1.006-1.453.223-.559.335-1.229.447-1.899v-.447c.781.223 1.563.335 2.234.111.782-.223 1.675-.558 2.01-1.229 0 0-.111-.111-.223-.111z" fill="#828282"/>
        <path d="M273.126 214.751c-4.245.782-7.931 8.157-3.798 11.509 1.117.893 3.239.893 4.133 0 1.34-1.23 1.005-4.47.894-6.146 0-.782.223-5.14-1.229-5.363z" fill="#6C6E70"/>
        <path d="M275.472 228.606c-.336-3.575-.447-7.262 1.117-10.391 1.005-2.235 2.904-6.145-1.117-5.81-6.033.559-6.479 9.05-5.027 13.631.335 1.118 1.229 2.459 2.122 3.241.894.67 3.128 1.229 2.905-.671z" fill="#BABCBE"/>
      </g>
      <path d="M333.894 40.112c3.016-4.58 5.921-9.274 8.937-13.967h44.682c3.91 0 7.15 3.24 7.15 7.151 0 3.911-3.24 7.151-7.15 7.151h-53.842c.112-.111.112-.223.223-.335zM93.725 298.328a2.003 2.003 0 01-2.01 2.011 2.003 2.003 0 01-2.011-2.011c0-1.118.893-2.012 2.01-2.012 1.117.112 2.011.894 2.011 2.012zM107.465 299.221h-9.83a1.001 1.001 0 01-1.005-1.005c0-.559.447-1.006 1.005-1.006h9.83c.559 0 1.006.447 1.006 1.006 0 .558-.447 1.005-1.006 1.005zM188.34 230.841c.559 1.229 0 2.793-1.34 3.24-1.229.559-2.681 0-3.24-1.341-.558-1.229 0-2.793 1.341-3.24 1.229-.559 2.793.112 3.239 1.341zM179.851 239.444c.559 1.229 0 2.794-1.34 3.24-1.229.559-2.681 0-3.24-1.34-.558-1.229 0-2.794 1.341-3.241 1.228-.558 2.681.112 3.239 1.341z" fill="#679BFF"/>
    </g>
  </g>
  <defs>
    <clipPath id="clip0">
      <path fill="#fff" d="M0 0h500v346H0z"/>
    </clipPath>
    <clipPath id="clip1">
      <path fill="#fff" transform="translate(41)" d="M0 0h417v419H0z"/>
    </clipPath>
  </defs>
</svg>
