<svg fill="none" xmlns="http://www.w3.org/2000/svg" viewBox="0 0 500 346">
  <g clip-path="url(#clip0)">
    <path fill="#181E29" d="M0 0h500v346H0z"/>
    <path fill="#fff" fill-opacity=".1" d="M0 0h500v346H0z"/>
    <g style="mix-blend-mode:luminosity" clip-path="url(#clip1)">
      <path d="M574.575-20.648H-74.721V109.41h649.296V-20.648z" fill="#515151"/>
      <g opacity=".6" fill-rule="evenodd" clip-rule="evenodd">
        <path d="M12.107 97.423l2.855-153.08-18.966 11.542-3.52 141.538h19.631z" fill="#424242"/>
        <path d="M14.961-55.657l22.27 4.438 5.83 149.275-30.955-.633 2.855-153.08z" fill="#666"/>
        <path d="M168.814 93.824L163.858-26.46l-23.833-5.206 3.857 124.469 24.932 1.02z" fill="url(#paint0_linear)"/>
        <path d="M140.026-31.666l-7.578 1.966.032 123.043 11.403-.54-3.857-124.469z" fill="#424242"/>
        <path d="M62.236 93.942l7.37-42.617L50.03-44.483l-10.4-22.14L25.746-11.02l1.316 104.903 35.173.059z" fill="#878787"/>
        <path d="M49.904 97.881L25.797-10.243 27.114 97.82l22.79.061z" fill="#484848"/>
        <path d="M50.137-44.63L25.8-10.18l24.16 108.061h12.412l7.386-43.875-19.62-98.636z" fill="url(#paint1_linear)"/>
        <path d="M105.437 88.913L98.091-73.474l-10.521-6.96L92.975 89.57l12.462-.658z" fill="url(#paint2_linear)"/>
        <path d="M87.57-80.435L66.093-74.3l1.34 165.129 25.542-1.257L87.57-80.435z" fill="#424242"/>
        <path d="M69.117-75.169l5.277 165.72-10.064.438-2.51-165.77 7.297-.388z" fill="#565656"/>
        <path d="M61.819-74.781l-3.545 2.531 3.841 163.357 3.593-.186-3.89-165.702z" fill="#424242"/>
        <path d="M141.765 93.3l-5.662-94.802-8.885-3.004 5.269 98.043 9.278-.236z" fill="url(#paint3_linear)"/>
        <path d="M126.215 93.537l-6.32-98.709-10.208-3.113 6.054 101.823h10.474z" fill="url(#paint4_linear)"/>
        <path d="M109.688-8.285L89.006-4.438l2.839 97.975h23.898L109.688-8.285z" fill="#424242"/>
        <path d="M131.691 93.536L127.509-.387l-7.453-2.39 5.18 96.313h6.455z" fill="url(#paint5_linear)"/>
        <path d="M226.448 98.78l-2.039-39.038-28.303-3.039 2.257 42.078h28.085z" fill="url(#paint6_linear)"/>
        <path d="M202.573 98.781l-2.701-50.82-10.793-2.354 2.459 53.198 11.035-.024z" fill="url(#paint7_linear)"/>
        <path d="M191.441 98.82l-2.486-51.39-8.521-1.183 1.144 52.574h9.863z" fill="#606060"/>
        <path d="M182.503 98.945l-1.689-54.373-12.996-2.167 2.615 56.54h12.07z" fill="url(#paint8_linear)"/>
        <path d="M167.818 42.405l-11.727 2.166 1.206 54.374h13.136l-2.615-56.54z" fill="#424242"/>
        <path d="M99.534 100.008l-1.343-60.034-33.802-5.195-.305 64.967 35.45.262z" fill="url(#paint9_linear)"/>
        <path d="M64.439 34.78l-15.78 2.358-1.591 62.744 17.066.126.305-65.229z" fill="#424242"/>
      </g>
      <g opacity=".6" fill-rule="evenodd" clip-rule="evenodd">
        <path d="M497.916 92.787L495.22-51.74l17.907 10.897 3.323 133.63h-18.534z" fill="#424242"/>
        <path d="M495.221-51.74l-21.026 4.19-5.505 140.934 29.226-.597-2.695-144.527z" fill="#666"/>
        <path d="M349.964 89.39l4.679-113.564 22.502-4.915-3.642 117.514-23.539.964z" fill="url(#paint10_linear)"/>
        <path d="M377.144-29.089l7.155 1.856-.03 116.168-10.767-.51 3.642-117.514z" fill="#424242"/>
        <path d="M450.588 89.501l-6.959-40.236 18.482-90.454 9.82-20.903 13.106 52.496-1.241 99.041-33.208.056z" fill="#878787"/>
        <path d="M462.231 93.22L484.99-8.863l-1.242 102.025-21.517.058z" fill="#484848"/>
        <path d="M462.01-41.33l22.979 32.527L462.178 93.22H450.46l-6.974-41.425 18.524-93.124z" fill="url(#paint11_linear)"/>
        <path d="M409.8 84.753l6.936-153.314 9.933-6.572-5.103 160.507-11.766-.621z" fill="url(#paint12_linear)"/>
        <path d="M426.67-75.133l20.276 5.791-1.265 155.903-24.115-1.187 5.104-160.507z" fill="#424242"/>
        <path d="M444.091-70.162l-4.982 156.46 9.502.414 2.37-156.508-6.89-.366z" fill="#565656"/>
        <path d="M450.982-69.796l3.346 2.39-3.626 154.23-3.392-.176 3.672-156.444z" fill="#424242"/>
        <path d="M375.502 88.895L380.847-.61l25.269-6.265-4.513 95.77h-26.101z" fill="url(#paint13_linear)"/>
        <path d="M405.787-7.015l19.526 3.633-2.68 92.5H400.07l5.717-96.133z" fill="#424242"/>
        <path d="M295.55 94.07l1.925-36.858 26.722-2.87-2.131 39.728H295.55z" fill="url(#paint14_linear)"/>
        <path d="M318.092 94.07l2.549-47.982 10.191-2.222-2.322 50.225-10.418-.022z" fill="url(#paint15_linear)"/>
        <path d="M328.269 92.973l2.679-47.386 8.045-1.116-1.08 49.636-9.644-1.134z" fill="#565656"/>
        <path d="M337.04 94.224l1.594-51.336 12.27-2.045-2.469 53.38H337.04z" fill="url(#paint16_linear)"/>
        <path d="M350.904 40.843l11.072 2.045-1.138 51.336h-12.402l2.468-53.381z" fill="#424242"/>
        <path d="M415.373 95.23l1.268-56.68 31.914-4.905.288 61.336-33.47.248z" fill="url(#paint17_linear)"/>
        <path d="M448.508 33.645l14.897 2.226 1.503 59.24-16.113.118-.287-61.584z" fill="#424242"/>
      </g>
      <path d="M-90.838 96.2h663.693v98.592H-86.218s-4.62-99.88-4.62-98.591z" fill="#8D8D8D"/>
      <path d="M-178.943 186.308l359.836-90.214h125.926L602.618 177.5l10.959 139.51-768.882-6.229-23.638-124.474z" fill="#6E6E6E"/>
      <path d="M186.373 127.792c-1.182 0-2.257 4.403-2.257 9.988 0 5.477.967 9.988 2.257 9.988h7.306v-19.869h-7.306v-.107z" fill="#5D5E60"/>
      <path d="M195.158 137.779c0 2.706-.239 5.152-.628 6.903-.196.881-.422 1.548-.652 1.979a1.506 1.506 0 01-.286.402l-.007.007a1.578 1.578 0 01-.274-.394c-.227-.425-.456-1.086-.658-1.96-.402-1.737-.668-4.182-.668-6.937 0-2.706.24-5.152.629-6.903.196-.881.421-1.548.652-1.979a1.51 1.51 0 01.306-.42 1.506 1.506 0 01.306.42c.23.431.456 1.098.652 1.979.389 1.751.628 4.197.628 6.903zm-1.619 9.323l.002-.001-.002.001zm.092.006h.002-.002zm-.026-18.652l-.003.001.003-.001zm-.064.001l-.002-.001.002.001z" stroke="#5C5E60" stroke-width="1.339"/>
      <path d="M136.004 126.907c-1.182 0-2.256 4.404-2.256 9.988 0 5.478.967 9.988 2.256 9.988h7.307v-19.868h-7.307v-.108z" fill="#5D5E60"/>
      <path d="M144.897 136.895c0 2.706-.239 5.152-.628 6.903-.196.881-.422 1.548-.652 1.979-.116.216-.215.34-.286.403l-.007.006a1.587 1.587 0 01-.274-.393c-.227-.426-.456-1.087-.658-1.961-.403-1.737-.668-4.181-.668-6.937 0-2.706.239-5.151.629-6.902.195-.881.421-1.549.652-1.98a1.51 1.51 0 01.285-.402l.005-.005c.068.066.163.192.274.403.228.435.458 1.107.66 1.988.403 1.752.668 4.197.668 6.898zm-1.619 9.324l.002-.001-.002.001zm.092.005l.002.001-.002-.001zm-.026-18.652l-.003.001.003-.001zm-.098-.007l-.002-.001.002.001z" stroke="#5C5E60" stroke-width="1.339"/>
      <path d="M144.385 136.895c0 2.578-.43 4.726-1.074 4.726-.537 0-1.075-2.148-1.075-4.726 0-2.577.43-4.725 1.075-4.725.537 0 1.074 2.148 1.074 4.725z" fill="#67686A"/>
      <path d="M209.151 116.729c-1.075 0-2.042 4.081-2.042 9.128 0 5.048.967 9.129 2.042 9.129h6.769v-18.257h-6.769z" fill="#5D5E60"/>
      <path d="M217.184 125.857c0 2.493-.213 4.724-.562 6.314-.175.801-.378 1.4-.582 1.783a1.494 1.494 0 01-.209.312 1.707 1.707 0 01-.198-.307c-.203-.388-.409-.992-.591-1.793-.363-1.591-.601-3.822-.601-6.309 0-2.492.212-4.723.562-6.313.175-.801.378-1.4.582-1.783.091-.169.162-.262.209-.312.052.061.12.159.198.307.203.388.409.992.591 1.793.362 1.591.601 3.821.601 6.308z" stroke="#5C5E60" stroke-width="1.339"/>
      <path d="M134.476 139.589l-5.05-19.224 14.613-9.666 22.349-20.513 35.887-1.289 19.662 15.895-2.471 19.654-1.182.645v-8.482l-4.025-.884-3.819 5.302v8.467l-13.43 8.377-.884-10.443-3.736-.985-4.191 4.078v9.39l-3.519 2.538-45.506-.883-4.698-1.977z" fill="url(#paint18_linear)"/>
      <path d="M136.944 124.119l2.209 17.23-4.86-1.767-4.418-17.672 7.069 2.209z" fill="#9F9F9F"/>
      <path d="M182.008 124.12l2.209 18.555 3.976-2.651v-9.719l4.418-3.976 3.534 1.325.884 10.161 13.254-8.394v-8.394l3.976-5.302 3.976.884v8.394l.884-.442 3.092-19.881-3.092-1.767-29.601 18.114-7.51 3.093z" fill="url(#paint19_linear)"/>
      <path d="M166.925 91.368l-18.159 18.472h43.624l5.802-19.116-31.267.644z" fill="#E1E1E1"/>
      <path d="M200.233 92.227l-5.802 17.183 8.273-3.114 8.381-3.867 1.075-1.611-7.521-5.8-4.406-2.791z" fill="#C3C3C3"/>
      <path d="M230.151 128.849l6.339-14.391h-2.627l-6.984 14.391h3.272zM154.891 276.414l-18.696 38.448 10.96-.644 16.546-37.804h-8.81zM239.475 105.651l3.334-8.806h-.35l-4.297 8.806h1.313zM171.33 258.908l27.613-62.828h-4.942l-30.622 62.828h7.951zM203.075 190.711l14.529-31.038h-5.767l-15.149 31.038h6.387z" fill="#fff"/>
      <path d="M358.286 144.529c0 2.9-10.207 5.37-22.778 5.37-12.572 0-22.779-2.363-22.779-5.37 0-2.9 10.207-5.37 22.779-5.37 12.571.108 22.778 2.47 22.778 5.37z" fill="#4F5153"/>
      <path d="M-57.96 42.823L58.19 193.85l-180.832 111.743 2.901-35.764 175.03-78.449L-63.117 46.582l5.158-3.759zM571.029 42.823L454.88 193.85l180.831 126.764-2.901-35.764-175.029-93.47L576.186 46.582l-5.157-3.759z" fill="#A5A7A9"/>
      <path d="M-48.074 15.115l24.82 30.179s319.974-81.085 565.487 3.759l28.903-33.938s-252.39-85.381-619.21 0z" fill="#2D2D2D"/>
      <path d="M571.996 46.583l21.489 22.124V-94.108h-709.68V106.51l58.236-59.928L58.727 193.61s-88.213 61.862-174.922 78.723v256.466h709.572V264.493c-72.633-16.539-138.175-70.99-138.175-70.99l116.794-146.92zM434.787 172.238l-26.539 11.277-307.295-1.933-31.804-28.89-104.544-132.53s289.351-77.326 590.307 0L434.787 172.239z" fill="#333"/>
      <path d="M55.074 222.929l45.879-41.24s79.94-18.795 314.064 1.718l46.202 39.737s-397.442 11.277-406.145-.215z" fill="url(#paint20_linear)"/>
      <path d="M87.307 271.688L-68.167 491.532l609.433-4.511-108.95-215.333H87.307z" fill="#404040"/>
      <path d="M140.942 288.242l7.069-15.021 11.045-.442-2.209 18.556-15.905-3.093z" fill="url(#paint21_linear)"/>
      <path d="M164.799 293.448l7.844-19.784h9.828l-2.155 23.857-15.517-4.073z" fill="url(#paint22_linear)"/>
      <path d="M55.826 243.013L87.2 271.689s239.497 17.613 345.008 0l27.507-28.676c.107 0-398.302-7.303-403.89 0z" fill="#606164"/>
      <path d="M55.074 222.93l.752 20.083s279.144 29.964 403.996 0l1.397-19.868s-224.884-30.179-406.145-.215z" fill="url(#paint23_linear)"/>
      <path d="M177.347 415.504l57.806-137.586 48.136.859 60.492 144.245-166.434-7.518z" fill="url(#paint24_linear)"/>
      <path d="M215.061 318.622s48.565-12.136 90.469 0l-16.224-30.179s-38.466-6.659-65.435 0l-8.81 30.179z" fill="#C2C3C5"/>
      <path d="M247.187 286.832s3.653-1.289 24.068.752l5.587 26.42-34.92 1.074 5.265-28.246z" fill="#A5A7A9"/>
      <path d="M222.797 317.011l-1.719 1.934h74.782v-2.793c0-.107-45.342-8.269-73.063.859z" fill="#88898C"/>
      <path d="M88.06 221.855l-7.306 20.084-22.35-2.041.323-14.284 29.333-3.759z" fill="url(#paint25_linear)"/>
      <path d="M426.729 224.434l8.273 19.653 22.242-3.436-1.075-14.177-29.44-2.04z" fill="url(#paint26_linear)"/>
      <path d="M174.661 228.944l2.257 13.532 81.963 3.58 82.175-5.302 1.865-12.239-84.04-4.549-84.22 4.978z" fill="url(#paint27_linear)"/>
      <path d="M183.579 448.728l42.334-98.484 33.093-25.99 35.027 32.649 41.152 99.665-151.606-7.84z" fill="url(#paint28_linear)"/>
      <path d="M138.269 190.389l-1.325-6.627-20.765 3.092-10.603 28.276 6.185 27.391 21.207 5.302 2.651-6.185-16.789-5.302-5.301-21.206 1.767-8.395 5.743-13.254 17.23-3.092z" fill="#757575"/>
      <path d="M136.502 189.064l-1.325-6.627-20.765 3.092-10.603 28.275 6.185 27.392 21.207 5.302 2.651-6.186-16.789-5.301-5.302-21.207 1.768-8.394 5.743-13.254 17.23-3.092z" fill="#4D4D4D"/>
      <path d="M167.428 190.83l1.326-6.627 20.764 3.093 10.604 28.275-6.186 27.392-21.206 5.301-2.651-6.185 16.789-5.302 5.301-21.206-1.767-8.394-5.743-13.254-17.231-3.093z" fill="#6B6B6B"/>
      <path d="M165.661 189.064l1.326-6.627 20.764 3.092 10.603 28.275-6.185 27.392-21.206 5.302-2.651-6.186 16.788-5.301 5.302-21.207-1.767-8.394-5.744-13.254-17.23-3.092z" fill="#4D4D4D"/>
      <path d="M131.223 208.719l13.254 15.905h7.068l12.813-15.905h-33.135z" fill="#989A9C"/>
      <path d="M-44.206 294.565s11.926-17.184 18.05-19.224c6.125-2.148 21.812-7.948 21.812-7.948s4.083-2.255 4.835.43c.753 2.685-11.711 18.794-11.711 18.794s-2.901 3.759-6.017 5.478c-3.116 1.718-23.53 15.465-27.506 10.095-2.901-3.974.537-7.625.537-7.625z" fill="#67686A"/>
      <path d="M258.469 305.841c6.29 0 11.389-2.644 11.389-5.907 0-3.262-5.099-5.907-11.389-5.907-6.29 0-11.389 2.645-11.389 5.907 0 3.263 5.099 5.907 11.389 5.907z" fill="#989A9C"/>
      <path d="M265.345 299.505c0 1.933-3.116 3.544-6.984 3.544s-6.984-1.611-6.984-3.544 3.116-3.544 6.984-3.544 6.984 1.611 6.984 3.544z" fill="#C2C3C5"/>
      <path d="M259.114 291.771l-7.629.215v7.518h13.86v-7.518l-6.231-.215z" fill="#C2C3C5"/>
      <path d="M265.345 291.987c0 1.933-3.116 3.544-6.984 3.544s-6.984-1.611-6.984-3.544c0-1.934 3.116-3.545 6.984-3.545s6.984 1.611 6.984 3.545z" fill="#D4D5D7"/>
      <path d="M279.528 187.059h-47.491v86.347h52.434v-86.347h-4.943z" fill="#717274"/>
      <path d="M276.412 191.248h-41.259v78.4h46.309v-78.4h-5.05z" fill="#DFDFE1"/>
      <path d="M261.013 225.948c-.392 0-.785 1.641-.785 3.535 0 1.893.393 3.534.785 3.534h2.749v-7.069h-2.749z" fill="#B9B9B9"/>
      <path d="M264.646 229.483c0 1.893-.442 3.534-.884 3.534s-.884-1.641-.884-3.534c0-1.894.442-3.535.884-3.535s.884 1.515.884 3.535zM245.467 226.689c-.322 0-.644 1.397-.644 3.008s.322 3.007.644 3.007h2.257v-6.015h-2.257z" fill="#B9B9B9"/>
      <path d="M248.368 229.696c0 1.611-.322 3.007-.644 3.007-.323 0-.645-1.396-.645-3.007 0-1.611.322-3.008.645-3.008.322 0 .644 1.289.644 3.008z" fill="#B9B9B9"/>
      <path d="M248.047 229.696c0 .752-.108 1.396-.323 1.396-.215 0-.322-.644-.322-1.396 0-.752.107-1.396.322-1.396.215 0 .323.644.323 1.396zM267.933 222.414c-.319 0-.637 1.308-.637 3.093 0 1.784.318 3.092.637 3.092h2.014v-6.066h-2.014v-.119z" fill="#B9B9B9"/>
      <path d="M270.831 225.507c0 1.665-.442 3.092-.884 3.092s-.884-1.308-.884-3.092c0-1.666.442-3.093.884-3.093.442.119.884 1.427.884 3.093z" fill="#B9B9B9"/>
      <path d="M245.36 231.521l-1.504-5.799 4.405-2.9 3.438-6.229 14.076-.43 5.909 4.833-.752 5.907-.322.215s.537-4.618-.967-4.618-1.397 5.906-1.397 5.906l-4.083 2.578s.215-5.585-1.397-5.262c-1.611.214-1.289 5.906-1.289 5.906l-16.117-.107z" fill="#B9B9B9"/>
      <path d="M251.914 217.022l-3.331 5.693 14.183-.108 1.827-5.477-12.679-.108zM265.238 217.237l-1.719 5.155 2.471-.966s1.182-1.933 2.901-1.933l-2.364-1.504-1.289-.752zM244.178 225.936l.43 1.504 3.116-.108c0 .108-.107-2.47-3.546-1.396zM261.692 225.936l-.43 1.504-3.116-.108c0 .108.107-2.47 3.546-1.396zM245.252 228.514l.538 1.718 1.504.215-.43-1.719-1.612-.214zM260.51 228.514l-.644 1.718-1.505.215.538-1.719 1.611-.214zM248.583 227.655l1.075-1.074h6.876l.86.752-1.182 2.685h-6.447l-1.182-2.363z" fill="#B9B9B9"/>
      <path d="M247.857 243.621h-5.301v17.672h5.301v-17.672zM256.693 248.039h-5.301v13.254h5.301v-13.254zM265.529 248.039h-5.301v13.254h5.301v-13.254zM274.365 253.341h-5.302v7.952h5.302v-7.952z" fill="#fff"/>
      <path d="M293.389 146.354h-2.901v25.454h23.423v-3.115h-20.522v-22.339zM375.262 146.354h2.901v25.454h-23.315v-3.115h20.414v-22.339zM375.262 139.159h2.901v-25.453h-23.315v3.115h20.414v22.338zM293.389 139.16h-2.901v-25.453h23.423v3.115h-20.522v22.338z" fill="#B2B2B2"/>
      <path d="M314.212 147.762l5.372 5.37 10.745-.537 6.447 2.148 12.893-4.833 12.357-2.148-6.447-8.591-8.059-4.296-11.818 3.222-16.655-4.296-16.117 7.518 11.282 6.443z" fill="#454749"/>
      <path d="M315.667 148.121l4.786 4.681 9.573-.468 5.743 1.873 11.487-4.213 11.009-1.873-5.744-7.49-7.179-3.745-10.53 2.808-14.837-3.745-14.359 6.554 10.051 5.618z" fill="#4F5153"/>
      <path d="M4.404 434.705l13.254-50.366 28.717-31.147 30.042-26.287h60.527l54.341 10.603-6.627 37.112-14.579 42.413L4.404 434.705z" fill="url(#paint29_linear)"/>
      <path d="M514.683 434.705l-13.254-50.365-28.938-32.693-28.054-23.085-62.515-3.203-58.538 10.824 5.743 22.532 5.522 15.684 14.359 42.634 165.675 17.672z" fill="url(#paint30_linear)"/>
      <path d="M195.261 373.295l-2.65-35.344-1.326-.884-6.627 37.553-19.439 57.434-.884 16.347 30.926-75.106z" fill="url(#paint31_linear)"/>
      <path d="M322.942 373.294l-3.534-25.182 3.976-11.487 5.743 22.09 8.395 23.636 16.346 49.703v16.347l-30.926-75.107z" fill="url(#paint32_linear)"/>
      <path d="M137.386 122.794l-7.953-2.209v1.325l7.953 2.209 44.621.442 6.186-2.651v-1.325l-6.186 2.651-44.621-.442z" fill="#E1E1E1"/>
      <path d="M184.659 142.675l-45.506-.883-.442-3.977 45.064.442.884 4.418z" fill="#67686A"/>
      <path d="M113.529 205.411h75.106l2.209 8.836-19.881 2.651-9.278 12.812h-30.484l-7.953-14.137-11.928-1.326 2.209-8.836z" fill="#4D4D4D"/>
    </g>
    <path d="M122.98 100.389h-2.901V74.936h23.423v3.114H122.98v22.339zM224.516 100.389h2.901V74.936h-23.423v3.114h20.522v22.339zM122.979 128.098h-2.901v25.453h23.423v-3.115h-20.522v-22.338zM224.516 128.098h2.901v25.453h-23.423v-3.115h20.522v-22.338zM240.311 218.527h-.967v-8.377h7.736v.967h-6.769v7.41zM273.941 218.526h.967v-8.377h-7.736v.967h6.769v7.41zM240.31 227.763h-.967v8.377h7.736v-.967h-6.769v-7.41zM273.941 227.763h.967v8.377h-7.736v-.967h6.769v-7.41z" fill="#679BFF"/>
    <path d="M250.303 201.128l1.934 2.041 1.934-2.041-1.934-2.148-1.934 2.148z" fill="#679BFF" fill-opacity=".3"/>
    <path d="M256.32 201.128l1.934 2.041 1.934-2.041-1.934-2.148-1.934 2.148z" fill="#679BFF" fill-opacity=".6"/>
    <path d="M262.229 201.128l1.934 2.041 1.935-2.041-1.935-2.148-1.934 2.148zM132.968 209.653h29.159l.75 13.871-31.676-.441 1.767-13.43z" fill="#679BFF"/>
  </g>
  <defs>
    <linearGradient id="paint0_linear" x1="154.419" y1="93.824" x2="154.419" y2="-31.666" gradientUnits="userSpaceOnUse">
      <stop stop-color="#575757"/>
      <stop offset=".99" stop-color="#858585"/>
    </linearGradient>
    <linearGradient id="paint1_linear" x1="73.834" y1="-2.975" x2="22.785" y2="-5.102" gradientUnits="userSpaceOnUse">
      <stop stop-color="#3C3C3C"/>
      <stop offset="0" stop-color="#2E2E2E"/>
      <stop offset="1" stop-color="#868686"/>
    </linearGradient>
    <linearGradient id="paint2_linear" x1="96.503" y1="89.571" x2="96.503" y2="-80.435" gradientUnits="userSpaceOnUse">
      <stop stop-color="#575757"/>
      <stop offset=".99" stop-color="#858585"/>
    </linearGradient>
    <linearGradient id="paint3_linear" x1="134.491" y1="93.537" x2="134.491" y2="-4.506" gradientUnits="userSpaceOnUse">
      <stop stop-color="#575757"/>
      <stop offset=".99" stop-color="#858585"/>
    </linearGradient>
    <linearGradient id="paint4_linear" x1="117.951" y1="93.537" x2="117.951" y2="-8.285" gradientUnits="userSpaceOnUse">
      <stop stop-color="#575757"/>
      <stop offset=".99" stop-color="#858585"/>
    </linearGradient>
    <linearGradient id="paint5_linear" x1="125.361" y1="93.536" x2="125.361" y2="-2.777" gradientUnits="userSpaceOnUse">
      <stop stop-color="#3A3A3A"/>
      <stop offset=".99" stop-color="#585858"/>
    </linearGradient>
    <linearGradient id="paint6_linear" x1="211.277" y1="98.781" x2="211.277" y2="56.703" gradientUnits="userSpaceOnUse">
      <stop stop-color="#575757"/>
      <stop offset=".99" stop-color="#858585"/>
    </linearGradient>
    <linearGradient id="paint7_linear" x1="195.826" y1="98.805" x2="195.826" y2="45.607" gradientUnits="userSpaceOnUse">
      <stop stop-color="#575757"/>
      <stop offset=".99" stop-color="#858585"/>
    </linearGradient>
    <linearGradient id="paint8_linear" x1="175.161" y1="98.945" x2="175.161" y2="42.405" gradientUnits="userSpaceOnUse">
      <stop stop-color="#575757"/>
      <stop offset=".99" stop-color="#858585"/>
    </linearGradient>
    <linearGradient id="paint9_linear" x1="81.809" y1="100.008" x2="81.809" y2="34.779" gradientUnits="userSpaceOnUse">
      <stop stop-color="#575757"/>
      <stop offset=".99" stop-color="#858585"/>
    </linearGradient>
    <linearGradient id="paint10_linear" x1="363.555" y1="89.389" x2="363.555" y2="-29.089" gradientUnits="userSpaceOnUse">
      <stop stop-color="#575757"/>
      <stop offset=".99" stop-color="#858585"/>
    </linearGradient>
    <linearGradient id="paint11_linear" x1="439.637" y1="-2.002" x2="487.834" y2="-4.01" gradientUnits="userSpaceOnUse">
      <stop stop-color="#3C3C3C"/>
      <stop offset="0" stop-color="#2E2E2E"/>
      <stop offset="1" stop-color="#868686"/>
    </linearGradient>
    <linearGradient id="paint12_linear" x1="418.235" y1="85.374" x2="418.235" y2="-75.133" gradientUnits="userSpaceOnUse">
      <stop stop-color="#575757"/>
      <stop offset=".99" stop-color="#858585"/>
    </linearGradient>
    <linearGradient id="paint13_linear" x1="382.369" y1="89.118" x2="382.369" y2="-3.446" gradientUnits="userSpaceOnUse">
      <stop stop-color="#575757"/>
      <stop offset=".99" stop-color="#858585"/>
    </linearGradient>
    <linearGradient id="paint14_linear" x1="309.874" y1="94.07" x2="309.874" y2="54.343" gradientUnits="userSpaceOnUse">
      <stop stop-color="#575757"/>
      <stop offset=".99" stop-color="#858585"/>
    </linearGradient>
    <linearGradient id="paint15_linear" x1="324.462" y1="94.091" x2="324.462" y2="43.866" gradientUnits="userSpaceOnUse">
      <stop stop-color="#575757"/>
      <stop offset=".99" stop-color="#858585"/>
    </linearGradient>
    <linearGradient id="paint16_linear" x1="343.972" y1="94.224" x2="343.972" y2="40.843" gradientUnits="userSpaceOnUse">
      <stop stop-color="#575757"/>
      <stop offset=".99" stop-color="#858585"/>
    </linearGradient>
    <linearGradient id="paint17_linear" x1="432.108" y1="95.229" x2="432.108" y2="33.645" gradientUnits="userSpaceOnUse">
      <stop stop-color="#575757"/>
      <stop offset=".99" stop-color="#858585"/>
    </linearGradient>
    <linearGradient id="paint18_linear" x1="151.453" y1="128.205" x2="216.453" y2="108.858" gradientUnits="userSpaceOnUse">
      <stop stop-color="#B3B3B3"/>
      <stop offset=".373" stop-color="#AFAFAF"/>
      <stop offset=".652" stop-color="#ACACAC"/>
      <stop offset="1" stop-color="#848484"/>
    </linearGradient>
    <linearGradient id="paint19_linear" x1="181.566" y1="126.77" x2="235.024" y2="127.654" gradientUnits="userSpaceOnUse">
      <stop stop-color="#9F9F9F"/>
      <stop offset="1" stop-color="#6C6A6A"/>
    </linearGradient>
    <linearGradient id="paint20_linear" x1="258.146" y1="173.822" x2="258.146" y2="228.093" gradientUnits="userSpaceOnUse">
      <stop stop-color="#A8A8A8"/>
      <stop offset="1" stop-color="#C8C8C8" stop-opacity=".5"/>
    </linearGradient>
    <linearGradient id="paint21_linear" x1="152.65" y1="273.221" x2="152.65" y2="291.335" gradientUnits="userSpaceOnUse">
      <stop stop-color="#C8C8C8"/>
      <stop offset="0" stop-color="#474646"/>
      <stop offset="1" stop-color="#646464" stop-opacity=".5"/>
    </linearGradient>
    <linearGradient id="paint22_linear" x1="177.169" y1="273.664" x2="177.169" y2="297.521" gradientUnits="userSpaceOnUse">
      <stop stop-color="#C8C8C8"/>
      <stop offset="0" stop-color="#474646"/>
      <stop offset="1" stop-color="#646464" stop-opacity=".5"/>
    </linearGradient>
    <linearGradient id="paint23_linear" x1="211.63" y1="153.936" x2="272.598" y2="330.214" gradientUnits="userSpaceOnUse">
      <stop stop-color="#D6D6D6"/>
      <stop offset="1" stop-color="#A2A2A2"/>
    </linearGradient>
    <linearGradient id="paint24_linear" x1="260.564" y1="277.918" x2="260.564" y2="423.022" gradientUnits="userSpaceOnUse">
      <stop stop-color="#989A9C"/>
      <stop offset="1" stop-color="#989A9C" stop-opacity="0"/>
    </linearGradient>
    <linearGradient id="paint25_linear" x1="69.904" y1="202.706" x2="102.283" y2="226.287" gradientUnits="userSpaceOnUse">
      <stop stop-color="#868686"/>
      <stop offset="1" stop-color="#616161"/>
    </linearGradient>
    <linearGradient id="paint26_linear" x1="438.561" y1="205.694" x2="470.703" y2="230.306" gradientUnits="userSpaceOnUse">
      <stop stop-color="#868686"/>
      <stop offset="1" stop-color="#616161"/>
    </linearGradient>
    <linearGradient id="paint27_linear" x1="239.905" y1="202.976" x2="258.461" y2="272.78" gradientUnits="userSpaceOnUse">
      <stop stop-color="#868686"/>
      <stop offset="1" stop-color="#616161"/>
    </linearGradient>
    <linearGradient id="paint28_linear" x1="259.382" y1="324.254" x2="259.382" y2="456.568" gradientUnits="userSpaceOnUse">
      <stop stop-color="#989A9C"/>
      <stop offset="1" stop-color="#989A9C" stop-opacity="0"/>
    </linearGradient>
    <linearGradient id="paint29_linear" x1="101.6" y1="322.045" x2="101.6" y2="434.705" gradientUnits="userSpaceOnUse">
      <stop stop-color="#ABABAB"/>
      <stop offset="1" stop-color="#fff" stop-opacity="0"/>
    </linearGradient>
    <linearGradient id="paint30_linear" x1="417.487" y1="318.953" x2="417.487" y2="434.705" gradientUnits="userSpaceOnUse">
      <stop stop-color="#ABABAB"/>
      <stop offset="1" stop-color="#fff" stop-opacity="0"/>
    </linearGradient>
    <linearGradient id="paint31_linear" x1="182.891" y1="332.649" x2="182.891" y2="448.401" gradientUnits="userSpaceOnUse">
      <stop stop-color="#5B5B5B"/>
      <stop offset="1" stop-color="#ACAEB0" stop-opacity="0"/>
    </linearGradient>
    <linearGradient id="paint32_linear" x1="336.196" y1="332.649" x2="336.196" y2="448.401" gradientUnits="userSpaceOnUse">
      <stop stop-color="#6B6B6B"/>
      <stop offset="1" stop-color="#ACAEB0" stop-opacity="0"/>
    </linearGradient>
    <clipPath id="clip0">
      <path fill="#fff" d="M0 0h500v346H0z"/>
    </clipPath>
    <clipPath id="clip1">
      <path fill="#fff" transform="translate(-29.615 -23)" d="M0 0h537.229v458.589H0z"/>
    </clipPath>
  </defs>
</svg>
