<svg width="400" height="410" viewBox="0 0 400 410" fill="none" xmlns="http://www.w3.org/2000/svg">
<g clip-path="url(#clip0)">
<path d="M375 113.853V147.392C375 148.279 375.583 149.246 376.75 149.972C379.083 151.343 382.917 151.343 385.25 149.972C386.417 149.246 387 148.36 387 147.392V107" fill="white"/>
<path d="M375 113.853V147.392C375 148.279 375.583 149.246 376.75 149.972C379.083 151.343 382.917 151.343 385.25 149.972C386.417 149.246 387 148.36 387 147.392V107" stroke="#7215CC" stroke-width="2.3138" stroke-miterlimit="10" stroke-linecap="round"/>
<path d="M363 140.406V107H351V140.406C351 141.29 351.583 142.253 352.75 142.976C355.083 144.341 358.917 144.341 361.25 142.976C362.417 142.253 363 141.37 363 140.406Z" fill="white" stroke="#7215CC" stroke-width="2.3138" stroke-miterlimit="10" stroke-linecap="round"/>
<path fill-rule="evenodd" clip-rule="evenodd" d="M341 100C341.971 104.421 344.721 107.974 352 112L341 100Z" fill="white"/>
<path d="M310 68.4838C330.135 77.2703 351 45 351 45" stroke="#7216CC" stroke-width="12" stroke-linecap="round"/>
<path d="M310 68.4838C330.135 77.2703 351 45 351 45" stroke="white" stroke-width="8" stroke-linecap="round"/>
<path d="M344.959 105.627C359.515 120.865 379.51 119.252 390.227 109.819C395.586 105.143 398.225 99.0962 397.985 93.2106L396.385 35L340 36.7737L341.6 94.9843" fill="#F4F4F4"/>
<path d="M344.959 105.627C359.515 120.865 379.51 119.252 390.227 109.819C395.586 105.143 398.225 99.0962 397.985 93.2106L396.385 35L340 36.7737L341.6 94.9843" stroke="white" stroke-width="2" stroke-miterlimit="10" stroke-linecap="round"/>
<path d="M344.959 105.627C359.515 120.865 379.51 119.252 390.227 109.819C395.586 105.143 398.225 99.0962 397.985 93.2106L396.385 35L340 36.7737L341.6 94.9843" stroke="#121212" stroke-opacity="0.4" stroke-width="2" stroke-miterlimit="10" stroke-linecap="round"/>
<path d="M347.882 53.8381C336.328 46.795 336.005 34.8697 347.155 27.1862C358.224 19.5028 376.564 18.8625 388.118 25.9057C399.672 32.9488 399.995 44.8741 388.845 52.5576C384.967 55.2788 380.2 57.1196 375.11 58" fill="#F4F4F4"/>
<path d="M347.882 53.8381C336.328 46.795 336.005 34.8697 347.155 27.1862C358.224 19.5028 376.564 18.8625 388.118 25.9057C399.672 32.9488 399.995 44.8741 388.845 52.5576C384.967 55.2788 380.2 57.1196 375.11 58" stroke="white" stroke-width="2" stroke-miterlimit="10" stroke-linecap="round"/>
<path d="M347.882 53.8381C336.328 46.795 336.005 34.8697 347.155 27.1862C358.224 19.5028 376.564 18.8625 388.118 25.9057C399.672 32.9488 399.995 44.8741 388.845 52.5576C384.967 55.2788 380.2 57.1196 375.11 58" stroke="#121212" stroke-opacity="0.4" stroke-width="2" stroke-miterlimit="10" stroke-linecap="round"/>
<path fill-rule="evenodd" clip-rule="evenodd" d="M393.531 18.7927C394.181 22.039 394.181 25.5288 393.369 28.9375C390.364 41.517 377.694 49.3081 365.105 46.3864C352.436 43.3836 344.639 30.7229 347.644 18.1435C350.568 5.48281 363.238 -2.30836 375.907 0.613329C377.613 1.01912 379.318 1.58722 380.78 2.3988" fill="#F4F4F4"/>
<path d="M393.531 18.7927C394.181 22.039 394.181 25.5288 393.369 28.9375C390.364 41.517 377.694 49.3081 365.105 46.3864C352.436 43.3836 344.639 30.7229 347.644 18.1435C350.568 5.48281 363.238 -2.30836 375.907 0.613329C377.613 1.01912 379.318 1.58722 380.78 2.3988" stroke="white" stroke-width="2" stroke-miterlimit="10" stroke-linecap="round"/>
<path d="M393.531 18.7927C394.181 22.039 394.181 25.5288 393.369 28.9375C390.364 41.517 377.694 49.3081 365.105 46.3864C352.436 43.3836 344.639 30.7229 347.644 18.1435C350.568 5.48281 363.238 -2.30836 375.907 0.613329C377.613 1.01912 379.318 1.58722 380.78 2.3988" stroke="#121212" stroke-opacity="0.4" stroke-width="2" stroke-miterlimit="10" stroke-linecap="round"/>
<path d="M355 97.9363C374.069 109.748 385 67 385 67" stroke="#7216CC" stroke-width="12" stroke-linecap="round"/>
<path d="M355 97.9363C374.069 109.748 385 67 385 67" stroke="white" stroke-width="8" stroke-linecap="round"/>
<path d="M312 90.226V159L239 117.002V6L253.875 14.5448" fill="#F4F4F4"/>
<path d="M312 90.226V159L239 117.002V6L253.875 14.5448" stroke="white" stroke-width="2" stroke-linecap="round" stroke-linejoin="round"/>
<path d="M312 90.226V159L239 117.002V6L253.875 14.5448" stroke="#121212" stroke-opacity="0.4" stroke-width="2" stroke-linecap="round" stroke-linejoin="round"/>
<path d="M249.5 12L312 47.8753V107" fill="#F4F4F4"/>
<path d="M249.5 12L312 47.8753V107" stroke="white" stroke-width="2" stroke-linecap="round" stroke-linejoin="round"/>
<path d="M249.5 12L312 47.8753V107" stroke="#121212" stroke-opacity="0.4" stroke-width="2" stroke-linecap="round" stroke-linejoin="round"/>
<path d="M394 181L322 139.82V70L394 111.261V181Z" fill="#F4F4F4"/>
<path d="M394 181L322 139.82V70L394 111.261V181Z" stroke="white" stroke-width="2" stroke-miterlimit="10" stroke-linecap="round" stroke-linejoin="round"/>
<path d="M394 181L322 139.82V70L394 111.261V181Z" stroke="#121212" stroke-opacity="0.4" stroke-width="2" stroke-miterlimit="10" stroke-linecap="round" stroke-linejoin="round"/>
<path d="M347 177.54C347 186.488 346.113 195.194 344.34 203.577C342.647 211.961 340.148 220.022 336.843 227.68C330.314 243.157 320.963 257.102 309.275 268.791C297.586 280.56 283.721 289.991 268.325 296.601C253.815 302.808 238.015 306.436 221.329 306.919C220.039 307 218.749 307 217.46 307C202.708 307 188.601 304.582 175.381 299.987C155.551 293.135 137.898 281.688 123.71 266.856C122.501 265.566 121.292 264.196 120.083 262.826C105.089 245.817 94.61 224.778 90.2571 201.562C88.8061 193.743 88 185.682 88 177.46C88 158.436 92.1111 140.46 99.4466 124.176C116.294 86.9346 150.231 59.0436 191.261 50.6601C199.725 48.8867 208.512 48 217.54 48C225.44 48 233.098 48.7255 240.595 50.0153C284.205 57.8344 320.318 87.5795 337.004 127.401C343.453 142.878 347 159.806 347 177.54Z" fill="white"/>
<path d="M347 177.54C347 186.488 346.113 195.194 344.34 203.577C342.647 211.961 340.148 220.022 336.843 227.68C330.314 243.157 320.963 257.102 309.275 268.791C297.586 280.56 283.721 289.991 268.325 296.601C253.815 302.808 238.015 306.436 221.329 306.919C220.039 307 218.749 307 217.46 307C202.708 307 188.601 304.582 175.381 299.987C155.551 293.135 137.898 281.688 123.71 266.856C122.501 265.566 121.292 264.196 120.083 262.826C105.089 245.817 94.61 224.778 90.2571 201.562C88.8061 193.743 88 185.682 88 177.46C88 158.436 92.1111 140.46 99.4466 124.176C116.294 86.9346 150.231 59.0436 191.261 50.6601C199.725 48.8867 208.512 48 217.54 48C225.44 48 233.098 48.7255 240.595 50.0153C284.205 57.8344 320.318 87.5795 337.004 127.401C343.453 142.878 347 159.806 347 177.54Z" stroke="white" stroke-width="2" stroke-miterlimit="10"/>
<path d="M347 177.54C347 186.488 346.113 195.194 344.34 203.577C342.647 211.961 340.148 220.022 336.843 227.68C330.314 243.157 320.963 257.102 309.275 268.791C297.586 280.56 283.721 289.991 268.325 296.601C253.815 302.808 238.015 306.436 221.329 306.919C220.039 307 218.749 307 217.46 307C202.708 307 188.601 304.582 175.381 299.987C155.551 293.135 137.898 281.688 123.71 266.856C122.501 265.566 121.292 264.196 120.083 262.826C105.089 245.817 94.61 224.778 90.2571 201.562C88.8061 193.743 88 185.682 88 177.46C88 158.436 92.1111 140.46 99.4466 124.176C116.294 86.9346 150.231 59.0436 191.261 50.6601C199.725 48.8867 208.512 48 217.54 48C225.44 48 233.098 48.7255 240.595 50.0153C284.205 57.8344 320.318 87.5795 337.004 127.401C343.453 142.878 347 159.806 347 177.54Z" stroke="#121212" stroke-opacity="0.24" stroke-width="2" stroke-miterlimit="10"/>
<path d="M284.709 228C285.2 233.023 285.61 238.208 285.937 243.556C287.002 271.912 274.225 292.734 268 298" stroke="white" stroke-width="2" stroke-miterlimit="10"/>
<path d="M284.709 228C285.2 233.023 285.61 238.208 285.937 243.556C287.002 271.912 274.225 292.734 268 298" stroke="#121212" stroke-opacity="0.24" stroke-width="2" stroke-miterlimit="10"/>
<path d="M221 153C219.701 121.704 218 72 218 72C218 72 264.519 112.387 281 200" stroke="white" stroke-width="2" stroke-miterlimit="10"/>
<path d="M221 153C219.701 121.704 218 72 218 72C218 72 264.519 112.387 281 200" stroke="#121212" stroke-opacity="0.24" stroke-width="2" stroke-miterlimit="10"/>
<path d="M221.086 308C223.316 284.863 225.202 254.527 223.058 201.296C222.458 186.573 221.772 169.665 221 153" stroke="white" stroke-width="2" stroke-miterlimit="10"/>
<path d="M221.086 308C223.316 284.863 225.202 254.527 223.058 201.296C222.458 186.573 221.772 169.665 221 153" stroke="#121212" stroke-opacity="0.24" stroke-width="2" stroke-miterlimit="10"/>
<path d="M161 259C161.825 270.543 163.969 279.24 166.361 285.662C169.825 294.684 173.866 299.236 175.845 301.025C176.588 301.675 177 302 177 302" stroke="white" stroke-width="2" stroke-miterlimit="10"/>
<path d="M161 259C161.825 270.543 163.969 279.24 166.361 285.662C169.825 294.684 173.866 299.236 175.845 301.025C176.588 301.675 177 302 177 302" stroke="#121212" stroke-opacity="0.24" stroke-width="2" stroke-miterlimit="10"/>
<path d="M120.402 263C109.853 242.946 109.933 222.811 110.014 219.091C110.014 218.687 110.014 218.444 110.014 218.444C110.014 200.735 114.362 183.915 121.449 168.309C129.34 150.923 140.614 135.074 153.015 121.408C166.866 106.124 182.166 93.5906 195.694 84.5339C204.069 78.9543 211.719 74.7494 218 72C213.652 77.7413 209.625 83.7252 205.841 89.79C196.741 104.507 189.091 120.276 182.89 136.287C175.563 155.128 170.248 174.373 166.624 192.81C164.128 205.668 162.437 218.121 161.551 229.846" stroke="white" stroke-width="2" stroke-miterlimit="10"/>
<path d="M120.402 263C109.853 242.946 109.933 222.811 110.014 219.091C110.014 218.687 110.014 218.444 110.014 218.444C110.014 200.735 114.362 183.915 121.449 168.309C129.34 150.923 140.614 135.074 153.015 121.408C166.866 106.124 182.166 93.5906 195.694 84.5339C204.069 78.9543 211.719 74.7494 218 72C213.652 77.7413 209.625 83.7252 205.841 89.79C196.741 104.507 189.091 120.276 182.89 136.287C175.563 155.128 170.248 174.373 166.624 192.81C164.128 205.668 162.437 218.121 161.551 229.846" stroke="#121212" stroke-opacity="0.24" stroke-width="2" stroke-miterlimit="10"/>
<path d="M175.909 80.425C187.74 76.6228 201.582 73.7914 218 72.7398C218 72.7398 176.875 62.2232 143.878 76.461C143.878 76.461 129.392 84.8743 124 89" stroke="white" stroke-width="2" stroke-miterlimit="10"/>
<path d="M175.909 80.425C187.74 76.6228 201.582 73.7914 218 72.7398C218 72.7398 176.875 62.2232 143.878 76.461C143.878 76.461 129.392 84.8743 124 89" stroke="#121212" stroke-opacity="0.24" stroke-width="2" stroke-miterlimit="10"/>
<path d="M88 185C88.9713 158.166 98.2794 135.939 114.953 119.208C123.29 110.883 133.974 100.214 150 91C155.5 88.1667 168.6 82 177 80" stroke="white" stroke-width="2" stroke-miterlimit="10"/>
<path d="M88 185C88.9713 158.166 98.2794 135.939 114.953 119.208C123.29 110.883 133.974 100.214 150 91C155.5 88.1667 168.6 82 177 80" stroke="#121212" stroke-opacity="0.24" stroke-width="2" stroke-miterlimit="10"/>
<path d="M175 56.3469C175 56.3469 194.346 53.9796 218 73C218 73 215.48 56.8367 209.465 49" stroke="white" stroke-width="2" stroke-miterlimit="10"/>
<path d="M175 56.3469C175 56.3469 194.346 53.9796 218 73C218 73 215.48 56.8367 209.465 49" stroke="#121212" stroke-opacity="0.24" stroke-width="2" stroke-miterlimit="10"/>
<path d="M242.71 51C242.71 51 230.798 52.0712 218 73C218 73 251.322 53.6367 284 67.7266" stroke="white" stroke-width="2" stroke-miterlimit="10"/>
<path d="M242.71 51C242.71 51 230.798 52.0712 218 73C218 73 251.322 53.6367 284 67.7266" stroke="#121212" stroke-opacity="0.24" stroke-width="2" stroke-miterlimit="10"/>
<path d="M317 138C320.925 143.586 324.45 149.173 327.413 154.597C330.698 160.588 333.341 166.417 335.263 171.842C339.829 184.876 340.47 198.073 339.749 208.517C339.028 218.88 337.106 226.49 336.545 228.514C336.465 228.838 336.385 229 336.385 229" stroke="white" stroke-width="2" stroke-miterlimit="10"/>
<path d="M317 138C320.925 143.586 324.45 149.173 327.413 154.597C330.698 160.588 333.341 166.417 335.263 171.842C339.829 184.876 340.47 198.073 339.749 208.517C339.028 218.88 337.106 226.49 336.545 228.514C336.465 228.838 336.385 229 336.385 229" stroke="#121212" stroke-opacity="0.24" stroke-width="2" stroke-miterlimit="10"/>
<path d="M334 121.463C323.587 105.123 310.59 94.0406 297.029 86.4367C279.027 76.4061 260.138 72.6042 245.365 71.4717C229.301 70.1774 218 71.957 218 71.957C218 71.957 225.104 71.7953 244.8 79.8036C249.724 81.8259 255.537 84.4144 262.156 87.6501C273.134 92.989 283.951 100.916 293.719 110.138C298.078 114.183 302.195 118.551 306.07 123" stroke="white" stroke-width="2" stroke-miterlimit="10"/>
<path d="M334 121.463C323.587 105.123 310.59 94.0406 297.029 86.4367C279.027 76.4061 260.138 72.6042 245.365 71.4717C229.301 70.1774 218 71.957 218 71.957C218 71.957 225.104 71.7953 244.8 79.8036C249.724 81.8259 255.537 84.4144 262.156 87.6501C273.134 92.989 283.951 100.916 293.719 110.138C298.078 114.183 302.195 118.551 306.07 123" stroke="#121212" stroke-opacity="0.24" stroke-width="2" stroke-miterlimit="10"/>
<path d="M225.315 91.5171C223.15 91.839 220.825 92 218.5 92C203.347 92 191 84.5951 191 75.5C191 66.4049 203.267 59 218.5 59C233.733 59 246 66.4049 246 75.5C246 79.3634 243.835 82.9049 240.147 85.722" stroke="white" stroke-width="2" stroke-miterlimit="10"/>
<path d="M225.315 91.5171C223.15 91.839 220.825 92 218.5 92C203.347 92 191 84.5951 191 75.5C191 66.4049 203.267 59 218.5 59C233.733 59 246 66.4049 246 75.5C246 79.3634 243.835 82.9049 240.147 85.722" stroke="#121212" stroke-opacity="0.24" stroke-width="2" stroke-miterlimit="10"/>
<path d="M207.01 141C168.061 137.843 138 118.418 138 94.9452C138 69.2872 173.798 48 218 48C262.202 48 298 69.2063 298 94.9452C298 115.261 275.616 132.501 244.505 138.815" stroke="white" stroke-width="2" stroke-miterlimit="10"/>
<path d="M207.01 141C168.061 137.843 138 118.418 138 94.9452C138 69.2872 173.798 48 218 48C262.202 48 298 69.2063 298 94.9452C298 115.261 275.616 132.501 244.505 138.815" stroke="#121212" stroke-opacity="0.24" stroke-width="2" stroke-miterlimit="10"/>
<path d="M108.368 154.455C104.895 149.202 102.311 143.707 100.777 137.97C99.6461 133.768 99 129.404 99 124.96V124.636C115.879 87.303 149.879 59.3434 190.986 50.9394C196.962 50.0505 203.181 49.404 209.48 49.1616C210.933 49.0808 212.468 49 213.922 49C214.487 49 215.133 49 215.698 49C215.941 49 216.264 49 216.506 49H216.829C217.233 49 217.637 49 218.04 49C218.444 49 218.848 49 219.252 49H219.575C219.817 49 220.14 49 220.382 49C220.948 49 221.594 49 222.159 49C228.378 49.1616 234.435 49.5657 240.411 50.2929C284.102 58.1313 320.283 87.9495 337 127.869C336.435 137.323 333.204 146.293 327.713 154.535C317.698 169.646 300.254 182.333 278.207 190.576C261.893 196.717 242.995 200.434 222.886 200.919C221.271 201 219.656 201 217.96 201C199.385 201 181.779 198.253 166.112 193.404C154.563 189.848 144.064 185.081 134.938 179.424" stroke="white" stroke-width="2" stroke-miterlimit="10"/>
<path d="M108.368 154.455C104.895 149.202 102.311 143.707 100.777 137.97C99.6461 133.768 99 129.404 99 124.96V124.636C115.879 87.303 149.879 59.3434 190.986 50.9394C196.962 50.0505 203.181 49.404 209.48 49.1616C210.933 49.0808 212.468 49 213.922 49C214.487 49 215.133 49 215.698 49C215.941 49 216.264 49 216.506 49H216.829C217.233 49 217.637 49 218.04 49C218.444 49 218.848 49 219.252 49H219.575C219.817 49 220.14 49 220.382 49C220.948 49 221.594 49 222.159 49C228.378 49.1616 234.435 49.5657 240.411 50.2929C284.102 58.1313 320.283 87.9495 337 127.869C336.435 137.323 333.204 146.293 327.713 154.535C317.698 169.646 300.254 182.333 278.207 190.576C261.893 196.717 242.995 200.434 222.886 200.919C221.271 201 219.656 201 217.96 201C199.385 201 181.779 198.253 166.112 193.404C154.563 189.848 144.064 185.081 134.938 179.424" stroke="#121212" stroke-opacity="0.24" stroke-width="2" stroke-miterlimit="10"/>
<path d="M183 251C175.257 249.616 167.755 247.744 160.496 245.465C141.461 239.523 124.199 230.651 109.52 219.581C102.341 214.209 95.8881 208.349 90 202" stroke="white" stroke-width="2" stroke-miterlimit="10"/>
<path d="M183 251C175.257 249.616 167.755 247.744 160.496 245.465C141.461 239.523 124.199 230.651 109.52 219.581C102.341 214.209 95.8881 208.349 90 202" stroke="#121212" stroke-opacity="0.24" stroke-width="2" stroke-miterlimit="10"/>
<path d="M347 193C343.522 202.923 324.026 230.82 286.005 241.963C266.671 247.656 246.286 253.268 224.363 253.919C222.422 254 220.48 254 218.539 254C214.332 254 210.126 253.837 206 253.593" stroke="white" stroke-width="2" stroke-miterlimit="10"/>
<path d="M347 193C343.522 202.923 324.026 230.82 286.005 241.963C266.671 247.656 246.286 253.268 224.363 253.919C222.422 254 220.48 254 218.539 254C214.332 254 210.126 253.837 206 253.593" stroke="#121212" stroke-opacity="0.24" stroke-width="2" stroke-miterlimit="10"/>
<path d="M256 288.304C245.126 290.473 233.85 291.679 222.252 291.92C220.802 292 219.352 292 217.902 292C199.699 292 182.221 289.589 165.951 285.009C150.648 280.75 125.518 268.054 114 256" stroke="white" stroke-width="2" stroke-miterlimit="10"/>
<path d="M256 288.304C245.126 290.473 233.85 291.679 222.252 291.92C220.802 292 219.352 292 217.902 292C199.699 292 182.221 289.589 165.951 285.009C150.648 280.75 125.518 268.054 114 256" stroke="#121212" stroke-opacity="0.24" stroke-width="2" stroke-miterlimit="10"/>
<path d="M320 257C314.486 261.841 306.784 267.317 299 272" stroke="white" stroke-width="2" stroke-miterlimit="10"/>
<path d="M320 257C314.486 261.841 306.784 267.317 299 272" stroke="#121212" stroke-opacity="0.24" stroke-width="2" stroke-miterlimit="10"/>
<path d="M33 165L101 203.302V296" fill="white"/>
<path d="M101 275.226V314L28 271.921V161L42.8748 169.545" fill="white"/>
<path d="M101 275.226V314L28 271.921V161L42.8748 169.545" fill="white"/>
<path d="M101 275.226V314L28 271.921V161L42.8748 169.545" stroke="white" stroke-width="2" stroke-linecap="round" stroke-linejoin="round"/>
<path d="M101 275.226V314L28 271.921V161L42.8748 169.545" stroke="#121212" stroke-opacity="0.4" stroke-width="2" stroke-linecap="round" stroke-linejoin="round"/>
<path d="M52 175L101 202.85V262" fill="white"/>
<path d="M52 175L101 202.85V262" stroke="white" stroke-width="2" stroke-linecap="round" stroke-linejoin="round"/>
<path d="M52 175L101 202.85V262" stroke="#121212" stroke-opacity="0.4" stroke-width="2" stroke-linecap="round" stroke-linejoin="round"/>
<path d="M95 238.5L35 204.177V173L95 207.011V227" fill="white"/>
<path d="M95 238.5L35 204.177V173L95 207.011V227V238.5Z" stroke="white" stroke-width="2" stroke-linecap="round" stroke-linejoin="round"/>
<path d="M95 238.5L35 204.177V173L95 207.011V227V238.5Z" stroke="#121212" stroke-opacity="0.4" stroke-width="2" stroke-linecap="round" stroke-linejoin="round"/>
<path d="M62.9877 196.823L59 192V209L72 207.972L68.092 203.07" fill="white"/>
<path d="M62.9877 196.823L59 192V209L72 207.972L68.092 203.07L62.9877 196.823Z" stroke="#7315CD" stroke-width="2" stroke-linecap="round" stroke-linejoin="round"/>
<path d="M33 217.678V212L71 234.063V282" fill="white"/>
<path d="M71 282V234.063L33 212V217.678V223.5" stroke="white" stroke-width="2" stroke-linecap="round" stroke-linejoin="round"/>
<path d="M71 282V234.063L33 212V217.678V223.5" stroke="#121212" stroke-opacity="0.4" stroke-width="2" stroke-linecap="round" stroke-linejoin="round"/>
<path d="M66 288L33 268.605V223" fill="white"/>
<path d="M66 288L33 268.605V223" stroke="white" stroke-width="2" stroke-linecap="round" stroke-linejoin="round"/>
<path d="M66 288L33 268.605V223" stroke="#121212" stroke-opacity="0.4" stroke-width="2" stroke-linecap="round" stroke-linejoin="round"/>
<path d="M40 250.647L46.0988 241L53 258L40 250.647Z" fill="white"/>
<path d="M40 250.647L46.0988 241L53 258L40 250.647Z" stroke="white" stroke-width="2" stroke-linecap="round" stroke-linejoin="round"/>
<path d="M40 250.647L46.0988 241L53 258L40 250.647Z" stroke="#121212" stroke-opacity="0.4" stroke-width="2" stroke-linecap="round" stroke-linejoin="round"/>
<path d="M53.6735 245.141L55.3061 243L66 266L46 254.817L50.9796 248.472" fill="white"/>
<path d="M53.6735 245.141L55.3061 243L66 266L46 254.817L50.9796 248.472" stroke="#7315CD" stroke-width="2" stroke-linecap="round" stroke-linejoin="round"/>
<path d="M76 240L93 250" stroke="#7315CD" stroke-width="2" stroke-linecap="round" stroke-linejoin="round"/>
<path d="M76 252L94 262" stroke="white" stroke-width="2" stroke-linecap="round" stroke-linejoin="round"/>
<path d="M76 252L94 262" stroke="#121212" stroke-opacity="0.4" stroke-width="2" stroke-linecap="round" stroke-linejoin="round"/>
<path d="M89.5 272.5L94 275" stroke="#7315CD" stroke-width="2" stroke-linecap="round" stroke-linejoin="round"/>
<path d="M76 265L85 270" stroke="#7315CD" stroke-width="2" stroke-linecap="round" stroke-linejoin="round"/>
<path d="M76 276L94 286" stroke="white" stroke-width="2" stroke-linecap="round" stroke-linejoin="round"/>
<path d="M76 276L94 286" stroke="#121212" stroke-opacity="0.4" stroke-width="2" stroke-linecap="round" stroke-linejoin="round"/>
<path d="M87 294L96 299" stroke="white" stroke-width="2" stroke-linecap="round" stroke-linejoin="round"/>
<path d="M87 294L96 299" stroke="#121212" stroke-opacity="0.4" stroke-width="2" stroke-linecap="round" stroke-linejoin="round"/>
<path d="M76 288L80 290" stroke="white" stroke-width="2" stroke-linecap="round" stroke-linejoin="round"/>
<path d="M76 288L80 290" stroke="#121212" stroke-opacity="0.4" stroke-width="2" stroke-linecap="round" stroke-linejoin="round"/>
<path d="M36 346.853V380.392C36 381.279 36.5833 382.246 37.75 382.972C40.0833 384.343 43.9167 384.343 46.25 382.972C47.4167 382.246 48 381.36 48 380.392V340" fill="white"/>
<path d="M36 346.853V380.392C36 381.279 36.5833 382.246 37.75 382.972C40.0833 384.343 43.9167 384.343 46.25 382.972C47.4167 382.246 48 381.36 48 380.392V340" stroke="#7315CD" stroke-width="2" stroke-miterlimit="10" stroke-linecap="round"/>
<path d="M24 373.406V340H12V373.406C12 374.29 12.5833 375.253 13.75 375.976C16.0833 377.341 19.9167 377.341 22.25 375.976C23.4167 375.253 24 374.37 24 373.406Z" fill="white" stroke="#7315CD" stroke-width="2" stroke-miterlimit="10" stroke-linecap="round"/>
<path d="M34 236C20.2261 277.44 9 294 9 294" stroke="#7315CD" stroke-width="2" stroke-linecap="round"/>
<path d="M34 236C20.2261 277.44 9 294 9 294" stroke="white" stroke-width="2" stroke-linecap="round"/>
<path d="M5.04421 338.627C19.8514 353.865 40.191 352.252 51.093 342.819C56.544 338.143 59.2288 332.096 58.9847 326.211L57.3576 268L0 269.774L1.62717 327.984" fill="white"/>
<path d="M5.04421 338.627C19.8514 353.865 40.191 352.252 51.093 342.819C56.544 338.143 59.2288 332.096 58.9847 326.211L57.3576 268L0 269.774L1.62717 327.984" stroke="white" stroke-width="2" stroke-miterlimit="10" stroke-linecap="round"/>
<path d="M5.04421 338.627C19.8514 353.865 40.191 352.252 51.093 342.819C56.544 338.143 59.2288 332.096 58.9847 326.211L57.3576 268L0 269.774L1.62717 327.984" stroke="#121212" stroke-opacity="0.4" stroke-width="2" stroke-miterlimit="10" stroke-linecap="round"/>
<path d="M8.83061 286.838C-2.65433 279.875 -2.97785 267.87 8.10269 260.186C19.1832 252.503 37.5429 251.862 49.1088 258.906C60.6746 265.949 60.9981 277.874 49.8367 285.558C45.9544 288.279 41.1825 290.12 36.0871 291" fill="white"/>
<path d="M8.83061 286.838C-2.65433 279.875 -2.97785 267.87 8.10269 260.186C19.1832 252.503 37.5429 251.862 49.1088 258.906C60.6746 265.949 60.9981 277.874 49.8367 285.558C45.9544 288.279 41.1825 290.12 36.0871 291" stroke="white" stroke-width="2" stroke-miterlimit="10" stroke-linecap="round"/>
<path d="M8.83061 286.838C-2.65433 279.875 -2.97785 267.87 8.10269 260.186C19.1832 252.503 37.5429 251.862 49.1088 258.906C60.6746 265.949 60.9981 277.874 49.8367 285.558C45.9544 288.279 41.1825 290.12 36.0871 291" stroke="#121212" stroke-opacity="0.4" stroke-width="2" stroke-miterlimit="10" stroke-linecap="round"/>
<path fill-rule="evenodd" clip-rule="evenodd" d="M20.9996 235.527C24.001 234.066 27.3269 233.174 30.815 233.012C43.794 232.606 54.5827 242.829 54.9883 255.81C55.3939 268.792 45.173 279.664 32.194 279.988C19.215 280.394 8.42626 270.171 8.02067 257.19C7.93955 255.405 8.10179 253.701 8.42626 251.997" fill="white"/>
<path d="M20.9996 235.527C24.001 234.066 27.3269 233.174 30.815 233.012C43.794 232.606 54.5827 242.829 54.9883 255.81C55.3939 268.792 45.173 279.664 32.194 279.988C19.215 280.394 8.42626 270.171 8.02067 257.19C7.93955 255.405 8.10179 253.701 8.42626 251.997" stroke="white" stroke-width="2" stroke-miterlimit="10" stroke-linecap="round"/>
<path d="M20.9996 235.527C24.001 234.066 27.3269 233.174 30.815 233.012C43.794 232.606 54.5827 242.829 54.9883 255.81C55.3939 268.792 45.173 279.664 32.194 279.988C19.215 280.394 8.42626 270.171 8.02067 257.19C7.93955 255.405 8.10179 253.701 8.42626 251.997" stroke="#121212" stroke-opacity="0.4" stroke-width="2" stroke-miterlimit="10" stroke-linecap="round"/>
<path d="M74 276C65.1832 302.157 53 298.867 53 298.867" stroke="#7216CC" stroke-width="12" stroke-linecap="round"/>
<path d="M74 276C65.1832 302.157 53 298.867 53 298.867" stroke="white" stroke-width="8" stroke-linecap="round"/>
<path d="M181 325L109 283.739V218L181 259.18V325Z" fill="white"/>
<path d="M181 325L109 283.739V218L181 259.18V325Z" stroke="white" stroke-width="2" stroke-miterlimit="10" stroke-linecap="round" stroke-linejoin="round"/>
<path d="M181 325L109 283.739V218L181 259.18V325Z" stroke="#121212" stroke-opacity="0.4" stroke-width="2" stroke-miterlimit="10" stroke-linecap="round" stroke-linejoin="round"/>
<path d="M159 261L175 270" stroke="white" stroke-width="2" stroke-miterlimit="10" stroke-linecap="round" stroke-linejoin="round"/>
<path d="M159 261L175 270" stroke="#121212" stroke-opacity="0.4" stroke-width="2" stroke-miterlimit="10" stroke-linecap="round" stroke-linejoin="round"/>
<path d="M115 235L149 255" stroke="white" stroke-width="2" stroke-miterlimit="10" stroke-linecap="round" stroke-linejoin="round"/>
<path d="M115 235L149 255" stroke="#121212" stroke-opacity="0.4" stroke-width="2" stroke-miterlimit="10" stroke-linecap="round" stroke-linejoin="round"/>
<path d="M154 284L175 296" stroke="white" stroke-width="2" stroke-miterlimit="10" stroke-linecap="round" stroke-linejoin="round"/>
<path d="M154 284L175 296" stroke="#121212" stroke-opacity="0.4" stroke-width="2" stroke-miterlimit="10" stroke-linecap="round" stroke-linejoin="round"/>
<path d="M115 262L145 279" stroke="white" stroke-width="2" stroke-miterlimit="10" stroke-linecap="round" stroke-linejoin="round"/>
<path d="M115 262L145 279" stroke="#121212" stroke-opacity="0.4" stroke-width="2" stroke-miterlimit="10" stroke-linecap="round" stroke-linejoin="round"/>
<path d="M163 276L175 283" stroke="#7315CD" stroke-width="2" stroke-linecap="round" stroke-linejoin="round"/>
<path d="M115 249L154 271" stroke="#7315CD" stroke-width="2" stroke-linecap="round" stroke-linejoin="round"/>
<path d="M128.5 282.5L175 309" stroke="white" stroke-width="2" stroke-miterlimit="10" stroke-linecap="round" stroke-linejoin="round"/>
<path d="M128.5 282.5L175 309" stroke="#121212" stroke-opacity="0.4" stroke-width="2" stroke-miterlimit="10" stroke-linecap="round" stroke-linejoin="round"/>
<path d="M115 275L121.5 278.5" stroke="#7315CD" stroke-width="2" stroke-linecap="round" stroke-linejoin="round"/>
<path d="M326 297L398 255.823V201L326 242.097V297Z" fill="white"/>
<path d="M326 297L398 255.823V201L326 242.097V297Z" stroke="white" stroke-width="2" stroke-miterlimit="10" stroke-linecap="round" stroke-linejoin="round"/>
<path d="M326 297L398 255.823V201L326 242.097V297Z" stroke="#121212" stroke-opacity="0.4" stroke-width="2" stroke-miterlimit="10" stroke-linecap="round" stroke-linejoin="round"/>
<path d="M339 248L332 252" stroke="#939393" stroke-width="2" stroke-miterlimit="10" stroke-linecap="round" stroke-linejoin="round"/>
<path d="M390 218L344 245" stroke="#7215CC" stroke-width="2" stroke-linecap="round" stroke-linejoin="round"/>
<path d="M353 255L332 267" stroke="#7215CC" stroke-width="2" stroke-linecap="round" stroke-linejoin="round"/>
<path d="M391 233L361 250" stroke="#939393" stroke-width="2" stroke-miterlimit="10" stroke-linecap="round" stroke-linejoin="round"/>
<path d="M361 264L332 281" stroke="#939393" stroke-width="2" stroke-miterlimit="10" stroke-linecap="round" stroke-linejoin="round"/>
<path d="M392 247L367 261" stroke="#939393" stroke-width="2" stroke-miterlimit="10" stroke-linecap="round" stroke-linejoin="round"/>
<path d="M298.711 215.05L316 205V301.934L254 338V241.066L284.96 223.074" fill="white"/>
<path d="M298.711 215.05L316 205V301.934L254 338V241.066L284.96 223.074" stroke="white" stroke-width="2" stroke-miterlimit="10" stroke-linecap="round"/>
<path d="M298.711 215.05L316 205V301.934L254 338V241.066L284.96 223.074" stroke="#121212" stroke-opacity="0.4" stroke-width="2" stroke-miterlimit="10" stroke-linecap="round"/>
<path d="M285 223L299 215" stroke="white" stroke-width="2" stroke-miterlimit="10" stroke-linecap="round"/>
<path d="M285 223L299 215" stroke="#121212" stroke-opacity="0.4" stroke-width="2" stroke-miterlimit="10" stroke-linecap="round"/>
<path d="M268.109 242.78C269.073 241.958 270.036 241.219 271 240.562C277.102 236.947 282 239.822 282 246.969C282 254.116 277.022 262.824 271 266.438C264.898 270.053 260 267.178 260 260.031C260 256.498 261.204 252.637 263.131 249.187" fill="white"/>
<path d="M268.109 242.78C269.073 241.958 270.036 241.219 271 240.562C277.102 236.947 282 239.822 282 246.969C282 254.116 277.022 262.824 271 266.438C264.898 270.053 260 267.178 260 260.031C260 256.498 261.204 252.637 263.131 249.187" stroke="white" stroke-width="2" stroke-miterlimit="10" stroke-linecap="round"/>
<path d="M268.109 242.78C269.073 241.958 270.036 241.219 271 240.562C277.102 236.947 282 239.822 282 246.969C282 254.116 277.022 262.824 271 266.438C264.898 270.053 260 267.178 260 260.031C260 256.498 261.204 252.637 263.131 249.187" stroke="#121212" stroke-opacity="0.4" stroke-width="2" stroke-miterlimit="10" stroke-linecap="round"/>
<path d="M274.29 257.915C273.493 258.933 272.536 259.717 271.5 260.265C268.471 261.988 266 260.578 266 257.132C266 253.687 268.471 249.536 271.5 247.735C274.529 246.012 277 247.422 277 250.868C277 251.572 276.92 252.356 276.681 253.06" fill="white"/>
<path d="M274.29 257.915C273.493 258.933 272.536 259.717 271.5 260.265C268.471 261.988 266 260.578 266 257.132C266 253.687 268.471 249.536 271.5 247.735C274.529 246.012 277 247.422 277 250.868C277 251.572 276.92 252.356 276.681 253.06" stroke="#7315CD" stroke-width="2" stroke-linecap="round" stroke-linejoin="round"/>
<path d="M310 298.023L291 309V232.977L310 222V298.023Z" fill="white"/>
<path d="M310 298.023L291 309V232.977L310 222V298.023Z" stroke="white" stroke-width="2" stroke-miterlimit="10" stroke-linecap="round" stroke-linejoin="round"/>
<path d="M310 298.023L291 309V232.977L310 222V298.023Z" stroke="#121212" stroke-opacity="0.4" stroke-width="2" stroke-miterlimit="10" stroke-linecap="round" stroke-linejoin="round"/>
<path d="M260 282L283 269" stroke="white" stroke-width="2" stroke-miterlimit="10" stroke-linecap="round"/>
<path d="M260 282L283 269" stroke="#121212" stroke-opacity="0.4" stroke-width="2" stroke-miterlimit="10" stroke-linecap="round"/>
<path d="M260 292L283 279" stroke="#7315CD" stroke-width="2" stroke-linecap="round" stroke-linejoin="round"/>
<path d="M277 293L282 290" stroke="white" stroke-width="2" stroke-miterlimit="10" stroke-linecap="round"/>
<path d="M277 293L282 290" stroke="#121212" stroke-opacity="0.4" stroke-width="2" stroke-miterlimit="10" stroke-linecap="round"/>
<path d="M260 303L270 297" stroke="white" stroke-width="2" stroke-miterlimit="10" stroke-linecap="round"/>
<path d="M260 303L270 297" stroke="#121212" stroke-opacity="0.4" stroke-width="2" stroke-miterlimit="10" stroke-linecap="round"/>
<path d="M270 308L282 301" stroke="#7315CD" stroke-width="2" stroke-linecap="round" stroke-linejoin="round"/>
<path d="M260 314L265 311" stroke="#7315CD" stroke-width="2" stroke-linecap="round" stroke-linejoin="round"/>
<path d="M260 325L283 311.5" stroke="white" stroke-width="2" stroke-miterlimit="10" stroke-linecap="round"/>
<path d="M260 325L283 311.5" stroke="#121212" stroke-opacity="0.4" stroke-width="2" stroke-miterlimit="10" stroke-linecap="round"/>
<path d="M372.035 261C371.058 289.881 391 309 391 309" stroke="#7315CD" stroke-width="13" stroke-linecap="round"/>
<path d="M372.035 261C371.058 289.881 391 309 391 309" stroke="white" stroke-width="8" stroke-linecap="round"/>
<path d="M378 357.866V391.385C378 392.274 378.583 393.243 379.75 393.97C382.083 395.343 385.917 395.343 388.25 393.97C389.417 393.243 390 392.355 390 391.385V351" fill="white"/>
<path d="M378 357.866V391.385C378 392.274 378.583 393.243 379.75 393.97C382.083 395.343 385.917 395.343 388.25 393.97C389.417 393.243 390 392.355 390 391.385V351" stroke="#7315CD" stroke-width="2" stroke-miterlimit="10" stroke-linecap="round"/>
<path d="M368 403.406V370H356V403.406C356 404.29 356.583 405.253 357.75 405.976C360.083 407.341 363.917 407.341 366.25 405.976C367.417 405.253 368 404.37 368 403.406Z" fill="white" stroke="#7315CD" stroke-width="2" stroke-miterlimit="10" stroke-linecap="round"/>
<path d="M345.044 370.627C359.851 385.865 380.191 384.252 391.093 374.819C396.544 370.143 399.229 364.096 398.985 358.211L397.358 300L340 301.774L341.627 359.984" fill="white"/>
<path d="M345.044 370.627C359.851 385.865 380.191 384.252 391.093 374.819C396.544 370.143 399.229 364.096 398.985 358.211L397.358 300L340 301.774L341.627 359.984" stroke="white" stroke-width="2" stroke-miterlimit="10" stroke-linecap="round"/>
<path d="M345.044 370.627C359.851 385.865 380.191 384.252 391.093 374.819C396.544 370.143 399.229 364.096 398.985 358.211L397.358 300L340 301.774L341.627 359.984" stroke="#121212" stroke-opacity="0.4" stroke-width="2" stroke-miterlimit="10" stroke-linecap="round"/>
<path d="M348.882 318.838C337.328 311.795 337.005 299.87 348.155 292.186C359.224 284.503 377.564 283.862 389.118 290.906C400.672 297.949 400.995 309.874 389.845 317.558C385.967 320.279 381.2 322.12 376.11 323" fill="white"/>
<path d="M348.882 318.838C337.328 311.795 337.005 299.87 348.155 292.186C359.224 284.503 377.564 283.862 389.118 290.906C400.672 297.949 400.995 309.874 389.845 317.558C385.967 320.279 381.2 322.12 376.11 323" stroke="white" stroke-width="2" stroke-miterlimit="10" stroke-linecap="round"/>
<path d="M348.882 318.838C337.328 311.795 337.005 299.87 348.155 292.186C359.224 284.503 377.564 283.862 389.118 290.906C400.672 297.949 400.995 309.874 389.845 317.558C385.967 320.279 381.2 322.12 376.11 323" stroke="#121212" stroke-opacity="0.4" stroke-width="2" stroke-miterlimit="10" stroke-linecap="round"/>
<path fill-rule="evenodd" clip-rule="evenodd" d="M389.531 280.808C390.181 284.053 390.181 287.541 389.369 290.947C386.364 303.52 373.693 311.307 361.103 308.387C348.513 305.467 340.634 292.732 343.64 280.078C346.645 267.506 359.316 259.638 371.906 262.639C373.611 263.044 375.317 263.612 376.779 264.423" fill="white"/>
<path d="M389.531 280.808C390.181 284.053 390.181 287.541 389.369 290.947C386.364 303.52 373.693 311.307 361.103 308.387C348.513 305.467 340.634 292.732 343.64 280.078C346.645 267.506 359.316 259.638 371.906 262.639C373.611 263.044 375.317 263.612 376.779 264.423" stroke="white" stroke-width="2" stroke-miterlimit="10" stroke-linecap="round"/>
<path d="M389.531 280.808C390.181 284.053 390.181 287.541 389.369 290.947C386.364 303.52 373.693 311.307 361.103 308.387C348.513 305.467 340.634 292.732 343.64 280.078C346.645 267.506 359.316 259.638 371.906 262.639C373.611 263.044 375.317 263.612 376.779 264.423" stroke="#121212" stroke-opacity="0.4" stroke-width="2" stroke-miterlimit="10" stroke-linecap="round"/>
<path d="M311 301C314.68 330 345 330 345 330" stroke="#7315CD" stroke-width="12" stroke-linecap="round"/>
<path d="M311 301C314.68 330 345 330 345 330" stroke="white" stroke-width="8" stroke-linecap="round"/>
</g>
<defs>
<clipPath id="clip0">
<rect width="400" height="410" fill="white"/>
</clipPath>
</defs>
</svg>
