<svg fill="none" xmlns="http://www.w3.org/2000/svg" viewBox="0 0 500 346">
  <g clip-path="url(#clip0)">
    <path fill="#181E29" d="M0 0h500v346H0z"/>
    <path fill="#fff" fill-opacity=".1" d="M0 0h500v346H0z"/>
    <path d="M96.72 71.96L-83.76-121.32 556.88-129V71.96L467.6 74.2l-89.28 6.72v108.8H104.4L96.72 71.96z" fill="url(#paint0_linear)"/>
    <path d="M267.583 315.386c88.922 0 161.007-54.331 161.007-121.352 0-67.02-72.085-121.351-161.007-121.351-88.922 0-161.007 54.331-161.007 121.351 0 67.021 72.085 121.352 161.007 121.352z" fill="url(#paint1_radial)"/>
    <path d="M599.607 275.083v-14.882l-111.975 2.944-529.92-7.36v14.882l529.92 7.36 111.975-2.944z" fill="#202020"/>
    <path d="M487.839 263.145l-530.127-7.36v14.882l530.127 7.36v-14.882z" fill="#3D424C"/>
    <path d="M386.947 59.058L97.493 62.002v133.495l289.454-2.944V59.058z" fill="#BCBEC0"/>
    <path d="M382.738 63.518l-281.02 2.944v124.575l281.02-2.944V63.518z" fill="#434751"/>
    <path d="M382.738 147.201v40.892l-281.02 2.944v-47.104c12.702-2.472 23.54 1.195 38.581.309 12.75-.751 32.487-3.768 32.487-3.768l20.049-11.776 9.112 2.87 31.147-8.464 30.912-9.833 41.216 28.601 18.062-6.977 30.073 4.063s19.798 4.902 29.381 8.243z" fill="#373B45"/>
    <path d="M259.075 191.081h-17.841v60.22h17.841v-60.22z" fill="#BCBEC0"/>
    <path d="M197.619 262.821h52.535v-10.245l-52.535 5.123v5.122z" fill="#999"/>
    <path d="M302.705 262.821h-52.551v-10.245l52.551 5.123v5.122z" fill="#454A54"/>
    <path d="M225.616 51.032l25.024-.736 12.512-.368 12.512-.368v11.776l-50.048 1.472V51.032z" fill="#BCBEC0"/>
    <path d="M230.841 56.187a2.546 2.546 0 115.092-.03 2.546 2.546 0 01-5.092.03z" fill="url(#paint2_linear)"/>
    <path d="M366.928 151.865l-13.115-6.504-13.381 6.504-5.24 12.117 5.24 13.643 13.381 4.978 13.115-4.978 5.506-13.643-5.506-12.117z" fill="#797979"/>
    <path d="M369.873 171l-4.417-9.568h-9.568m0 0l-10.304-5.152-2.208-5.152m12.512 10.304l-10.304 2.208-8.832-2.208" stroke="#fff" stroke-width="1.132"/>
    <path d="M463.432 76.194l-86.229 3.22V254.71l86.229 2.944V76.194z" fill="#464B55"/>
    <path d="M549.964 84.568l-86.239-8.505-.593 181.457 86.238-2.677.594-170.275z" fill="#343943"/>
    <path d="M549.456 85.495L464.08 75.191l-87.04 3.81" stroke="#646464" stroke-width="1.132"/>
    <path d="M389.303 256.182h-10.069v5.476h10.069v-5.476zM460.341 257.653h-10.069v5.476h10.069v-5.476z" fill="#181818"/>
    <path d="M476.063 257.653h-10.069v5.476h10.069v-5.476z" fill="#040404"/>
    <path d="M213.457 252.65H94.932v9.73h118.525v-9.73z" fill="#111"/>
    <path d="M94.932 253.401l46.618-7.493h109.958l-38.036 6.742-118.54.751z" fill="#2B2B2B"/>
    <path d="M213.472 262.821l38.036-7.095v-9.818l-38.036 6.742v10.171zM101.718 117.152c3.945 2.591 22.683 14.102 23.552 27.056.868 12.953 10.628 15.25 18.679 22.153 8.052 6.904 15.088 33.253 15.088 33.253h-57.319v-82.462z" fill="#111"/>
    <path d="M241.233 263.145h51.226l-9.436-12.912-27.761-4.325-14.029 17.237z" fill="#585D67"/>
    <path d="M158.744 137.26l-33.695-8.832-17.413-23.287 10.51-30.706 10.51-30.706s8.485-1.51 12.792-1.649h3.68c16.03.5 29.778 7.522 30.809 22.654.088 1.354 8.463 0 8.463 0l-13.984 67.002-11.672 5.524z" fill="#828790"/>
    <path d="M177.04 36.057l-48.384 7.657L99.024 64.72l2.208 20.649 23.817 43.044 23.552-7.713 10.481-24.259L177.04 81.69l10.88-24.096 21.856-8.96-32.736-12.576zm-1.207 27.883c.049.257.083.518.103.78-.059-.265-.118-.516-.147-.78h.044z" fill="url(#paint3_linear)"/>
    <path d="M88.47 359.708h55.936l-9.186 140.12h29.293l31.869-136.366-22.86-52.669L37.48 293.615l1.324 34.872c.27 7.379 8.279 19.782 8.279 19.782s11.911 8.721 19.262 9.422c7.351.702 22.125 2.017 22.125 2.017z" fill="url(#paint4_linear)"/>
    <path d="M176.305 359.708h55.936l-9.186 140.12h29.278l32.164-155.388-23.155-33.647-136.028-17.178s1.055 27.492 1.325 34.872c.27 7.379 6.978 23.313 6.978 23.313l20.563 5.891 22.125 2.017z" fill="#ABB0BA"/>
    <path d="M164.057 141.617l-68.712-19.449-77.28 20.126L38.2 304.332c10.584 42.496 86.495 58.129 118.526 0l7.33-162.715z" fill="#2F343D"/>
    <path d="M124.049 363.577l-164.865-5.888 4.416-219.328-60.351-60.352 72.864-5.888-8.033-46.24 4.48-5.12h67.2l40.32 53.76 59.425 15.264-41.216 192.832 25.76 80.96z" fill="url(#paint5_linear)"/>
    <path d="M103.44 364.313l-161.92-4.416 13.248-65.504-55.936-215.648H-65.2l33.92-52.225h62.72l44.8 58.241 48.544 9.072L83.568 289.24l19.872 75.072z" fill="url(#paint6_linear)"/>
    <path d="M180.719 284.534h-24.847v111.269h4.239l20.608-111.269z" fill="#414650"/>
    <path d="M109.328 273.785l111.872 4.416-19.872 14.72-86.112-2.944-5.888-16.192z" fill="#4B505A"/>
    <path d="M173.36 243.608l2.208-22.08-37.536 12.512 18.4 40.48 88.32-12.512 14.72-5.888 22.08 3.68 3.68-2.944-30.176-20.608-25.76 11.04-55.936-3.68z" fill="#818690"/>
    <path d="M178.512 225.385l-3.547-70.571-16.325-14.246-36.8 57.408 12.512 36.58 44.16-9.171z" fill="url(#paint7_linear)"/>
    <path d="M131.408 42.363l26.246 7.678 8.832 32.517h9.377l-12.321-33.875-18.15-9.682-13.984 3.362z" fill="#242833"/>
    <path d="M172.815 114.93l13.984-9.568.736-22.08-21.403-8.122-12.453 11.073v16.889l19.136 11.808z" fill="#679BFF"/>
    <path d="M181.839 102.04l4.96 3.322.736-22.08-21.403-8.122 2.908 6.4 12.799 20.48z" fill="#fff" fill-opacity=".4"/>
    <path d="M171.624 108.334l10.568-6.223v-15.27l-13.08-5.174-9.778 7.111v10.667l12.29 8.889z" fill="#606060"/>
    <path d="M175.423 93.464l-.904-.246-6.176-1.667 1.904 7.11 5.176-5.197zm-2.076.556l-2.549 2.542-.93-3.469 3.479.927z" fill="#fff"/>
    <path fill="#4F4F4F" d="M354 167.838l5.028 5.028-5.028 5.028-5.028-5.028z"/>
    <path transform="rotate(45 23.713 586.408)" stroke="#696969" stroke-width="2.265" d="M0 1.601h15.45v15.45H0z"/>
    <path stroke="#679BFF" stroke-width="2.265" d="M420.536 84.441l31.015 31.014-31.015 31.015-31.014-31.015z"/>
    <path d="M302.8 260.76c16.213.854 46.848.896 39.68-5.76-7.168-6.656-40.96-.853-54.4 2.56" stroke="#679BFF" stroke-width="1.132"/>
  </g>
  <defs>
    <linearGradient id="paint0_linear" x1="236.56" y1="-129" x2="236.56" y2="123.16" gradientUnits="userSpaceOnUse">
      <stop stop-color="#6C7689" stop-opacity="0"/>
      <stop offset="1" stop-color="#CDCDCD" stop-opacity=".15"/>
    </linearGradient>
    <linearGradient id="paint2_linear" x1="1306.24" y1="1035.13" x2="1471.51" y2="658.749" gradientUnits="userSpaceOnUse">
      <stop stop-color="#fff"/>
      <stop offset="1" stop-color="#838383"/>
    </linearGradient>
    <linearGradient id="paint3_linear" x1="153.08" y1="128.413" x2="153.08" y2="36.057" gradientUnits="userSpaceOnUse">
      <stop stop-color="#444852"/>
      <stop offset="1" stop-color="#535762"/>
    </linearGradient>
    <linearGradient id="paint4_linear" x1="116.931" y1="504.62" x2="116.931" y2="275.739" gradientUnits="userSpaceOnUse">
      <stop stop-color="#545454"/>
      <stop offset="1" stop-color="#C6C6C6"/>
    </linearGradient>
    <linearGradient id="paint5_linear" x1="21.377" y1="-23.559" x2="99.025" y2="356.953" gradientUnits="userSpaceOnUse">
      <stop stop-color="#6E737D"/>
      <stop offset="1" stop-color="#353A44"/>
    </linearGradient>
    <linearGradient id="paint6_linear" x1="11.624" y1="-15.86" x2="10.38" y2="315.331" gradientUnits="userSpaceOnUse">
      <stop stop-color="#818690"/>
      <stop offset="1" stop-color="#454A54"/>
    </linearGradient>
    <linearGradient id="paint7_linear" x1="122.576" y1="168.536" x2="191.024" y2="206.808" gradientUnits="userSpaceOnUse">
      <stop stop-color="#4A4F59"/>
      <stop offset="1" stop-color="#737882"/>
    </linearGradient>
    <radialGradient id="paint1_radial" cx="0" cy="0" r="1" gradientUnits="userSpaceOnUse" gradientTransform="matrix(177.56066 29.04164 -21.9236 134.04093 243.919 164.119)">
      <stop stop-color="#6C7689"/>
      <stop offset="1" stop-color="#0E131D" stop-opacity=".01"/>
    </radialGradient>
    <clipPath id="clip0">
      <path fill="#fff" d="M0 0h500v346H0z"/>
    </clipPath>
  </defs>
</svg>
