<svg width="440" height="532" viewBox="0 0 440 532" fill="none" xmlns="http://www.w3.org/2000/svg">
<g clip-path="url(#clip0)">
<rect width="440" height="532" fill="#333333"/>
<g clip-path="url(#clip1)">
<path d="M561.792 2.51855H-134.361V141.769H561.792V2.51855Z" fill="#515151"/>
<g opacity="0.6">
<path fill-rule="evenodd" clip-rule="evenodd" d="M126.749 125.081L121.436 -3.70353L95.8818 -9.27734L100.018 123.988L126.749 125.081Z" fill="url(#paint0_linear)"/>
<path fill-rule="evenodd" clip-rule="evenodd" d="M95.883 -9.27734L87.7577 -7.1725L87.7921 124.566L100.019 123.988L95.883 -9.27734Z" fill="#424242"/>
<path fill-rule="evenodd" clip-rule="evenodd" d="M12.4793 125.208L20.3811 79.5785L-0.607161 -22.9996L-11.7591 -46.7041L-26.6426 12.8282L-25.2325 125.145L12.4793 125.208Z" fill="#878787"/>
<path fill-rule="evenodd" clip-rule="evenodd" d="M-0.492491 -23.1582L-26.5874 13.7275L-0.683325 129.425H12.6239L20.5437 82.4486L-0.492491 -23.1582Z" fill="url(#paint1_linear)"/>
<path fill-rule="evenodd" clip-rule="evenodd" d="M58.7979 119.823L50.922 -54.0403L39.6411 -61.4932L45.4363 120.528L58.7979 119.823Z" fill="url(#paint2_linear)"/>
<path fill-rule="evenodd" clip-rule="evenodd" d="M39.6412 -61.4932L16.6151 -54.9256L18.051 121.874L45.4364 120.528L39.6412 -61.4932Z" fill="#424242"/>
<path fill-rule="evenodd" clip-rule="evenodd" d="M19.8571 -55.8555L25.5148 121.576L14.724 122.046L12.0327 -55.4399L19.8571 -55.8555Z" fill="#565656"/>
<path fill-rule="evenodd" clip-rule="evenodd" d="M12.0319 -55.4404L8.23153 -52.7303L12.3501 122.172L16.2021 121.973L12.0319 -55.4404Z" fill="#424242"/>
<path fill-rule="evenodd" clip-rule="evenodd" d="M97.7478 124.521L91.6775 23.0178L82.1507 19.8018L87.7997 124.774L97.7478 124.521Z" fill="url(#paint3_linear)"/>
<path fill-rule="evenodd" clip-rule="evenodd" d="M81.0756 124.774L74.3002 19.0883L63.3546 15.7549L69.8463 124.774H81.0756Z" fill="url(#paint4_linear)"/>
<path fill-rule="evenodd" clip-rule="evenodd" d="M63.3556 15.7549L41.1808 19.8743L44.2246 124.774H69.8473L63.3556 15.7549Z" fill="#424242"/>
<path fill-rule="evenodd" clip-rule="evenodd" d="M86.9475 124.772L82.4632 24.2112L74.4722 21.6523L80.0267 124.772H86.9475Z" fill="url(#paint5_linear)"/>
<path fill-rule="evenodd" clip-rule="evenodd" d="M188.542 130.389L186.356 88.5906L156.011 85.3369L158.431 130.389H188.542Z" fill="url(#paint6_linear)"/>
<path fill-rule="evenodd" clip-rule="evenodd" d="M162.944 130.389L160.049 75.9766L148.476 73.457L151.113 130.414L162.944 130.389Z" fill="url(#paint7_linear)"/>
<path fill-rule="evenodd" clip-rule="evenodd" d="M151.009 130.431L148.344 75.4079L139.208 74.1416L140.434 130.431H151.009Z" fill="#606060"/>
<path fill-rule="evenodd" clip-rule="evenodd" d="M141.426 130.564L139.615 72.3476L125.682 70.0283L128.485 130.564H141.426Z" fill="url(#paint8_linear)"/>
<path fill-rule="evenodd" clip-rule="evenodd" d="M125.681 70.0283L113.108 72.3476L114.401 130.564H128.485L125.681 70.0283Z" fill="#424242"/>
<path fill-rule="evenodd" clip-rule="evenodd" d="M52.4694 131.703L51.0289 67.4264L14.7875 61.8643L14.4604 131.422L52.4694 131.703Z" fill="url(#paint9_linear)"/>
<path fill-rule="evenodd" clip-rule="evenodd" d="M14.8408 61.8643L-2.07726 64.3896L-3.78365 131.569L14.5147 131.703L14.8408 61.8643Z" fill="#424242"/>
</g>
<g opacity="0.6">
<path fill-rule="evenodd" clip-rule="evenodd" d="M320.972 120.333L325.989 -1.25617L350.115 -6.51855L346.21 119.301L320.972 120.333Z" fill="url(#paint10_linear)"/>
<path fill-rule="evenodd" clip-rule="evenodd" d="M350.114 -6.51855L357.785 -4.53131L357.753 119.847L346.209 119.301L350.114 -6.51855Z" fill="#424242"/>
<path fill-rule="evenodd" clip-rule="evenodd" d="M428.858 120.452L421.397 77.3723L441.213 -19.4744L451.742 -41.8545L465.794 14.3516L464.462 120.393L428.858 120.452Z" fill="#878787"/>
<path fill-rule="evenodd" clip-rule="evenodd" d="M441.105 -19.623L465.742 15.2017L441.285 124.435H428.721L421.244 80.0832L441.105 -19.623Z" fill="url(#paint11_linear)"/>
<path fill-rule="evenodd" clip-rule="evenodd" d="M385.127 115.369L392.563 -48.78L403.213 -55.8164L397.742 116.034L385.127 115.369Z" fill="url(#paint12_linear)"/>
<path fill-rule="evenodd" clip-rule="evenodd" d="M403.213 -55.8164L424.953 -49.6158L423.597 117.305L397.742 116.034L403.213 -55.8164Z" fill="#424242"/>
<path fill-rule="evenodd" clip-rule="evenodd" d="M421.892 -50.4941L416.55 117.024L426.738 117.467L429.279 -50.1018L421.892 -50.4941Z" fill="#565656"/>
<path fill-rule="evenodd" clip-rule="evenodd" d="M429.28 -50.1025L432.868 -47.5438L428.98 117.586L425.343 117.398L429.28 -50.1025Z" fill="#424242"/>
<path fill-rule="evenodd" clip-rule="evenodd" d="M348.353 119.805L354.084 23.973L381.177 17.2656L376.338 119.805H348.353Z" fill="url(#paint13_linear)"/>
<path fill-rule="evenodd" clip-rule="evenodd" d="M380.824 17.1162L401.76 21.0054L398.886 120.044H374.695L380.824 17.1162Z" fill="#424242"/>
<path fill-rule="evenodd" clip-rule="evenodd" d="M262.632 125.344L264.695 85.8815L293.345 82.8096L291.061 125.344H262.632Z" fill="url(#paint14_linear)"/>
<path fill-rule="evenodd" clip-rule="evenodd" d="M286.8 125.345L289.533 73.9725L300.459 71.5938L297.97 125.368L286.8 125.345Z" fill="url(#paint15_linear)"/>
<path fill-rule="evenodd" clip-rule="evenodd" d="M297.711 124.17L300.584 73.4358L309.21 72.2402L308.052 125.385L297.711 124.17Z" fill="#565656"/>
<path fill-rule="evenodd" clip-rule="evenodd" d="M307.115 125.51L308.825 70.5462L321.98 68.3564L319.333 125.51H307.115Z" fill="url(#paint16_linear)"/>
<path fill-rule="evenodd" clip-rule="evenodd" d="M321.98 68.3564L333.852 70.5462L332.631 125.51H319.334L321.98 68.3564Z" fill="#424242"/>
<path fill-rule="evenodd" clip-rule="evenodd" d="M391.102 126.586L392.462 65.8998L426.678 60.6484L426.987 126.32L391.102 126.586Z" fill="url(#paint17_linear)"/>
<path fill-rule="evenodd" clip-rule="evenodd" d="M426.628 60.6484L442.601 63.0327L444.212 126.458L426.936 126.586L426.628 60.6484Z" fill="#424242"/>
</g>
<path d="M-151.641 127.626H559.949V233.185H-146.688C-146.688 233.185 -151.641 126.246 -151.641 127.626Z" fill="#8D8D8D"/>
<path d="M-246.105 224.101L139.699 127.511H274.714L591.859 214.672L603.61 364.042L-220.761 357.372L-246.105 224.101Z" fill="#6E6E6E"/>
<path d="M145.575 161.448C144.308 161.448 143.156 166.163 143.156 172.142C143.156 178.007 144.192 182.836 145.575 182.836H153.408V161.563H145.575V161.448Z" fill="#5D5E60"/>
<path d="M154.963 172.142C154.963 175.038 154.706 177.654 154.289 179.525C154.08 180.467 153.838 181.178 153.593 181.636C153.478 181.851 153.379 181.978 153.308 182.045C153.241 181.976 153.149 181.853 153.042 181.652C152.801 181.2 152.556 180.496 152.339 179.562C151.909 177.705 151.624 175.09 151.624 172.142C151.624 169.247 151.881 166.631 152.298 164.759C152.507 163.817 152.748 163.106 152.993 162.649C153.116 162.42 153.221 162.29 153.292 162.227C153.293 162.226 153.293 162.226 153.293 162.225C153.294 162.226 153.294 162.226 153.295 162.227C153.366 162.29 153.471 162.42 153.593 162.649C153.838 163.106 154.08 163.817 154.289 164.759C154.706 166.631 154.963 169.247 154.963 172.142ZM153.246 182.094C153.246 182.094 153.247 182.094 153.248 182.093C153.247 182.094 153.246 182.094 153.246 182.094ZM153.372 182.101C153.373 182.101 153.373 182.102 153.373 182.102L153.372 182.101ZM153.341 162.19C153.341 162.19 153.34 162.191 153.339 162.191C153.34 162.19 153.341 162.19 153.341 162.19ZM153.248 162.191C153.247 162.191 153.246 162.19 153.246 162.19C153.246 162.19 153.247 162.19 153.248 162.191Z" stroke="#5C5E60" stroke-width="1.5"/>
<path d="M91.5717 160.502C90.3045 160.502 89.1525 165.216 89.1525 171.196C89.1525 177.06 90.1893 181.89 91.5717 181.89H99.4053V160.617H91.5717V160.502Z" fill="#5D5E60"/>
<path d="M101.074 171.196C101.074 174.091 100.818 176.707 100.401 178.579C100.191 179.521 99.9501 180.232 99.7052 180.689C99.5901 180.904 99.4908 181.031 99.4199 181.099C99.3531 181.03 99.261 180.907 99.1539 180.706C98.9122 180.254 98.6675 179.55 98.4509 178.616C98.0205 176.759 97.7359 174.144 97.7359 171.196C97.7359 168.3 97.9925 165.684 98.4092 163.813C98.6189 162.871 98.8601 162.16 99.105 161.702C99.2185 161.49 99.3166 161.364 99.3873 161.296C99.4551 161.368 99.5472 161.494 99.6538 161.697C99.8969 162.16 100.142 162.876 100.359 163.818C100.79 165.691 101.074 168.306 101.074 171.196ZM99.3577 181.148C99.3577 181.148 99.3583 181.147 99.3597 181.147C99.3583 181.148 99.3577 181.148 99.3577 181.148ZM99.4835 181.154C99.4846 181.155 99.4851 181.155 99.4851 181.155L99.4835 181.154ZM99.4525 161.244C99.4525 161.244 99.4518 161.244 99.4505 161.245C99.4518 161.244 99.4525 161.244 99.4525 161.244ZM99.3206 161.236C99.3195 161.235 99.3189 161.235 99.3189 161.235C99.3189 161.235 99.3194 161.235 99.3206 161.236Z" stroke="#5C5E60" stroke-width="1.5"/>
<path d="M100.557 171.196C100.557 173.956 100.097 176.256 99.4053 176.256C98.8293 176.256 98.2534 173.956 98.2534 171.196C98.2534 168.436 98.7142 166.137 99.4053 166.137C99.9813 166.137 100.557 168.436 100.557 171.196Z" fill="#67686A"/>
<path d="M169.997 149.604C168.845 149.604 167.808 153.974 167.808 159.378C167.808 164.783 168.845 169.152 169.997 169.152H177.255V149.604H169.997Z" fill="#5D5E60"/>
<path d="M178.578 159.378C178.578 162.046 178.35 164.432 177.976 166.131C177.788 166.987 177.572 167.625 177.355 168.031C177.273 168.183 177.207 168.276 177.16 168.331C177.11 168.268 177.047 168.173 176.975 168.037C176.76 167.625 176.539 166.981 176.344 166.125C175.956 164.425 175.701 162.039 175.701 159.378C175.701 156.711 175.929 154.325 176.302 152.626C176.49 151.77 176.706 151.132 176.924 150.726C177.005 150.574 177.071 150.481 177.119 150.426C177.169 150.489 177.232 150.584 177.303 150.72C177.519 151.132 177.739 151.776 177.934 152.632C178.322 154.332 178.578 156.717 178.578 159.378Z" stroke="#5C5E60" stroke-width="1.5"/>
<path d="M89.9332 174.081L84.5187 153.498L100.186 143.149C109.544 134.572 114.79 129.764 124.148 121.187L162.624 119.807L183.706 136.825L181.056 157.868L179.789 158.558V149.476L175.474 148.53L171.38 154.207V163.272L156.98 172.241L156.032 161.061L152.026 160.006L147.533 164.372V174.426L143.76 177.143L94.9703 176.197L89.9332 174.081Z" fill="url(#paint18_linear)"/>
<path d="M92.5787 157.517L94.9472 175.965L89.7366 174.073L84.9998 155.152L92.5787 157.517Z" fill="#9F9F9F"/>
<path d="M140.895 157.518L143.263 177.385L147.526 174.547V164.14L152.263 159.883L156.052 161.302L157 172.181L171.21 163.194V154.207L175.473 148.53L179.737 149.476V158.464L180.684 157.991L184 136.705L180.684 134.812L148.947 154.207L140.895 157.518Z" fill="url(#paint19_linear)"/>
<path d="M124.724 122.452L105.254 142.23H152.026L158.247 121.762L124.724 122.452Z" fill="#E1E1E1"/>
<path d="M160.435 123.371L154.215 141.769L163.085 138.435L172.071 134.295L173.223 132.57L165.159 126.361L160.435 123.371Z" fill="#C3C3C3"/>
<path d="M192.513 162.582L199.31 147.174H196.493L189.005 162.582H192.513Z" fill="white"/>
<path d="M111.821 320.576L91.7763 361.742L103.527 361.052L121.268 320.576H111.821Z" fill="white"/>
<path d="M202.509 137.744L206.084 128.315H205.709L201.101 137.744H202.509Z" fill="white"/>
<path d="M129.447 301.833L159.053 234.564H153.754L120.922 301.833H129.447Z" fill="white"/>
<path d="M163.482 228.816L179.06 195.584H172.877L156.634 228.816H163.482Z" fill="white"/>
<path d="M329.895 179.371C329.895 182.475 318.951 185.12 305.472 185.12C291.994 185.12 281.05 182.59 281.05 179.371C281.05 176.266 291.994 173.621 305.472 173.621C318.951 173.736 329.895 176.266 329.895 179.371Z" fill="#4F5153"/>
<path d="M-116.39 70.4766L8.14117 232.176L-185.74 351.816L-182.63 313.525L5.03079 229.532L-121.92 74.5012L-116.39 70.4766Z" fill="#A5A7A9"/>
<path d="M557.991 70.4766L433.46 232.176L627.341 367.899L624.231 329.608L436.57 229.532L563.52 74.5012L557.991 70.4766Z" fill="#A5A7A9"/>
<path d="M-105.792 40.8099L-79.1805 73.1216C-79.1805 73.1216 263.885 -13.6946 527.117 77.1462L558.106 40.8099C558.106 40.8099 287.501 -50.6058 -105.792 40.8099Z" fill="#2D2D2D"/>
<path d="M559.028 74.5009L582.068 98.1885V-76.1338H-178.828V138.664L-116.39 74.5009L8.71718 231.92C8.71718 231.92 -85.862 298.153 -178.828 316.206V590.798H581.952V307.812C504.077 290.104 433.805 231.805 433.805 231.805L559.028 74.5009ZM411.917 209.037L383.463 221.111L53.9908 219.041L19.8916 188.109L-92.198 46.2137C-92.198 46.2137 218.036 -36.5778 540.711 46.2137L411.917 209.037Z" fill="#333333"/>
<path d="M4.80029 263.312L53.9907 219.157C53.9907 219.157 139.699 199.034 390.72 220.997L440.256 263.542C440.256 263.542 14.1315 275.616 4.80029 263.312Z" fill="url(#paint20_linear)"/>
<path d="M39.3603 315.517L-127.334 550.898L526.08 546.068L409.268 315.517H39.3603Z" fill="#404040"/>
<path d="M96.8652 333.241L104.444 317.159L116.286 316.686L113.918 336.553L96.8652 333.241Z" fill="url(#paint21_linear)"/>
<path d="M122.444 338.813L130.855 317.631H141.392L139.081 343.174L122.444 338.813Z" fill="url(#paint22_linear)"/>
<path d="M5.60669 284.815L39.2451 315.517C39.2451 315.517 296.026 334.375 409.152 315.517L438.644 284.815C438.759 284.815 11.5971 276.996 5.60669 284.815Z" fill="#606164"/>
<path d="M4.80029 263.311L5.60669 284.814C5.60669 284.814 304.896 316.896 438.759 284.814L440.256 263.541C440.256 263.541 199.143 231.23 4.80029 263.311Z" fill="url(#paint23_linear)"/>
<path d="M135.898 469.495L197.875 322.186L249.485 323.105L314.343 477.544L135.898 469.495Z" fill="url(#paint24_linear)"/>
<path d="M176.333 365.766C176.333 365.766 228.404 352.773 273.332 365.766L255.936 333.455C255.936 333.455 214.695 326.325 185.78 333.455L176.333 365.766Z" fill="#C2C3C5"/>
<path d="M210.778 331.73C210.778 331.73 214.695 330.35 236.583 332.535L242.573 360.822L205.133 361.972L210.778 331.73Z" fill="#A5A7A9"/>
<path d="M184.627 364.041L182.784 366.111H262.963V363.121C262.963 363.006 214.349 354.267 184.627 364.041Z" fill="#88898C"/>
<path d="M40.1668 262.162L32.3332 283.665L8.3716 281.48L8.7172 266.187L40.1668 262.162Z" fill="url(#paint25_linear)"/>
<path d="M403.277 264.922L412.148 285.965L435.994 282.285L434.842 267.107L403.277 264.922Z" fill="url(#paint26_linear)"/>
<path d="M133.018 269.751L135.437 284.24L223.316 288.072L311.421 282.396L313.421 269.291L223.316 264.421L133.018 269.751Z" fill="url(#paint27_linear)"/>
<path d="M142.58 505.069L187.968 399.625L223.45 371.798L261.005 406.754L305.127 513.463L142.58 505.069Z" fill="url(#paint28_linear)"/>
<path d="M93.9999 228.471L92.5789 221.376L70.3157 224.687L58.9473 254.961L65.5789 284.288L88.3157 289.965L91.1578 283.342L73.1578 277.666L67.4736 254.961L69.3683 245.973L75.5262 231.783L93.9999 228.471Z" fill="#757575"/>
<path d="M92.1052 227.052L90.6841 219.957L68.421 223.268L57.0526 253.542L63.6841 282.869L86.421 288.546L89.2631 281.923L71.2631 276.247L65.5789 253.542L67.4736 244.554L73.6315 230.364L92.1052 227.052Z" fill="#4D4D4D"/>
<path d="M125.263 228.944L126.684 221.849L148.947 225.16L160.316 255.433L153.684 284.761L130.947 290.437L128.105 283.815L146.105 278.139L151.789 255.433L149.895 246.446L143.737 232.255L125.263 228.944Z" fill="#6B6B6B"/>
<path d="M123.368 227.052L124.789 219.957L147.053 223.268L158.421 253.542L151.789 282.869L129.053 288.546L126.21 281.923L144.21 276.247L149.895 253.542L148 244.554L141.842 230.364L123.368 227.052Z" fill="#4D4D4D"/>
<path d="M86.4443 248.097L100.655 265.126H108.234L121.971 248.097H86.4443Z" fill="#989A9C"/>
<path d="M222.874 352.083C229.618 352.083 235.085 349.252 235.085 345.759C235.085 342.266 229.618 339.435 222.874 339.435C216.13 339.435 210.663 342.266 210.663 345.759C210.663 349.252 216.13 352.083 222.874 352.083Z" fill="#989A9C"/>
<path d="M230.247 345.298C230.247 347.368 226.906 349.093 222.759 349.093C218.611 349.093 215.271 347.368 215.271 345.298C215.271 343.229 218.611 341.504 222.759 341.504C226.906 341.504 230.247 343.229 230.247 345.298Z" fill="#C2C3C5"/>
<path d="M223.565 337.02L215.386 337.25V345.299H230.247V337.25L223.565 337.02Z" fill="#C2C3C5"/>
<path d="M230.247 337.25C230.247 339.319 226.906 341.044 222.759 341.044C218.611 341.044 215.271 339.319 215.271 337.25C215.271 335.18 218.611 333.455 222.759 333.455C226.906 333.455 230.247 335.18 230.247 337.25Z" fill="#D4D5D7"/>
<path d="M245.453 224.905H199.834H194.535V230.655V311.606V317.356H199.834H245.453H250.752V311.606V230.655V224.905H245.453Z" fill="#717274"/>
<path d="M242.112 229.39H203.175H197.876V235.139V307.582V313.331H203.175H242.228H247.527V307.582V235.139V229.39H242.112Z" fill="#DFDFE1"/>
<path d="M203.405 258.597H202.368V249.628H210.663V250.663H203.405V258.597Z" fill="#A467DE"/>
<path d="M239.463 258.597H240.5V249.628H232.205V250.663H239.463V258.597Z" fill="#A467DE"/>
<path d="M203.405 268.486H202.368V277.455H210.663V276.42H203.405V268.486Z" fill="#A467DE"/>
<path d="M239.463 268.486H240.5V277.455H232.205V276.42H239.463V268.486Z" fill="#A467DE"/>
<path d="M225.602 266.545C225.181 266.545 224.76 268.302 224.76 270.329C224.76 272.356 225.181 274.113 225.602 274.113H228.55V266.545H225.602Z" fill="#B9B9B9"/>
<path d="M229.497 270.329C229.497 272.356 229.023 274.113 228.55 274.113C228.076 274.113 227.602 272.356 227.602 270.329C227.602 268.302 228.076 266.545 228.55 266.545C229.023 266.545 229.497 268.167 229.497 270.329Z" fill="#B9B9B9"/>
<path d="M208.935 267.336C208.589 267.336 208.243 268.831 208.243 270.556C208.243 272.28 208.589 273.775 208.935 273.775H211.354V267.336H208.935Z" fill="#B9B9B9"/>
<path d="M212.045 270.556C212.045 272.28 211.699 273.775 211.354 273.775C211.008 273.775 210.663 272.28 210.663 270.556C210.663 268.831 211.008 267.336 211.354 267.336C211.699 267.336 212.045 268.716 212.045 270.556Z" fill="#B9B9B9"/>
<path d="M211.7 270.555C211.7 271.36 211.584 272.05 211.354 272.05C211.123 272.05 211.008 271.36 211.008 270.555C211.008 269.75 211.123 269.061 211.354 269.061C211.584 269.061 211.7 269.75 211.7 270.555Z" fill="#B9B9B9"/>
<path d="M233.021 262.761C232.68 262.761 232.339 264.162 232.339 266.072C232.339 267.982 232.68 269.383 233.021 269.383H235.181V262.888H233.021V262.761Z" fill="#B9B9B9"/>
<path d="M236.128 266.072C236.128 267.855 235.655 269.383 235.181 269.383C234.707 269.383 234.234 267.982 234.234 266.072C234.234 264.289 234.707 262.761 235.181 262.761C235.655 262.888 236.128 264.289 236.128 266.072Z" fill="#B9B9B9"/>
<path d="M208.82 272.511L207.207 266.301L211.93 263.197L215.616 256.527L230.708 256.067L237.044 261.242L236.237 267.566L235.892 267.796C235.892 267.796 236.468 262.852 234.855 262.852C233.242 262.852 233.357 269.176 233.357 269.176L228.98 271.936C228.98 271.936 229.21 265.956 227.482 266.301C225.754 266.531 226.1 272.626 226.1 272.626L208.82 272.511Z" fill="#B9B9B9"/>
<path d="M215.847 256.987L212.275 263.082L227.482 262.967L229.44 257.102L215.847 256.987Z" fill="#B9B9B9"/>
<path d="M230.131 257.218L228.288 262.737L230.938 261.702C230.938 261.702 232.205 259.633 234.048 259.633L231.514 258.023L230.131 257.218Z" fill="#B9B9B9"/>
<path d="M207.552 266.532L208.013 268.142L211.354 268.027C211.354 268.142 211.239 265.382 207.552 266.532Z" fill="#B9B9B9"/>
<path d="M226.33 266.532L225.869 268.142L222.528 268.027C222.528 268.142 222.643 265.382 226.33 266.532Z" fill="#B9B9B9"/>
<path d="M208.704 269.291L209.28 271.131L210.893 271.361L210.432 269.521L208.704 269.291Z" fill="#B9B9B9"/>
<path d="M225.063 269.291L224.372 271.131L222.759 271.361L223.335 269.521L225.063 269.291Z" fill="#B9B9B9"/>
<path d="M212.275 268.372L213.427 267.222H220.8L221.722 268.027L220.455 270.901H213.543L212.275 268.372Z" fill="#B9B9B9"/>
<path d="M211.497 285.465H205.813V304.386H211.497V285.465Z" fill="white"/>
<path d="M220.971 290.195H215.286V304.386H220.971V290.195Z" fill="white"/>
<path d="M230.444 290.195H224.76V304.386H230.444V290.195Z" fill="white"/>
<path d="M239.918 295.871H234.234V304.385H239.918V295.871Z" fill="white"/>
<path d="M214.119 239.969L216.192 242.153L218.266 239.969L216.192 237.669L214.119 239.969Z" fill="#A467DE" fill-opacity="0.3"/>
<path d="M220.57 239.969L222.643 242.153L224.717 239.969L222.643 237.669L220.57 239.969Z" fill="#A467DE" fill-opacity="0.6"/>
<path d="M226.906 239.969L228.979 242.153L231.053 239.969L228.979 237.669L226.906 239.969Z" fill="#A467DE"/>
<path d="M77.6067 132.11H74.4963V104.857H99.6099V108.192H77.6067V132.11Z" fill="#A467DE"/>
<path d="M186.471 132.11H189.581V104.857H164.467V108.192H186.471V132.11Z" fill="#A467DE"/>
<path d="M77.6067 161.776H74.4963V189.029H99.6099V185.694H77.6067V161.776Z" fill="#A467DE"/>
<path d="M186.471 161.776H189.581V189.029H164.467V185.694H186.471V161.776Z" fill="#A467DE"/>
<path d="M260.314 181.325H257.204V208.577H282.317V205.243H260.314V181.325Z" fill="#B2B2B2"/>
<path d="M348.097 181.325H351.207V208.577H326.208V205.243H348.097V181.325Z" fill="#B2B2B2"/>
<path d="M348.097 173.62H351.207V146.368H326.208V149.703H348.097V173.62Z" fill="#B2B2B2"/>
<path d="M260.314 173.62H257.204V146.368H282.317V149.703H260.314V173.62Z" fill="#B2B2B2"/>
<path d="M-147.724 -14.04C-147.724 -14.04 119.54 -53.1361 167.924 -27.8386L193.268 -7.14073L275.06 -4.84097C275.06 -4.84097 287.732 -31.2883 310.772 -32.4382C333.812 -33.588 502.004 -27.8386 610.292 2.05833L602.228 -100.281L-166.156 -93.382L-147.724 -14.04Z" fill="#5A5B5D"/>
<path d="M282.64 182.831L288.4 188.581L299.92 188.006L306.832 190.306L320.656 185.131L333.904 182.831L326.992 173.632L318.352 169.033L305.68 172.482L287.824 167.883L270.544 175.932L282.64 182.831Z" fill="#454749"/>
<path d="M284.2 183.215L289.332 188.227L299.595 187.726L305.753 189.731L318.069 185.219L329.872 183.215L323.714 175.195L316.016 171.185L304.727 174.192L288.819 170.183L273.424 177.2L284.2 183.215Z" fill="#4F5153"/>
<path d="M-49.5263 490.054L-35.3158 436.129L-4.52632 402.781L27.6842 374.636H92.5789L150.842 385.988L143.737 425.722L128.105 471.133L-49.5263 490.054Z" fill="url(#paint29_linear)"/>
<path d="M497.579 490.054L483.368 436.129L452.342 401.125L422.263 376.41L355.237 372.98L292.474 384.57L298.632 408.694L304.553 425.486L319.947 471.133L497.579 490.054Z" fill="url(#paint30_linear)"/>
<path d="M155.105 424.304L152.263 386.462L150.842 385.516L143.737 425.723L122.895 487.216L121.947 504.718L155.105 424.304Z" fill="url(#paint31_linear)"/>
<path d="M292 424.303L288.211 397.341L292.474 385.042L298.632 408.693L307.632 434L325.158 487.215V504.717L292 424.303Z" fill="url(#paint32_linear)"/>
<path d="M93.0526 156.099L84.5263 153.733V155.152L93.0526 157.518L140.895 157.991L147.526 155.152V153.733L140.895 156.572L93.0526 156.099Z" fill="#E1E1E1"/>
<path d="M143.737 177.384L94.9474 176.438L94.4737 172.181L142.789 172.654L143.737 177.384Z" fill="#67686A"/>
<path d="M67.4737 244.554H148L150.368 254.014L129.053 256.852L119.105 270.57H86.4211L77.8947 255.433L65.1053 254.014L67.4737 244.554Z" fill="#4D4D4D"/>
<path d="M88.3158 246.919H119.579L121.474 263.948L86.4211 263.475L88.3158 246.919Z" fill="#A467DE"/>
</g>
<path d="M511.799 456.421L578 475.262L578 604H-29.9999L-30 462.836L-12.7667 453L31.9979 469.28L83.6979 453.18L112.28 464.343L156.414 456.421L245.733 474.612L328.537 456.421L354.807 471.409L401.253 464.343L459.468 475.262L511.799 456.421Z" fill="#121212"/>
<path d="M511.799 456.421L578 475.262L578 604H-29.9999L-30 462.836L-12.7667 453L31.9979 469.28L83.6979 453.18L112.28 464.343L156.414 456.421L245.733 474.612L328.537 456.421L354.807 471.409L401.253 464.343L459.468 475.262L511.799 456.421Z" fill="white" fill-opacity="0.12"/>
<path d="M36.2012 488.586L-30 508.332V594H578V495.308L560.767 485L516.002 502.063L464.302 485.188L435.72 496.888L391.586 488.586L302.267 507.65L219.463 488.586L193.193 504.293L146.747 496.888L88.5316 508.332L36.2012 488.586Z" fill="#121212"/>
<path d="M36.2012 488.586L-30 508.332V594H578V495.308L560.767 485L516.002 502.063L464.302 485.188L435.72 496.888L391.586 488.586L302.267 507.65L219.463 488.586L193.193 504.293L146.747 496.888L88.5316 508.332L36.2012 488.586Z" fill="white" fill-opacity="0.08"/>
</g>
<defs>
<linearGradient id="paint0_linear" x1="111.316" y1="125.081" x2="111.316" y2="-9.27734" gradientUnits="userSpaceOnUse">
<stop stop-color="#575757"/>
<stop offset="0.99" stop-color="#858585"/>
</linearGradient>
<linearGradient id="paint1_linear" x1="24.9148" y1="21.4402" x2="-29.8179" y2="19.1565" gradientUnits="userSpaceOnUse">
<stop stop-color="#3C3C3C"/>
<stop offset="0.0001" stop-color="#2E2E2E"/>
<stop offset="1" stop-color="#868686"/>
</linearGradient>
<linearGradient id="paint2_linear" x1="49.2195" y1="120.528" x2="49.2195" y2="-61.4932" gradientUnits="userSpaceOnUse">
<stop stop-color="#575757"/>
<stop offset="0.99" stop-color="#858585"/>
</linearGradient>
<linearGradient id="paint3_linear" x1="89.9493" y1="124.774" x2="89.9493" y2="19.8018" gradientUnits="userSpaceOnUse">
<stop stop-color="#575757"/>
<stop offset="0.99" stop-color="#858585"/>
</linearGradient>
<linearGradient id="paint4_linear" x1="72.2151" y1="124.774" x2="72.2151" y2="15.7549" gradientUnits="userSpaceOnUse">
<stop stop-color="#575757"/>
<stop offset="0.99" stop-color="#858585"/>
</linearGradient>
<linearGradient id="paint5_linear" x1="80.1599" y1="124.772" x2="80.1599" y2="21.6523" gradientUnits="userSpaceOnUse">
<stop stop-color="#3A3A3A"/>
<stop offset="0.99" stop-color="#585858"/>
</linearGradient>
<linearGradient id="paint6_linear" x1="172.277" y1="130.389" x2="172.277" y2="85.3369" gradientUnits="userSpaceOnUse">
<stop stop-color="#575757"/>
<stop offset="0.99" stop-color="#858585"/>
</linearGradient>
<linearGradient id="paint7_linear" x1="155.71" y1="130.414" x2="155.71" y2="73.457" gradientUnits="userSpaceOnUse">
<stop stop-color="#575757"/>
<stop offset="0.99" stop-color="#858585"/>
</linearGradient>
<linearGradient id="paint8_linear" x1="133.554" y1="130.564" x2="133.554" y2="70.0283" gradientUnits="userSpaceOnUse">
<stop stop-color="#575757"/>
<stop offset="0.99" stop-color="#858585"/>
</linearGradient>
<linearGradient id="paint9_linear" x1="33.4649" y1="131.703" x2="33.4649" y2="61.8643" gradientUnits="userSpaceOnUse">
<stop stop-color="#575757"/>
<stop offset="0.99" stop-color="#858585"/>
</linearGradient>
<linearGradient id="paint10_linear" x1="335.544" y1="120.333" x2="335.544" y2="-6.51855" gradientUnits="userSpaceOnUse">
<stop stop-color="#575757"/>
<stop offset="0.99" stop-color="#858585"/>
</linearGradient>
<linearGradient id="paint11_linear" x1="417.117" y1="22.4835" x2="468.791" y2="20.3274" gradientUnits="userSpaceOnUse">
<stop stop-color="#3C3C3C"/>
<stop offset="0.0001" stop-color="#2E2E2E"/>
<stop offset="1" stop-color="#868686"/>
</linearGradient>
<linearGradient id="paint12_linear" x1="394.17" y1="116.034" x2="394.17" y2="-55.8164" gradientUnits="userSpaceOnUse">
<stop stop-color="#575757"/>
<stop offset="0.99" stop-color="#858585"/>
</linearGradient>
<linearGradient id="paint13_linear" x1="355.716" y1="120.044" x2="355.716" y2="20.9367" gradientUnits="userSpaceOnUse">
<stop stop-color="#575757"/>
<stop offset="0.99" stop-color="#858585"/>
</linearGradient>
<linearGradient id="paint14_linear" x1="277.989" y1="125.344" x2="277.989" y2="82.8096" gradientUnits="userSpaceOnUse">
<stop stop-color="#575757"/>
<stop offset="0.99" stop-color="#858585"/>
</linearGradient>
<linearGradient id="paint15_linear" x1="293.629" y1="125.368" x2="293.629" y2="71.5938" gradientUnits="userSpaceOnUse">
<stop stop-color="#575757"/>
<stop offset="0.99" stop-color="#858585"/>
</linearGradient>
<linearGradient id="paint16_linear" x1="314.548" y1="125.51" x2="314.548" y2="68.3564" gradientUnits="userSpaceOnUse">
<stop stop-color="#575757"/>
<stop offset="0.99" stop-color="#858585"/>
</linearGradient>
<linearGradient id="paint17_linear" x1="409.044" y1="126.586" x2="409.044" y2="60.6484" gradientUnits="userSpaceOnUse">
<stop stop-color="#575757"/>
<stop offset="0.99" stop-color="#858585"/>
</linearGradient>
<linearGradient id="paint18_linear" x1="108.135" y1="161.892" x2="177.81" y2="141.125" gradientUnits="userSpaceOnUse">
<stop stop-color="#B3B3B3"/>
<stop offset="0.372743" stop-color="#AFAFAF"/>
<stop offset="0.652459" stop-color="#ACACAC"/>
<stop offset="1" stop-color="#848484"/>
</linearGradient>
<linearGradient id="paint19_linear" x1="140.421" y1="160.356" x2="197.737" y2="161.305" gradientUnits="userSpaceOnUse">
<stop stop-color="#9F9F9F"/>
<stop offset="1" stop-color="#6C6A6A"/>
</linearGradient>
<linearGradient id="paint20_linear" x1="222.528" y1="210.734" x2="222.528" y2="268.841" gradientUnits="userSpaceOnUse">
<stop stop-color="#A8A8A8"/>
<stop offset="1" stop-color="#C8C8C8" stop-opacity="0.5"/>
</linearGradient>
<linearGradient id="paint21_linear" x1="109.418" y1="317.159" x2="109.418" y2="336.553" gradientUnits="userSpaceOnUse">
<stop stop-color="#C8C8C8"/>
<stop offset="0.0001" stop-color="#474646"/>
<stop offset="1" stop-color="#646464" stop-opacity="0.5"/>
</linearGradient>
<linearGradient id="paint22_linear" x1="135.707" y1="317.631" x2="135.707" y2="343.174" gradientUnits="userSpaceOnUse">
<stop stop-color="#C8C8C8"/>
<stop offset="0.0001" stop-color="#474646"/>
<stop offset="1" stop-color="#646464" stop-opacity="0.5"/>
</linearGradient>
<linearGradient id="paint23_linear" x1="172.655" y1="189.441" x2="237.861" y2="378.235" gradientUnits="userSpaceOnUse">
<stop stop-color="#D6D6D6"/>
<stop offset="1" stop-color="#A2A2A2"/>
</linearGradient>
<linearGradient id="paint24_linear" x1="225.12" y1="322.186" x2="225.12" y2="477.544" gradientUnits="userSpaceOnUse">
<stop stop-color="#989A9C"/>
<stop offset="1" stop-color="#989A9C" stop-opacity="0"/>
</linearGradient>
<linearGradient id="paint25_linear" x1="20.7004" y1="241.66" x2="55.3828" y2="266.953" gradientUnits="userSpaceOnUse">
<stop stop-color="#868686"/>
<stop offset="1" stop-color="#616161"/>
</linearGradient>
<linearGradient id="paint26_linear" x1="415.963" y1="244.858" x2="450.389" y2="271.256" gradientUnits="userSpaceOnUse">
<stop stop-color="#868686"/>
<stop offset="1" stop-color="#616161"/>
</linearGradient>
<linearGradient id="paint27_linear" x1="202.971" y1="241.947" x2="222.814" y2="316.699" gradientUnits="userSpaceOnUse">
<stop stop-color="#868686"/>
<stop offset="1" stop-color="#616161"/>
</linearGradient>
<linearGradient id="paint28_linear" x1="223.853" y1="371.798" x2="223.853" y2="513.463" gradientUnits="userSpaceOnUse">
<stop stop-color="#989A9C"/>
<stop offset="1" stop-color="#989A9C" stop-opacity="0"/>
</linearGradient>
<linearGradient id="paint29_linear" x1="54.6842" y1="369.432" x2="54.6842" y2="490.054" gradientUnits="userSpaceOnUse">
<stop stop-color="#ABABAB"/>
<stop offset="1" stop-color="white" stop-opacity="0"/>
</linearGradient>
<linearGradient id="paint30_linear" x1="393.368" y1="366.122" x2="393.368" y2="490.054" gradientUnits="userSpaceOnUse">
<stop stop-color="#ABABAB"/>
<stop offset="1" stop-color="white" stop-opacity="0"/>
</linearGradient>
<linearGradient id="paint31_linear" x1="141.842" y1="380.785" x2="141.842" y2="504.718" gradientUnits="userSpaceOnUse">
<stop stop-color="#5B5B5B"/>
<stop offset="1" stop-color="#ACAEB0" stop-opacity="0"/>
</linearGradient>
<linearGradient id="paint32_linear" x1="306.211" y1="380.785" x2="306.211" y2="504.717" gradientUnits="userSpaceOnUse">
<stop stop-color="#6B6B6B"/>
<stop offset="1" stop-color="#ACAEB0" stop-opacity="0"/>
</linearGradient>
<clipPath id="clip0">
<rect width="440" height="532" fill="white"/>
</clipPath>
<clipPath id="clip1">
<rect width="576" height="491" fill="white" transform="translate(-86)"/>
</clipPath>
</defs>
</svg>
