<svg fill="none" xmlns="http://www.w3.org/2000/svg" viewBox="0 0 112 112">
  <g clip-path="url(#clip0)">
    <path d="M95.552 60.456l-15.297-15.64-27.994-.462 6.778 8.87-18.606 8.297 21.024 14.022-11.239 4.982 34.22 15.096 25.689-30.981-.246-4.67-14.329.486z" fill="#E3B9B7"/>
    <path d="M102.325 60.234l2.617 10.237 5.185-5.832-.246-4.67-7.556.265z" fill="#36176E"/>
    <path fill-rule="evenodd" clip-rule="evenodd" d="M84.755 63.01l-16.853 4.516-.586-2.186 16.853-4.515.586 2.185z" fill="#000"/>
    <path d="M77.894 63.216l1.282 5.566 6.57-1.76-1.379-5.456-6.473 1.65zM85.12 82.36l-.85-2.078 11.7 1.433-1.84 2.211-9.01-1.567z" fill="#000"/>
    <path d="M99.597 24.711l-26.822-7.817 3.687-11.423-43.385 19.21-4.85-8.717-10.991 24.361-8.926-4.062 4.615 18.629-7.619 3.005 13.063 18.251-8.684 3.878 24.58 11.812-5.439 2.38 29.337 8.442 26.277-7.04-34.22-15.097 11.238-4.982L40.433 61.52l18.606-8.296-6.777-8.871 27.994.462 19.34-20.103z" fill="#36176E"/>
    <path d="M99.596 24.711l-26.821-7.817L76.46 5.471 33.077 24.68l-4.85-8.717 1.482 13.978 37.608-10.58-7.79 10.344 40.07-4.995z" fill="#7215CC"/>
    <path d="M49.59 89.283l-5.252 3.545 13.824 9.832-29.336-8.442 5.44-2.38L9.684 80.026l8.685-3.877L5.306 57.898l26.923 18.518L26.1 78.73l23.49 10.554z" fill="#180249"/>
    <path d="M52.262 44.35l25.02 4.067 12.424 13.519 12.619-1.705-6.772.222-15.297-15.641-27.994-.462z" fill="#FFEAE1"/>
    <path opacity=".44" d="M45.15 59.42l23.746 15.263-10.218 4.875 28.87 12.34-3.108 3.724-34.22-15.097 11.238-4.98-21.025-14.023 4.718-2.102z" fill="#D38484"/>
    <path fill-rule="evenodd" clip-rule="evenodd" d="M82.487 58.532l-13.851 2.58-.277-1.483 13.852-2.58.276 1.483z" fill="#000"/>
    <path d="M44.623 43.844c-1.287.513-2.575 1.025-3.721 1.752-1.147.726-2.134 1.578-2.902 2.622l-.539-1.072c2.43-.316 4.843.086 7.117.44l1.802.314-1.393 1.211a45.34 45.34 0 00-3.923 3.817c-1.234 1.337-2.31 2.799-3.424 4.27l-1.16-1.197c1.934-1.231 4.04-2.13 6.199-2.835a23.381 23.381 0 016.648-1.152c-2.15.576-4.25 1.348-6.238 2.216-1.988.868-3.864 2-5.67 3.238l-3.408 2.296 2.249-3.495c1.043-1.579 2.176-3.14 3.468-4.575 1.291-1.436 2.713-2.697 4.196-3.89l.409 1.524c-2.267-.482-4.445-.946-6.654-.899l-1.58.046 1.003-1.107c1.013-1.067 2.196-1.971 3.522-2.494 1.288-.513 2.628-.83 4-1.03z" fill="#7215CC"/>
  </g>
  <defs>
    <clipPath id="clip0">
      <path fill="#fff" d="M0 0h112v112H0z"/>
    </clipPath>
  </defs>
</svg>
