<svg fill="none" xmlns="http://www.w3.org/2000/svg" viewBox="0 0 80 80">
  <path fill="#fff" d="M0 0h80v80H0z"/>
  <path d="M60 7v21.602L52.059 36 60 43.91V65H36.176l-7.94-11.424V65H0V7h28.394v11.91L38.083 7H60z" fill="#332EEF"/>
  <path d="M60 28.69L52.059 36 60 43.91v2.267l-7.668 7.457L60 61.092V65H36.114l-7.879-11.424V65H0V24.576h28.235V36.88l9.848-12.303H60v4.115z" fill="#4D87F7"/>
  <path d="M28.235 42.151H0V65h28.235V42.15z" fill="#7BD7FF"/>
  <path d="M60 43.909v21.09H36.176l-7.94-11.423 9.7-11.425h20.3L60 43.91z" fill="#7DD6FD"/>
</svg>
