<svg fill="none" xmlns="http://www.w3.org/2000/svg" viewBox="0 0 500 346">
  <g clip-path="url(#clip0)">
    <path fill="#181E29" d="M0 0h500v346H0z"/>
    <path fill="#fff" fill-opacity=".1" d="M0 0h500v346H0z"/>
    <g style="mix-blend-mode:luminosity" clip-path="url(#clip1)">
      <path fill="#333" d="M0-72h500v585H0z"/>
      <path d="M541.799 134.421L608 153.262V282H0V140.836L17.233 131l44.765 16.28 51.7-16.1 28.582 11.163 44.134-7.922 89.319 18.191 82.804-18.191 26.27 14.988 46.446-7.066 58.215 10.919 52.331-18.841z" fill="#121212"/>
      <path d="M541.799 134.421L608 153.262V282H0V140.836L17.233 131l44.765 16.28 51.7-16.1 28.582 11.163 44.134-7.922 89.319 18.191 82.804-18.191 26.27 14.988 46.446-7.066 58.215 10.919 52.331-18.841z" fill="#fff" fill-opacity=".09"/>
      <path d="M845.484-6.742H-104V468h949.484V-6.742z" fill="#333"/>
      <path d="M845.484 306.588H-104V468h949.484V306.588z" fill="#333"/>
      <g opacity=".4">
        <path d="M308.307 55.611h-10.691v68.258h10.691V55.611zM312.095 131.204H294v3.749h18.095v-3.749z" fill="#4E4E50"/>
        <path d="M704.568 19H-28.999v36.678h733.567V19z" fill="#696969"/>
        <path d="M704.567 51.93H-29v3.749h733.567v-3.75z" fill="#595B5C"/>
        <path d="M74.654 22.913h-2.12L61.31 51.93h2.12l11.224-29.017z" fill="#8B8D8E"/>
        <path d="M311.597 55.611h-17.27v42.764h17.27V55.611z" fill="url(#paint0_linear)"/>
        <path d="M305.413 123.869h-4.727v7.336h4.727v-7.336zM75.865 55.611h-9.869v68.258h9.869V55.611zM80.095 130.25H62v3.749h18.095v-3.749z" fill="#4E4E50"/>
        <path d="M79.977 55.611h-17.27v42.764h17.27V55.611z" fill="url(#paint1_linear)"/>
        <path d="M73.41 122.915h-4.727v7.336h4.727v-7.336z" fill="#4E4E50"/>
        <path d="M209.527 22.75h-2.119l-4.112 29.017h2.119l4.112-29.017zM157.231 22.75h-2.119L151 51.767h2.119l4.112-29.017zM114.231 22.75h-2.119L105 51.767h2.119l7.112-29.017zM37.231 22.75h-2.12L23 51.767h2.12L37.23 22.75zM252.853 22.749h-2.119v29.017h2.119V22.749zM296.015 22.749h-2.119l4.111 29.017h2.12l-4.112-29.017zM339.34 22.749h-2.119l8.224 29.017h2.119l-8.224-29.017zM386.614 22.749h-2.119l8.224 29.017h2.119l-8.224-29.017zM434.052 22.749h-2.119l8.223 29.017h2.12l-8.224-29.017z" fill="#8B8D8E"/>
        <path d="M704.568 19H-28.999v3.75h733.567V19z" fill="#595B5C"/>
        <path d="M473.525 12.732l-31-6.589-31.335 7.243 31.001 6.589 31.334-7.243z" fill="#626466"/>
        <path d="M441.974 19.946l-30.912-6.995v31.15l30.912 6.995v-31.15z" fill="#9EA0A2"/>
        <path d="M430.258 38.216l-15.487-3.504v2.738l15.487 3.504v-2.738zM436.469 32.484l4.234.958c.318.072.53-.097.53-.423v-1.194a.666.666 0 00-.53-.662l-4.234-.959c-.318-.071-.529.098-.529.424v1.193c-.106.302.211.59.529.663z" fill="#757779"/>
        <path d="M411.062 12.95l-1.164-6.232 32.922 7.45-.846 5.777-30.912-6.994zM441.922 6.353L440.758.12l32.922 7.45-.847 5.778-30.911-6.995z" fill="#8A8C8E"/>
        <path d="M441.726 19.946l30.911-6.995v31.15l-30.911 6.995v-31.15z" fill="#8A8C8E"/>
        <path d="M453.764 36.404l-4.234.958c-.318.072-.53-.097-.53-.423v-1.194c0-.325.212-.59.53-.662l4.234-.959c.317-.071.529.098.529.423v1.194c.106.302-.212.59-.529.663z" fill="#757779"/>
        <path d="M472.637 12.95l2.259 2.529-31.279 6.902-1.891-2.436 30.911-6.994z" fill="#808284"/>
        <path d="M439.911 3.917l2.26 2.527-31.28 6.902L409 10.911l30.911-6.994z" fill="#8A8C8E"/>
        <path d="M213.058 10.375l-30.425-6.467-30.216 6.717 29.888 6.858 30.753-7.108z" fill="#A8AAAC"/>
        <path d="M182.628 17.454l-30.337-6.864V41.16l30.337 6.865V17.454z" fill="#9EA0A2"/>
        <path d="M169.338 14.127V29.71l2.621 1.02V15.145l-2.621-1.02zM177.226 29.76l4.156.94c.311.07.519-.096.519-.415v-1.172c0-.32-.208-.58-.519-.65l-4.156-.94c-.312-.071-.52.095-.52.415v1.171c-.103.296.208.58.52.65z" fill="#757779"/>
        <path d="M182.385 17.454l30.338-6.864V41.16l-30.338 6.865V17.454z" fill="#8A8C8E"/>
        <path d="M193.884 35.386l15.199-3.44v2.687l-15.199 3.44v-2.687z" fill="#757779"/>
        <path d="M416.018 142.127h-76.623l3.694-74.26 75.128-4.086-2.199 78.346z" fill="url(#paint2_linear)"/>
        <path d="M427.203 142.127h-11.238l1.651-78.346 11.105.681-1.518 77.665z" fill="url(#paint3_linear)"/>
        <path d="M330.147-12.095l32.622 66.393h22.621L370.406 6.93l-27.612-23.91-12.647 4.886z" fill="url(#paint4_linear)"/>
        <path d="M334.16-12.095l32.622 66.393h22.621c-5.852-18.498-10.835-31.254-16.687-49.752l-25.909-21.527-12.647 4.886z" fill="url(#paint5_linear)"/>
        <path d="M389.458 78.687l5.501-12.75-5.501-12.75-12.75-5.502-12.751 5.501-5.5 12.75 5.5 12.751 12.751 5.5 12.75-5.5zM355.7-.21l5.5-12.75-5.5-12.751-12.751-5.5-12.75 5.5-5.501 12.75 5.501 12.75 12.75 5.501L355.7-.21z" fill="#4A4A4A"/>
      </g>
      <path d="M525.799 125.421L592 144.262V463H-16V131.836L1.233 122l44.765 16.28 51.7-16.1 28.582 11.163 44.134-7.922 89.319 18.191 82.804-18.191 26.27 14.988 46.446-7.066 58.215 10.919 52.331-18.841z" fill="#121212"/>
      <path d="M525.799 125.421L592 144.262V463H-16V131.836L1.233 122l44.765 16.28 51.7-16.1 28.582 11.163 44.134-7.922 89.319 18.191 82.804-18.191 26.27 14.988 46.446-7.066 58.215 10.919 52.331-18.841z" fill="#fff" fill-opacity=".16"/>
      <path d="M222.785 315.784h-13.838v88.349h13.838v-88.349zM410.127 315.784h-12.773v88.349h12.773v-88.349z" fill="#4E4E50"/>
      <path d="M845.485 268.397H-104v47.475h949.485v-47.475z" fill="#737373"/>
      <path d="M845.484 311.019H-104v4.852h949.484v-4.852z" fill="#595B5C"/>
      <path d="M26.28 273.462h-2.743l-10.644 37.557h2.742l10.645-37.557z" fill="#8B8D8E"/>
      <path d="M227.042 315.784h-22.353v55.351h22.353v-55.351z" fill="url(#paint6_linear)"/>
      <path d="M415.449 315.784h-22.353v55.351h22.353v-55.351z" fill="url(#paint7_linear)"/>
      <path d="M39.7 315.784H26.927v88.349H39.7v-88.349z" fill="#4E4E50"/>
      <path d="M45.022 315.784H22.67v55.351h22.353v-55.351z" fill="url(#paint8_linear)"/>
      <path d="M204.735 273.25h-2.743l-5.322 37.557h2.743l5.322-37.557zM260.813 273.25h-2.743v37.557h2.743V273.25zM316.68 273.25h-2.743l5.322 37.557h2.743l-5.322-37.557zM372.758 273.25h-2.743l10.644 37.557h2.743l-10.644-37.557zM433.947 273.25h-2.743l10.644 37.557h2.743l-10.644-37.557zM495.347 273.25h-2.743l10.644 37.557h2.743l-10.644-37.557z" fill="#8B8D8E"/>
      <path d="M845.485 268.397H-104v4.853h949.485v-4.853z" fill="#595B5C"/>
      <path d="M437.636 225.344l-60.264-12.81-60.916 14.08 60.265 12.81 60.915-14.08z" fill="#626466"/>
      <path d="M376.299 239.365l-60.091-13.597v60.556l60.091 13.597v-60.556z" fill="#9EA0A2"/>
      <path d="M353.524 274.884l-30.107-6.813v5.323l30.107 6.812v-5.322zM365.598 263.74l8.232 1.863c.617.14 1.029-.189 1.029-.822v-2.321c0-.633-.412-1.148-1.029-1.288l-8.232-1.863c-.617-.139-1.029.19-1.029.823v2.32c-.206.587.412 1.149 1.029 1.288z" fill="#757779"/>
      <path d="M316.207 225.768l-2.264-12.117 64.002 14.483-1.646 11.232-60.092-13.598zM376.2 212.941l-2.264-12.117 64.002 14.482-1.646 11.233-60.092-13.598z" fill="#8A8C8E"/>
      <path d="M375.817 239.366l60.092-13.597v60.556l-60.092 13.597v-60.556z" fill="#8A8C8E"/>
      <path d="M403.26 276.674l-8.231 1.863c-.618.139-1.029-.19-1.029-.823v-2.321c0-.633.411-1.148 1.029-1.287l8.231-1.863c.618-.14 1.029.189 1.029.822v2.321c.206.586-.411 1.148-1.029 1.288z" fill="#757779"/>
      <path d="M435.909 225.768l4.393 4.914-60.809 13.418-3.676-4.734 60.092-13.598z" fill="#808284"/>
      <path d="M372.29 208.205l4.393 4.914-60.809 13.418-3.676-4.735 60.092-13.597z" fill="#8A8C8E"/>
      <path d="M207.882 144.409l-7.451 1.597v53.483l6.569-4.258.882-50.822z" fill="#6C6C6E"/>
      <path d="M295 164.163l-60.265-12.809-60.915 14.079 60.265 12.81L295 164.163z" fill="#626466"/>
      <path d="M233.663 178.185l-60.092-13.597v60.556l60.092 13.597v-60.556z" fill="#9EA0A2"/>
      <path d="M210.888 213.704l-30.108-6.812v5.322l30.108 6.813v-5.323zM222.962 202.561l8.232 1.862c.617.14 1.029-.189 1.029-.822v-2.321c0-.633-.412-1.148-1.029-1.288l-8.232-1.862c-.617-.14-1.029.189-1.029.822v2.321c-.206.586.412 1.148 1.029 1.288z" fill="#757779"/>
      <path d="M173.624 164.08l-7.255 9.965 64.007 14.456 3.346-10.848-60.098-13.573zM233.564 151.762l-2.264-12.117 64.002 14.482-1.647 11.232-60.091-13.597z" fill="#8A8C8E"/>
      <path d="M233.18 178.185l60.092-13.597v60.556l-60.092 13.597v-60.556z" fill="#8A8C8E"/>
      <path d="M255.956 213.704l30.107-6.812v5.322l-30.107 6.813v-5.323z" fill="#757779"/>
      <path d="M293.272 164.588l4.393 4.914-60.809 13.417-3.675-4.734 60.091-13.597z" fill="#808284"/>
      <path d="M229.653 147.024l4.393 4.914-60.809 13.418-3.676-4.734 60.092-13.598z" fill="#8A8C8E"/>
      <path d="M590.917 225.343l-60.265-12.809-59.852 13.305 59.202 13.584 60.915-14.08z" fill="#A8AAAC"/>
      <path d="M530.644 239.365l-60.092-13.597v60.556l60.092 13.597v-60.556z" fill="#9EA0A2"/>
      <path d="M234.36 140.137l-.001-50.053h16.458v50.054l-16.457-.001z" fill="#969696"/>
      <path d="M196.077 369.5h-112.5L89 260.471l110.305-6-3.228 115.029z" fill="url(#paint9_linear)"/>
      <path d="M212.5 369.5H196l2.423-115.029 16.305 1L212.5 369.5z" fill="url(#paint10_linear)"/>
      <path d="M70 143.067l47.896 97.481h33.212c-8.591-27.16-18.016-40.888-26.608-68.048l-35.932-36.606L70 143.067z" fill="url(#paint11_linear)"/>
      <path d="M75.892 143.067l47.896 97.481H157L123.788 171.5l-29.329-35.606-18.567 7.173z" fill="url(#paint12_linear)"/>
      <path d="M186.638 88.496L111.5 117.5l6.334 15.163 74.638-29.004-5.834-15.163z" fill="#969696"/>
      <path d="M201.863 74.082l-9.697 3.588 10.763 29.09 9.697-3.587-10.763-29.09z" fill="url(#paint13_linear)"/>
      <path d="M228.048 71.232l-24.025 9.244 5.834 15.163 24.025-9.244-5.834-15.163z" fill="#969696"/>
      <path d="M186.047 88.84l6.119-11.184 10.761 29.118-11.183-3.165-5.697-14.77z" fill="url(#paint14_linear)"/>
      <path d="M121.328 141.219L103.5 149l-12.175-29.415 17.838-7.571 12.165 29.205z" fill="url(#paint15_linear)"/>
      <path d="M226.558 85.252V73.858l6.436-12.822 9.435-.049 9.435.049 6.436 12.822v11.394l-6.436 12.822-9.435.049-9.435-.049-6.436-12.822z" fill="#4A4A4A"/>
      <path d="M272.813 151.86l-7.451 3.726L266.5 231l6.313-1v-78.14z" fill="#6C6C6E"/>
      <path d="M272.84 151.86l-61.737-8.515L200.431 146l64.958 9.586 7.451-3.726z" fill="#A2A2A2"/>
      <path d="M99 303h91l-2 57H97l2-57z" fill="url(#paint16_linear)"/>
      <path d="M157.517 275.517l8.076-18.72-8.076-18.721-18.72-8.076-18.721 8.076L112 256.797l8.076 18.72 18.721 8.076 18.72-8.076zM107.517 160.517l8.076-18.72-8.076-18.721L88.797 115l-18.72 8.076L62 141.797l8.076 18.72 18.72 8.076 18.721-8.076z" fill="#4A4A4A"/>
    </g>
    <path d="M164.504 256.797l-7.748 17.959-17.959 7.748-17.96-7.748-7.748-17.959 7.748-17.96 17.96-7.748 17.959 7.748 7.748 17.96zM114.504 141.797l-7.748 17.959-17.96 7.748-17.96-7.748-7.747-17.959 7.748-17.96 17.96-7.748 17.959 7.748 7.748 17.96z" stroke="#679BFF" stroke-width="2"/>
    <path d="M223.028 147v-9l34.586 3v11.486L223.028 147z" fill="#679BFF"/>
    <path fill="#8B8D8E" d="M104 344h27v4h-27zM105 315h43v4h-43z"/>
    <path fill="#679BFF" d="M104 329h71v4h-71z"/>
    <path d="M61.277 120.945c-.042-7.042 11.02-11.608 16.442-7.366M53.183 117.736c.005-12.151 18.511-20.144 27.512-12.882M44.93 110.911c-.087-16.005 24.995-26.392 37.28-16.758" stroke="#679BFF" stroke-width="2"/>
  </g>
  <defs>
    <linearGradient id="paint0_linear" x1="302.962" y1="55.611" x2="302.962" y2="98.375" gradientUnits="userSpaceOnUse">
      <stop stop-color="#434343"/>
      <stop offset="1" stop-color="#464747"/>
    </linearGradient>
    <linearGradient id="paint1_linear" x1="71.342" y1="55.611" x2="71.342" y2="98.375" gradientUnits="userSpaceOnUse">
      <stop stop-color="#434343"/>
      <stop offset="1" stop-color="#464747"/>
    </linearGradient>
    <linearGradient id="paint2_linear" x1="305.34" y1="46.773" x2="417.381" y2="141.786" gradientUnits="userSpaceOnUse">
      <stop stop-color="#A5A5A5"/>
      <stop offset="1" stop-color="#4C4C4C"/>
    </linearGradient>
    <linearGradient id="paint3_linear" x1="316.525" y1="46.773" x2="428.566" y2="141.786" gradientUnits="userSpaceOnUse">
      <stop stop-color="#6F6F6F"/>
      <stop offset="1" stop-color="#363636"/>
    </linearGradient>
    <linearGradient id="paint4_linear" x1="337.506" y1="-12.792" x2="371.769" y2="58.358" gradientUnits="userSpaceOnUse">
      <stop stop-color="#929292"/>
      <stop offset="1" stop-color="#444"/>
    </linearGradient>
    <linearGradient id="paint5_linear" x1="341.419" y1="-12.049" x2="386.006" y2="65.525" gradientUnits="userSpaceOnUse">
      <stop stop-color="#C4C4C4"/>
      <stop offset="1" stop-color="#464646"/>
    </linearGradient>
    <linearGradient id="paint6_linear" x1="215.866" y1="315.784" x2="215.866" y2="371.135" gradientUnits="userSpaceOnUse">
      <stop stop-color="#434343"/>
      <stop offset="1" stop-color="#464747"/>
    </linearGradient>
    <linearGradient id="paint7_linear" x1="404.272" y1="315.784" x2="404.272" y2="371.135" gradientUnits="userSpaceOnUse">
      <stop stop-color="#434343"/>
      <stop offset="1" stop-color="#464747"/>
    </linearGradient>
    <linearGradient id="paint8_linear" x1="33.846" y1="315.784" x2="33.846" y2="371.135" gradientUnits="userSpaceOnUse">
      <stop stop-color="#434343"/>
      <stop offset="1" stop-color="#464747"/>
    </linearGradient>
    <linearGradient id="paint9_linear" x1="33.577" y1="229.5" x2="198.077" y2="369" gradientUnits="userSpaceOnUse">
      <stop stop-color="#A5A5A5"/>
      <stop offset="1" stop-color="#4C4C4C"/>
    </linearGradient>
    <linearGradient id="paint10_linear" x1="50" y1="229.5" x2="214.5" y2="368.999" gradientUnits="userSpaceOnUse">
      <stop stop-color="#6F6F6F"/>
      <stop offset="1" stop-color="#363636"/>
    </linearGradient>
    <linearGradient id="paint11_linear" x1="80.804" y1="142.045" x2="131.11" y2="246.509" gradientUnits="userSpaceOnUse">
      <stop stop-color="#929292"/>
      <stop offset="1" stop-color="#444"/>
    </linearGradient>
    <linearGradient id="paint12_linear" x1="86.55" y1="143.136" x2="152.013" y2="257.032" gradientUnits="userSpaceOnUse">
      <stop stop-color="#C4C4C4"/>
      <stop offset="1" stop-color="#464646"/>
    </linearGradient>
    <linearGradient id="paint13_linear" x1="197.014" y1="75.876" x2="207.777" y2="104.967" gradientUnits="userSpaceOnUse">
      <stop stop-color="#B4B4B4"/>
      <stop offset="1" stop-color="#747474"/>
    </linearGradient>
    <linearGradient id="paint14_linear" x1="194.487" y1="77.656" x2="194.487" y2="106.774" gradientUnits="userSpaceOnUse">
      <stop stop-color="#979899"/>
      <stop offset="1" stop-color="#616263"/>
    </linearGradient>
    <linearGradient id="paint15_linear" x1="109.058" y1="112.019" x2="110.675" y2="145.951" gradientUnits="userSpaceOnUse">
      <stop stop-color="#B4B4B4"/>
      <stop offset="1" stop-color="#747474"/>
    </linearGradient>
    <linearGradient id="paint16_linear" x1="-628.01" y1="290.626" x2="-608.831" y2="453.618" gradientUnits="userSpaceOnUse">
      <stop stop-color="#6F6F6F"/>
      <stop offset="1" stop-color="#363636"/>
    </linearGradient>
    <clipPath id="clip0">
      <path fill="#fff" d="M0 0h500v346H0z"/>
    </clipPath>
    <clipPath id="clip1">
      <path fill="#fff" transform="translate(0 -72)" d="M0 0h500v585H0z"/>
    </clipPath>
  </defs>
</svg>
