<svg fill="none" xmlns="http://www.w3.org/2000/svg" viewBox="0 0 425 382">
  <g clip-path="url(#clip0)">
    <path d="M140.4 204.9c-4.6-1.7-11-22 8-30.7 27-4.9 36.6 3.2 54 3.9 3 .1 6.5 1.4 9.3 2.4 2.8 1.1 6.7 4.6 7.4 7.5-19.6-1.8-44.6-2.8-64.2-1.4" fill="#1E1E1E"/>
    <path d="M151.5 195.1c-4.6-1.7-5.7-12.8-.6-15.5 12.6-4.5 30.9-.6 48.4.1 3 .1 6 .3 8.7 1.4 2.8 1.1 5.3 3.2 6 6.1-19.6-1.8-38.8.9-58.5 1.8" fill="#000"/>
    <path d="M198.9 188.4l-8 4.7-13.1-4.2v-21.5h21.1v21z" fill="#180249"/>
    <path d="M243 120.1l-18.2-32.2-45.5-13.1 7.2 17.5-34 5.4 28.2 32.1-20.5 3.2 49.2 39.6 55.5-39.3 1.6-7.8-23.5-5.4z" fill="#E3B9B7"/>
    <path d="M254.1 122.6l-.2 17.9 11-7.2 1.6-7.8-12.4-2.9z" fill="#36176E"/>
    <path d="M194.7 117.6h29.5" stroke="#000" stroke-width="3.823" stroke-miterlimit="10"/>
    <path d="M213 116.9l-.4 9.6h11.5l.1-9.6H213zM216.3 159.4l-.4-3.8 21.1-2.5-6.6 4.6-14.1 1.7z" fill="#000"/>
    <path d="M265.2 63.5L224.8 39l11-17-79.2 12.3-4.1-16.3-28.6 35-12.8-10.6-.6 32.4-13.7 1.6 13.3 35.5-15.8 2.5 34.9 30-9.9 1.6 44.2 26.6h45.9L160.2 133l20.5-3.2-28.2-32.1 34-5.4-7.2-17.5 45.5 13.1 40.4-24.4z" fill="#36176E"/>
    <path d="M265.2 63.5L224.8 39l11-17-79.2 12.3-4.1-16.3-3.6 23.5 65.9-.9-17.2 13.6 67.6 9.3z" fill="#7215CC"/>
    <path d="M155.3 147l-10.1 3.5 18.3 22.1-44.2-26.6 9.9-1.6-34.9-30 15.8-2.5-13.3-35.5 35.8 42-11 1.1 33.7 27.5z" fill="#180249"/>
    <path d="M179.3 74.8l39.1 17.6 14.4 27.5 21.3 2.7-11.1-2.5-18.2-32.2-45.5-13.1z" fill="#FFEAE1"/>
    <path opacity=".44" d="M161.2 96.3l32 35.3-18.8 3.5 41.7 32.7-6.7 4.8-49.2-39.6 20.5-3.2-28.2-32.1 8.7-1.4z" fill="#D38484"/>
    <path d="M198.8 108.1l23.8 1.8" stroke="#000" stroke-width="2.549" stroke-miterlimit="10"/>
    <path d="M167.1 70.7c-2.3.3-4.7.6-6.8 1.2-2.2.7-4.2 1.6-5.9 3l-.4-2c4.1.5 7.9 2.2 11.4 3.9l2.8 1.3-2.8 1.4c-2.8 1.4-5.5 2.8-8.1 4.5-2.6 1.6-5 3.5-7.5 5.5l-1.4-2.5c3.7-1.1 7.5-1.7 11.3-1.9 3.8-.2 7.7.2 11.3 1-3.8 0-7.5.3-11.2.9-3.7.6-7.2 1.6-10.7 2.8l-6.6 2.3 5.2-4.7c2.4-2.1 4.9-4.1 7.6-5.9 2.7-1.8 5.6-3.2 8.5-4.5v2.7c-3.5-1.8-6.9-3.5-10.5-4.4l-2.6-.6 2.2-1.3c2.1-1.3 4.4-2.3 6.9-2.6 2.6-.5 5-.4 7.3-.1z" fill="#7215CC"/>
    <path d="M212.4 202.3l5.2-3.8h.1l16-1.8 17.8 12.2 8.5 50.8-3.7 26.8-19.6 2.6-15.9-27.1-8.4-59.7z" fill="#36176E"/>
    <path d="M215.6 205.5l14 3.8 25.3 74.1M255.3 219.1l-20 6.8" stroke="#180249" stroke-width="1.384" stroke-miterlimit="10"/>
    <path d="M254.2 283.6l-16.5-25.1-19.9-55.2 2.7-5.7-2.8.9-4.4 4.7 19.9 56.9 21 23.5z" fill="#180249"/>
    <path d="M244.5 256.9l-1.3-52.2-29-18.4-56-1.2-25.7 14 .4 83.7 16.9 39.9 9.1 3.9 64.5.6 21.1-70.3z" fill="#36176E"/>
    <path d="M158.9 326.6l-16-44.2 6.3-15.6.6-66.5-8.6-5.7-8.7 4.5.4 83.7 16.9 39.9" fill="#180249"/>
    <path d="M142.2 233.2l27.8 11.1h70.2M158.2 185.1l14.6 19.6h23.6M203.7 241.6l-6.3-37M209.1 186.3l13.7 18.4h-26.4M201.8 266.5l-6.2 60.7" stroke="#180249" stroke-width="1.384" stroke-miterlimit="10"/>
    <path d="M222.7 256.4l-20.9 10.1-20-10.1v-27.2l20.4-10.2 20.5 10.2v27.2z" stroke="#7215CC" stroke-width="1.384" stroke-miterlimit="10"/>
    <path d="M212.1 249.3l-10.1 4.9-9.6-4.9v-13.1l9.8-4.8 9.9 4.8v13.1z" fill="#7215CC"/>
    <path d="M146 295.1h22.3l18-18.9h26.9l14.2 23.2M178.9 326.9l-8.2-14.3h-18.5M214.6 326.7l5.6-15.2h3.5" stroke="#180249" stroke-width="1.384" stroke-miterlimit="10"/>
    <path d="M218.7 327.2l19.5-69.9-1.2-51.8-22.8-19.2 29 18.4 1.3 52.2-21.1 70.3" fill="#7215CC"/>
    <path d="M134.7 203.6l-13.4 9.2-1.5 71.2" stroke="#180249" stroke-width="1.38" stroke-miterlimit="10"/>
    <path d="M198.2 326.7h-21.4v11.7h21.4v-11.7z" fill="#180249"/>
    <path d="M198.2 326.7h-5.3v11.7h5.3v-11.7z" fill="#36176E"/>
    <path d="M123.8 223.9h-5l-2.6 6.4 2.6 6.4h5l2.5-6.4-2.5-6.4z" fill="#7215CC"/>
    <path d="M233.1 193.6l15.7 10.9v52.9l-12.6 27.1 8.3-27.6-1.3-52.2-15.1-9.5 5-1.6zM139.7 194.9c4.2-.3 14.8-11.7 22-12.2 7.2-.5 9.5 6.9 14.1 13.6 4.3 6.3 5.7 28.6 6.7 46.5s5.7 42.3 4.9 55.6c-.8 13.3-5.4 27.3-3.2 35.4 2.2 8.2 5.1 11.1 0 15.5-17.9 15.9-42.2 13.7-41.2-.6.8-11.4-2.1-53.7-2.1-53.7l-1.2-100.1z" fill="#180249"/>
    <path d="M229.5 327.3c0-10.3 1.7-17.1 4-26.8 2.9-12 6.8-34 6.8-34s3.7-37.4 2.2-55.9c-.2-3 1.9-5.6-1.7-7.2-3.5-1.5-7.6-4.1-9.5-5.5-1.9-1.4-15.1-9.3-16.2-10.2-1.1-.9-1.3-2.7-4.9-2.5-3.6.2-7.6.8-7.6.8.5 5.6 4.7 15.5 9.1 25.8 4.3 10.3 7.7 35.5 5.9 51.8-1.7 14.7-7.4 44.9-7.1 63.5" fill="#180249"/>
    <path d="M190.7 406.3l7.4-37.8 9.8-31.3h12l8.7 3.6 8.2 26.4 4.3 38.3-10.4 72-18-1.4-13.5-8.4-8.5-61.4z" fill="#36176E"/>
    <path d="M214.3 340.8l-8.9 29.4-7.6 36.4 7.5 64.9-6.1-3.8-8.5-61.4 7.4-37.8 9.8-31.4 6.4 3.7z" fill="#180249"/>
    <path d="M227.5 477.3l9.3-72.9-5-37.2-7.8-26.8 4.6.4 8.2 26.4 4.3 38.3-10.4 72-3.2-.2z" fill="#7215CC"/>
    <path d="M204.8 370.2H217l-2.5 104.2" stroke="#180249" stroke-width="1.384" stroke-miterlimit="10"/>
    <path d="M217.4 340.8l-11.1-3.7H165l8.7 3.7h43.7zM173.7 340.8h39.9l6.8 4.8v15.1l-11.4 6.9-27.1-.4-8.2-26.4z" fill="#36176E"/>
    <path d="M176.1 340.8l8.5 26.4h-2.7l-8.2-26.4h2.4z" fill="#180249"/>
    <path d="M159.5 340.8l-6.5-3.7 66.9.1 8.7 3.6h-69.1z" fill="#010F33"/>
    <path d="M177.7 350.1h44.6" stroke="#180249" stroke-width="1.384" stroke-miterlimit="10"/>
    <path d="M208.6 346H191v8h17.6v-8z" fill="#7215CC"/>
    <path d="M204.4 370.9l4.7-.1 13.8-8.6.1-17.5-3.4-3.9h-6l6.8 4.8v15.1l-11.4 6.9h-4.4l-.2 3.3z" fill="#180249"/>
    <path d="M135.8 406.3l7.5-37.8 9.8-31.3H165l8.8 3.6 8.1 26.4 4.3 38.3-10 70.1-18.7-1.3-13.1-6.6-8.6-61.4z" fill="#36176E"/>
    <path d="M159.5 340.8l-9 29.4-7.6 36.4 7.4 64.3-5.9-3.2-8.6-61.4 7.5-37.8 9.7-31.4 6.5 3.7z" fill="#180249"/>
    <path d="M173 475.4l8.9-71-5-37.2-7.8-26.8 4.7.4 8.1 26.4 4.3 38.3-10 70.1-3.2-.2z" fill="#7215CC"/>
    <path d="M150.5 370.2h12.2l-3.2 104.2M152.1 360.5h13l6.2-11.2" stroke="#180249" stroke-width="1.384" stroke-miterlimit="10"/>
    <path d="M239.4 365.6l-10.7-24.8h-76.5l-2 5.4-6.9 22.2-7.4 37.8 3.3 23.7 5.2 37.7 3.1 1.6-2.7 10.8-2.9.7-8 10.3c-1.1 4.1.7 37.8.1 41.1-.7 3.3-4 7.7-1.1 10 3 2.2 3.2 8.7 3.2 8.7l28.4-9.8 11.7-65.5 6.5-45.6 3.5-24.5 5-23.4-.5 24.2L194 430l5.2 37.7s2 5.6 1.1 9.1c-.9 3.5-3.7 4.8-3.7 4.8l-8 9.5s1.8 45.1 0 50c-1.8 4.8 2.2 9.8 2.2 9.8l6.5-2.2 22-7.5 11.4-63.6 10.4-72-1.7-40zm-69.2 96.3l-4.9 34.1-6.7 5.8v-13.9l4.1-6.4v-20.6l7.5-5.5v6.5zm55.9-20.6l-7 9.1-3.2-27.7 4.5-10.5 8.2 6.5-2.5 22.6z" fill="#001960"/>
    <path d="M194.5 493.7l.4 47.4 2.5 7.5-6.5 2.2s-3.9-4.9-2.2-9.8c1.8-4.8 0-50 0-50l8-9.5s2.8-1.4 3.7-4.8c.9-3.5-1.1-9.1-1.1-9.1l-8.6-61.4.5-24.2 5.2 4.3v20.1l8.9 65s.5 7.2-2.4 12.1c-2.9 4.9-8.4 10.2-8.4 10.2zM139.5 493.7l.4 47.4 2.5 7.5-6.5 2.2s0-3.3-.8-4.9c-1.2-2.4-3.2-3-3.5-5.3-.4-2.4 2.4-9.4 2.4-9.4l-.3-40.1 8.1-10.3 2.9-.7 2.7-10.8-3.1-1.7-8.7-61.4.5-24.2 5.2 4.3v20.1l12 62.7s-2.6 9.5-5.5 14.4c-2.8 4.9-8.3 10.2-8.3 10.2zM217.4 354.9c.8 2.5 1.7 4.9 2.8 7 1.1 2.2 2.4 4.2 4.1 5.8.8.8 1.7 1.5 2.7 2.1 1 .6 2.1 1.1 3.2 1.5 2.3.8 4.7 1.2 7.4 1.5-2.5.9-5.2 1.2-8 .8-1.4-.3-2.7-.7-4-1.3-1.3-.7-2.4-1.5-3.4-2.5-2-2-3.4-4.5-4.2-7.1-.7-2.4-1-5.1-.6-7.8zM211.9 340c1.9 10.6 6.7 14.1 13.2 14 2 0 3.5-.2 4.7-.4 2.2-.4 3.5-2.6 3-4.7-.3-1.3-2.4-5.5-2.7-8.3" fill="#010F33"/>
    <path d="M205.3 355.1v66c0 4.9-4 8.9-8.9 8.9H194l-3.3-23.7.5-24.2-5 23.4-3.5 24.5h-43.6l-3.3-23.7 7.4-37.8 6.9-22.2h46.8c4.8.2 8.4 4.1 8.4 8.8z" fill="#010F33"/>
    <path d="M239.4 365.6l-10.7-24.8h-4.9l10.7 24.8 1.7 39.9-10.4 72-11.4 63.6-22 7.5-2.5.8c.5.9.9 1.4.9 1.4l6.5-2.2 22-7.5 11.4-63.6 10.4-72-1.7-39.9zm-53.1 16.5l-5 23.4-3.5 24.5-6.5 45.6-11.7 65.5-23.6 8.1c.1 1 .2 1.6.2 1.6l28.4-9.8 11.7-65.5 6.5-45.6 3.2-22.4-.2-1.3.5-24.1z" fill="#023DA5"/>
    <path d="M239.4 365.6s-2.4 15.9-9.1 27.6c0 0 8.4-13 9.6-15.9l-.5-11.7z" fill="#010F33"/>
    <path d="M184.6 298.3c-.8 13.3-5.4 27.3-3.2 35.4 2.2 8.2 5.1 11.1 0 15.5-17.9 15.9-42.2 13.7-41.2-.6.8-11.3-2.1-53.7-2.1-53.7L137 194.7c4.2-.3 14.8-11.7 22-12.2 7.2-.5 9.5 6.9 14.1 13.6 4.3 6.3 5.7 28.6 6.7 46.5.3 5.2.9 10.9 1.6 16.7.7 6 1.5 12.1 2.1 17.9.8 8.2 1.4 15.6 1.1 21.1z" fill="#1E1E1E"/>
    <path d="M150 224.2c-.5 7.4-1.1 14.9-1.6 22.3-.4 5.4-.8 10.7-1.4 16.1-1.4 12.8-3.7 25.5-7 37.9-.7-.3-1.3-.8-1.8-1.3.2-9.8 5.7-37.3 5.7-37.3s4.3-34.7 2.5-57.4c-.3-3.9-2.1-6.5-4.7-8v-.3c4.4 2.7 7 7.6 8 12.7 1.1 5 .7 10.2.3 15.3zM145.4 331c2.9 8.4.3 12.6 2.1 21.3.2 1.1.3 2.6-.7 3.1-.3.1-.6.2-.9.1-.6-5.5-1.5-12.8-2.4-18.7 0-1.4 0-2.8-.1-4.2-.2-2-.7-4-1.2-5.9 0-.2 0-.5-.1-.6-.5-3.9 1.7-9.1.8-11.2-.6-1.2-2.1-3.4-3.4-5.2.8-.6 2.4 1.7 3.7 2.7 1.4 1.1 2.2 7.1 2.1 8.8-.1 1.7-.7 7.6.1 9.8z" fill="#000"/>
    <path d="M140 300.5l1.5 11-2-1.8-1.3-10.5 1.8 1.3zM183.4 277.4c-.2 7.7-7.9 22.7-8.4 23.6 3.1-7.4 6.3-41.5 6.3-41.5.7 6 1.5 12.1 2.1 17.9zM141.5 289.1s10.7 22.4 15.1 28c0 0-17.7-18.4-17.5-24 .2-5.6 2.4-4 2.4-4z" fill="#000"/>
    <path d="M202.3 352.1v66c0 4.9-4 8.9-8.9 8.9H84.9c-4.9 0-8.9-4-8.9-8.9v-66c0-4.9 4-8.9 8.9-8.9h109c4.7.3 8.4 4.1 8.4 8.9z" fill="#ADADAD"/>
    <path d="M89.3 427h-4.4c-4.9 0-8.9-4-8.9-8.9v-66c0-4.9 4-8.9 8.9-8.9h4.4c-4.9 0-8.9 4-8.9 8.9v66c0 4.9 4 8.9 8.9 8.9z" fill="#969696"/>
    <path opacity=".39" d="M202.3 352.1v66.4c0 4.7-3.8 8.5-8.5 8.5l-97.7-.7-9.6-15.1 107.5-68c4.6.3 8.3 4.1 8.3 8.9z" fill="url(#paint0_linear)"/>
    <path d="M139.2 393.3c6.186 0 11.2-5.014 11.2-11.2 0-6.186-5.014-11.2-11.2-11.2-6.186 0-11.2 5.014-11.2 11.2 0 6.186 5.014 11.2 11.2 11.2z" fill="#fff"/>
    <path d="M106 233.7c-.4.5-.7 1-.9 1.5-.1-.5-.1-.9-.1-1.4-.1-1.2-.1-2.4 0-3.6v.2l1 3.3z" fill="#000"/>
    <path d="M245.3 210.6c1.5 18.6-2.2 55.9-2.2 55.9s-3.9 22-6.8 34c-1.4 5.7-2.5 10.5-3.2 15.5-.8 5.5-1 11.4-.5 19.3.4 5.8.9 9.2 1.3 11.2.5 2.2-.9 4.3-3 4.7-1.2.2-2.8.4-4.7.4-7.8.1-10.5-1.6-12.4-19.2-1.9-17.5 4.9-52.6 6.7-68.9 1.9-16.3-1.5-41.5-5.9-51.8-4.3-10.3-8.6-20.2-9.1-25.8 0 0 4-.6 7.6-.8 3.6-.2 3.8 1.6 4.9 2.5 1 .9 14.2 8.8 16.2 10.2 2 1.4 6 4 9.5 5.5 3.5 1.6 1.4 4.3 1.6 7.3z" fill="#1E1E1E"/>
    <path d="M271.8 305.7l-14.7 3.1s-16.1-8.9-19.1-16.6c-3-7.8 1.1-52.3 1.1-52.3l-13.5-47.2s5.7-1.4 9.7.1c4 1.4 8 7.8 11.2 8.8 3.2 1 8.6 2.2 8.6 7.3 0 .7.1 1.7.3 3.2.3 2.4.8 5.7 1.4 9.5.7 4.5 1.6 9.5 2.4 14.1 1.3 7.6 2.6 14.2 3 16 .7 2.9 1.8 5.7 2.2 9.4 0 .2 0 .3.1.5 0 .3.1.6.1.9.1 1.2.1 2.6-.1 4.1 0 .5-.1.9-.1 1.4-.3 6.5.7 13.7 1.9 15.6 1.3 1.8 4.6 19.4 5.5 22.1z" fill="#1E1E1E"/>
    <path d="M244.5 240.9c.6-10.3 1.4-22.5.7-30.3-.2-3 1.9-5.6-1.7-7.2-3.5-1.5-7.6-4.1-9.5-5.5-1-.7-5-3.2-8.8-5.5l4.1-.9s11.2 8.7 16 9.9c4.7 1.3 5.3 1.2 4.1 5.5-1.1 4.3-1.5 39.6-1.5 39.6l-3.4-5.6zM254.3 256.2c-.4-7-1-13.5.1-20.5.4-2.6.6-7.2 2.3-9.4.3-.3.6-.6.9-.7.3 2.4.8 5.7 1.4 9.5-3.4 6.4-5.1 13.8-4.7 21.1z" fill="#000"/>
    <path d="M250.1 204.7s2.4 2.2 2.2 5.3c-.2 3.1 3.9 17.4 3.9 17.4s.5-1.3 1.5-1.7l-2.2-13.7s-.2-2.2-.3-3.2c-.1-1-.4-4.6-4.5-5.9-4.1-1.3-2.4-.8-2.4-.8l1.8 2.6zM264.3 267.9c-.1 1.2-.2 2.2-.2 2.2s-.9-4.3-1.2-5.5c-.2-1.2-1.2-2.7-1.2-2.7 0-3.2-2.2-9.5-2.7-11.5s-2.1-10.6-2.1-10.6l2.1-4.7.2.5c1.3 7.6 2.6 14.2 3 16 .7 2.9 1.8 5.7 2.2 9.4 0 .2 0 .4.1.5 0 .4 0 .7.1.9v.2c0 1.4-.1 3.6-.3 5.3z" fill="#444"/>
    <path d="M243.3 238.4s4.1 1.8 5.3 3.3c4.9 6.1 14 20.8 14.3 22.9.4 2.6 2.9 13.1 3.2 13.8.3.7 6.1 23.4 6.1 23.4L260.3 264l-17-25.6zM221.1 257.3s1.2-.7 3.2-1.4c2.8-1-4.9 10.1-.6 11.1 0 0 .2 9.4 1.2 13 .9 3.6 8 39.7 8 39.7l7.8-67.3-19.5-1.4v6.3h-.1z" fill="#000"/>
    <path d="M144.4 201.6l-5.7-3.1-16.2.4-15.9 14.3-1.9 51.5 7.3 26.2h19.7l12.3-29 .4-60.3z" fill="#36176E"/>
    <path d="M109.8 230.2l8.9 10.3 12.2-10.3" stroke="#7215CC" stroke-width="1.384" stroke-miterlimit="10"/>
    <path d="M122.5 198.9l-9.9 16-2.8 68-5.1-18.2 1.8-51.5 16-14.3z" fill="#180249"/>
    <path d="M142.9 204.5l-12 8.1.1 78.3" stroke="#180249" stroke-width="1.384" stroke-miterlimit="10"/>
    <path d="M131.7 290.9l7.5-29.2.9-58.6-4.4-4.5 3-.1 5.7 3.1-.4 60.3-12.3 29z" fill="#7215CC"/>
    <path d="M114.9 290.4l-1.1 40.1 14.9-1.8-.9-40.4-12.9 2.1z" fill="#180249"/>
    <path d="M146.5 360.7l-2.8 32.2-21.5 2.6-11-30.4-5.5-44.4 7-10.6 17.7-2.2 10.5 8.4 5.6 44.4z" fill="#36176E"/>
    <path d="M131.2 394.4l-6.1-18.3-6.3-50.4.9-7.4 2-9.4" stroke="#180249" stroke-width="1.384" stroke-miterlimit="10"/>
    <path d="M121.572 333.285l-3.573.443 3.459 27.886 3.573-.443-3.459-27.886z" fill="#7215CC"/>
    <path d="M112.7 366.4l12.4 9.7 20.2-14.4" stroke="#7215CC" stroke-width="1.384" stroke-miterlimit="10"/>
    <path d="M117.1 309.5l-6.3 11 5.7 46.2L127 395l-4.8.5-11-30.8-5.5-44 7-10.6 4.4-.6z" fill="#180249"/>
    <path d="M125.5 308.5l4.9-.6 10.5 8.4 5.6 44.4-2.8 32.2-4.6.5 2.9-31.2-5.6-44.6-10.9-9.1z" fill="#7215CC"/>
    <path d="M140.3 310.7l-.9-1.2c.3.4.7 1 .9 1.2z" fill="#ADADAD"/>
    <path d="M146.5 360.7c.5 6.8.4 20.6-.8 27.3-.9 5.3.1 4.7-6.6 5.4-6.7.7-16.7 4.5-19.3 5.3-2.6.8-3.4-3-3.4-6s-4.6-22.6-5.2-28c-.6-5.3-1-8.2-1.8-14.6s-3.6-17-4.6-19.6c-1-2.6-2.3-7.8-1-10.8 0 0 4.2-10.9 4.1-11.9-.2-1.3-1.9-1.8-2.1-3.1-.2-2.5 1.5-2 1.7-3.5v-1.5c0-1.3-.1-2.8-.3-4.4-.5-6-1.8-13.7-2.8-19.2-1-5.9-.7-21.6-.2-32 .1-3.1.3-5.8.5-7.5 0-.3.1-.7.1-1 0-.6.1-1.2.1-1.9v-3.5c-.1-7.5-.9-16.4-.2-18 1-2 8.5-7.5 11.6-10.8 3-3.3 6-4.6 12.4-6 8.6-1.7 17 0 17.7 9 1.8 22.8-2.5 57.4-2.5 57.4s-7.4 37.2-5.3 40.5c2.1 3.3-1.6 4.5-1.1 4.8.1.1.4.4.7.8.3.4.7.8 1.1 1.4 1.4 1.8 3.1 4.2 3.7 5.5 1 2.1-1.2 7.3-.8 11.2.4 3.9 3.6 26 4.3 34.7z" fill="#1E1E1E"/>
    <path d="M118.5 309.2c-.1-.7-3.7-2.8-4.3-3.3-1.5-1.1-3-2.3-4.5-3.4-1.2-.9-1.8-1.8-2.2-2.8 0-1.3-.1-2.8-.3-4.4 2.5 2.5 5 5.1 7.5 7.7 1.7 1.8 3.6 3.8 3.8 6.2zM111.9 266.6l-5.7-15.9c-.8-2.1-1.5-4.3-2-6.5.1-3.1.3-5.8.5-7.5 0-.3.1-.7.1-1 .1-.2.1-.3.2-.5 1.3 10.6 7.4 20.7 6.9 31.4z" fill="#000"/>
    <path d="M146.5 360.7c.5 6.8.4 20.6-.8 27.3-.9 5.3.1 4.7-6.6 5.4-6.7.7-16.7 4.5-19.3 5.3-1 .3-1.7-.1-2.2-.8 4.1-1.4 11.6-3.9 16.9-4.5 6.7-.7 5.7-.1 6.6-5.4 1.2-6.7 1.2-20.5.8-27.3-.3-4-1.1-10.9-2-17.5-.4-2.9-.8-5.8-1.1-8.3-.6-4.2-1-7.5-1.2-8.8-.5-3.9 1.7-9.1.8-11.2-.3-.7-1-1.8-1.8-3-.3-.4-.5-.8-.8-1.2-.1-.1-.2-.3-.3-.4-.1-.1-.2-.2-.3-.4-.1-.1-.1-.2-.2-.3l-.1-.1c0-.1-.1-.1-.1-.2-.1-.1-.1-.2-.2-.2-.3-.4-.6-.8-.9-1.1-.4-.4-.6-.7-.7-.8-.5-.4 3.2-1.5 1.1-4.8s5.3-40.5 5.3-40.5 4.3-34.7 2.5-57.4c-.5-6.1-4.5-8.9-9.8-9.5 7.4-.7 13.8 1.6 14.5 9.5 1.8 22.8-2.5 57.4-2.5 57.4s-7.4 37.2-5.3 40.5c2.1 3.3-1.6 4.5-1.1 4.8.1.1.4.4.7.8.3.4.7.8 1.1 1.4 0 0 .1.1.1.2l.1.1c.1.1.2.2.2.3 0 0 0 .1.1.1.2.2.3.4.4.6 1.1 1.5 2.2 3.2 2.7 4.1 1 2.1-1.2 7.3-.8 11.2.3 3.9 3.5 26 4.2 34.7z" fill="#444"/>
    <path d="M140.3 310.7c-1.1.5-2.5.8-3.8 1.2-.3-.4-.5-.8-.8-1.2-.2-.3-.4-.5-.5-.8-.1-.1-.1-.2-.2-.3l-.1-.1c0-.1-.1-.1-.1-.2-.1-.1-.1-.2-.2-.2 1.4-.6 2.7-1 3.8-1.1.3.4.7.8 1.1 1.4 0 0 .1.1.1.2l.1.1c.1.1.2.2.2.3 0 0 0 .1.1.1 0 .3.2.5.3.6zM142.4 330.5c-.8 3.8-1.5 7.6-2.3 11.4-.1.4-.2.9-.3 1.3-.4-2.9-.8-5.8-1.1-8.3.8-3.9 1.9-7.7 3.1-11.5l.6 7.1z" fill="#444"/>
    <path d="M140.3 310.7c-2.4 1-5.9 1.5-8.4 2.3-1.5.5-6.1 1-7.3 2.1 1.9-2.1 9.4-6.5 13.6-7.1.3.4.7.8 1.1 1.4.2.3.8 1.1 1 1.3zM141.8 323.4c-3 9.4-4.9 19.1-5.7 29 2.5-2.9 3.3-6.7 4-10.5.8-3.8 1.5-7.6 2.3-11.4" fill="#000"/>
    <path d="M155.1 407.3l-11.4-14.4c1.6-.4 1.4-1.4 2-4.8 1.2-6.7 1.2-20.5.8-27.3-.3-4-1.1-10.9-2-17.5h2.4s3.6 21.8 2.8 28.9c-.8 7.1-2.8 21.4-2.8 21.4l8.2 13.7z" fill="#ADADAD"/>
    <path d="M221.5 136.4c9.002 0 16.3-7.298 16.3-16.3s-7.298-16.3-16.3-16.3-16.3 7.298-16.3 16.3 7.298 16.3 16.3 16.3zM205.2 117.6h-46.3M237.8 120.1s.8-1.8 5.2 0" stroke="#010F33" stroke-width=".809" stroke-miterlimit="10"/>
    <path d="M240.7 239.7l-27.5-12.4-2.7 1.3-4.2 2.1-6.1-.8v.2l-1.7-.4-.4 5.4 5 1.2-3.4-.4-1.7-.1-.3 5.4 5 1.7-2.1-.3-3-.4 1 4.2 7.7 3.3-3.3-.7-1.7-.3-.2 2.4 5.6 3.6 25.1 1.3-.2-4.8 4.8-5.3 4.3-6.2z" fill="#180249"/>
    <path d="M196.1 228.3c3.6 0 11.6.6 11.5 9.1-.1 7.8-8.8 7.7-13.9 7.6" stroke="#ADADAD" stroke-width="3" stroke-miterlimit="10"/>
    <path d="M200.3 221l-36.6-.5v3.3h3.4l-.3 22.1c0 3.6 2.9 6.6 6.5 6.6l17.6.2c3.6 0 6.6-2.9 6.6-6.5l.3-22.1h2.6l-.1-3.1z" fill="#919191"/>
    <path d="M195.1 224.3h2.5l-.3 22.1c0 3.6-3 6.5-6.6 6.5h-2.5c3.6 0 6.6-2.9 6.6-6.5l.3-22.1zM197.742 221.034l-.043 3.299 2.499.033.044-3.299-2.5-.033z" fill="#ADADAD"/>
    <path d="M163.616 220.611l-.044 3.299 3.2.043.043-3.3-3.199-.042zM176.3 252.7h-3.2c-3.6 0-6.5-3-6.5-6.6l.3-22.1h3.2l-.3 22.1c0 3.6 2.9 6.5 6.5 6.6z" fill="#727272"/>
    <path d="M275.1 307l-2.2 4.7-3.5 7.5-16.8 5.8-6.8-4.6-5-3.4-4.6-3.1-4.6-60.1-.1-1.6-.2-3-.3-3.6 2.9-1.9 4.8-3.2 1.1-.7 3.4-2.2 3.6 5.5 2.8 4.4 11 17 10.2 29.5 2.3 6.5c0 .1 0 .1.1.2l.1.2 1.8 6.1z" fill="#36176E"/>
    <path d="M200.9 227.8l-.4 5.3 4.9 1.3-5-.5-.4 5.4 5 1.7-5.1-.7 1 4.2 7.8 3.3-5.1-1.1-.1 2.4 5.6 3.7 25.1 1.3-.2-4.8-.5-10.9-.2-3.7-32.4-6.9z" fill="#E3B9B7"/>
    <path d="M212.3 229.2l-9.7-1.2-.5 5.5 3.3.9-3.3-.4-.4 5.9 3.3 1.1-2.1-.3.7 4.9 5.1 2.2-3.4-.7-.2 3.1 4 2.6 25.1 1.3-.2-4.8 4.7-5.3 4.3-6.2-27.5-12.4-6.9 3.4 3.7.4z" fill="#36176E"/>
    <path d="M234 249.3l-25.2.6.3 2.9 25.1 1.3-.2-4.8z" fill="#180249"/>
    <path d="M240.3 241.7l-27.5-15 2.7-1.3 27.5 12.4-2.7 3.9z" fill="#7215CC"/>
    <path d="M277.2 309.6c-.6 3.4-3.6 6.6-5.4 9.1-.6.9-1.1 1.7-1.3 2.4-.7 2.8-14.5 7.4-19.3 5.9-2.2-.7-3.9-2.3-5.4-3.9-1.5-1.6-2.9-3.3-4.5-4.3-.6-.4-1.2-.6-1.9-.7 0 0-5.6-1.3-5.3-5.3.3-4-5.3-50.4-5.3-50.4s.4-3.8 1.9-8.6c.2-.5.4-1 .6-1.6.4-1 .8-2 1.3-3 .4-.8.8-1.6 1.3-2.4 1.3-2.2 2.9-4.3 4.9-6.1.3-.3.6-.5.9-.8 1-.8 2.2-1.6 3.4-2.2l3.6 5.5 2.8 4.4 11 17 10.2 29.5 2.3 6.5c0 .1 0 .1.1.2 0 .1 0 .1.1.2 1 2.6 4.7 4.2 4 8.6z" fill="#1E1E1E"/>
    <path d="M245.8 323.2c-1.5-1.6-2.9-3.3-4.5-4.3-.6-1.2-.8-2.4-1-4-.6-5.5-.7-11.1-.3-16.7.1 4.9 2.1 9.6 3.8 14.2 1.1 3.4 2.1 7.2 2 10.8zM273.1 301c-.9-.3-1.8-1.4-2.2-1.9-2.4-2.6-4.6-5.6-6.7-8.5-.7-.9-1.3-1.9-1.9-2.8-.5-.7-.9-1.4-1.4-2.1-1-1.6-1.8-3.8-3-5.1 4.1 4.5 8.8 8.9 12.8 13.6l.1.1 2.3 6.5c0 .1 0 .1.1.2-.2-.1-.1 0-.1 0zM242.1 272c0-1.6 1.4-3.9 1.9-5.4.6-1.9.7-5 1.2-7 1.1-3.9 2.8-9 4.7-13.1.5-1.1-2.7-4.3-3.2-3.4-.9 1.4-2.3 6.9-2.6 8.5-.4 2.1-.7 4.2-.9 6.2-.5 4.7-.9 9.4-1.1 14.2z" fill="#000"/>
    <path opacity=".32" d="M166.8 220.6c1.5-.4 5.6-.3 8.1-1.3 1.9-.7 2.1-2.5 3.9-2.9 3.3-.8 6-.2 7.2-1 1.4-1 .9-1.8-1.4-3.2-2.2-1.4-1.3-3.9.5-4.2 1.8-.3 8.2.8 8.6-4.2.4-5.1-6-1.4-7.7-3.9 0 0 1.7.7 3-.3 0 0-4.5-.3-5.8-4.6 0 0 1 3.3 7.4 1.8 6.4-1.5 4.2 3.3 4.2 3.3s2.8 3.7 1 6.5c-3.5 5.4-6.3 4.2-5.8 8.2.6 4.8 4.6 6.5 10.1 6.3" fill="#ADADAD"/>
    <path d="M247.8 251.7s8.4 11.2 9.8 14.8c1.4 3.6 12.9 27.5 12.9 27.5l-10.3-30.1-10.8-16.3-1.6 4.1zM277.2 309.6c-.6 3.4-3.6 6.6-5.4 9.1 0 0 .9-3.6 1.1-7.1.1-2.4 0-4.8-1.1-6-2.5-2.8-9.4-17.4-9.6-17.9 0 .1 15.7 17.5 15 21.9zM217.9 187.7s22.7 16.6 22.7 19.3c0 2.7-.9 29.3-.9 29.3l4.8 2.6s1.3-21.2.7-28.4c-.2-2 .5-2.5.4-4.4-.1-1.9-2.1-2.8-2.1-2.8l-25.6-15.6zM230.8 351.3c-5.5-18.6 0-39.8 0-39.8l2.2 4.5c-.8 5.5-1 11.4-.5 19.3.4 5.8.9 9.2 1.3 11.2.5 2.2-.8 4.4-3 4.8zM135.6 310.7c-.2-.3-.4-.5-.6-.8.3.4.5.7.6.8z" fill="#444"/>
    <path d="M211.4 204.5s12.6 8.1 15.9 14l-14-9.5-1.9-4.5z" fill="#000"/>
    <path d="M228.6 337.1s-5.8-17.6-6.4-25.6c0 0 5.9 17.1 8 18.4" fill="#444"/>
  </g>
  <defs>
    <linearGradient id="paint0_linear" x1="86.53" y1="385.058" x2="202.312" y2="385.058" gradientUnits="userSpaceOnUse">
      <stop stop-color="#fff" stop-opacity="0"/>
      <stop offset="1" stop-color="#fff"/>
    </linearGradient>
    <clipPath id="clip0">
      <path fill="#fff" d="M0 0h425v382H0z"/>
    </clipPath>
  </defs>
</svg>
