<svg fill="none" xmlns="http://www.w3.org/2000/svg" viewBox="0 0 80 80">
  <g clip-path="url(#clip0)">
    <path d="M66.8 41.9h-3.5c-1.2 0-2.1-.9-2.1-2-1-10.3-10.3-18.4-21.1-18.4C29.5 21.5 20 29.8 19 40c-.2 1.2-1.1 1.9-2.1 1.9h-3.5c-.3 0-.5-.1-.7-.3-.2-.2-.3-.5-.3-.7C13 26.6 25.5 15 40.1 15c2.9 0 5.6.4 8.3 1.2.5.2.8.7.7 1.2-.2.5-.7.8-1.2.7-2.5-.8-5-1.2-7.7-1.2-13.2 0-24.5 10.2-25.6 22.9H17s.1-.1.1-.2c1.1-11.3 11.3-20.2 23.1-20.2s22 8.9 23.1 20.3l-1 .2 1-.1h2.5c-.4-4.3-2-8.6-4.6-12.1-.3-.4-.2-1.1.2-1.4.4-.3 1.1-.2 1.4.2 3.1 4.1 4.9 9.2 5.1 14.3 0 .3-.1.5-.3.7-.2.2-.5.4-.8.4z" fill="#7215CC"/>
    <path d="M22.7 64.7c-.7 0-1.5-.2-2.1-.6-1-.6-1.6-1.5-1.9-2.5l-3.1-11.2c-.3-1.1-.2-2.3.4-3.2.6-1 1.5-1.6 2.5-1.9l4.1-1.1c1.1-.3 2.3-.2 3.2.4 1 .6 1.6 1.5 1.9 2.5l.5 1.6 2.6 9.5c.3 1.1.2 2.3-.4 3.2-.6 1-1.5 1.6-2.5 1.9l-4.1 1.1c-.3.3-.7.3-1.1.3zm1.1-18.6c-.2 0-.4 0-.6.1l-4.1 1.1c-.6.1-1 .5-1.3 1-.3.5-.4 1.1-.2 1.7l3.1 11.2c.1.6.5 1 1 1.3.5.3 1.1.4 1.7.2l4.1-1.1c.6-.1 1-.5 1.3-1 .3-.5.4-1.1.2-1.7l-3.1-11.2c-.1-.6-.5-1-1-1.3-.4-.2-.7-.3-1.1-.3z" fill="#8D8D8D"/>
    <path d="M17.7 64.1c-.7 0-1.5-.2-2.1-.6-1-.6-1.6-1.5-1.9-2.5l-2-7.3c-.3-1.1-.2-2.3.4-3.2.6-1 1.5-1.6 2.5-1.9l1.5-.5c.5-.2 1.1.1 1.3.7.2.5-.1 1.1-.7 1.3l-1.6.5c-.6.1-1.1.5-1.3 1-.3.5-.4 1.1-.2 1.7l2 7.3c.1.6.5 1 1 1.3.5.3 1.1.4 1.7.2l1.6-.4c.5-.1 1.1.2 1.2.7.1.5-.2 1.1-.7 1.2l-1.6.4c-.3.1-.7.1-1.1.1zM25.6 64.2c-.4 0-.8-.3-1-.7l-1.5-5.3c-.2-.5.2-1.1.7-1.2.5-.2 1.1.2 1.2.7l1.5 5.3c.2.5-.2 1.1-.7 1.2h-.2zM17.6 47.7c-.2 0-.5-.1-.7-.2-2.7-2.4-2.8-6.4-2.8-6.5 0-.6.4-1 1-1 .5 0 1 .4 1 1 0 0 .1 3.3 2.2 5.1.4.4.5 1 .1 1.4-.2.1-.5.2-.8.2zM62.1 47.7c-.3 0-.6-.1-.8-.3-.4-.4-.3-1 .1-1.4 2-1.8 2.2-5 2.2-5.1 0-.5.5-1 1-1 .6 0 1 .5 1 1 0 .2-.1 4.2-2.8 6.5-.2.2-.5.3-.7.3z" fill="#8D8D8D"/>
    <path d="M56.8 64.8c-.4 0-.8-.1-1.2-.2l-4.1-1.1c-1.1-.3-2.1-1.1-2.6-2.1s-.6-2.1-.2-3.1l3.1-11.1c.2-1 .9-1.9 1.9-2.5 1-.6 2.2-.7 3.3-.4l4.1 1.1c1 .2 1.9.9 2.5 1.9.6 1 .7 2.2.4 3.3l-3.2 11.2c-.2 1-.9 1.9-1.9 2.5-.7.3-1.4.5-2.1.5zm-4.7-3.2l4.1 1.1c.6.2 1.2.1 1.7-.2.5-.3.8-.7 1-1.3L62 50c.2-.6.1-1.2-.2-1.7-.3-.5-.7-.8-1.3-.9l-4.1-1.1c-.6-.2-1.2-.1-1.7.2-.5.3-.8.7-1 1.3l-3 11.2c-.2.6-.2 1.1.1 1.6.2.5.7.9 1.3 1z" fill="#8D8D8D"/>
    <path d="M61.9 64.1c-.4 0-.8-.1-1.2-.2l-1.6-.5c-.5-.2-.8-.7-.7-1.3.2-.5.7-.8 1.3-.7l1.6.5c1.1.3 2.3-.3 2.6-1.5l2-7.3c.3-1.2-.3-2.3-1.5-2.7l-1.6-.5c-.5-.2-.8-.7-.7-1.3.2-.5.7-.8 1.3-.7l1.6.5c1.1.3 2 1 2.5 2 .6 1 .7 2.1.4 3.2l-2 7.3c-.3 1.1-1 2-2 2.5-.6.5-1.3.7-2 .7zM54 64.2h-.3c-.5-.2-.8-.7-.7-1.2l1.5-5.3c.1-.5.7-.8 1.2-.7.5.2.8.7.7 1.2L55 63.5c-.2.4-.6.7-1 .7z" fill="#8D8D8D"/>
  </g>
  <defs>
    <clipPath id="clip0">
      <path fill="#fff" d="M0 0h80v80H0z"/>
    </clipPath>
  </defs>
</svg>
