<svg fill="none" xmlns="http://www.w3.org/2000/svg" viewBox="0 0 80 80">
  <path d="M45.6 34.3c-.3 0-.6-.1-.9-.3l-4.9-3.5L35 34c-.7.4-1.4.4-1.9-.1-.5-.4-.7-1.1-.5-1.8l1.9-5.8-4.9-3.5c-.5-.3-.8-1-.6-1.7.2-.7.9-1.2 1.6-1.2h6l1.8-5.5c0-.5.4-1 .9-1.2.8-.2 1.6.2 1.9.9v.1l1.8 5.7h6c.7 0 1.2.4 1.5 1 .3.6.1 1.3-.4 1.8l-.1.1-4.9 3.5 1.8 5.8c.2.7 0 1.4-.6 1.8 0 .3-.4.4-.7.4zm-.4-1.5s.1 0 0 0zm-4.4-4.1l4.1 2.9-1.5-4.9c-.1-.4-.2-1.1.4-1.7l.1-.1 4.1-3h-5.1c-.6 0-1.2-.4-1.5-1 0 0 0-.1-.1-.1l-1.4-4.5-1.5 4.5s0 .1-.1.1c-.3.6-.9 1-1.5 1h-5.1l4.1 3 .1.1c.5.5.7 1.2.4 1.8l-1.6 4.8 4-2.9c.7-.5 1.6-.5 2.1 0zm-10.1-7.5c.1.1 0 .1 0 0z" fill="#7215CC"/>
  <path d="M36.8 57c-.6 0-1-.4-1-1V42.8c-.1-.5-.6-1-1.3-1.2-5.3-1.4-9.8-5.2-12.8-10.7-2.8-5-3-11.3-3-17.2 0-1.5.1-4.2.2-5.8 0-.5.5-.9 1-.9h19.2c.6 0 1 .4 1 1s-.4 1-1 1H20.8c-.1 1.5-.1 3.6-.1 4.7 0 5.9.2 11.6 2.8 16.2 2.7 5 6.9 8.5 11.6 9.7 1.5.4 2.6 1.6 2.7 3.1V56c0 .6-.4 1-1 1zM42.9 57c-.6 0-1-.4-1-1V42.8c0-1.5 1.1-2.8 2.8-3.2 4.7-1.3 8.8-4.7 11.6-9.7C58.8 25.5 59 20 59 13.8c0-1-.1-3-.1-4.7h-5.3c-.6 0-1-.4-1-1s.4-1 1-1h6.2c.5 0 1 .4 1 .9.1 1.6.2 4.4.2 5.8 0 6.5-.2 12.3-3 17.1-3 5.5-7.5 9.3-12.8 10.7-.7.2-1.3.7-1.3 1.2V56c0 .6-.4 1-1 1z" fill="#8D8D8D"/>
  <path d="M54.7 61.1c-.6 0-1-.4-1-1V57H26v3.1c0 .6-.4 1-1 1s-1-.4-1-1v-3.4c0-1 .7-1.7 1.7-1.7H54c1 0 1.7.7 1.7 1.7v3.4c0 .6-.4 1-1 1z" fill="#8D8D8D"/>
  <path d="M59.8 72.1h-5.2c-.6 0-1-.4-1-1s.4-1 1-1h4.9v-8.9H20v8.9h7.3c.6 0 1 .4 1 1s-.4 1-1 1h-7.6c-1 0-1.7-.7-1.7-1.7v-9.5c0-1 .7-1.7 1.7-1.7h40.1c1 0 1.7.7 1.7 1.7v9.5c0 1-.7 1.7-1.7 1.7zM56 22.1c-.6 0-1-.4-1-1v-10c0-.6.4-1 1-1s1 .4 1 1v10c0 .6-.4 1-1 1z" fill="#8D8D8D"/>
  <path d="M55 35c-.3 0-.6-.2-.8-.4-.3-.5-.2-1.1.3-1.4C61.6 28.3 65.9 20.4 66 12h-6c-.6 0-1-.4-1-1s.4-1 1-1h7c.6 0 1 .4 1 1v.6c0 9.2-4.6 17.9-12.4 23.2-.2.1-.4.2-.6.2zM25 35c-.2 0-.4-.1-.6-.2-7.8-5.3-12.4-14-12.4-23.2V11c0-.6.4-1 1-1h6.7c.6 0 1 .4 1 1s-.4 1-1 1H14c.1 8.4 4.4 16.3 11.6 21.2.5.3.6.9.3 1.4-.3.2-.6.4-.9.4z" fill="#8D8D8D"/>
</svg>
