<svg fill="none" xmlns="http://www.w3.org/2000/svg" viewBox="0 0 80 80">
  <g clip-path="url(#clip0)">
    <path d="M57.3 69H10c-.6 0-1-.4-1-1V15c0-.6.4-1 1-1h47.3c.6 0 1 .4 1 1v11.8c0 .6-.4 1-1 1s-1-.4-1-1V16H11v51h45.3v-3.9c0-.6.4-1 1-1s1 .4 1 1V68c0 .6-.4 1-1 1z" fill="#8D8D8D"/>
    <path d="M61.9 27.8H10c-.6 0-1-.4-1-1s.4-1 1-1h51.9c.6 0 1 .4 1 1s-.4 1-1 1zM17.5 18.3c-.6 0-1-.4-1-1v-5.8c0-.6.4-1 1-1s1 .4 1 1v5.8c0 .6-.4 1-1 1zM33.7 18.3c-.6 0-1-.4-1-1v-5.8c0-.6.4-1 1-1s1 .4 1 1v5.8c0 .6-.4 1-1 1zM49.8 18.3c-.6 0-1-.4-1-1v-5.8c0-.6.4-1 1-1s1 .4 1 1v5.8c0 .6-.4 1-1 1z" fill="#8D8D8D"/>
    <path d="M70 59.8H28.5c-.6 0-1-.4-1-1v-4.5c0-.6.4-1 1-1s1 .4 1 1v3.5H69V34.4H29.5v6.5c0 .6-.4 1-1 1s-1-.4-1-1v-7.5c0-.6.4-1 1-1H70c.6 0 1 .4 1 1v25.4c0 .6-.4 1-1 1z" fill="#7215CC"/>
    <path d="M49.3 54c-4.4 0-7.9-3.5-7.9-7.9s3.5-7.9 7.9-7.9 7.9 3.5 7.9 7.9-3.5 7.9-7.9 7.9zm0-13.8c-3.3 0-5.9 2.6-5.9 5.9 0 3.3 2.6 5.9 5.9 5.9 3.3 0 5.9-2.6 5.9-5.9 0-3.3-2.6-5.9-5.9-5.9zM28.5 48.3H18.1c-.6 0-1-.4-1-1s.4-1 1-1h10.4c.6 0 1 .4 1 1s-.4 1-1 1zM33.1 55.2H20.4c-.6 0-1-.4-1-1s.4-1 1-1h12.7c.6 0 1 .4 1 1s-.4 1-1 1zM28.5 41.3h-8.1c-.6 0-1-.4-1-1s.4-1 1-1h8.1c.6 0 1 .4 1 1s-.4 1-1 1z" fill="#7215CC"/>
  </g>
  <defs>
    <clipPath id="clip0">
      <path fill="#fff" d="M0 0h80v80H0z"/>
    </clipPath>
  </defs>
</svg>
