<svg fill="none" xmlns="http://www.w3.org/2000/svg" viewBox="0 0 80 80">
  <g clip-path="url(#clip0)">
    <path d="M38.2 65.6H38c-1.1-.1-2.1-.5-2.9-1.4-.4-.4-9.8-10.2-12.7-13.9-1.5-1.9-5.1-7.8-5.3-8.1-.3-.5-.1-1.1.3-1.4.5-.3 1.1-.1 1.4.3 0 .1 3.7 6.1 5.1 7.9 2.8 3.6 12.4 13.6 12.5 13.7.4.5.9.7 1.5.7.5 0 1.1-.2 1.5-.6.4-.4.7-.9.7-1.5 0-.5-.2-1.1-.6-1.5L35 54.7c-.4-.4-.3-1 .1-1.4.4-.4 1-.3 1.4.1l6.6 7.4c.4.4.9.7 1.5.7s1.1-.2 1.5-.6c.9-.8 1-2.1.1-3l-6.6-7.4c-.4-.4-.3-1 .1-1.4.4-.4 1-.3 1.4.1l7 7.7c.8.9 2.1 1 3 .1.9-.8 1-2.1.1-3l-.3-.3c-.2-.1-.3-.3-.4-.4l-6.3-7c-.4-.4-.3-1 .1-1.4.4-.4 1-.3 1.4.1l6.6 7.3c.3.2.7.4 1.1.4.5 0 1.1-.2 1.5-.6.4-.4.7-.9.7-1.5 0-.5-.2-1.1-.6-1.5L43.9 36.7c-.4-.4-.3-1 .1-1.4.4-.4 1-.3 1.4.1l4.9 5.4 6.3 7c.8.8 1.1 1.9 1.1 3-.1 1.1-.5 2.1-1.4 2.9-.7.7-1.7 1.1-2.6 1.1.3 1.3-.2 2.8-1.3 3.8-1 1-2.4 1.3-3.6 1-.1 1.1-.5 2.1-1.4 2.8-1.5 1.4-3.6 1.5-5.2.3-.2.6-.6 1.3-1.2 1.8-.8.8-1.8 1.1-2.8 1.1z" fill="#8D8D8D"/>
    <path d="M15.6 43.8h-.2c-1.1-.1-2.2-.5-3-1.4l-5.3-5.9c-1.6-1.7-1.4-4.3.3-5.9l7.3-6.6c.4-.4 1-.3 1.4.1.4.4.3 1-.1 1.4l-7.3 6.6c-.9.8-1 2.2-.1 3.1l5.3 5.9c.4.4 1 .7 1.6.7.6 0 1.2-.2 1.6-.6l12.7-12.1c.4-.4 1-.4 1.4 0 .4.4.4 1 0 1.4L18.5 42.7c-.8.8-1.8 1.1-2.9 1.1z" fill="#7215CC"/>
    <path d="M13 28c-.3 0-.5-.1-.7-.3-.4-.4-.3-1 .1-1.4l11.3-10.4c1.6-1.5 4.1-1.4 5.6.3l7.6 8.5c.4.4.3 1-.1 1.4-.4.4-1 .3-1.4-.1l-7.6-8.5c-.7-.8-2-.8-2.8-.1L13.7 27.7c-.2.2-.5.3-.7.3zM15.8 38.4h-.2c-.9-.1-1.7-.4-2.2-1.1-.6-.6-.8-1.5-.8-2.4.1-.9.4-1.7 1-2.2.6-.6 1.4-.9 2.2-.9.9 0 1.8.4 2.4 1.1.6.6.8 1.5.8 2.4-.1.9-.4 1.7-1.1 2.2-.5.7-1.3.9-2.1.9zm0-4.5c-.3 0-.5.1-.8.3-.2.2-.4.5-.4.9 0 .3.1.7.3.9.2.2.5.4.9.4s.7-.1.9-.3c.2-.2.4-.5.4-.9 0-.3-.1-.7-.3-.9-.3-.2-.7-.4-1-.4z" fill="#7215CC"/>
    <path d="M55 47.8c-.4 0-.8-.3-.9-.7-.2-.5.1-1.1.6-1.3 1.6-.6 3.9-3.3 4.6-4.3.3-.5.9-.6 1.4-.2.4.3.6.9.2 1.4-.3.4-3.1 4.2-5.6 5.1H55zM33.9 43c-.3 0-.7 0-1-.1-1.3-.3-2.4-1-3.1-2.1-.2-.2-.3-.5-.4-.8-.9-1.9-.4-4.2 1.3-5.7l7.7-7c.3-.3.6-.5.9-.6.1-.1.2-.1.2-.1l.1-.1 5.2-2.4c.5-.2 1.1 0 1.3.5.2.5 0 1.1-.5 1.3l-5.1 2.4c-.1 0-.2.1-.2.1-.2.1-.4.3-.5.4l-7.7 7c-1 .9-1.3 2.4-.8 3.5.1.1.1.2.1.3 0 0 0 .1.1.1.4.7 1.1 1.1 1.9 1.3.9.2 1.8 0 2.6-.6l9.9-7.4c.4-.3 1.1-.2 1.4.2.3.4.2 1.1-.2 1.4L37 42c-.9.7-2 1-3.1 1z" fill="#8D8D8D"/>
    <path d="M62.8 44.2c-1 0-1.8-.4-2.4-1.1L50.1 31.6l-5.4-6.2c-.6-.6-.8-1.4-.8-2.3.1-.8.4-1.6 1.1-2.1l7.5-6.7c.5-.5 1.3-.8 2.1-.8.9 0 1.7.4 2.3 1.1l1.7 1.9c.4.4.3 1-.1 1.4-.4.4-1 .3-1.4-.1l-1.7-1.9c-.2-.3-.5-.4-.9-.4-.1 0-.5 0-.7.2l-7.5 6.7c-.2.2-.4.5-.4.8 0 .3.1.6.3.8l5.4 6.2L62 41.8c.2.3.5.4.9.4.2 0 .5 0 .7-.2l7.6-6.8c.2-.2.4-.5.4-.8 0-.3-.1-.6-.3-.8l-3.6-4.2c-.4-.4-.3-1.1.1-1.4.4-.4 1.1-.3 1.4.1l3.6 4.2c.6.6.8 1.4.8 2.3-.1.8-.4 1.6-1.1 2.1l-7.6 6.8c-.5.4-1.3.7-2.1.7z" fill="#7215CC"/>
  </g>
  <defs>
    <clipPath id="clip0">
      <path fill="#fff" d="M0 0h80v80H0z"/>
    </clipPath>
  </defs>
</svg>
