<svg fill="none" xmlns="http://www.w3.org/2000/svg" viewBox="0 0 80 80">
  <g clip-path="url(#clip0)">
    <path d="M66.6 62.702h-.5c-2.4-.2-5-2.4-7.1-5.9l-.6-1c-3.9-6.5-4.3-7.2-18.7-7.2h-4.4c-.6 0-1-.4-1-1s.4-1 1-1h4.4c14.4 0 15.9.6 20.5 8.2l.6 1c1.8 2.9 4 4.8 5.6 4.9.8.1 1.4-.2 2-.8 1-1 1.7-4.4 1.2-11 0-.5.4-1 .9-1.1.6-.1 1 .4 1.1.9.3 3.7.5 10.2-1.7 12.6-1 .9-2.1 1.4-3.3 1.4z" fill="#8D8D8D"/>
    <path d="M12.7 62.8c-1.3 0-2.3-.5-3.2-1.5-4.7-4.8 0-30.1 6.3-40.2 1.7-2.7 10.1-3.9 11.6-3.4.9.3 1.6.7 2.3 1.1l.5.3c1.9 1.1 4.6 2.6 9.5 2.6 4.4 0 6.8-1.2 9.1-2.3l.5-.3c.4-.2.7-.4 1-.5.5-.3 1.1-.6 1.7-.8 1.6-.5 10 .7 11.7 3.4 1.8 3.1 3.6 7.2 4.9 11.7.2.5-.1 1.1-.7 1.2-.5.2-1.1-.1-1.2-.7-1.3-4.4-3-8.4-4.7-11.3-.3-.5-1.9-1.3-4.6-2-2.4-.6-4.4-.7-4.8-.6-.4.1-.8.4-1.3.6l-1.2.6-.4.2c-2.4 1.2-5.1 2.6-10 2.6-5.1 0-7.9-1.3-10.5-2.8l-.5-.3c-.7-.4-1.3-.7-1.9-1-.4-.1-2.3 0-4.8.6-2.7.6-4.2 1.5-4.6 2-6.5 10.9-9.9 34.4-6.4 38 .6.7 1.1.9 2 .8 1.7-.2 3.8-2.1 5.6-4.9l.6-1c4-6.8 5.5-8 15.9-8.2.6 0 1 .4 1 1s-.4 1-1 1c-9.9.2-10.7 1.2-14.3 7.2l-.6 1c-2.2 3.5-4.8 5.6-7.2 5.9h-.3z" fill="#8D8D8D"/>
    <path fill-rule="evenodd" clip-rule="evenodd" d="M28.2 25.5h-3.1c-1.1 0-2 .9-2 2v3.3h-3.3c-1.1 0-2 .9-2 2v3.1c0 1.1.9 2 2 2h3.3v3.3c0 1.1.9 2 2 2h3.1c1.1 0 2-.9 2-2v-3.3h3.3c1.1 0 2-.9 2-2v-3.1c0-1.1-.9-2-2-2h-3.3v-3.3c0-1.1-.9-2-2-2zm0 2v4.6c0 .5.3.8.8.8h4.6V36H29c-.5 0-.8.3-.8.8v4.6h-3.1v-4.6c0-.5-.3-.8-.8-.8h-4.6v-3.1h4.6c.5 0 .8-.3.8-.8v-4.6h3.1z" fill="#7215CC"/>
    <path d="M53.7 31.5c-1.7 0-3-1.3-3-3s1.3-3 3-3 3 1.3 3 3c0 1.2-.7 2.3-1.7 2.7h-.1c-.3.2-.7.3-1.2.3zm0-4c-.6 0-1 .4-1 1s.4 1 1 1c.1 0 .3-.1.5-.1.3-.1.5-.5.5-.9 0-.6-.4-1-1-1zM53.7 42.5c-1.7 0-3-1.3-3-3s1.3-3 3-3 3 1.3 3 3-1.3 3-3 3zm0-4c-.6 0-1 .4-1 1s.4 1 1 1 1-.4 1-1-.4-1-1-1zM59.2 37c-1.7 0-3-1.3-3-3s1.3-3 3-3 3 1.3 3 3-1.3 3-3 3zm0-4c-.6 0-1 .4-1 1s.4 1 1 1 1-.4 1-1-.4-1-1-1zM48.2 37c-1.7 0-3-1.3-3-3s1.3-3 3-3 3 1.3 3 3-1.3 3-3 3zm0-4c-.6 0-1 .4-1 1s.4 1 1 1 1-.4 1-1-.4-1-1-1z" fill="#7215CC"/>
    <path d="M13.3 57.502c-.4 0-.8-.3-.9-.7-1.8-5.3.7-13.3.8-13.6.2-.5.7-.8 1.3-.7.5.2.8.7.7 1.3 0 .1-2.4 7.7-.8 12.4.2.5-.1 1.1-.6 1.3h-.5z" fill="#8D8D8D"/>
  </g>
  <defs>
    <clipPath id="clip0">
      <path fill="#fff" d="M0 0h80v80H0z"/>
    </clipPath>
  </defs>
</svg>
