<svg fill="none" xmlns="http://www.w3.org/2000/svg" viewBox="0 0 500 370">
  <g clip-path="url(#clip0)">
    <path fill="#fff" d="M0 0h500v370H0z"/>
    <path d="M147.104 288.834L59.29 164.229l-8.813 6.225 87.814 124.606 8.813-6.226zM164.626 276.37L76.812 151.764 68 157.99l87.814 124.605 8.813-6.225z" fill="#B9BABB"/>
    <path d="M155.828 282.627L68.014 158.022l-8.813 6.225 87.814 124.605 8.813-6.225z" fill="#A467DE"/>
    <path d="M76.872 151.768l-1.668-2.367-26.44 18.676 1.668 2.368 26.44-18.677z" fill="#AAACAF"/>
    <path d="M75.197 149.403l-1.669-2.367-26.44 18.676 1.669 2.368 26.44-18.677z" fill="#E1E2E3"/>
    <path d="M36.478 150.372l10.699 15.189 26.395-18.7-10.698-15.189c-4.21-6.057-12.54-7.462-18.591-3.248l-4.648 3.336c-5.963 4.214-7.454 12.555-3.157 18.612z" fill="#B9BABB"/>
    <path d="M164.668 276.463l-26.395 18.612 36.217 23.266-9.822-41.878z" fill="#E6E7E8"/>
    <path d="M172.209 308.508l-6.226 4.389 8.506 5.444-2.28-9.833z" fill="#A467DE"/>
    <path d="M62.852 275.028l31.64-25.058 14.553-24.436 12.316-5.589 12.762 10.3-6.08 6.065-8.91-5.438-6.602 14.391 4.219 19.44-11.476.467-34.056 33.635-8.366-23.777z" fill="#CDCFD0"/>
    <path d="M90.71 252.967s2.477 10.367 11.818 14.921l-4.993 4.954s-10.083-5.175-11.949-15.775l5.145-4.075-.02-.025z" fill="#5C5D5F"/>
    <path d="M65.066 266.196l-95.067 64.418 38.067 48.067c30.648-32.018 72.421-81.385 72.421-81.385l-15.421-31.1z" fill="#939598"/>
    <path d="M454.471 52H243.084v147.69h211.387V52z" fill="#E5E6E7"/>
    <path d="M348.171 153.3L246.87 183.596v11.834h203.548v-18.935l-15.148-18.934-67.691 15.148-19.408-19.409z" fill="#A467DE"/>
    <path d="M358.434 231.291l.029-21.168 12.205-17.117V181.88l-15.896-10.271-4.257 6.562 10.076 12.324-13.483 8.217h-16.452l5.95 14.549-1.987 19.685 23.56 4.85.255-6.505z" fill="#CFD1D3"/>
    <path d="M329.368 223.988l34.488 8.673 4.201 80.622 29.719 73.718h-73.092l-9.112-73.804 13.796-89.209z" fill="#A9ABAD"/>
    <path d="M420.123 79.455l5.68 8.52m5.681 8.521l-5.681-8.52m0 0l-9.467 8.52m9.467-8.52l9.941-8.52" stroke="#464646" stroke-width="5.68"/>
    <path d="M319.768 94.13l-.224-.92.224.92zm65.325 57.751l-.261-.91.261.91zm38.235-51.089a.947.947 0 00-1.277-.401l-7.553 3.944a.948.948 0 00.877 1.679l6.713-3.506 3.506 6.713a.947.947 0 101.678-.876l-3.944-7.553zm-141.902 34.994l.853.411v-.001l.002-.004a135.175 135.175 0 013.05-5.739c1.966-3.49 4.8-8.192 8.274-13.048 3.476-4.859 7.578-9.851 12.076-13.932 4.506-4.089 9.352-7.212 14.312-8.423l-.449-1.84c-5.389 1.317-10.511 4.665-15.135 8.861-4.632 4.203-8.822 9.309-12.344 14.232-3.524 4.926-6.395 9.69-8.384 13.221a137.245 137.245 0 00-2.298 4.245 91.731 91.731 0 00-.796 1.577l-.01.021-.003.006-.001.001.853.412zm38.567-40.736c3.958-.967 7.368-.68 10.391.508 3.036 1.195 5.742 3.325 8.236 6.138 5.014 5.653 9.021 13.873 13.092 22.222 4.034 8.273 8.135 16.682 13.318 22.407 2.605 2.877 5.524 5.125 8.898 6.335 3.387 1.214 7.164 1.356 11.427.13l-.523-1.819c-3.919 1.126-7.286.974-10.265-.094-2.994-1.073-5.665-3.096-8.134-5.823-4.964-5.484-8.948-13.617-13.019-21.966-4.035-8.275-8.155-16.761-13.377-22.649-2.624-2.958-5.564-5.306-8.96-6.643-3.411-1.342-7.222-1.639-11.533-.586l.449 1.84zm65.362 57.74c6.139-1.764 11.572-5.914 16.25-11.052 4.683-5.143 8.661-11.333 11.88-17.279 3.221-5.95 5.696-11.681 7.365-15.923a138.836 138.836 0 001.895-5.096 92.777 92.777 0 00.605-1.794l.031-.097.008-.026a.02.02 0 00.002-.006l.001-.002-.903-.285-.903-.283-.001.001-.001.005-.007.022-.029.091-.118.362a85.77 85.77 0 01-.473 1.389 136.434 136.434 0 01-1.869 5.026c-1.65 4.193-4.094 9.851-7.268 15.715-3.177 5.867-7.071 11.915-11.615 16.906-4.549 4.996-9.697 8.875-15.373 10.507l.523 1.819z" fill="#A467DE"/>
    <path fill="#707174" d="M272.432 132.473h18.935v18.935h-18.935z"/>
  </g>
  <defs>
    <clipPath id="clip0">
      <path fill="#fff" d="M0 0h500v370H0z"/>
    </clipPath>
  </defs>
</svg>
