<svg fill="none" xmlns="http://www.w3.org/2000/svg" viewBox="0 0 500 370">
  <g clip-path="url(#clip0)">
    <path fill="#fff" d="M0 0h500v370H0z"/>
    <path d="M343.314 244.294l-16.7-16.557L286 287.162l33.165-97.474 16.308 16.129L357.192 142l31.989 31.714-46.063 70.774.196-.194z" fill="#A467DE"/>
    <path d="M382.581 211.481l-2.94-22.879-18.414-5.937s-5.57 6.193.31 10.902c5.828 4.658 7.943 4.658 7.943 4.658l-2.424 8.701-18.363 28.151 19.91 4.35 13.978-27.946z" fill="#CFD0D2"/>
    <path d="M376.354 213.861l6.335-2.39 5.824 9.815-5.722 30.003-14.611-12.357 8.174-25.071z" fill="#CFD0D2"/>
    <path d="M397.831 219.282l-12.781-8.659-8.399 41.809 19.928 18.343 1.252-51.493z" fill="#DEDFE0"/>
    <path d="M500.5 280.618l-107.217-68.299-3.924 54.971L500.5 361.5v-80.882zM385.124 249.595a1.693 1.693 0 110-3.389 1.695 1.695 0 010 3.389z" fill="#87888A"/>
    <path d="M172.952 231.189l1.003 5.651c.337 1.844-.913 3.59-2.772 3.922l-14.995 2.65a3.416 3.416 0 01-3.958-2.754l-1.004-5.651 21.726-3.818z" fill="#535456"/>
    <path d="M111.95 163.557c-3.607-19.907 9.773-38.94 29.848-42.495 20.075-3.554 39.285 9.731 42.892 29.639a36.155 36.155 0 01-2.135 20.245c-7.102 18.606-6.885 33.122-6.885 33.122l-18.297 3.217-18.298 3.218s-4.886-13.667-18.063-28.73a36.302 36.302 0 01-9.062-18.216z" fill="#DEDFE0"/>
    <path d="M111.95 163.557c-3.607-19.907 9.773-38.94 29.848-42.495 20.075-3.554 39.285 9.731 42.892 29.639a36.155 36.155 0 01-2.135 20.245c-7.102 18.606-6.885 33.122-6.885 33.122l-18.297 3.217-18.298 3.218s-4.886-13.667-18.063-28.73a36.302 36.302 0 01-9.062-18.216z" fill="url(#paint0_linear)"/>
    <path d="M176.128 203.917l4.334 24.044a1.83 1.83 0 01-1.479 2.138l-33.871 5.993c-.992.183-1.932-.482-2.115-1.506l-4.334-24.044 37.465-6.625z" fill="#C3C4C6"/>
    <path d="M177.217 209.876l.805 4.459-37.455 6.61-.805-4.458 37.455-6.611zM178.955 219.355l.806 4.458-37.456 6.611-.805-4.459 37.455-6.61z" fill="#535456"/>
    <path d="M139.951 113.844l-7.791-20.973 4.626-.811 4.626-.812.024 22.363c-.29.063-.577.086-.867.149-.204-.012-.412.056-.618.084zM166.08 93.444l4.396 1.605 4.397 1.605-11.32 19.442c-.438-.188-.919-.339-1.357-.528l3.884-22.124zM195.178 110.735l3.012 3.546 3.011 3.547-19.856 11.345c-.265-.34-.571-.683-.834-1.063l14.667-17.375zM85.155 137.965l1.614-4.358 1.615-4.357 19.858 11.38c-.149.436-.296.832-.445 1.269l-22.642-3.934zM102.562 109.172l3.573-2.982 3.574-2.982 11.316 19.446c-.386.301-.732.604-1.12.945l-17.343-14.427z" fill="#A467DE"/>
    <path d="M147.436 293.235l43.304-12.21 7.251 114.582h-65.223l14.668-102.372z" fill="#5C5D5F"/>
    <path d="M186.533 227.118l-26.863 13.067-8.339-5.22-1.367-14.671-8.203-2.73-5.468 24.566 19.822 19.106-3.076 30.366 31.101-8.53-3.076-26.271 5.469-29.683z" fill="#AFB0B2"/>
    <path d="M148.633 293.365l1.602-14.34 36.725-7.695 1.336 10.493-39.663 11.542z" fill="#E0E2E3"/>
  </g>
  <defs>
    <linearGradient id="paint0_linear" x1="139.168" y1="123.391" x2="158.044" y2="211.964" gradientUnits="userSpaceOnUse">
      <stop offset=".013" stop-color="#fff" stop-opacity="0"/>
      <stop offset="1" stop-color="#F5F5F5"/>
    </linearGradient>
    <clipPath id="clip0">
      <path fill="#fff" d="M0 0h500v370H0z"/>
    </clipPath>
  </defs>
</svg>
