<svg width="220" height="220" viewBox="0 0 220 220" fill="none" xmlns="http://www.w3.org/2000/svg">
<g clip-path="url(#clip0)">
<path d="M73.8565 50.3484L81.2534 54.6164L109.707 38.1897L81.2534 21.7631L52.8 38.1897L62.5974 43.8462" fill="#181D29"/>
<path d="M73.8565 50.3484L81.2534 54.6164L109.707 38.1897L81.2534 21.7631L52.8 38.1897L62.5974 43.8462" stroke="#939393" stroke-width="2" stroke-linecap="round" stroke-linejoin="round"/>
<path d="M81.2534 73.0441L81.2534 149.216L109.707 132.79V38.5774" stroke="#939393" stroke-width="2" stroke-linecap="round" stroke-linejoin="round"/>
<path d="M109.707 51.4141V38.1897L81.2534 54.6164V62.2088" stroke="#939393" stroke-width="2" stroke-linecap="round" stroke-linejoin="round"/>
<path d="M72.0623 49.3119L81.2534 54.6164V149.216L52.8 132.79V38.1897L63.6045 44.4279" fill="#181D29"/>
<path d="M52.8 89.7039V38.1897L63.6045 44.4279" stroke="#939393" stroke-width="2" stroke-linecap="round" stroke-linejoin="round"/>
<path d="M81.2534 73.116V149.216L52.8 132.79V108.565" stroke="#939393" stroke-width="2" stroke-linecap="round" stroke-linejoin="round"/>
<path d="M72.0623 49.312L81.2534 54.6165V62.2089" stroke="#939393" stroke-width="2" stroke-linecap="round" stroke-linejoin="round"/>
<path d="M60.549 106.292V128.307" stroke="#939393" stroke-width="2" stroke-linecap="round" stroke-linejoin="round"/>
<path d="M60.549 57.3982V94.3631" stroke="#939393" stroke-width="2" stroke-linecap="round" stroke-linejoin="round"/>
<path d="M68.2881 85.8417V131.871" stroke="#679BFF" stroke-width="2" stroke-linecap="round" stroke-linejoin="round"/>
<path d="M68.2881 60.9622V78.8506" stroke="#679BFF" stroke-width="2" stroke-linecap="round" stroke-linejoin="round"/>
<path d="M101.689 117.199V128.307" stroke="#939393" stroke-width="2" stroke-linecap="round" stroke-linejoin="round"/>
<path d="M101.689 57.3982V102.2" stroke="#939393" stroke-width="2" stroke-linecap="round" stroke-linejoin="round"/>
<path d="M93.9498 90.9556V131.871" stroke="#679BFF" stroke-width="2" stroke-linecap="round" stroke-linejoin="round"/>
<path d="M93.9498 60.9622V76.9782" stroke="#679BFF" stroke-width="2" stroke-linecap="round" stroke-linejoin="round"/>
</g>
<g clip-path="url(#clip1)">
<path d="M99.2444 84.4401L121.948 97.5472L144.652 84.4401L121.948 71.333L99.2444 84.4401Z" fill="#181D29" stroke="#939393" stroke-width="2" stroke-linecap="round" stroke-linejoin="round"/>
<path d="M144.652 134.58V84.4401L121.948 97.5472V173.036L144.652 159.929V145.263" fill="#181D29"/>
<path d="M144.652 134.58V84.4401L121.948 97.5472V173.036L144.652 159.929V145.263" stroke="#939393" stroke-width="2" stroke-linecap="round" stroke-linejoin="round"/>
<path d="M99.2444 116.858V84.4401L121.948 97.5472V173.036L99.2444 159.929V133.216" fill="#181D29"/>
<path d="M99.2444 116.858V84.4401L121.948 97.5472V173.036L99.2444 159.929V133.216" stroke="#939393" stroke-width="2" stroke-linecap="round" stroke-linejoin="round"/>
<path d="M134.557 108.337V156.83" stroke="#679BFF" stroke-width="2" stroke-linecap="round" stroke-linejoin="round"/>
<path d="M109.252 130.151V156.972" stroke="#679BFF" stroke-width="2" stroke-linecap="round" stroke-linejoin="round"/>
<path d="M109.252 100.388V117.88" stroke="#679BFF" stroke-width="2" stroke-linecap="round" stroke-linejoin="round"/>
</g>
<g clip-path="url(#clip2)">
<path d="M139.333 122.085L162.037 135.192L184.741 122.085L162.037 108.977L139.333 122.085Z" fill="#181D29" stroke="#939393" stroke-width="2" stroke-linecap="round" stroke-linejoin="round"/>
<path d="M184.741 157.558V122.084L162.037 135.192V196.014L184.741 182.907V168.24" fill="#181D29"/>
<path d="M184.741 157.558V122.084L162.037 135.192V196.014L184.741 182.907V168.24" stroke="#939393" stroke-width="2" stroke-linecap="round" stroke-linejoin="round"/>
<path d="M139.333 139.836V122.084L162.037 135.192V196.014L139.333 182.907V156.194" fill="#181D29"/>
<path d="M139.333 139.836V122.084L162.037 135.192V196.014L139.333 182.907V156.194" stroke="#939393" stroke-width="2" stroke-linecap="round" stroke-linejoin="round"/>
<path d="M174.646 136.204V179.808" stroke="#679BFF" stroke-width="2" stroke-linecap="round" stroke-linejoin="round"/>
<path d="M149.341 153.129V179.949" stroke="#679BFF" stroke-width="2" stroke-linecap="round" stroke-linejoin="round"/>
<path d="M149.341 136.077V143.899" stroke="#679BFF" stroke-width="2" stroke-linecap="round" stroke-linejoin="round"/>
</g>
<circle r="0.619622" transform="matrix(0.866045 -0.499967 0.866045 0.499967 81.2596 37.7699)" stroke="#679BFF"/>
<g opacity="0.6">
<circle r="5.0582" transform="matrix(0.866044 -0.499967 0.866044 0.499967 81.2596 37.7698)" stroke="#679BFF" stroke-width="2"/>
</g>
<g opacity="0.2">
<circle r="13.3348" transform="matrix(0.866044 -0.499967 0.866044 0.499967 81.2596 37.7698)" stroke="#679BFF" stroke-width="2"/>
</g>
<g opacity="0.1">
<circle r="24.0604" transform="matrix(0.866044 -0.499968 0.866044 0.499968 81.2597 37.7699)" stroke="#679BFF" stroke-width="2"/>
</g>
<circle r="1.03596" transform="matrix(0.866044 -0.499968 0.866044 0.499968 162.207 122.036)" stroke="#679BFF" stroke-width="2"/>
<g opacity="0.8">
<circle r="4.42298" transform="matrix(0.866044 -0.499968 0.866044 0.499968 162.207 122.036)" stroke="#679BFF" stroke-width="2"/>
</g>
<g opacity="0.4">
<circle r="9.22135" transform="matrix(0.866044 -0.499968 0.866044 0.499968 162.207 122.036)" stroke="#679BFF" stroke-width="2"/>
</g>
<g opacity="0.2">
<circle r="15.4309" transform="matrix(0.866044 -0.499967 0.866044 0.499967 162.207 122.036)" stroke="#679BFF" stroke-width="2"/>
</g>
<g opacity="0.1">
<circle r="24.463" transform="matrix(0.866044 -0.499967 0.866044 0.499967 162.207 122.036)" stroke="#679BFF" stroke-width="2"/>
</g>
<path d="M81.6444 31.8264C81.6444 31.8264 87.3689 12.0688 100.187 22.6947C113.004 33.3206 122.711 82.1333 122.711 82.1333" stroke="url(#paint0_linear)" stroke-width="4" stroke-linecap="square"/>
<path d="M122.711 82.3448C122.711 82.3448 128.231 67.8353 140.591 75.6387C152.951 83.4421 162.311 119.289 162.311 119.289" stroke="url(#paint1_linear)" stroke-width="4" stroke-linecap="square"/>
<g clip-path="url(#clip3)">
<path d="M162.311 121.281C162.311 121.281 158.726 118.592 158.726 115.903C158.726 113.663 160.519 112.318 162.311 112.318C164.104 112.318 165.896 113.663 165.896 115.903C165.896 118.592 162.311 121.281 162.311 121.281Z" fill="#181D29" stroke="#679BFF" stroke-width="2"/>
</g>
<defs>
<linearGradient id="paint0_linear" x1="122.711" y1="82.1333" x2="81.6444" y2="82.1333" gradientUnits="userSpaceOnUse">
<stop stop-color="#679BFF"/>
<stop offset="1" stop-color="#679BFF" stop-opacity="0"/>
</linearGradient>
<linearGradient id="paint1_linear" x1="162.311" y1="119.289" x2="122.711" y2="119.289" gradientUnits="userSpaceOnUse">
<stop stop-color="#679BFF"/>
<stop offset="1" stop-color="#679BFF" stop-opacity="0"/>
</linearGradient>
<clipPath id="clip0">
<rect width="58.6667" height="129.556" fill="white" transform="translate(51.8223 20.4885)"/>
</clipPath>
<clipPath id="clip1">
<rect width="47.4222" height="103.644" fill="white" transform="translate(98.2666 70.3552)"/>
</clipPath>
<clipPath id="clip2">
<rect width="47.4222" height="103.644" fill="white" transform="translate(138.356 93.333)"/>
</clipPath>
<clipPath id="clip3">
<rect width="10.7556" height="10.7555" fill="white" transform="translate(156.933 111.422)"/>
</clipPath>
</defs>
</svg>
