<svg width="220" height="220" viewBox="0 0 220 220" fill="none" xmlns="http://www.w3.org/2000/svg">
<rect x="1.73209" width="107.459" height="107.459" transform="matrix(0.866044 -0.499967 0.866044 0.499967 15.4832 151.519)" fill="#181D29" stroke="#939393" stroke-width="2"/>
<path d="M137.647 168.949L147.833 95.5555L159.419 156.379L137.647 168.949Z" fill="#181D29" stroke="#939393" stroke-width="2" stroke-linecap="round" stroke-linejoin="round"/>
<path d="M120.957 147.986L122.61 140.082L132.939 172.353L113.521 183.564L118.408 160.175" fill="#181D29"/>
<path d="M120.957 147.986L122.61 140.082L132.939 172.353L113.521 183.564L118.408 160.175" stroke="#679BFF" stroke-width="2" stroke-linecap="round" stroke-linejoin="round"/>
<g clip-path="url(#clip0)">
<path d="M137.769 113.287V125.487L59.8107 170.497V80.4779L75.6472 71.3347" fill="#181D29"/>
<path d="M137.769 113.287V125.487L59.8107 170.497V80.4779L75.6472 71.3347" stroke="#939393" stroke-width="1.67345" stroke-linecap="round" stroke-linejoin="round"/>
<path d="M85.8766 65.4281L137.769 35.4677V99.4455" fill="#181D29"/>
<path d="M85.8766 65.4281L137.769 35.4677V99.4455" stroke="#939393" stroke-width="1.67345" stroke-linecap="round" stroke-linejoin="round"/>
<path d="M70.8929 116.343L64.6973 119.92V83.6528L132.883 44.2859V67.5501" fill="#181D29"/>
<path d="M70.8929 116.343L64.6973 119.92V83.6528L132.883 44.2859V67.5501" stroke="#939393" stroke-width="1.67345" stroke-linecap="round" stroke-linejoin="round"/>
<path d="M132.883 73.946V80.5535L84.6571 108.397" fill="#181D29"/>
<path d="M132.883 73.946V80.5535L84.6571 108.397" stroke="#939393" stroke-width="1.67345" stroke-linecap="round" stroke-linejoin="round"/>
<path d="M96.98 76.6392L92.699 76.2551V94.9847L106.753 77.5254L102.489 77.1414" fill="#181D29"/>
<path d="M96.98 76.6392L92.699 76.2551V94.9847L106.753 77.5254L102.489 77.1414" stroke="#679BFF" stroke-width="1.67345" stroke-linecap="round" stroke-linejoin="round"/>
<path d="M64.7272 135.605V124.925L105.359 101.467V130.683" fill="#181D29"/>
<path d="M64.7272 135.605V124.925L105.359 101.467V130.683" stroke="#939393" stroke-width="1.67345" stroke-linecap="round" stroke-linejoin="round"/>
<path d="M100.442 141.104L64.7272 161.725V141.139" fill="#181D29"/>
<path d="M100.442 141.104L64.7272 161.725V141.139" stroke="#939393" stroke-width="1.67345" stroke-linecap="round" stroke-linejoin="round"/>
<path d="M72.0996 149.29L78.6406 131.122L86.0813 141.218L72.0996 149.29Z" fill="#181D29" stroke="#939393" stroke-width="1.67345" stroke-linecap="round" stroke-linejoin="round"/>
<path d="M87.3604 125.186L89.1598 120.75L100.408 132.946L79.2631 145.154L84.5845 132.028" fill="#181D29"/>
<path d="M87.3604 125.186L89.1598 120.75L100.408 132.946L79.2631 145.154L84.5845 132.028" stroke="#679BFF" stroke-width="1.67345" stroke-linecap="round" stroke-linejoin="round"/>
<path d="M73.0632 125.307C73.3219 125.03 73.6005 124.804 73.8819 124.642C74.2353 124.432 74.5846 124.325 74.8982 124.332C75.2119 124.339 75.4802 124.459 75.6789 124.682C75.8776 124.905 76.0006 125.223 76.0367 125.608C76.0728 125.993 76.0209 126.433 75.8858 126.888C75.7506 127.343 75.5364 127.799 75.2623 128.215C74.9883 128.631 74.6631 128.994 74.3159 129.271C73.9688 129.548 73.6106 129.731 73.2736 129.802C72.9365 129.874 72.6313 129.832 72.3853 129.682" fill="#181D29"/>
<path d="M73.0632 125.307C73.3219 125.03 73.6005 124.804 73.8819 124.642C74.2353 124.432 74.5846 124.325 74.8982 124.332C75.2119 124.339 75.4802 124.459 75.6789 124.682C75.8776 124.905 76.0006 125.223 76.0367 125.608C76.0728 125.993 76.0209 126.433 75.8858 126.888C75.7506 127.343 75.5364 127.799 75.2623 128.215C74.9883 128.631 74.6631 128.994 74.3159 129.271C73.9688 129.548 73.6106 129.731 73.2736 129.802C72.9365 129.874 72.6313 129.832 72.3853 129.682" stroke="#679BFF" stroke-width="1.67345" stroke-linecap="round" stroke-linejoin="round"/>
<path d="M111.085 98.1604L128.858 87.8995" stroke="#939393" stroke-width="1.67345" stroke-linecap="round" stroke-linejoin="round"/>
<path d="M111.085 102.252L131.958 90.2013" stroke="#939393" stroke-width="1.67345" stroke-linecap="round" stroke-linejoin="round"/>
<path d="M111.085 106.348L128.986 96.0137" stroke="#679BFF" stroke-width="1.67345" stroke-linecap="round" stroke-linejoin="round"/>
<path d="M111.085 110.445L131.958 98.3942" stroke="#939393" stroke-width="1.67345" stroke-linecap="round" stroke-linejoin="round"/>
<path d="M111.085 114.541L129.992 103.626" stroke="#939393" stroke-width="1.67345" stroke-linecap="round" stroke-linejoin="round"/>
<path d="M111.085 118.633L129.685 107.894" stroke="#679BFF" stroke-width="1.67345" stroke-linecap="round" stroke-linejoin="round"/>
<path d="M122.244 116.287L131.958 110.679" stroke="#939393" stroke-width="1.67345" stroke-linecap="round" stroke-linejoin="round"/>
<path d="M111.085 122.729L115.217 120.344" stroke="#939393" stroke-width="1.67345" stroke-linecap="round" stroke-linejoin="round"/>
<path d="M111.085 126.826L131.958 114.775" stroke="#679BFF" stroke-width="1.67345" stroke-linecap="round" stroke-linejoin="round"/>
<path d="M126.585 121.974L129.787 120.125" stroke="#679BFF" stroke-width="1.67345" stroke-linecap="round" stroke-linejoin="round"/>
<path d="M111.085 130.922L121.004 125.196" stroke="#679BFF" stroke-width="1.67345" stroke-linecap="round" stroke-linejoin="round"/>
<path d="M111.085 135.014L131.958 122.963" stroke="#939393" stroke-width="1.67345" stroke-linecap="round" stroke-linejoin="round"/>
</g>
<path d="M93.3778 48.8889L93.3778 14.1778" stroke="url(#paint0_linear)" stroke-width="4" stroke-linecap="square"/>
<path d="M83.1111 22.4889L83.1111 57.2" stroke="url(#paint1_linear)" stroke-width="4" stroke-linecap="square"/>
<defs>
<linearGradient id="paint0_linear" x1="92.3778" y1="14.1778" x2="92.3778" y2="48.8889" gradientUnits="userSpaceOnUse">
<stop stop-color="#679BFF"/>
<stop offset="0.294502" stop-color="#679BFF" stop-opacity="0.4"/>
<stop offset="1" stop-color="#679BFF" stop-opacity="0"/>
</linearGradient>
<linearGradient id="paint1_linear" x1="82.1111" y1="57.2" x2="82.1111" y2="22.4889" gradientUnits="userSpaceOnUse">
<stop stop-color="#679BFF"/>
<stop offset="0.294502" stop-color="#679BFF" stop-opacity="0.4"/>
<stop offset="1" stop-color="#679BFF" stop-opacity="0"/>
</linearGradient>
<clipPath id="clip0">
<rect width="91.0036" height="91.0037" fill="white" transform="matrix(0.866025 -0.5 0 1 59.3843 80.231)"/>
</clipPath>
</defs>
</svg>
