<svg width="1440" height="603" viewBox="0 0 1440 603" fill="none" xmlns="http://www.w3.org/2000/svg">
<g clip-path="url(#clip0)">
<ellipse cx="41.0188" cy="291.304" rx="188.892" ry="189.304" fill="#929292"/>
<ellipse cx="41.0188" cy="291.304" rx="188.892" ry="189.304" fill="url(#paint0_radial)" fill-opacity="0.5"/>
<path fill-rule="evenodd" clip-rule="evenodd" d="M382.147 167.672C395.719 207.445 245.701 294.671 47.0732 362.496C-151.554 430.322 -323.576 453.062 -337.147 413.289C-344.972 390.357 -298.413 351.649 -219.51 309.981C-219.835 315.335 -220 320.736 -220 326.178C-220 337.306 -219.31 348.262 -217.972 359C-202.514 348.672 -182.677 337.276 -159.364 325.309C-171.6 334.446 -177.584 342.014 -175.804 347.23C-169.24 366.468 -59.5407 346.421 69.2162 302.455C197.973 258.488 297.03 207.251 290.466 188.013C286.952 177.717 253.896 178.674 204.188 188.528C199.08 180.43 193.534 172.672 187.586 165.292C295.911 142.394 373.23 141.54 382.147 167.672Z" fill="#A7A7A7"/>
<path fill-rule="evenodd" clip-rule="evenodd" d="M382.147 167.672C395.719 207.445 245.701 294.671 47.0732 362.496C-151.554 430.322 -323.576 453.062 -337.147 413.289C-344.972 390.357 -298.413 351.649 -219.51 309.981C-219.835 315.335 -220 320.736 -220 326.178C-220 337.306 -219.31 348.262 -217.972 359C-202.514 348.672 -182.677 337.276 -159.364 325.309C-171.6 334.446 -177.584 342.014 -175.804 347.23C-169.24 366.468 -59.5407 346.421 69.2162 302.455C197.973 258.488 297.03 207.251 290.466 188.013C286.952 177.717 253.896 178.674 204.188 188.528C199.08 180.43 193.534 172.672 187.586 165.292C295.911 142.394 373.23 141.54 382.147 167.672Z" fill="url(#paint1_linear)"/>
<g opacity="0.2">
<circle cx="1133.5" cy="120.5" r="17.5" fill="#3E3E3E"/>
<circle cx="1133.5" cy="120.5" r="17.5" fill="url(#paint2_radial)" fill-opacity="0.5"/>
</g>
<g opacity="0.5">
<circle cx="1424.5" cy="394.5" r="42.5" fill="#616161"/>
<circle cx="1424.5" cy="394.5" r="42.5" fill="url(#paint3_radial)" fill-opacity="0.5"/>
</g>
<line x1="644" y1="471" x2="644" y2="497" stroke="#A467DE" stroke-width="2" stroke-linecap="square" stroke-dasharray="2 6"/>
<line x1="644" y1="471" x2="644" y2="497" stroke="#121212" stroke-opacity="0.16" stroke-width="2" stroke-linecap="square" stroke-dasharray="2 6"/>
<line x1="657" y1="484" x2="631" y2="484" stroke="#A467DE" stroke-width="2" stroke-linecap="square" stroke-dasharray="2 6"/>
<line x1="657" y1="484" x2="631" y2="484" stroke="#121212" stroke-opacity="0.16" stroke-width="2" stroke-linecap="square" stroke-dasharray="2 6"/>
<line x1="584" y1="43" x2="584" y2="69" stroke="#A467DE" stroke-width="2" stroke-linecap="square" stroke-dasharray="2 6"/>
<line x1="584" y1="43" x2="584" y2="69" stroke="#121212" stroke-opacity="0.16" stroke-width="2" stroke-linecap="square" stroke-dasharray="2 6"/>
<line x1="597" y1="56" x2="571" y2="56" stroke="#A467DE" stroke-width="2" stroke-linecap="square" stroke-dasharray="2 6"/>
<line x1="597" y1="56" x2="571" y2="56" stroke="#121212" stroke-opacity="0.16" stroke-width="2" stroke-linecap="square" stroke-dasharray="2 6"/>
<line x1="1149" y1="50" x2="1149" y2="76" stroke="#A467DE" stroke-width="2" stroke-linecap="square" stroke-dasharray="2 6"/>
<line x1="1149" y1="50" x2="1149" y2="76" stroke="#121212" stroke-opacity="0.16" stroke-width="2" stroke-linecap="square" stroke-dasharray="2 6"/>
<line x1="1162" y1="63" x2="1136" y2="63" stroke="#A467DE" stroke-width="2" stroke-linecap="square" stroke-dasharray="2 6"/>
<line x1="1162" y1="63" x2="1136" y2="63" stroke="#121212" stroke-opacity="0.16" stroke-width="2" stroke-linecap="square" stroke-dasharray="2 6"/>
<line x1="1162" y1="484" x2="1162" y2="510" stroke="#A467DE" stroke-width="2" stroke-linecap="square" stroke-dasharray="2 6"/>
<line x1="1162" y1="484" x2="1162" y2="510" stroke="#121212" stroke-opacity="0.16" stroke-width="2" stroke-linecap="square" stroke-dasharray="2 6"/>
<line x1="1175" y1="497" x2="1149" y2="497" stroke="#A467DE" stroke-width="2" stroke-linecap="square" stroke-dasharray="2 6"/>
<line x1="1175" y1="497" x2="1149" y2="497" stroke="#121212" stroke-opacity="0.16" stroke-width="2" stroke-linecap="square" stroke-dasharray="2 6"/>
<line x1="332" y1="376" x2="332" y2="402" stroke="#A467DE" stroke-width="2" stroke-linecap="square" stroke-dasharray="2 6"/>
<line x1="332" y1="376" x2="332" y2="402" stroke="#121212" stroke-opacity="0.16" stroke-width="2" stroke-linecap="square" stroke-dasharray="2 6"/>
<line x1="345" y1="389" x2="319" y2="389" stroke="#A467DE" stroke-width="2" stroke-linecap="square" stroke-dasharray="2 6"/>
<line x1="345" y1="389" x2="319" y2="389" stroke="#121212" stroke-opacity="0.16" stroke-width="2" stroke-linecap="square" stroke-dasharray="2 6"/>
<line x1="1102" y1="255" x2="1102" y2="281" stroke="#A467DE" stroke-width="2" stroke-linecap="square" stroke-dasharray="2 6"/>
<line x1="1102" y1="255" x2="1102" y2="281" stroke="#121212" stroke-opacity="0.16" stroke-width="2" stroke-linecap="square" stroke-dasharray="2 6"/>
<line x1="1115" y1="268" x2="1089" y2="268" stroke="#A467DE" stroke-width="2" stroke-linecap="square" stroke-dasharray="2 6"/>
<line x1="1115" y1="268" x2="1089" y2="268" stroke="#121212" stroke-opacity="0.16" stroke-width="2" stroke-linecap="square" stroke-dasharray="2 6"/>
<path d="M584.071 306.6L605.031 347.893C602.484 352.758 600.037 363.557 600.037 363.557L612.149 378.322C618.501 372.977 622.996 355.915 622.996 355.915L600.143 290.866C593.693 296.155 587.962 300.879 584.071 306.6Z" fill="#7215CC"/>
<path d="M573.335 330.965L600.037 363.557C600.037 363.557 602.533 352.786 605.031 347.893L584.683 307.802C574.938 320.723 573.335 330.965 573.335 330.965Z" fill="#A3A3A3"/>
<path d="M600.143 290.867C600.143 290.867 587.377 298.386 580.696 308.374C572.264 320.943 571.775 323.599 570.396 329.269C570.132 330.292 573.335 330.965 573.335 330.965C573.335 330.965 572.978 322.987 584.732 307.831C596.487 292.674 600.143 290.867 600.143 290.867Z" fill="#6B6B6B"/>
<path d="M622.997 355.915C622.997 355.915 620.481 355.181 618.56 359.753C616.638 364.325 612.198 378.35 612.198 378.35C612.198 378.35 616.192 374.713 619.534 366.324C622.875 357.934 622.997 355.915 622.997 355.915Z" fill="#36176E"/>
<path opacity="0.58" d="M600.143 290.866C600.143 290.866 575.14 313.133 573.335 330.965L577.347 335.893C577.347 335.893 579.667 314.115 600.143 290.866Z" fill="#DADADA"/>
<path d="M596.275 326.184L587.498 348.285" stroke="black" stroke-width="1.4207" stroke-miterlimit="10"/>
<path d="M602.22 355.478L591.351 338.558" stroke="black" stroke-width="1.4207" stroke-miterlimit="10"/>
<path d="M503.152 342.69C505.782 342.772 508.384 342.903 510.966 342.957C504.62 346.934 499.557 352.762 496.51 359.624C499.49 356.838 503.489 355.228 507.593 355.246C503.692 361.55 499.812 367.93 495.912 374.234C498.087 372.616 500.262 370.998 502.408 369.429C500.098 376.259 496.149 382.534 491.054 387.625C497.779 386.61 503.998 382.625 507.784 376.973C508.956 375.169 509.933 373.251 511.273 371.608C512.613 369.966 514.422 368.529 516.493 368.222C515.309 371.065 514.125 373.908 512.99 376.779C520.051 372.693 519.275 361.142 526.099 356.788C525.765 359.403 525.43 362.018 525.019 364.654C527.254 362.027 529.49 359.399 531.648 356.792C534.377 353.535 537.241 350.159 538.374 346.046C531.632 343.133 524.676 339.117 517.6 337.122C515.232 336.473 512.963 337.122 510.715 337.849C509.19 338.34 507.756 339.014 506.461 339.899C505.828 340.317 503.734 342.7 503.152 342.69Z" fill="#7215CC"/>
<path d="M605.462 298.509C605.462 298.509 583.927 317.031 569.019 329.844C562.286 335.623 556.913 340.292 555.469 341.549C550.948 345.534 535.166 337.011 530.559 333.567C525.902 330.094 513.31 317.404 515.818 311.929C516.604 310.228 519.502 303.738 523.207 295.624C531.278 277.687 542.891 251.803 542.891 251.803C550.721 248.422 557.37 248.669 557.37 248.669C558.743 246.065 562.769 241.467 562.769 241.467L585.549 260.04L609.818 276.598C609.818 276.598 606.568 281.775 604.419 283.8C604.37 283.772 606.454 290.003 605.462 298.509Z" fill="#A3A3A3"/>
<path d="M532.853 330.385L517.631 317.613L510.518 333.099C510.518 333.099 514.688 340.469 521.505 345.515C528.294 350.611 536.592 352.528 536.592 352.528L549.451 341.339L532.853 330.385Z" fill="#535353"/>
<path d="M537.042 352.2L536.613 352.605C536.613 352.605 528.392 350.667 521.526 345.593C514.66 340.518 510.539 333.176 510.539 333.176L517.652 317.69L520.475 320.039L519.483 322.209L546.727 341.987C546.727 341.987 539.454 341.576 531.982 336.87C524.168 331.967 518.75 324.724 518.75 324.724L514.206 333.725C514.206 333.725 518.375 341.096 525.164 346.191C529.29 349.226 534.037 351.183 537.042 352.2Z" fill="#383838"/>
<path d="M569.019 329.844C562.287 335.623 556.913 340.292 555.47 341.549C550.948 345.534 535.167 337.011 530.559 333.567C525.902 330.094 513.31 317.404 515.818 311.929C516.604 310.228 519.503 303.738 523.208 295.624C523.347 295.835 538.398 320.329 569.019 329.844Z" fill="#676767"/>
<path d="M605.74 294.293C605.74 294.293 587.657 289.078 571.5 276.68C571.5 276.68 589.63 293.352 605.49 298.459L605.74 294.293Z" fill="#DADADA"/>
<path opacity="0.63" d="M533.119 335.241C532.07 334.57 531.216 334.012 530.538 333.49C525.882 330.017 513.29 317.327 515.797 311.852C516.584 310.151 519.482 303.661 523.187 295.547C531.257 277.61 542.87 251.726 542.87 251.726C550.7 248.345 557.35 248.592 557.35 248.592C558.722 245.988 562.748 241.39 562.748 241.39L567.557 245.277C566.768 246.192 563.552 249.952 562.349 252.262C562.349 252.262 555.749 252.043 547.87 255.396C547.87 255.396 536.228 281.329 528.186 299.217C524.559 307.31 521.611 313.772 520.797 315.522C518.587 320.255 527.613 330.299 533.119 335.241Z" fill="#A3A3A3"/>
<path d="M544.607 282.313L488.147 268.459C484.216 272.328 473.894 277.536 473.894 277.536L451.209 267.509C453.526 259.311 469.616 250.446 469.616 250.446L552.902 261.045C550.656 269.348 548.666 276.754 544.607 282.313Z" fill="#7215CC"/>
<path d="M524.003 299.675L473.894 277.537C473.894 277.537 484.265 272.356 488.147 268.459L542.883 281.906C534.208 295.575 524.003 299.675 524.003 299.675Z" fill="#A3A3A3"/>
<path d="M609.72 276.542C608.894 277.632 597.736 270.603 584.71 260.927C571.712 251.202 561.845 242.501 562.622 241.382C563.448 240.292 575.735 245.818 588.761 255.494C601.808 265.247 610.545 275.451 609.72 276.542Z" fill="#B5B5B5"/>
<path d="M603.814 271.5C603.426 272.059 595.361 266.685 585.783 259.522C576.204 252.359 568.823 246.138 569.183 245.628C569.572 245.068 578.215 249.667 587.794 256.83C597.373 263.993 604.223 271.017 603.814 271.5Z" fill="#7215CC"/>
<path opacity="0.69" d="M530.525 305.008L521.528 308.826L517.052 318.389" stroke="#515151" stroke-width="1.6215" stroke-miterlimit="10"/>
<path opacity="0.69" d="M535.168 309.974L526.431 313.681L521.459 324.329" stroke="#515151" stroke-width="1.6215" stroke-miterlimit="10"/>
<path opacity="0.69" d="M541.759 315.412L532.193 319.424L526.897 330.408" stroke="#515151" stroke-width="1.6215" stroke-miterlimit="10"/>
<path opacity="0.69" d="M548.416 320.17L537.899 325.265L533.119 335.24" stroke="#515151" stroke-width="1.6215" stroke-miterlimit="10"/>
<path opacity="0.69" d="M554.755 323.895L544.759 330.01L540.705 339.294" stroke="#515151" stroke-width="1.6215" stroke-miterlimit="10"/>
<path d="M562.238 327.562L552.825 333.687L549.159 342.412" stroke="#515151" stroke-width="1.6215" stroke-miterlimit="10"/>
<path opacity="0.69" d="M525.87 299.382L520.175 302.233" stroke="#515151" stroke-width="1.6215" stroke-miterlimit="10"/>
<path d="M542.074 290.32L544.101 292.013L528.052 313.702L548.496 328.967L563.191 310.414L577.292 319.927L564.969 331.882L566.92 333.139L581.946 319.218L562.32 305.928L551.093 320.736L535.908 309.03L548.74 291.556L543.714 287.479" fill="black"/>
<path opacity="0.69" d="M519.532 322.237L514.4 332.597L511.468 334.169" stroke="#515151" stroke-width="1.6215" stroke-miterlimit="10"/>
<path opacity="0.69" d="M528.063 331.668L522.902 342.077L519.548 343.928" stroke="#515151" stroke-width="1.6215" stroke-miterlimit="10"/>
<path opacity="0.69" d="M537.1 337.735L532.97 348.282L529.86 350.274" stroke="#515151" stroke-width="1.6215" stroke-miterlimit="10"/>
<path d="M544.383 286.886L550.002 291.632L536.967 309.119L550.579 319.59L562.228 304.503L571.033 310.632L570.455 311.408L562.32 305.928L550.98 320.932L535.823 309.177L548.74 291.556L543.714 287.479L544.383 286.886Z" fill="#535353"/>
<path d="M535.568 310.493L532.149 315.07L532.965 315.679L536.383 311.102L535.568 310.493Z" fill="black"/>
<path d="M548.309 320.038L544.89 324.614L545.524 325.088L548.943 320.512L548.309 320.038Z" fill="black"/>
<path d="M545.795 292.093L544.306 294.087L544.759 294.425L546.249 292.432L545.795 292.093Z" fill="black"/>
<path d="M562.86 307.618L561.37 309.612L561.824 309.95L563.313 307.956L562.86 307.618Z" fill="black"/>
<path d="M552.853 261.016C552.853 261.016 551.703 276.809 544.511 286.437C535.422 298.561 532.87 299.7 527.428 302.566C526.408 303.088 523.926 299.696 523.926 299.696C523.926 299.696 532.778 298.276 542.806 281.926C552.939 265.506 552.853 261.016 552.853 261.016Z" fill="#6B6B6B"/>
<path d="M598.438 295.629L580.303 317.878L581.946 319.218L605.462 298.508L600.234 295.686L598.438 295.629Z" fill="#DADADA"/>
<path d="M469.616 250.446C469.616 250.446 471.765 253.058 467.9 256.247C464.034 259.435 451.16 267.481 451.16 267.481C451.16 267.481 452.867 262.262 460.223 256.648C467.628 251.061 469.616 250.446 469.616 250.446Z" fill="#36176E"/>
<path opacity="0.38" d="M562.272 252.282C562.272 252.282 573.219 262.391 579.193 266.297C579.193 266.297 565.652 258.871 556.867 252.82L562.272 252.282Z" fill="#A3A3A3"/>
<path d="M534.647 322.866L532.576 329.507L538.94 326.063L534.647 322.866Z" fill="black"/>
<path d="M579.326 250.569L586.799 258.214L595.838 262.127" stroke="#B5B5B5" stroke-width="0.9816" stroke-miterlimit="10"/>
<path d="M601.397 270.822L586.799 258.214L584.33 259.662" stroke="#B5B5B5" stroke-width="0.9816" stroke-miterlimit="10"/>
<path d="M568.906 246.447L586.799 258.214L602.982 269.321" stroke="#B5B5B5" stroke-width="0.9816" stroke-miterlimit="10"/>
<path d="M604.37 283.772C604.37 283.772 595.618 278.457 591.343 275.793C587.118 273.158 603.127 282.531 605.731 282.206L604.37 283.772Z" fill="#DADADA"/>
<path d="M551.103 249.23C551.103 249.23 575.772 276.86 605.469 289.108" stroke="#515151" stroke-width="1.6215" stroke-miterlimit="10"/>
<path d="M579.839 274.115C582.592 271.721 582.109 268.372 582.109 268.372L586.626 262.359" stroke="#515151" stroke-width="1.6215" stroke-miterlimit="10"/>
<path d="M576.685 271.772L570.576 274.775L543.651 314.284" stroke="#515151" stroke-width="1.6215" stroke-miterlimit="10"/>
<path opacity="0.58" d="M552.853 261.016C552.853 261.016 542.305 293.653 524.003 299.675L516.399 296.33C516.399 296.33 538.867 288.861 552.853 261.016Z" fill="#DADADA"/>
<path d="M582.498 305.365L567.417 295.743L566.907 293.686L573.491 284.883L580.109 293.667L588.561 297.241L582.498 305.365Z" fill="#676767"/>
<path d="M582.96 307.395L573.818 304.338L567.417 295.744L573.451 287.668L579.853 296.262L588.994 299.319L582.96 307.395Z" fill="black"/>
<path d="M572.994 306.67C572.994 306.67 574.202 308.085 572.068 309.858C569.963 311.581 562.879 316.046 562.879 316.046C562.879 316.046 563.81 313.188 567.872 310.113C571.933 307.037 572.994 306.67 572.994 306.67Z" fill="#327FBF"/>
<path d="M563.76 249.153L562.944 248.543L561.285 250.764L562.101 251.373L563.76 249.153Z" fill="black"/>
<path d="M567.07 252.244L566.254 251.635L564.596 253.855L565.411 254.465L567.07 252.244Z" fill="black"/>
<path d="M516.594 273.258L497.37 287.89" stroke="black" stroke-width="1.6353" stroke-miterlimit="10"/>
<path d="M481.496 273.305L505.789 281.453" stroke="black" stroke-width="1.6353" stroke-miterlimit="10"/>
<path d="M586.803 279.246L589.204 277.236L596.363 281.239L597.285 285.297L586.803 279.246Z" fill="#515151"/>
<path d="M602.641 281.337L606.365 275.454C606.365 275.454 609.009 276.981 609.72 276.542C608.144 279.159 605.399 282.668 605.399 282.668L602.641 281.337Z" fill="#DADADA"/>
<path d="M554.517 278.043C554.517 278.043 557.74 282.189 562.888 285.488" stroke="#515151" stroke-width="1.6215" stroke-miterlimit="10"/>
<path d="M555.49 278.791C556.462 277.49 556.824 276.117 556.299 275.724C555.773 275.332 554.559 276.068 553.587 277.37C552.615 278.671 552.253 280.044 552.778 280.437C553.304 280.829 554.518 280.093 555.49 278.791Z" fill="black"/>
<path d="M553.726 260.41C553.726 260.41 560.29 267.139 565.802 270.713L553.726 260.41Z" fill="black"/>
<path d="M553.726 260.41C553.726 260.41 560.29 267.139 565.802 270.713" stroke="#7215CC" stroke-width="2.9448" stroke-miterlimit="10"/>
<path d="M600.069 276.652L594.975 277.132L589.488 272.069L594.391 261.414L604.885 266.265L600.069 276.652Z" fill="#180249"/>
<path d="M637.22 249.21L633.641 229.362L612.549 214.509L613.115 224.808L594.672 221.528L603.413 243.059L592.293 241.038L610.599 270.271L646.214 259.937L648.372 256.239L637.22 249.21Z" fill="#E3B9B7"/>
<path d="M642.517 252.485L639.214 261.699L646.214 259.937L648.39 256.185L642.517 252.485Z" fill="#36176E"/>
<path d="M612.851 239.297L628.016 244.601" stroke="black" stroke-width="2" stroke-miterlimit="10"/>
<path d="M622.384 242.169L620.484 247.081L626.363 249.118L628.138 244.224L622.384 242.169Z" fill="black"/>
<path d="M618.599 260.444L620.368 259.41L624.499 266.499L622.37 267.123L618.599 260.444Z" fill="black"/>
<path d="M658.772 223.996L642.387 204.195L651.09 197.396L608.115 189.623L608.897 180.478L587.964 193.401L583.228 185.669L577.164 202.252L569.785 200.618L570.293 221.308L561.698 219.753L574.321 241.421L568.931 240.436L586.937 262.016L610.599 270.271L592.293 241.038L603.413 243.059L594.672 221.527L613.115 224.807L612.549 214.509L633.641 229.362L658.772 223.996Z" fill="#36176E"/>
<path d="M658.772 223.996L642.387 204.195L651.09 197.396L608.115 189.623L608.897 180.479L602.835 191.946L636.926 203.246L625.648 207.182L658.772 223.996Z" fill="#7215CC"/>
<path d="M587.291 247.437L581.477 247.385L586.937 262.016L568.931 240.436L574.321 241.421L561.698 219.753L570.293 221.308L569.785 200.617L580.749 228.645L574.892 227.27L587.291 247.437Z" fill="#180249"/>
<path d="M612.548 214.509L629.499 230.569L632.021 247.276L642.517 252.485L637.22 249.21L633.641 229.362L612.548 214.509Z" fill="#FFEAE1"/>
<path opacity="0.44" d="M599.346 222.338L609.569 246.257L599.256 244.678L614.883 268.991L610.599 270.271L592.293 241.038L603.413 243.059L594.672 221.528L599.346 222.338Z" fill="#D38484"/>
<path d="M616.634 235.177L628.524 240.305" stroke="black" stroke-width="2" stroke-miterlimit="10"/>
<path d="M606.994 210.199C605.705 209.957 604.505 209.624 603.253 209.632C602.018 209.587 600.839 209.737 599.697 210.138L599.815 209.046C601.86 210.071 603.444 211.599 604.992 213.055L606.215 214.228L604.535 214.453C602.856 214.679 601.176 214.904 599.551 215.326C597.944 215.694 596.337 216.241 594.731 216.788L594.453 215.269C596.564 215.363 598.641 215.743 600.648 216.338C602.673 216.88 604.575 217.798 606.299 218.895C604.381 218.21 602.392 217.74 600.387 217.324C598.417 216.979 596.377 216.849 594.41 216.861L590.6 216.868L594.114 215.396C595.702 214.725 597.379 214.141 599.129 213.701C600.862 213.314 602.613 213.053 604.329 212.899L603.819 214.279C602.36 212.732 600.884 211.239 599.214 210.159L597.975 209.398L599.332 209.067C600.618 208.773 602.012 208.692 603.284 208.988C604.645 209.194 605.864 209.651 606.994 210.199Z" fill="#7215CC"/>
<path d="M539.456 413.757L531.383 423.914L536.716 427.081L543.294 418.221L539.456 413.757Z" fill="#180249"/>
<path d="M531.867 421.156L525.574 424.398L510.299 460.642L514.764 462.456L529.441 455.762L550.212 426.011L541.274 421.132L531.867 421.156Z" fill="#36176E"/>
<path d="M514.42 447.828L503.119 453.838L499.134 457.119L499.413 458.817L522.001 486.591L528.624 490.179L532.894 486.575L529.919 474.539L528.578 463.512L529.441 455.762L524.514 451.716L520.704 451.544L519.123 453.289L513.795 453.573L511.777 451.19L514.42 447.828Z" fill="#36176E"/>
<path d="M503.119 453.838L509.392 461.417L512.515 468.802L523.096 484.33L528.624 490.179L522.001 486.591L499.413 458.816L499.134 457.119L503.119 453.838Z" fill="#36176E"/>
<path d="M528.624 490.179L528.075 482.564L524.748 479.813L521.194 469.373L517.016 467.772L518.074 462.525L512.389 460.254L508.235 451.105L503.119 453.839L523.096 484.331L528.624 490.179Z" fill="#7215CC"/>
<path d="M529.919 474.539L519.36 454.02L529.441 455.762L528.579 463.512L529.919 474.539Z" fill="#7215CC"/>
<path d="M518.588 450.735L512.414 455.8L508.235 451.105L517.005 446.47L518.588 450.735Z" fill="#36176E"/>
<path d="M520.536 456.07L513.376 455.222L509.661 450.381L510.962 449.675L513.955 453.447L519.468 454.056L520.536 456.07Z" fill="#7215CC"/>
<path d="M522.6 457.219L524.943 457.151L528.413 460.008" stroke="#B128F5" stroke-width="2.2748" stroke-miterlimit="10"/>
<path d="M524.374 457.619L548.049 426.078L549.628 426.891L529.441 455.762L524.374 457.619Z" fill="#7215CC"/>
<path d="M540.676 436.642L534.017 432.983L518.163 442.921" stroke="#180249" stroke-width="1.3334" stroke-miterlimit="10"/>
<path d="M544.465 430.68L542.364 429.281L545.869 423.642" stroke="#7215CC" stroke-width="1.3334" stroke-miterlimit="10"/>
<path d="M524.904 425.905L532.142 422.317L541.03 422.063L548.155 425.935L548.687 425.216L541.274 421.132L531.867 421.156L525.574 424.398L524.904 425.905Z" fill="#180249"/>
<path d="M503.119 453.838L515.99 447.21L525.75 424.039L532.061 420.744L535.463 421.437L528.048 425.384L517.58 449.632L503.495 456.698L499.413 458.816L499.134 457.119L503.119 453.838Z" fill="#180249"/>
<path d="M517.985 446.016L522.542 448.098L517.531 458.897" stroke="#7215CC" stroke-width="1.3334" stroke-miterlimit="10"/>
<path d="M546.142 382.504L558.464 365.523L570.452 352.301L576.407 355.017L579.865 358.822L577.851 373.752L571.235 393.665L549.628 426.891L541.03 422.064L536.315 414.815L546.142 382.504Z" fill="#36176E"/>
<path d="M548.888 383.935L557.549 390.211L569.899 391.563" stroke="#180249" stroke-width="1.3334" stroke-miterlimit="10"/>
<path d="M565.851 399.047L553.828 398.516" stroke="#7215CC" stroke-width="1.3334" stroke-miterlimit="10"/>
<path d="M545.356 424.486L550.096 416.157L553.364 418.175" stroke="#7215CC" stroke-width="1.3334" stroke-miterlimit="10"/>
<path d="M572.78 355.559L561.681 368.06L549.534 384.324L538.393 418.11L536.315 414.814L546.142 382.504L558.464 365.523L570.469 352.247L572.78 355.559Z" fill="#180249"/>
<path d="M548.049 426.079L569.365 392.103L575.375 372.587L577.675 357.513L579.865 358.822L577.85 373.752L571.235 393.665L549.628 426.891L548.049 426.079Z" fill="#7215CC"/>
<path d="M561.376 367.901L567.368 370.689L542.297 421.644" stroke="#180249" stroke-width="1.3334" stroke-miterlimit="10"/>
<path d="M553.109 400.72C554.326 401.118 555.635 400.452 556.032 399.235C556.43 398.017 555.765 396.708 554.547 396.311C553.33 395.914 552.021 396.579 551.623 397.797C551.226 399.014 551.891 400.323 553.109 400.72Z" fill="#7215CC"/>
<path d="M574.34 356.246L569.644 351.859L549.23 342.403L552.724 346.279L574.34 356.246Z" fill="#36176E"/>
<path d="M552.724 346.279L572.421 355.382L574.7 359.338L571.26 366.783L564.039 367.58L550.709 361.209L552.724 346.279Z" fill="#36176E"/>
<path d="M553.872 346.773L552.055 361.826L550.709 361.209L552.724 346.279L553.872 346.773Z" fill="#180249"/>
<path d="M545.656 342.962L543.328 339.704L576.407 355.017L579.866 358.822L545.656 342.962Z" fill="#180249"/>
<path d="M552.544 351.754L574.609 361.986" stroke="#180249" stroke-width="1.3334" stroke-miterlimit="10"/>
<path d="M568.795 356.883L560.069 352.845L558.24 356.798L566.967 360.835L568.795 356.883Z" fill="#7215CC"/>
<path d="M561.002 368.136L563.334 369.194L572.145 368.083L576.203 359.472L575.434 356.722L572.421 355.382L574.7 359.338L571.26 366.783L564.039 367.58L561.869 366.574L561.002 368.136Z" fill="#180249"/>
<path d="M518.773 402.34L505.953 404.334L507.726 410.277L518.568 408.224L518.773 402.34Z" fill="#180249"/>
<path d="M508.178 402.635L501.354 400.752L465.555 417.044L467.608 421.404L482.985 426.404L518.402 418.69L515.11 408.994L508.178 402.635Z" fill="#36176E"/>
<path d="M481.839 409.543L470.868 402.918L466.027 401.221L464.685 402.297L452.568 435.986L452.897 443.516L458.199 445.344L466.952 436.551L475.723 429.758L482.837 426.487L483.754 420.139L481.952 416.805L479.627 416.357L476.634 411.94L477.634 408.981L481.839 409.543Z" fill="#36176E"/>
<path d="M470.867 402.918L467.659 412.235L462.924 418.712L455.04 435.769L452.896 443.517L452.568 435.986L464.685 402.297L466.027 401.221L470.867 402.918Z" fill="#36176E"/>
<path d="M452.896 443.516L459.149 439.171L459.832 434.835L466.933 426.449L466.143 422.03L471.175 420.249L470.181 414.193L475.844 405.9L470.867 402.918L455.04 435.769L452.896 443.516Z" fill="#7215CC"/>
<path d="M466.952 436.552L479.096 416.915L482.837 426.488L475.723 429.759L466.952 436.552Z" fill="#7215CC"/>
<path d="M481.5 414.725L473.464 413.457L475.844 405.901L481.839 409.544L481.5 414.725Z" fill="#36176E"/>
<path d="M477.977 418.967L475.037 412.446L477.226 406.747L478.503 407.523L476.788 411.984L479.151 417.013L477.977 418.967Z" fill="#7215CC"/>
<path d="M478.013 421.346L479.272 423.363L478.645 427.799" stroke="#B128F5" stroke-width="2.2748" stroke-miterlimit="10"/>
<path d="M478.001 424.334L517.792 417.022L518.402 418.69L482.985 426.404L478.001 424.334Z" fill="#7215CC"/>
<path d="M504.156 419.991L501.742 412.787L483.349 409.346" stroke="#180249" stroke-width="1.3334" stroke-miterlimit="10"/>
<path d="M510.983 418.177L510.436 415.696L516.786 413.954" stroke="#7215CC" stroke-width="1.3334" stroke-miterlimit="10"/>
<path d="M510.631 405.279L502.504 403.154L482.229 411.399L470.22 404.771L466.578 403.246L463.291 406.059L464.685 402.297L466.027 401.221L470.867 402.918L482.436 409.338L501.776 400.58L508.6 402.463L510.631 405.279Z" fill="#180249"/>
<path d="M481.236 411.825L483.148 416.395L472.171 420.987" stroke="#7215CC" stroke-width="1.3334" stroke-miterlimit="10"/>
<path d="M499.839 401.405L507.593 403.674L514.298 409.513L516.962 417.161L517.791 417.021L515.11 408.993L508.177 402.634L501.353 400.752L499.839 401.405Z" fill="#180249"/>
<path d="M519.001 369.961L531.323 352.98L543.328 339.704L549.266 342.474L552.725 346.279L550.71 361.209L544.095 381.122L523.126 413.486L514.133 408.589L509.174 402.272L519.001 369.961Z" fill="#36176E"/>
<path d="M518.728 411.1L522.955 403.614L526.223 405.633" stroke="#7215CC" stroke-width="1.3334" stroke-miterlimit="10"/>
<path d="M545.657 342.962L534.541 355.517L522.411 371.728L511.375 405.191L509.174 402.272L519.001 369.961L531.323 352.98L543.328 339.704L545.657 342.962Z" fill="#180249"/>
<path d="M521.547 412.674L542.225 379.56L548.235 360.045L550.535 344.97L552.725 346.28L550.71 361.209L544.095 381.122L523.126 413.486L521.547 412.674Z" fill="#7215CC"/>
<path d="M534.541 355.518L540.533 358.305L515.103 409.084" stroke="#180249" stroke-width="1.3334" stroke-miterlimit="10"/>
<path d="M537.482 351.063L543.886 354.045L549.529 349.877" stroke="#180249" stroke-width="1.3334" stroke-miterlimit="10"/>
<path d="M525.968 388.178C527.186 388.575 528.495 387.91 528.892 386.693C529.289 385.475 528.624 384.166 527.407 383.769C526.189 383.372 524.88 384.037 524.483 385.254C524.086 386.472 524.751 387.781 525.968 388.178Z" fill="#7215CC"/>
<path d="M521.747 371.393L530.409 377.669L542.776 378.967" stroke="#180249" stroke-width="1.3334" stroke-miterlimit="10"/>
<path d="M538.71 386.505L526.688 385.973" stroke="#7215CC" stroke-width="1.3334" stroke-miterlimit="10"/>
<path d="M647.29 303.707L667.935 296.755L671.198 304.293L649.863 310.354L647.29 303.707Z" fill="#180249"/>
<path d="M690.358 301.325L704.784 291.242L700.023 280.459L682.782 283.563L660.395 293.146L657.244 299.312L661.088 308.263L667.971 310.908L690.358 301.325Z" fill="#36176E"/>
<path d="M702.097 284.938L691.859 290.523L659.231 303.884" stroke="#180249" stroke-width="1.3334" stroke-miterlimit="10"/>
<path d="M683.793 283.853L691.859 290.523L690.494 300.551" stroke="#7215CC" stroke-width="1.3334" stroke-miterlimit="10"/>
<path d="M658.245 301.535L661.653 295.576L684.995 285.64L701.169 282.749L700.023 280.459L682.622 283.622L660.395 293.146L657.244 299.312L658.245 301.535Z" fill="#7215CC"/>
<path d="M660.062 305.808L661.088 308.263L667.971 310.908L690.358 301.325L704.784 291.242L703.797 288.893L689.848 298.8L667.303 308.442L660.062 305.808Z" fill="#180249"/>
<path d="M720.09 292.046L724.579 291.958L724.413 289.548L719.855 289.119L717.109 288.866L719.843 288.762L724.293 288.567L724.178 286.62L719.641 285.762L716.797 285.243L719.571 285.245L724.026 285.229L723.878 283.355L719.369 282.245L716.553 281.475L719.332 281.656L723.726 281.964L723.704 281.249L719.124 278.477L716.261 276.761L700.023 280.459L700.551 283.037L701.665 288.835L702.25 292.056L720.09 292.046Z" fill="#E3B9B7"/>
<path d="M720.091 292.047L719.855 289.12L717.109 288.866L719.844 288.762L719.641 285.762L716.798 285.244L719.571 285.245L719.369 282.246L716.553 281.476L719.333 281.656L719.125 278.478L719.119 278.299L716.261 276.761L700.023 280.46L700.552 283.038L701.666 288.836L702.251 292.056L720.091 292.047Z" fill="#36176E"/>
<path d="M700.552 283.037L715.664 279.392L719.212 280.676L719.119 278.299L716.281 276.814L700.023 280.459L700.552 283.037Z" fill="#7215CC"/>
<path d="M704.778 284.854L710.738 283.199L708.894 280.322L700.824 280.345" fill="#36176E"/>
<path d="M710.739 283.198L714.679 281.624L713.768 279.971L708.894 280.322L710.739 283.198Z" fill="#E3B9B7"/>
<path d="M709.721 281.584L701.842 281.959L700.752 280.311L708.894 280.322L709.721 281.584Z" fill="#7215CC"/>
<path d="M704.508 285.919L710.739 283.199L709.878 282.009L703.82 284.545L704.508 285.919Z" fill="#180249"/>
<path d="M701.909 290.313L719.981 290.279L720.091 292.047L702.251 292.056L701.909 290.313Z" fill="#180249"/>
<path d="M604.249 309.102L603.371 305.684L605.7 297.199L615.37 290.614L642.853 296.433L655.728 303.708L653.15 314.156L636.225 316.801L604.249 309.102Z" fill="#36176E"/>
<path d="M623.937 294.549L621.154 305.712" stroke="#180249" stroke-width="1.3334" stroke-miterlimit="10"/>
<path d="M605.707 297.142L615.505 294.051L651.796 301.442L642.853 296.432L615.378 290.557L605.707 297.142Z" fill="#7215CC"/>
<path d="M653.15 314.156L636.777 314.249L605.655 306.999L603.801 304.085L603.371 305.684L604.249 309.102L636.225 316.801L653.15 314.156Z" fill="#180249"/>
<path d="M606.899 321L618.232 294.832L608.08 279.086L580.683 265.687L564.753 266.737L545.792 308.263L545.013 331.805L548.634 335.842L580.424 350.913L606.899 321Z" fill="#36176E"/>
<path d="M548.634 335.842L550.831 310.324L557.516 304.057L573.01 271.334L570.064 266.506L564.753 266.737L545.792 308.263L545.013 331.806" fill="#180249"/>
<path d="M561.745 285.804L572.928 297.662L607.675 313.697" stroke="#180249" stroke-width="1.3334" stroke-miterlimit="10"/>
<path d="M595.073 284.124L583.395 278.708L580.682 265.687" stroke="#180249" stroke-width="1.3334" stroke-miterlimit="10"/>
<path d="M590.229 304.079L595.557 284.282" stroke="#180249" stroke-width="1.3334" stroke-miterlimit="10"/>
<path d="M605.604 277.921L608.097 290.157L595.073 284.124" stroke="#180249" stroke-width="1.3334" stroke-miterlimit="10"/>
<path d="M583.562 315.944L566.682 344.526" stroke="#180249" stroke-width="1.3334" stroke-miterlimit="10"/>
<path d="M596.241 315.738L583.562 315.944L576.042 306.352L582.27 292.916L594.698 292.568L602.486 302.248L596.241 315.738Z" stroke="#7215CC" stroke-width="1.3334" stroke-miterlimit="10"/>
<path d="M592.591 309.788L586.546 309.898L582.868 305.307L585.885 298.795L591.876 298.667L595.59 303.33L592.591 309.788Z" fill="#7215CC"/>
<path d="M549.499 317.325L554.253 319.53L560.496 322.459L573.697 317.188L586.99 323.309L588.712 338.089" stroke="#180249" stroke-width="1.3334" stroke-miterlimit="10"/>
<path d="M558.447 340.59L557.692 331.599L552.992 329.411L548.544 327.365" stroke="#180249" stroke-width="1.3334" stroke-miterlimit="10"/>
<path d="M576.116 348.615L582.426 342.404L584.13 343.198" stroke="#180249" stroke-width="1.3334" stroke-miterlimit="10"/>
<path d="M578.109 349.801L603.743 319.732L614.988 293.833L608.079 279.086L618.232 294.832L606.899 320.999L580.423 350.913" fill="#7215CC"/>
<path d="M564.807 269.491L556.07 270.924L539.034 305.82" stroke="#180249" stroke-width="1.3294" stroke-miterlimit="10"/>
<path d="M568.054 344.935L557.479 340.042L554.795 345.843L565.37 350.735L568.054 344.935Z" fill="#180249"/>
<path d="M568.083 344.943L565.414 343.708L562.73 349.508L565.4 350.743L568.083 344.943Z" fill="#36176E"/>
<path d="M554.732 277.032L552.256 275.867L549.572 278.442L549.363 282.181L551.839 283.346L554.523 280.771L554.732 277.032Z" fill="#7215CC"/>
<path d="M535.636 306.685L539.461 328.184L547.241 325.591L542.308 304.164L535.636 306.685Z" fill="#180249"/>
<path d="M560.206 340.706L562.278 358.198L551.135 361.97L541.891 346.928L534.078 323.837L536.583 317.398L545.794 314.27L552.393 317.615L560.206 340.706Z" fill="#36176E"/>
<path d="M555.785 360.361L550.493 351.275L541.643 325.072L541.25 321.03L541.305 315.825" stroke="#180249" stroke-width="1.3334" stroke-miterlimit="10"/>
<path d="M543.939 328.845L542.118 329.462L547.041 343.978L548.863 343.36L543.939 328.845Z" fill="#7215CC"/>
<path d="M542.785 347.464L550.493 351.275L559.705 341.35" stroke="#7215CC" stroke-width="1.3334" stroke-miterlimit="10"/>
<path d="M538.89 316.63L536.779 323.175L544.913 347.232L553.603 361.148L551.135 361.97L541.819 346.713L534.078 323.837L536.583 317.399L538.89 316.63Z" fill="#180249"/>
<path d="M543.29 315.164L545.794 314.27L552.393 317.615L560.206 340.706L562.278 358.198L559.917 358.985L558.006 341.976L550.104 318.795L543.29 315.164Z" fill="#7215CC"/>
<path d="M572.811 370.487L567.964 368.108L570.95 373.671L573.06 377.677L570.878 378.643L568.267 374.922L566.712 372.579L567.945 375.03L569.948 379.072L568.177 379.841L565.227 376.353L563.403 374.099L564.762 376.567L566.889 380.449L565.226 381.182L562.025 377.837L560.004 375.708L561.506 378.069L563.885 381.807L563.259 382.076L558.609 379.392L555.747 377.782L551.082 361.81L553.55 360.988L559.184 359.11L562.296 358.074L569.968 364.639L574.224 368.288L572.811 370.487Z" fill="#E3B9B7"/>
<path d="M567.964 368.108L570.95 373.671L568.267 374.922L566.712 372.579L567.945 375.03L565.227 376.353L563.403 374.099L564.762 376.567L562.025 377.837L560.004 375.708L561.506 378.069L558.609 379.392L558.466 379.499L555.747 377.782L551.082 361.81L553.55 360.988L559.184 359.11L562.296 358.074L569.968 364.639L569.091 366.123L567.964 368.108Z" fill="#36176E"/>
<path d="M553.55 360.988L557.769 375.976L560.612 378.427L558.466 379.499L555.747 377.782L551.082 361.81L553.55 360.988Z" fill="#180249"/>
<path d="M559.184 359.11L569.091 366.122L569.968 364.638L562.296 358.073L559.184 359.11Z" fill="#7215CC"/>
<path d="M557.466 363.974L559.79 373.633L563.152 371.916L559.076 363.438L557.466 363.974Z" fill="#E3B9B7"/>
<path d="M570.072 270.673L567.944 267.897L559.873 264.372L548.698 267.806L536.017 292.819L533.571 307.429L543.347 311.928L556.026 300.418L570.072 270.673Z" fill="#36176E"/>
<path d="M546.432 276.942L548.462 284.029L556.872 281.775" stroke="#7215CC" stroke-width="1.3334" stroke-miterlimit="10"/>
<path d="M559.819 264.354L551.306 270.025L534.311 302.971L536.017 292.819L548.645 267.788L559.819 264.354Z" fill="#180249"/>
<path d="M568.702 271.773L560.895 273.093L543.042 311.769" stroke="#180249" stroke-width="1.3334" stroke-miterlimit="10"/>
<path d="M543.347 311.928L553.729 299.252L567.584 270.457L566.437 267.227L567.944 267.897L570.072 270.673L556.026 300.418L543.347 311.928Z" fill="#7215CC"/>
<path d="M526.675 375.617L528.551 380.81L529.568 380.428L528.334 374.909L526.675 375.617Z" fill="#FFEAE1"/>
<path d="M618.622 291.449L621.012 295.977L608.91 322.131L596.472 334.91L596.529 332.727L606.899 321L618.232 294.832L614.782 289.542L618.622 291.449Z" fill="#180249"/>
<ellipse opacity="0.4" cx="614.5" cy="222" rx="58.5" ry="59" fill="white"/>
<path d="M656.995 181.451C650.064 174.063 641.357 168.607 631.719 165.614C622.08 162.62 611.839 162.19 601.987 164.365C592.136 166.541 583.009 171.248 575.494 178.03C567.978 184.812 562.328 193.438 559.093 203.071C555.857 212.705 555.146 223.018 557.028 233.01C558.91 243.003 563.321 252.335 569.834 260.1C576.346 267.866 584.739 273.802 594.196 277.332C603.654 280.863 613.857 281.867 623.813 280.248L623.454 278.006C613.881 279.563 604.072 278.598 594.978 275.203C585.884 271.809 577.814 266.102 571.552 258.634C565.29 251.167 561.049 242.194 559.239 232.587C557.43 222.979 558.114 213.062 561.225 203.8C564.336 194.537 569.768 186.243 576.995 179.722C584.221 173.201 592.996 168.675 602.469 166.583C611.941 164.491 621.789 164.905 631.056 167.783C640.323 170.662 648.695 175.907 655.36 183.011L656.995 181.451Z" fill="#EAEAEA"/>
<path d="M706 303.279L833.634 43.8394" stroke="#180249" stroke-width="3"/>
<path d="M833.725 45.7532C900.246 86.3025 957.948 77.9357 1018.68 135.418L964.341 247.514C964.341 247.514 911.139 202.335 871.861 202.682C832.584 203.028 779.382 157.849 779.382 157.849L833.725 45.7532Z" fill="#7315CD"/>
<mask id="mask0" mask-type="alpha" maskUnits="userSpaceOnUse" x="776" y="37" width="247" height="218">
<path d="M833.725 45.7532C900.246 86.3025 957.948 77.9357 1018.68 135.418L964.341 247.514C964.341 247.514 911.139 202.335 871.861 202.682C832.584 203.028 779.382 157.849 779.382 157.849L833.725 45.7532Z" fill="#7315CD"/>
</mask>
<g mask="url(#mask0)">
<path d="M914.648 197.149C912.412 205.612 909.556 217.498 907.449 226.216L879.817 214.084C881.963 206.047 884.335 196.401 886.414 188.416C888.827 179.105 894.17 158.153 894.17 158.153L922.8 165.942C922.8 165.942 921.276 171.513 920.81 173.24C920.612 173.985 920.281 175.286 920.11 175.957C920.099 175.996 920.101 176.038 920.113 176.078C920.126 176.118 920.149 176.154 920.181 176.182C920.213 176.21 920.252 176.23 920.294 176.238C920.336 176.246 920.379 176.243 920.419 176.229C921.06 175.951 922.292 175.468 923.033 175.185C926.913 173.74 930.786 172.311 934.662 170.877C935.402 170.581 937.659 169.653 937.659 169.653L941.605 170.765C941.605 170.765 941.141 172.679 940.903 173.71C939.113 180.742 934.927 197.167 934.927 197.167C934.927 197.167 925.178 194.383 921.473 193.389C919.265 192.799 917.173 192.122 916.41 192.545C915.647 192.967 915.168 195.285 914.648 197.149ZM961.42 249.845L960.469 249.496L934.014 237.88C936.619 227.437 950.408 173.456 950.408 173.456L978.985 181.247L961.42 249.845ZM878.461 170.35C879.047 166.774 879.073 163.116 878.538 159.498C877.731 154.077 876.671 151.922 871.26 150.422C864.365 148.531 856.294 146.334 849.399 144.443C842.189 142.47 834.985 140.412 827.77 138.555C821.365 136.879 815.807 142.678 813.162 148.242C809.073 156.817 806.971 166.053 805.027 175.302C804.64 177.144 804.311 178.987 804.091 180.834L865.471 207.785L866.031 207.987C867.12 206.605 868.048 205.107 868.798 203.52C873.949 193.058 876.615 181.828 878.461 170.35ZM839.797 187.601C839.797 187.601 836.211 186.691 835.471 186.409C834.252 185.948 834.198 185.316 835.105 180.945C835.363 179.736 835.629 178.524 835.922 177.324C836.216 176.124 838.652 166.997 840.06 163.79C840.563 162.645 840.939 162.233 842.117 162.551C843.682 162.978 845.611 163.464 846.436 163.728C848.441 164.322 848.426 164.533 847.384 169.465C846.28 174.904 844.791 180.25 842.928 185.467C842.014 188.009 841.97 188.152 839.797 187.601Z" fill="white"/>
</g>
</g>
<defs>
<radialGradient id="paint0_radial" cx="0" cy="0" r="1" gradientUnits="userSpaceOnUse" gradientTransform="translate(101.587 246.653) rotate(107.045) scale(426.564 425.796)">
<stop stop-color="white"/>
<stop offset="1" stop-color="white" stop-opacity="0"/>
</radialGradient>
<linearGradient id="paint1_linear" x1="490.74" y1="125.102" x2="104.148" y2="343.877" gradientUnits="userSpaceOnUse">
<stop stop-color="white" stop-opacity="0"/>
<stop offset="1" stop-color="white"/>
</linearGradient>
<radialGradient id="paint2_radial" cx="0" cy="0" r="1" gradientUnits="userSpaceOnUse" gradientTransform="translate(1139.11 116.372) rotate(107.08) scale(39.4407)">
<stop stop-color="white"/>
<stop offset="1" stop-color="white" stop-opacity="0"/>
</radialGradient>
<radialGradient id="paint3_radial" cx="0" cy="0" r="1" gradientUnits="userSpaceOnUse" gradientTransform="translate(1438.13 384.476) rotate(107.08) scale(95.7845)">
<stop stop-color="white"/>
<stop offset="1" stop-color="white" stop-opacity="0"/>
</radialGradient>
<clipPath id="clip0">
<rect width="1440" height="603" fill="white"/>
</clipPath>
</defs>
</svg>
