<svg width="500" height="382" viewBox="0 0 500 382" fill="none" xmlns="http://www.w3.org/2000/svg">
<g clip-path="url(#clip0)">
<g style="mix-blend-mode:luminosity" opacity="0.1">
<path fill-rule="evenodd" clip-rule="evenodd" d="M290 664.885L302.334 389.792L320 378L310.925 666L290 664.885Z" fill="url(#paint0_linear)"/>
<path fill-rule="evenodd" clip-rule="evenodd" d="M320.249 378L357 388.387L354.708 668L311 665.871L320.249 378Z" fill="url(#paint1_linear)"/>
</g>
<path d="M202.165 317.154L139.241 321.373C137.182 321.51 135.117 321.223 133.174 320.529C131.231 319.835 129.451 318.75 127.944 317.34C126.438 315.931 125.237 314.227 124.416 312.334C123.595 310.441 123.171 308.4 123.171 306.337V205.509C123.171 203.445 123.595 201.403 124.417 199.509C125.238 197.616 126.44 195.912 127.948 194.502C129.455 193.092 131.236 192.007 133.181 191.314C135.125 190.621 137.191 190.335 139.25 190.473L171.657 191.908C179.57 192.439 216.235 201.797 216.235 209.728V302.117C216.234 305.941 214.781 309.622 212.168 312.413C209.556 315.205 205.98 316.9 202.165 317.154Z" fill="#7B7B7C"/>
<path d="M210.36 317.335L153.267 321.162C150.809 321.327 148.344 320.984 146.023 320.157C143.703 319.329 141.578 318.034 139.778 316.351C137.979 314.668 136.545 312.633 135.565 310.373C134.584 308.113 134.078 305.676 134.079 303.212V208.613C134.079 206.151 134.585 203.714 135.566 201.455C136.547 199.196 137.982 197.163 139.781 195.481C141.58 193.8 143.705 192.505 146.025 191.679C148.345 190.853 150.81 190.512 153.267 190.678L210.36 194.505C214.911 194.811 219.176 196.834 222.292 200.166C225.408 203.498 227.142 207.889 227.142 212.45V299.39C227.143 303.952 225.409 308.343 222.293 311.675C219.177 315.007 214.912 317.03 210.36 317.335Z" fill="#9E9DA5"/>
<path d="M153.119 206.011C150.248 204.978 146.196 192.19 158.142 186.717C175.082 183.627 181.105 188.731 192.066 189.181C193.927 189.258 196.175 190.033 197.912 190.707C199.648 191.382 202.131 193.577 202.576 195.395C190.248 194.247 176.675 198.596 164.304 199.495" fill="#1E1E1E"/>
<path d="M160.08 199.863C157.21 198.825 156.531 191.831 159.736 190.108C167.629 187.305 179.154 189.745 190.124 190.199C191.985 190.276 193.879 190.376 195.611 191.051C197.343 191.725 198.917 193.079 199.362 194.878C187.033 193.73 175.667 198.882 163.276 199.49" fill="black"/>
<path d="M262.678 351.512H148.278C140.437 351.512 134.079 345.815 134.079 338.792V333.606C134.079 329.592 137.71 326.339 142.212 326.339C142.212 326.339 177.613 329.463 203.112 329.463C229.482 329.463 268.787 326.339 268.787 326.339C273.265 326.339 276.92 329.592 276.92 333.606V338.792C276.882 345.815 270.519 351.512 262.678 351.512Z" fill="#9E9DA5"/>
<path d="M274.92 345.241C272.452 348.991 267.888 351.508 262.678 351.508H148.278C140.437 351.508 134.079 345.819 134.079 338.787V333.601C134.079 329.597 137.71 326.339 142.212 326.339L143.063 326.415C142.975 326.84 142.93 327.273 142.929 327.707V332.893C142.929 339.921 149.292 345.614 157.133 345.614H271.533C272.673 345.616 273.809 345.491 274.92 345.241Z" fill="#7B7B7C"/>
<path d="M275.796 328.64L271.883 344.796L279.786 345.643L282.69 331.783L275.796 328.64Z" fill="#180249"/>
<path d="M270.974 341.337L265.353 348.537L267.104 398.994L273.328 398.664L286.78 382.934L294.741 337.491L281.877 336.257L270.974 341.337Z" fill="#36176E"/>
<path d="M281.877 387.837L292.215 339.82L294.741 337.49L286.78 382.934L281.877 387.837Z" fill="#7215CC"/>
<path d="M289.033 354.589L279.858 353.957L266.74 374.117" stroke="#180249" stroke-width="1.59468" stroke-miterlimit="10"/>
<path d="M290.77 345.642L287.555 345.126L288.646 336.71" stroke="#7215CC" stroke-width="1.59468" stroke-miterlimit="10"/>
<path d="M265.434 350.604L271.883 342.553L282.154 337.458L292.516 338.094L292.77 336.994L281.877 336.257L270.974 341.337L265.353 348.537L265.434 350.604Z" fill="#180249"/>
<path d="M275.274 339.758L268.787 348.336L269.916 390.933L266.74 407.395V413.15L268.787 415.303L265.477 415.346L263.606 414.212L263.525 407.06L266.883 389.756L265.352 347.972L270.974 340.777L275.274 339.758Z" fill="#180249"/>
<path d="M269.567 377.792H274.609V394.679" stroke="#7215CC" stroke-width="1.59468" stroke-miterlimit="10"/>
<path d="M260.588 292.927L257.574 319.397H219.134L216.12 292.927H260.588ZM262.324 282.402H214.389C209.059 282.402 204.945 287.612 205.615 293.506L208.777 321.253C209.337 326.18 213.082 329.864 217.551 329.864H259.172C263.626 329.864 267.381 326.171 267.946 321.253L271.108 293.506C271.778 287.612 267.659 282.402 262.334 282.402H262.324Z" fill="#7B7B7C"/>
<path d="M262.324 282.416H214.388C213.127 282.428 211.884 282.724 210.752 283.281C209.62 283.839 208.628 284.643 207.848 285.636C208.292 285.554 208.742 285.514 209.193 285.516H257.124C262.444 285.516 266.563 290.726 265.898 296.62L262.735 324.367C262.526 326.347 261.746 328.223 260.492 329.768C264.343 329.118 267.429 325.692 267.931 321.267L271.093 293.52C271.768 287.631 267.649 282.416 262.324 282.416Z" fill="#9E9DA5"/>
<path d="M262.864 326.181H221.243C216.79 326.181 213.029 322.487 212.47 317.569L209.307 289.822C209.043 287.605 209.478 285.36 210.551 283.402C207.236 285.172 205.093 289.167 205.595 293.549L208.757 321.296C209.317 326.224 213.063 329.907 217.531 329.907H259.152C262.3 329.907 265.108 328.056 266.682 325.224C265.507 325.85 264.196 326.179 262.864 326.181Z" fill="#444444"/>
<path d="M212.991 368.811H198.089V405.485H212.991V368.811Z" fill="#7B7B7C"/>
<path d="M212.991 368.811V373.863H200.696V405.485H198.089V368.811H212.991Z" fill="#444444"/>
<path d="M217.612 347.891H193.467V371.05H217.612V347.891Z" fill="#9E9DA5"/>
<path d="M217.612 347.886V354.938H196.654V371.05H193.467V347.886H217.612Z" fill="#7B7B7C"/>
<path d="M269.964 251.593C269.964 251.593 288.215 254.253 293.439 256.539C294.138 256.846 291.425 263.558 291.425 263.558L285.115 265.036L268.002 262.95" fill="#36176E"/>
<path d="M259.482 263.06L251.033 267.223C251.033 267.223 239.848 264.352 236.83 260.094C233.811 255.837 222.425 234.007 222.425 234.007L213.713 201.519C213.713 201.519 216.99 199.792 219.636 200.036C222.281 200.28 225.726 203.49 227.836 203.605C229.945 203.72 233.395 203.605 234.198 206.71C234.299 207.107 234.533 207.752 234.858 208.623C235.404 210.034 236.227 211.972 237.169 214.177C238.298 216.78 239.604 219.698 240.834 222.401C242.833 226.812 244.632 230.658 245.139 231.649C246 233.309 247.11 234.849 247.943 237.026C247.985 237.129 248.022 237.234 248.053 237.342C248.125 237.519 248.187 237.7 248.249 237.892V237.92C248.513 238.735 248.714 239.568 248.852 240.413C248.9 240.695 248.952 240.977 249.019 241.26C249.823 245.245 251.612 249.493 252.631 250.416C253.65 251.34 258.515 261.549 259.482 263.06Z" fill="#1E1E1E"/>
<path d="M241.265 235.686C239.868 231.529 238.452 227.644 237.959 223.247C237.772 221.597 237.146 218.779 237.791 217.2C237.884 216.968 238.032 216.761 238.222 216.598C238.786 218.004 239.657 219.946 240.614 222.118C239.586 226.615 239.811 231.308 241.265 235.686Z" fill="black"/>
<path d="M230.467 205.03C231.002 205.334 231.468 205.747 231.835 206.241C232.202 206.735 232.463 207.3 232.601 207.9C232.95 209.814 237.715 217.832 237.715 217.832C237.764 217.341 237.992 216.886 238.356 216.554L234.859 208.603C234.859 208.603 234.381 207.316 234.199 206.718C233.965 205.913 233.486 205.2 232.828 204.68C232.171 204.159 231.367 203.857 230.529 203.814C227.841 203.609 228.917 203.685 228.917 203.685L230.467 205.03Z" fill="#444444"/>
<path d="M249.033 241.25C249.163 242.025 249.239 242.608 249.239 242.608C249.239 242.608 247.995 240.149 247.665 239.437C247.356 238.901 246.965 238.417 246.507 238.001C246.029 236.088 243.68 232.6 243.068 231.452C242.455 230.304 240.106 225.319 240.106 225.319L240.666 222.133L240.834 222.41C242.833 226.821 244.632 230.668 245.139 231.658C246 233.318 247.11 234.858 247.943 237.035C247.981 237.15 248.014 237.255 248.053 237.351C248.124 237.566 248.191 237.748 248.249 237.901V237.93C248.249 237.982 248.282 238.03 248.301 238.078C248.628 239.115 248.872 240.175 249.033 241.25Z" fill="#444444"/>
<path d="M219.636 200.045C219.636 200.045 227.29 204.174 228.443 206.011C229.596 207.848 232.084 209.79 231.792 210.555C231.5 211.321 231.505 251.019 231.505 251.019L226.826 242.345L219.636 200.045Z" fill="black"/>
<path d="M291.832 211.12L292.899 214.32L290.048 215.822L293.038 214.746L294.114 217.989L291.325 219.803L294.315 218.587L294.373 221.314L290.158 224.496L293.057 223.084L293.526 224.524L290.67 227.605L275.002 229.323L273.62 222.63L273.175 220.31L291.832 211.12Z" fill="#E3B9B7"/>
<path d="M285.063 213.77L290.813 211.517L291.952 214.823L290.048 215.823L292.033 215.11L293.191 218.593L291.325 219.803L292.559 219.301L292.918 222.415L290.158 224.496L292.081 223.563L292.703 225.41L290.67 227.606L272.495 231.117L271.29 226.802L267.716 223.726L282.527 211.909L287.254 212.914L285.063 213.77Z" fill="#36176E"/>
<path d="M274.997 229.318L290.392 225.782L290.669 227.605L274.997 229.318Z" fill="#180249"/>
<path d="M269.955 225.658L284.364 212.297L282.532 211.904L267.716 223.726L269.955 225.658Z" fill="#7215CC"/>
<path d="M297.448 211.832L274.456 211.42L274.418 213.521L276.538 213.554L276.289 227.428C276.27 228.519 276.685 229.574 277.443 230.36C278.201 231.146 279.24 231.598 280.331 231.619L291.363 231.815C291.904 231.825 292.441 231.728 292.945 231.531C293.448 231.333 293.907 231.038 294.297 230.662C294.686 230.287 294.997 229.838 295.213 229.342C295.429 228.846 295.545 228.313 295.554 227.772L295.803 213.899L297.415 213.927L297.448 211.832Z" fill="#919191"/>
<path d="M294.209 213.87L295.803 213.899L295.554 227.772C295.544 228.313 295.429 228.847 295.213 229.343C294.997 229.84 294.686 230.288 294.297 230.664C293.908 231.04 293.448 231.336 292.945 231.534C292.441 231.732 291.904 231.829 291.363 231.82L289.77 231.791C290.862 231.809 291.917 231.393 292.702 230.634C293.488 229.875 293.941 228.836 293.961 227.744L294.209 213.87Z" fill="#ADADAD"/>
<path d="M295.883 211.819L295.845 213.914L297.447 213.942L297.485 211.847L295.883 211.819Z" fill="#ADADAD"/>
<path d="M274.486 211.431L274.448 213.526L276.443 213.562L276.48 211.467L274.486 211.431Z" fill="#727272"/>
<path d="M282.331 231.647L280.332 231.609C279.239 231.589 278.2 231.136 277.441 230.351C276.682 229.565 276.266 228.51 276.284 227.418L276.533 213.544L278.538 213.583L278.289 227.456C278.279 227.997 278.375 228.534 278.573 229.038C278.771 229.541 279.066 230.001 279.441 230.39C279.817 230.779 280.265 231.09 280.761 231.306C281.257 231.522 281.79 231.638 282.331 231.647Z" fill="#727272"/>
<path opacity="0.32" d="M275.437 211.42C276.394 211.196 278.925 211.224 280.518 210.645C281.685 210.22 281.862 209.081 283.001 208.813C285.062 208.335 286.789 208.703 287.507 208.229C288.416 207.631 288.072 207.081 286.665 206.225C285.259 205.369 285.89 203.795 287 203.594C288.11 203.393 292.128 204.13 292.392 200.953C292.655 197.776 288.612 200.063 287.579 198.46C287.891 198.578 288.226 198.623 288.557 198.59C288.889 198.558 289.209 198.45 289.492 198.274C289.492 198.274 286.679 198.092 285.861 195.341C285.861 195.341 286.474 197.422 290.507 196.494C294.54 195.566 293.124 198.58 293.124 198.58C293.124 198.58 294.86 200.929 293.731 202.685C291.545 206.081 289.789 205.292 290.086 207.794C290.454 210.832 292.927 211.918 296.439 211.794L275.437 211.42Z" fill="#ADADAD"/>
<path d="M273.868 238.489C273.868 238.489 262.166 265.385 261.649 267.844C261.133 270.303 257.526 270.083 257.526 270.083C257.234 270.04 256.937 270.04 256.645 270.083C256.512 270.102 256.379 270.127 256.248 270.16C255.965 270.245 255.687 270.348 255.416 270.466C254.579 270.844 253.713 271.423 252.794 271.93C251.574 272.623 250.278 273.255 248.843 273.288C245.661 273.355 238.236 268.093 238.318 266.304C238.296 265.722 238.173 265.149 237.954 264.61C237.313 262.749 236.088 260.271 236.352 258.142C236.653 255.779 238.504 255.186 239.753 254.262C239.973 254.103 240.176 253.92 240.356 253.717C240.384 253.69 240.409 253.662 240.432 253.631L240.494 253.54L243.025 250.028L254.464 234.15L260.654 228.888L264.156 225.903L266.634 223.783L269.093 221.693L269.342 221.477L269.773 221.114C270.392 221.699 270.945 222.351 271.423 223.056C271.452 223.09 271.471 223.123 271.5 223.161L271.586 223.3C271.672 223.424 271.748 223.554 271.825 223.683C272.16 224.227 272.454 224.794 272.705 225.381C273.108 226.308 273.429 227.268 273.662 228.252C273.801 228.806 273.906 229.366 273.992 229.926C274.097 230.581 274.169 231.237 274.222 231.868C274.219 231.897 274.219 231.926 274.222 231.954C274.222 232.313 274.26 232.667 274.274 233.007C274.324 234.843 274.188 236.68 273.868 238.489Z" fill="#1E1E1E"/>
<path d="M252.785 271.949C254.005 271.246 255.139 270.485 256.239 270.184C256.812 269.516 257.263 268.753 257.574 267.93C258.941 264.711 260.01 261.374 260.769 257.96C259.813 260.907 257.775 263.333 255.957 265.835C254.603 267.701 253.325 269.748 252.785 271.949Z" fill="black"/>
<path d="M240.327 253.731C240.911 253.731 241.623 253.253 241.997 253.004C243.932 251.823 245.789 250.517 247.556 249.096C248.12 248.651 248.685 248.196 249.23 247.732C249.637 247.397 250.034 247.048 250.436 246.699C251.306 245.929 252.196 244.742 253.182 244.149C249.905 246.12 246.302 247.919 243.035 250.024C243.035 250.024 243.035 250.024 242.992 250.048L240.466 253.559L240.399 253.65C240.379 253.68 240.354 253.708 240.327 253.731Z" fill="black"/>
<path d="M264.003 243.384C264.261 242.427 263.84 240.805 263.811 239.781C263.773 238.494 264.319 236.624 264.347 235.337C264.42 232.423 264.26 229.509 263.869 226.62C263.754 225.86 266.261 224.53 266.419 225.128C266.696 226.147 266.567 229.658 266.443 230.715C266.283 232.026 266.098 233.334 265.888 234.638C265.395 237.561 264.778 240.504 264.003 243.384Z" fill="black"/>
<path d="M273.867 238.489C273.867 238.489 262.166 265.384 261.649 267.843C261.132 270.302 257.525 270.082 257.525 270.082C257.233 270.039 256.937 270.039 256.645 270.082C257.513 269.774 258.283 269.239 258.874 268.532C259.221 268.072 259.63 267.661 260.09 267.312C260.75 267.025 260.439 263.925 261.745 261.825C262.778 260.165 269.964 242.426 272.93 235.083C272.948 235.024 272.971 234.966 272.997 234.91C273.743 233.064 274.198 231.916 274.198 231.916C274.198 232.274 274.236 232.628 274.25 232.968C274.31 234.816 274.182 236.666 273.867 238.489Z" fill="#444444"/>
<path d="M204.723 301.088L203.776 324.793L211.091 333.682L240.761 338.858L289.902 341.944L294.739 337.49L292.519 318.694L222.888 301.83L210.043 303.346L204.723 301.088Z" fill="#36176E"/>
<path d="M289.908 341.944L240.766 338.858L211.086 333.677L203.772 324.793L204.728 301.088L208.092 302.519L207.345 321.186L214.66 330.07L244.34 335.251L289.908 341.944Z" fill="#180249"/>
<path d="M224.233 304.686L216.641 311.699L219.047 332.079" stroke="#180249" stroke-width="1.49994" stroke-miterlimit="10"/>
<path d="M227.649 333.615L226.448 316.239L279.938 326.142L281.474 339.887" stroke="#180249" stroke-width="1.49994" stroke-miterlimit="10"/>
<path d="M256.497 312.689L260.525 322.549L248.823 336.648" stroke="#180249" stroke-width="1.49994" stroke-miterlimit="10"/>
<path d="M279.939 328.568C281.278 328.568 282.364 327.482 282.364 326.142C282.364 324.803 281.278 323.717 279.939 323.717C278.599 323.717 277.513 324.803 277.513 326.142C277.513 327.482 278.599 328.568 279.939 328.568Z" fill="#7215CC"/>
<path d="M287.981 341.825L289.311 330.778L293.387 330.348" stroke="#7215CC" stroke-width="1.49994" stroke-miterlimit="10"/>
<path d="M292.526 318.689L294.745 337.49L292.215 339.82L290.057 321.569L220.421 304.705L207.571 306.222L204.571 304.954L204.729 301.088L210.044 303.346L222.885 301.83L292.526 318.689Z" fill="#7215CC"/>
<path d="M227.596 333.002L223.683 349.163L231.591 350.01L234.495 336.146L227.596 333.002Z" fill="#180249"/>
<path d="M222.775 345.704L217.158 352.899L218.909 403.361L225.133 403.031L238.586 387.296L246.795 341.509L233.682 340.619L222.775 345.704Z" fill="#36176E"/>
<path d="M233.682 392.2L244.575 341.355L246.795 341.508L238.586 387.296L233.682 392.2Z" fill="#7215CC"/>
<path d="M241.361 358.99L231.659 358.325L218.541 378.485" stroke="#180249" stroke-width="1.59468" stroke-miterlimit="10"/>
<path d="M242.576 350.009L239.356 349.488L240.452 341.078" stroke="#7215CC" stroke-width="1.59468" stroke-miterlimit="10"/>
<path d="M227.076 343.767L220.589 352.703L221.722 395.3L218.541 411.762V417.517L220.589 419.67L217.283 419.708L215.412 418.579L215.326 411.427L218.689 394.118L217.158 352.34L222.775 345.144L227.076 343.767Z" fill="#180249"/>
<path d="M220.426 382.154H226.822V397.424" stroke="#7215CC" stroke-width="1.59468" stroke-miterlimit="10"/>
<path d="M198.897 199.146L193.032 201.993L184.134 198.352L185.325 183.335L200.06 184.502L198.897 199.146Z" fill="#180249"/>
<path d="M239.557 151.382L226.875 128.859L195.046 119.741L200.074 131.95L176.322 135.719L195.999 158.18L181.651 160.419L216.091 188.119L254.933 160.615L256.057 155.214L239.557 151.382Z" fill="#E3B9B7"/>
<path d="M247.34 153.191L247.201 165.701L254.932 160.611L256.052 155.215L247.34 153.191Z" fill="#36176E"/>
<path d="M205.829 149.674H226.439" stroke="black" stroke-width="4.41299" stroke-miterlimit="10"/>
<path d="M218.569 149.153L218.325 155.87H226.343L226.43 149.205L218.569 149.153Z" fill="black"/>
<path d="M220.937 173.197L220.626 170.537L233.538 175.776L230.749 177.732L220.937 173.197Z" fill="black"/>
<path d="M255.096 111.814L226.875 94.6678L234.568 82.7795L179.193 91.4147L176.322 80L156.32 104.47L147.36 97.0933L146.949 119.741L137.337 120.879L146.652 145.704L135.558 147.445L160.009 168.433L153.043 169.519L183.958 188.119H216.092L181.652 160.419L195.999 158.18L176.322 135.719L200.075 131.95L195.047 119.741L226.875 128.859L255.096 111.814Z" fill="#36176E"/>
<path d="M255.095 111.814L226.874 94.6678L234.567 82.7795L179.192 91.4147L176.321 80L173.738 96.4092L219.87 95.8207L207.848 105.284L255.095 111.814Z" fill="#7215CC"/>
<path d="M178.273 170.245L171.174 172.671L183.957 188.118L153.042 169.518L160.008 168.432L135.557 147.445L146.651 145.703L137.337 120.879L162.4 150.234L154.703 151.013L178.273 170.245Z" fill="#180249"/>
<path d="M195.046 119.741L222.377 132.05L232.433 151.272L247.34 153.191L239.556 151.382L226.874 128.859L195.046 119.741Z" fill="#FFEAE1"/>
<g style="mix-blend-mode:multiply" opacity="0.44">
<path d="M182.345 134.768L204.782 159.444L191.621 161.922L220.785 184.799L216.091 188.119L181.651 160.419L195.999 158.181L176.322 135.72L182.345 134.768Z" fill="#D38484"/>
</g>
<path d="M208.685 143.025L225.29 144.278" stroke="black" stroke-width="2.94462" stroke-miterlimit="10"/>
<path d="M186.521 116.837C184.904 116.986 183.303 117.277 181.737 117.707C180.242 118.145 178.844 118.865 177.618 119.827L177.326 118.439C180.196 118.808 182.818 119.999 185.291 121.137L187.238 122.032L185.287 122.989C183.342 123.946 181.451 125.01 179.622 126.175C177.812 127.359 176.065 128.636 174.389 130.002L173.432 128.29C176.013 127.519 178.678 127.068 181.369 126.945C184.034 126.8 186.706 127.035 189.305 127.644C186.692 127.639 184.083 127.84 181.502 128.246C178.966 128.67 176.473 129.32 174.054 130.189L169.466 131.763L173.097 128.476C174.769 126.959 176.554 125.571 178.436 124.324C180.348 123.125 182.344 122.063 184.406 121.147V123.018C181.971 121.783 179.622 120.559 177.072 119.951L175.264 119.516L176.766 118.559C178.21 117.618 179.844 117.008 181.55 116.77C183.203 116.582 184.874 116.604 186.521 116.837Z" fill="#7215CC"/>
<path d="M203.069 303.667L195.262 301.089H166.4L172.504 303.667H203.069Z" fill="#36176E"/>
<path d="M172.504 303.667H200.409L205.169 307.064V317.584L197.165 322.392L178.216 322.143L172.504 303.667Z" fill="#36176E"/>
<path d="M174.14 303.667L180.086 322.143H178.216L172.504 303.667H174.14Z" fill="#180249"/>
<path d="M162.52 303.667L158.013 301.089L204.805 301.122L210.91 303.696L162.52 303.667Z" fill="#180249"/>
<path d="M175.288 310.164H206.456" stroke="#180249" stroke-width="1.59468" stroke-miterlimit="10"/>
<path d="M196.95 307.312H184.608V312.905H196.95V307.312Z" fill="#7215CC"/>
<path d="M193.96 324.693L197.237 324.664L206.92 318.636L206.948 306.409L204.58 303.658L200.409 303.667L205.169 307.064V317.584L197.165 322.392L194.108 322.411L193.96 324.693Z" fill="#180249"/>
<path d="M228.443 247.464L228.146 210.91L208.072 197.677L168.929 196.18L150.764 205.657L150.047 264.208L161.385 292.31L167.729 295.171L212.818 296.319L228.443 247.464Z" fill="#36176E"/>
<path d="M167.728 295.171L165.786 265.959L170.431 255.143L171.647 208.661L163.275 199.495L150.764 205.657L150.047 264.209L161.385 292.31" fill="#180249"/>
<path d="M162.949 229.697L182.2 237.792L225.266 238.337" stroke="#180249" stroke-width="1.59468" stroke-miterlimit="10"/>
<path d="M201.16 210.412L178.923 210.029L168.93 196.18" stroke="#180249" stroke-width="1.59468" stroke-miterlimit="10"/>
<path d="M205.804 236.366L201.815 210.389" stroke="#180249" stroke-width="1.59468" stroke-miterlimit="10"/>
<path d="M208.072 197.677L219.558 210.728L201.159 210.412" stroke="#180249" stroke-width="1.59468" stroke-miterlimit="10"/>
<path d="M204.159 253.736L199.141 296.099" stroke="#180249" stroke-width="1.59468" stroke-miterlimit="10"/>
<path d="M220.09 247.163L205.369 253.98L191.52 246.675L191.85 227.625L206.254 220.789L220.415 228.118L220.09 247.163Z" stroke="#7215CC" stroke-width="1.59468" stroke-miterlimit="10"/>
<path d="M212.76 242.092L205.68 245.374L199.016 241.857L199.174 232.691L206.106 229.4L212.918 232.926L212.76 242.092Z" fill="#7215CC"/>
<path d="M187.424 295.711L181.908 285.579L175.272 285.464L167.073 285.32" stroke="#180249" stroke-width="1.59468" stroke-miterlimit="10"/>
<path d="M209.541 296.261L224.032 247.637L223.793 211.407L208.073 197.677L228.146 210.91L228.443 247.465L212.818 296.319" fill="#7215CC"/>
<path d="M199.918 294.777L185.108 292.533L183.877 300.66L198.687 302.904L199.918 294.777Z" fill="#180249"/>
<path d="M198.039 295.704L194.347 295.13L193.085 303.242L196.777 303.816L198.039 295.704Z" fill="#36176E"/>
<path d="M158.176 301.505L156.353 325.162L163.333 334.309L192.798 340.581L241.791 345.48L246.79 341.203L245.264 322.339L176.298 302.916L163.409 303.959L158.176 301.505Z" fill="#36176E"/>
<path d="M241.791 345.48L192.798 340.581L163.333 334.309L156.353 325.162L158.18 301.505L161.491 303.06L160.056 321.684L167.04 330.831L196.505 337.108L241.791 345.48Z" fill="#180249"/>
<path d="M177.541 305.82L169.695 312.551L171.346 333.003" stroke="#180249" stroke-width="1.49994" stroke-miterlimit="10"/>
<path d="M179.885 334.854L179.326 317.445L232.414 329.319L233.438 343.111" stroke="#180249" stroke-width="1.49994" stroke-miterlimit="10"/>
<path d="M209.484 315.01L213.144 325.008L200.935 338.667" stroke="#180249" stroke-width="1.49994" stroke-miterlimit="10"/>
<path d="M232.414 331.745C233.754 331.745 234.84 330.659 234.84 329.319C234.84 327.979 233.754 326.894 232.414 326.894C231.075 326.894 229.989 327.979 229.989 329.319C229.989 330.659 231.075 331.745 232.414 331.745Z" fill="#7215CC"/>
<path d="M239.901 345.293L240.815 334.352L245.699 334.021" stroke="#7215CC" stroke-width="1.49994" stroke-miterlimit="10"/>
<path d="M245.264 322.339L246.79 341.207L244.178 343.441L242.695 325.118L173.729 305.7L160.836 306.743L157.884 305.36L158.18 301.504L163.409 303.959L176.298 302.916L245.264 322.339Z" fill="#7215CC"/>
<path opacity="0.62" d="M165.16 241.834L187.516 255.162L206.748 259.19L207.996 257.908L218.32 261.19L219.033 258.913L166.132 237.715L165.16 241.834Z" fill="#180249"/>
<path opacity="0.51" d="M169.184 213.694L191.539 227.022L213.005 249.225L221.88 252.746L222.425 248.058L215.11 245.723L215.928 243.814L201.906 225.769L170.385 208.618L169.184 213.694Z" fill="#180249"/>
<path d="M226.621 161.443C232.256 161.443 236.825 156.874 236.825 151.238C236.825 145.603 232.256 141.034 226.621 141.034C220.985 141.034 216.416 145.603 216.416 151.238C216.416 156.874 220.985 161.443 226.621 161.443Z" stroke="#010F33" stroke-width="0.83681" stroke-miterlimit="10"/>
<path d="M216.416 149.679H187.339" stroke="#010F33" stroke-width="0.83681" stroke-miterlimit="10"/>
<path d="M236.825 151.239C236.825 151.239 237.303 150.129 240.093 151.215" stroke="#010F33" stroke-width="0.83681" stroke-miterlimit="10"/>
<path d="M375.461 272.581H226.779C225.547 272.581 224.549 273.579 224.549 274.81V276.202C224.549 277.433 225.547 278.431 226.779 278.431H375.461C376.692 278.431 377.69 277.433 377.69 276.202V274.81C377.69 273.579 376.692 272.581 375.461 272.581Z" fill="#444444"/>
<path d="M304.38 278.431H296.883V419.411H304.38V278.431Z" fill="#444444"/>
<path d="M349.321 143.307H346.925V251.019H349.321V143.307Z" fill="#C1C1C1"/>
<path d="M365.999 239.7H359.732V272.628H365.999V239.7Z" fill="#C1C1C1"/>
<path d="M372.227 244.402L349.317 251.018V143.311L372.227 149.927V244.402Z" fill="#969696"/>
<path d="M289.75 269.495L282.402 269.782V270.514H289.75V269.495Z" fill="#969696"/>
<path d="M299.07 269.18L291.721 269.472V270.203H299.07V269.18Z" fill="#969696"/>
<path d="M308.389 268.869L301.041 269.16V269.888H308.389V268.869Z" fill="#969696"/>
<path d="M317.708 268.557L310.36 268.844V269.576H317.708V268.557Z" fill="#969696"/>
<path d="M327.033 268.242L319.684 268.534V269.265H327.033V268.242Z" fill="#969696"/>
<path d="M332.5 268.739L278.144 270.667V272.628H332.5V268.739Z" fill="#969696"/>
<path d="M228.871 211.006C228.751 209.093 230.038 207.466 227.828 206.509C225.729 205.545 223.723 204.387 221.838 203.051C220.609 202.161 212.347 197.209 211.677 196.669C210.31 195.614 208.619 195.068 206.893 195.124C206.173 195.16 205.457 195.25 204.75 195.391C198.177 194.071 178.165 194.765 174.228 195.009C170.822 195.214 159.574 199.687 153.044 201.974C151.733 202.431 150.597 203.285 149.792 204.416C148.987 205.547 148.554 206.901 148.552 208.289V259.512C148.552 259.512 158.685 290.517 162.904 297.722C167.21 305.012 208.108 302.506 210.926 302.381C215.471 302.156 219.059 299.473 219.805 299.329C220.129 299.265 220.437 299.136 220.709 298.95C220.982 298.764 221.215 298.525 221.394 298.247C221.572 297.97 221.693 297.659 221.749 297.333C221.805 297.008 221.795 296.675 221.719 296.353C221.276 294.03 221.001 291.679 220.896 289.316C220.564 285.274 220.669 281.208 221.207 277.189C221.657 274.022 222.374 271.06 223.24 267.463C225.044 259.952 228.369 250.623 228.369 250.623C228.369 250.623 229.804 222.67 228.871 211.006Z" fill="#1E1E1E"/>
<path d="M228.338 250.621C228.338 250.621 225.018 259.95 223.214 267.466C222.348 271.064 221.626 274.025 221.181 277.187C220.641 281.207 220.535 285.272 220.865 289.315C220.97 291.677 221.245 294.029 221.688 296.352C221.764 296.673 221.775 297.007 221.72 297.332C221.664 297.658 221.543 297.969 221.365 298.247C221.186 298.525 220.953 298.764 220.68 298.949C220.406 299.135 220.099 299.264 219.774 299.328C218.999 299.471 215.808 301.657 214.579 301.676C215.261 301.196 215.91 300.67 216.521 300.103C217 299.571 216.708 298.782 216.617 298.361C216.173 296.038 215.898 293.686 215.794 291.324C215.461 287.282 215.567 283.216 216.11 279.196C216.555 276.034 217.277 273.068 218.143 269.475C219.942 261.96 225.09 252.025 225.09 252.025C225.09 252.025 226.549 223.466 225.616 211.802C225.496 209.889 225.571 208.868 223.361 207.916C221.263 206.948 219.864 205.791 217.977 204.457C216.748 203.572 208.486 198.611 207.83 198.071C206.454 197.009 203.537 196.464 201.801 196.53C201.079 196.567 200.361 196.657 199.653 196.798C193.084 195.478 173.063 196.777 169.136 197.021C166.265 197.198 157.994 200.327 151.535 202.7C151.981 202.397 152.463 202.153 152.97 201.973C159.505 199.681 170.757 195.213 174.159 195.007C178.091 194.763 198.112 194.05 204.676 195.39C205.386 195.254 206.103 195.163 206.824 195.117C208.572 195.052 210.288 195.6 211.675 196.667C212.335 197.208 220.592 202.169 221.827 203.054C223.711 204.389 225.714 205.546 227.812 206.513C230.022 207.47 228.735 209.111 228.854 211.005C229.806 222.668 228.338 250.621 228.338 250.621Z" fill="#444444"/>
<path d="M169.064 219.573C168.72 224.243 168.374 228.917 168.026 233.595C167.782 236.944 167.548 240.331 167.179 243.69C166.328 251.715 164.86 259.662 162.788 267.461C161.453 275.996 166.696 293.807 166.28 300.471C162.046 299.036 161.252 294.424 160.539 292.817C158.095 287.344 148.526 259.51 148.526 259.51C148.526 259.51 148.608 221.913 148.526 207.747C148.526 205.264 165.462 203.088 163.835 202.164V201.992C166.591 203.667 168.232 206.776 168.873 209.929C169.514 213.082 169.299 216.354 169.064 219.573Z" fill="black"/>
<path d="M162.252 269.614C162.424 266.117 164.314 259.419 164.314 259.419C164.314 259.419 169.476 277.67 180.608 284.66C172.643 283.56 162.252 269.614 162.252 269.614Z" fill="black"/>
<path d="M162.257 209.862L158.488 212.34L158.473 212.345L158.483 212.349L153.307 222.41L156.78 237.025L187.852 255.315L206.328 259.592L212.915 247.445L199.18 230.261L162.257 209.862Z" fill="#36176E"/>
<path d="M168.327 240.68L177.599 238.618L175.365 227.715" stroke="#7215CC" stroke-width="1.59468" stroke-miterlimit="10"/>
<path d="M153.287 222.444L159.845 233.878L200.677 258.286L187.851 255.315L156.76 237.059L153.287 222.444Z" fill="#180249"/>
<path d="M163.534 211.751L164.553 221.841L212.685 247.866" stroke="#180249" stroke-width="1.59468" stroke-miterlimit="10"/>
<path d="M212.915 247.445L197.524 233.121L161.759 213.024L157.511 214.229L158.472 212.349L162.257 209.861L199.18 230.26L212.915 247.445Z" fill="#7215CC"/>
<path d="M292.525 258.185C295.61 259.18 301.858 261.256 302.485 262.012C302.935 262.567 303.203 264.83 303.36 266.796" stroke="#E3B9B7" stroke-width="5.69189" stroke-miterlimit="10"/>
<path d="M286.071 261.51C288.941 262.49 291.96 263.62 292.381 264.146C292.802 264.672 293.113 267.074 293.266 269.078" stroke="#E3B9B7" stroke-width="5.69189" stroke-miterlimit="10"/>
<path d="M286.43 263.601C286.88 264.161 287.148 266.428 287.301 268.385" stroke="#E3B9B7" stroke-width="5.69189" stroke-miterlimit="10"/>
<path d="M288.77 259.975C292.032 261.051 296.678 262.663 297.209 263.323C297.654 263.878 297.926 266.122 298.079 268.084" stroke="#E3B9B7" stroke-width="5.69189" stroke-miterlimit="10"/>
<path d="M290.812 257.654C290.812 257.654 295.989 259.257 299.457 260.587" stroke="#36176E" stroke-width="5.69189" stroke-miterlimit="10"/>
<path d="M280.718 259.764C280.718 259.764 288.583 262.199 291.424 263.558" stroke="#36176E" stroke-width="5.69189" stroke-miterlimit="10"/>
<path d="M282.106 261.668C284.244 262.439 286.1 263.199 286.411 263.582C286.628 263.944 286.771 264.346 286.832 264.764" stroke="#36176E" stroke-width="5.69189" stroke-miterlimit="10"/>
<path d="M285.545 258.941C285.545 258.941 291.104 260.664 294.563 262.018" stroke="#36176E" stroke-width="5.69189" stroke-miterlimit="10"/>
<path d="M219.77 262.123L218.44 261.309C217.876 260.965 217.316 260.621 216.732 260.319C215.238 259.542 213.619 259.033 211.948 258.817C208.992 258.429 206.006 258.96 203.026 259.037C193.113 259.291 183.842 254.54 175.073 249.909C170.502 245.459 164.868 242.252 158.707 240.595C157.133 240.174 155.411 239.786 154.372 238.537C153.334 237.289 153.267 235.691 153.191 234.151L153.004 230.28C152.846 227.027 152.688 223.741 153.253 220.53C153.827 217.244 155.224 214.01 157.678 211.742C160.132 209.475 163.735 208.326 166.926 209.298C167.524 210.465 168.725 210.991 169.796 211.747C171.143 212.655 172.543 213.482 173.987 214.225L179.948 217.435C182.923 219.043 185.918 220.655 189.104 221.784C192.453 222.965 195.974 223.621 199.117 225.233C202.26 226.845 205.078 229.749 205.27 233.275C206.729 235.088 209.097 236.098 210.709 237.762C212.843 239.944 214.771 240.188 216.9 242.374C217.966 243.465 220.727 243.259 222.138 243.776C224.1 244.484 223.722 246.532 225.726 245.977C227.731 245.422 230.438 244.953 232.472 244.393C242.896 241.523 264.386 248.761 275.092 250.254C276.197 250.407 277.484 250.703 277.905 251.732C278.091 252.381 278.068 253.072 277.838 253.708C276.561 258.841 276.217 260.032 274.939 265.189C271.112 263.247 255.382 266.342 251.115 266.06L238.758 265.247C232.567 264.83 225.071 265.361 219.77 262.123Z" fill="#1E1E1E"/>
<path d="M277.853 253.708C276.575 258.846 276.231 260.028 274.954 265.19C274.212 264.817 273.444 264.497 272.657 264.233C273.681 260.109 273.767 259.927 274.796 255.813C275.022 255.177 275.046 254.487 274.863 253.837C274.446 252.809 273.15 252.512 272.05 252.364C261.338 250.866 239.848 243.633 229.429 246.499C227.391 247.058 224.717 247.527 222.683 248.082C220.65 248.637 221.052 246.594 219.091 245.881C217.655 245.365 214.919 245.57 213.857 244.48C211.723 242.293 209.8 242.054 207.662 239.868C206.04 238.198 203.686 237.194 202.227 235.385C202.036 231.855 199.218 228.956 196.075 227.339C192.932 225.722 189.377 225.071 186.066 223.884C182.871 222.76 179.881 221.148 176.9 219.545C174.915 218.474 172.934 217.397 170.939 216.326C169.494 215.585 168.094 214.758 166.749 213.848C165.677 213.097 164.476 212.57 163.878 211.403C161.758 210.807 159.494 211.001 157.506 211.948C157.563 211.881 157.626 211.829 157.683 211.771C160.137 209.509 163.744 208.356 166.94 209.327C167.533 210.494 168.734 211.02 169.81 211.776C171.157 212.684 172.557 213.511 174.001 214.254L179.962 217.464C182.943 219.072 185.933 220.684 189.119 221.813C192.467 222.999 195.989 223.645 199.136 225.262C202.284 226.879 205.088 229.774 205.284 233.304C206.719 235.122 209.111 236.127 210.723 237.792C212.862 239.973 214.78 240.217 216.943 242.403C218.005 243.489 220.741 243.284 222.176 243.805C224.138 244.513 223.76 246.556 225.764 246.011C227.769 245.465 230.477 244.982 232.505 244.422C242.934 241.552 264.424 248.79 275.131 250.283C276.231 250.441 277.523 250.732 277.944 251.756C278.116 252.401 278.084 253.082 277.853 253.708Z" fill="#444444"/>
<path d="M274.164 267.802C270.337 265.86 255.507 269.864 251.235 269.586L238.877 268.768C232.658 268.362 225.186 268.912 219.875 265.668C219.43 265.396 218.99 265.123 218.541 264.855C217.981 264.515 217.416 264.166 216.837 263.86C215.342 263.086 213.723 262.579 212.053 262.362C209.102 261.97 206.112 262.506 203.136 262.578C193.219 262.836 183.952 258.081 175.183 253.459C170.613 249.004 164.976 245.795 158.812 244.14C157.238 243.719 155.521 243.332 154.478 242.083C153.435 240.834 153.377 239.213 153.301 237.696L153.114 233.826C153.038 232.338 152.971 230.85 152.961 229.362C152.961 229.673 152.995 229.975 153.009 230.281C153.071 231.573 153.133 232.864 153.196 234.146C153.272 235.692 153.392 237.352 154.373 238.533C155.353 239.715 157.133 240.174 158.712 240.595C164.874 242.251 170.509 245.46 175.078 249.914C183.847 254.536 193.118 259.291 203.031 259.033C206.006 258.961 209.001 258.425 211.948 258.818C213.618 259.034 215.237 259.541 216.732 260.315C217.311 260.621 217.876 260.97 218.44 261.31L219.775 262.123C225.08 265.367 232.563 264.817 238.772 265.223L251.129 266.037C255.397 266.319 271.146 263.224 274.954 265.166L274.164 267.802Z" fill="black"/>
<path d="M218.507 268.083C218.507 268.083 211.436 281.412 210.082 288.076C210.082 288.076 215.943 277.173 218.019 274.532C218.156 274.34 218.317 274.167 218.498 274.016C219.875 273.078 218.507 268.083 218.507 268.083Z" fill="#444444"/>
<path d="M211.316 302.381C211.316 302.381 200.897 293.721 199.026 289.646C199.026 289.646 202.165 297.922 207.283 302.562L211.316 302.381Z" fill="#444444"/>
<path d="M222.583 207.537C224.573 208.523 208.278 211.537 206.37 211.752C206.37 211.752 225.506 209.412 225.616 211.197C225.726 212.981 228.094 209.934 228.094 209.934L227.065 208.432L222.583 207.537Z" fill="#444444"/>
<path d="M200.342 293.492L196.793 324.631H151.555L148.005 293.482L200.342 293.492ZM202.38 281.125H145.967C139.7 281.125 134.854 287.263 135.643 294.195L139.361 326.865C140.021 332.663 144.446 337.007 149.689 337.007H198.659C203.921 337.007 208.322 332.663 208.987 326.865L212.704 294.195C213.494 287.263 208.648 281.125 202.38 281.125Z" fill="#7B7B7C"/>
<path d="M202.38 281.125H145.967C144.481 281.142 143.019 281.492 141.687 282.15C140.354 282.807 139.187 283.755 138.269 284.924C138.792 284.829 139.322 284.782 139.853 284.785H196.266C202.528 284.785 207.374 290.918 206.59 297.855L202.868 330.52C202.623 332.851 201.708 335.061 200.232 336.883C204.767 336.117 208.393 332.099 208.982 326.875L212.704 294.209C213.498 287.258 208.652 281.125 202.38 281.125Z" fill="#9E9DA5"/>
<path d="M203.026 332.631H154.057C148.795 332.631 144.389 328.282 143.733 322.488L140.011 289.814C139.7 287.203 140.214 284.56 141.48 282.255C137.571 284.341 135.05 289.039 135.639 294.215L139.361 326.88C140.021 332.683 144.446 337.027 149.689 337.027H198.658C202.366 337.027 205.667 334.846 207.523 331.516C206.138 332.25 204.594 332.633 203.026 332.631Z" fill="#444444"/>
<path d="M200.06 153.123L185.316 163.906L170.571 153.123V134.905L185.316 126.304L200.06 134.905V153.123Z" fill="black"/>
<path d="M191.453 148.444L185.315 152.936L179.172 148.444V140.857L185.315 137.278L191.453 140.857V148.444Z" fill="#2B55C2"/>
<path d="M179.637 91.3377V115.196L184.828 121.424L190.023 115.196V89.7207L179.637 91.3377Z" fill="black"/>
<path d="M174.355 132.696V151.282L188.793 161.362L185.316 163.907L170.571 153.124V134.906L174.355 132.696Z" fill="#1E1E1E"/>
<path d="M181.708 128.409L195.582 136.412V156.4L200.06 153.123V134.905L185.315 126.304L181.708 128.409Z" fill="#444444"/>
<path d="M200.06 134.906V128.208L185.316 119.597L170.571 128.208V134.906L172.136 133.992V129.122L185.316 123.572L198.495 129.122V133.992" fill="black"/>
<path opacity="0.2" d="M346.924 143.312L286.43 126.027L293.267 269.079L346.924 251.019V143.312Z" fill="url(#paint2_linear)"/>
</g>
<defs>
<linearGradient id="paint0_linear" x1="300.426" y1="665.971" x2="315.715" y2="377.92" gradientUnits="userSpaceOnUse">
<stop stop-color="#18A6C2"/>
<stop offset="0.99" stop-color="#2CFEFF"/>
</linearGradient>
<linearGradient id="paint1_linear" x1="4783.63" y1="85025" x2="7826.18" y2="26576.2" gradientUnits="userSpaceOnUse">
<stop stop-color="#9038C4"/>
<stop offset="0.26" stop-color="#6B45C4"/>
<stop offset="0.59" stop-color="#4252C4"/>
<stop offset="0.84" stop-color="#295BC4"/>
<stop offset="1" stop-color="#205EC4"/>
</linearGradient>
<linearGradient id="paint2_linear" x1="286.43" y1="197.553" x2="346.924" y2="197.553" gradientUnits="userSpaceOnUse">
<stop stop-color="white" stop-opacity="0"/>
<stop offset="1" stop-color="#0F18E7"/>
</linearGradient>
<clipPath id="clip0">
<rect width="500" height="382" fill="white"/>
</clipPath>
</defs>
</svg>
