<svg width="80" height="80" viewBox="0 0 80 80" fill="none" xmlns="http://www.w3.org/2000/svg">
<rect width="80" height="80" fill="white"/>
<path fill-rule="evenodd" clip-rule="evenodd" d="M35.5323 18.6309L35.6776 21.0098L33.257 20.7185C24.4462 19.6018 16.7488 15.815 10.2133 9.45508L7.01813 6.29939L6.19514 8.62975C4.45234 13.8245 5.56579 19.3105 9.19663 23.0003C11.1331 25.0393 10.6974 25.3306 7.35701 24.1169C6.19514 23.7285 5.1785 23.4372 5.08168 23.5829C4.7428 23.9227 5.90467 28.3407 6.82448 30.0884C8.08318 32.5159 10.649 34.8948 13.4568 36.3027L15.829 37.4194L13.0211 37.4679C10.3101 37.4679 10.2133 37.5165 10.5037 38.536C11.472 41.6917 15.2964 45.0416 19.5566 46.498L22.5581 47.5176L19.9439 49.0711C16.071 51.3044 11.5204 52.5667 6.96972 52.6638C4.79121 52.7123 3 52.9065 3 53.0522C3 53.5377 8.90617 56.2564 12.3434 57.3245C22.6549 60.4802 34.903 59.1208 44.1011 53.7318C50.6366 49.8965 57.1721 42.2743 60.222 34.8948C61.868 30.9623 63.514 23.7771 63.514 20.3301C63.514 18.0968 63.6592 17.8055 66.3703 15.1353C67.9678 13.5818 69.4686 11.8825 69.759 11.397C70.2431 10.4746 70.1947 10.4746 67.7258 11.2999C63.6108 12.7564 63.0299 12.5622 65.0632 10.3775C66.5639 8.82395 68.3551 6.0081 68.3551 5.18277C68.3551 5.03712 67.6289 5.27986 66.806 5.7168C65.9346 6.2023 63.9981 6.93053 62.5458 7.36747L59.9316 8.19281L57.5594 6.59069C56.2523 5.7168 54.4127 4.74582 53.4445 4.45453C50.9755 3.77484 47.1994 3.87194 44.9725 4.64873C38.9211 6.83343 35.0966 12.4651 35.5323 18.6309Z" fill="white" stroke="#333333" stroke-opacity="0.35" stroke-width="2.5"/>
</svg>
