<svg width="500" height="346" viewBox="0 0 500 346" fill="none" xmlns="http://www.w3.org/2000/svg">
<g clip-path="url(#clip0)">
<path d="M96.72 71.96L-83.76 -121.32L556.88 -129V71.96L467.6 74.2L378.32 80.92V189.72H104.4L96.72 71.96Z" fill="url(#paint0_linear)"/>
<g style="mix-blend-mode:luminosity">
<g style="mix-blend-mode:luminosity" opacity="0.7">
<path d="M267.583 315.386C356.505 315.386 428.59 261.055 428.59 194.035C428.59 127.014 356.505 72.6829 267.583 72.6829C178.661 72.6829 106.575 127.014 106.575 194.035C106.575 261.055 178.661 315.386 267.583 315.386Z" fill="url(#paint1_radial)"/>
<path d="M599.607 275.083V260.201L487.632 263.145L-42.2878 255.785V270.667L487.632 278.027L599.607 275.083Z" fill="#202020"/>
<path d="M487.838 263.145L-42.2878 255.785V270.667L487.838 278.027V263.145Z" fill="#474747"/>
<path d="M386.948 59.0576L97.4934 62.0016V195.497L386.948 192.553V59.0576Z" fill="#BCBEC0"/>
<path d="M382.738 63.5176L101.719 66.4616V191.037L382.738 188.093V63.5176Z" fill="#4B4B4B"/>
<path d="M382.738 147.201V188.093L101.719 191.037V143.933C114.42 141.461 125.258 145.128 140.3 144.242C153.05 143.491 172.787 140.474 172.787 140.474L192.835 128.698L201.947 131.568L233.094 123.104L264.006 113.271L305.222 141.872L323.284 134.895L353.357 138.958C353.357 138.958 373.155 143.859 382.738 147.201Z" fill="#383838"/>
<path d="M259.075 191.082H241.235V251.301H259.075V191.082Z" fill="#BCBEC0"/>
<path d="M197.619 262.821H250.155V252.576L197.619 257.699V262.821Z" fill="#999999"/>
<path d="M302.705 262.821H250.155V252.576L302.705 257.699V262.821Z" fill="#535353"/>
<path d="M225.617 51.0316L250.641 50.2956L263.153 49.9276L275.665 49.5596V61.3356L225.617 62.8076V51.0316Z" fill="#BCBEC0"/>
<path d="M230.842 56.1873C230.839 55.683 230.986 55.1892 231.264 54.7685C231.542 54.3478 231.939 54.0191 232.404 53.8241C232.869 53.6291 233.381 53.5765 233.876 53.6731C234.371 53.7697 234.826 54.0111 235.184 54.3666C235.541 54.7222 235.785 55.1759 235.885 55.6703C235.984 56.1647 235.935 56.6775 235.742 57.1437C235.55 57.6099 235.224 58.0084 234.805 58.2889C234.386 58.5694 233.893 58.7191 233.388 58.7191C232.716 58.7192 232.07 58.4529 231.593 57.9785C231.116 57.5041 230.846 56.8601 230.842 56.1873Z" fill="url(#paint2_linear)"/>
<path d="M366.929 151.864L353.813 145.361L340.433 151.864L335.192 163.982L340.433 177.624L353.813 182.603L366.929 177.624L372.434 163.982L366.929 151.864Z" fill="#797979"/>
<path d="M369.873 171L365.457 161.432H355.889M355.889 161.432L345.585 156.28L343.377 151.128M355.889 161.432L345.585 163.64L336.753 161.432" stroke="white" stroke-width="1.13231"/>
<path d="M463.432 76.1946L377.203 79.4146V254.709L463.432 257.653V76.1946Z" fill="#545454"/>
<path d="M549.964 84.5673L463.725 76.0624L463.132 257.52L549.37 254.843L549.964 84.5673Z" fill="#3A3A3A"/>
<path d="M549.456 85.4952L464.08 75.1912L377.04 78.9999" stroke="#646464" stroke-width="1.13231"/>
<path d="M389.303 256.182H379.234V261.658H389.303V256.182Z" fill="#181818"/>
<path d="M460.341 257.654H450.272V263.129H460.341V257.654Z" fill="#181818"/>
<path d="M476.063 257.654H465.994V263.129H476.063V257.654Z" fill="#040404"/>
<path d="M213.457 252.65H94.9316V262.38H213.457V252.65Z" fill="#111111"/>
<path d="M94.9316 253.401L141.55 245.908H251.508L213.472 252.65L94.9316 253.401Z" fill="#2B2B2B"/>
<path d="M213.472 262.821L251.508 255.726V245.908L213.472 252.65V262.821Z" fill="#111111"/>
<path d="M101.718 117.152C105.663 119.743 124.401 131.254 125.27 144.207C126.138 157.161 135.898 159.457 143.949 166.361C152.001 173.265 159.037 199.613 159.037 199.613H101.718V117.152Z" fill="#111111"/>
</g>
<path d="M241.233 263.145H292.459L283.023 250.233L255.262 245.908L241.233 263.145Z" fill="#5D5D5D"/>
<path d="M158.743 137.26L125.049 128.428L107.635 105.141L118.146 74.4346L128.656 43.7287C128.656 43.7287 137.14 42.2185 141.447 42.0801H145.127C161.157 42.5806 174.906 49.602 175.936 64.7342C176.025 66.0884 184.4 64.7342 184.4 64.7342L170.416 131.736L158.743 137.26Z" fill="#868686"/>
<path d="M177.04 36.0564L128.655 43.714L99.0242 64.7194L101.232 85.3686L125.049 128.413L148.601 120.7L159.082 96.441L177.04 81.6884L187.92 57.5924L209.776 48.6324L177.04 36.0564ZM175.833 63.9392C175.882 64.1972 175.916 64.4576 175.936 64.7194C175.877 64.4544 175.818 64.2042 175.789 63.9392H175.833Z" fill="url(#paint3_linear)"/>
<path d="M88.4696 359.708H144.406L135.22 499.828H164.513L196.382 363.462L173.522 310.794L37.4795 293.615L38.8043 328.487C39.0742 335.867 47.0825 348.269 47.0825 348.269C47.0825 348.269 58.9944 356.99 66.3454 357.692C73.6964 358.393 88.4696 359.708 88.4696 359.708Z" fill="url(#paint4_linear)"/>
<path d="M176.305 359.708H232.241L223.055 499.828H252.333L284.497 344.44L261.342 310.794L125.314 293.615C125.314 293.615 126.369 321.108 126.639 328.487C126.909 335.867 133.617 351.8 133.617 351.8L154.18 357.692L176.305 359.708Z" fill="url(#paint5_linear)"/>
<path d="M164.057 141.616L95.3445 122.168L18.0645 142.293L38.2014 304.331C48.7851 346.828 124.696 362.461 156.727 304.331L164.057 141.616Z" fill="url(#paint6_linear)"/>
<path d="M124.048 363.576L-40.8157 357.688L-36.3997 138.36L-96.7517 78.0083L-23.8877 72.1203L-31.9205 25.8803L-27.4405 20.7603H39.7595L80.0795 74.5203L139.504 89.7843L98.2883 282.616L124.048 363.576Z" fill="url(#paint7_linear)"/>
<path d="M103.44 364.313L-58.48 359.897L-45.232 294.393L-101.168 78.7446H-65.2005L-31.2805 26.5203H31.4395L76.2395 84.7609L124.784 93.8326L83.568 289.241L103.44 364.313Z" fill="url(#paint8_linear)"/>
<path d="M180.72 284.534H155.872V395.802H160.112L180.72 284.534Z" fill="#464646"/>
<path d="M109.328 273.785L221.2 278.201L201.328 292.921L115.216 289.977L109.328 273.785Z" fill="#505050"/>
<path d="M173.36 243.608L175.568 221.528L138.032 234.04L156.432 274.52L244.752 262.008L259.472 256.12L281.552 259.8L285.232 256.856L255.056 236.248L229.296 247.288L173.36 243.608Z" fill="#868686"/>
<path d="M178.512 225.385L174.965 154.814L158.64 140.568L121.84 197.976L134.352 234.555L178.512 225.385Z" fill="url(#paint9_linear)"/>
<path d="M131.408 42.3621L157.654 50.0405L166.486 82.557H175.863L163.542 48.6827L145.392 39.0005L131.408 42.3621Z" fill="#282828"/>
</g>
<path d="M172.815 114.93L186.799 105.362L187.535 83.2815L166.132 75.1597L153.679 86.2326V103.121L172.815 114.93Z" fill="#679BFF"/>
<path d="M181.839 102.04L186.799 105.362L187.535 83.2823L166.132 75.1604L169.04 81.5604L181.839 102.04Z" fill="white" fill-opacity="0.4"/>
<path d="M171.624 108.333L182.192 102.111V86.8408L169.112 81.6667L159.334 88.7779V99.4446L171.624 108.333Z" fill="#606060"/>
<path d="M175.423 93.4638L174.519 93.2183L168.343 91.5512L170.247 98.6604L175.423 93.4638ZM173.347 94.02L170.798 96.5624L169.868 93.0931L173.347 94.02Z" fill="white"/>
<rect width="7.11114" height="7.11114" transform="matrix(0.70711 0.707103 -0.70711 0.707103 354 167.838)" fill="#4F4F4F"/>
<rect y="1.60133" width="15.4501" height="15.4501" transform="matrix(0.707104 0.70711 -0.707104 0.70711 421.6 154.989)" stroke="#696969" stroke-width="2.26462"/>
<rect x="420.536" y="84.4412" width="43.8615" height="43.8615" transform="rotate(45 420.536 84.4412)" stroke="#679BFF" stroke-width="2.26462"/>
<path d="M302.8 260.76C319.013 261.613 349.648 261.656 342.48 255C335.312 248.344 301.52 254.147 288.08 257.56" stroke="#679BFF" stroke-width="1.13231"/>
</g>
<defs>
<linearGradient id="paint0_linear" x1="236.56" y1="-129" x2="236.56" y2="123.16" gradientUnits="userSpaceOnUse">
<stop stop-color="#A467DE" stop-opacity="0"/>
<stop offset="1" stop-color="white" stop-opacity="0.07"/>
<stop offset="1" stop-color="#A467DE"/>
</linearGradient>
<radialGradient id="paint1_radial" cx="0" cy="0" r="1" gradientUnits="userSpaceOnUse" gradientTransform="translate(243.919 164.12) rotate(9.28899) scale(179.92 135.822)">
<stop stop-color="#A467DE"/>
<stop offset="1" stop-opacity="0"/>
</radialGradient>
<linearGradient id="paint2_linear" x1="1306.24" y1="1035.13" x2="1471.51" y2="658.749" gradientUnits="userSpaceOnUse">
<stop stop-color="white"/>
<stop offset="1" stop-color="#838383"/>
</linearGradient>
<linearGradient id="paint3_linear" x1="153.08" y1="128.413" x2="153.08" y2="36.0564" gradientUnits="userSpaceOnUse">
<stop stop-color="#474747"/>
<stop offset="1" stop-color="#565656"/>
</linearGradient>
<linearGradient id="paint4_linear" x1="116.931" y1="504.62" x2="116.931" y2="275.739" gradientUnits="userSpaceOnUse">
<stop stop-color="#545454"/>
<stop offset="1" stop-color="#C6C6C6"/>
</linearGradient>
<linearGradient id="paint5_linear" x1="204.906" y1="504.62" x2="204.906" y2="275.739" gradientUnits="userSpaceOnUse">
<stop stop-color="#545454"/>
<stop offset="1" stop-color="#C6C6C6"/>
</linearGradient>
<linearGradient id="paint6_linear" x1="91.0609" y1="122.168" x2="91.0609" y2="342.291" gradientUnits="userSpaceOnUse">
<stop stop-color="#353535"/>
<stop offset="1" stop-color="#242424"/>
</linearGradient>
<linearGradient id="paint7_linear" x1="21.3763" y1="-23.5598" x2="99.0244" y2="356.952" gradientUnits="userSpaceOnUse">
<stop stop-color="#797979"/>
<stop offset="1" stop-color="#393838"/>
</linearGradient>
<linearGradient id="paint8_linear" x1="11.6245" y1="-15.8601" x2="10.38" y2="315.331" gradientUnits="userSpaceOnUse">
<stop stop-color="#8F8F8F"/>
<stop offset="1" stop-color="#4A4A4A"/>
</linearGradient>
<linearGradient id="paint9_linear" x1="122.576" y1="168.536" x2="191.024" y2="206.808" gradientUnits="userSpaceOnUse">
<stop stop-color="#444444"/>
<stop offset="1" stop-color="#7D7979"/>
</linearGradient>
<clipPath id="clip0">
<rect width="500" height="346" fill="white"/>
</clipPath>
</defs>
</svg>
