<svg width="440" height="532" viewBox="0 0 440 532" fill="none" xmlns="http://www.w3.org/2000/svg">
<g clip-path="url(#clip0)">
<rect width="440" height="532" fill="#333333"/>
<path d="M100.5 123.5L-40.5 -27.5L460 -33.5V123.5L390.25 125.25L320.5 130.5V215.5H106.5L100.5 123.5Z" fill="url(#paint0_linear)"/>
<path d="M233.986 313.676C303.456 313.676 359.773 271.23 359.773 218.87C359.773 166.511 303.456 124.064 233.986 124.064C164.516 124.064 108.199 166.511 108.199 218.87C108.199 271.23 164.516 313.676 233.986 313.676Z" fill="url(#paint1_radial)"/>
<path d="M448.45 486.211H452.797L443.597 282.178H431.855L448.45 486.211Z" fill="#1C1C1C"/>
<path d="M493.381 282.189V270.562L405.9 272.862L-8.09993 267.112V278.739L405.9 284.489L493.381 282.189Z" fill="#202020"/>
<path d="M406.061 272.862L-8.09993 267.112V278.739L406.061 284.489V272.862Z" fill="#474747"/>
<path d="M327.24 113.42L101.104 115.72V220.013L327.24 217.713V113.42Z" fill="#BCBEC0"/>
<path d="M323.951 116.904L104.405 119.204V216.529L323.951 214.229V116.904Z" fill="#4B4B4B"/>
<path d="M323.951 182.282V214.229L104.405 216.529V179.729C114.328 177.798 122.795 180.663 134.546 179.97C144.507 179.384 159.927 177.026 159.927 177.026L175.59 167.826L182.708 170.069L207.042 163.456L231.192 155.774L263.392 178.119L277.503 172.668L300.997 175.842C300.997 175.842 316.465 179.671 323.951 182.282Z" fill="#383838"/>
<path d="M227.34 216.563H213.402V263.61H227.34V216.563Z" fill="#BCBEC0"/>
<path d="M179.327 272.61H220.37V264.606L179.327 268.608V272.61Z" fill="#999999"/>
<path d="M261.426 272.61H220.371V264.606L261.426 268.608V272.61Z" fill="#535353"/>
<path d="M201.2 107.149L220.75 106.574L230.525 106.287L240.3 105.999V115.199L201.2 116.349V107.149Z" fill="#BCBEC0"/>
<path d="M205.282 111.177C205.28 110.783 205.395 110.397 205.612 110.068C205.829 109.74 206.139 109.483 206.502 109.331C206.866 109.178 207.266 109.137 207.653 109.213C208.04 109.288 208.395 109.477 208.674 109.754C208.954 110.032 209.144 110.387 209.222 110.773C209.3 111.159 209.261 111.56 209.111 111.924C208.961 112.288 208.706 112.6 208.378 112.819C208.051 113.038 207.666 113.155 207.272 113.155C206.746 113.155 206.242 112.947 205.869 112.576C205.496 112.206 205.285 111.702 205.282 111.177Z" fill="url(#paint2_linear)"/>
<path d="M311.6 185.924L301.354 180.844L290.9 185.924L286.806 195.391L290.9 206.049L301.354 209.939L311.6 206.049L315.901 195.391L311.6 185.924Z" fill="#797979"/>
<path d="M313.9 200.875L310.45 193.4H302.975M302.975 193.4L294.925 189.375L293.2 185.35M302.975 193.4L294.925 195.125L288.025 193.4" stroke="white"/>
<path d="M386.994 126.808L319.627 129.323V266.272L386.994 268.572V126.808Z" fill="#545454"/>
<path d="M454.596 133.349L387.222 126.704L386.759 268.468L454.133 266.376L454.596 133.349Z" fill="#3A3A3A"/>
<path d="M454.2 134.073L387.5 126.023L319.499 128.999" stroke="#646464"/>
<path d="M329.08 267.423H321.214V271.701H329.08V267.423Z" fill="#181818"/>
<path d="M384.579 268.572H376.713V272.85H384.579V268.572Z" fill="#181818"/>
<path d="M396.861 268.572H388.995V272.85H396.861V268.572Z" fill="#040404"/>
<path d="M191.701 264.664H99.1028V272.266H191.701V264.664Z" fill="#111111"/>
<path d="M99.1028 265.25L135.523 259.396H221.428L191.712 264.664L99.1028 265.25Z" fill="#2B2B2B"/>
<path d="M191.712 272.61L221.428 267.067V259.396L191.712 264.664V272.61Z" fill="#111111"/>
<path d="M443.597 461.394L407.717 469.777H394.895L430.786 461.394H443.597Z" fill="#414141"/>
<path d="M493.392 469.777V486.222H407.717V469.777L443.597 461.394H457.5L493.392 469.777Z" fill="#121212"/>
<path d="M407.717 469.777H394.895V486.222H407.717V469.777Z" fill="#1C1C1C"/>
<path d="M8.50605 284.478H-5.38596L2.66405 486.211H8.50605V284.478Z" fill="#1C1C1C"/>
<path d="M-2.17748 487.36H2.66402L-5.38598 278.727H-17.1275L-2.17748 487.36Z" fill="#2D2D2D"/>
<path d="M44.3976 469.777V486.222H-41.2774V469.777L-5.39743 461.394H8.50607L44.3976 469.777Z" fill="#1C1C1C"/>
<path d="M104.404 158.806C107.486 160.83 122.126 169.823 122.804 179.943C123.483 190.063 131.107 191.857 137.398 197.25C143.688 202.644 149.185 223.229 149.185 223.229H104.404V158.806Z" fill="#111111"/>
<path d="M213.401 272.863H253.421L246.05 262.775L224.361 259.396L213.401 272.863Z" fill="#5D5D5D"/>
<path d="M148.956 174.515L122.632 167.615L109.028 149.422L117.239 125.433L125.45 101.444C125.45 101.444 132.078 100.264 135.443 100.156H138.318C150.842 100.547 161.583 106.033 162.388 117.855C162.457 118.913 169 117.855 169 117.855L158.075 170.2L148.956 174.515Z" fill="#868686"/>
<path d="M163.25 95.4502L125.45 101.433L102.3 117.843L104.025 133.975L122.632 167.604L141.032 161.578L149.22 142.626L163.25 131.1L171.75 112.275L188.825 105.275L163.25 95.4502ZM162.307 117.234C162.345 117.435 162.372 117.639 162.388 117.843C162.342 117.636 162.296 117.441 162.273 117.234H162.307Z" fill="url(#paint3_linear)"/>
<path d="M94.0544 348.303H137.754L130.578 457.771H153.463L178.361 351.235L160.501 310.088L54.2184 296.668L55.2534 323.911C55.4643 329.677 61.7207 339.366 61.7207 339.366C61.7207 339.366 71.027 346.179 76.7699 346.727C82.5129 347.276 94.0544 348.303 94.0544 348.303Z" fill="url(#paint4_linear)"/>
<path d="M162.675 348.303H206.375L199.199 457.771H222.073L247.2 336.375L229.111 310.088L122.839 296.668C122.839 296.668 123.663 318.146 123.874 323.911C124.085 329.677 129.325 342.125 129.325 342.125L145.391 346.727L162.675 348.303Z" fill="url(#paint5_linear)"/>
<path d="M218.082 457.771L247.568 472.078L259.781 478.146V486.222C259.781 486.222 254.462 486.222 251.386 486.222H196.588L199.176 457.771H218.082Z" fill="#686868"/>
<path d="M149.652 457.771L179.138 472.078L191.351 478.146V486.222C191.351 486.222 186.033 486.222 182.956 486.222H126.769L130.746 457.771H149.652Z" fill="#686868"/>
<path d="M153.107 177.919L99.4251 162.725L39.0501 178.448L54.7821 305.04C63.0506 338.24 122.356 350.453 147.38 305.04L153.107 177.919Z" fill="url(#paint6_linear)"/>
<path d="M121.85 351.325L-6.94979 346.725L-3.49979 175.375L-50.6498 128.225L6.27521 123.625L-0.00038147 87.5L3.49962 83.5H55.9996L87.4996 125.5L133.925 137.425L101.725 288.075L121.85 351.325Z" fill="url(#paint7_linear)"/>
<path d="M105.75 351.9L-20.75 348.45L-10.4 297.275L-54.1 128.8H-26.0004L0.499603 88H49.4996L84.4996 133.5L122.425 140.588L90.225 293.25L105.75 351.9Z" fill="url(#paint8_linear)"/>
<path d="M-20.7502 348.45L118.4 351.9V380.625L5.69985 373.45L-20.7502 348.45Z" fill="url(#paint9_linear)"/>
<path d="M118 343L186.25 348.45L193.5 362.5L188.5 374L132 383L118 343Z" fill="#444444"/>
<path d="M147.15 361.734V380.5L124 383.5L100 380.5V350.75H128.75L147.15 361.734Z" fill="#2B2B2B"/>
<path d="M147.15 361.734V380.379L124.15 382.35V350.75H129.199H141.4L147.15 361.734Z" fill="#343434"/>
<path d="M166.125 289.572H146.713V376.501H150.025L166.125 289.572Z" fill="#464646"/>
<path d="M110.35 281.175L197.75 284.625L182.225 296.125L114.95 293.825L110.35 281.175Z" fill="#505050"/>
<path d="M91.4998 378.5L61.9998 377.028L68.697 384V449.756H85.418V384L91.4998 378.5Z" fill="url(#paint10_linear)"/>
<path d="M63.844 449.756H77.0575V477.187L0.524933 484.291L0.628533 468.832L8.67854 467.107L63.844 449.756Z" fill="#121212"/>
<path d="M90.2711 449.756H77.0576V477.187L154.314 484.958V468.535L146 467.475L90.2711 449.756Z" fill="#121212"/>
<path d="M160.375 257.6L162.1 240.35L132.775 250.125L147.15 281.75L216.15 271.975L227.65 267.375L244.9 270.25L247.775 267.95L224.2 251.85L204.075 260.475L160.375 257.6Z" fill="#868686"/>
<path d="M164.4 243.363L161.629 188.229L148.875 177.1L120.125 221.95L129.9 250.527L164.4 243.363Z" fill="url(#paint11_linear)"/>
<path d="M127.6 100.376L148.105 106.375L155.005 131.778H162.33L152.705 105.314L138.525 97.75L127.6 100.376Z" fill="#282828"/>
<path d="M159.949 157.07L170.874 149.595L171.449 132.345L154.728 126L144.999 134.651V147.845L159.949 157.07Z" fill="#A467DE"/>
<path d="M167 147L170.875 149.595L171.45 132.345L154.729 126L157 131L167 147Z" fill="white" fill-opacity="0.4"/>
<path d="M159.018 151.916L167.275 147.055V135.125L157.056 131.083L149.417 136.639V144.972L159.018 151.916Z" fill="#606060"/>
<path d="M161.987 140.299L161.281 140.108L156.455 138.805L157.943 144.359L161.987 140.299ZM160.365 140.734L158.373 142.72L157.647 140.01L160.365 140.734Z" fill="white"/>
<rect width="5.55557" height="5.55557" transform="matrix(0.707106 0.707107 -0.707106 0.707107 301.5 198.404)" fill="#4F4F4F"/>
<rect y="1.41422" width="11.8396" height="11.8396" transform="matrix(0.707102 0.707111 -0.707102 0.707111 354.428 188.414)" stroke="#696969" stroke-width="2"/>
<rect y="1.41421" width="34.036" height="34.036" transform="matrix(0.707107 0.707106 -0.707107 0.707106 354.481 132.414)" stroke="#A467DE" stroke-width="2"/>
<path d="M261.5 271C274.167 271.667 298.1 271.7 292.5 266.5C286.9 261.3 260.5 265.834 250 268.5" stroke="#A467DE"/>
<path d="M541.799 470.421L608 489.262L608 618H6.10352e-05L0 476.836L17.2333 467L61.9979 483.28L113.698 467.18L142.28 478.343L186.414 470.421L275.733 488.612L358.537 470.421L384.807 485.409L431.253 478.343L489.468 489.262L541.799 470.421Z" fill="#121212"/>
<path d="M541.799 470.421L608 489.262L608 618H6.10352e-05L0 476.836L17.2333 467L61.9979 483.28L113.698 467.18L142.28 478.343L186.414 470.421L275.733 488.612L358.537 470.421L384.807 485.409L431.253 478.343L489.468 489.262L541.799 470.421Z" fill="white" fill-opacity="0.12"/>
<path d="M66.2012 492.586L0 512.332V598H608V499.308L590.767 489L546.002 506.063L494.302 489.188L465.72 500.888L421.586 492.586L332.267 511.65L249.463 492.586L223.193 508.293L176.747 500.888L118.532 512.332L66.2012 492.586Z" fill="#121212"/>
<path d="M66.2012 492.586L0 512.332V598H608V499.308L590.767 489L546.002 506.063L494.302 489.188L465.72 500.888L421.586 492.586L332.267 511.65L249.463 492.586L223.193 508.293L176.747 500.888L118.532 512.332L66.2012 492.586Z" fill="white" fill-opacity="0.08"/>
</g>
<defs>
<linearGradient id="paint0_linear" x1="209.75" y1="-33.5" x2="209.75" y2="163.5" gradientUnits="userSpaceOnUse">
<stop stop-color="#A467DE" stop-opacity="0"/>
<stop offset="1" stop-color="white" stop-opacity="0.07"/>
<stop offset="1" stop-color="#A467DE"/>
</linearGradient>
<radialGradient id="paint1_radial" cx="0" cy="0" r="1" gradientUnits="userSpaceOnUse" gradientTransform="translate(215.499 195.5) rotate(9.28899) scale(140.562 106.111)">
<stop stop-color="white" stop-opacity="0.5"/>
<stop offset="1" stop-opacity="0"/>
</radialGradient>
<linearGradient id="paint2_linear" x1="1045.45" y1="875.973" x2="1174.57" y2="581.923" gradientUnits="userSpaceOnUse">
<stop stop-color="white"/>
<stop offset="1" stop-color="#838383"/>
</linearGradient>
<linearGradient id="paint3_linear" x1="144.531" y1="167.604" x2="144.531" y2="95.4502" gradientUnits="userSpaceOnUse">
<stop stop-color="#474747"/>
<stop offset="1" stop-color="#565656"/>
</linearGradient>
<linearGradient id="paint4_linear" x1="116.29" y1="461.515" x2="116.29" y2="282.702" gradientUnits="userSpaceOnUse">
<stop stop-color="#545454"/>
<stop offset="1" stop-color="#C6C6C6"/>
</linearGradient>
<linearGradient id="paint5_linear" x1="185.02" y1="461.515" x2="185.02" y2="282.702" gradientUnits="userSpaceOnUse">
<stop stop-color="#545454"/>
<stop offset="1" stop-color="#C6C6C6"/>
</linearGradient>
<linearGradient id="paint6_linear" x1="96.0786" y1="162.725" x2="96.0786" y2="334.696" gradientUnits="userSpaceOnUse">
<stop stop-color="#353535"/>
<stop offset="1" stop-color="#242424"/>
</linearGradient>
<linearGradient id="paint7_linear" x1="41.6377" y1="48.875" x2="102.3" y2="346.15" gradientUnits="userSpaceOnUse">
<stop stop-color="#797979"/>
<stop offset="1" stop-color="#393838"/>
</linearGradient>
<linearGradient id="paint8_linear" x1="34.0191" y1="54.8903" x2="33.0468" y2="313.633" gradientUnits="userSpaceOnUse">
<stop stop-color="#8F8F8F"/>
<stop offset="1" stop-color="#4A4A4A"/>
</linearGradient>
<linearGradient id="paint9_linear" x1="48.9241" y1="376.625" x2="48.9241" y2="348.45" gradientUnits="userSpaceOnUse">
<stop stop-color="#292929"/>
<stop offset="1" stop-color="#3F3F3F"/>
</linearGradient>
<linearGradient id="paint10_linear" x1="90.9998" y1="429.5" x2="43.4998" y2="427.5" gradientUnits="userSpaceOnUse">
<stop stop-color="#121212"/>
<stop offset="1" stop-color="#121212" stop-opacity="0"/>
</linearGradient>
<linearGradient id="paint11_linear" x1="120.7" y1="198.949" x2="174.175" y2="228.849" gradientUnits="userSpaceOnUse">
<stop stop-color="#444444"/>
<stop offset="1" stop-color="#7D7979"/>
</linearGradient>
<clipPath id="clip0">
<rect width="440" height="532" fill="white"/>
</clipPath>
</defs>
</svg>
