<svg width="440" height="532" viewBox="0 0 440 532" fill="none" xmlns="http://www.w3.org/2000/svg">
<g clip-path="url(#clip0)">
<rect width="440" height="532" fill="#333333"/>
<g clip-path="url(#clip1)">
<rect width="500" height="540" transform="translate(-30 7)" fill="#333333"/>
<path d="M511.799 213.421L578 232.262L578 361H-29.9999L-30 219.836L-12.7667 210L31.9979 226.28L83.6979 210.18L112.28 221.343L156.414 213.421L245.733 231.612L328.537 213.421L354.807 228.409L401.253 221.343L459.468 232.262L511.799 213.421Z" fill="#121212"/>
<path d="M511.799 213.421L578 232.262L578 361H-29.9999L-30 219.836L-12.7667 210L31.9979 226.28L83.6979 210.18L112.28 221.343L156.414 213.421L245.733 231.612L328.537 213.421L354.807 228.409L401.253 221.343L459.468 232.262L511.799 213.421Z" fill="white" fill-opacity="0.09"/>
<path d="M815.484 72.2578H-134V547H815.484V72.2578Z" fill="#333333"/>
<path d="M815.484 385.588H-134V547H815.484V385.588Z" fill="#333333"/>
<g opacity="0.4">
<path d="M278.307 134.611H267.616V202.869H278.307V134.611Z" fill="#4E4E50"/>
<path d="M282.095 210.204H264V213.953H282.095V210.204Z" fill="#4E4E50"/>
<path d="M674.568 98H-58.9993V134.678H674.568V98Z" fill="#696969"/>
<path d="M674.567 130.93H-59V134.679H674.567V130.93Z" fill="#595B5C"/>
<path d="M44.6536 101.913H42.5345L31.3106 130.93H33.4298L44.6536 101.913Z" fill="#8B8D8E"/>
<path d="M281.597 134.611H264.327V177.375H281.597V134.611Z" fill="url(#paint0_linear)"/>
<path d="M275.413 202.869H270.686V210.205H275.413V202.869Z" fill="#4E4E50"/>
<path d="M45.8647 134.611H35.9961V202.869H45.8647V134.611Z" fill="#4E4E50"/>
<path d="M50.0947 209.25H32V212.999H50.0947V209.25Z" fill="#4E4E50"/>
<path d="M49.9771 134.611H32.707V177.375H49.9771V134.611Z" fill="url(#paint1_linear)"/>
<path d="M43.41 201.915H38.6826V209.251H43.41V201.915Z" fill="#4E4E50"/>
<path d="M179.527 101.75H177.408L173.296 130.767H175.415L179.527 101.75Z" fill="#8B8D8E"/>
<path d="M127.231 101.75H125.112L121 130.767H123.119L127.231 101.75Z" fill="#8B8D8E"/>
<path d="M84.2311 101.75H82.1119L75 130.767H77.1192L84.2311 101.75Z" fill="#8B8D8E"/>
<path d="M7.23108 101.75H5.11192L-7 130.767H-4.88084L7.23108 101.75Z" fill="#8B8D8E"/>
<path d="M222.853 101.749H220.734V130.766H222.853V101.749Z" fill="#8B8D8E"/>
<path d="M266.015 101.749H263.896L268.008 130.766H270.127L266.015 101.749Z" fill="#8B8D8E"/>
<path d="M309.34 101.749H307.221L315.445 130.766H317.564L309.34 101.749Z" fill="#8B8D8E"/>
<path d="M356.614 101.749H354.495L362.719 130.766H364.838L356.614 101.749Z" fill="#8B8D8E"/>
<path d="M404.052 101.749H401.933L410.157 130.766H412.276L404.052 101.749Z" fill="#8B8D8E"/>
<path d="M674.568 98H-58.9993V101.749H674.568V98Z" fill="#595B5C"/>
<path d="M443.525 91.7324L412.525 85.1432L381.19 92.3857L412.191 98.9749L443.525 91.7324Z" fill="#626466"/>
<path d="M411.974 98.9456L381.063 91.9512V123.101L411.974 130.096V98.9456Z" fill="#9EA0A2"/>
<path d="M400.259 117.216L384.771 113.712V116.45L400.259 119.954V117.216Z" fill="#757779"/>
<path d="M406.469 111.484L410.704 112.442C411.021 112.514 411.233 112.345 411.233 112.019V110.825C411.233 110.5 411.021 110.235 410.704 110.163L406.469 109.205C406.152 109.133 405.94 109.302 405.94 109.627V110.821C405.834 111.123 406.152 111.412 406.469 111.484Z" fill="#757779"/>
<path d="M381.062 91.9508L379.898 85.7178L412.82 93.1674L411.973 98.9452L381.062 91.9508Z" fill="#8A8C8E"/>
<path d="M411.922 85.3531L410.758 79.1201L443.68 86.5697L442.833 92.3476L411.922 85.3531Z" fill="#8A8C8E"/>
<path d="M411.726 98.9456L442.637 91.9512V123.101L411.726 130.096V98.9456Z" fill="#8A8C8E"/>
<path d="M423.764 115.404L419.529 116.362C419.212 116.434 419 116.265 419 115.939V114.745C419 114.419 419.212 114.154 419.529 114.083L423.764 113.124C424.081 113.053 424.293 113.222 424.293 113.547V114.741C424.399 115.043 424.081 115.332 423.764 115.404Z" fill="#757779"/>
<path d="M442.637 91.9507L444.896 94.4785L413.616 101.381L411.726 98.9452L442.637 91.9507Z" fill="#808284"/>
<path d="M409.911 82.9166L412.171 85.4443L380.891 92.3464L379 89.911L409.911 82.9166Z" fill="#8A8C8E"/>
<path d="M183.058 89.3754L152.633 82.9084L122.417 89.6254L152.305 96.4835L183.058 89.3754Z" fill="#A8AAAC"/>
<path d="M152.629 96.4545L122.291 89.5898V120.162L152.629 127.026V96.4545Z" fill="#9EA0A2"/>
<path d="M139.339 93.1269L139.339 108.711L141.959 109.73L141.959 94.1461L139.339 93.1269Z" fill="#757779"/>
<path d="M147.226 108.76L151.382 109.7C151.693 109.77 151.901 109.604 151.901 109.285V108.113C151.901 107.793 151.693 107.533 151.382 107.463L147.226 106.523C146.914 106.452 146.707 106.618 146.707 106.938V108.109C146.603 108.405 146.914 108.689 147.226 108.76Z" fill="#757779"/>
<path d="M152.385 96.4545L182.723 89.5898V120.162L152.385 127.026V96.4545Z" fill="#8A8C8E"/>
<path d="M163.884 114.386L179.084 110.946V113.633L163.884 117.073V114.386Z" fill="#757779"/>
<path d="M412.092 64.909L412.092 30.8179L423.301 30.818L423.301 64.9091L412.092 64.909Z" fill="#969696"/>
<path d="M386.018 221.127H309.395L313.088 146.868L388.217 142.781L386.018 221.127Z" fill="url(#paint2_linear)"/>
<path d="M397.204 221.127H385.965L387.616 142.781L398.721 143.462L397.204 221.127Z" fill="url(#paint3_linear)"/>
<path d="M300.147 66.9047L332.769 133.298H355.39C349.538 114.8 346.258 104.428 340.406 85.9294L312.794 62.0186L300.147 66.9047Z" fill="url(#paint4_linear)"/>
<path d="M304.16 66.9047L336.782 133.298H359.403C353.551 114.8 348.568 102.044 342.716 83.5456L316.807 62.0186L304.16 66.9047Z" fill="url(#paint5_linear)"/>
<path d="M379.589 29.7356L328.413 49.4906L332.727 59.8181L383.563 40.0631L379.589 29.7356Z" fill="#969696"/>
<path d="M389.958 19.9188L383.354 22.3623L390.684 42.1756L397.289 39.7322L389.958 19.9188Z" fill="url(#paint6_linear)"/>
<path d="M407.792 17.9775L391.429 24.2734L395.402 34.6009L411.766 28.305L407.792 17.9775Z" fill="#969696"/>
<path d="M379.186 29.9701L383.353 22.3535L390.682 42.1854L383.066 40.0297L379.186 29.9701Z" fill="url(#paint7_linear)"/>
<path d="M335.105 65.6454L322.963 70.9452L314.67 50.9106L326.82 45.7543L335.105 65.6454Z" fill="url(#paint8_linear)"/>
<path d="M406.778 27.5265V19.7663L411.161 11.0332L417.588 11L424.014 11.0332L428.397 19.7663V27.5265L424.014 36.2596L417.588 36.2928L411.161 36.2596L406.778 27.5265Z" fill="#4A4A4A"/>
<path d="M359.458 157.687L364.959 144.937L359.458 132.186L346.708 126.686L333.957 132.186L328.456 144.937L333.957 157.687L346.708 163.188L359.458 157.687Z" fill="#4A4A4A"/>
<path d="M325.7 78.7896L331.2 66.0392L325.7 53.2887L312.949 47.7881L300.199 53.2887L294.698 66.0392L300.199 78.7896L312.949 84.2902L325.7 78.7896Z" fill="#4A4A4A"/>
<path d="M404.374 69.583L404.374 63.4531L427.93 65.4964L427.93 73.3196L404.374 69.583Z" fill="#828282"/>
</g>
<path d="M495.799 204.421L562 223.262L562 542H-45.9999L-46 210.836L-28.7667 201L15.9979 217.28L67.6979 201.18L96.2799 212.343L140.414 204.421L229.733 222.612L312.537 204.421L338.807 219.409L385.253 212.343L443.468 223.262L495.799 204.421Z" fill="#121212"/>
<path d="M495.799 204.421L562 223.262L562 542H-45.9999L-46 210.836L-28.7667 201L15.9979 217.28L67.6979 201.18L96.2799 212.343L140.414 204.421L229.733 222.612L312.537 204.421L338.807 219.409L385.253 212.343L443.468 223.262L495.799 204.421Z" fill="white" fill-opacity="0.16"/>
<path d="M192.784 394.784H178.947V483.133H192.784V394.784Z" fill="#4E4E50"/>
<path d="M380.127 394.784H367.353V483.133H380.127V394.784Z" fill="#4E4E50"/>
<path d="M197.686 492.628H174.266V497.481H197.686V492.628Z" fill="#4E4E50"/>
<path d="M815.485 347.397H-133.999V394.872H815.485V347.397Z" fill="#737373"/>
<path d="M815.484 390.019H-134V394.871H815.484V390.019Z" fill="#595B5C"/>
<path d="M197.042 394.784H174.689V450.135H197.042V394.784Z" fill="url(#paint9_linear)"/>
<path d="M385.449 394.784H363.096V450.135H385.449V394.784Z" fill="url(#paint10_linear)"/>
<path d="M189.036 483.134H182.918V492.629H189.036V483.134Z" fill="#4E4E50"/>
<path d="M385.684 492.628H362.264V497.481H385.684V492.628Z" fill="#4E4E50"/>
<path d="M377.034 483.134H370.915V492.629H377.034V483.134Z" fill="#4E4E50"/>
<path d="M9.69997 394.784H-3.07336V483.133H9.69997V394.784Z" fill="#4E4E50"/>
<path d="M15.1747 504.337H-8.24591V509.19H15.1747V504.337Z" fill="#4E4E50"/>
<path d="M15.0222 394.784H-7.33115V450.135H15.0222V394.784Z" fill="url(#paint11_linear)"/>
<path d="M6.52367 494.842H0.404785V504.337H6.52367V494.842Z" fill="#4E4E50"/>
<path d="M174.735 352.25H171.992L166.67 389.807H169.413L174.735 352.25Z" fill="#8B8D8E"/>
<path d="M230.813 352.25H228.07V389.807H230.813V352.25Z" fill="#8B8D8E"/>
<path d="M286.68 352.25H283.937L289.259 389.807H292.002L286.68 352.25Z" fill="#8B8D8E"/>
<path d="M342.757 352.25H340.015L350.659 389.807H353.402L342.757 352.25Z" fill="#8B8D8E"/>
<path d="M403.946 352.25H401.203L411.848 389.807H414.591L403.946 352.25Z" fill="#8B8D8E"/>
<path d="M815.485 347.397H-133.999V352.25H815.485V347.397Z" fill="#595B5C"/>
<path d="M192.022 448.007H43V547H192.022V448.007Z" fill="url(#paint12_linear)"/>
<path d="M407.636 304.344L347.371 291.534L286.456 305.614L346.721 318.424L407.636 304.344Z" fill="#626466"/>
<path d="M346.299 318.365L286.208 304.768V365.324L346.299 378.921V318.365Z" fill="#9EA0A2"/>
<path d="M323.524 353.884L293.416 347.071V352.394L323.524 359.206V353.884Z" fill="#757779"/>
<path d="M335.598 342.74L343.83 344.603C344.447 344.743 344.859 344.414 344.859 343.781V341.46C344.859 340.827 344.447 340.312 343.83 340.172L335.598 338.309C334.981 338.17 334.569 338.499 334.569 339.132V341.452C334.363 342.039 334.981 342.601 335.598 342.74Z" fill="#757779"/>
<path d="M286.207 304.768L283.943 292.651L347.945 307.134L346.299 318.366L286.207 304.768Z" fill="#8A8C8E"/>
<path d="M346.2 291.941L343.936 279.824L407.938 294.306L406.292 305.539L346.2 291.941Z" fill="#8A8C8E"/>
<path d="M345.817 318.366L405.909 304.769V365.325L345.817 378.922V318.366Z" fill="#8A8C8E"/>
<path d="M373.261 355.674L365.029 357.537C364.411 357.676 364 357.347 364 356.714V354.393C364 353.76 364.411 353.245 365.029 353.106L373.261 351.243C373.878 351.103 374.289 351.432 374.289 352.065V354.386C374.495 354.972 373.878 355.534 373.261 355.674Z" fill="#757779"/>
<path d="M405.909 304.768L410.302 309.682L349.493 323.1L345.818 318.366L405.909 304.768Z" fill="#808284"/>
<path d="M342.29 287.205L346.683 292.119L285.874 305.537L282.198 300.802L342.29 287.205Z" fill="#8A8C8E"/>
<path d="M177.882 223.409L170.431 225.006V278.489L177 274.231L177.882 223.409Z" fill="#6C6C6E"/>
<path d="M265 243.163L204.735 230.354L143.82 244.433L204.085 257.243L265 243.163Z" fill="#626466"/>
<path d="M203.663 257.185L143.571 243.588V304.144L203.663 317.741V257.185Z" fill="#9EA0A2"/>
<path d="M180.888 292.704L150.78 285.892V291.214L180.888 298.027V292.704Z" fill="#757779"/>
<path d="M192.962 281.561L201.194 283.423C201.811 283.563 202.223 283.234 202.223 282.601V280.28C202.223 279.647 201.811 279.132 201.194 278.992L192.962 277.13C192.344 276.99 191.933 277.319 191.933 277.952V280.273C191.727 280.859 192.344 281.421 192.962 281.561Z" fill="#757779"/>
<path d="M143.624 243.08L136.369 253.045L200.376 267.501L203.722 256.653L143.624 243.08Z" fill="#8A8C8E"/>
<path d="M203.563 230.762L201.3 218.645L265.302 233.127L263.655 244.359L203.563 230.762Z" fill="#8A8C8E"/>
<path d="M203.18 257.185L263.272 243.588V304.144L203.18 317.741V257.185Z" fill="#8A8C8E"/>
<path d="M225.956 292.704L256.063 285.892V291.214L225.956 298.027V292.704Z" fill="#757779"/>
<path d="M263.272 243.588L267.665 248.502L206.856 261.919L203.181 257.185L263.272 243.588Z" fill="#808284"/>
<path d="M199.653 226.024L204.046 230.938L143.237 244.356L139.561 239.622L199.653 226.024Z" fill="#8A8C8E"/>
<path d="M560.917 304.343L500.652 291.534L440.8 304.839L500.002 318.423L560.917 304.343Z" fill="#A8AAAC"/>
<path d="M204.359 219.137L204.359 169.084L220.817 169.084L220.817 219.138L204.359 219.137Z" fill="#969696"/>
<path d="M166.077 448.5H53.5772L59.0001 339.471L169.305 333.471L166.077 448.5Z" fill="url(#paint13_linear)"/>
<path d="M182.5 448.5H166L168.423 333.471L184.728 334.471L182.5 448.5Z" fill="url(#paint14_linear)"/>
<path d="M40.0001 222.067L87.8963 319.548H121.108C112.517 292.388 107.7 277.16 99.1085 250L58.5677 214.894L40.0001 222.067Z" fill="url(#paint15_linear)"/>
<path d="M45.8917 222.067L93.7879 319.548H127C118.409 292.388 111.092 273.66 102.5 246.5L64.4594 214.894L45.8917 222.067Z" fill="url(#paint16_linear)"/>
<path d="M156.638 167.495L81.5002 196.5L87.8343 211.663L162.472 182.659L156.638 167.495Z" fill="#969696"/>
<path d="M171.863 153.082L162.166 156.67L172.929 185.76L182.626 182.173L171.863 153.082Z" fill="url(#paint17_linear)"/>
<path d="M198.047 150.232L174.023 159.476L179.857 174.639L203.882 165.395L198.047 150.232Z" fill="#969696"/>
<path d="M156.047 167.839L162.166 156.656L172.927 185.774L161.744 182.609L156.047 167.839Z" fill="url(#paint18_linear)"/>
<path d="M91.3279 220.219L73.5 228L61.325 198.585L79.1629 191.014L91.3279 220.219Z" fill="url(#paint19_linear)"/>
<path d="M196.558 164.252V152.858L202.993 140.036L212.429 139.987L221.864 140.036L228.3 152.858V164.252L221.864 177.074L212.429 177.123L202.993 177.074L196.558 164.252Z" fill="#4A4A4A"/>
<path d="M242.814 230.86L235.362 234.586L236.5 310L242.814 309V230.86Z" fill="#6C6C6E"/>
<path d="M242.841 230.86L181.103 222.345L170.431 225L235.389 234.586L242.841 230.86Z" fill="#A2A2A2"/>
<path d="M134.069 336.636L126.321 354.596L108.361 362.344L90.4015 354.596L82.6537 336.636L90.4015 318.677L108.361 310.929L126.321 318.677L134.069 336.636Z" fill="#4A4A4A" stroke="#A467DE" stroke-width="2"/>
<path d="M84.5041 220.797L76.7563 238.756L58.7966 246.504L40.837 238.756L33.0891 220.797L40.837 202.837L58.7966 195.089L76.7563 202.837L84.5041 220.797Z" fill="#4A4A4A" stroke="#A467DE" stroke-width="2"/>
<path d="M32.5947 199.689C32.5532 192.646 43.616 188.08 49.0374 192.322" stroke="#A467DE" stroke-width="2"/>
<path d="M24.5012 196.479C24.506 184.328 43.0127 176.335 52.014 183.597" stroke="#A467DE" stroke-width="2"/>
<path d="M16.2477 189.654C16.1612 173.649 41.2436 163.262 53.5287 172.897" stroke="#A467DE" stroke-width="2"/>
<path d="M193.029 226L193.029 217L227.614 220L227.614 231.486L193.029 226Z" fill="#A467DE"/>
<path d="M69 382H160L158 439H67L69 382Z" fill="url(#paint20_linear)"/>
<rect x="74" y="423" width="27" height="4" fill="#8B8D8E"/>
<rect x="75" y="394" width="43" height="4" fill="#8B8D8E"/>
<rect x="74" y="408" width="71" height="4" fill="#A467DE"/>
</g>
<path d="M511.799 460.421L578 479.262L578 608H-29.9999L-30 466.836L-12.7667 457L31.9979 473.28L83.6979 457.18L112.28 468.343L156.414 460.421L245.733 478.612L328.537 460.421L354.807 475.409L401.253 468.343L459.468 479.262L511.799 460.421Z" fill="#121212"/>
<path d="M511.799 460.421L578 479.262L578 608H-29.9999L-30 466.836L-12.7667 457L31.9979 473.28L83.6979 457.18L112.28 468.343L156.414 460.421L245.733 478.612L328.537 460.421L354.807 475.409L401.253 468.343L459.468 479.262L511.799 460.421Z" fill="white" fill-opacity="0.12"/>
<path d="M36.2012 495.586L-30 515.332V631H578V502.308L560.767 492L516.002 509.063L464.302 492.188L435.72 503.888L391.586 495.586L302.267 514.65L219.463 495.586L193.193 511.293L146.747 503.888L88.5316 515.332L36.2012 495.586Z" fill="#121212"/>
<path d="M36.2012 495.586L-30 515.332V631H578V502.308L560.767 492L516.002 509.063L464.302 492.188L435.72 503.888L391.586 495.586L302.267 514.65L219.463 495.586L193.193 511.293L146.747 503.888L88.5316 515.332L36.2012 495.586Z" fill="white" fill-opacity="0.08"/>
</g>
<defs>
<linearGradient id="paint0_linear" x1="272.962" y1="134.611" x2="272.962" y2="177.375" gradientUnits="userSpaceOnUse">
<stop stop-color="#434343"/>
<stop offset="1" stop-color="#464747"/>
</linearGradient>
<linearGradient id="paint1_linear" x1="41.3421" y1="134.611" x2="41.3421" y2="177.375" gradientUnits="userSpaceOnUse">
<stop stop-color="#434343"/>
<stop offset="1" stop-color="#464747"/>
</linearGradient>
<linearGradient id="paint2_linear" x1="275.34" y1="125.773" x2="387.38" y2="220.786" gradientUnits="userSpaceOnUse">
<stop stop-color="#A5A5A5"/>
<stop offset="1" stop-color="#4C4C4C"/>
</linearGradient>
<linearGradient id="paint3_linear" x1="286.525" y1="125.773" x2="398.566" y2="220.786" gradientUnits="userSpaceOnUse">
<stop stop-color="#6F6F6F"/>
<stop offset="1" stop-color="#363636"/>
</linearGradient>
<linearGradient id="paint4_linear" x1="307.506" y1="66.2082" x2="341.769" y2="137.358" gradientUnits="userSpaceOnUse">
<stop stop-color="#929292"/>
<stop offset="1" stop-color="#444444"/>
</linearGradient>
<linearGradient id="paint5_linear" x1="311.419" y1="66.9515" x2="356.006" y2="144.525" gradientUnits="userSpaceOnUse">
<stop stop-color="#C4C4C4"/>
<stop offset="1" stop-color="#464646"/>
</linearGradient>
<linearGradient id="paint6_linear" x1="386.656" y1="21.1406" x2="393.987" y2="40.9539" gradientUnits="userSpaceOnUse">
<stop stop-color="#B4B4B4"/>
<stop offset="1" stop-color="#747474"/>
</linearGradient>
<linearGradient id="paint7_linear" x1="384.934" y1="22.3535" x2="384.934" y2="42.1854" gradientUnits="userSpaceOnUse">
<stop stop-color="#979899"/>
<stop offset="1" stop-color="#616263"/>
</linearGradient>
<linearGradient id="paint8_linear" x1="326.748" y1="45.7576" x2="327.85" y2="68.8685" gradientUnits="userSpaceOnUse">
<stop stop-color="#B4B4B4"/>
<stop offset="1" stop-color="#747474"/>
</linearGradient>
<linearGradient id="paint9_linear" x1="185.866" y1="394.784" x2="185.866" y2="450.135" gradientUnits="userSpaceOnUse">
<stop stop-color="#434343"/>
<stop offset="1" stop-color="#464747"/>
</linearGradient>
<linearGradient id="paint10_linear" x1="374.272" y1="394.784" x2="374.272" y2="450.135" gradientUnits="userSpaceOnUse">
<stop stop-color="#434343"/>
<stop offset="1" stop-color="#464747"/>
</linearGradient>
<linearGradient id="paint11_linear" x1="3.84552" y1="394.784" x2="3.84552" y2="450.135" gradientUnits="userSpaceOnUse">
<stop stop-color="#434343"/>
<stop offset="1" stop-color="#464747"/>
</linearGradient>
<linearGradient id="paint12_linear" x1="-29.8937" y1="426.517" x2="108.91" y2="606.408" gradientUnits="userSpaceOnUse">
<stop stop-color="#9B9B9B"/>
<stop offset="1" stop-color="#2F2F2F"/>
</linearGradient>
<linearGradient id="paint13_linear" x1="3.57721" y1="308.5" x2="168.077" y2="448" gradientUnits="userSpaceOnUse">
<stop stop-color="#A5A5A5"/>
<stop offset="1" stop-color="#4C4C4C"/>
</linearGradient>
<linearGradient id="paint14_linear" x1="20" y1="308.5" x2="184.5" y2="447.999" gradientUnits="userSpaceOnUse">
<stop stop-color="#6F6F6F"/>
<stop offset="1" stop-color="#363636"/>
</linearGradient>
<linearGradient id="paint15_linear" x1="50.804" y1="221.045" x2="101.11" y2="325.509" gradientUnits="userSpaceOnUse">
<stop stop-color="#929292"/>
<stop offset="1" stop-color="#444444"/>
</linearGradient>
<linearGradient id="paint16_linear" x1="56.5496" y1="222.136" x2="122.013" y2="336.032" gradientUnits="userSpaceOnUse">
<stop stop-color="#C4C4C4"/>
<stop offset="1" stop-color="#464646"/>
</linearGradient>
<linearGradient id="paint17_linear" x1="167.015" y1="154.876" x2="177.777" y2="183.967" gradientUnits="userSpaceOnUse">
<stop stop-color="#B4B4B4"/>
<stop offset="1" stop-color="#747474"/>
</linearGradient>
<linearGradient id="paint18_linear" x1="164.487" y1="156.656" x2="164.487" y2="185.774" gradientUnits="userSpaceOnUse">
<stop stop-color="#979899"/>
<stop offset="1" stop-color="#616263"/>
</linearGradient>
<linearGradient id="paint19_linear" x1="79.0577" y1="191.019" x2="80.6749" y2="224.951" gradientUnits="userSpaceOnUse">
<stop stop-color="#B4B4B4"/>
<stop offset="1" stop-color="#747474"/>
</linearGradient>
<linearGradient id="paint20_linear" x1="-658.01" y1="369.626" x2="-638.831" y2="532.618" gradientUnits="userSpaceOnUse">
<stop stop-color="#6F6F6F"/>
<stop offset="1" stop-color="#363636"/>
</linearGradient>
<clipPath id="clip0">
<rect width="440" height="532" fill="white"/>
</clipPath>
<clipPath id="clip1">
<rect width="500" height="540" fill="white" transform="translate(-30 7)"/>
</clipPath>
</defs>
</svg>
