<svg fill="none" xmlns="http://www.w3.org/2000/svg" viewBox="0 0 80 80">
  <path fill="#fff" d="M0 0h80v80H0z"/>
  <path d="M8.127 27.018a2.328 2.328 0 00-.757-1.963l-5.612-6.761v-1.01h17.425L32.65 46.823l11.841-29.539h16.612v1.01l-4.798 4.6a1.403 1.403 0 00-.533 1.347v33.802c-.086.513.119 1.032.533 1.347l4.686 4.6V65h-23.57v-1.01l4.854-4.712c.477-.477.477-.617.477-1.347V30.61L29.256 64.888h-1.824L11.72 30.608v22.975a3.17 3.17 0 00.87 2.637l6.313 7.658v1.01H1v-1.01l6.313-7.658c.676-.7.978-1.679.814-2.637V27.018z" stroke="#121212" stroke-width="2"/>
  <path d="M8.127 27.018a2.328 2.328 0 00-.757-1.963l-5.612-6.761v-1.01h17.425L32.65 46.823l11.841-29.539h16.612v1.01l-4.798 4.6a1.403 1.403 0 00-.533 1.347v33.802c-.086.513.119 1.032.533 1.347l4.686 4.6V65h-23.57v-1.01l4.854-4.712c.477-.477.477-.617.477-1.347V30.61L29.256 64.888h-1.824L11.72 30.608v22.975a3.17 3.17 0 00.87 2.637l6.313 7.658v1.01H1v-1.01l6.313-7.658c.676-.7.978-1.679.814-2.637V27.018z" stroke="#fff" stroke-opacity=".6" stroke-width="2"/>
  <path fill="#fff" d="M36.376 20.653h26.953v3.369H36.376z"/>
  <path d="M35.047 12.23H4.93" stroke="#7215CB" stroke-width="2" stroke-miterlimit="10"/>
  <path d="M40.868 17.284H27.39" stroke="#121212" stroke-width="2" stroke-linejoin="round"/>
  <path d="M40.868 17.284H27.39" stroke="#fff" stroke-opacity=".6" stroke-width="2" stroke-linejoin="round"/>
  <path d="M29.637 22.338h33.691M8.143 7.425a3.213 3.213 0 100-6.425 3.213 3.213 0 000 6.425z" stroke="#7215CB" stroke-width="2" stroke-miterlimit="10"/>
</svg>
