<svg fill="none" xmlns="http://www.w3.org/2000/svg" viewBox="0 0 80 80">
  <g clip-path="url(#clip0)">
    <path fill="#fff" d="M0 0h80v80H0z"/>
    <path d="M68.251 43.184L57.325 32.011l-19.996-.33 4.841 6.336-13.29 5.926L43.897 53.96l-8.027 3.558 24.443 10.783 18.349-22.13-.176-3.335-10.235.348z" fill="#E3B9B7"/>
    <path d="M73.089 43.024l1.87 7.313 3.703-4.166-.176-3.335-5.397.188z" fill="#36176E"/>
    <path fill-rule="evenodd" clip-rule="evenodd" d="M60.539 45.007L48.5 48.233l-.418-1.561 12.038-3.226.418 1.561z" fill="#000"/>
    <path d="M55.639 45.154l.915 3.976 4.693-1.258-.985-3.897-4.623 1.179zM60.8 58.828l-.608-1.484 8.357 1.024-1.313 1.579-6.437-1.12z" fill="#000"/>
    <path d="M71.14 17.65l-19.158-5.583 2.633-8.16L23.626 17.63l-3.464-6.226-7.85 17.4-6.376-2.901 3.296 13.306-5.442 2.147 9.33 13.037-6.202 2.77 17.558 8.437-3.886 1.7 20.955 6.03 18.769-5.03L35.87 57.516l8.027-3.558-15.017-10.016 13.29-5.926-4.841-6.336 19.996.33L71.14 17.65z" fill="#36176E"/>
    <path d="M71.14 17.65l-19.158-5.583 2.633-8.16-30.989 13.722-3.464-6.227 1.058 9.985 26.863-7.557-5.564 7.388 28.62-3.568z" fill="#7215CC"/>
    <path d="M35.421 63.774l-3.752 2.532 9.875 7.023L20.59 67.3l3.885-1.7-17.558-8.437 6.203-2.77-9.33-13.036 19.23 13.228-4.377 1.651 16.778 7.539z" fill="#180249"/>
    <path d="M37.33 31.678L55.2 34.583l8.874 9.656 9.014-1.218-4.837.159-10.927-11.172-19.995-.33z" fill="#FFEAE1"/>
    <path opacity=".44" d="M32.25 42.442l16.961 10.902-7.299 3.483 20.623 8.813-2.221 2.66L35.87 57.518l8.027-3.558-15.017-10.016 3.37-1.501z" fill="#D38484"/>
    <path fill-rule="evenodd" clip-rule="evenodd" d="M58.919 41.808l-9.894 1.843-.197-1.06 9.894-1.842.197 1.059z" fill="#000"/>
    <path d="M31.873 31.317c-.92.366-1.839.733-2.658 1.251-.819.52-1.524 1.127-2.073 1.873l-.384-.765c1.736-.226 3.459.06 5.083.314l1.288.224-.996.865a32.387 32.387 0 00-2.802 2.727c-.881.955-1.65 1.999-2.445 3.05L26.058 40c1.38-.879 2.885-1.521 4.427-2.024a16.702 16.702 0 014.748-.823 31.73 31.73 0 00-4.455 1.583c-1.42.62-2.76 1.428-4.05 2.312l-2.435 1.64 1.607-2.496c.745-1.127 1.554-2.242 2.477-3.268.922-1.025 1.938-1.926 2.997-2.779l.292 1.09c-1.62-.345-3.175-.676-4.753-.643l-1.128.033.716-.79c.724-.763 1.569-1.409 2.516-1.782.92-.366 1.877-.593 2.857-.736z" fill="#7215CC"/>
  </g>
  <defs>
    <clipPath id="clip0">
      <path fill="#fff" d="M0 0h80v80H0z"/>
    </clipPath>
  </defs>
</svg>
