<svg fill="none" xmlns="http://www.w3.org/2000/svg" viewBox="0 0 80 80">
  <path fill="#fff" d="M0 0h80v80H0z"/>
  <path d="M9.38 25.773h27.47" stroke="#121212" stroke-width="2"/>
  <path d="M9.38 25.773h27.47" stroke="#fff" stroke-opacity=".6" stroke-width="2"/>
  <path d="M9.38 41.855H20.1" stroke="#121212" stroke-width="2"/>
  <path d="M9.38 41.855H20.1" stroke="#fff" stroke-opacity=".6" stroke-width="2"/>
  <path d="M25.125 16.858h11.964" stroke="#121212" stroke-width="2"/>
  <path d="M25.125 16.858h11.964" stroke="#fff" stroke-opacity=".6" stroke-width="2"/>
  <path d="M12.994 20.115a3.423 3.423 0 100-6.846 3.423 3.423 0 000 6.846z" stroke="#7215CB" stroke-width="2" stroke-miterlimit="10"/>
  <path d="M9.38 33.145H26.8" stroke="#121212" stroke-width="2"/>
  <path d="M9.38 33.145H26.8" stroke="#fff" stroke-opacity=".6" stroke-width="2"/>
  <path d="M53.935 41.185h12.06v10.052m-12.06-10.052v-6.03h-12.73v6.03m12.73 0h-12.73m0 0H29.48v10.052m0 0v17.087h36.515V51.237m-36.515 0c4.69 7.036 28.475 8.376 36.515 0" stroke="#121212" stroke-width="2"/>
  <path d="M53.935 41.185h12.06v10.052m-12.06-10.052v-6.03h-12.73v6.03m12.73 0h-12.73m0 0H29.48v10.052m0 0v17.087h36.515V51.237m-36.515 0c4.69 7.036 28.475 8.376 36.515 0" stroke="#fff" stroke-opacity=".6" stroke-width="2"/>
  <rect x="44.89" y="53.247" width="5.36" height="6.701" rx="1.12" fill="#fff" stroke="#6315AF" stroke-width="2" stroke-linecap="round"/>
  <path d="M24.79 67.99H1.675V6.34h38.86L52.26 17.732v11.726" stroke="#121212" stroke-width="2"/>
  <path d="M24.79 67.99H1.675V6.34h38.86L52.26 17.732v11.726" stroke="#fff" stroke-opacity=".6" stroke-width="2"/>
</svg>
