<svg width="570" height="570" viewBox="0 0 570 570" fill="none" xmlns="http://www.w3.org/2000/svg">
<g clip-path="url(#clip0)">
<rect width="570" height="570" transform="translate(-0.00012207)" fill="#181E29"/>
<rect width="570" height="570" transform="translate(-0.00012207)" fill="white" fill-opacity="0.04"/>
<rect x="268" y="16" width="302" height="218" rx="12" fill="#181E29"/>
<rect x="268" y="16" width="302" height="218" rx="12" fill="white" fill-opacity="0.06"/>
<path d="M289.896 122.776L289.596 120.076L289.572 118.756H290.892L290.868 120.076L290.568 122.776H289.896ZM292.644 122.776L292.344 120.076L292.32 118.756H293.64L293.616 120.076L293.316 122.776H292.644ZM298.987 127V121.972H296.275V121.168H299.971V127H298.987ZM299.371 119.944C299.147 119.944 298.959 119.876 298.807 119.74C298.655 119.596 298.579 119.408 298.579 119.176C298.579 118.944 298.655 118.76 298.807 118.624C298.959 118.48 299.147 118.408 299.371 118.408C299.595 118.408 299.783 118.48 299.935 118.624C300.087 118.76 300.163 118.944 300.163 119.176C300.163 119.408 300.087 119.596 299.935 119.74C299.783 119.876 299.595 119.944 299.371 119.944ZM303.507 127V121.168H304.323L304.407 122.164H304.455C304.759 121.836 305.087 121.564 305.439 121.348C305.791 121.132 306.195 121.024 306.651 121.024C307.347 121.024 307.855 121.224 308.175 121.624C308.503 122.016 308.667 122.6 308.667 123.376V127H307.683V123.508C307.683 122.956 307.579 122.548 307.371 122.284C307.163 122.012 306.819 121.876 306.339 121.876C306.163 121.876 305.999 121.9 305.847 121.948C305.703 121.988 305.559 122.052 305.415 122.14C305.271 122.228 305.123 122.34 304.971 122.476C304.819 122.604 304.659 122.756 304.491 122.932V127H303.507ZM313.306 127.144C312.73 127.144 312.198 127.056 311.71 126.88C311.222 126.696 310.798 126.48 310.438 126.232L310.894 125.584C311.23 125.824 311.598 126.016 311.998 126.16C312.406 126.304 312.882 126.376 313.426 126.376C313.922 126.376 314.29 126.288 314.53 126.112C314.778 125.928 314.902 125.712 314.902 125.464C314.902 125.352 314.882 125.248 314.842 125.152C314.802 125.056 314.714 124.964 314.578 124.876C314.45 124.788 314.266 124.704 314.026 124.624C313.786 124.544 313.47 124.464 313.078 124.384C312.318 124.224 311.746 124.012 311.362 123.748C310.986 123.476 310.798 123.12 310.798 122.68C310.798 122.448 310.85 122.232 310.954 122.032C311.058 121.824 311.21 121.648 311.41 121.504C311.618 121.352 311.87 121.236 312.166 121.156C312.47 121.068 312.822 121.024 313.222 121.024C313.67 121.024 314.102 121.1 314.518 121.252C314.934 121.396 315.286 121.568 315.574 121.768L315.094 122.404C314.822 122.22 314.522 122.072 314.194 121.96C313.866 121.848 313.514 121.792 313.138 121.792C312.642 121.792 312.294 121.876 312.094 122.044C311.894 122.212 311.794 122.408 311.794 122.632C311.794 122.888 311.926 123.084 312.19 123.22C312.454 123.348 312.886 123.476 313.486 123.604C313.974 123.708 314.374 123.82 314.686 123.94C314.998 124.052 315.242 124.18 315.418 124.324C315.602 124.468 315.726 124.628 315.79 124.804C315.862 124.98 315.898 125.18 315.898 125.404C315.898 125.644 315.842 125.868 315.73 126.076C315.618 126.284 315.45 126.468 315.226 126.628C315.01 126.788 314.738 126.912 314.41 127C314.09 127.096 313.722 127.144 313.306 127.144ZM321.509 127.144C321.085 127.144 320.729 127.088 320.441 126.976C320.153 126.856 319.921 126.692 319.745 126.484C319.569 126.268 319.441 126.012 319.361 125.716C319.289 125.42 319.253 125.092 319.253 124.732V121.972H317.609V121.228L319.289 121.168L319.421 119.296H320.237V121.168H323.105V121.972H320.237V124.744C320.237 125.008 320.261 125.24 320.309 125.44C320.357 125.632 320.437 125.796 320.549 125.932C320.661 126.068 320.813 126.172 321.005 126.244C321.197 126.308 321.433 126.34 321.713 126.34C321.993 126.34 322.245 126.316 322.469 126.268C322.693 126.22 322.909 126.156 323.117 126.076L323.333 126.796C323.069 126.892 322.789 126.972 322.493 127.036C322.205 127.108 321.877 127.144 321.509 127.144ZM326.928 127.144C326.656 127.144 326.4 127.104 326.16 127.024C325.92 126.952 325.708 126.848 325.524 126.712C325.348 126.568 325.208 126.396 325.104 126.196C325 125.988 324.948 125.752 324.948 125.488C324.948 125.16 325.024 124.876 325.176 124.636C325.336 124.388 325.584 124.176 325.92 124C326.264 123.824 326.704 123.68 327.24 123.568C327.776 123.456 328.42 123.368 329.172 123.304C329.164 123.104 329.132 122.916 329.076 122.74C329.02 122.564 328.932 122.412 328.812 122.284C328.692 122.148 328.532 122.04 328.332 121.96C328.14 121.88 327.904 121.84 327.624 121.84C327.24 121.84 326.872 121.916 326.52 122.068C326.168 122.212 325.856 122.368 325.584 122.536L325.2 121.864C325.344 121.768 325.512 121.672 325.704 121.576C325.904 121.472 326.112 121.38 326.328 121.3C326.552 121.22 326.788 121.156 327.036 121.108C327.284 121.052 327.536 121.024 327.792 121.024C328.592 121.024 329.184 121.244 329.568 121.684C329.96 122.116 330.156 122.696 330.156 123.424V127H329.352L329.268 126.208H329.232C328.904 126.464 328.54 126.684 328.14 126.868C327.748 127.052 327.344 127.144 326.928 127.144ZM327.192 126.352C327.528 126.352 327.856 126.28 328.176 126.136C328.504 125.984 328.836 125.768 329.172 125.488V123.952C328.548 124 328.024 124.068 327.6 124.156C327.184 124.244 326.848 124.352 326.592 124.48C326.344 124.6 326.168 124.74 326.064 124.9C325.96 125.052 325.908 125.224 325.908 125.416C325.908 125.584 325.944 125.728 326.016 125.848C326.088 125.96 326.18 126.056 326.292 126.136C326.412 126.208 326.548 126.264 326.7 126.304C326.86 126.336 327.024 126.352 327.192 126.352ZM332.288 127V121.168H333.104L333.188 122.164H333.236C333.54 121.836 333.868 121.564 334.22 121.348C334.572 121.132 334.976 121.024 335.432 121.024C336.128 121.024 336.636 121.224 336.956 121.624C337.284 122.016 337.448 122.6 337.448 123.376V127H336.464V123.508C336.464 122.956 336.36 122.548 336.152 122.284C335.944 122.012 335.6 121.876 335.12 121.876C334.944 121.876 334.78 121.9 334.628 121.948C334.484 121.988 334.34 122.052 334.196 122.14C334.052 122.228 333.904 122.34 333.752 122.476C333.6 122.604 333.44 122.756 333.272 122.932V127H332.288ZM342.519 127.144C342.063 127.144 341.639 127.076 341.247 126.94C340.863 126.804 340.527 126.608 340.239 126.352C339.951 126.088 339.727 125.768 339.567 125.392C339.407 125.008 339.327 124.576 339.327 124.096C339.327 123.608 339.411 123.176 339.579 122.8C339.755 122.416 339.991 122.092 340.287 121.828C340.583 121.564 340.927 121.364 341.319 121.228C341.719 121.092 342.139 121.024 342.579 121.024C343.059 121.024 343.471 121.108 343.815 121.276C344.167 121.444 344.463 121.644 344.703 121.876L344.211 122.512C343.971 122.304 343.719 122.14 343.455 122.02C343.199 121.9 342.919 121.84 342.615 121.84C342.279 121.84 341.971 121.896 341.691 122.008C341.411 122.112 341.171 122.264 340.971 122.464C340.779 122.664 340.627 122.904 340.515 123.184C340.403 123.456 340.347 123.76 340.347 124.096C340.347 124.432 340.399 124.736 340.503 125.008C340.615 125.28 340.767 125.516 340.959 125.716C341.159 125.908 341.395 126.06 341.667 126.172C341.947 126.276 342.255 126.328 342.591 126.328C342.951 126.328 343.279 126.26 343.575 126.124C343.879 125.98 344.151 125.804 344.391 125.596L344.835 126.232C344.507 126.52 344.147 126.744 343.755 126.904C343.363 127.064 342.951 127.144 342.519 127.144ZM349.522 127.144C349.082 127.144 348.67 127.076 348.286 126.94C347.91 126.804 347.578 126.604 347.29 126.34C347.01 126.076 346.786 125.756 346.618 125.38C346.458 124.996 346.378 124.56 346.378 124.072C346.378 123.6 346.458 123.176 346.618 122.8C346.786 122.424 347.006 122.104 347.278 121.84C347.558 121.576 347.874 121.376 348.226 121.24C348.586 121.096 348.962 121.024 349.354 121.024C349.77 121.024 350.142 121.092 350.47 121.228C350.806 121.356 351.086 121.54 351.31 121.78C351.542 122.02 351.718 122.308 351.838 122.644C351.958 122.98 352.018 123.352 352.018 123.76C352.018 123.872 352.014 123.98 352.006 124.084C351.998 124.188 351.986 124.28 351.97 124.36H347.374C347.438 125.024 347.678 125.524 348.094 125.86C348.518 126.188 349.034 126.352 349.642 126.352C349.994 126.352 350.31 126.304 350.59 126.208C350.878 126.104 351.154 125.968 351.418 125.8L351.778 126.448C351.49 126.64 351.158 126.804 350.782 126.94C350.414 127.076 349.994 127.144 349.522 127.144ZM349.378 121.804C349.138 121.804 348.906 121.844 348.682 121.924C348.466 122.004 348.27 122.12 348.094 122.272C347.918 122.416 347.77 122.6 347.65 122.824C347.53 123.048 347.446 123.304 347.398 123.592H351.118C351.078 122.992 350.902 122.544 350.59 122.248C350.286 121.952 349.882 121.804 349.378 121.804ZM356.478 127.144C355.902 127.144 355.37 127.056 354.882 126.88C354.394 126.696 353.97 126.48 353.61 126.232L354.066 125.584C354.402 125.824 354.77 126.016 355.17 126.16C355.578 126.304 356.054 126.376 356.598 126.376C357.094 126.376 357.462 126.288 357.702 126.112C357.95 125.928 358.074 125.712 358.074 125.464C358.074 125.352 358.054 125.248 358.014 125.152C357.974 125.056 357.886 124.964 357.75 124.876C357.622 124.788 357.438 124.704 357.198 124.624C356.958 124.544 356.642 124.464 356.25 124.384C355.49 124.224 354.918 124.012 354.534 123.748C354.158 123.476 353.97 123.12 353.97 122.68C353.97 122.448 354.022 122.232 354.126 122.032C354.23 121.824 354.382 121.648 354.582 121.504C354.79 121.352 355.042 121.236 355.338 121.156C355.642 121.068 355.994 121.024 356.394 121.024C356.842 121.024 357.274 121.1 357.69 121.252C358.106 121.396 358.458 121.568 358.746 121.768L358.266 122.404C357.994 122.22 357.694 122.072 357.366 121.96C357.038 121.848 356.686 121.792 356.31 121.792C355.814 121.792 355.466 121.876 355.266 122.044C355.066 122.212 354.966 122.408 354.966 122.632C354.966 122.888 355.098 123.084 355.362 123.22C355.626 123.348 356.058 123.476 356.658 123.604C357.146 123.708 357.546 123.82 357.858 123.94C358.17 124.052 358.414 124.18 358.59 124.324C358.774 124.468 358.898 124.628 358.962 124.804C359.034 124.98 359.07 125.18 359.07 125.404C359.07 125.644 359.014 125.868 358.902 126.076C358.79 126.284 358.622 126.468 358.398 126.628C358.182 126.788 357.91 126.912 357.582 127C357.262 127.096 356.894 127.144 356.478 127.144ZM361.849 122.776L361.549 120.076L361.525 118.756H362.845L362.821 120.076L362.521 122.776H361.849ZM364.597 122.776L364.297 120.076L364.273 118.756H365.593L365.569 120.076L365.269 122.776H364.597ZM370.748 122.848C370.476 122.848 370.244 122.756 370.052 122.572C369.868 122.388 369.776 122.144 369.776 121.84C369.776 121.536 369.868 121.292 370.052 121.108C370.244 120.916 370.476 120.82 370.748 120.82C371.02 120.82 371.248 120.916 371.432 121.108C371.624 121.292 371.72 121.536 371.72 121.84C371.72 122.144 371.624 122.388 371.432 122.572C371.248 122.756 371.02 122.848 370.748 122.848ZM370.748 127.144C370.476 127.144 370.244 127.052 370.052 126.868C369.868 126.684 369.776 126.44 369.776 126.136C369.776 125.832 369.868 125.588 370.052 125.404C370.244 125.212 370.476 125.116 370.748 125.116C371.02 125.116 371.248 125.212 371.432 125.404C371.624 125.588 371.72 125.832 371.72 126.136C371.72 126.44 371.624 126.684 371.432 126.868C371.248 127.052 371.02 127.144 370.748 127.144ZM382.703 127V126.184H384.911V120.544H383.195V119.908C383.651 119.844 384.031 119.768 384.335 119.68C384.639 119.592 384.915 119.48 385.163 119.344H385.895V126.184H387.899V127H382.703Z" fill="white" fill-opacity="0.4"/>
<rect x="395" y="114" width="4" height="18" fill="#181E29"/>
<rect x="395" y="114" width="4" height="18" fill="white" fill-opacity="0.4"/>
<path d="M509.29 549.937H518.572C520.588 549.937 522.521 549.136 523.947 547.711C525.372 546.285 526.173 544.352 526.173 542.337V485.588C526.17 483.575 525.367 481.645 523.942 480.222C522.517 478.799 520.586 478 518.572 478C518.572 478 486.236 478 465.515 478H461.984C459.971 478 457.964 478.978 456.539 480.4C455.114 481.823 454.312 483.753 454.308 485.767V494.767" stroke="#939393" stroke-width="2" stroke-linecap="round" stroke-linejoin="round"/>
<path d="M454.237 492.716V542.336C454.237 544.349 455.036 546.281 456.459 547.706C457.881 549.131 459.812 549.933 461.825 549.936H491.04H508.808" stroke="#939393" stroke-width="2" stroke-linecap="round" stroke-linejoin="round"/>
<path d="M502.79 492.729V535.547" stroke="#939393" stroke-width="2" stroke-linecap="round" stroke-linejoin="round"/>
<path d="M490.206 515.675V535.547" stroke="#679BFF" stroke-width="2" stroke-linecap="round" stroke-linejoin="round"/>
<path d="M490.206 492.729V504.202" stroke="#679BFF" stroke-width="2" stroke-linecap="round" stroke-linejoin="round"/>
<path d="M478.127 528.443V535.547" stroke="#679BFF" stroke-width="2" stroke-linecap="round" stroke-linejoin="round"/>
<path d="M478.127 492.729V521.327" stroke="#939393" stroke-width="2" stroke-linecap="round" stroke-linejoin="round"/>
<path d="M454.237 521.326V533.368" stroke="#939393" stroke-width="2" stroke-linecap="round" stroke-linejoin="round"/>
<path d="M71.0356 554.418V459.911C71.0356 458.627 71.5456 457.395 72.4534 456.487C73.3613 455.58 74.5926 455.07 75.8765 455.07H139.511C140.795 455.07 142.026 455.58 142.934 456.487C143.842 457.395 144.352 458.627 144.352 459.911V472.17" stroke="#939393" stroke-width="2" stroke-linecap="round" stroke-linejoin="round"/>
<path d="M106.411 566.4H75.8408C74.5569 566.4 73.3256 565.89 72.4177 564.982C71.5099 564.074 70.9999 562.843 70.9999 561.559V549.928" stroke="#939393" stroke-width="2" stroke-linecap="round" stroke-linejoin="round"/>
<path d="M117.304 566.436H139.476C140.76 566.436 141.991 565.926 142.899 565.018C143.807 564.11 144.317 562.879 144.317 561.595V501.144V469.231" stroke="#939393" stroke-width="2" stroke-linecap="round" stroke-linejoin="round"/>
<path d="M131.597 487.952C132.064 487.638 132.441 487.209 132.693 486.707C132.944 486.204 133.062 485.644 133.033 485.083C133.004 484.521 132.83 483.977 132.529 483.502C132.227 483.028 131.807 482.64 131.311 482.376C130.815 482.111 130.258 481.98 129.696 481.995C129.134 482.01 128.586 482.17 128.104 482.459C127.622 482.749 127.223 483.159 126.947 483.648C126.67 484.138 126.525 484.691 126.526 485.253C126.527 485.893 126.715 486.518 127.068 487.052C127.421 487.585 127.922 488.003 128.511 488.254" stroke="#939393" stroke-width="2" stroke-linecap="round" stroke-linejoin="round"/>
<path d="M113.237 487.891C113.829 488.321 114.548 488.538 115.278 488.51C116.009 488.481 116.708 488.207 117.264 487.732C117.82 487.257 118.2 486.609 118.343 485.892C118.485 485.175 118.382 484.431 118.051 483.779C117.719 483.128 117.178 482.607 116.514 482.301C115.85 481.994 115.103 481.92 114.392 482.09C113.681 482.261 113.048 482.665 112.595 483.239C112.142 483.812 111.895 484.522 111.894 485.253" stroke="#679BFF" stroke-width="2" stroke-linecap="round" stroke-linejoin="round"/>
<path d="M100.662 481.997C100.018 481.997 99.389 482.188 98.8536 482.546C98.3182 482.904 97.901 483.412 97.6546 484.007C97.4082 484.602 97.3437 485.257 97.4693 485.888C97.5949 486.52 97.9049 487.1 98.3602 487.555C98.8155 488.01 99.3957 488.32 100.027 488.446C100.659 488.572 101.313 488.507 101.908 488.261C102.503 488.014 103.011 487.597 103.369 487.062C103.727 486.526 103.918 485.897 103.918 485.253C103.914 484.908 103.861 484.566 103.761 484.236" stroke="#939393" stroke-width="2" stroke-linecap="round" stroke-linejoin="round"/>
<path d="M126.695 511.637C126.885 512.205 127.227 512.711 127.686 513.097C128.144 513.483 128.7 513.736 129.293 513.826C129.886 513.917 130.492 513.842 131.044 513.609C131.597 513.377 132.075 512.997 132.425 512.511C132.776 512.024 132.985 511.45 133.03 510.853C133.075 510.255 132.954 509.656 132.681 509.123C132.407 508.589 131.992 508.142 131.48 507.829C130.969 507.517 130.381 507.352 129.781 507.352C129.367 507.349 128.956 507.427 128.571 507.582" stroke="#679BFF" stroke-width="2" stroke-linecap="round" stroke-linejoin="round"/>
<path d="M89.433 485.253H80.8282" stroke="#939393" stroke-width="2" stroke-linecap="round" stroke-linejoin="round"/>
<path d="M120.79 499.619H80.8283" stroke="#679BFF" stroke-width="2" stroke-linecap="round" stroke-linejoin="round"/>
<path d="M93.3046 510.741H80.827" stroke="#939393" stroke-width="2" stroke-linecap="round" stroke-linejoin="round"/>
<path d="M117.339 510.741H102.78" stroke="#679BFF" stroke-width="2" stroke-linecap="round" stroke-linejoin="round"/>
<path d="M138.507 454.937H76.7845C76.1138 454.937 75.4496 454.804 74.83 454.548C74.2104 454.291 73.6474 453.915 73.1732 453.441C72.6989 452.966 72.3227 452.403 72.066 451.784C71.8094 451.164 71.6773 450.5 71.6773 449.829V426.084" stroke="#939393" stroke-width="2" stroke-linecap="round" stroke-linejoin="round"/>
<path d="M71.6893 428.808V388.107C71.6893 386.753 72.2274 385.454 73.1852 384.496C74.1429 383.538 75.4419 383 76.7964 383H138.519C139.19 382.998 139.856 383.129 140.477 383.385C141.098 383.641 141.662 384.017 142.138 384.492C142.613 384.966 142.991 385.53 143.248 386.15C143.506 386.77 143.638 387.436 143.638 388.107V437.025L143.638 450.231" stroke="#939393" stroke-width="2" stroke-linecap="round" stroke-linejoin="round"/>
<path d="M101.067 406.309C99.3643 406.959 97.8794 408.075 96.7833 409.531C95.6871 410.987 95.0242 412.723 94.8705 414.539C93.0375 414.723 91.3462 415.607 90.149 417.007C88.9518 418.408 88.3411 420.216 88.4441 422.055C88.547 423.894 89.3557 425.623 90.7017 426.881C92.0476 428.139 93.8271 428.829 95.6692 428.807H116.025C118.28 428.807 120.443 427.912 122.037 426.317C123.632 424.723 124.527 422.56 124.527 420.305C124.527 418.051 123.632 415.888 122.037 414.294C120.443 412.699 118.28 411.803 116.025 411.803C115.379 411.803 114.733 411.872 114.101 412.009C113.539 410.464 112.584 409.091 111.33 408.028" stroke="#679BFF" stroke-width="2" stroke-linecap="round" stroke-linejoin="round"/>
<path d="M90.4115 383H80.8264" stroke="#939393" stroke-width="2" stroke-linecap="round" stroke-linejoin="round"/>
<path d="M80.8393 523.11H133.037V537.003H80.8393V523.11Z" stroke="#939393" stroke-width="2" stroke-linecap="round" stroke-linejoin="round"/>
<path d="M103.047 282.386V293.908H113.685V282.181" stroke="#939393" stroke-width="2" stroke-linecap="round" stroke-linejoin="round"/>
<path d="M114.339 293.907C117.166 293.907 119.878 295.031 121.878 297.03C123.878 299.03 125.001 301.742 125.001 304.569V314.5H89.5498V310.899V304.569C89.5498 301.742 90.6732 299.03 92.6727 297.03C94.6723 295.031 97.3843 293.907 100.212 293.907H104.673" stroke="#939393" stroke-width="2" stroke-linecap="round" stroke-linejoin="round"/>
<path d="M112.079 329V314.617H104.031V329" stroke="#939393" stroke-width="2" stroke-linecap="round" stroke-linejoin="round"/>
<path d="M98.1727 335.5H117.173V329H98.1727V335.5Z" stroke="#679BFF" stroke-width="2" stroke-linecap="round" stroke-linejoin="round"/>
<g clip-path="url(#clip1)">
<path d="M227 255L278 428" stroke="#939393" stroke-width="2" stroke-linecap="round" stroke-linejoin="round"/>
<path d="M341.5 419L281 247" stroke="#939393" stroke-width="2" stroke-linecap="round" stroke-linejoin="round"/>
</g>
<path d="M128.981 270.078L163.787 270.26" stroke="#939393" stroke-width="2" stroke-linecap="round" stroke-linejoin="round"/>
<path d="M222.593 219.514L110.5 238" stroke="#939393" stroke-width="2" stroke-linecap="round" stroke-linejoin="round"/>
<path d="M189.541 270.381L225.824 270.562" stroke="#939393" stroke-width="2" stroke-linecap="round" stroke-linejoin="round"/>
<path d="M221.984 219.514C216.59 226.528 213.731 235.162 213.875 244.009C214.018 252.856 217.155 261.393 222.773 268.229C228.392 275.064 236.161 279.794 244.813 281.646C253.465 283.499 262.489 282.366 270.414 278.431C278.339 274.496 284.697 267.992 288.451 259.98C292.205 251.967 293.133 242.919 291.084 234.312C289.035 225.704 284.13 218.045 277.169 212.583C270.208 207.121 261.602 204.179 252.754 204.237" fill="#181E29"/>
<path d="M221.984 219.514C216.59 226.528 213.731 235.162 213.875 244.009C214.018 252.856 217.155 261.393 222.773 268.229C228.392 275.064 236.161 279.794 244.813 281.646C253.465 283.499 262.489 282.366 270.414 278.431C278.339 274.496 284.697 267.992 288.451 259.98C292.205 251.967 293.133 242.919 291.084 234.312C289.035 225.704 284.13 218.045 277.169 212.583C270.208 207.121 261.602 204.179 252.754 204.237" fill="white" fill-opacity="0.04"/>
<path d="M221.984 219.514C216.59 226.528 213.731 235.162 213.875 244.009C214.018 252.856 217.155 261.393 222.773 268.229C228.392 275.064 236.161 279.794 244.813 281.646C253.465 283.499 262.489 282.366 270.414 278.431C278.339 274.496 284.697 267.992 288.451 259.98C292.205 251.967 293.133 242.919 291.084 234.312C289.035 225.704 284.13 218.045 277.169 212.583C270.208 207.121 261.602 204.179 252.754 204.237" stroke="#679BFF" stroke-width="2" stroke-linecap="round" stroke-linejoin="round"/>
<path d="M91.4404 275.475C94.9929 279.375 99.7974 281.91 105.022 282.641C110.247 283.372 115.562 282.253 120.049 279.477C124.535 276.701 127.909 272.444 129.587 267.443C131.265 262.441 131.141 257.01 129.236 252.09C127.332 247.171 123.767 243.072 119.159 240.504C114.55 237.936 109.189 237.06 104.003 238.029C98.8173 238.998 94.1335 241.749 90.7628 245.807C87.3922 249.866 85.5469 254.975 85.5466 260.251" stroke="#679BFF" stroke-width="2" stroke-linecap="round" stroke-linejoin="round"/>
<path d="M396.444 504.261V569.815H326.976H283.673" stroke="#939393" stroke-width="2" stroke-linecap="round" stroke-linejoin="round"/>
<path d="M214.486 396.719C212.301 398.904 210.568 401.499 209.386 404.354C208.205 407.209 207.598 410.27 207.6 413.36V569.815H286.859" stroke="#939393" stroke-width="2" stroke-linecap="round" stroke-linejoin="round"/>
<path d="M240.238 389.809H231.198C228.094 389.801 225.019 390.407 222.15 391.593C219.281 392.779 216.676 394.521 214.484 396.719" stroke="#939393" stroke-width="2" stroke-linecap="round" stroke-linejoin="round"/>
<path d="M352.368 389.809H240.239" stroke="#939393" stroke-width="2" stroke-linecap="round" stroke-linejoin="round"/>
<path d="M396.444 496.358V413.36C396.441 407.103 393.953 401.104 389.528 396.68C385.102 392.257 379.101 389.773 372.845 389.773H352.367" stroke="#939393" stroke-width="2" stroke-linecap="round" stroke-linejoin="round"/>
<path d="M396.444 504.261H398.248C399.058 504.261 399.861 504.102 400.61 503.791C401.358 503.481 402.039 503.027 402.612 502.453C403.185 501.88 403.64 501.2 403.95 500.451C404.26 499.702 404.42 498.9 404.42 498.089V483.554V459" stroke="#679BFF" stroke-width="2" stroke-linecap="round" stroke-linejoin="round"/>
<path d="M404.42 463.827V440.324C404.42 438.687 403.769 437.117 402.612 435.96C401.454 434.802 399.885 434.152 398.248 434.152H396.444V496.358" stroke="#679BFF" stroke-width="2" stroke-linecap="round" stroke-linejoin="round"/>
<path d="M310.747 493.514V427.096H228.874V508.969H326.976" stroke="#939393" stroke-width="2" stroke-linecap="round" stroke-linejoin="round"/>
<path d="M262.46 439.671H241.498" stroke="#939393" stroke-width="2" stroke-linecap="round" stroke-linejoin="round"/>
<path d="M298.124 439.671H274.258" stroke="#679BFF" stroke-width="2" stroke-linecap="round" stroke-linejoin="round"/>
<path d="M249.994 452.899H241.498" stroke="#679BFF" stroke-width="2" stroke-linecap="round" stroke-linejoin="round"/>
<path d="M298.124 452.899H260.837" stroke="#939393" stroke-width="2" stroke-linecap="round" stroke-linejoin="round"/>
<path d="M262.46 465.413H241.498" stroke="#939393" stroke-width="2" stroke-linecap="round" stroke-linejoin="round"/>
<path d="M298.124 465.413H274.258" stroke="#679BFF" stroke-width="2" stroke-linecap="round" stroke-linejoin="round"/>
<path d="M249.994 478.64H241.498" stroke="#679BFF" stroke-width="2" stroke-linecap="round" stroke-linejoin="round"/>
<path d="M298.124 478.64H260.837" stroke="#939393" stroke-width="2" stroke-linecap="round" stroke-linejoin="round"/>
<path d="M262.46 491.154H241.498" stroke="#939393" stroke-width="2" stroke-linecap="round" stroke-linejoin="round"/>
<path d="M298.124 491.154H274.258" stroke="#679BFF" stroke-width="2" stroke-linecap="round" stroke-linejoin="round"/>
<path d="M390.152 312.442H380.373" stroke="#939393" stroke-width="2" stroke-linecap="round" stroke-linejoin="round"/>
<path d="M390.152 331.116H380.373" stroke="#939393" stroke-width="2" stroke-linecap="round" stroke-linejoin="round"/>
<path d="M390.152 349.803H380.373" stroke="#939393" stroke-width="2" stroke-linecap="round" stroke-linejoin="round"/>
<path d="M390.152 363.805H380.373" stroke="#939393" stroke-width="2" stroke-linecap="round" stroke-linejoin="round"/>
<path d="M369.169 389.533V357.239C369.169 352.023 369.169 350.074 380.267 350.074V341.905C364.219 341.905 361 347.775 361 357.239V389.533" stroke="#939393" stroke-width="2" stroke-linecap="round" stroke-linejoin="round"/>
<path d="M384.174 373.621H390.152V316.521" stroke="#939393" stroke-width="2" stroke-linecap="round" stroke-linejoin="round"/>
<path d="M390.066 318.735V304H385.155H380.266V366.824V373.735H390.066" stroke="#939393" stroke-width="2" stroke-linecap="round" stroke-linejoin="round"/>
<rect x="288" y="44" width="192" height="15" rx="4" fill="#181E29"/>
<rect x="288" y="44" width="192" height="15" rx="4" fill="white" fill-opacity="0.08"/>
<rect x="288" y="79" width="178" height="15" rx="4" fill="#181E29"/>
<rect x="288" y="79" width="178" height="15" rx="4" fill="white" fill-opacity="0.08"/>
<rect x="288" y="152" width="243" height="15" rx="4" fill="#181E29"/>
<rect x="288" y="152" width="243" height="15" rx="4" fill="white" fill-opacity="0.08"/>
<rect x="288" y="187" width="123" height="15" rx="4" fill="#181E29"/>
<rect x="288" y="187" width="123" height="15" rx="4" fill="white" fill-opacity="0.08"/>
</g>
<defs>
<clipPath id="clip0">
<rect width="570" height="570" fill="white" transform="translate(-0.00012207)"/>
</clipPath>
<clipPath id="clip1">
<rect width="137" height="127" fill="white" transform="matrix(-1 0 0 1 361 263)"/>
</clipPath>
</defs>
</svg>
