<svg fill="none" xmlns="http://www.w3.org/2000/svg" viewBox="0 0 440 420">
  <g clip-path="url(#clip0)">
    <path fill-rule="evenodd" clip-rule="evenodd" d="M0 0h440v420H0V0z" fill="#121212"/>
    <path fill-rule="evenodd" clip-rule="evenodd" d="M0 0h440v420H0V0z" fill="#fff" fill-opacity=".12"/>
    <g clip-path="url(#clip1)">
      <path d="M91.125 185.577l-16.6-9.583-10.669-.995-13.163-8.382 11.07-4.771-6.884-11.171-7.647-7.597 11.7-6.754 13.834 2.406 13.12 10.756 19.347.007 13.148-5.188 30.293 6.117 4.647-7.696 18.912 15.977 9.658-13.566-1.42-16.727-8.769-.212-.373-9.76-8.28-7.284-10.608 12.705-14.784-2.641-11.052-19.941 21.017-2.576 22.469 3.792 5.509-5.582-19.584-9.793-13.745-3.084-26.097-14.18-13.084-18.82-20.078-6.791-5.524-8.77-21.444-16.344-21.384-2.8-2.021 11.56-21.424 1.975 8.288 14.381 20.028 2.8L56.095 65.37l.026 23.12-22.773 7.56-4.745 41.854 13.123 13.157 5.57 9.579-6.911 3.99 6.88 7.988 3.437 1.984-5.511 3.182-20.018 5.968-2.008 23.512-62.801 26.698-9.664 8.764 5.527 11.171 13.774-11.973 27.66-3.173 36.57 2.023 9.668-5.581 26.224 6.377 15.856-9.154 14.556 1.206 7.589-4.381-19.367-19.161 2.368-24.503z" fill="#121212"/>
      <path d="M91.125 185.577l-16.6-9.583-10.669-.995-13.163-8.382 11.07-4.771-6.884-11.171-7.647-7.597 11.7-6.754 13.834 2.406 13.12 10.756 19.347.007 13.148-5.188 30.293 6.117 4.647-7.696 18.912 15.977 9.658-13.566-1.42-16.727-8.769-.212-.373-9.76-8.28-7.284-10.608 12.705-14.784-2.641-11.052-19.941 21.017-2.576 22.469 3.792 5.509-5.582-19.584-9.793-13.745-3.084-26.097-14.18-13.084-18.82-20.078-6.791-5.524-8.77-21.444-16.344-21.384-2.8-2.021 11.56-21.424 1.975 8.288 14.381 20.028 2.8L56.095 65.37l.026 23.12-22.773 7.56-4.745 41.854 13.123 13.157 5.57 9.579-6.911 3.99 6.88 7.988 3.437 1.984-5.511 3.182-20.018 5.968-2.008 23.512-62.801 26.698-9.664 8.764 5.527 11.171 13.774-11.973 27.66-3.173 36.57 2.023 9.668-5.581 26.224 6.377 15.856-9.154 14.556 1.206 7.589-4.381-19.367-19.161 2.368-24.503z" fill="#fff" fill-opacity=".2"/>
      <path d="M120.544 57.252l-.123 10.986 25.957 9.404 3.107-10.724-11.396-3.97-3.987-8.875-10.856-6.267-11.706 1.118.593 5.298 8.411 3.03z" fill="#121212"/>
      <path d="M120.544 57.252l-.123 10.986 25.957 9.404 3.107-10.724-11.396-3.97-3.987-8.875-10.856-6.267-11.706 1.118.593 5.298 8.411 3.03z" fill="#fff" fill-opacity=".2"/>
      <path d="M157.536 71.2l-2.434 6.002.685 6.863 6.874 2.299 2.933-3.992 10.801-2.266-18.859-8.905z" fill="#121212"/>
      <path d="M157.536 71.2l-2.434 6.002.685 6.863 6.874 2.299 2.933-3.992 10.801-2.266-18.859-8.905z" fill="#fff" fill-opacity=".2"/>
      <path d="M203.502 108.273l-5.44-14.302-18.093-10.81-10.303 1.979-1.713 4.957 16.69 8.644 2.317 10.517-16.816-.476 6.832 6.24L183 125.749l6.279-3.625 2.254-5.583 10.265 3.944 1.704-12.212z" fill="#121212"/>
      <path d="M203.502 108.273l-5.44-14.302-18.093-10.81-10.303 1.979-1.713 4.957 16.69 8.644 2.317 10.517-16.816-.476 6.832 6.24L183 125.749l6.279-3.625 2.254-5.583 10.265 3.944 1.704-12.212z" fill="#fff" fill-opacity=".2"/>
      <path d="M141.203 58.173l18.135 7.34-2.131-5.664-8.866-5.118-2.538-6.42-15.417-2.641 8.551 6.918 2.266 5.585z" fill="#121212"/>
      <path d="M141.203 58.173l18.135 7.34-2.131-5.664-8.866-5.118-2.538-6.42-15.417-2.641 8.551 6.918 2.266 5.585z" fill="#fff" fill-opacity=".2"/>
      <path d="M154.897 55.543l10.575-2.136-15.373-4.286 1.677 4.62 3.121 1.802z" fill="#121212"/>
      <path d="M154.897 55.543l10.575-2.136-15.373-4.286 1.677 4.62 3.121 1.802z" fill="#fff" fill-opacity=".2"/>
      <path d="M163.177 63.296l.775 6.028 30.126 19.374 14.553-2.134 15.413-1.012 31.694 6.457-21.942-16.944-32.333-12.094-13.427-1.493 6.162 12.633-31.021-10.815z" fill="#121212"/>
      <path d="M163.177 63.296l.775 6.028 30.126 19.374 14.553-2.134 15.413-1.012 31.694 6.457-21.942-16.944-32.333-12.094-13.427-1.493 6.162 12.633-31.021-10.815z" fill="#fff" fill-opacity=".2"/>
      <path d="M174.751 64.865l2.481-4.2-7.192-4.621-1.984 4.435 6.695 4.386z" fill="#121212"/>
      <path d="M174.751 64.865l2.481-4.2-7.192-4.621-1.984 4.435 6.695 4.386z" fill="#fff" fill-opacity=".2"/>
      <path d="M186.78 69.829l-4.166-6.526-2.121 2.896 6.287 3.63z" fill="#121212"/>
      <path d="M186.78 69.829l-4.166-6.526-2.121 2.896 6.287 3.63z" fill="#fff" fill-opacity=".2"/>
      <path d="M333.313 140.05l-13.941-13.287-40.802-23.555-40.572-12.894-4.799 2.115-12.141-3.482-2.35 6.753 15.989 9.23-1.729 15.676-22.207 13.425 5.253 12.604 21.083-3.445 39.823 7.424 23.177-4.452 6.013-10.13 27.203 4.018z" fill="#121212"/>
      <path d="M333.313 140.05l-13.941-13.287-40.802-23.555-40.572-12.894-4.799 2.115-12.141-3.482-2.35 6.753 15.989 9.23-1.729 15.676-22.207 13.425 5.253 12.604 21.083-3.445 39.823 7.424 23.177-4.452 6.013-10.13 27.203 4.018z" fill="#fff" fill-opacity=".2"/>
      <path d="M601.223 340.38l-18.002-10.392-19.28-21.51-27.448-8.909 1.304-6.184-21.852-17.048 2.974-9.132-55.26-20.062-18.445-2.72-2.584-6.917-24.004-1.496-43.229-14.107-13.314-21.508-27.762-7.682-33.087 1.293-8.854 5.111 10.268 5.927-3.432 2.974-18.807-2.46-26.944-2.724.007 6.42-6.868 1.98-10.674-5.692-11.974 4.457 4.3 5.456 10.672 3.709 19.254-2.237 11.983 3.945-.845 12.343 5.108.498 2.159-10.125 3.843 1.228-3.824 16.569 4.249.002 4.699-2.243 3.843 1.228.862 2.949 4.251.994 3.883-3.704 7.682-1.981 15.43 14.332-7.276 1.746-17.547-8.148-12.839-.997 2.129 4.202 12.437 5.198-12.426 4.197-7.731-1.491-12.852-12.843-6.824 1.485-8.558-13.338 6.008-3.938-38.98-14.106-32.949 3.197-18.295 10.562 2.46 17.85 21.843 8.646 6.834 7.909-11.113 6.415-7.265 10.619-17.576 7.169-14.891 23.48 14.158 8.173 32.948-3.197 7.68-4.433 15.821.266 13.684-11.346 31.687.508 18.933-5.5-18.087-6.373 11.092-24.265 7.277-1.224-10.642 23.482 36.397 8.651 1.257-8.141-7.282-4.204 4.238-9.393 3.392 1.489-.853 4.931 20.54 16.813-.395 10.621-12.819 16.801 23.5-4.689 26.13 2.724-4.997 18.238-7.815 4.512-4.281 11.872 5.108.497 2.564-11.872 7.816-3.05.733 8.455 15.865-1.221 2.566-8.897 10.714 1.23 15.42 5.46 22.691-1.244 4.692-8.14 13.241-2.214-1.255 9.133 5.563 2.742 3.427-7.409 18.853 3.477 21.831-1.74 12.874-7.432-7.282-4.204 20.975.738 19.265 8.671 14.965 2.223 8.548 4.936-27.438-.506-9.393 8.399 20.566-1.48 6.008-3.469 13.245 1.232 6.831 4.934 18.446 2.721 4.742-3.208 11.983 3.475 10.273 10.886 18.399 1.233-39.27-31.068zm-281.375-73.04l8.539-3.937 2.163-6.68 16.682 2.224-17.523 14.085-9.861-5.692z" fill="#121212"/>
      <path d="M601.223 340.38l-18.002-10.392-19.28-21.51-27.448-8.909 1.304-6.184-21.852-17.048 2.974-9.132-55.26-20.062-18.445-2.72-2.584-6.917-24.004-1.496-43.229-14.107-13.314-21.508-27.762-7.682-33.087 1.293-8.854 5.111 10.268 5.927-3.432 2.974-18.807-2.46-26.944-2.724.007 6.42-6.868 1.98-10.674-5.692-11.974 4.457 4.3 5.456 10.672 3.709 19.254-2.237 11.983 3.945-.845 12.343 5.108.498 2.159-10.125 3.843 1.228-3.824 16.569 4.249.002 4.699-2.243 3.843 1.228.862 2.949 4.251.994 3.883-3.704 7.682-1.981 15.43 14.332-7.276 1.746-17.547-8.148-12.839-.997 2.129 4.202 12.437 5.198-12.426 4.197-7.731-1.491-12.852-12.843-6.824 1.485-8.558-13.338 6.008-3.938-38.98-14.106-32.949 3.197-18.295 10.562 2.46 17.85 21.843 8.646 6.834 7.909-11.113 6.415-7.265 10.619-17.576 7.169-14.891 23.48 14.158 8.173 32.948-3.197 7.68-4.433 15.821.266 13.684-11.346 31.687.508 18.933-5.5-18.087-6.373 11.092-24.265 7.277-1.224-10.642 23.482 36.397 8.651 1.257-8.141-7.282-4.204 4.238-9.393 3.392 1.489-.853 4.931 20.54 16.813-.395 10.621-12.819 16.801 23.5-4.689 26.13 2.724-4.997 18.238-7.815 4.512-4.281 11.872 5.108.497 2.564-11.872 7.816-3.05.733 8.455 15.865-1.221 2.566-8.897 10.714 1.23 15.42 5.46 22.691-1.244 4.692-8.14 13.241-2.214-1.255 9.133 5.563 2.742 3.427-7.409 18.853 3.477 21.831-1.74 12.874-7.432-7.282-4.204 20.975.738 19.265 8.671 14.965 2.223 8.548 4.936-27.438-.506-9.393 8.399 20.566-1.48 6.008-3.469 13.245 1.232 6.831 4.934 18.446 2.721 4.742-3.208 11.983 3.475 10.273 10.886 18.399 1.233-39.27-31.068zm-281.375-73.04l8.539-3.937 2.163-6.68 16.682 2.224-17.523 14.085-9.861-5.692z" fill="#fff" fill-opacity=".2"/>
      <path d="M343.937 344.46l-3.98-2.298-3.457 21.736 10.035-.152-2.598-19.286z" fill="#121212"/>
      <path d="M343.937 344.46l-3.98-2.298-3.457 21.736 10.035-.152-2.598-19.286z" fill="#fff" fill-opacity=".2"/>
      <path d="M354.957 376.692l-12.443-10.626-6.282.337 17.462 13.002 1.263-2.713z" fill="#121212"/>
      <path d="M354.957 376.692l-12.443-10.626-6.282.337 17.462 13.002 1.263-2.713z" fill="#fff" fill-opacity=".2"/>
      <path d="M361.812 363.178l-4.477-2.377-3.383 6.914 6.561 5.77 14.824-2.291 1.397-3.47 7.775.159-3.169-4.437-19.528-.268z" fill="#121212"/>
      <path d="M361.812 363.178l-4.477-2.377-3.383 6.914 6.561 5.77 14.824-2.291 1.397-3.47 7.775.159-3.169-4.437-19.528-.268z" fill="#fff" fill-opacity=".2"/>
      <path d="M399.055 359.486l1.992 3.132 10.258-2.632-4.571-4.934-7.679 4.434z" fill="#121212"/>
      <path d="M399.055 359.486l1.992 3.132 10.258-2.632-4.571-4.934-7.679 4.434z" fill="#fff" fill-opacity=".2"/>
      <path d="M392.467 369.87l-1.397 3.783 5.425 1.15 4.244-4.748-12.569-2.666 4.297 2.481z" fill="#121212"/>
      <path d="M392.467 369.87l-1.397 3.783 5.425 1.15 4.244-4.748-12.569-2.666 4.297 2.481z" fill="#fff" fill-opacity=".2"/>
      <path d="M369.057 374.453l-5.013 4.043 2.442 1.41 4.563-2.634-1.125 4.619 4.566.967-.096-5.376 4.973.941 1.401-.808-6.557-2.168 2.53-1.461 7.189 1.96 2.981-1.721-9.675-2.144-8.179 2.372z" fill="#121212"/>
      <path d="M369.057 374.453l-5.013 4.043 2.442 1.41 4.563-2.634-1.125 4.619 4.566.967-.096-5.376 4.973.941 1.401-.808-6.557-2.168 2.53-1.461 7.189 1.96 2.981-1.721-9.675-2.144-8.179 2.372z" fill="#fff" fill-opacity=".2"/>
      <path d="M388.732 385.185l2.31 3.629-1.67 2.635 5.699 3.29.275 3.131-2.303 2.322 5.023 4.829 6.283.185-.718 4.384 4.84 2.794-.863-3.784 3.16-3.13-.865-5.768-8.145-8.144-7.459.023 3.024-4.409-6.016-3.473-2.575 1.486z" fill="#121212"/>
      <path d="M388.732 385.185l2.31 3.629-1.67 2.635 5.699 3.29.275 3.131-2.303 2.322 5.023 4.829 6.283.185-.718 4.384 4.84 2.794-.863-3.784 3.16-3.13-.865-5.768-8.145-8.144-7.459.023 3.024-4.409-6.016-3.473-2.575 1.486z" fill="#fff" fill-opacity=".2"/>
      <path d="M387.684 418.483l5.101-6.6-1.719-1.306 4.425-4.069-1.267-.731-14.144 3.726-4.979-6.212 4.246-2.451-5.384-4.465-10.035-.473-.545-1.984-12.296-1.152-6.959 1.876-19.307-5.513-17.068 16.799 30.793 9.901 2.178 7.308 4.974 1.098-5.235 8.139 6.968 5.692 12.298 2.457 18.256-4.586 8.264-7.069 1.435-10.385z" fill="#121212"/>
      <path d="M387.684 418.483l5.101-6.6-1.719-1.306 4.425-4.069-1.267-.731-14.144 3.726-4.979-6.212 4.246-2.451-5.384-4.465-10.035-.473-.545-1.984-12.296-1.152-6.959 1.876-19.307-5.513-17.068 16.799 30.793 9.901 2.178 7.308 4.974 1.098-5.235 8.139 6.968 5.692 12.298 2.457 18.256-4.586 8.264-7.069 1.435-10.385z" fill="#fff" fill-opacity=".2"/>
      <circle r="6.309" transform="scale(1.22477 .70706) rotate(45 -240.842 407.976)" fill="#A467DE"/>
      <circle opacity=".8" r="29.47" transform="scale(1.22477 .70706) rotate(45 -240.842 407.976)" stroke="#A467DE"/>
      <path opacity=".5" d="M315.675 233.043c-26.922 15.542-70.57 15.542-97.492 0-26.921-15.542-26.921-40.74 0-56.282 26.922-15.541 70.57-15.541 97.492 0 26.921 15.542 26.921 40.74 0 56.282z" stroke="#A467DE"/>
      <path opacity=".2" d="M348.461 251.97c-45.029 25.995-118.035 25.995-163.063 0-45.029-25.995-45.029-68.141 0-94.136 45.028-25.995 118.034-25.995 163.063 0 45.028 25.995 45.028 68.141 0 94.136z" stroke="#A467DE"/>
      <circle transform="scale(1.22477 .70706) rotate(45 -170.613 233.398)" fill="#A467DE" r="6.309"/>
      <path opacity=".8" d="M166.452 148.37c-14.096 8.138-36.95 8.138-51.045 0-14.096-8.137-14.096-21.33 0-29.468 14.095-8.137 36.949-8.137 51.045 0 14.095 8.138 14.095 21.331 0 29.468z" stroke="#A467DE"/>
      <path opacity=".5" d="M189.675 161.777c-26.922 15.542-70.57 15.542-97.492 0-26.921-15.542-26.921-40.74 0-56.282 26.922-15.541 70.57-15.541 97.492 0 26.921 15.542 26.921 40.74 0 56.282z" stroke="#A467DE"/>
      <path opacity=".2" d="M222.461 180.704c-45.029 25.995-118.035 25.995-163.063 0-45.029-25.995-45.029-68.141 0-94.136 45.028-25.995 118.034-25.995 163.063 0 45.028 25.995 45.028 68.141 0 94.136z" stroke="#A467DE"/>
      <circle transform="scale(1.22477 .70706) rotate(45 -405.47 603.182)" fill="#A467DE" r="6.309"/>
      <circle opacity=".8" r="29.47" transform="scale(1.22477 .70706) rotate(45 -405.47 603.182)" stroke="#A467DE"/>
      <path opacity=".5" d="M425.675 355.777c-26.922 15.541-70.57 15.541-97.492 0-26.921-15.542-26.921-40.74 0-56.282 26.922-15.542 70.57-15.542 97.492 0 26.921 15.542 26.921 40.74 0 56.282z" stroke="#A467DE"/>
      <path opacity=".2" d="M458.461 374.704c-45.029 25.995-118.035 25.995-163.063 0-45.029-25.995-45.029-68.141 0-94.136 45.028-25.995 118.034-25.995 163.063 0 45.028 25.995 45.028 68.141 0 94.136z" stroke="#A467DE"/>
      <path opacity=".5" d="M192.569 320.838c-11.673 6.739-30.599 6.739-42.272 0-11.674-6.739-11.674-17.665 0-24.404 11.673-6.739 30.599-6.739 42.272 0 11.674 6.739 11.674 17.665 0 24.404z" stroke="#A467DE"/>
      <path opacity=".2" d="M214.216 333.336c-23.628 13.641-61.938 13.641-85.566 0-23.629-13.641-23.629-35.757 0-49.398 23.628-13.641 61.938-13.641 85.566 0 23.629 13.641 23.629 35.757 0 49.398z" stroke="#A467DE"/>
      <circle transform="scale(1.22477 .70706) rotate(45 -394.35 155.119)" fill="#A467DE" r="6.309"/>
      <circle opacity=".8" r="18.428" transform="scale(1.22477 .70706) rotate(45 -394.35 155.119)" stroke="#A467DE"/>
      <path opacity=".5" d="M33.425 252.695c-22.395 12.928-58.704 12.928-81.099 0-22.394-12.929-22.394-33.89 0-46.818 22.395-12.929 58.704-12.929 81.099 0 22.395 12.928 22.395 33.889 0 46.818z" stroke="#A467DE"/>
      <circle opacity=".2" r="76.791" transform="scale(1.22477 .70706) rotate(45 -394.35 155.119)" stroke="#A467DE"/>
      <g clip-path="url(#clip2)">
        <path d="M373.306 316.547l5.308 3.191c.834.499.73 1.379-.233 1.952l-2.37 1.422" fill="#121212"/>
        <path d="M373.306 316.547l5.308 3.191c.834.499.73 1.379-.233 1.952l-2.37 1.422" fill="#fff" fill-opacity=".2"/>
        <path d="M373.306 316.547l5.308 3.191c.834.499.73 1.379-.233 1.952l-2.37 1.422" stroke="#121212" stroke-linecap="round" stroke-linejoin="round"/>
        <path d="M373.306 316.547l5.308 3.191c.834.499.73 1.379-.233 1.952l-2.37 1.422" stroke="#fff" stroke-opacity=".6" stroke-linecap="round" stroke-linejoin="round"/>
        <path d="M392.946 330.681v-14.994h-5.815l-6.479-3.881c-.833-.502-2.29-.438-3.253.138l-6.242 3.743h-5.813v16.926c-.002.191.05.378.149.538a.951.951 0 00.409.366l2.019 1.21" fill="#121212"/>
        <path d="M392.946 330.681v-14.994h-5.815l-6.479-3.881c-.833-.502-2.29-.438-3.253.138l-6.242 3.743h-5.813v16.926c-.002.191.05.378.149.538a.951.951 0 00.409.366l2.019 1.21" fill="#fff" fill-opacity=".2"/>
        <path d="M392.946 325.482v-9.795h-5.815l-6.479-3.881c-.833-.502-2.29-.438-3.253.138l-6.242 3.743h-5.813v16.926c-.002.191.05.378.149.538a.951.951 0 00.409.366l2.019 1.21" fill="#121212"/>
        <path d="M392.946 325.482v-9.795h-5.815l-6.479-3.881c-.833-.502-2.29-.438-3.253.138l-6.242 3.743h-5.813v16.926c-.002.191.05.378.149.538a.951.951 0 00.409.366l2.019 1.21" fill="#fff" fill-opacity=".2"/>
        <path d="M392.946 325.482v-9.795h-5.815l-6.479-3.881c-.833-.502-2.29-.438-3.253.138l-6.242 3.743h-5.813v16.926c-.002.191.05.378.149.538a.951.951 0 00.409.366l2.019 1.21" stroke="#121212" stroke-linecap="round" stroke-linejoin="round"/>
        <path d="M392.946 325.482v-9.795h-5.815l-6.479-3.881c-.833-.502-2.29-.438-3.253.138l-6.242 3.743h-5.813v16.926c-.002.191.05.378.149.538a.951.951 0 00.409.366l2.019 1.21" stroke="#fff" stroke-opacity=".6" stroke-linecap="round" stroke-linejoin="round"/>
        <path d="M374.225 338.506l3.407 2.037c.836.498 2.293.438 3.257-.141l11.26-6.75c.502-.301.767-.681.797-1.045v-2.519" fill="#121212"/>
        <path d="M374.225 338.506l3.407 2.037c.836.498 2.293.438 3.257-.141l11.26-6.75c.502-.301.767-.681.797-1.045v-2.519" fill="#fff" fill-opacity=".2"/>
        <path d="M374.225 338.506l3.407 2.037c.836.498 2.293.438 3.257-.141l11.26-6.75c.502-.301.767-.681.797-1.045v-2.519" stroke="#121212" stroke-linecap="round" stroke-linejoin="round"/>
        <path d="M374.225 338.506l3.407 2.037c.836.498 2.293.438 3.257-.141l11.26-6.75c.502-.301.767-.681.797-1.045v-2.519" stroke="#fff" stroke-opacity=".6" stroke-linecap="round" stroke-linejoin="round"/>
        <path d="M376.6 323.007l-4.398-2.637" stroke="#121212" stroke-linecap="round" stroke-linejoin="round"/>
        <path d="M376.6 323.007l-4.398-2.637" stroke="#fff" stroke-opacity=".6" stroke-linecap="round" stroke-linejoin="round"/>
        <path d="M381.871 308.394l10.523 6.389c.836.498.73 1.378-.234 1.951l-11.261 6.753c-.963.576-2.42.639-3.256.14l-1.032-.62" fill="#121212"/>
        <path d="M381.871 308.394l10.523 6.389c.836.498.73 1.378-.234 1.951l-11.261 6.753c-.963.576-2.42.639-3.256.14l-1.032-.62" fill="#fff" fill-opacity=".2"/>
        <path d="M381.871 308.394l10.523 6.389c.836.498.73 1.378-.234 1.951l-11.261 6.753c-.963.576-2.42.639-3.256.14l-1.032-.62" stroke="#121212" stroke-linecap="round" stroke-linejoin="round"/>
        <path d="M381.871 308.394l10.523 6.389c.836.498.73 1.378-.234 1.951l-11.261 6.753c-.963.576-2.42.639-3.256.14l-1.032-.62" stroke="#fff" stroke-opacity=".6" stroke-linecap="round" stroke-linejoin="round"/>
        <path d="M372.202 320.37l-6.3-3.776c-.823-.502-.727-1.376.239-1.96l11.263-6.753c.963-.579 2.421-.639 3.254-.14l3.92 2.348" fill="#121212"/>
        <path d="M372.202 320.37l-6.3-3.776c-.823-.502-.727-1.376.239-1.96l11.263-6.753c.963-.579 2.421-.639 3.254-.14l3.92 2.348" fill="#fff" fill-opacity=".2"/>
        <path d="M372.202 320.37l-6.3-3.776c-.823-.502-.727-1.376.239-1.96l11.263-6.753c.963-.579 2.421-.639 3.254-.14l3.92 2.348" stroke="#121212" stroke-linecap="round" stroke-linejoin="round"/>
        <path d="M372.202 320.37l-6.3-3.776c-.823-.502-.727-1.376.239-1.96l11.263-6.753c.963-.579 2.421-.639 3.254-.14l3.92 2.348" stroke="#fff" stroke-opacity=".6" stroke-linecap="round" stroke-linejoin="round"/>
        <path d="M381.255 326.924l10.178-6.202" stroke="#666" stroke-linecap="round" stroke-linejoin="round"/>
        <path d="M391.146 325.39l-9.923 5.962" stroke="#121212" stroke-linecap="round" stroke-linejoin="round"/>
        <path d="M391.146 325.39l-9.923 5.962" stroke="#fff" stroke-opacity=".6" stroke-linecap="round" stroke-linejoin="round"/>
        <path d="M391.146 329.246l-9.923 5.959" stroke="#666" stroke-linecap="round" stroke-linejoin="round"/>
        <path d="M379.105 317.627a3.788 3.788 0 003.532 0c.974-.584.974-1.533 0-2.117a2.728 2.728 0 00-.43-.204c.499-.631.314-1.405-.554-1.929-1.062-.631-2.739-.659-3.851-.083a3.205 3.205 0 00-2.8.091c-.82.493-.82 1.29 0 1.781l1.592.959" fill="#121212"/>
        <path d="M379.105 317.627a3.788 3.788 0 003.532 0c.974-.584.974-1.533 0-2.117a2.728 2.728 0 00-.43-.204c.499-.631.314-1.405-.554-1.929-1.062-.631-2.739-.659-3.851-.083a3.205 3.205 0 00-2.8.091c-.82.493-.82 1.29 0 1.781l1.592.959" fill="#fff" fill-opacity=".2"/>
        <path d="M379.105 317.627a3.788 3.788 0 003.532 0c.974-.584.974-1.533 0-2.117a2.728 2.728 0 00-.43-.204c.499-.631.314-1.405-.554-1.929-1.062-.631-2.739-.659-3.851-.083a3.205 3.205 0 00-2.8.091c-.82.493-.82 1.29 0 1.781l1.592.959" stroke="#666" stroke-linecap="round" stroke-linejoin="round"/>
        <path d="M369.158 318.545l-3.341-1.927" stroke="#121212" stroke-linecap="round" stroke-linejoin="round"/>
        <path d="M369.158 318.545l-3.341-1.927" stroke="#fff" stroke-opacity=".6" stroke-linecap="round" stroke-linejoin="round"/>
      </g>
      <g clip-path="url(#clip3)">
        <path d="M282.306 264.547l5.308 3.191c.834.499.73 1.379-.233 1.952l-2.37 1.422" fill="#121212"/>
        <path d="M282.306 264.547l5.308 3.191c.834.499.73 1.379-.233 1.952l-2.37 1.422" fill="#fff" fill-opacity=".2"/>
        <path d="M282.306 264.547l5.308 3.191c.834.499.73 1.379-.233 1.952l-2.37 1.422" stroke="#121212" stroke-linecap="round" stroke-linejoin="round"/>
        <path d="M282.306 264.547l5.308 3.191c.834.499.73 1.379-.233 1.952l-2.37 1.422" stroke="#fff" stroke-opacity=".6" stroke-linecap="round" stroke-linejoin="round"/>
        <path d="M301.946 278.681v-14.994h-5.815l-6.478-3.881c-.834-.502-2.291-.438-3.254.138l-6.242 3.743h-5.813v16.926c-.002.191.05.378.149.538a.951.951 0 00.409.366l2.019 1.21" fill="#121212"/>
        <path d="M301.946 278.681v-14.994h-5.815l-6.478-3.881c-.834-.502-2.291-.438-3.254.138l-6.242 3.743h-5.813v16.926c-.002.191.05.378.149.538a.951.951 0 00.409.366l2.019 1.21" fill="#fff" fill-opacity=".2"/>
        <path d="M301.946 273.482v-9.795h-5.815l-6.478-3.881c-.834-.502-2.291-.438-3.254.138l-6.242 3.743h-5.813v16.926c-.002.191.05.378.149.538a.951.951 0 00.409.366l2.019 1.21" fill="#121212"/>
        <path d="M301.946 273.482v-9.795h-5.815l-6.478-3.881c-.834-.502-2.291-.438-3.254.138l-6.242 3.743h-5.813v16.926c-.002.191.05.378.149.538a.951.951 0 00.409.366l2.019 1.21" fill="#fff" fill-opacity=".2"/>
        <path d="M301.946 273.482v-9.795h-5.815l-6.478-3.881c-.834-.502-2.291-.438-3.254.138l-6.242 3.743h-5.813v16.926c-.002.191.05.378.149.538a.951.951 0 00.409.366l2.019 1.21" stroke="#121212" stroke-linecap="round" stroke-linejoin="round"/>
        <path d="M301.946 273.482v-9.795h-5.815l-6.478-3.881c-.834-.502-2.291-.438-3.254.138l-6.242 3.743h-5.813v16.926c-.002.191.05.378.149.538a.951.951 0 00.409.366l2.019 1.21" stroke="#fff" stroke-opacity=".6" stroke-linecap="round" stroke-linejoin="round"/>
        <path d="M283.225 286.506l3.407 2.037c.836.498 2.293.438 3.257-.141l11.261-6.75c.501-.301.767-.681.796-1.045v-2.519" fill="#121212"/>
        <path d="M283.225 286.506l3.407 2.037c.836.498 2.293.438 3.257-.141l11.261-6.75c.501-.301.767-.681.796-1.045v-2.519" fill="#fff" fill-opacity=".2"/>
        <path d="M283.225 286.506l3.407 2.037c.836.498 2.293.438 3.257-.141l11.261-6.75c.501-.301.767-.681.796-1.045v-2.519" stroke="#121212" stroke-linecap="round" stroke-linejoin="round"/>
        <path d="M283.225 286.506l3.407 2.037c.836.498 2.293.438 3.257-.141l11.261-6.75c.501-.301.767-.681.796-1.045v-2.519" stroke="#fff" stroke-opacity=".6" stroke-linecap="round" stroke-linejoin="round"/>
        <path d="M285.6 271.007l-4.398-2.637" stroke="#121212" stroke-linecap="round" stroke-linejoin="round"/>
        <path d="M285.6 271.007l-4.398-2.637" stroke="#fff" stroke-opacity=".6" stroke-linecap="round" stroke-linejoin="round"/>
        <path d="M290.871 256.394l10.523 6.389c.836.498.73 1.378-.234 1.951l-11.26 6.753c-.964.576-2.421.639-3.257.14l-1.032-.62" fill="#121212"/>
        <path d="M290.871 256.394l10.523 6.389c.836.498.73 1.378-.234 1.951l-11.26 6.753c-.964.576-2.421.639-3.257.14l-1.032-.62" fill="#fff" fill-opacity=".2"/>
        <path d="M290.871 256.394l10.523 6.389c.836.498.73 1.378-.234 1.951l-11.26 6.753c-.964.576-2.421.639-3.257.14l-1.032-.62" stroke="#121212" stroke-linecap="round" stroke-linejoin="round"/>
        <path d="M290.871 256.394l10.523 6.389c.836.498.73 1.378-.234 1.951l-11.26 6.753c-.964.576-2.421.639-3.257.14l-1.032-.62" stroke="#fff" stroke-opacity=".6" stroke-linecap="round" stroke-linejoin="round"/>
        <path d="M281.202 268.37l-6.3-3.776c-.823-.502-.727-1.376.239-1.96l11.263-6.753c.964-.579 2.421-.639 3.254-.14l3.92 2.348" fill="#121212"/>
        <path d="M281.202 268.37l-6.3-3.776c-.823-.502-.727-1.376.239-1.96l11.263-6.753c.964-.579 2.421-.639 3.254-.14l3.92 2.348" fill="#fff" fill-opacity=".2"/>
        <path d="M281.202 268.37l-6.3-3.776c-.823-.502-.727-1.376.239-1.96l11.263-6.753c.964-.579 2.421-.639 3.254-.14l3.92 2.348" stroke="#121212" stroke-linecap="round" stroke-linejoin="round"/>
        <path d="M281.202 268.37l-6.3-3.776c-.823-.502-.727-1.376.239-1.96l11.263-6.753c.964-.579 2.421-.639 3.254-.14l3.92 2.348" stroke="#fff" stroke-opacity=".6" stroke-linecap="round" stroke-linejoin="round"/>
        <path d="M290.255 274.924l10.178-6.202" stroke="#666" stroke-linecap="round" stroke-linejoin="round"/>
        <path d="M300.146 273.39l-9.923 5.962" stroke="#121212" stroke-linecap="round" stroke-linejoin="round"/>
        <path d="M300.146 273.39l-9.923 5.962" stroke="#fff" stroke-opacity=".6" stroke-linecap="round" stroke-linejoin="round"/>
        <path d="M300.146 277.246l-9.923 5.959" stroke="#666" stroke-linecap="round" stroke-linejoin="round"/>
        <path d="M288.105 265.627a3.79 3.79 0 003.533 0c.974-.584.974-1.533 0-2.117a2.815 2.815 0 00-.43-.204c.499-.631.313-1.405-.555-1.929-1.062-.631-2.739-.659-3.851-.083a3.205 3.205 0 00-2.8.091c-.82.493-.82 1.29 0 1.781l1.592.959" fill="#121212"/>
        <path d="M288.105 265.627a3.79 3.79 0 003.533 0c.974-.584.974-1.533 0-2.117a2.815 2.815 0 00-.43-.204c.499-.631.313-1.405-.555-1.929-1.062-.631-2.739-.659-3.851-.083a3.205 3.205 0 00-2.8.091c-.82.493-.82 1.29 0 1.781l1.592.959" fill="#fff" fill-opacity=".2"/>
        <path d="M288.105 265.627a3.79 3.79 0 003.533 0c.974-.584.974-1.533 0-2.117a2.815 2.815 0 00-.43-.204c.499-.631.313-1.405-.555-1.929-1.062-.631-2.739-.659-3.851-.083a3.205 3.205 0 00-2.8.091c-.82.493-.82 1.29 0 1.781l1.592.959" stroke="#666" stroke-linecap="round" stroke-linejoin="round"/>
        <path d="M278.158 266.545l-3.341-1.927" stroke="#121212" stroke-linecap="round" stroke-linejoin="round"/>
        <path d="M278.158 266.545l-3.341-1.927" stroke="#fff" stroke-opacity=".6" stroke-linecap="round" stroke-linejoin="round"/>
      </g>
      <path fill="url(#paint0_linear)" d="M377 257h4v55h-4z"/>
      <path fill="url(#paint1_linear)" d="M286 205h4v55h-4z"/>
      <path fill="url(#paint2_linear)" d="M265.277 106h4v55h-4z"/>
      <path fill="url(#paint3_linear)" d="M339 208h4v55h-4z"/>
      <path fill="url(#paint4_linear)" d="M170.504 203h4v55h-4z"/>
      <path fill="url(#paint5_linear)" d="M139.312 63.257h4v55h-4z"/>
      <g clip-path="url(#clip4)">
        <path d="M260.395 167.836v39.887l6.75 4.306 6.474-4.306v-39.489" fill="#121212"/>
        <path d="M260.395 167.836v39.887l6.75 4.306 6.474-4.306v-39.489" fill="#fff" fill-opacity=".2"/>
        <path d="M267.145 171.714l-10.257-5.892 10.257-5.891 10.259 5.891-10.259 5.892z" fill="#121212"/>
        <path d="M267.145 171.714l-10.257-5.892 10.257-5.891 10.259 5.891-10.259 5.892z" fill="#fff" fill-opacity=".2"/>
        <path d="M267.145 171.714l-10.257-5.892 10.257-5.891 10.259 5.891-10.259 5.892z" stroke="#121212" stroke-linecap="round" stroke-linejoin="round"/>
        <path d="M267.145 171.714l-10.257-5.892 10.257-5.891 10.259 5.891-10.259 5.892z" stroke="#fff" stroke-opacity=".6" stroke-linecap="round" stroke-linejoin="round"/>
        <path d="M273.619 212.561v-44.327" stroke="#121212" stroke-linecap="round" stroke-linejoin="round"/>
        <path d="M273.619 212.561v-44.327" stroke="#fff" stroke-opacity=".6" stroke-linecap="round" stroke-linejoin="round"/>
        <path d="M260.394 174.247v-6.411" stroke="#121212" stroke-linecap="round" stroke-linejoin="round"/>
        <path d="M260.394 174.247v-6.411" stroke="#fff" stroke-opacity=".6" stroke-linecap="round" stroke-linejoin="round"/>
        <path d="M260.394 212.325v-38.599" stroke="#121212" stroke-linecap="round" stroke-linejoin="round"/>
        <path d="M260.394 212.325v-38.599" stroke="#fff" stroke-opacity=".6" stroke-linecap="round" stroke-linejoin="round"/>
        <path d="M267.145 189.18v-17.466" stroke="#121212" stroke-linecap="round" stroke-linejoin="round"/>
        <path d="M267.145 189.18v-17.466" stroke="#fff" stroke-opacity=".6" stroke-linecap="round" stroke-linejoin="round"/>
        <path d="M267.145 215.145v-26.481" stroke="#121212" stroke-linecap="round" stroke-linejoin="round"/>
        <path d="M267.145 215.145v-26.481" stroke="#fff" stroke-opacity=".6" stroke-linecap="round" stroke-linejoin="round"/>
        <path d="M260.395 206.99l6.75 4.233-4.214-10.334" fill="#121212"/>
        <path d="M260.395 206.99l6.75 4.233-4.214-10.334" fill="#fff" fill-opacity=".2"/>
        <path d="M260.395 206.99l6.75 4.233-4.214-10.334-2.536-5.913 6.75 3.577" stroke="#121212" stroke-linecap="round" stroke-linejoin="round"/>
        <path d="M260.395 206.99l6.75 4.233-4.214-10.334-2.536-5.913 6.75 3.577" stroke="#fff" stroke-opacity=".6" stroke-linecap="round" stroke-linejoin="round"/>
        <path d="M267.145 211.223v3.922" stroke="#121212" stroke-linecap="round" stroke-linejoin="round"/>
        <path d="M267.145 211.223v3.922" stroke="#fff" stroke-opacity=".6" stroke-linecap="round" stroke-linejoin="round"/>
        <path d="M272.083 208.436l1.537-.869" stroke="#121212" stroke-linecap="round" stroke-linejoin="round"/>
        <path d="M272.083 208.436l1.537-.869" stroke="#fff" stroke-opacity=".6" stroke-linecap="round" stroke-linejoin="round"/>
        <path d="M272.556 208.232l-2.9 1.573-2.511 1.418 6.277-16.247-6.277 3.367" stroke="#121212" stroke-linecap="round" stroke-linejoin="round"/>
        <path d="M272.556 208.232l-2.9 1.573-2.511 1.418 6.277-16.247-6.277 3.367" stroke="#fff" stroke-opacity=".6" stroke-linecap="round" stroke-linejoin="round"/>
        <path d="M267.145 198.484l6.37-3.597-6.37-9.141 6.474-3.657" stroke="#121212" stroke-linecap="round" stroke-linejoin="round"/>
        <path d="M267.145 198.484l6.37-3.597-6.37-9.141 6.474-3.657" stroke="#fff" stroke-opacity=".6" stroke-linecap="round" stroke-linejoin="round"/>
        <path d="M267.127 171.912l-6.258 9.388 6.06 4.208" stroke="#121212" stroke-linecap="round" stroke-linejoin="round"/>
        <path d="M267.127 171.912l-6.258 9.388 6.06 4.208" stroke="#fff" stroke-opacity=".6" stroke-linecap="round" stroke-linejoin="round"/>
        <path d="M274.081 179.822c1.129-1.902.86-4.109-.601-4.929-1.462-.82-3.562.057-4.692 1.959-1.13 1.902-.861 4.109.601 4.929 1.461.82 3.562-.057 4.692-1.959z" fill="#121212"/>
        <path d="M274.081 179.822c1.129-1.902.86-4.109-.601-4.929-1.462-.82-3.562.057-4.692 1.959-1.13 1.902-.861 4.109.601 4.929 1.461.82 3.562-.057 4.692-1.959z" fill="#fff" fill-opacity=".2"/>
        <path d="M274.081 179.822c1.129-1.902.86-4.109-.601-4.929-1.462-.82-3.562.057-4.692 1.959-1.13 1.902-.861 4.109.601 4.929 1.461.82 3.562-.057 4.692-1.959z" stroke="#666" stroke-linecap="round" stroke-linejoin="round"/>
        <path d="M266 194.052c1.453-.815 1.636-3.153.407-5.221-1.228-2.068-3.401-3.083-4.855-2.267-1.453.816-1.636 3.153-.408 5.221s3.402 3.083 4.856 2.267z" fill="#121212"/>
        <path d="M266 194.052c1.453-.815 1.636-3.153.407-5.221-1.228-2.068-3.401-3.083-4.855-2.267-1.453.816-1.636 3.153-.408 5.221s3.402 3.083 4.856 2.267z" fill="#fff" fill-opacity=".2"/>
        <path d="M266 194.052c1.453-.815 1.636-3.153.407-5.221-1.228-2.068-3.401-3.083-4.855-2.267-1.453.816-1.636 3.153-.408 5.221s3.402 3.083 4.856 2.267zM267.007 165.822V156.6" stroke="#666" stroke-linecap="round" stroke-linejoin="round"/>
      </g>
      <g clip-path="url(#clip5)">
        <path d="M334.119 269.836v39.887l6.749 4.306 6.475-4.306v-39.489" fill="#121212"/>
        <path d="M334.119 269.836v39.887l6.749 4.306 6.475-4.306v-39.489" fill="#fff" fill-opacity=".2"/>
        <path d="M340.869 273.714l-10.258-5.892 10.258-5.891 10.258 5.891-10.258 5.892z" fill="#121212"/>
        <path d="M340.869 273.714l-10.258-5.892 10.258-5.891 10.258 5.891-10.258 5.892z" fill="#fff" fill-opacity=".2"/>
        <path d="M340.869 273.714l-10.258-5.892 10.258-5.891 10.258 5.891-10.258 5.892z" stroke="#121212" stroke-linecap="round" stroke-linejoin="round"/>
        <path d="M340.869 273.714l-10.258-5.892 10.258-5.891 10.258 5.891-10.258 5.892z" stroke="#fff" stroke-opacity=".6" stroke-linecap="round" stroke-linejoin="round"/>
        <path d="M347.343 314.561v-44.327" stroke="#121212" stroke-linecap="round" stroke-linejoin="round"/>
        <path d="M347.343 314.561v-44.327" stroke="#fff" stroke-opacity=".6" stroke-linecap="round" stroke-linejoin="round"/>
        <path d="M334.118 276.247v-6.411" stroke="#121212" stroke-linecap="round" stroke-linejoin="round"/>
        <path d="M334.118 276.247v-6.411" stroke="#fff" stroke-opacity=".6" stroke-linecap="round" stroke-linejoin="round"/>
        <path d="M334.118 314.325v-38.599" stroke="#121212" stroke-linecap="round" stroke-linejoin="round"/>
        <path d="M334.118 314.325v-38.599" stroke="#fff" stroke-opacity=".6" stroke-linecap="round" stroke-linejoin="round"/>
        <path d="M340.869 291.18v-17.466" stroke="#121212" stroke-linecap="round" stroke-linejoin="round"/>
        <path d="M340.869 291.18v-17.466" stroke="#fff" stroke-opacity=".6" stroke-linecap="round" stroke-linejoin="round"/>
        <path d="M340.869 317.145v-26.481" stroke="#121212" stroke-linecap="round" stroke-linejoin="round"/>
        <path d="M340.869 317.145v-26.481" stroke="#fff" stroke-opacity=".6" stroke-linecap="round" stroke-linejoin="round"/>
        <path d="M334.119 308.99l6.749 4.233-4.214-10.334" fill="#121212"/>
        <path d="M334.119 308.99l6.749 4.233-4.214-10.334" fill="#fff" fill-opacity=".2"/>
        <path d="M334.119 308.99l6.749 4.233-4.214-10.334-2.535-5.913 6.749 3.577" stroke="#121212" stroke-linecap="round" stroke-linejoin="round"/>
        <path d="M334.119 308.99l6.749 4.233-4.214-10.334-2.535-5.913 6.749 3.577" stroke="#fff" stroke-opacity=".6" stroke-linecap="round" stroke-linejoin="round"/>
        <path d="M340.869 313.223v3.922" stroke="#121212" stroke-linecap="round" stroke-linejoin="round"/>
        <path d="M340.869 313.223v3.922" stroke="#fff" stroke-opacity=".6" stroke-linecap="round" stroke-linejoin="round"/>
        <path d="M345.806 310.436l1.537-.869" stroke="#121212" stroke-linecap="round" stroke-linejoin="round"/>
        <path d="M345.806 310.436l1.537-.869" stroke="#fff" stroke-opacity=".6" stroke-linecap="round" stroke-linejoin="round"/>
        <path d="M346.28 310.232l-2.901 1.573-2.51 1.418 6.277-16.247-6.277 3.367" stroke="#121212" stroke-linecap="round" stroke-linejoin="round"/>
        <path d="M346.28 310.232l-2.901 1.573-2.51 1.418 6.277-16.247-6.277 3.367" stroke="#fff" stroke-opacity=".6" stroke-linecap="round" stroke-linejoin="round"/>
        <path d="M340.869 300.484l6.369-3.597-6.369-9.141 6.474-3.657" stroke="#121212" stroke-linecap="round" stroke-linejoin="round"/>
        <path d="M340.869 300.484l6.369-3.597-6.369-9.141 6.474-3.657" stroke="#fff" stroke-opacity=".6" stroke-linecap="round" stroke-linejoin="round"/>
        <path d="M340.85 273.912l-6.258 9.388 6.06 4.208" stroke="#121212" stroke-linecap="round" stroke-linejoin="round"/>
        <path d="M340.85 273.912l-6.258 9.388 6.06 4.208" stroke="#fff" stroke-opacity=".6" stroke-linecap="round" stroke-linejoin="round"/>
        <path d="M347.804 281.822c1.13-1.902.861-4.109-.601-4.929-1.461-.82-3.562.057-4.691 1.959-1.13 1.902-.861 4.109.601 4.929 1.461.82 3.562-.057 4.691-1.959z" fill="#121212"/>
        <path d="M347.804 281.822c1.13-1.902.861-4.109-.601-4.929-1.461-.82-3.562.057-4.691 1.959-1.13 1.902-.861 4.109.601 4.929 1.461.82 3.562-.057 4.691-1.959z" fill="#fff" fill-opacity=".2"/>
        <path d="M347.804 281.822c1.13-1.902.861-4.109-.601-4.929-1.461-.82-3.562.057-4.691 1.959-1.13 1.902-.861 4.109.601 4.929 1.461.82 3.562-.057 4.691-1.959z" stroke="#666" stroke-linecap="round" stroke-linejoin="round"/>
        <path d="M339.723 296.052c1.454-.815 1.636-3.153.408-5.221s-3.402-3.083-4.855-2.267c-1.453.816-1.636 3.153-.408 5.221s3.402 3.083 4.855 2.267z" fill="#121212"/>
        <path d="M339.723 296.052c1.454-.815 1.636-3.153.408-5.221s-3.402-3.083-4.855-2.267c-1.453.816-1.636 3.153-.408 5.221s3.402 3.083 4.855 2.267z" fill="#fff" fill-opacity=".2"/>
        <path d="M339.723 296.052c1.454-.815 1.636-3.153.408-5.221s-3.402-3.083-4.855-2.267c-1.453.816-1.636 3.153-.408 5.221s3.402 3.083 4.855 2.267zM340.731 267.822V258.6" stroke="#666" stroke-linecap="round" stroke-linejoin="round"/>
      </g>
      <g clip-path="url(#clip6)">
        <path d="M165.623 264.836v39.887l6.749 4.306 6.475-4.306v-39.489" fill="#121212"/>
        <path d="M165.623 264.836v39.887l6.749 4.306 6.475-4.306v-39.489" fill="#fff" fill-opacity=".2"/>
        <path d="M172.373 268.714l-10.258-5.892 10.258-5.891 10.258 5.891-10.258 5.892z" fill="#121212"/>
        <path d="M172.373 268.714l-10.258-5.892 10.258-5.891 10.258 5.891-10.258 5.892z" fill="#fff" fill-opacity=".2"/>
        <path d="M172.373 268.714l-10.258-5.892 10.258-5.891 10.258 5.891-10.258 5.892z" stroke="#121212" stroke-linecap="round" stroke-linejoin="round"/>
        <path d="M172.373 268.714l-10.258-5.892 10.258-5.891 10.258 5.891-10.258 5.892z" stroke="#fff" stroke-opacity=".6" stroke-linecap="round" stroke-linejoin="round"/>
        <path d="M178.847 309.561v-44.327" stroke="#121212" stroke-linecap="round" stroke-linejoin="round"/>
        <path d="M178.847 309.561v-44.327" stroke="#fff" stroke-opacity=".6" stroke-linecap="round" stroke-linejoin="round"/>
        <path d="M165.622 271.247v-6.411" stroke="#121212" stroke-linecap="round" stroke-linejoin="round"/>
        <path d="M165.622 271.247v-6.411" stroke="#fff" stroke-opacity=".6" stroke-linecap="round" stroke-linejoin="round"/>
        <path d="M165.622 309.325v-38.599" stroke="#121212" stroke-linecap="round" stroke-linejoin="round"/>
        <path d="M165.622 309.325v-38.599" stroke="#fff" stroke-opacity=".6" stroke-linecap="round" stroke-linejoin="round"/>
        <path d="M172.373 286.18v-17.466" stroke="#121212" stroke-linecap="round" stroke-linejoin="round"/>
        <path d="M172.373 286.18v-17.466" stroke="#fff" stroke-opacity=".6" stroke-linecap="round" stroke-linejoin="round"/>
        <path d="M172.373 312.145v-26.481" stroke="#121212" stroke-linecap="round" stroke-linejoin="round"/>
        <path d="M172.373 312.145v-26.481" stroke="#fff" stroke-opacity=".6" stroke-linecap="round" stroke-linejoin="round"/>
        <path d="M165.623 303.99l6.749 4.233-4.214-10.334" fill="#121212"/>
        <path d="M165.623 303.99l6.749 4.233-4.214-10.334" fill="#fff" fill-opacity=".2"/>
        <path d="M165.623 303.99l6.749 4.233-4.214-10.334-2.535-5.913 6.749 3.577" stroke="#121212" stroke-linecap="round" stroke-linejoin="round"/>
        <path d="M165.623 303.99l6.749 4.233-4.214-10.334-2.535-5.913 6.749 3.577" stroke="#fff" stroke-opacity=".6" stroke-linecap="round" stroke-linejoin="round"/>
        <path d="M172.373 308.223v3.922" stroke="#121212" stroke-linecap="round" stroke-linejoin="round"/>
        <path d="M172.373 308.223v3.922" stroke="#fff" stroke-opacity=".6" stroke-linecap="round" stroke-linejoin="round"/>
        <path d="M177.31 305.436l1.537-.869" stroke="#121212" stroke-linecap="round" stroke-linejoin="round"/>
        <path d="M177.31 305.436l1.537-.869" stroke="#fff" stroke-opacity=".6" stroke-linecap="round" stroke-linejoin="round"/>
        <path d="M177.784 305.232l-2.901 1.573-2.51 1.418 6.277-16.247-6.277 3.367" stroke="#121212" stroke-linecap="round" stroke-linejoin="round"/>
        <path d="M177.784 305.232l-2.901 1.573-2.51 1.418 6.277-16.247-6.277 3.367" stroke="#fff" stroke-opacity=".6" stroke-linecap="round" stroke-linejoin="round"/>
        <path d="M172.373 295.484l6.369-3.597-6.369-9.141 6.474-3.657" stroke="#121212" stroke-linecap="round" stroke-linejoin="round"/>
        <path d="M172.373 295.484l6.369-3.597-6.369-9.141 6.474-3.657" stroke="#fff" stroke-opacity=".6" stroke-linecap="round" stroke-linejoin="round"/>
        <path d="M172.354 268.912l-6.258 9.388 6.06 4.208" stroke="#121212" stroke-linecap="round" stroke-linejoin="round"/>
        <path d="M172.354 268.912l-6.258 9.388 6.06 4.208" stroke="#fff" stroke-opacity=".6" stroke-linecap="round" stroke-linejoin="round"/>
        <path d="M179.308 276.822c1.13-1.902.861-4.109-.601-4.929-1.461-.82-3.562.057-4.691 1.959-1.13 1.902-.861 4.109.601 4.929 1.461.82 3.562-.057 4.691-1.959z" fill="#121212"/>
        <path d="M179.308 276.822c1.13-1.902.861-4.109-.601-4.929-1.461-.82-3.562.057-4.691 1.959-1.13 1.902-.861 4.109.601 4.929 1.461.82 3.562-.057 4.691-1.959z" fill="#fff" fill-opacity=".2"/>
        <path d="M179.308 276.822c1.13-1.902.861-4.109-.601-4.929-1.461-.82-3.562.057-4.691 1.959-1.13 1.902-.861 4.109.601 4.929 1.461.82 3.562-.057 4.691-1.959z" stroke="#666" stroke-linecap="round" stroke-linejoin="round"/>
        <path d="M171.227 291.052c1.453-.815 1.636-3.153.408-5.221s-3.402-3.083-4.855-2.267c-1.454.816-1.636 3.153-.408 5.221s3.402 3.083 4.855 2.267z" fill="#121212"/>
        <path d="M171.227 291.052c1.453-.815 1.636-3.153.408-5.221s-3.402-3.083-4.855-2.267c-1.454.816-1.636 3.153-.408 5.221s3.402 3.083 4.855 2.267z" fill="#fff" fill-opacity=".2"/>
        <path d="M171.227 291.052c1.453-.815 1.636-3.153.408-5.221s-3.402-3.083-4.855-2.267c-1.454.816-1.636 3.153-.408 5.221s3.402 3.083 4.855 2.267zM172.235 262.822V253.6" stroke="#666" stroke-linecap="round" stroke-linejoin="round"/>
      </g>
      <g clip-path="url(#clip7)">
        <path d="M135.671 145.653l3.671 2.183c.799.476 2.193.415 3.115-.132l10.785-6.417c.48-.283.734-.646.757-.993v-16.077h-5.565l-6.201-3.69c-.8-.482-2.193-.415-3.115.132l-5.969 3.555h-5.577v16.08a.943.943 0 00.141.513.906.906 0 00.393.348l2.799 1.666" fill="#121212"/>
        <path d="M135.671 145.653l3.671 2.183c.799.476 2.193.415 3.115-.132l10.785-6.417c.48-.283.734-.646.757-.993v-16.077h-5.565l-6.201-3.69c-.8-.482-2.193-.415-3.115.132l-5.969 3.555h-5.577v16.08a.943.943 0 00.141.513.906.906 0 00.393.348l2.799 1.666" fill="#fff" fill-opacity=".2"/>
        <path d="M135.671 145.653l3.671 2.183c.799.476 2.193.415 3.115-.132l10.785-6.417c.48-.283.734-.646.757-.993v-16.077h-5.565l-6.201-3.69c-.8-.482-2.193-.415-3.115.132l-5.969 3.555h-5.577v16.08a.943.943 0 00.141.513.906.906 0 00.393.348l2.799 1.666" stroke="#121212" stroke-linecap="round" stroke-linejoin="round"/>
        <path d="M135.671 145.653l3.671 2.183c.799.476 2.193.415 3.115-.132l10.785-6.417c.48-.283.734-.646.757-.993v-16.077h-5.565l-6.201-3.69c-.8-.482-2.193-.415-3.115.132l-5.969 3.555h-5.577v16.08a.943.943 0 00.141.513.906.906 0 00.393.348l2.799 1.666" stroke="#fff" stroke-opacity=".6" stroke-linecap="round" stroke-linejoin="round"/>
        <path d="M145.557 129.782l-3.103 1.845c-.922.547-2.316.615-3.115.132l-11.23-6.681c-.799-.477-.698-1.304.224-1.845l10.785-6.423c.922-.55 2.315-.609 3.115-.148l11.232 6.697c.8.473.699 1.304-.223 1.845l-2.415 1.436" fill="#121212"/>
        <path d="M145.557 129.782l-3.103 1.845c-.922.547-2.316.615-3.115.132l-11.23-6.681c-.799-.477-.698-1.304.224-1.845l10.785-6.423c.922-.55 2.315-.609 3.115-.148l11.232 6.697c.8.473.699 1.304-.223 1.845l-2.415 1.436" fill="#fff" fill-opacity=".2"/>
        <path d="M145.557 129.782l-3.103 1.845c-.922.547-2.316.615-3.115.132l-11.23-6.681c-.799-.477-.698-1.304.224-1.845l10.785-6.423c.922-.55 2.315-.609 3.115-.148l11.232 6.697c.8.473.699 1.304-.223 1.845l-2.415 1.436" stroke="#121212" stroke-linecap="round" stroke-linejoin="round"/>
        <path d="M145.557 129.782l-3.103 1.845c-.922.547-2.316.615-3.115.132l-11.23-6.681c-.799-.477-.698-1.304.224-1.845l10.785-6.423c.922-.55 2.315-.609 3.115-.148l11.232 6.697c.8.473.699 1.304-.223 1.845l-2.415 1.436" stroke="#fff" stroke-opacity=".6" stroke-linecap="round" stroke-linejoin="round"/>
        <path d="M140.62 134.621v10.9" stroke="#121212" stroke-linecap="round" stroke-linejoin="round"/>
        <path d="M140.62 134.621v10.9" stroke="#fff" stroke-opacity=".6" stroke-linecap="round" stroke-linejoin="round"/>
        <path d="M140.789 126.464c2.386 0 4.321-1.15 4.321-2.57s-1.935-2.57-4.321-2.57c-2.387 0-4.321 1.15-4.321 2.57s1.934 2.57 4.321 2.57z" fill="#121212"/>
        <path d="M140.789 126.464c2.386 0 4.321-1.15 4.321-2.57s-1.935-2.57-4.321-2.57c-2.387 0-4.321 1.15-4.321 2.57s1.934 2.57 4.321 2.57z" fill="#fff" fill-opacity=".2"/>
        <path d="M140.789 126.464c2.386 0 4.321-1.15 4.321-2.57s-1.935-2.57-4.321-2.57c-2.387 0-4.321 1.15-4.321 2.57s1.934 2.57 4.321 2.57z" stroke="#A467DE" stroke-linecap="round" stroke-linejoin="round"/>
      </g>
    </g>
  </g>
  <defs>
    <clipPath id="clip0">
      <path fill="#fff" d="M0 0h440v420H0z"/>
    </clipPath>
    <clipPath id="clip1">
      <path fill="#fff" transform="matrix(.86604 .49997 -.86604 .49997 .073 -149)" d="M0 0h1075.77v517.378H0z"/>
    </clipPath>
    <clipPath id="clip2">
      <path fill="#fff" transform="translate(364 306)" d="M0 0h30v36H0z"/>
    </clipPath>
    <clipPath id="clip3">
      <path fill="#fff" transform="translate(273 254)" d="M0 0h30v36H0z"/>
    </clipPath>
    <clipPath id="clip4">
      <path fill="#fff" transform="translate(256.277 156)" d="M0 0h22v60H0z"/>
    </clipPath>
    <clipPath id="clip5">
      <path fill="#fff" transform="translate(330 258)" d="M0 0h22v60H0z"/>
    </clipPath>
    <clipPath id="clip6">
      <path fill="#fff" transform="translate(161.504 253)" d="M0 0h22v60H0z"/>
    </clipPath>
    <clipPath id="clip7">
      <path fill="#fff" transform="translate(126.312 115.257)" d="M0 0h29v34H0z"/>
    </clipPath>
    <linearGradient id="paint0_linear" x1="379" y1="312" x2="379.001" y2="257" gradientUnits="userSpaceOnUse">
      <stop stop-color="#A467DE"/>
      <stop offset=".279" stop-color="#A467DE" stop-opacity=".281"/>
      <stop offset="1" stop-color="#A467DE" stop-opacity="0"/>
    </linearGradient>
    <linearGradient id="paint1_linear" x1="288" y1="260" x2="288.001" y2="205" gradientUnits="userSpaceOnUse">
      <stop stop-color="#A467DE"/>
      <stop offset=".279" stop-color="#A467DE" stop-opacity=".281"/>
      <stop offset="1" stop-color="#A467DE" stop-opacity="0"/>
    </linearGradient>
    <linearGradient id="paint2_linear" x1="267.277" y1="161" x2="267.278" y2="106" gradientUnits="userSpaceOnUse">
      <stop stop-color="#A467DE"/>
      <stop offset=".279" stop-color="#A467DE" stop-opacity=".281"/>
      <stop offset="1" stop-color="#A467DE" stop-opacity="0"/>
    </linearGradient>
    <linearGradient id="paint3_linear" x1="341" y1="263" x2="341.001" y2="208" gradientUnits="userSpaceOnUse">
      <stop stop-color="#A467DE"/>
      <stop offset=".279" stop-color="#A467DE" stop-opacity=".281"/>
      <stop offset="1" stop-color="#A467DE" stop-opacity="0"/>
    </linearGradient>
    <linearGradient id="paint4_linear" x1="172.504" y1="258" x2="172.505" y2="203" gradientUnits="userSpaceOnUse">
      <stop stop-color="#A467DE"/>
      <stop offset=".279" stop-color="#A467DE" stop-opacity=".281"/>
      <stop offset="1" stop-color="#A467DE" stop-opacity="0"/>
    </linearGradient>
    <linearGradient id="paint5_linear" x1="141.312" y1="118.257" x2="141.313" y2="63.257" gradientUnits="userSpaceOnUse">
      <stop stop-color="#A467DE"/>
      <stop offset=".279" stop-color="#A467DE" stop-opacity=".281"/>
      <stop offset="1" stop-color="#A467DE" stop-opacity="0"/>
    </linearGradient>
  </defs>
</svg>
