<svg fill="none" xmlns="http://www.w3.org/2000/svg" viewBox="0 0 425 382">
  <g clip-path="url(#clip0)">
    <path d="M233.484 429.892L94.317 440.735 0 432.844v-96.307h233.484v93.355z" fill="#BAB7CB"/>
    <path d="M233.483 429.891L94.317 440.734v-90.66h139.166v79.817z" fill="#DDD5F9"/>
    <path d="M187.287 423.411l-16.682-7.892-13.923-8.79-8.212-8.341 9.496-53.125-7.379-.449-7.828-.578-.128.128 1.091-5.261-8.02-3.657-3.273 13.538-2.309.513-6.481 8.341v.642l1.669 48.313-3.85 19.57.064.641h-.064l.128 7.636 2.182 1.347h53.254l10.394-4.299-.129-8.277z" fill="#BAB7CB"/>
    <path d="M245.097 418.342l-16.682-7.892-13.923-8.79-8.213-8.341 9.496-53.126-7.314-.449-7.892-.577-.128.128 1.09-5.261-8.02-3.657-3.272 13.538-2.31.513-6.48 8.341v.642l1.668 48.313-3.786 19.569v.642l.065 7.635 2.181 1.348h53.318l10.33-4.235-.128-8.341zM151.871 317.994H.321v-159.57c0-5.646 4.62-10.266 10.266-10.266h141.348v169.836h-.064z" fill="#BAB7CB"/>
    <path d="M167.718 317.994H16.168V158.938c0-5.967 4.813-10.78 10.78-10.78H152.51c8.406 0 15.207 6.802 15.207 15.207v154.629z" fill="#DDD5F9"/>
    <path d="M128.002 182.678l-44.72-7.764-22.393 8.085-9.816 67.177 8.661 34.069 6.866 4.299 22.456 3.593.064.064v-.064l25.344 4.042v.065l3.786.577 25.472-53.767 5.325-42.026-21.045-18.35z" fill="#BAB7CB"/>
    <path d="M221.485 346.866l-71.989-5.839-5.903-55.563h77.892v61.402z" fill="#D6C9F4"/>
    <path d="M233.484 346.866h-25.985v-54.024c0-4.106 3.336-7.378 7.378-7.378h11.998a6.599 6.599 0 016.609 6.608v54.794z" fill="#F0EBFF"/>
    <path d="M185.431 228.607l24.913-7.776-4.293-8.847-24.622 9.084 4.002 7.539z" fill="#180249"/>
    <path d="M222.056 194.342l20.385-5.094 6.226 12.692-16.444 13.181-26.174 12.748-8.052-2.035-5.115-10.446 3-8.299 26.174-12.747z" fill="#36176E"/>
    <path d="M246.063 196.633l-9.982 7.65-29.77 14.468-4.72 1.026-6.198.75" stroke="#180249" stroke-width=".901" stroke-miterlimit="10"/>
    <path d="M210.472 215.457l1.012 2.077 16.438-8.011-1.011-2.077-16.439 8.011z" fill="#7215CC"/>
    <path d="M232.687 213.979l3.394-9.696-13.17-9.465" stroke="#7215CC" stroke-width=".901" stroke-miterlimit="10"/>
    <path d="M196.754 223.221l8.088 1.573 27.213-13.256 15.188-12.404 1.424 2.806-16.7 13.251-25.918 12.678-8.053-2.035-1.242-2.613z" fill="#180249"/>
    <path d="M194.282 218.282l-1.4-2.893 3-8.299 26.174-12.748 20.386-5.093 1.305 2.725-19.794 4.836-26.342 12.841-3.329 8.631z" fill="#7215CC"/>
    <path d="M255.442 174.907l-2.098 6.102 6.174-4.34 5.663 1.314 1.084 1.673-4.886-.058-2.479 2.271 2.729-1.823 5.287.642 1.185 1.984-4.579.359-2.855 1.599 3.168-1.039 5.137.505 1.154 1.928-4.367.607-3.128 1.899 3.529-1.314 4.868.288.432.641-3.314 2.223-2.078 1.017-17.655 10.624-1.337-2.781-3.033-6.464-1.713-3.453 6.621-10.106 3.669-5.659 2.822 1.361z" fill="#E3B9B7"/>
    <path d="M253.344 181.01l6.173-4.34 1.861 2.929-2.317 2.033 2.568-1.586 1.892 2.985-2.854 1.599 3.168-1.039 1.924 3.041-2.674 1.791 3.075-1.207 1.986 3.153.125.224-2.203.793-17.656 10.624-1.337-2.781-3.032-6.465-1.713-3.453 6.62-10.106 1.935.829 2.459.976z" fill="#36176E"/>
    <path d="M247.076 199.228l16.303-8.837 3.346-2.168 1.547 2.369-2.203.793-17.656 10.624-1.337-2.781z" fill="#180249"/>
    <path d="M243.988 192.795l6.898-12.762-1.935-.828-6.621 10.106 1.658 3.484z" fill="#7215CC"/>
    <path d="M116.197 298.425l-1.091 27.461 8.469 10.33 34.455 5.967 56.975 3.593 5.582-5.133-2.566-21.814-80.78-19.57-14.885 1.797-6.159-2.631z" fill="#36176E"/>
    <path d="M220.587 340.323v.32l-5.582 5.133-56.975-3.528-34.455-6.032-8.469-10.33 1.091-27.461 3.913 1.668-.834 21.623 8.47 10.33 34.39 5.967 56.976 3.593 1.475-1.283z" fill="#180249"/>
    <path d="M138.846 302.596l-8.79 8.148 2.759 23.612M142.824 336.153l-1.412-20.147 62.044 11.485 1.733 15.912" stroke="#180249" stroke-width="1.052" stroke-miterlimit="10"/>
    <path d="M176.252 311.899l4.684 11.421-13.602 16.361" stroke="#180249" stroke-width="1.052" stroke-miterlimit="10"/>
    <path d="M203.456 330.313a2.822 2.822 0 10.001-5.647 2.822 2.822 0 00-.001 5.647z" fill="#7215CC"/>
    <path d="M213.337 345.969l.064-13.025 5.647-.577" stroke="#7215CC" stroke-width="1.052" stroke-miterlimit="10"/>
    <path d="M218.022 318.829l2.566 21.814-2.951 2.695-2.503-21.173-80.715-19.569-14.885 1.796-3.529-1.476.192-4.491 6.16 2.631 14.885-1.797 80.78 19.57z" fill="#7215CC"/>
    <path d="M117.044 213.35l-.455-5.212.057-.031 5.393-11.969 15.792-7.339 38.951 15.064 17.216 13.721-6.325 14.721-25.491-.066-45.138-18.889z" fill="#36176E"/>
    <path d="M119.677 213.107l9.935-6.321 58.305 25.025M149.434 196.641l-6.727 15.737" stroke="#180249" stroke-width="1.122" stroke-miterlimit="10"/>
    <path d="M122.038 196.138l15.152-2.27 51.529 19.551-11.938-9.556-38.981-15.121-15.762 7.396z" fill="#7215CC"/>
    <path d="M187.672 232.305l-24.066-3.664-44.024-18.029-1.965-4.77-.973 2.265.399 5.243 45.138 18.889 25.491.066z" fill="#180249"/>
    <path d="M157.709 207.893l-4.491 40.55-2.503-5.389 4.812-37.727 2.182 2.566z" fill="#240E56"/>
    <path d="M198.644 330.376l-4.555 18.736 9.175.962 3.336-16.04-7.956-3.658z" fill="#180249"/>
    <path d="M192.999 345.069l-6.48 8.341 2.053 58.515 7.186-.384 15.591-18.222 9.432-53.062-15.078-1.091-12.704 5.903z" fill="#36176E"/>
    <path d="M205.702 399.029l12.255-57.425 2.631.129-9.239 51.585-5.647 5.711z" fill="#7215CC"/>
    <path d="M214.557 360.469l-11.228-.77-15.206 23.419" stroke="#180249" stroke-width="1.122" stroke-miterlimit="10"/>
    <path d="M215.968 350.074l-3.721-.577 1.283-9.753" stroke="#7215CC" stroke-width="1.122" stroke-miterlimit="10"/>
    <path d="M186.583 355.848l7.507-9.367 11.934-5.903 11.998.77.257-1.283-12.576-.899-12.704 5.903-6.48 8.341.064 2.438z" fill="#180249"/>
    <path d="M198.003 343.273l-7.507 9.945 1.284 49.404-3.658 19.057v6.672l2.374 2.502-3.849.065-2.182-1.348-.064-8.277 3.914-20.082-1.797-48.442 6.481-8.341 5.004-1.155zM142.76 335.446l-4.556 18.735 9.175.962 3.337-16.04-7.956-3.657z" fill="#180249"/>
    <path d="M137.114 350.138l-6.48 8.341 2.053 58.515 7.186-.385 15.591-18.221 9.56-53.126-15.206-1.027-12.704 5.903z" fill="#36176E"/>
    <path d="M149.818 404.098l12.575-58.964 2.631.128-9.56 53.126-5.646 5.71z" fill="#7215CC"/>
    <path d="M158.672 365.537l-11.228-.77-15.206 23.419" stroke="#180249" stroke-width="1.122" stroke-miterlimit="10"/>
    <path d="M160.084 355.144l-3.721-.577 1.283-9.753" stroke="#7215CC" stroke-width="1.122" stroke-miterlimit="10"/>
    <path d="M142.118 348.342l-7.507 9.945 1.283 49.405-3.657 19.056v6.672l2.374 2.503-3.85.064-2.181-1.348-.064-8.277 3.913-20.082-1.796-48.442 6.48-8.341 5.005-1.155zM125.885 185.821l-7.507.577-8.02-7.699 7.635-15.72 15.398 7.571-7.506 15.271z" fill="#180249"/>
    <path d="M187.352 132.567l-14.693-26.114-36.957-10.586 5.839 14.179-27.526 4.363 22.842 26.05-16.682 2.566 39.972 32.145 45.042-31.888 1.283-6.288-19.12-4.427z" fill="#E3B9B7"/>
    <path d="M148.213 130.579h23.933" stroke="#000" stroke-width="3.101" stroke-miterlimit="10"/>
    <path d="M163.034 129.936l-.321 7.828h9.303l.129-7.764-9.111-.064zM165.729 157.846l-.321-3.079 14.95 6.095-3.208 2.246-11.421-5.262z" fill="#000"/>
    <path d="M205.382 86.692l-32.723-19.89 8.919-13.795-64.226 10.009-3.336-13.217-23.227 28.359-10.394-8.534-.449 26.243-11.164 1.283 10.843 28.808-12.896 2.053 28.36 24.318-8.085 1.283 35.866 21.558h37.278l-39.973-32.145 16.682-2.566-22.841-26.05 27.525-4.363-5.839-14.18 36.957 10.587 32.723-19.761z" fill="#36176E"/>
    <path d="M205.381 86.691l-32.722-19.89 8.918-13.794-64.225 10.009-3.337-13.218L111 68.79l53.511-.641-13.924 10.971 54.794 7.571z" fill="#7215CC"/>
    <path d="M116.261 154.446l-8.213 2.759 14.821 17.965-35.866-21.558 8.085-1.284-28.36-24.317 12.897-2.053L68.78 97.15l29.066 34.069-8.919.899 27.333 22.328z" fill="#180249"/>
    <path d="M135.702 95.867l31.696 14.244 11.677 22.328 17.259 2.181-8.982-2.053-14.693-26.114-36.957-10.586z" fill="#FFEAE1"/>
    <path opacity=".44" d="M121.009 113.254l25.985 28.616-15.27 2.887 33.813 26.563-5.39 3.85-39.972-32.145 16.682-2.566-22.842-26.05 6.994-1.155z" fill="#D38484"/>
    <path d="M151.55 122.879l19.248 1.412" stroke="#000" stroke-width="2.067" stroke-miterlimit="10"/>
    <path d="M125.821 92.466c-1.861.257-3.785.45-5.518 1.027-1.732.577-3.4 1.347-4.748 2.438l-.321-1.604c3.337.449 6.352 1.796 9.24 3.144l2.245 1.026-2.245 1.155c-2.246 1.155-4.492 2.31-6.545 3.657-2.117 1.348-4.042 2.888-6.095 4.428l-1.091-1.99a37.612 37.612 0 019.175-1.539c3.08-.193 6.224.128 9.175.834-3.079 0-6.095.256-9.046.705-2.952.45-5.839 1.284-8.662 2.246l-5.326 1.797 4.235-3.786a56.734 56.734 0 016.159-4.812 51.21 51.21 0 016.93-3.657v2.181c-2.823-1.411-5.582-2.823-8.534-3.528l-2.117-.514 1.732-1.09c1.669-1.027 3.594-1.861 5.583-2.054 1.989-.32 3.913-.256 5.774-.064z" fill="#7215CC"/>
    <path d="M196.334 134.62l-.128 14.565 8.982-5.903 1.284-6.288-10.138-2.374zM114.272 301.44l-9.047-3.015H71.797l7.057 3.015h35.418zM78.854 301.441h32.338l5.517 3.913v12.191l-9.239 5.582-22.007-.321-6.609-21.365z" fill="#36176E"/>
    <path d="M80.715 301.441l6.93 21.365h-2.182l-6.609-21.365h1.86zM67.241 301.44l-5.197-3.015h54.281l7.057 3.015h-56.14z" fill="#180249"/>
    <path d="M82.063 308.948h36.187" stroke="#180249" stroke-width="1.122" stroke-miterlimit="10"/>
    <path d="M107.214 305.611H92.906v6.48h14.308v-6.48z" fill="#7215CC"/>
    <path d="M103.75 325.758h3.785l11.228-6.994v-14.179l-2.694-3.208-4.877.064 5.518 3.914v12.19l-9.239 5.582h-3.593l-.128 2.631z" fill="#180249"/>
    <path d="M150.716 243.053l5.325-42.026-21.045-18.35-44.72-7.763-22.329 8.084-9.88 67.177 8.661 34.07 6.866 4.299 51.65 8.277 25.472-53.768z" fill="#36176E"/>
    <path d="M73.593 288.544l2.31-33.878 6.993-11.741 8.598-53.254-8.213-11.806-15.334 5.133-9.881 67.177 8.662 34.07" fill="#180249"/>
    <path d="M78.213 212.512l20.917 12.319 49.404 7.25" stroke="#180249" stroke-width="1.121" stroke-miterlimit="10"/>
    <path d="M125.115 196.279l-25.472-3.849-9.368-17.516" stroke="#180249" stroke-width="1.122" stroke-miterlimit="10"/>
    <path d="M126.462 226.82l-.578-30.476M134.995 182.677l11.228 16.81-21.109-3.208M121.843 246.518l-12.32 47.928" stroke="#180249" stroke-width="1.121" stroke-miterlimit="10"/>
    <path d="M141.219 241.449l-18.03 5.518-14.757-10.523 3.337-21.815 17.58-5.646 15.142 10.587-3.272 21.879z" stroke="#7215CC" stroke-width="1.122" stroke-miterlimit="10"/>
    <path d="M133.583 234.455l-8.661 2.695-7.122-5.069 1.604-10.522 8.469-2.695 7.25 5.133-1.54 10.458z" fill="#7215CC"/>
    <path d="M73.785 262.687l7.764 1.219 10.009 1.475 16.746-12.96 21.494 3.208 5.711 13.73M96.178 292.201l-4.812-12.512-7.571-1.155-9.432-1.411" stroke="#180249" stroke-width="1.121" stroke-miterlimit="10"/>
    <path d="M121.458 296.243l24.188-53.639 5.326-41.705-15.976-18.222 21.045 18.35-5.326 42.026-25.472 53.767" fill="#7215CC"/>
    <path d="M108.499 292.144l-17.117-2.663-1.46 9.383 17.117 2.662 1.46-9.382z" fill="#180249"/>
    <path d="M108.507 292.172l-4.311-.671-1.459 9.383 4.311.67 1.459-9.382zM62.236 298.875l-2.117 27.461 8.084 10.587 34.198 7.314 56.783 5.646 5.775-4.94-1.733-21.879-79.945-22.521-14.95 1.219-6.095-2.887z" fill="#36176E"/>
    <path d="M164.959 344.622v.321l-5.775 4.94-56.783-5.646-34.198-7.314-8.084-10.587 2.117-27.461 3.85 1.861-1.668 21.558 8.084 10.587 34.198 7.314 56.783 5.646 1.476-1.219z" fill="#180249"/>
    <path d="M84.693 303.879l-9.111 7.828 1.925 23.739M87.388 337.565l-.642-20.147 61.595 13.73 1.155 15.977" stroke="#180249" stroke-width="1.052" stroke-miterlimit="10"/>
    <path d="M121.714 314.594l4.234 11.549-14.115 15.848" stroke="#180249" stroke-width="1.052" stroke-miterlimit="10"/>
    <path d="M148.34 333.971a2.822 2.822 0 10.001-5.645 2.822 2.822 0 00-.001 5.645z" fill="#7215CC"/>
    <path d="M157.581 350.011l.449-13.024 5.71-.385" stroke="#7215CC" stroke-width="1.052" stroke-miterlimit="10"/>
    <path d="M163.226 323.063l1.733 21.88-3.016 2.566-1.732-21.237-79.946-22.521-14.95 1.219-3.4-1.604.321-4.491 6.095 2.887 14.886-1.219 80.009 22.52z" fill="#7215CC"/>
    <path d="M88.287 287.646H.32v67.883h87.966v-67.883z" fill="#BAB7CB"/>
    <path d="M102.85 350.074H73.657v-54.601a7.886 7.886 0 017.892-7.892h13.474a7.887 7.887 0 017.892 7.892v54.601h-.065z" fill="#DDD5F9"/>
    <path opacity=".62" d="M83.282 232.915l25.921 15.463 22.264 4.684 1.476-1.476 11.934 3.786.834-2.631-61.339-24.574-1.09 4.748z" fill="#180249"/>
    <path opacity=".51" d="M87.901 200.322l25.921 15.463 24.895 25.729 10.33 4.106.642-5.454-8.534-2.694.963-2.246-16.233-20.917-36.572-19.89-1.412 5.903z" fill="#180249"/>
    <path d="M126.673 250.074l32.261 4.622-.082-12.219-32.601-3.048.422 10.645z" fill="#180249"/>
    <path d="M186.314 231.242l25.641 5.223.105 17.578-25.572 5.952-36.252.296-7.924-6.597-.081-14.508 7.818-7.71 36.265-.234z" fill="#36176E"/>
    <path d="M212.038 246.719l-15.328 3.189-41.222.306-5.913-1.437-7.297-2.47" stroke="#180249" stroke-width="1.122" stroke-miterlimit="10"/>
    <path d="M161.884 248.66l.02 2.888 22.777-.154-.02-2.888-22.777.154z" fill="#7215CC"/>
    <path d="M187.734 259.026l8.976-9.118-9.743-17.684" stroke="#7215CC" stroke-width="1.122" stroke-miterlimit="10"/>
    <path d="M142.302 250.032l8.289 6.132 37.762-.271 23.722-5.714-.015 3.863-25.823 6.002-36.001.247-7.924-6.598-.01-3.661z" fill="#180249"/>
    <path d="M142.242 243.174l-.011-3.988 7.818-7.71 36.264-.234 25.642 5.222.036 3.788-24.862-5.247-36.528.221-8.359 7.948z" fill="#7215CC"/>
    <path d="M233.489 226.345l-5.363 6.239 4.075 4.028 6.341 1.614 8.594-.21.956 2.165-8.092 1.745-5.323-.443 5.9 3.338 2.705.441-2.178 2.201-1.799-.164-7.649-2.269 3.657 2.858 3.572 1.683-1.659 1.721-2.264.144-4.824-1.616 3.829 2.862-1.548 1.094-12.041-1.655-8.444 1.946.014-3.863.004-8.833.015-4.844 12.839-7.796 7.175-4.375 1.508 1.989z" fill="#E3B9B7"/>
    <path d="M224.667 228.694l3.962 4.444 3.509 3.487 4.479 1.135-.719 3.938-1.271-.139 1.157.554-.631 4.051-3.548-1.058 3.673 2.669-1.713 3.22-3.435-1.146 2 1.498-.856 2.264-11.022-1.465-8.457 1.884.034-17.541 12.838-7.795z" fill="#36176E"/>
    <path d="M211.814 241.333l14.551-10.688-1.697-1.952-12.839 7.796-.015 4.844z" fill="#7215CC"/>
    <path d="M215.638 243.777s6.205-3.659 8.559-3.671c1.434-.024 5.195 2.104 5.195 2.104l-1.059 3.876s-3.044-2.141-4.264-2.356c-2.038-.378-8.268 1.192-8.268 1.192l-.226-1.133.063-.012z" fill="#E3B9B7"/>
    <path d="M211.709 250.318l8.885-1.707 10.832 3.793-.152 1.208-11.022-1.465-8.557 2.034.014-3.863z" fill="#180249"/>
    <path d="M80.267 192.816l-4.363 2.823v.064l-6.032 11.613 4.043 17.003 35.994 21.173 21.43 4.941 7.635-14.052-15.912-19.954-42.795-23.611z" fill="#36176E"/>
    <path d="M87.325 228.553l10.715-2.438-2.567-12.64" stroke="#7215CC" stroke-width="1.122" stroke-miterlimit="10"/>
    <path d="M69.873 207.38l7.57 13.281 47.352 28.295-14.885-3.465-35.995-21.173-4.042-16.938z" fill="#180249"/>
    <path d="M81.743 194.997l1.155 11.677 55.82 30.22" stroke="#180249" stroke-width="1.122" stroke-miterlimit="10"/>
    <path d="M138.975 236.381l-17.837-16.618-41.448-23.291-4.94 1.412 1.154-2.182 4.363-2.887 42.796 23.612 15.912 19.954z" fill="#7215CC"/>
    <g opacity=".19" fill="#FF007F">
      <path opacity=".19" d="M253.373 166.188h-3.85v8.726h3.85v-8.726zM253.373 153.933h-3.85v8.726h3.85v-8.726zM261.458 162.659h-8.085v3.529h8.085v-3.529zM249.524 162.659h-8.085v3.529h8.085v-3.529z"/>
    </g>
    <path opacity=".43" d="M371.103 224.982l-78.534 16.938c-10.779.963-19.569-6.993-19.569-17.773v-36.764c0-10.779 8.79-20.339 19.569-21.366l78.534-16.938c10.779-.963 19.569 6.993 19.569 17.772v36.765c-.064 10.843-8.79 20.403-19.569 21.366z" fill="#FCB7FF"/>
    <path opacity=".7" fill="#FCB7FF" d="M373.116 156.754l-81.307 17.282.047 5.72 81.307-17.283zM373.181 165.039l-27.614 5.87.025 3 27.614-5.87zM313.446 206.462l-27.614 5.87.033 4 27.614-5.87zM349.377 199.403l-27.614 5.87.033 4 27.614-5.87zM382.099 191.705l-27.614 5.87.033 4 27.614-5.87zM372.614 171L345 176.869l.096 11.675 27.614-5.869-.096-11.675zM313.483 214.84l-27.614 5.87.096 11.675 27.614-5.869-.096-11.676zM349.414 207.782l-27.614 5.869.096 11.676 27.614-5.87-.096-11.675zM382.136 200.084l-27.614 5.869.095 11.675 27.615-5.869-.096-11.675z"/>
  </g>
  <defs>
    <clipPath id="clip0">
      <path fill="#fff" d="M0 0h425v382H0z"/>
    </clipPath>
  </defs>
</svg>
