<svg fill="none" xmlns="http://www.w3.org/2000/svg" viewBox="0 0 425 375">
  <g clip-path="url(#clip0)">
    <path d="M326.242 143.5c-.22.585-.512.952-.512.952l-1.465 4.686s-6.883 7.542-18.159 9.226c-11.277 1.611-20.063-2.343-24.53-2.49-.22 0-8.86-.951-9.153-.951-4.393-.074-9.738.292-12.741 4.686-1.611 2.416-4.832 3.368-2.636-2.636 2.197-6.005 10.837-10.178 13.986-10.471 5.785-.439 28.557.805 35.952-.806 7.396-1.684 15.743-5.271 15.743-5.271.806-.806 3.369-1.685 3.881 0 .366.951 0 2.196-.366 3.075z" fill="#82470D"/>
    <path d="M257.413 155.289c1.977-2.636 3.881-5.053 6.663-6.737 2.563-1.537 6.078-2.343 8.934-2.929 3.88-.732 15.01-.512 18.964-.219 6.664.439 17.135-.659 23.578-2.197-3.588 1.611-10.178 3.295-13.033 3.588-7.616.806-19.551 2.563-27.02 3.002-1.83.147-3.881 1.392-5.565 2.197-2.123 1.025-4.613 2.197-5.784 3.368-1.611 1.611-3.076 2.343-4.394 4.247-.586.806-1.171 1.684-1.391 2.636-.293 1.611.586 3.588-.512 4.76-.66.659-1.831.732-2.49.073-.879-.805-.366-1.538-.293-2.49.073-1.025-.22-2.05-.146-3.075.219-2.27 1.171-4.467 2.489-6.224z" fill="#F4C951"/>
    <path d="M265.081 151.572c3.583-2.354 6.055-4.919 5.522-5.73-.533-.812-3.869.439-7.452 2.793-3.582 2.354-6.054 4.919-5.521 5.73.533.811 3.869-.439 7.451-2.793zM289.043 147.193c2.783-.206 5.002-.864 4.958-1.468-.045-.605-2.338-.929-5.12-.723-2.783.206-5.003.864-4.958 1.469.045.605 2.337.928 5.12.722z" fill="#D1351C"/>
    <path d="M326.316 143.5c-.22.585-.513.952-.513.952l-1.464 4.686s-6.883 7.542-18.16 9.226c-11.276 1.611-28.41-3.295-32.95-3.441h-.732c.366-.074 21.307 1.976 27.385 1.391 1.831-.22.22-3.149 1.391-3.442 3.661-.805 4.101-.512 4.247-2.05.147-1.611.44-2.27.44-2.27l5.931-1.245h2.636v-2.27l6.809-1.171 4.98-.366z" fill="#663407"/>
    <path d="M322.581 190.07l5.418-20.063v-26.141l-7.103.952-3.295 5.638-9.226 2.197-.366 4.393 4.247-2.196-6.151 2.196v4.76l8.421 4.393-2.27-3.075-5.125 11.13" fill="#36176E"/>
    <path d="M311.817 148.479l-2.123.293-2.636 1.977v2.196l4.393-1.025" fill="#E3B9B7"/>
    <path d="M198.615 185.823l-7.616 4.539-12.521-4.027v-20.502h20.137v19.99z" fill="#180249"/>
    <path d="M238.814 116.774l-19.258-29.436-44.08-9.519 7.981 16.11-31.925 7.248 28.777 28.777-19.331 4.32 49.279 34.488 50.304-40.858 1.025-7.469-22.772-3.661z" fill="#E3B9B7"/>
    <path d="M249.578 118.531l.952 16.988 10.031-7.615 1.025-7.469-12.008-1.904z" fill="#36176E"/>
    <path fill-rule="evenodd" clip-rule="evenodd" d="M220.998 117.418l-28.045 1.904-.246-3.632 28.044-1.904.247 3.632z" fill="#000"/>
    <path d="M210.11 115.602l.293 9.153 10.91-.732-.512-9.007-10.691.586zM216.042 155.801l-.659-3.588 19.844-3.734-6.005 4.833-13.18 2.489z" fill="#000"/>
    <path d="M256.314 61.565l-39.833-20.722 9.372-16.841-74.468 16.768-4.906-15.231-24.969 35-12.814-9.152 1.465 30.754-12.96 2.416 14.937 32.877-14.938 3.368 35.147 26.287-9.372 2.124 43.641 22.479 43.641-2.928-49.279-34.489 19.33-4.32-28.776-28.776 31.925-7.25-7.981-16.108 44.08 9.519 36.758-25.775z" fill="#36176E"/>
    <path d="M256.314 61.563l-39.833-20.722L225.853 24l-74.468 16.768-4.906-15.23-2.05 22.479 62.606-4.979-15.45 13.985 64.729 4.54z" fill="#7215CC"/>
    <path d="M157.317 147.893l-9.446 3.954 18.745 19.843-43.641-22.479 9.372-2.124L97.2 120.8l14.938-3.368L97.2 84.555l36.759 37.637-10.398 1.757 33.756 23.944z" fill="#180249"/>
    <path d="M175.476 77.82l38.296 14.204 15.377 25.262 20.429 1.245-10.764-1.757-19.257-29.436-44.081-9.519z" fill="#FFEAE1"/>
    <path opacity=".44" d="M159.587 99.347l32.73 31.486-17.647 4.613 41.665 28.411-6.078 4.905-49.279-34.488 19.331-4.32-28.777-28.776 8.055-1.831z" fill="#D38484"/>
    <path fill-rule="evenodd" clip-rule="evenodd" d="M218.812 109.639l-22.699-.219.023-2.427 22.699.22-.023 2.426z" fill="#000"/>
    <path d="M163.687 74.67c-2.197.44-4.393.805-6.371 1.611-1.977.805-3.88 1.83-5.418 3.222l-.513-1.83c3.954.219 7.616 1.61 11.057 2.928l2.709 1.025-2.562 1.538c-2.563 1.537-5.053 3.075-7.396 4.833-2.343 1.684-4.54 3.66-6.737 5.71l-1.464-2.27c3.441-1.317 7.029-2.123 10.691-2.562a38.349 38.349 0 0110.837.22c-3.588.22-7.103.805-10.545 1.538-3.441.732-6.736 1.977-9.958 3.295l-6.077 2.563 4.613-4.833a61.435 61.435 0 016.883-6.15 57.811 57.811 0 017.834-4.834l.147 2.563c-3.441-1.464-6.736-2.929-10.251-3.515l-2.49-.439 1.977-1.391c1.904-1.392 4.101-2.417 6.371-2.856 2.123-.44 4.393-.513 6.663-.366z" fill="#7215CC"/>
    <path d="M190.779 389.97l7.102-35.953 9.3-29.801h11.422l8.275 3.514 7.834 25.115 4.028 36.466-9.812 68.463-17.208-1.318-12.814-7.981-8.127-58.505z" fill="#36176E"/>
    <path d="M213.258 327.656l-8.493 28.045-7.25 34.634 7.176 61.727-5.784-3.588-8.128-58.505 7.103-35.952 9.226-29.875 6.15 3.514z" fill="#180249"/>
    <path d="M225.779 457.701l8.86-69.488-4.759-35.367-7.396-25.629 4.393.513 7.762 25.116 4.1 36.465-9.811 68.464-3.149-.074z" fill="#7215CC"/>
    <path d="M204.252 355.702h11.569l-2.416 99.217" stroke="#180249" stroke-width="1.318" stroke-miterlimit="10"/>
    <path d="M216.261 327.656l-10.691-3.514h-39.247l8.274 3.514h41.664z" fill="#36176E"/>
    <path d="M174.596 327.656h38.003l6.516 4.614v14.351l-10.91 6.517-25.774-.293-7.835-25.189z" fill="#36176E"/>
    <path d="M176.866 327.656l8.054 25.189h-2.489l-7.835-25.189h2.27z" fill="#180249"/>
    <path d="M161.05 327.656l-6.151-3.514 63.704.073 8.274 3.515-65.827-.074z" fill="#180249"/>
    <path d="M178.404 336.516h42.469" stroke="#180249" stroke-width="1.318" stroke-miterlimit="10"/>
    <path d="M207.913 332.637h-16.842v7.615h16.842v-7.615z" fill="#7215CC"/>
    <path d="M203.812 356.287l4.467-.074 13.18-8.201.073-16.621-3.222-3.735h-5.711l6.517 4.614v14.351l-10.911 6.517-4.173.073-.22 3.076z" fill="#180249"/>
    <path d="M138.571 389.97l7.029-35.953 9.373-29.801h11.349l8.348 3.514 7.762 25.116 4.1 36.465-9.519 66.706-17.866-1.171-12.448-6.371-8.128-58.505z" fill="#36176E"/>
    <path d="M161.05 327.656l-8.494 28.045-7.322 34.634 7.103 61.142-5.638-3.002-8.128-58.506 7.029-35.952 9.3-29.875 6.15 3.514z" fill="#180249"/>
    <path d="M173.938 455.797l8.494-67.584-4.833-35.367-7.395-25.628 4.466.512 7.762 25.116 4.1 36.465-9.519 66.706-3.075-.22z" fill="#7215CC"/>
    <path d="M152.556 355.702h11.569l-3.075 99.217M154.021 346.474h12.374l5.858-10.69" stroke="#180249" stroke-width="1.318" stroke-miterlimit="10"/>
    <path d="M238.961 347.426l-10.471-24.09h-74.395l-1.977 5.199-6.736 21.601-7.249 36.757 3.221 23.066 2.637 49.425-7.835 10.032c-1.025 3.954 2.123 58.139 2.123 58.139l27.679-9.519 11.422-63.704 6.371-44.373 3.368-23.798 4.833-22.772-.513 23.504 5.858 73.297-7.835 9.226s1.684 43.934 0 48.62 2.124 9.519 2.124 9.519l6.297-2.123 21.381-7.323 11.057-61.873 10.104-70.002-1.464-38.808z" fill="#010005"/>
    <path d="M181.187 385.722l-3.222 24.676-6.736 44.081-10.984 65.681 5.858-1.977 11.423-63.704 6.37-44.374 3.368-23.797 1.026-4.979.366-17.793-7.469 22.186zm57.773-38.296l-10.471-24.163h-3.441l9.079 24.896.952 38.662-10.69 69.562-10.837 63.704 5.857-1.977 11.057-61.874 10.105-70.001-1.611-38.809z" fill="#444"/>
    <path d="M214.505 203.616l1.537-5.931 10.691-11.057 20.356-1.977 37.197 32.072 13.62 21.894-12.741 13.839-28.191-10.178-42.469-38.662z" fill="#36176E"/>
    <path d="M217.506 204.494l13.473-3.148 54.624 50.597" stroke="#180249" stroke-width="1.317" stroke-miterlimit="10"/>
    <path d="M256.9 197.977l-13.62 14.718" stroke="#180249" stroke-width="1.318" stroke-miterlimit="10"/>
    <path d="M226.805 186.555l17.573 3.441 49.353 41.884-9.446-15.157-37.124-32.072-20.356 1.904z" fill="#7215CC"/>
    <path d="M285.164 252.455l-25.189-13.546-41.591-37.271-.366-6.004-1.977 2.05-1.537 5.931 42.469 38.662 28.191 10.178z" fill="#180249"/>
    <path d="M242.036 247.843l-1.245-49.792-27.605-17.5-53.307-1.171-24.529 13.326.366 79.74 16.109 38.003 8.713 3.734 61.361.513 20.137-66.853z" fill="#36176E"/>
    <path d="M160.539 314.184l-15.304-42.177 6.078-14.791.512-63.265-8.201-5.492-8.274 4.248.366 79.739 16.109 38.003" fill="#180249"/>
    <path d="M144.576 225.144l26.433 10.618h66.926M196.272 198.052h-22.48L159.88 179.38M203.155 233.272l-6.005-35.293M208.354 180.551l12.96 17.5h-25.042M201.324 256.923l-5.858 57.774" stroke="#180249" stroke-width="1.318" stroke-miterlimit="10"/>
    <path fill-rule="evenodd" clip-rule="evenodd" d="M201.763 211.009l20.137 9.992v26.744l-20.583 9.913-19.617-9.922v-26.734l20.063-9.993zm.001 1.471l-18.746 9.338v25.108l18.313 9.262 19.251-9.271v-25.099l-18.818-9.338z" fill="#7215CC"/>
    <path d="M211.136 240.594l-9.592 4.613-9.153-4.613v-12.521l9.373-4.613 9.372 4.613v12.521z" fill="#7215CC"/>
    <path d="M148.237 284.162h21.235l17.134-18.013h25.554l13.547 22.113M179.503 314.477l-7.762-13.692h-17.647M213.48 314.257l5.418-14.499h3.295" stroke="#180249" stroke-width="1.318" stroke-miterlimit="10"/>
    <path d="M217.433 314.696l18.599-66.56-1.172-49.279-21.674-18.306 27.605 17.5 1.245 49.792-20.136 66.853" fill="#7215CC"/>
    <path d="M137.473 197.026l-12.814 8.713-1.391 67.878" stroke="#180249" stroke-width="1.314" stroke-miterlimit="10"/>
    <path d="M197.956 314.256H177.6v11.203h20.356v-11.203z" fill="#180249"/>
    <path d="M198.029 314.256h-5.126v11.203h5.126v-11.203z" fill="#36176E"/>
    <path d="M127.075 216.357h-4.832l-2.344 6.077 2.344 6.078h4.832l2.343-6.078-2.343-6.077z" fill="#7215CC"/>
    <path d="M146.699 195.122l-5.418-2.929-15.377.367-15.23 13.619-1.758 49.06 6.883 24.895h18.819l11.642-27.605.439-57.407z" fill="#36176E"/>
    <path d="M113.749 222.362l8.494 9.738 11.642-9.738" stroke="#7215CC" stroke-width="1.318" stroke-miterlimit="10"/>
    <path d="M125.83 192.56l-9.445 15.231-2.71 64.729-4.759-17.281 1.684-49.059 15.23-13.62z" fill="#180249"/>
    <path d="M145.308 197.832l-11.423 7.762.073 74.541" stroke="#180249" stroke-width="1.318" stroke-miterlimit="10"/>
    <path d="M134.617 280.135l7.176-27.752.805-55.869-4.173-4.247 2.856-.073 5.418 2.928-.439 57.407-11.643 27.606z" fill="#7215CC"/>
    <path d="M118.581 279.696l-1.025 38.149 14.205-1.757-.879-38.369-12.301 1.977z" fill="#180249"/>
    <path d="M146.699 346.622l-.659 30.608-20.503 2.563-10.397-28.997-5.272-42.25 6.59-10.178 16.841-2.05 10.105 8.055 3.295 42.249z" fill="#36176E"/>
    <path d="M134.105 378.694l-5.785-17.354-6.004-48.108.878-7.029 1.904-8.86" stroke="#180249" stroke-width="1.318" stroke-miterlimit="10"/>
    <path d="M125.08 320.438l-3.343.415 3.299 26.596 3.343-.415-3.299-26.596z" fill="#7215CC"/>
    <path d="M116.458 352.041l11.862 9.299 19.258-13.839" stroke="#7215CC" stroke-width="1.318" stroke-miterlimit="10"/>
    <path d="M120.705 297.855l-6.005 10.471 5.492 44.007 9.885 26.873-4.54.586-10.471-29.363-5.198-41.883 6.59-10.178 4.247-.513z" fill="#180249"/>
    <path d="M128.759 296.904l4.54-.586 10.105 8.055 3.295 42.249-.659 30.608-4.394.585 2.71-29.728-5.272-42.543-10.325-8.64z" fill="#7215CC"/>
    <path d="M150.141 374.885c-8.933 0-30.168 7.908-30.168 7.908.805-7.176-7.615-23.944-10.105-38.149-2.489-14.279-3.881-30.461-3.881-30.461s-.952-37.93 0-68.976c.952-31.047 5.346-48.181 5.346-48.181 10.178-5.345 26.14-7.762 26.14-7.762l2.783 85.452.439 13.546s-1.611-.805 0 2.123c.366.659.732 1.831 1.025 3.222.513 2.05.879 4.54 1.172 6.59v.074l.512 4.1s1.904 15.377 3.442 27.459v.073c2.123 25.555 2.197 39.906 3.295 42.982z" fill="#010005"/>
    <path d="M199.493 288.262c-1.757 36.466-12.521 59.238-12.521 59.238-34.488 6.956-38.735-17.94-38.735-17.94l1.977-5.418 2.27-6.224-9.226-27.532-2.637-2.124-3.221-98.997 17.427-4.833 42.909 99.949 1.757 3.881z" fill="#010005"/>
    <path d="M243.793 247.623c.147 5.858-.732 11.643-2.05 17.501v.073c-.732 3.149-1.611 6.224-2.563 9.372-2.49 8.201-5.492 16.549-7.762 25.116-1.318 4.76-1.611 9.226-1.391 13.4.732 12.814 6.663 22.26 4.174 27.092-3.368 6.444-26.287 5.199-26.287 5.199-17.061-15.157-9.3-47.595-9.3-47.595l.879-9.519 21.308-71.905-15.963-35.953 10.105-2.709h.073c.879.367 14.718 6.883 23.871 14.645 8.128 6.81 4.174 25.335 4.174 42.323 0 2.856.073 5.638.439 8.347.147 1.465.22 2.929.293 4.394v.219z" fill="#010005"/>
    <path d="M202.129 180.331s16.914 27.459 13.692 46.936c-3.221 19.477-16.328 60.995-16.328 60.995s29.655-35.733 29.655-64.802c0-37.417-14.132-45.692-14.132-45.692s-11.862-2.489-12.887 2.563z" fill="#600018"/>
    <path d="M323.826 191.387s-7.542 50.891-6.883 54.991c.732 4.027-7.908 12.668-10.032 13.546-4.833 2.051-19.404-1.464-20.429-4.173-.293-.732-.879-1.538-1.611-2.343-2.124-2.417-5.492-5.492-6.444-8.934-1.025-3.807 1.465-5.858 2.783-7.981.219-.366.439-.806.586-1.172 0-.073.073-.073.073-.146s0-.146.073-.146l1.684-6.957s24.676-59.75 25.775-59.018c.073 0 1.171.44 1.244.44.074.073.147.073.22.146.22.147.439.293.586.44.879.659 1.684 1.318 2.416 2.05a31.597 31.597 0 013.222 3.808c.586.732 1.025 1.537 1.538 2.343a26.994 26.994 0 011.537 2.855c0 .073 0 .074.074.147.219.512.512 1.098.732 1.611 2.123 4.613 2.856 8.493 2.856 8.493z" fill="#010005"/>
    <path d="M323.827 191.387s-6.883 48.767-6.81 52.794c.073 4.101-5.126 5.419-5.126 5.419-.439.146-.878.293-1.318.586 1.245-.952 1.904-2.417 2.49-3.735.439-1.171.732-2.27 1.098-2.636.806-.805-1.537-5.418-.805-9.372.586-3.149 6.956-34.635 7.029-47.668v-.293-5.346c.22.513.513 1.099.732 1.611 1.977 4.76 2.71 8.64 2.71 8.64z" fill="#444"/>
    <path d="M291.461 258.607s-11.789-4.247-23.138-8.421c-.44-.146-1.392-.22-2.417-.366-1.611-.146-3.441-.22-4.027-.439-4.979-1.831-8.128-4.394-9.373-5.199-4.247-2.563-12.301-8.055-12.301-8.055l-14.425-52.721s17.207-2.343 21.381-1.025c4.247 1.318 9.08 6.957 13.912 10.178 3.735 2.49 18.672 14.133 25.555 19.551 1.099.805 1.977 1.538 2.563 1.977.586.439.952.732.952.732l1.318 43.788z" fill="#000"/>
    <path d="M308.376 152.653l-2.783.658-3.295 1.758.22 1.977h6.078l-.22-4.393z" fill="#E3B9B7"/>
    <path d="M306.106 157.046l-5.419-.073v1.684l2.124 1.831 3.295 1.318v-4.76z" fill="#E3B9B7"/>
    <path d="M321.629 147.601l-9.885.952-.293 3.368 6.737-1.318 3.441-3.002z" fill="#36176E"/>
    <path d="M311.524 164.954l13.693 7.323-13.986-4.247.293-3.076z" fill="#180249"/>
    <path d="M328 145.623l-2.49 24.091-3.954 14.279 1.538 4.393L328 170.007v-24.384z" fill="#7215CC"/>
    <path d="M146.846 331.903c2.124 25.554 2.27 39.906 3.295 42.981h-5.931s-2.709-67.292-6.736-81.131c-2.05-7.029 0-9.373 0-9.373l2.782-9.665 5.053-17.793 4.832-22.626-1.464 24.237-7.981 29.655s.439 1.904 1.025 5.272c.366 1.831.732 4.028 1.171 6.59v.073c1.245 7.689 2.856 18.672 3.954 31.56v.22zM243.793 247.476v.074c-.146 4.832-.513 10.397-2.05 17.5v.073a83.257 83.257 0 01-2.49 9.153c0 .073-.073.146-.073.22-3.734 11.789-10.617 28.85-9.153 38.515v.073c1.465 9.666 6.736 24.53 4.1 27.02-3.368 6.443-26.287 5.199-26.287 5.199 17.501-.293 25.409-6.737 25.116-7.249-2.197-4.247-6.883-14.426-7.322-26.581-.586-16.036 8.786-34.781 9.885-39.101 1.171-4.32 5.565-14.571 5.052-25.481-.512-10.911.586-30.681.586-30.681s1.098 9.519 1.831 18.379c.585 5.345.878 10.325.805 12.887z" fill="#444"/>
    <path d="M199.494 288.262c-1.758 36.465-11.789 60.922-11.789 60.922-34.488 6.956-38.735-17.94-38.735-17.94s4.32 7.835 11.935 13.4c5.126 3.734 22.479 3.002 24.749 1.244 7.103-14.498 11.936-59.896 11.936-59.896h.952l.952 2.27z" fill="#444"/>
    <path d="M166.835 177.329s-18.891-.146-21.674 4.54c-2.782 4.686-7.615 7.395-7.615 7.395s29.069 7.542 37.124 43.202c8.055 35.66 22.626 51.696 24.896 55.723 0 0-13.18-69.489-29.289-99.803-1.392-2.49-1.099-3.515-3.442-11.057z" fill="#600018"/>
    <path d="M320.897 144.818l-3.368.513-1.758 1.171-.146 1.684 3.515-.366 1.757-3.002z" fill="#E3B9B7"/>
    <path d="M319.139 147.82l7.103 1.245v-1.464l-7.103.219zM308.596 157.046l6.59-.219 5.711 1.538-.659 1.025-5.272-1.758-6.37-.586zM311.451 151.921h5.638l4.54 1.537-.073 1.025-4.467-1.83-5.638-.732z" fill="#180249"/>
    <path d="M305.593 153.311l.293 3.808-3.368-.073-.22-1.977 3.295-1.758zM309.694 148.772v3.588l-2.636.586v-2.197l2.636-1.977zM302.811 160.488l-.293-3.442-1.831-.073v1.684l2.124 1.831zM317.529 145.33l-.366 2.709-1.538.147.146-1.684 1.758-1.172z" fill="#C69393"/>
    <path d="M215.309 200.907c.366 1.758-.952 3.661-2.197 3.002 0 0-9.152-5.052-12.887-6.077-1.537-.366-1.318-9.373 0-10.764 4.979-4.979 12.887-6.077 12.887-6.077 1.172-.22 2.636.805 2.197 3.002 0 0-.073.146-.146.366-.293.659-1.025 2.197-1.611 3.881-.513 1.537-1.025 3.148-1.025 4.246 0 1.904 1.098 4.687 1.903 6.518.44 1.025.806 1.757.879 1.903zM181.48 203.909c3.661-1.611 10.544-5.052 14.791-6.077 1.757-.366 1.611-9.593 0-10.764-4.613-3.222-11.276-5.565-14.791-6.077-1.318-.22-2.709.952-2.563 3.002.22 2.196 1.172 5.931 1.172 8.787 0 3.002-.806 6.077-1.172 8.127-.366 2.05 1.318 3.515 2.563 3.002z" fill="#000"/>
    <path d="M215.089 184.432c-.292.659-1.025 2.196-1.61 3.881-1.685 1.611-3.954 4.905-4.101 5.052 1.025-2.563 5.492-8.714 5.711-8.933zM215.236 200.907c-.219-.22-2.123-1.977-4.247-3.222 0 0 1.611.439 3.368 1.391.513.952.879 1.684.879 1.831zM202.495 191.095s1.391-1.245 4.32-2.197c0 0-2.929.22-4.686 1.099l.366 1.098zM201.762 194.463s1.904.293 4.687 2.05c0 0-2.27-2.123-4.174-2.929l-.513.879zM201.69 192.779s1.757-.439 4.686.073c0 0-2.489-1.098-4.393-1.098l-.293 1.025zM193.928 191.095s-1.392-1.245-4.32-2.197c0 0 2.928.22 4.686 1.099l-.366 1.098zM194.66 194.463s-1.904.293-4.686 2.05c0 0 2.27-2.123 4.174-2.929l.512.879zM194.733 192.779s-1.757-.439-4.686.073c0 0 2.49-1.098 4.393-1.098l.293 1.025z" fill="#444"/>
    <path d="M198.321 197.832c2.629 0 4.76-2.394 4.76-5.346s-2.131-5.345-4.76-5.345c-2.628 0-4.759 2.393-4.759 5.345s2.131 5.346 4.759 5.346z" fill="#7B001E"/>
    <path d="M239.253 231.881v-1.758L236 226l-6.193 4.123v1.758h9.446z" fill="#600018"/>
    <path d="M289.119 214.014c-.074.439-.366.805-.659 1.245-1.099 1.684-7.176 15.596-9.3 19.038 1.172-4.101 3.881-12.302 5.785-16.842-1.391.293-3.881 2.563-4.76 3.735 1.245-3.588 3.515-6.737 6.444-9.153a46.577 46.577 0 002.49 1.977zM268.322 250.186c-.439-.147-1.391-.22-2.416-.366-1.098-5.785.073-11.277.073-11.277.147 4.76 2.343 11.643 2.343 11.643z" fill="#444"/>
  </g>
  <defs>
    <clipPath id="clip0">
      <path fill="#fff" d="M0 0h425v375H0z"/>
    </clipPath>
  </defs>
</svg>
