<svg fill="none" xmlns="http://www.w3.org/2000/svg" viewBox="0 0 36 36">
  <path fill-rule="evenodd" clip-rule="evenodd" d="M8.746 22.23a3.363 3.363 0 01-2.074 3.108 3.355 3.355 0 01-2.573-.001 3.356 3.356 0 01-2.073-3.107 3.362 3.362 0 013.36-3.363h3.362v3.363h-.002zm1.68 0a3.362 3.362 0 015.737-2.379 3.361 3.361 0 01.983 2.379v8.408a3.362 3.362 0 01-4.646 3.107 3.357 3.357 0 01-2.074-3.107V22.23z" fill="#E01E5A"/>
  <path fill-rule="evenodd" clip-rule="evenodd" d="M13.787 8.727a3.355 3.355 0 01-3.36-3.364A3.364 3.364 0 0112.5 2.255a3.355 3.355 0 012.573 0 3.358 3.358 0 012.074 3.108v3.365h-3.359l-.001-.001zm0 1.706a3.355 3.355 0 013.104 2.076 3.362 3.362 0 010 2.574 3.36 3.36 0 01-3.104 2.076H5.36a3.354 3.354 0 01-3.105-2.075 3.362 3.362 0 010-2.574 3.36 3.36 0 013.105-2.075h8.428l-.001-.002z" fill="#36C5F0"/>
  <path fill-rule="evenodd" clip-rule="evenodd" d="M27.254 13.796a3.362 3.362 0 115.738 2.378 3.357 3.357 0 01-2.377.985h-3.361v-3.363zm-1.68 0a3.362 3.362 0 11-6.722 0V5.363a3.364 3.364 0 012.075-3.108A3.355 3.355 0 0122.214 2a3.355 3.355 0 013.36 3.363v8.434-.001z" fill="#2EB67D"/>
  <path fill-rule="evenodd" clip-rule="evenodd" d="M22.213 27.274a3.355 3.355 0 013.36 3.362 3.364 3.364 0 01-2.073 3.109 3.355 3.355 0 01-2.573 0 3.356 3.356 0 01-2.073-3.109v-3.362h3.36zm0-1.681a3.355 3.355 0 01-3.104-2.076 3.362 3.362 0 010-2.574 3.36 3.36 0 013.104-2.076h8.427A3.356 3.356 0 0134 22.23a3.362 3.362 0 01-2.074 3.107 3.356 3.356 0 01-1.286.256h-8.427z" fill="#ECB22E"/>
</svg>
