<svg fill="none" xmlns="http://www.w3.org/2000/svg" viewBox="0 0 80 80">
  <g clip-path="url(#clip0)">
    <path d="M39.6 72.4h-.3c-7.4-2-13.5-5.8-18.3-11.3-3.9-4.4-6.7-10-8.6-16.7-3.5-12.6-2.2-24.4-2.1-24.9.1-.4.4-.8.8-.9 16-2.7 24.8-8.5 27.9-10.9.4-.3.9-.3 1.2 0 3.1 2.4 11.9 8.2 27.9 10.9.4.1.8.4.8.9.1 1.3 1.3 12.7-2.1 24.9-.1.5-.7.8-1.2.7-.5-.1-.8-.7-.7-1.2 2.9-10.5 2.4-20.5 2.1-23.4-15-2.7-23.8-8-27.4-10.7-3.6 2.7-12.4 8-27.4 10.7-.2 2.8-.8 12.8 2.1 23.4 1.8 6.4 4.5 11.8 8.2 15.9C27 65 32.8 68.6 39.8 70.5c.5.1.8.7.7 1.2-.1.4-.5.7-.9.7z" fill="#8D8D8D"/>
    <path d="M39.5 64.9h-.3c-5.7-1.5-10.4-4.5-14-8.7-2.9-3.3-5.1-7.6-6.6-12.8-2.4-8.5-1.9-16.7-1.6-19 0-.4.4-.8.8-.9 11.6-2 18.2-6.1 21.2-8.3.4-.3 1.1-.2 1.4.2.3.4.2 1.1-.2 1.4-3 2.3-9.8 6.4-21.3 8.6-.2 2.6-.5 10 1.6 17.5 1.4 4.9 3.5 8.9 6.2 12 3.4 3.9 7.7 6.7 13 8.1.5.1.8.7.7 1.2-.1.4-.5.7-.9.7z" fill="#8D8D8D"/>
    <path fill-rule="evenodd" clip-rule="evenodd" d="M42.4 25.1h-5.7c-1.1 0-2 .9-2 2v8h-8c-1.1 0-2 .9-2 2v5.7c0 1.1.9 2 2 2h8v8c0 1.1.9 2 2 2h5.7c1.1 0 2-.9 2-2v-8h8c1.1 0 2-.9 2-2v-5.7c0-1.1-.9-2-2-2h-8v-8c0-1.1-.9-2-2-2zm0 2v8.6c0 .8.6 1.4 1.4 1.4h8.6v5.7h-8.6c-.8 0-1.4.6-1.4 1.4v8.6h-5.7v-8.6c0-.8-.6-1.4-1.4-1.4h-8.6v-5.7h8.6c.9 0 1.4-.6 1.4-1.4v-8.6h5.7z" fill="#7215CC"/>
  </g>
  <defs>
    <clipPath id="clip0">
      <path fill="#fff" d="M0 0h80v80H0z"/>
    </clipPath>
  </defs>
</svg>
