<svg fill="none" xmlns="http://www.w3.org/2000/svg" viewBox="0 0 80 80">
  <path d="M71.2 39c-.2.2-.4.3-.7.3-.2 0-.5-.1-.7-.3L40 11.9 10.1 39c-.4.4-1 .3-1.4-.1-.4-.4-.3-1 .1-1.4L39.3 9.8c.4-.3 1-.3 1.3 0l30.5 27.8c.4.4.4 1 .1 1.4z" fill="#8D8D8D"/>
  <path d="M64.2 39.798c-.4.4-1 .4-1.4.1L40 19.098l-22.9 20.7c-.2.2-.5.3-.7.3-.3 0-.5-.1-.7-.3-.4-.4-.3-1 .1-1.4l23.5-21.4c.4-.3 1-.3 1.3 0l23.5 21.4c.4.4.4 1 .1 1.4zM62.7 47.973v19.6c0 .3-.2.5-.5.5H17.7c-.3 0-.5-.2-.5-.5v-19.6c0-.6-.4-1-1-1s-1 .4-1 1v20.6c0 .8.7 1.5 1.5 1.5h46.5c.8 0 1.5-.7 1.5-1.5v-20.6c0-.6-.4-1-1-1s-1 .4-1 1z" fill="#8D8D8D"/>
  <path d="M31 68.072v1c0 .6.4 1 1 1h15.9c.6 0 1-.4 1-1v-1H31z" fill="#8D8D8D"/>
  <path d="M48.9 47.973v20.1h-2v-19.1H33v19.1h-2V47.873c0-.5.4-.9 1-.9h15.9c.6 0 .9.4 1 1 0 0 0-.1 0 0z" fill="#8D8D8D"/>
  <path d="M45.4 29.773c-1.3-1.4-3-2.3-5-2.4H40c-1.8 0-3.5.6-4.9 1.8-1.4 1.3-2.3 3-2.4 5-.1 2 .5 3.8 1.8 5.3 1.4 1.6 3.4 2.4 5.4 2.4 1.7 0 3.5-.6 4.9-1.8 1.4-1.3 2.3-3 2.4-5 .1-2-.5-3.8-1.8-5.3zm-2 8.6c-2.2 2-5.6 1.8-7.5-.4-.9-1-1.4-2.4-1.3-3.8.1-1.4.7-2.7 1.8-3.6.9-.8 2.2-1.3 3.5-1.3.1 0 .2 0 .4-.1 1.4.1 2.7.7 3.6 1.8.9 1 1.4 2.4 1.3 3.8-.1 1.4-.7 2.7-1.8 3.6zM12.5 52.273v17c0 .6-.4 1-1 1s-1-.4-1-1v-17c0-.6.4-1 1-1s1 .4 1 1zM8.5 52.273v17c0 .6-.4 1-1 1s-1-.4-1-1v-17c0-.6.4-1 1-1s1 .4 1 1zM69.5 52.273v17c0 .6-.4 1-1 1s-1-.4-1-1v-17c0-.6.4-1 1-1s1 .4 1 1zM73.5 52.273v17c0 .6-.4 1-1 1s-1-.4-1-1v-17c0-.6.4-1 1-1s1 .4 1 1z" fill="#7215CC"/>
  <path d="M16.5 58.373c0 .6-.4 1-1 1h-8c-.6 0-1-.4-1-1s.4-1 1-1h8c.6 0 1 .4 1 1zM73.5 58.373c0 .6-.4 1-1 1h-8c-.6 0-1-.4-1-1s.4-1 1-1h8c.6 0 1 .4 1 1z" fill="#7215CC"/>
</svg>
