<svg fill="none" xmlns="http://www.w3.org/2000/svg" viewBox="0 0 80 80">
  <path d="M60.7 28.1h-6.2c-.6 0-1-.4-1-1s.4-1 1-1h6.2c1.4 0 2.5-1.1 2.5-2.5v-7.1c0-1.4-1.1-2.5-2.5-2.5H19c-1.4 0-2.5 1.1-2.5 2.5v7.1c0 1.4 1.1 2.5 2.5 2.5h6c.6 0 1 .4 1 1s-.4 1-1 1h-6c-2.4 0-4.5-2.1-4.5-4.5v-7.1c0-2.4 2.1-4.5 4.5-4.5h41.7c2.4 0 4.5 2.1 4.5 4.5v7.1c0 2.4-2.1 4.5-4.5 4.5z" fill="#8D8D8D"/>
  <path d="M49.7 28.1H29.9c-.6 0-1-.4-1-1s.4-1 1-1h19.8c.6 0 1 .4 1 1s-.4 1-1 1zM36.7 71.2H26.3c-5.1 0-9.3-4.2-9.3-9.3V31.7c0-1.8.5-3.5 1.4-5 .3-.5.9-.6 1.4-.3.5.3.6.9.3 1.4-.8 1.2-1.2 2.6-1.2 4V62c0 4 3.3 7.3 7.3 7.3h10.4c.6 0 1 .4 1 1s-.3.9-.9.9z" fill="#8D8D8D"/>
  <path d="M53.5 71.2H36.7c-.6 0-1-.4-1-1s.4-1 1-1h16.8c4 0 7.3-3.3 7.3-7.3 0-.6.4-1 1-1s1 .4 1 1c0 5.1-4.2 9.3-9.3 9.3z" fill="#8D8D8D"/>
  <path d="M61.8 62.8c-.6 0-1-.4-1-1V31.6c0-1.4-.4-2.8-1.2-4-.3-.5-.1-1.1.3-1.4.5-.3 1.1-.1 1.4.3.9 1.5 1.4 3.3 1.4 5v30.2c.1.7-.3 1.1-.9 1.1z" fill="#8D8D8D"/>
  <path d="M63 63.8h-1.2c-.6 0-1-.4-1-1s.4-1 1-1H63c1.5 0 2.8-1.3 2.8-2.8v-7.1c0-1.5-1.3-2.8-2.8-2.8h-1.2c-.6 0-1-.4-1-1s.4-1 1-1H63c2.6 0 4.8 2.2 4.8 4.8V59c0 2.6-2.2 4.8-4.8 4.8zM18 63.8h-1.1c-2.6 0-4.8-2.2-4.8-4.8v-7.1c0-2.6 2.2-4.8 4.8-4.8H18c.6 0 1 .4 1 1s-.4 1-1 1h-1.1c-1.5 0-2.8 1.3-2.8 2.8V59c0 1.5 1.3 2.8 2.8 2.8H18c.6 0 1 .4 1 1s-.4 1-1 1zM46.4 14.1c-.6 0-1-.4-1-1V10H34.2v3.1c0 .6-.4 1-1 1s-1-.4-1-1V9c0-.6.4-1 1-1h13.2c.6 0 1 .4 1 1v4.1c0 .6-.4 1-1 1z" fill="#8D8D8D"/>
  <path d="M39.9 64.5H26.8c-1.8 0-3.2-1.4-3.2-3.2V49.7c0-1.8 1.4-3.2 3.2-3.2H53c1.8 0 3.2 1.4 3.2 3.2v11.5c0 .6-.4 1-1 1s-1-.4-1-1V49.7c0-.7-.5-1.2-1.2-1.2H26.8c-.7 0-1.2.5-1.2 1.2v11.6c0 .7.5 1.2 1.2 1.2h13.1c.6 0 1 .4 1 1s-.4 1-1 1z" fill="#7215CC"/>
  <path d="M47.7 55.6H24.6c-.6 0-1-.4-1-1s.4-1 1-1h23.1c.6 0 1 .4 1 1s-.4 1-1 1z" fill="#7215CC"/>
  <path d="M39.9 59.3c-.6 0-1-.4-1-1v-5.9c0-.6.4-1 1-1s1 .4 1 1v5.9c0 .6-.4 1-1 1zM29.9 39.7H25c-.6 0-1-.4-1-1V13.1c0-.6.4-1 1-1h4.9c.6 0 1 .4 1 1V19c0 .6-.4 1-1 1s-1-.4-1-1v-4.9H26v23.6h2.9v-7.3c0-.6.4-1 1-1s1 .4 1 1v8.3c0 .6-.4 1-1 1zM54.6 39.7h-2.5c-.6 0-1-.4-1-1s.4-1 1-1h1.5v-8c0-.6.4-1 1-1s1 .4 1 1v9c0 .6-.4 1-1 1z" fill="#7215CC"/>
  <path d="M52.1 39.7h-2.4c-.6 0-1-.4-1-1V13.1c0-.6.4-1 1-1h4.9c.6 0 1 .4 1 1v5.4c0 .6-.4 1-1 1s-1-.4-1-1v-4.4h-2.9v23.6h1.4c.6 0 1 .4 1 1s-.4 1-1 1z" fill="#7215CC"/>
</svg>
