<svg width="450" height="450" viewBox="0 0 450 450" fill="none" xmlns="http://www.w3.org/2000/svg">
<rect x="1.73209" width="221.894" height="221.894" transform="matrix(0.866044 -0.499967 0.866044 0.499967 31.4276 309.02)" fill="#181D29" stroke="#939393" stroke-width="2"/>
<path d="M281.551 345.578L302.385 195.454L326.085 319.866L281.551 345.578Z" fill="#181D29" stroke="#939393" stroke-width="2" stroke-linecap="round" stroke-linejoin="round"/>
<path d="M247.412 302.699L250.792 286.532L271.922 352.54L232.202 375.473L242.198 327.631" fill="#181D29"/>
<path d="M247.412 302.699L250.792 286.532L271.922 352.54L232.202 375.473L242.198 327.631" stroke="#679BFF" stroke-width="2" stroke-linecap="round" stroke-linejoin="round"/>
<g clip-path="url(#clip0)">
<path d="M281.801 231.722V256.678L122.34 348.743V164.613L154.733 145.911" fill="#181D29"/>
<path d="M281.801 231.722V256.678L122.34 348.743V164.613L154.733 145.911" stroke="#939393" stroke-width="1.67345" stroke-linecap="round" stroke-linejoin="round"/>
<path d="M175.657 133.83L281.801 72.5477V203.411" fill="#181D29"/>
<path d="M175.657 133.83L281.801 72.5477V203.411" stroke="#939393" stroke-width="1.67345" stroke-linecap="round" stroke-linejoin="round"/>
<path d="M145.008 237.975L132.335 245.292V171.108L271.806 90.5848V138.171" fill="#181D29"/>
<path d="M145.008 237.975L132.335 245.292V171.108L271.806 90.5848V138.171" stroke="#939393" stroke-width="1.67345" stroke-linecap="round" stroke-linejoin="round"/>
<path d="M271.806 151.253V164.769L173.162 221.72" fill="#181D29"/>
<path d="M271.806 151.253V164.769L173.162 221.72" stroke="#939393" stroke-width="1.67345" stroke-linecap="round" stroke-linejoin="round"/>
<path d="M198.368 156.762L189.612 155.976V194.287L218.359 158.575L209.637 157.789" fill="#181D29"/>
<path d="M198.368 156.762L189.612 155.976V194.287L218.359 158.575L209.637 157.789" stroke="#679BFF" stroke-width="1.67345" stroke-linecap="round" stroke-linejoin="round"/>
<path d="M132.396 277.373V255.529L215.507 207.545V267.307" fill="#181D29"/>
<path d="M132.396 277.373V255.529L215.507 207.545V267.307" stroke="#939393" stroke-width="1.67345" stroke-linecap="round" stroke-linejoin="round"/>
<path d="M205.45 288.623L132.396 330.8V288.693" fill="#181D29"/>
<path d="M205.45 288.623L132.396 330.8V288.693" stroke="#939393" stroke-width="1.67345" stroke-linecap="round" stroke-linejoin="round"/>
<path d="M147.476 305.366L160.856 268.204L176.075 288.854L147.476 305.366Z" fill="#181D29" stroke="#939393" stroke-width="1.67345" stroke-linecap="round" stroke-linejoin="round"/>
<path d="M178.692 256.063L182.372 246.989L205.381 271.935L162.129 296.906L173.014 270.057" fill="#181D29"/>
<path d="M178.692 256.063L182.372 246.989L205.381 271.935L162.129 296.906L173.014 270.057" stroke="#679BFF" stroke-width="1.67345" stroke-linecap="round" stroke-linejoin="round"/>
<path d="M149.448 256.31C149.977 255.743 150.547 255.28 151.122 254.95C151.845 254.519 152.559 254.301 153.201 254.316C153.843 254.33 154.391 254.576 154.798 255.031C155.204 255.487 155.456 256.138 155.53 256.926C155.603 257.714 155.497 258.613 155.221 259.544C154.944 260.475 154.506 261.408 153.946 262.259C153.385 263.11 152.72 263.852 152.01 264.419C151.3 264.985 150.567 265.359 149.878 265.505C149.188 265.652 148.564 265.567 148.061 265.258" fill="#181D29"/>
<path d="M149.448 256.31C149.977 255.743 150.547 255.28 151.122 254.95C151.845 254.519 152.559 254.301 153.201 254.316C153.843 254.33 154.391 254.576 154.798 255.031C155.204 255.487 155.456 256.138 155.53 256.926C155.603 257.714 155.497 258.613 155.221 259.544C154.944 260.475 154.506 261.408 153.946 262.259C153.385 263.11 152.72 263.852 152.01 264.419C151.3 264.985 150.567 265.359 149.878 265.505C149.188 265.652 148.564 265.567 148.061 265.258" stroke="#679BFF" stroke-width="1.67345" stroke-linecap="round" stroke-linejoin="round"/>
<path d="M227.22 200.783L263.573 179.794" stroke="#939393" stroke-width="1.67345" stroke-linecap="round" stroke-linejoin="round"/>
<path d="M227.22 209.152L269.913 184.503" stroke="#939393" stroke-width="1.67345" stroke-linecap="round" stroke-linejoin="round"/>
<path d="M227.22 217.531L263.834 196.392" stroke="#679BFF" stroke-width="1.67345" stroke-linecap="round" stroke-linejoin="round"/>
<path d="M227.22 225.91L269.913 201.261" stroke="#939393" stroke-width="1.67345" stroke-linecap="round" stroke-linejoin="round"/>
<path d="M227.22 234.289L265.893 211.961" stroke="#939393" stroke-width="1.67345" stroke-linecap="round" stroke-linejoin="round"/>
<path d="M227.22 242.658L265.265 220.693" stroke="#679BFF" stroke-width="1.67345" stroke-linecap="round" stroke-linejoin="round"/>
<path d="M250.045 237.859L269.913 226.388" stroke="#939393" stroke-width="1.67345" stroke-linecap="round" stroke-linejoin="round"/>
<path d="M227.22 251.037L235.671 246.158" stroke="#939393" stroke-width="1.67345" stroke-linecap="round" stroke-linejoin="round"/>
<path d="M227.22 259.416L269.913 234.767" stroke="#679BFF" stroke-width="1.67345" stroke-linecap="round" stroke-linejoin="round"/>
<path d="M258.924 249.491L265.474 245.71" stroke="#679BFF" stroke-width="1.67345" stroke-linecap="round" stroke-linejoin="round"/>
<path d="M227.22 267.796L247.507 256.083" stroke="#679BFF" stroke-width="1.67345" stroke-linecap="round" stroke-linejoin="round"/>
<path d="M227.22 276.165L269.913 251.516" stroke="#939393" stroke-width="1.67345" stroke-linecap="round" stroke-linejoin="round"/>
</g>
<path d="M191 100L191 29" stroke="url(#paint0_linear)" stroke-width="4" stroke-linecap="square"/>
<path d="M170 46L170 117" stroke="url(#paint1_linear)" stroke-width="4" stroke-linecap="square"/>
<defs>
<linearGradient id="paint0_linear" x1="190" y1="29" x2="190" y2="100" gradientUnits="userSpaceOnUse">
<stop stop-color="#679BFF"/>
<stop offset="0.294502" stop-color="#679BFF" stop-opacity="0.4"/>
<stop offset="1" stop-color="#679BFF" stop-opacity="0"/>
</linearGradient>
<linearGradient id="paint1_linear" x1="169" y1="117" x2="169" y2="46" gradientUnits="userSpaceOnUse">
<stop stop-color="#679BFF"/>
<stop offset="0.294502" stop-color="#679BFF" stop-opacity="0.4"/>
<stop offset="1" stop-color="#679BFF" stop-opacity="0"/>
</linearGradient>
<clipPath id="clip0">
<rect width="186.144" height="186.144" fill="white" transform="matrix(0.866025 -0.5 0 1 121.468 164.109)"/>
</clipPath>
</defs>
</svg>
