<svg width="450" height="450" viewBox="0 0 450 450" fill="none" xmlns="http://www.w3.org/2000/svg">
<rect width="450" height="450" fill="#181D29"/>
<path d="M54.7571 273.619V332.472V348.756L120.462 385.256L186.028 346.543V271.407" stroke="#679BFF" stroke-width="2" stroke-miterlimit="10"/>
<path d="M97.2371 297.224L54.7571 273.62L120.323 234.907L186.028 271.407L120.462 310.12L113.711 306.365" stroke="#679BFF" stroke-width="2" stroke-linecap="round" stroke-linejoin="round"/>
<path d="M116.77 249.75L120.487 247.55L163.953 271.698L152.233 278.614" stroke="#679BFF" stroke-width="2" stroke-linecap="round" stroke-linejoin="round"/>
<path d="M132.789 290.106L120.298 297.477L76.8315 273.329L104.81 256.817" stroke="#679BFF" stroke-width="2" stroke-linecap="round" stroke-linejoin="round"/>
<path d="M106.795 277.425L98.9059 273.038L120.652 260.193L141.879 271.989L124.723 282.116" stroke="#679BFF" stroke-width="2" stroke-linecap="round" stroke-linejoin="round"/>
<path d="M324.796 69.7746C327.898 68.4901 331.253 67.9331 334.604 68.1465C349.754 68.8192 361.073 79.368 368.668 94.3722C372.119 101.197 375.99 107.856 377.871 114.846C380.077 115.583 382.201 116.547 384.208 117.722C400.246 126.984 413.232 148.92 413.232 166.8C413.232 175.253 410.307 181.268 405.55 184.271L357.963 211.754L358.197 211.637C352.942 214.455 345.689 213.88 337.724 209.258L270.248 170.261C256.707 162.53 245.768 144.035 245.768 129.012C245.768 114.943 255.303 108.947 267.538 114.534C268.065 106.734 270.931 101.333 275.425 98.2232L324.796 69.7746Z" fill="#181D29"/>
<path d="M275.425 98.2232L324.795 69.7747" stroke="#939393" stroke-width="2" stroke-linecap="round" stroke-linejoin="round"/>
<path d="M322.134 121.28C325.585 128.105 329.456 134.773 331.337 141.754C333.544 142.509 335.668 143.489 337.674 144.679C353.702 153.931 366.698 175.877 366.698 193.757C366.698 211.637 353.702 218.579 337.674 209.356L270.199 170.359C256.706 162.53 245.767 144.035 245.767 129.012C245.767 114.943 255.302 108.947 267.537 114.534C268.512 100.885 276.604 94.5477 288.06 95.0351C303.21 95.7371 314.529 106.286 322.134 121.28Z" stroke="#679BFF" stroke-width="2" stroke-linecap="round" stroke-linejoin="round"/>
<path d="M288.303 90.6772C292.013 88.3568 296.372 87.2936 300.734 87.6452C315.884 88.3179 327.203 98.8667 334.798 113.861C338.259 120.686 342.12 127.354 344.011 134.335C346.217 135.074 348.34 136.038 350.348 137.211C366.376 146.463 379.372 168.409 379.372 186.289C379.372 195.219 376.126 201.42 370.871 204.238" stroke="#939393" stroke-width="2" stroke-linecap="round" stroke-linejoin="round"/>
<path d="M301.241 83.1898C304.881 81.0466 309.091 80.0732 313.301 80.4014C328.452 81.0742 339.771 91.6229 347.365 106.627C350.826 113.452 354.687 120.111 356.569 127.101C358.779 127.856 360.906 128.836 362.916 130.026C378.944 139.278 391.939 161.223 391.939 179.104C391.939 187.878 388.79 194.04 383.682 196.916" stroke="#939393" stroke-width="2" stroke-linecap="round" stroke-linejoin="round"/>
<path d="M312.58 76.6284C316.243 74.452 320.49 73.4643 324.737 73.8011C339.888 74.4738 351.207 85.0226 358.801 100.027C362.262 106.851 366.123 113.51 368.014 120.5C370.221 121.257 372.344 122.237 374.352 123.425C390.379 132.687 403.375 154.623 403.375 172.513C403.375 181.015 400.451 187.059 395.576 190.062" stroke="#939393" stroke-width="2" stroke-linecap="round" stroke-linejoin="round"/>
<path d="M357.962 211.774L405.549 184.29C410.326 181.288 413.231 175.272 413.231 166.82C413.231 148.969 400.245 127.003 384.207 117.741C382.2 116.566 380.076 115.602 377.87 114.865C375.989 107.885 372.118 101.216 368.667 94.3917C361.072 79.3972 349.753 68.8484 334.603 68.1465C331.252 67.9331 327.897 68.4901 324.795 69.7746" stroke="#939393" stroke-width="2" stroke-linecap="round" stroke-linejoin="round"/>
<path d="M348 241C348 240.448 347.552 240 347 240C346.448 240 346 240.448 346 241H348ZM220.293 321.293C219.902 321.683 219.902 322.317 220.293 322.707L226.657 329.071C227.047 329.462 227.681 329.462 228.071 329.071C228.462 328.681 228.462 328.047 228.071 327.657L222.414 322L228.071 316.343C228.462 315.953 228.462 315.319 228.071 314.929C227.681 314.538 227.047 314.538 226.657 314.929L220.293 321.293ZM346 241V312H348V241H346ZM336.99 321C336.906 321 336.822 321 336.738 321C336.653 321 336.569 321 336.485 321C336.401 321 336.317 321 336.233 321C336.149 321 336.066 321 335.982 321C335.898 321 335.814 321 335.731 321C335.647 321 335.563 321 335.48 321C335.396 321 335.313 321 335.229 321C335.146 321 335.062 321 334.979 321C334.896 321 334.812 321 334.729 321C334.646 321 334.563 321 334.48 321C334.397 321 334.314 321 334.231 321C334.148 321 334.065 321 333.982 321C333.899 321 333.816 321 333.734 321C333.651 321 333.568 321 333.486 321C333.403 321 333.32 321 333.238 321C333.155 321 333.073 321 332.991 321C332.908 321 332.826 321 332.744 321C332.661 321 332.579 321 332.497 321C332.415 321 332.333 321 332.251 321C332.168 321 332.086 321 332.005 321C331.923 321 331.841 321 331.759 321C331.677 321 331.595 321 331.514 321C331.432 321 331.35 321 331.269 321C331.187 321 331.105 321 331.024 321C330.942 321 330.861 321 330.78 321C330.698 321 330.617 321 330.536 321C330.454 321 330.373 321 330.292 321C330.211 321 330.13 321 330.049 321C329.968 321 329.887 321 329.806 321C329.725 321 329.644 321 329.563 321C329.482 321 329.401 321 329.321 321C329.24 321 329.159 321 329.079 321C328.998 321 328.917 321 328.837 321C328.756 321 328.676 321 328.596 321C328.515 321 328.435 321 328.354 321C328.274 321 328.194 321 328.114 321C328.033 321 327.953 321 327.873 321C327.793 321 327.713 321 327.633 321C327.553 321 327.473 321 327.393 321C327.313 321 327.233 321 327.154 321C327.074 321 326.994 321 326.914 321C326.835 321 326.755 321 326.676 321C326.596 321 326.516 321 326.437 321C326.357 321 326.278 321 326.199 321C326.119 321 326.04 321 325.961 321C325.881 321 325.802 321 325.723 321C325.644 321 325.565 321 325.485 321C325.406 321 325.327 321 325.248 321C325.169 321 325.09 321 325.011 321C324.933 321 324.854 321 324.775 321C324.696 321 324.617 321 324.539 321C324.46 321 324.381 321 324.303 321C324.224 321 324.146 321 324.067 321C323.989 321 323.91 321 323.832 321C323.753 321 323.675 321 323.597 321C323.518 321 323.44 321 323.362 321C323.283 321 323.205 321 323.127 321C323.049 321 322.971 321 322.893 321C322.815 321 322.737 321 322.659 321C322.581 321 322.503 321 322.425 321C322.347 321 322.27 321 322.192 321C322.114 321 322.036 321 321.959 321C321.881 321 321.803 321 321.726 321C321.648 321 321.571 321 321.493 321C321.416 321 321.338 321 321.261 321C321.183 321 321.106 321 321.029 321C320.951 321 320.874 321 320.797 321C320.72 321 320.642 321 320.565 321C320.488 321 320.411 321 320.334 321C320.257 321 320.18 321 320.103 321C320.026 321 319.949 321 319.872 321C319.795 321 319.719 321 319.642 321C319.565 321 319.488 321 319.411 321C319.335 321 319.258 321 319.181 321C319.105 321 319.028 321 318.952 321C318.875 321 318.799 321 318.722 321C318.646 321 318.569 321 318.493 321C318.417 321 318.34 321 318.264 321C318.188 321 318.111 321 318.035 321C317.959 321 317.883 321 317.807 321C317.731 321 317.655 321 317.578 321C317.502 321 317.426 321 317.35 321C317.274 321 317.199 321 317.123 321C317.047 321 316.971 321 316.895 321C316.819 321 316.744 321 316.668 321C316.592 321 316.516 321 316.441 321C316.365 321 316.29 321 316.214 321C316.138 321 316.063 321 315.987 321C315.912 321 315.836 321 315.761 321C315.686 321 315.61 321 315.535 321C315.46 321 315.384 321 315.309 321C315.234 321 315.158 321 315.083 321C315.008 321 314.933 321 314.858 321C314.783 321 314.708 321 314.633 321C314.558 321 314.483 321 314.408 321C314.333 321 314.258 321 314.183 321C314.108 321 314.033 321 313.958 321C313.883 321 313.809 321 313.734 321C313.659 321 313.584 321 313.51 321C313.435 321 313.36 321 313.286 321C313.211 321 313.137 321 313.062 321C312.988 321 312.913 321 312.839 321C312.764 321 312.69 321 312.615 321C312.541 321 312.467 321 312.392 321C312.318 321 312.244 321 312.169 321C312.095 321 312.021 321 311.947 321C311.872 321 311.798 321 311.724 321C311.65 321 311.576 321 311.502 321C311.428 321 311.354 321 311.28 321C311.206 321 311.132 321 311.058 321C310.984 321 310.91 321 310.836 321C310.762 321 310.689 321 310.615 321C310.541 321 310.467 321 310.394 321C310.32 321 310.246 321 310.173 321C310.099 321 310.025 321 309.952 321C309.878 321 309.804 321 309.731 321C309.657 321 309.584 321 309.51 321C309.437 321 309.363 321 309.29 321C309.217 321 309.143 321 309.07 321C308.997 321 308.923 321 308.85 321C308.777 321 308.703 321 308.63 321C308.557 321 308.484 321 308.411 321C308.337 321 308.264 321 308.191 321C308.118 321 308.045 321 307.972 321C307.899 321 307.826 321 307.753 321C307.68 321 307.607 321 307.534 321C307.461 321 307.388 321 307.315 321C307.242 321 307.169 321 307.097 321C307.024 321 306.951 321 306.878 321C306.806 321 306.733 321 306.66 321C306.587 321 306.515 321 306.442 321C306.369 321 306.297 321 306.224 321C306.152 321 306.079 321 306.006 321C305.934 321 305.861 321 305.789 321C305.716 321 305.644 321 305.571 321C305.499 321 305.427 321 305.354 321C305.282 321 305.209 321 305.137 321C305.065 321 304.992 321 304.92 321C304.848 321 304.776 321 304.703 321C304.631 321 304.559 321 304.487 321C304.415 321 304.342 321 304.27 321C304.198 321 304.126 321 304.054 321C303.982 321 303.91 321 303.838 321C303.766 321 303.694 321 303.622 321C303.55 321 303.478 321 303.406 321C303.334 321 303.262 321 303.19 321C303.118 321 303.046 321 302.975 321C302.903 321 302.831 321 302.759 321C302.687 321 302.615 321 302.544 321C302.472 321 302.4 321 302.329 321C302.257 321 302.185 321 302.113 321C302.042 321 301.97 321 301.899 321C301.827 321 301.755 321 301.684 321C301.612 321 301.541 321 301.469 321C301.398 321 301.326 321 301.255 321C301.183 321 301.112 321 301.04 321C300.969 321 300.897 321 300.826 321C300.754 321 300.683 321 300.612 321C300.54 321 300.469 321 300.398 321C300.326 321 300.255 321 300.184 321C300.113 321 300.041 321 299.97 321C299.899 321 299.828 321 299.756 321C299.685 321 299.614 321 299.543 321C299.472 321 299.4 321 299.329 321C299.258 321 299.187 321 299.116 321C299.045 321 298.974 321 298.903 321C298.832 321 298.761 321 298.69 321C298.619 321 298.548 321 298.477 321C298.406 321 298.335 321 298.264 321C298.193 321 298.122 321 298.051 321C297.98 321 297.909 321 297.838 321C297.767 321 297.697 321 297.626 321C297.555 321 297.484 321 297.413 321C297.342 321 297.272 321 297.201 321C297.13 321 297.059 321 296.989 321C296.918 321 296.847 321 296.776 321C296.706 321 296.635 321 296.564 321C296.494 321 296.423 321 296.352 321C296.282 321 296.211 321 296.14 321C296.07 321 295.999 321 295.929 321C295.858 321 295.787 321 295.717 321C295.646 321 295.576 321 295.505 321C295.435 321 295.364 321 295.294 321C295.223 321 295.153 321 295.082 321C295.012 321 294.941 321 294.871 321C294.8 321 294.73 321 294.659 321C294.589 321 294.519 321 294.448 321C294.378 321 294.307 321 294.237 321C294.167 321 294.096 321 294.026 321C293.956 321 293.885 321 293.815 321C293.745 321 293.674 321 293.604 321C293.534 321 293.463 321 293.393 321C293.323 321 293.253 321 293.182 321C293.112 321 293.042 321 292.972 321C292.901 321 292.831 321 292.761 321C292.691 321 292.621 321 292.55 321C292.48 321 292.41 321 292.34 321C292.27 321 292.2 321 292.129 321C292.059 321 291.989 321 291.919 321C291.849 321 291.779 321 291.709 321C291.639 321 291.568 321 291.498 321C291.428 321 291.358 321 291.288 321C291.218 321 291.148 321 291.078 321C291.008 321 290.938 321 290.868 321C290.798 321 290.728 321 290.658 321C290.588 321 290.518 321 290.448 321C290.378 321 290.308 321 290.238 321C290.168 321 290.098 321 290.028 321C289.958 321 289.888 321 289.818 321C289.748 321 289.678 321 289.608 321C289.538 321 289.468 321 289.398 321C289.328 321 289.258 321 289.189 321C289.119 321 289.049 321 288.979 321C288.909 321 288.839 321 288.769 321C288.699 321 288.629 321 288.559 321C288.49 321 288.42 321 288.35 321C288.28 321 288.21 321 288.14 321C288.07 321 288.001 321 287.931 321C287.861 321 287.791 321 287.721 321C287.651 321 287.582 321 287.512 321C287.442 321 287.372 321 287.302 321C287.232 321 287.163 321 287.093 321C287.023 321 286.953 321 286.883 321C286.814 321 286.744 321 286.674 321C286.604 321 286.534 321 286.465 321C286.395 321 286.325 321 286.255 321C286.185 321 286.116 321 286.046 321C285.976 321 285.906 321 285.837 321C285.767 321 285.697 321 285.627 321C285.557 321 285.488 321 285.418 321C285.348 321 285.278 321 285.209 321C285.139 321 285.069 321 284.999 321C284.93 321 284.86 321 284.79 321C284.72 321 284.65 321 284.581 321C284.511 321 284.441 321 284.371 321C284.302 321 284.232 321 284.162 321C284.092 321 284.023 321 283.953 321C283.883 321 283.813 321 283.744 321C283.674 321 283.604 321 283.534 321C283.465 321 283.395 321 283.325 321C283.255 321 283.186 321 283.116 321C283.046 321 282.976 321 282.907 321C282.837 321 282.767 321 282.697 321C282.627 321 282.558 321 282.488 321C282.418 321 282.348 321 282.279 321C282.209 321 282.139 321 282.069 321C282 321 281.93 321 281.86 321C281.79 321 281.72 321 281.651 321C281.581 321 281.511 321 281.441 321C281.371 321 281.302 321 281.232 321C281.162 321 281.092 321 281.022 321C280.953 321 280.883 321 280.813 321C280.743 321 280.673 321 280.604 321C280.534 321 280.464 321 280.394 321C280.324 321 280.254 321 280.185 321C280.115 321 280.045 321 279.975 321C279.905 321 279.835 321 279.765 321C279.696 321 279.626 321 279.556 321C279.486 321 279.416 321 279.346 321C279.276 321 279.206 321 279.137 321C279.067 321 278.997 321 278.927 321C278.857 321 278.787 321 278.717 321C278.647 321 278.577 321 278.507 321C278.437 321 278.367 321 278.297 321C278.228 321 278.158 321 278.088 321C278.018 321 277.948 321 277.878 321C277.808 321 277.738 321 277.668 321C277.598 321 277.528 321 277.458 321C277.388 321 277.318 321 277.248 321C277.178 321 277.108 321 277.038 321C276.968 321 276.898 321 276.827 321C276.757 321 276.687 321 276.617 321C276.547 321 276.477 321 276.407 321C276.337 321 276.267 321 276.197 321C276.127 321 276.056 321 275.986 321C275.916 321 275.846 321 275.776 321C275.706 321 275.636 321 275.565 321C275.495 321 275.425 321 275.355 321C275.285 321 275.214 321 275.144 321C275.074 321 275.004 321 274.934 321C274.863 321 274.793 321 274.723 321C274.653 321 274.582 321 274.512 321C274.442 321 274.371 321 274.301 321C274.231 321 274.16 321 274.09 321C274.02 321 273.949 321 273.879 321C273.809 321 273.738 321 273.668 321C273.598 321 273.527 321 273.457 321C273.386 321 273.316 321 273.245 321C273.175 321 273.105 321 273.034 321C272.964 321 272.893 321 272.823 321C272.752 321 272.682 321 272.611 321C272.541 321 272.47 321 272.4 321C272.329 321 272.258 321 272.188 321C272.117 321 272.047 321 271.976 321C271.906 321 271.835 321 271.764 321C271.694 321 271.623 321 271.552 321C271.482 321 271.411 321 271.34 321C271.27 321 271.199 321 271.128 321C271.057 321 270.987 321 270.916 321C270.845 321 270.774 321 270.704 321C270.633 321 270.562 321 270.491 321C270.42 321 270.35 321 270.279 321C270.208 321 270.137 321 270.066 321C269.995 321 269.924 321 269.853 321C269.782 321 269.711 321 269.64 321C269.569 321 269.499 321 269.428 321C269.357 321 269.286 321 269.214 321C269.143 321 269.072 321 269.001 321C268.93 321 268.859 321 268.788 321C268.717 321 268.646 321 268.575 321C268.504 321 268.432 321 268.361 321C268.29 321 268.219 321 268.148 321C268.076 321 268.005 321 267.934 321C267.863 321 267.791 321 267.72 321C267.649 321 267.577 321 267.506 321C267.435 321 267.363 321 267.292 321C267.221 321 267.149 321 267.078 321C267.006 321 266.935 321 266.863 321C266.792 321 266.72 321 266.649 321C266.577 321 266.506 321 266.434 321C266.363 321 266.291 321 266.22 321C266.148 321 266.076 321 266.005 321C265.933 321 265.861 321 265.79 321C265.718 321 265.646 321 265.575 321C265.503 321 265.431 321 265.359 321C265.288 321 265.216 321 265.144 321C265.072 321 265 321 264.929 321C264.857 321 264.785 321 264.713 321C264.641 321 264.569 321 264.497 321C264.425 321 264.353 321 264.281 321C264.209 321 264.137 321 264.065 321C263.993 321 263.921 321 263.849 321C263.777 321 263.704 321 263.632 321C263.56 321 263.488 321 263.416 321C263.344 321 263.271 321 263.199 321C263.127 321 263.055 321 262.982 321C262.91 321 262.838 321 262.765 321C262.693 321 262.621 321 262.548 321C262.476 321 262.403 321 262.331 321C262.258 321 262.186 321 262.113 321C262.041 321 261.968 321 261.896 321C261.823 321 261.751 321 261.678 321C261.605 321 261.533 321 261.46 321C261.387 321 261.315 321 261.242 321C261.169 321 261.096 321 261.024 321C260.951 321 260.878 321 260.805 321C260.732 321 260.659 321 260.586 321C260.514 321 260.441 321 260.368 321C260.295 321 260.222 321 260.149 321C260.076 321 260.003 321 259.929 321C259.856 321 259.783 321 259.71 321C259.637 321 259.564 321 259.491 321C259.417 321 259.344 321 259.271 321C259.198 321 259.124 321 259.051 321C258.978 321 258.904 321 258.831 321C258.758 321 258.684 321 258.611 321C258.537 321 258.464 321 258.39 321C258.317 321 258.243 321 258.17 321C258.096 321 258.023 321 257.949 321C257.875 321 257.802 321 257.728 321C257.654 321 257.581 321 257.507 321C257.433 321 257.359 321 257.286 321C257.212 321 257.138 321 257.064 321C256.99 321 256.916 321 256.842 321C256.768 321 256.694 321 256.62 321C256.546 321 256.472 321 256.398 321C256.324 321 256.25 321 256.176 321C256.102 321 256.027 321 255.953 321C255.879 321 255.805 321 255.73 321C255.656 321 255.582 321 255.507 321C255.433 321 255.359 321 255.284 321C255.21 321 255.135 321 255.061 321C254.986 321 254.912 321 254.837 321C254.763 321 254.688 321 254.613 321C254.539 321 254.464 321 254.389 321C254.315 321 254.24 321 254.165 321C254.09 321 254.016 321 253.941 321C253.866 321 253.791 321 253.716 321C253.641 321 253.566 321 253.491 321C253.416 321 253.341 321 253.266 321C253.191 321 253.116 321 253.041 321C252.966 321 252.89 321 252.815 321C252.74 321 252.665 321 252.589 321C252.514 321 252.439 321 252.363 321C252.288 321 252.213 321 252.137 321C252.062 321 251.986 321 251.911 321C251.835 321 251.76 321 251.684 321C251.608 321 251.533 321 251.457 321C251.381 321 251.306 321 251.23 321C251.154 321 251.078 321 251.003 321C250.927 321 250.851 321 250.775 321C250.699 321 250.623 321 250.547 321C250.471 321 250.395 321 250.319 321C250.243 321 250.167 321 250.09 321C250.014 321 249.938 321 249.862 321C249.786 321 249.709 321 249.633 321C249.557 321 249.48 321 249.404 321C249.328 321 249.251 321 249.175 321C249.098 321 249.022 321 248.945 321C248.868 321 248.792 321 248.715 321C248.638 321 248.562 321 248.485 321C248.408 321 248.331 321 248.255 321C248.178 321 248.101 321 248.024 321C247.947 321 247.87 321 247.793 321C247.716 321 247.639 321 247.562 321C247.485 321 247.408 321 247.331 321C247.253 321 247.176 321 247.099 321C247.022 321 246.944 321 246.867 321C246.79 321 246.712 321 246.635 321C246.557 321 246.48 321 246.402 321C246.325 321 246.247 321 246.17 321C246.092 321 246.014 321 245.937 321C245.859 321 245.781 321 245.703 321C245.625 321 245.548 321 245.47 321C245.392 321 245.314 321 245.236 321C245.158 321 245.08 321 245.002 321C244.924 321 244.846 321 244.767 321C244.689 321 244.611 321 244.533 321C244.454 321 244.376 321 244.298 321C244.219 321 244.141 321 244.063 321C243.984 321 243.906 321 243.827 321C243.748 321 243.67 321 243.591 321C243.513 321 243.434 321 243.355 321C243.276 321 243.198 321 243.119 321C243.04 321 242.961 321 242.882 321C242.803 321 242.724 321 242.645 321C242.566 321 242.487 321 242.408 321C242.329 321 242.249 321 242.17 321C242.091 321 242.012 321 241.932 321C241.853 321 241.774 321 241.694 321C241.615 321 241.535 321 241.456 321C241.376 321 241.297 321 241.217 321C241.137 321 241.058 321 240.978 321C240.898 321 240.818 321 240.739 321C240.659 321 240.579 321 240.499 321C240.419 321 240.339 321 240.259 321C240.179 321 240.099 321 240.019 321C239.939 321 239.858 321 239.778 321C239.698 321 239.618 321 239.537 321C239.457 321 239.376 321 239.296 321C239.215 321 239.135 321 239.054 321C238.974 321 238.893 321 238.813 321C238.732 321 238.651 321 238.57 321C238.49 321 238.409 321 238.328 321C238.247 321 238.166 321 238.085 321C238.004 321 237.923 321 237.842 321C237.761 321 237.68 321 237.598 321C237.517 321 237.436 321 237.355 321C237.273 321 237.192 321 237.11 321C237.029 321 236.948 321 236.866 321C236.784 321 236.703 321 236.621 321C236.54 321 236.458 321 236.376 321C236.294 321 236.212 321 236.131 321C236.049 321 235.967 321 235.885 321C235.803 321 235.721 321 235.639 321C235.557 321 235.474 321 235.392 321C235.31 321 235.228 321 235.145 321C235.063 321 234.981 321 234.898 321C234.816 321 234.733 321 234.651 321C234.568 321 234.486 321 234.403 321C234.32 321 234.237 321 234.155 321C234.072 321 233.989 321 233.906 321C233.823 321 233.74 321 233.657 321C233.574 321 233.491 321 233.408 321C233.325 321 233.242 321 233.158 321C233.075 321 232.992 321 232.908 321C232.825 321 232.742 321 232.658 321C232.575 321 232.491 321 232.407 321C232.324 321 232.24 321 232.156 321C232.073 321 231.989 321 231.905 321C231.821 321 231.737 321 231.653 321C231.569 321 231.485 321 231.401 321C231.317 321 231.233 321 231.149 321C231.065 321 230.98 321 230.896 321C230.812 321 230.727 321 230.643 321C230.558 321 230.474 321 230.389 321C230.304 321 230.22 321 230.135 321C230.05 321 229.966 321 229.881 321C229.796 321 229.711 321 229.626 321C229.541 321 229.456 321 229.371 321C229.286 321 229.201 321 229.116 321C229.03 321 228.945 321 228.86 321C228.774 321 228.689 321 228.603 321C228.518 321 228.432 321 228.347 321C228.261 321 228.176 321 228.09 321C228.004 321 227.918 321 227.832 321C227.747 321 227.661 321 227.575 321C227.489 321 227.403 321 227.317 321C227.23 321 227.144 321 227.058 321C226.972 321 226.885 321 226.799 321C226.713 321 226.626 321 226.54 321C226.453 321 226.367 321 226.28 321C226.193 321 226.107 321 226.02 321C225.933 321 225.846 321 225.759 321C225.672 321 225.585 321 225.498 321C225.411 321 225.324 321 225.237 321C225.15 321 225.063 321 224.975 321C224.888 321 224.801 321 224.713 321C224.626 321 224.538 321 224.451 321C224.363 321 224.275 321 224.188 321C224.1 321 224.012 321 223.924 321C223.837 321 223.749 321 223.661 321C223.573 321 223.485 321 223.396 321C223.308 321 223.22 321 223.132 321C223.044 321 222.955 321 222.867 321C222.778 321 222.69 321 222.601 321C222.513 321 222.424 321 222.336 321C222.247 321 222.158 321 222.069 321C221.98 321 221.892 321 221.803 321C221.714 321 221.625 321 221.536 321C221.446 321 221.357 321 221.268 321C221.179 321 221.089 321 221 321V323C221.089 323 221.179 323 221.268 323C221.357 323 221.446 323 221.536 323C221.625 323 221.714 323 221.803 323C221.892 323 221.98 323 222.069 323C222.158 323 222.247 323 222.336 323C222.424 323 222.513 323 222.601 323C222.69 323 222.778 323 222.867 323C222.955 323 223.044 323 223.132 323C223.22 323 223.308 323 223.396 323C223.485 323 223.573 323 223.661 323C223.749 323 223.837 323 223.924 323C224.012 323 224.1 323 224.188 323C224.275 323 224.363 323 224.451 323C224.538 323 224.626 323 224.713 323C224.801 323 224.888 323 224.975 323C225.063 323 225.15 323 225.237 323C225.324 323 225.411 323 225.498 323C225.585 323 225.672 323 225.759 323C225.846 323 225.933 323 226.02 323C226.107 323 226.193 323 226.28 323C226.367 323 226.453 323 226.54 323C226.626 323 226.713 323 226.799 323C226.885 323 226.972 323 227.058 323C227.144 323 227.23 323 227.317 323C227.403 323 227.489 323 227.575 323C227.661 323 227.747 323 227.832 323C227.918 323 228.004 323 228.09 323C228.176 323 228.261 323 228.347 323C228.432 323 228.518 323 228.603 323C228.689 323 228.774 323 228.86 323C228.945 323 229.03 323 229.116 323C229.201 323 229.286 323 229.371 323C229.456 323 229.541 323 229.626 323C229.711 323 229.796 323 229.881 323C229.966 323 230.05 323 230.135 323C230.22 323 230.304 323 230.389 323C230.474 323 230.558 323 230.643 323C230.727 323 230.812 323 230.896 323C230.98 323 231.065 323 231.149 323C231.233 323 231.317 323 231.401 323C231.485 323 231.569 323 231.653 323C231.737 323 231.821 323 231.905 323C231.989 323 232.073 323 232.156 323C232.24 323 232.324 323 232.407 323C232.491 323 232.575 323 232.658 323C232.742 323 232.825 323 232.908 323C232.992 323 233.075 323 233.158 323C233.242 323 233.325 323 233.408 323C233.491 323 233.574 323 233.657 323C233.74 323 233.823 323 233.906 323C233.989 323 234.072 323 234.155 323C234.237 323 234.32 323 234.403 323C234.486 323 234.568 323 234.651 323C234.733 323 234.816 323 234.898 323C234.981 323 235.063 323 235.145 323C235.228 323 235.31 323 235.392 323C235.474 323 235.557 323 235.639 323C235.721 323 235.803 323 235.885 323C235.967 323 236.049 323 236.131 323C236.212 323 236.294 323 236.376 323C236.458 323 236.54 323 236.621 323C236.703 323 236.784 323 236.866 323C236.948 323 237.029 323 237.11 323C237.192 323 237.273 323 237.355 323C237.436 323 237.517 323 237.598 323C237.68 323 237.761 323 237.842 323C237.923 323 238.004 323 238.085 323C238.166 323 238.247 323 238.328 323C238.409 323 238.49 323 238.57 323C238.651 323 238.732 323 238.813 323C238.893 323 238.974 323 239.054 323C239.135 323 239.215 323 239.296 323C239.376 323 239.457 323 239.537 323C239.618 323 239.698 323 239.778 323C239.858 323 239.939 323 240.019 323C240.099 323 240.179 323 240.259 323C240.339 323 240.419 323 240.499 323C240.579 323 240.659 323 240.739 323C240.818 323 240.898 323 240.978 323C241.058 323 241.137 323 241.217 323C241.297 323 241.376 323 241.456 323C241.535 323 241.615 323 241.694 323C241.774 323 241.853 323 241.932 323C242.012 323 242.091 323 242.17 323C242.249 323 242.329 323 242.408 323C242.487 323 242.566 323 242.645 323C242.724 323 242.803 323 242.882 323C242.961 323 243.04 323 243.119 323C243.198 323 243.276 323 243.355 323C243.434 323 243.513 323 243.591 323C243.67 323 243.748 323 243.827 323C243.906 323 243.984 323 244.063 323C244.141 323 244.219 323 244.298 323C244.376 323 244.454 323 244.533 323C244.611 323 244.689 323 244.767 323C244.846 323 244.924 323 245.002 323C245.08 323 245.158 323 245.236 323C245.314 323 245.392 323 245.47 323C245.548 323 245.625 323 245.703 323C245.781 323 245.859 323 245.937 323C246.014 323 246.092 323 246.17 323C246.247 323 246.325 323 246.402 323C246.48 323 246.557 323 246.635 323C246.712 323 246.79 323 246.867 323C246.944 323 247.022 323 247.099 323C247.176 323 247.253 323 247.331 323C247.408 323 247.485 323 247.562 323C247.639 323 247.716 323 247.793 323C247.87 323 247.947 323 248.024 323C248.101 323 248.178 323 248.255 323C248.331 323 248.408 323 248.485 323C248.562 323 248.638 323 248.715 323C248.792 323 248.868 323 248.945 323C249.022 323 249.098 323 249.175 323C249.251 323 249.328 323 249.404 323C249.48 323 249.557 323 249.633 323C249.709 323 249.786 323 249.862 323C249.938 323 250.014 323 250.09 323C250.167 323 250.243 323 250.319 323C250.395 323 250.471 323 250.547 323C250.623 323 250.699 323 250.775 323C250.851 323 250.927 323 251.003 323C251.078 323 251.154 323 251.23 323C251.306 323 251.381 323 251.457 323C251.533 323 251.608 323 251.684 323C251.76 323 251.835 323 251.911 323C251.986 323 252.062 323 252.137 323C252.213 323 252.288 323 252.363 323C252.439 323 252.514 323 252.589 323C252.665 323 252.74 323 252.815 323C252.89 323 252.966 323 253.041 323C253.116 323 253.191 323 253.266 323C253.341 323 253.416 323 253.491 323C253.566 323 253.641 323 253.716 323C253.791 323 253.866 323 253.941 323C254.016 323 254.09 323 254.165 323C254.24 323 254.315 323 254.389 323C254.464 323 254.539 323 254.613 323C254.688 323 254.763 323 254.837 323C254.912 323 254.986 323 255.061 323C255.135 323 255.21 323 255.284 323C255.359 323 255.433 323 255.507 323C255.582 323 255.656 323 255.73 323C255.805 323 255.879 323 255.953 323C256.027 323 256.102 323 256.176 323C256.25 323 256.324 323 256.398 323C256.472 323 256.546 323 256.62 323C256.694 323 256.768 323 256.842 323C256.916 323 256.99 323 257.064 323C257.138 323 257.212 323 257.286 323C257.359 323 257.433 323 257.507 323C257.581 323 257.654 323 257.728 323C257.802 323 257.875 323 257.949 323C258.023 323 258.096 323 258.17 323C258.243 323 258.317 323 258.39 323C258.464 323 258.537 323 258.611 323C258.684 323 258.758 323 258.831 323C258.904 323 258.978 323 259.051 323C259.124 323 259.198 323 259.271 323C259.344 323 259.417 323 259.491 323C259.564 323 259.637 323 259.71 323C259.783 323 259.856 323 259.929 323C260.003 323 260.076 323 260.149 323C260.222 323 260.295 323 260.368 323C260.441 323 260.514 323 260.586 323C260.659 323 260.732 323 260.805 323C260.878 323 260.951 323 261.024 323C261.096 323 261.169 323 261.242 323C261.315 323 261.387 323 261.46 323C261.533 323 261.605 323 261.678 323C261.751 323 261.823 323 261.896 323C261.968 323 262.041 323 262.113 323C262.186 323 262.258 323 262.331 323C262.403 323 262.476 323 262.548 323C262.621 323 262.693 323 262.765 323C262.838 323 262.91 323 262.982 323C263.055 323 263.127 323 263.199 323C263.271 323 263.344 323 263.416 323C263.488 323 263.56 323 263.632 323C263.704 323 263.777 323 263.849 323C263.921 323 263.993 323 264.065 323C264.137 323 264.209 323 264.281 323C264.353 323 264.425 323 264.497 323C264.569 323 264.641 323 264.713 323C264.785 323 264.857 323 264.929 323C265 323 265.072 323 265.144 323C265.216 323 265.288 323 265.359 323C265.431 323 265.503 323 265.575 323C265.646 323 265.718 323 265.79 323C265.861 323 265.933 323 266.005 323C266.076 323 266.148 323 266.22 323C266.291 323 266.363 323 266.434 323C266.506 323 266.577 323 266.649 323C266.72 323 266.792 323 266.863 323C266.935 323 267.006 323 267.078 323C267.149 323 267.221 323 267.292 323C267.363 323 267.435 323 267.506 323C267.577 323 267.649 323 267.72 323C267.791 323 267.863 323 267.934 323C268.005 323 268.076 323 268.148 323C268.219 323 268.29 323 268.361 323C268.432 323 268.504 323 268.575 323C268.646 323 268.717 323 268.788 323C268.859 323 268.93 323 269.001 323C269.072 323 269.143 323 269.214 323C269.286 323 269.357 323 269.428 323C269.499 323 269.569 323 269.64 323C269.711 323 269.782 323 269.853 323C269.924 323 269.995 323 270.066 323C270.137 323 270.208 323 270.279 323C270.35 323 270.42 323 270.491 323C270.562 323 270.633 323 270.704 323C270.774 323 270.845 323 270.916 323C270.987 323 271.057 323 271.128 323C271.199 323 271.27 323 271.34 323C271.411 323 271.482 323 271.552 323C271.623 323 271.694 323 271.764 323C271.835 323 271.906 323 271.976 323C272.047 323 272.117 323 272.188 323C272.258 323 272.329 323 272.4 323C272.47 323 272.541 323 272.611 323C272.682 323 272.752 323 272.823 323C272.893 323 272.964 323 273.034 323C273.105 323 273.175 323 273.245 323C273.316 323 273.386 323 273.457 323C273.527 323 273.598 323 273.668 323C273.738 323 273.809 323 273.879 323C273.949 323 274.02 323 274.09 323C274.16 323 274.231 323 274.301 323C274.371 323 274.442 323 274.512 323C274.582 323 274.653 323 274.723 323C274.793 323 274.863 323 274.934 323C275.004 323 275.074 323 275.144 323C275.214 323 275.285 323 275.355 323C275.425 323 275.495 323 275.565 323C275.636 323 275.706 323 275.776 323C275.846 323 275.916 323 275.986 323C276.056 323 276.127 323 276.197 323C276.267 323 276.337 323 276.407 323C276.477 323 276.547 323 276.617 323C276.687 323 276.757 323 276.827 323C276.898 323 276.968 323 277.038 323C277.108 323 277.178 323 277.248 323C277.318 323 277.388 323 277.458 323C277.528 323 277.598 323 277.668 323C277.738 323 277.808 323 277.878 323C277.948 323 278.018 323 278.088 323C278.158 323 278.228 323 278.297 323C278.367 323 278.437 323 278.507 323C278.577 323 278.647 323 278.717 323C278.787 323 278.857 323 278.927 323C278.997 323 279.067 323 279.137 323C279.206 323 279.276 323 279.346 323C279.416 323 279.486 323 279.556 323C279.626 323 279.696 323 279.765 323C279.835 323 279.905 323 279.975 323C280.045 323 280.115 323 280.185 323C280.254 323 280.324 323 280.394 323C280.464 323 280.534 323 280.604 323C280.673 323 280.743 323 280.813 323C280.883 323 280.953 323 281.022 323C281.092 323 281.162 323 281.232 323C281.302 323 281.371 323 281.441 323C281.511 323 281.581 323 281.651 323C281.72 323 281.79 323 281.86 323C281.93 323 282 323 282.069 323C282.139 323 282.209 323 282.279 323C282.348 323 282.418 323 282.488 323C282.558 323 282.627 323 282.697 323C282.767 323 282.837 323 282.907 323C282.976 323 283.046 323 283.116 323C283.186 323 283.255 323 283.325 323C283.395 323 283.465 323 283.534 323C283.604 323 283.674 323 283.744 323C283.813 323 283.883 323 283.953 323C284.023 323 284.092 323 284.162 323C284.232 323 284.302 323 284.371 323C284.441 323 284.511 323 284.581 323C284.65 323 284.72 323 284.79 323C284.86 323 284.93 323 284.999 323C285.069 323 285.139 323 285.209 323C285.278 323 285.348 323 285.418 323C285.488 323 285.557 323 285.627 323C285.697 323 285.767 323 285.837 323C285.906 323 285.976 323 286.046 323C286.116 323 286.185 323 286.255 323C286.325 323 286.395 323 286.465 323C286.534 323 286.604 323 286.674 323C286.744 323 286.814 323 286.883 323C286.953 323 287.023 323 287.093 323C287.163 323 287.232 323 287.302 323C287.372 323 287.442 323 287.512 323C287.582 323 287.651 323 287.721 323C287.791 323 287.861 323 287.931 323C288.001 323 288.07 323 288.14 323C288.21 323 288.28 323 288.35 323C288.42 323 288.49 323 288.559 323C288.629 323 288.699 323 288.769 323C288.839 323 288.909 323 288.979 323C289.049 323 289.119 323 289.189 323C289.258 323 289.328 323 289.398 323C289.468 323 289.538 323 289.608 323C289.678 323 289.748 323 289.818 323C289.888 323 289.958 323 290.028 323C290.098 323 290.168 323 290.238 323C290.308 323 290.378 323 290.448 323C290.518 323 290.588 323 290.658 323C290.728 323 290.798 323 290.868 323C290.938 323 291.008 323 291.078 323C291.148 323 291.218 323 291.288 323C291.358 323 291.428 323 291.498 323C291.568 323 291.639 323 291.709 323C291.779 323 291.849 323 291.919 323C291.989 323 292.059 323 292.129 323C292.2 323 292.27 323 292.34 323C292.41 323 292.48 323 292.55 323C292.621 323 292.691 323 292.761 323C292.831 323 292.901 323 292.972 323C293.042 323 293.112 323 293.182 323C293.253 323 293.323 323 293.393 323C293.463 323 293.534 323 293.604 323C293.674 323 293.745 323 293.815 323C293.885 323 293.956 323 294.026 323C294.096 323 294.167 323 294.237 323C294.307 323 294.378 323 294.448 323C294.519 323 294.589 323 294.659 323C294.73 323 294.8 323 294.871 323C294.941 323 295.012 323 295.082 323C295.153 323 295.223 323 295.294 323C295.364 323 295.435 323 295.505 323C295.576 323 295.646 323 295.717 323C295.787 323 295.858 323 295.929 323C295.999 323 296.07 323 296.14 323C296.211 323 296.282 323 296.352 323C296.423 323 296.494 323 296.564 323C296.635 323 296.706 323 296.776 323C296.847 323 296.918 323 296.989 323C297.059 323 297.13 323 297.201 323C297.272 323 297.342 323 297.413 323C297.484 323 297.555 323 297.626 323C297.697 323 297.767 323 297.838 323C297.909 323 297.98 323 298.051 323C298.122 323 298.193 323 298.264 323C298.335 323 298.406 323 298.477 323C298.548 323 298.619 323 298.69 323C298.761 323 298.832 323 298.903 323C298.974 323 299.045 323 299.116 323C299.187 323 299.258 323 299.329 323C299.4 323 299.472 323 299.543 323C299.614 323 299.685 323 299.756 323C299.828 323 299.899 323 299.97 323C300.041 323 300.113 323 300.184 323C300.255 323 300.326 323 300.398 323C300.469 323 300.54 323 300.612 323C300.683 323 300.754 323 300.826 323C300.897 323 300.969 323 301.04 323C301.112 323 301.183 323 301.255 323C301.326 323 301.398 323 301.469 323C301.541 323 301.612 323 301.684 323C301.755 323 301.827 323 301.899 323C301.97 323 302.042 323 302.113 323C302.185 323 302.257 323 302.329 323C302.4 323 302.472 323 302.544 323C302.615 323 302.687 323 302.759 323C302.831 323 302.903 323 302.975 323C303.046 323 303.118 323 303.19 323C303.262 323 303.334 323 303.406 323C303.478 323 303.55 323 303.622 323C303.694 323 303.766 323 303.838 323C303.91 323 303.982 323 304.054 323C304.126 323 304.198 323 304.27 323C304.342 323 304.415 323 304.487 323C304.559 323 304.631 323 304.703 323C304.776 323 304.848 323 304.92 323C304.992 323 305.065 323 305.137 323C305.209 323 305.282 323 305.354 323C305.427 323 305.499 323 305.571 323C305.644 323 305.716 323 305.789 323C305.861 323 305.934 323 306.006 323C306.079 323 306.152 323 306.224 323C306.297 323 306.369 323 306.442 323C306.515 323 306.587 323 306.66 323C306.733 323 306.806 323 306.878 323C306.951 323 307.024 323 307.097 323C307.169 323 307.242 323 307.315 323C307.388 323 307.461 323 307.534 323C307.607 323 307.68 323 307.753 323C307.826 323 307.899 323 307.972 323C308.045 323 308.118 323 308.191 323C308.264 323 308.337 323 308.411 323C308.484 323 308.557 323 308.63 323C308.703 323 308.777 323 308.85 323C308.923 323 308.997 323 309.07 323C309.143 323 309.217 323 309.29 323C309.363 323 309.437 323 309.51 323C309.584 323 309.657 323 309.731 323C309.804 323 309.878 323 309.952 323C310.025 323 310.099 323 310.173 323C310.246 323 310.32 323 310.394 323C310.467 323 310.541 323 310.615 323C310.689 323 310.762 323 310.836 323C310.91 323 310.984 323 311.058 323C311.132 323 311.206 323 311.28 323C311.354 323 311.428 323 311.502 323C311.576 323 311.65 323 311.724 323C311.798 323 311.872 323 311.947 323C312.021 323 312.095 323 312.169 323C312.244 323 312.318 323 312.392 323C312.467 323 312.541 323 312.615 323C312.69 323 312.764 323 312.839 323C312.913 323 312.988 323 313.062 323C313.137 323 313.211 323 313.286 323C313.36 323 313.435 323 313.51 323C313.584 323 313.659 323 313.734 323C313.809 323 313.883 323 313.958 323C314.033 323 314.108 323 314.183 323C314.258 323 314.333 323 314.408 323C314.483 323 314.558 323 314.633 323C314.708 323 314.783 323 314.858 323C314.933 323 315.008 323 315.083 323C315.158 323 315.234 323 315.309 323C315.384 323 315.46 323 315.535 323C315.61 323 315.686 323 315.761 323C315.836 323 315.912 323 315.987 323C316.063 323 316.138 323 316.214 323C316.29 323 316.365 323 316.441 323C316.516 323 316.592 323 316.668 323C316.744 323 316.819 323 316.895 323C316.971 323 317.047 323 317.123 323C317.199 323 317.274 323 317.35 323C317.426 323 317.502 323 317.578 323C317.655 323 317.731 323 317.807 323C317.883 323 317.959 323 318.035 323C318.111 323 318.188 323 318.264 323C318.34 323 318.417 323 318.493 323C318.569 323 318.646 323 318.722 323C318.799 323 318.875 323 318.952 323C319.028 323 319.105 323 319.181 323C319.258 323 319.335 323 319.411 323C319.488 323 319.565 323 319.642 323C319.719 323 319.795 323 319.872 323C319.949 323 320.026 323 320.103 323C320.18 323 320.257 323 320.334 323C320.411 323 320.488 323 320.565 323C320.642 323 320.72 323 320.797 323C320.874 323 320.951 323 321.029 323C321.106 323 321.183 323 321.261 323C321.338 323 321.416 323 321.493 323C321.571 323 321.648 323 321.726 323C321.803 323 321.881 323 321.959 323C322.036 323 322.114 323 322.192 323C322.27 323 322.347 323 322.425 323C322.503 323 322.581 323 322.659 323C322.737 323 322.815 323 322.893 323C322.971 323 323.049 323 323.127 323C323.205 323 323.283 323 323.362 323C323.44 323 323.518 323 323.597 323C323.675 323 323.753 323 323.832 323C323.91 323 323.989 323 324.067 323C324.146 323 324.224 323 324.303 323C324.381 323 324.46 323 324.539 323C324.617 323 324.696 323 324.775 323C324.854 323 324.933 323 325.011 323C325.09 323 325.169 323 325.248 323C325.327 323 325.406 323 325.485 323C325.565 323 325.644 323 325.723 323C325.802 323 325.881 323 325.961 323C326.04 323 326.119 323 326.199 323C326.278 323 326.357 323 326.437 323C326.516 323 326.596 323 326.676 323C326.755 323 326.835 323 326.914 323C326.994 323 327.074 323 327.154 323C327.233 323 327.313 323 327.393 323C327.473 323 327.553 323 327.633 323C327.713 323 327.793 323 327.873 323C327.953 323 328.033 323 328.114 323C328.194 323 328.274 323 328.354 323C328.435 323 328.515 323 328.596 323C328.676 323 328.756 323 328.837 323C328.917 323 328.998 323 329.079 323C329.159 323 329.24 323 329.321 323C329.401 323 329.482 323 329.563 323C329.644 323 329.725 323 329.806 323C329.887 323 329.968 323 330.049 323C330.13 323 330.211 323 330.292 323C330.373 323 330.454 323 330.536 323C330.617 323 330.698 323 330.78 323C330.861 323 330.942 323 331.024 323C331.105 323 331.187 323 331.269 323C331.35 323 331.432 323 331.514 323C331.595 323 331.677 323 331.759 323C331.841 323 331.923 323 332.005 323C332.086 323 332.168 323 332.251 323C332.333 323 332.415 323 332.497 323C332.579 323 332.661 323 332.744 323C332.826 323 332.908 323 332.991 323C333.073 323 333.155 323 333.238 323C333.32 323 333.403 323 333.486 323C333.568 323 333.651 323 333.734 323C333.816 323 333.899 323 333.982 323C334.065 323 334.148 323 334.231 323C334.314 323 334.397 323 334.48 323C334.563 323 334.646 323 334.729 323C334.812 323 334.896 323 334.979 323C335.062 323 335.146 323 335.229 323C335.313 323 335.396 323 335.48 323C335.563 323 335.647 323 335.731 323C335.814 323 335.898 323 335.982 323C336.066 323 336.149 323 336.233 323C336.317 323 336.401 323 336.485 323C336.569 323 336.653 323 336.738 323C336.822 323 336.906 323 336.99 323V321ZM346 312C346 316.969 341.962 321 336.99 321V323C343.064 323 348 318.076 348 312H346Z" fill="#679BFF"/>
<path d="M102 209C102 209.552 102.448 210 103 210C103.552 210 104 209.552 104 209L102 209ZM229.707 128.707C230.098 128.317 230.098 127.683 229.707 127.293L223.343 120.929C222.953 120.538 222.319 120.538 221.929 120.929C221.538 121.319 221.538 121.953 221.929 122.343L227.586 128L221.929 133.657C221.538 134.047 221.538 134.681 221.929 135.071C222.319 135.462 222.953 135.462 223.343 135.071L229.707 128.707ZM229 127L227.067 127L227.067 129L229 129L229 127ZM223.2 127L219.333 127L219.333 129L223.2 129L223.2 127ZM215.467 127L211.6 127L211.6 129L215.467 129L215.467 127ZM207.733 127L203.867 127L203.867 129L207.733 129L207.733 127ZM200 127L196.133 127L196.133 129L200 129L200 127ZM192.267 127L188.4 127L188.4 129L192.267 129L192.267 127ZM184.533 127L180.667 127L180.667 129L184.533 129L184.533 127ZM176.8 127L172.933 127L172.933 129L176.8 129L176.8 127ZM169.067 127L165.2 127L165.2 129L169.067 129L169.067 127ZM161.333 127L157.467 127L157.467 129L161.333 129L161.333 127ZM153.6 127L149.733 127L149.733 129L153.6 129L153.6 127ZM145.867 127L142 127L142 129L145.867 129L145.867 127ZM138.133 127L134.267 127L134.267 129L138.133 129L138.133 127ZM130.4 127L126.533 127L126.533 129L130.4 129L130.4 127ZM122.667 127L118.8 127L118.8 129L122.667 129L122.667 127ZM114.933 127L113 127L113 129L114.933 129L114.933 127ZM113 127C112.267 127 111.549 127.072 110.854 127.209L111.242 129.171C111.81 129.059 112.398 129 113 129L113 127ZM106.888 128.853C105.688 129.656 104.656 130.688 103.853 131.888L105.515 133C106.173 132.018 107.018 131.173 108 130.515L106.888 128.853ZM102.209 135.854C102.072 136.549 102 137.267 102 138L104 138C104 137.398 104.059 136.81 104.171 136.242L102.209 135.854ZM102 138L102 139.972L104 139.972L104 138L102 138ZM102 143.917L102 147.861L104 147.861L104 143.917L102 143.917ZM102 151.806L102 155.75L104 155.75L104 151.806L102 151.806ZM102 159.694L102 163.639L104 163.639L104 159.694L102 159.694ZM102 167.583L102 171.528L104 171.528L104 167.583L102 167.583ZM102 175.472L102 179.417L104 179.417L104 175.472L102 175.472ZM102 183.361L102 187.306L104 187.306L104 183.361L102 183.361ZM102 191.25L102 195.194L104 195.194L104 191.25L102 191.25ZM102 199.139L102 203.083L104 203.083L104 199.139L102 199.139ZM102 207.028L102 209L104 209L104 207.028L102 207.028Z" fill="#679BFF"/>
</svg>
