<svg width="220" height="220" viewBox="0 0 220 220" fill="none" xmlns="http://www.w3.org/2000/svg">
<rect width="220" height="220" fill="#181D29"/>
<path d="M26.77 133.77V162.542V170.503L58.8924 188.347L90.9468 169.421V132.688" stroke="#679BFF" stroke-width="2" stroke-miterlimit="10"/>
<path d="M47.538 145.309L26.77 133.77L58.8244 114.844L90.9468 132.688L58.8924 151.614L55.5918 149.778" stroke="#679BFF" stroke-width="2" stroke-linecap="round" stroke-linejoin="round"/>
<path d="M57.0876 122.1L58.9048 121.024L80.155 132.83L74.4252 136.211" stroke="#679BFF" stroke-width="2" stroke-linecap="round" stroke-linejoin="round"/>
<path d="M64.9189 141.83L58.8121 145.433L37.562 133.627L51.2405 125.555" stroke="#679BFF" stroke-width="2" stroke-linecap="round" stroke-linejoin="round"/>
<path d="M52.2109 135.63L48.354 133.485L58.9852 127.205L69.3631 132.972L60.9755 137.923" stroke="#679BFF" stroke-width="2" stroke-linecap="round" stroke-linejoin="round"/>
<path d="M158.79 34.112C160.306 33.484 161.946 33.2117 163.584 33.316C170.991 33.6449 176.525 38.8021 180.238 46.1375C181.925 49.4739 183.818 52.7294 184.738 56.1468C185.816 56.5072 186.854 56.9784 187.836 57.5529C195.676 62.0809 202.025 72.8052 202.025 81.5467C202.025 85.6791 200.595 88.6199 198.269 90.088L175.005 103.524L175.119 103.467C172.55 104.845 169.004 104.563 165.11 102.304L132.122 83.2387C125.501 79.459 120.154 70.4173 120.154 63.0723C120.154 56.1945 124.815 53.2632 130.797 55.9943C131.054 52.1812 132.455 49.5407 134.653 48.0202L158.79 34.112Z" fill="#181D29"/>
<path d="M134.652 48.0203L158.789 34.1121" stroke="#939393" stroke-width="2" stroke-linecap="round" stroke-linejoin="round"/>
<path d="M157.488 59.2926C159.175 62.6291 161.067 65.8892 161.987 69.3019C163.066 69.6708 164.104 70.15 165.085 70.7318C172.921 75.2551 179.275 85.9841 179.275 94.7256C179.275 103.467 172.921 106.861 165.085 102.352L132.097 83.2864C125.501 79.459 120.153 70.4173 120.153 63.0723C120.153 56.1945 124.814 53.2632 130.796 55.9943C131.273 49.3214 135.229 46.2233 140.829 46.4616C148.236 46.8048 153.77 51.962 157.488 59.2926Z" stroke="#679BFF" stroke-width="2" stroke-linecap="round" stroke-linejoin="round"/>
<path d="M140.948 44.331C142.762 43.1966 144.893 42.6768 147.026 42.8487C154.432 43.1776 159.966 48.3348 163.679 55.6654C165.371 59.0019 167.259 62.262 168.183 65.6747C169.262 66.036 170.3 66.5072 171.282 67.0808C179.117 71.6041 185.471 82.3331 185.471 91.0746C185.471 95.4406 183.884 98.472 181.315 99.8494" stroke="#939393" stroke-width="2" stroke-linecap="round" stroke-linejoin="round"/>
<path d="M147.274 40.6705C149.053 39.6227 151.111 39.1469 153.17 39.3073C160.577 39.6362 166.11 44.7934 169.823 52.1288C171.515 55.4652 173.403 58.7207 174.323 62.1381C175.403 62.5073 176.443 62.9865 177.426 63.568C185.261 68.0913 191.615 78.8203 191.615 87.5618C191.615 91.8515 190.075 94.8638 187.578 96.2699" stroke="#939393" stroke-width="2" stroke-linecap="round" stroke-linejoin="round"/>
<path d="M152.817 37.4627C154.608 36.3987 156.684 35.9158 158.761 36.0805C166.167 36.4094 171.701 41.5666 175.414 48.902C177.106 52.2384 178.994 55.4938 179.918 58.9113C180.997 59.2811 182.035 59.7602 183.016 60.3412C190.852 64.8692 197.206 75.5935 197.206 84.3397C197.206 88.496 195.776 91.4511 193.393 92.9192" stroke="#939393" stroke-width="2" stroke-linecap="round" stroke-linejoin="round"/>
<path d="M175.004 103.534L198.268 90.0975C200.604 88.6295 202.024 85.6886 202.024 81.5562C202.024 72.829 195.675 62.0904 187.835 57.5624C186.853 56.9879 185.815 56.5167 184.737 56.1564C183.817 52.7436 181.925 49.4835 180.237 46.147C176.524 38.8164 170.991 33.6592 163.584 33.316C161.946 33.2117 160.305 33.484 158.789 34.112" stroke="#939393" stroke-width="2" stroke-linecap="round" stroke-linejoin="round"/>
<path d="M170.644 117.822C170.644 117.27 170.197 116.822 169.644 116.822C169.092 116.822 168.644 117.27 168.644 117.822H170.644ZM107.337 156.715C106.947 157.106 106.947 157.739 107.337 158.129L113.701 164.493C114.092 164.884 114.725 164.884 115.116 164.493C115.506 164.103 115.506 163.47 115.116 163.079L109.459 157.422L115.116 151.765C115.506 151.375 115.506 150.742 115.116 150.351C114.725 149.961 114.092 149.961 113.701 150.351L107.337 156.715ZM168.644 117.822V147.422H170.644V117.822H168.644ZM159.64 156.422C159.604 156.422 159.569 156.422 159.533 156.422C159.497 156.422 159.462 156.422 159.426 156.422C159.391 156.422 159.355 156.422 159.32 156.422C159.284 156.422 159.249 156.422 159.213 156.422C159.178 156.422 159.142 156.422 159.107 156.422C159.071 156.422 159.036 156.422 159 156.422C158.965 156.422 158.93 156.422 158.894 156.422C158.859 156.422 158.824 156.422 158.788 156.422C158.753 156.422 158.718 156.422 158.682 156.422C158.647 156.422 158.612 156.422 158.577 156.422C158.541 156.422 158.506 156.422 158.471 156.422C158.436 156.422 158.4 156.422 158.365 156.422C158.33 156.422 158.295 156.422 158.26 156.422C158.225 156.422 158.19 156.422 158.155 156.422C158.119 156.422 158.084 156.422 158.049 156.422C158.014 156.422 157.979 156.422 157.944 156.422C157.909 156.422 157.874 156.422 157.839 156.422C157.804 156.422 157.769 156.422 157.734 156.422C157.699 156.422 157.665 156.422 157.63 156.422C157.595 156.422 157.56 156.422 157.525 156.422C157.49 156.422 157.455 156.422 157.421 156.422C157.386 156.422 157.351 156.422 157.316 156.422C157.281 156.422 157.247 156.422 157.212 156.422C157.177 156.422 157.142 156.422 157.108 156.422C157.073 156.422 157.038 156.422 157.004 156.422C156.969 156.422 156.934 156.422 156.9 156.422C156.865 156.422 156.83 156.422 156.796 156.422C156.761 156.422 156.727 156.422 156.692 156.422C156.657 156.422 156.623 156.422 156.588 156.422C156.554 156.422 156.519 156.422 156.485 156.422C156.45 156.422 156.416 156.422 156.381 156.422C156.347 156.422 156.312 156.422 156.278 156.422C156.244 156.422 156.209 156.422 156.175 156.422C156.14 156.422 156.106 156.422 156.072 156.422C156.037 156.422 156.003 156.422 155.969 156.422C155.934 156.422 155.9 156.422 155.866 156.422C155.831 156.422 155.797 156.422 155.763 156.422C155.729 156.422 155.694 156.422 155.66 156.422C155.626 156.422 155.592 156.422 155.558 156.422C155.523 156.422 155.489 156.422 155.455 156.422C155.421 156.422 155.387 156.422 155.353 156.422C155.319 156.422 155.285 156.422 155.25 156.422C155.216 156.422 155.182 156.422 155.148 156.422C155.114 156.422 155.08 156.422 155.046 156.422C155.012 156.422 154.978 156.422 154.944 156.422C154.91 156.422 154.876 156.422 154.842 156.422C154.808 156.422 154.774 156.422 154.74 156.422C154.707 156.422 154.673 156.422 154.639 156.422C154.605 156.422 154.571 156.422 154.537 156.422C154.503 156.422 154.469 156.422 154.436 156.422C154.402 156.422 154.368 156.422 154.334 156.422C154.3 156.422 154.267 156.422 154.233 156.422C154.199 156.422 154.165 156.422 154.132 156.422C154.098 156.422 154.064 156.422 154.03 156.422C153.997 156.422 153.963 156.422 153.929 156.422C153.896 156.422 153.862 156.422 153.828 156.422C153.795 156.422 153.761 156.422 153.728 156.422C153.694 156.422 153.66 156.422 153.627 156.422C153.593 156.422 153.56 156.422 153.526 156.422C153.493 156.422 153.459 156.422 153.426 156.422C153.392 156.422 153.359 156.422 153.325 156.422C153.292 156.422 153.258 156.422 153.225 156.422C153.191 156.422 153.158 156.422 153.124 156.422C153.091 156.422 153.057 156.422 153.024 156.422C152.991 156.422 152.957 156.422 152.924 156.422C152.891 156.422 152.857 156.422 152.824 156.422C152.79 156.422 152.757 156.422 152.724 156.422C152.691 156.422 152.657 156.422 152.624 156.422C152.591 156.422 152.557 156.422 152.524 156.422C152.491 156.422 152.458 156.422 152.424 156.422C152.391 156.422 152.358 156.422 152.325 156.422C152.292 156.422 152.258 156.422 152.225 156.422C152.192 156.422 152.159 156.422 152.126 156.422C152.093 156.422 152.059 156.422 152.026 156.422C151.993 156.422 151.96 156.422 151.927 156.422C151.894 156.422 151.861 156.422 151.828 156.422C151.795 156.422 151.762 156.422 151.729 156.422C151.696 156.422 151.662 156.422 151.629 156.422C151.596 156.422 151.563 156.422 151.53 156.422C151.497 156.422 151.464 156.422 151.432 156.422C151.399 156.422 151.366 156.422 151.333 156.422C151.3 156.422 151.267 156.422 151.234 156.422C151.201 156.422 151.168 156.422 151.135 156.422C151.102 156.422 151.069 156.422 151.037 156.422C151.004 156.422 150.971 156.422 150.938 156.422C150.905 156.422 150.872 156.422 150.84 156.422C150.807 156.422 150.774 156.422 150.741 156.422C150.708 156.422 150.676 156.422 150.643 156.422C150.61 156.422 150.577 156.422 150.545 156.422C150.512 156.422 150.479 156.422 150.446 156.422C150.414 156.422 150.381 156.422 150.348 156.422C150.316 156.422 150.283 156.422 150.25 156.422C150.218 156.422 150.185 156.422 150.152 156.422C150.12 156.422 150.087 156.422 150.054 156.422C150.022 156.422 149.989 156.422 149.957 156.422C149.924 156.422 149.891 156.422 149.859 156.422C149.826 156.422 149.794 156.422 149.761 156.422C149.729 156.422 149.696 156.422 149.663 156.422C149.631 156.422 149.598 156.422 149.566 156.422C149.533 156.422 149.501 156.422 149.468 156.422C149.436 156.422 149.403 156.422 149.371 156.422C149.339 156.422 149.306 156.422 149.274 156.422C149.241 156.422 149.209 156.422 149.176 156.422C149.144 156.422 149.111 156.422 149.079 156.422C149.047 156.422 149.014 156.422 148.982 156.422C148.95 156.422 148.917 156.422 148.885 156.422C148.852 156.422 148.82 156.422 148.788 156.422C148.755 156.422 148.723 156.422 148.691 156.422C148.658 156.422 148.626 156.422 148.594 156.422C148.562 156.422 148.529 156.422 148.497 156.422C148.465 156.422 148.432 156.422 148.4 156.422C148.368 156.422 148.336 156.422 148.303 156.422C148.271 156.422 148.239 156.422 148.207 156.422C148.174 156.422 148.142 156.422 148.11 156.422C148.078 156.422 148.046 156.422 148.014 156.422C147.981 156.422 147.949 156.422 147.917 156.422C147.885 156.422 147.853 156.422 147.821 156.422C147.788 156.422 147.756 156.422 147.724 156.422C147.692 156.422 147.66 156.422 147.628 156.422C147.596 156.422 147.564 156.422 147.531 156.422C147.499 156.422 147.467 156.422 147.435 156.422C147.403 156.422 147.371 156.422 147.339 156.422C147.307 156.422 147.275 156.422 147.243 156.422C147.211 156.422 147.179 156.422 147.147 156.422C147.115 156.422 147.083 156.422 147.051 156.422C147.019 156.422 146.987 156.422 146.955 156.422C146.923 156.422 146.891 156.422 146.859 156.422C146.827 156.422 146.795 156.422 146.763 156.422C146.731 156.422 146.699 156.422 146.667 156.422C146.635 156.422 146.603 156.422 146.571 156.422C146.539 156.422 146.508 156.422 146.476 156.422C146.444 156.422 146.412 156.422 146.38 156.422C146.348 156.422 146.316 156.422 146.284 156.422C146.252 156.422 146.221 156.422 146.189 156.422C146.157 156.422 146.125 156.422 146.093 156.422C146.061 156.422 146.029 156.422 145.998 156.422C145.966 156.422 145.934 156.422 145.902 156.422C145.87 156.422 145.839 156.422 145.807 156.422C145.775 156.422 145.743 156.422 145.711 156.422C145.68 156.422 145.648 156.422 145.616 156.422C145.584 156.422 145.553 156.422 145.521 156.422C145.489 156.422 145.457 156.422 145.426 156.422C145.394 156.422 145.362 156.422 145.33 156.422C145.299 156.422 145.267 156.422 145.235 156.422C145.203 156.422 145.172 156.422 145.14 156.422C145.108 156.422 145.077 156.422 145.045 156.422C145.013 156.422 144.982 156.422 144.95 156.422C144.918 156.422 144.887 156.422 144.855 156.422C144.823 156.422 144.792 156.422 144.76 156.422C144.728 156.422 144.697 156.422 144.665 156.422C144.633 156.422 144.602 156.422 144.57 156.422C144.538 156.422 144.507 156.422 144.475 156.422C144.444 156.422 144.412 156.422 144.38 156.422C144.349 156.422 144.317 156.422 144.286 156.422C144.254 156.422 144.222 156.422 144.191 156.422C144.159 156.422 144.128 156.422 144.096 156.422C144.065 156.422 144.033 156.422 144.001 156.422C143.97 156.422 143.938 156.422 143.907 156.422C143.875 156.422 143.844 156.422 143.812 156.422C143.781 156.422 143.749 156.422 143.718 156.422C143.686 156.422 143.654 156.422 143.623 156.422C143.591 156.422 143.56 156.422 143.528 156.422C143.497 156.422 143.465 156.422 143.434 156.422C143.402 156.422 143.371 156.422 143.339 156.422C143.308 156.422 143.276 156.422 143.245 156.422C143.213 156.422 143.182 156.422 143.151 156.422C143.119 156.422 143.088 156.422 143.056 156.422C143.025 156.422 142.993 156.422 142.962 156.422C142.93 156.422 142.899 156.422 142.867 156.422C142.836 156.422 142.805 156.422 142.773 156.422C142.742 156.422 142.71 156.422 142.679 156.422C142.647 156.422 142.616 156.422 142.585 156.422C142.553 156.422 142.522 156.422 142.49 156.422C142.459 156.422 142.427 156.422 142.396 156.422C142.365 156.422 142.333 156.422 142.302 156.422C142.27 156.422 142.239 156.422 142.208 156.422C142.176 156.422 142.145 156.422 142.113 156.422C142.082 156.422 142.051 156.422 142.019 156.422C141.988 156.422 141.957 156.422 141.925 156.422C141.894 156.422 141.862 156.422 141.831 156.422C141.8 156.422 141.768 156.422 141.737 156.422C141.706 156.422 141.674 156.422 141.643 156.422C141.612 156.422 141.58 156.422 141.549 156.422C141.518 156.422 141.486 156.422 141.455 156.422C141.424 156.422 141.392 156.422 141.361 156.422C141.33 156.422 141.298 156.422 141.267 156.422C141.236 156.422 141.204 156.422 141.173 156.422C141.142 156.422 141.11 156.422 141.079 156.422C141.048 156.422 141.016 156.422 140.985 156.422C140.954 156.422 140.922 156.422 140.891 156.422C140.86 156.422 140.828 156.422 140.797 156.422C140.766 156.422 140.734 156.422 140.703 156.422C140.672 156.422 140.641 156.422 140.609 156.422C140.578 156.422 140.547 156.422 140.515 156.422C140.484 156.422 140.453 156.422 140.421 156.422C140.39 156.422 140.359 156.422 140.328 156.422C140.296 156.422 140.265 156.422 140.234 156.422C140.202 156.422 140.171 156.422 140.14 156.422C140.109 156.422 140.077 156.422 140.046 156.422C140.015 156.422 139.983 156.422 139.952 156.422C139.921 156.422 139.89 156.422 139.858 156.422C139.827 156.422 139.796 156.422 139.764 156.422C139.733 156.422 139.702 156.422 139.671 156.422C139.639 156.422 139.608 156.422 139.577 156.422C139.546 156.422 139.514 156.422 139.483 156.422C139.452 156.422 139.42 156.422 139.389 156.422C139.358 156.422 139.327 156.422 139.295 156.422C139.264 156.422 139.233 156.422 139.202 156.422C139.17 156.422 139.139 156.422 139.108 156.422C139.077 156.422 139.045 156.422 139.014 156.422C138.983 156.422 138.951 156.422 138.92 156.422C138.889 156.422 138.858 156.422 138.826 156.422C138.795 156.422 138.764 156.422 138.733 156.422C138.701 156.422 138.67 156.422 138.639 156.422C138.608 156.422 138.576 156.422 138.545 156.422C138.514 156.422 138.482 156.422 138.451 156.422C138.42 156.422 138.389 156.422 138.357 156.422C138.326 156.422 138.295 156.422 138.264 156.422C138.232 156.422 138.201 156.422 138.17 156.422C138.138 156.422 138.107 156.422 138.076 156.422C138.045 156.422 138.013 156.422 137.982 156.422C137.951 156.422 137.92 156.422 137.888 156.422C137.857 156.422 137.826 156.422 137.794 156.422C137.763 156.422 137.732 156.422 137.701 156.422C137.669 156.422 137.638 156.422 137.607 156.422C137.575 156.422 137.544 156.422 137.513 156.422C137.482 156.422 137.45 156.422 137.419 156.422C137.388 156.422 137.356 156.422 137.325 156.422C137.294 156.422 137.263 156.422 137.231 156.422C137.2 156.422 137.169 156.422 137.137 156.422C137.106 156.422 137.075 156.422 137.044 156.422C137.012 156.422 136.981 156.422 136.95 156.422C136.918 156.422 136.887 156.422 136.856 156.422C136.824 156.422 136.793 156.422 136.762 156.422C136.73 156.422 136.699 156.422 136.668 156.422C136.636 156.422 136.605 156.422 136.574 156.422C136.542 156.422 136.511 156.422 136.48 156.422C136.449 156.422 136.417 156.422 136.386 156.422C136.355 156.422 136.323 156.422 136.292 156.422C136.261 156.422 136.229 156.422 136.198 156.422C136.166 156.422 136.135 156.422 136.104 156.422C136.072 156.422 136.041 156.422 136.01 156.422C135.978 156.422 135.947 156.422 135.916 156.422C135.884 156.422 135.853 156.422 135.822 156.422C135.79 156.422 135.759 156.422 135.727 156.422C135.696 156.422 135.665 156.422 135.633 156.422C135.602 156.422 135.571 156.422 135.539 156.422C135.508 156.422 135.476 156.422 135.445 156.422C135.414 156.422 135.382 156.422 135.351 156.422C135.319 156.422 135.288 156.422 135.257 156.422C135.225 156.422 135.194 156.422 135.162 156.422C135.131 156.422 135.1 156.422 135.068 156.422C135.037 156.422 135.005 156.422 134.974 156.422C134.942 156.422 134.911 156.422 134.879 156.422C134.848 156.422 134.817 156.422 134.785 156.422C134.754 156.422 134.722 156.422 134.691 156.422C134.659 156.422 134.628 156.422 134.596 156.422C134.565 156.422 134.533 156.422 134.502 156.422C134.471 156.422 134.439 156.422 134.408 156.422C134.376 156.422 134.345 156.422 134.313 156.422C134.282 156.422 134.25 156.422 134.219 156.422C134.187 156.422 134.156 156.422 134.124 156.422C134.093 156.422 134.061 156.422 134.03 156.422C133.998 156.422 133.966 156.422 133.935 156.422C133.903 156.422 133.872 156.422 133.84 156.422C133.809 156.422 133.777 156.422 133.746 156.422C133.714 156.422 133.683 156.422 133.651 156.422C133.619 156.422 133.588 156.422 133.556 156.422C133.525 156.422 133.493 156.422 133.462 156.422C133.43 156.422 133.398 156.422 133.367 156.422C133.335 156.422 133.304 156.422 133.272 156.422C133.24 156.422 133.209 156.422 133.177 156.422C133.146 156.422 133.114 156.422 133.082 156.422C133.051 156.422 133.019 156.422 132.987 156.422C132.956 156.422 132.924 156.422 132.892 156.422C132.861 156.422 132.829 156.422 132.797 156.422C132.766 156.422 132.734 156.422 132.702 156.422C132.671 156.422 132.639 156.422 132.607 156.422C132.576 156.422 132.544 156.422 132.512 156.422C132.481 156.422 132.449 156.422 132.417 156.422C132.385 156.422 132.354 156.422 132.322 156.422C132.29 156.422 132.258 156.422 132.227 156.422C132.195 156.422 132.163 156.422 132.131 156.422C132.1 156.422 132.068 156.422 132.036 156.422C132.004 156.422 131.973 156.422 131.941 156.422C131.909 156.422 131.877 156.422 131.845 156.422C131.814 156.422 131.782 156.422 131.75 156.422C131.718 156.422 131.686 156.422 131.654 156.422C131.623 156.422 131.591 156.422 131.559 156.422C131.527 156.422 131.495 156.422 131.463 156.422C131.431 156.422 131.4 156.422 131.368 156.422C131.336 156.422 131.304 156.422 131.272 156.422C131.24 156.422 131.208 156.422 131.176 156.422C131.144 156.422 131.113 156.422 131.081 156.422C131.049 156.422 131.017 156.422 130.985 156.422C130.953 156.422 130.921 156.422 130.889 156.422C130.857 156.422 130.825 156.422 130.793 156.422C130.761 156.422 130.729 156.422 130.697 156.422C130.665 156.422 130.633 156.422 130.601 156.422C130.569 156.422 130.537 156.422 130.505 156.422C130.473 156.422 130.441 156.422 130.409 156.422C130.377 156.422 130.345 156.422 130.313 156.422C130.281 156.422 130.249 156.422 130.217 156.422C130.185 156.422 130.152 156.422 130.12 156.422C130.088 156.422 130.056 156.422 130.024 156.422C129.992 156.422 129.96 156.422 129.928 156.422C129.896 156.422 129.863 156.422 129.831 156.422C129.799 156.422 129.767 156.422 129.735 156.422C129.703 156.422 129.67 156.422 129.638 156.422C129.606 156.422 129.574 156.422 129.542 156.422C129.509 156.422 129.477 156.422 129.445 156.422C129.413 156.422 129.38 156.422 129.348 156.422C129.316 156.422 129.284 156.422 129.251 156.422C129.219 156.422 129.187 156.422 129.155 156.422C129.122 156.422 129.09 156.422 129.058 156.422C129.025 156.422 128.993 156.422 128.961 156.422C128.928 156.422 128.896 156.422 128.864 156.422C128.831 156.422 128.799 156.422 128.767 156.422C128.734 156.422 128.702 156.422 128.67 156.422C128.637 156.422 128.605 156.422 128.572 156.422C128.54 156.422 128.508 156.422 128.475 156.422C128.443 156.422 128.41 156.422 128.378 156.422C128.345 156.422 128.313 156.422 128.28 156.422C128.248 156.422 128.215 156.422 128.183 156.422C128.15 156.422 128.118 156.422 128.085 156.422C128.053 156.422 128.02 156.422 127.988 156.422C127.955 156.422 127.923 156.422 127.89 156.422C127.858 156.422 127.825 156.422 127.792 156.422C127.76 156.422 127.727 156.422 127.695 156.422C127.662 156.422 127.629 156.422 127.597 156.422C127.564 156.422 127.532 156.422 127.499 156.422C127.466 156.422 127.434 156.422 127.401 156.422C127.368 156.422 127.336 156.422 127.303 156.422C127.27 156.422 127.237 156.422 127.205 156.422C127.172 156.422 127.139 156.422 127.106 156.422C127.074 156.422 127.041 156.422 127.008 156.422C126.975 156.422 126.943 156.422 126.91 156.422C126.877 156.422 126.844 156.422 126.811 156.422C126.779 156.422 126.746 156.422 126.713 156.422C126.68 156.422 126.647 156.422 126.614 156.422C126.581 156.422 126.549 156.422 126.516 156.422C126.483 156.422 126.45 156.422 126.417 156.422C126.384 156.422 126.351 156.422 126.318 156.422C126.285 156.422 126.252 156.422 126.219 156.422C126.186 156.422 126.153 156.422 126.12 156.422C126.087 156.422 126.054 156.422 126.021 156.422C125.988 156.422 125.955 156.422 125.922 156.422C125.889 156.422 125.856 156.422 125.823 156.422C125.79 156.422 125.757 156.422 125.724 156.422C125.691 156.422 125.657 156.422 125.624 156.422C125.591 156.422 125.558 156.422 125.525 156.422C125.492 156.422 125.459 156.422 125.425 156.422C125.392 156.422 125.359 156.422 125.326 156.422C125.293 156.422 125.259 156.422 125.226 156.422C125.193 156.422 125.16 156.422 125.126 156.422C125.093 156.422 125.06 156.422 125.026 156.422C124.993 156.422 124.96 156.422 124.927 156.422C124.893 156.422 124.86 156.422 124.827 156.422C124.793 156.422 124.76 156.422 124.726 156.422C124.693 156.422 124.66 156.422 124.626 156.422C124.593 156.422 124.559 156.422 124.526 156.422C124.493 156.422 124.459 156.422 124.426 156.422C124.392 156.422 124.359 156.422 124.325 156.422C124.292 156.422 124.258 156.422 124.225 156.422C124.191 156.422 124.158 156.422 124.124 156.422C124.09 156.422 124.057 156.422 124.023 156.422C123.99 156.422 123.956 156.422 123.922 156.422C123.889 156.422 123.855 156.422 123.822 156.422C123.788 156.422 123.754 156.422 123.721 156.422C123.687 156.422 123.653 156.422 123.619 156.422C123.586 156.422 123.552 156.422 123.518 156.422C123.485 156.422 123.451 156.422 123.417 156.422C123.383 156.422 123.349 156.422 123.316 156.422C123.282 156.422 123.248 156.422 123.214 156.422C123.18 156.422 123.147 156.422 123.113 156.422C123.079 156.422 123.045 156.422 123.011 156.422C122.977 156.422 122.943 156.422 122.909 156.422C122.875 156.422 122.841 156.422 122.807 156.422C122.773 156.422 122.739 156.422 122.705 156.422C122.671 156.422 122.637 156.422 122.603 156.422C122.569 156.422 122.535 156.422 122.501 156.422C122.467 156.422 122.433 156.422 122.399 156.422C122.365 156.422 122.331 156.422 122.297 156.422C122.263 156.422 122.228 156.422 122.194 156.422C122.16 156.422 122.126 156.422 122.092 156.422C122.058 156.422 122.023 156.422 121.989 156.422C121.955 156.422 121.921 156.422 121.886 156.422C121.852 156.422 121.818 156.422 121.784 156.422C121.749 156.422 121.715 156.422 121.681 156.422C121.646 156.422 121.612 156.422 121.578 156.422C121.543 156.422 121.509 156.422 121.474 156.422C121.44 156.422 121.406 156.422 121.371 156.422C121.337 156.422 121.302 156.422 121.268 156.422C121.233 156.422 121.199 156.422 121.164 156.422C121.13 156.422 121.095 156.422 121.061 156.422C121.026 156.422 120.992 156.422 120.957 156.422C120.922 156.422 120.888 156.422 120.853 156.422C120.819 156.422 120.784 156.422 120.749 156.422C120.715 156.422 120.68 156.422 120.645 156.422C120.611 156.422 120.576 156.422 120.541 156.422C120.506 156.422 120.472 156.422 120.437 156.422C120.402 156.422 120.367 156.422 120.333 156.422C120.298 156.422 120.263 156.422 120.228 156.422C120.193 156.422 120.158 156.422 120.124 156.422C120.089 156.422 120.054 156.422 120.019 156.422C119.984 156.422 119.949 156.422 119.914 156.422C119.879 156.422 119.844 156.422 119.809 156.422C119.774 156.422 119.739 156.422 119.704 156.422C119.669 156.422 119.634 156.422 119.599 156.422C119.564 156.422 119.529 156.422 119.494 156.422C119.459 156.422 119.424 156.422 119.388 156.422C119.353 156.422 119.318 156.422 119.283 156.422C119.248 156.422 119.213 156.422 119.177 156.422C119.142 156.422 119.107 156.422 119.072 156.422C119.036 156.422 119.001 156.422 118.966 156.422C118.93 156.422 118.895 156.422 118.86 156.422C118.824 156.422 118.789 156.422 118.754 156.422C118.718 156.422 118.683 156.422 118.648 156.422C118.612 156.422 118.577 156.422 118.541 156.422C118.506 156.422 118.47 156.422 118.435 156.422C118.399 156.422 118.364 156.422 118.328 156.422C118.293 156.422 118.257 156.422 118.222 156.422C118.186 156.422 118.15 156.422 118.115 156.422C118.079 156.422 118.043 156.422 118.008 156.422C117.972 156.422 117.936 156.422 117.901 156.422C117.865 156.422 117.829 156.422 117.794 156.422C117.758 156.422 117.722 156.422 117.686 156.422C117.65 156.422 117.615 156.422 117.579 156.422C117.543 156.422 117.507 156.422 117.471 156.422C117.435 156.422 117.4 156.422 117.364 156.422C117.328 156.422 117.292 156.422 117.256 156.422C117.22 156.422 117.184 156.422 117.148 156.422C117.112 156.422 117.076 156.422 117.04 156.422C117.004 156.422 116.968 156.422 116.932 156.422C116.895 156.422 116.859 156.422 116.823 156.422C116.787 156.422 116.751 156.422 116.715 156.422C116.679 156.422 116.642 156.422 116.606 156.422C116.57 156.422 116.534 156.422 116.497 156.422C116.461 156.422 116.425 156.422 116.389 156.422C116.352 156.422 116.316 156.422 116.28 156.422C116.243 156.422 116.207 156.422 116.17 156.422C116.134 156.422 116.098 156.422 116.061 156.422C116.025 156.422 115.988 156.422 115.952 156.422C115.915 156.422 115.879 156.422 115.842 156.422C115.806 156.422 115.769 156.422 115.733 156.422C115.696 156.422 115.659 156.422 115.623 156.422C115.586 156.422 115.55 156.422 115.513 156.422C115.476 156.422 115.44 156.422 115.403 156.422C115.366 156.422 115.329 156.422 115.293 156.422C115.256 156.422 115.219 156.422 115.182 156.422C115.145 156.422 115.109 156.422 115.072 156.422C115.035 156.422 114.998 156.422 114.961 156.422C114.924 156.422 114.887 156.422 114.85 156.422C114.813 156.422 114.776 156.422 114.739 156.422C114.702 156.422 114.665 156.422 114.628 156.422C114.591 156.422 114.554 156.422 114.517 156.422C114.48 156.422 114.443 156.422 114.406 156.422C114.369 156.422 114.332 156.422 114.294 156.422C114.257 156.422 114.22 156.422 114.183 156.422C114.145 156.422 114.108 156.422 114.071 156.422C114.034 156.422 113.996 156.422 113.959 156.422C113.922 156.422 113.884 156.422 113.847 156.422C113.81 156.422 113.772 156.422 113.735 156.422C113.697 156.422 113.66 156.422 113.622 156.422C113.585 156.422 113.547 156.422 113.51 156.422C113.472 156.422 113.435 156.422 113.397 156.422C113.36 156.422 113.322 156.422 113.284 156.422C113.247 156.422 113.209 156.422 113.171 156.422C113.134 156.422 113.096 156.422 113.058 156.422C113.021 156.422 112.983 156.422 112.945 156.422C112.907 156.422 112.87 156.422 112.832 156.422C112.794 156.422 112.756 156.422 112.718 156.422C112.68 156.422 112.642 156.422 112.604 156.422C112.566 156.422 112.529 156.422 112.491 156.422C112.453 156.422 112.415 156.422 112.377 156.422C112.338 156.422 112.3 156.422 112.262 156.422C112.224 156.422 112.186 156.422 112.148 156.422C112.11 156.422 112.072 156.422 112.034 156.422C111.995 156.422 111.957 156.422 111.919 156.422C111.881 156.422 111.842 156.422 111.804 156.422C111.766 156.422 111.727 156.422 111.689 156.422C111.651 156.422 111.612 156.422 111.574 156.422C111.536 156.422 111.497 156.422 111.459 156.422C111.42 156.422 111.382 156.422 111.343 156.422C111.305 156.422 111.266 156.422 111.228 156.422C111.189 156.422 111.151 156.422 111.112 156.422C111.073 156.422 111.035 156.422 110.996 156.422C110.957 156.422 110.919 156.422 110.88 156.422C110.841 156.422 110.803 156.422 110.764 156.422C110.725 156.422 110.686 156.422 110.647 156.422C110.609 156.422 110.57 156.422 110.531 156.422C110.492 156.422 110.453 156.422 110.414 156.422C110.375 156.422 110.336 156.422 110.297 156.422C110.258 156.422 110.219 156.422 110.18 156.422C110.141 156.422 110.102 156.422 110.063 156.422C110.024 156.422 109.985 156.422 109.946 156.422C109.906 156.422 109.867 156.422 109.828 156.422C109.789 156.422 109.75 156.422 109.71 156.422C109.671 156.422 109.632 156.422 109.592 156.422C109.553 156.422 109.514 156.422 109.474 156.422C109.435 156.422 109.396 156.422 109.356 156.422C109.317 156.422 109.277 156.422 109.238 156.422C109.198 156.422 109.159 156.422 109.119 156.422C109.08 156.422 109.04 156.422 109 156.422C108.961 156.422 108.921 156.422 108.882 156.422C108.842 156.422 108.802 156.422 108.763 156.422C108.723 156.422 108.683 156.422 108.643 156.422C108.603 156.422 108.564 156.422 108.524 156.422C108.484 156.422 108.444 156.422 108.404 156.422C108.364 156.422 108.324 156.422 108.284 156.422C108.245 156.422 108.205 156.422 108.165 156.422C108.125 156.422 108.085 156.422 108.044 156.422V158.422C108.085 158.422 108.125 158.422 108.165 158.422C108.205 158.422 108.245 158.422 108.284 158.422C108.324 158.422 108.364 158.422 108.404 158.422C108.444 158.422 108.484 158.422 108.524 158.422C108.564 158.422 108.603 158.422 108.643 158.422C108.683 158.422 108.723 158.422 108.763 158.422C108.802 158.422 108.842 158.422 108.882 158.422C108.921 158.422 108.961 158.422 109 158.422C109.04 158.422 109.08 158.422 109.119 158.422C109.159 158.422 109.198 158.422 109.238 158.422C109.277 158.422 109.317 158.422 109.356 158.422C109.396 158.422 109.435 158.422 109.474 158.422C109.514 158.422 109.553 158.422 109.592 158.422C109.632 158.422 109.671 158.422 109.71 158.422C109.75 158.422 109.789 158.422 109.828 158.422C109.867 158.422 109.906 158.422 109.946 158.422C109.985 158.422 110.024 158.422 110.063 158.422C110.102 158.422 110.141 158.422 110.18 158.422C110.219 158.422 110.258 158.422 110.297 158.422C110.336 158.422 110.375 158.422 110.414 158.422C110.453 158.422 110.492 158.422 110.531 158.422C110.57 158.422 110.609 158.422 110.647 158.422C110.686 158.422 110.725 158.422 110.764 158.422C110.803 158.422 110.841 158.422 110.88 158.422C110.919 158.422 110.957 158.422 110.996 158.422C111.035 158.422 111.073 158.422 111.112 158.422C111.151 158.422 111.189 158.422 111.228 158.422C111.266 158.422 111.305 158.422 111.343 158.422C111.382 158.422 111.42 158.422 111.459 158.422C111.497 158.422 111.536 158.422 111.574 158.422C111.612 158.422 111.651 158.422 111.689 158.422C111.727 158.422 111.766 158.422 111.804 158.422C111.842 158.422 111.881 158.422 111.919 158.422C111.957 158.422 111.995 158.422 112.034 158.422C112.072 158.422 112.11 158.422 112.148 158.422C112.186 158.422 112.224 158.422 112.262 158.422C112.3 158.422 112.338 158.422 112.377 158.422C112.415 158.422 112.453 158.422 112.491 158.422C112.529 158.422 112.566 158.422 112.604 158.422C112.642 158.422 112.68 158.422 112.718 158.422C112.756 158.422 112.794 158.422 112.832 158.422C112.87 158.422 112.907 158.422 112.945 158.422C112.983 158.422 113.021 158.422 113.058 158.422C113.096 158.422 113.134 158.422 113.171 158.422C113.209 158.422 113.247 158.422 113.284 158.422C113.322 158.422 113.36 158.422 113.397 158.422C113.435 158.422 113.472 158.422 113.51 158.422C113.547 158.422 113.585 158.422 113.622 158.422C113.66 158.422 113.697 158.422 113.735 158.422C113.772 158.422 113.81 158.422 113.847 158.422C113.884 158.422 113.922 158.422 113.959 158.422C113.996 158.422 114.034 158.422 114.071 158.422C114.108 158.422 114.145 158.422 114.183 158.422C114.22 158.422 114.257 158.422 114.294 158.422C114.332 158.422 114.369 158.422 114.406 158.422C114.443 158.422 114.48 158.422 114.517 158.422C114.554 158.422 114.591 158.422 114.628 158.422C114.665 158.422 114.702 158.422 114.739 158.422C114.776 158.422 114.813 158.422 114.85 158.422C114.887 158.422 114.924 158.422 114.961 158.422C114.998 158.422 115.035 158.422 115.072 158.422C115.109 158.422 115.145 158.422 115.182 158.422C115.219 158.422 115.256 158.422 115.293 158.422C115.329 158.422 115.366 158.422 115.403 158.422C115.44 158.422 115.476 158.422 115.513 158.422C115.55 158.422 115.586 158.422 115.623 158.422C115.659 158.422 115.696 158.422 115.733 158.422C115.769 158.422 115.806 158.422 115.842 158.422C115.879 158.422 115.915 158.422 115.952 158.422C115.988 158.422 116.025 158.422 116.061 158.422C116.098 158.422 116.134 158.422 116.17 158.422C116.207 158.422 116.243 158.422 116.28 158.422C116.316 158.422 116.352 158.422 116.389 158.422C116.425 158.422 116.461 158.422 116.497 158.422C116.534 158.422 116.57 158.422 116.606 158.422C116.642 158.422 116.679 158.422 116.715 158.422C116.751 158.422 116.787 158.422 116.823 158.422C116.859 158.422 116.895 158.422 116.932 158.422C116.968 158.422 117.004 158.422 117.04 158.422C117.076 158.422 117.112 158.422 117.148 158.422C117.184 158.422 117.22 158.422 117.256 158.422C117.292 158.422 117.328 158.422 117.364 158.422C117.4 158.422 117.435 158.422 117.471 158.422C117.507 158.422 117.543 158.422 117.579 158.422C117.615 158.422 117.65 158.422 117.686 158.422C117.722 158.422 117.758 158.422 117.794 158.422C117.829 158.422 117.865 158.422 117.901 158.422C117.936 158.422 117.972 158.422 118.008 158.422C118.043 158.422 118.079 158.422 118.115 158.422C118.15 158.422 118.186 158.422 118.222 158.422C118.257 158.422 118.293 158.422 118.328 158.422C118.364 158.422 118.399 158.422 118.435 158.422C118.47 158.422 118.506 158.422 118.541 158.422C118.577 158.422 118.612 158.422 118.648 158.422C118.683 158.422 118.718 158.422 118.754 158.422C118.789 158.422 118.824 158.422 118.86 158.422C118.895 158.422 118.93 158.422 118.966 158.422C119.001 158.422 119.036 158.422 119.072 158.422C119.107 158.422 119.142 158.422 119.177 158.422C119.213 158.422 119.248 158.422 119.283 158.422C119.318 158.422 119.353 158.422 119.388 158.422C119.424 158.422 119.459 158.422 119.494 158.422C119.529 158.422 119.564 158.422 119.599 158.422C119.634 158.422 119.669 158.422 119.704 158.422C119.739 158.422 119.774 158.422 119.809 158.422C119.844 158.422 119.879 158.422 119.914 158.422C119.949 158.422 119.984 158.422 120.019 158.422C120.054 158.422 120.089 158.422 120.124 158.422C120.158 158.422 120.193 158.422 120.228 158.422C120.263 158.422 120.298 158.422 120.333 158.422C120.367 158.422 120.402 158.422 120.437 158.422C120.472 158.422 120.506 158.422 120.541 158.422C120.576 158.422 120.611 158.422 120.645 158.422C120.68 158.422 120.715 158.422 120.749 158.422C120.784 158.422 120.819 158.422 120.853 158.422C120.888 158.422 120.922 158.422 120.957 158.422C120.992 158.422 121.026 158.422 121.061 158.422C121.095 158.422 121.13 158.422 121.164 158.422C121.199 158.422 121.233 158.422 121.268 158.422C121.302 158.422 121.337 158.422 121.371 158.422C121.406 158.422 121.44 158.422 121.474 158.422C121.509 158.422 121.543 158.422 121.578 158.422C121.612 158.422 121.646 158.422 121.681 158.422C121.715 158.422 121.749 158.422 121.784 158.422C121.818 158.422 121.852 158.422 121.886 158.422C121.921 158.422 121.955 158.422 121.989 158.422C122.023 158.422 122.058 158.422 122.092 158.422C122.126 158.422 122.16 158.422 122.194 158.422C122.228 158.422 122.263 158.422 122.297 158.422C122.331 158.422 122.365 158.422 122.399 158.422C122.433 158.422 122.467 158.422 122.501 158.422C122.535 158.422 122.569 158.422 122.603 158.422C122.637 158.422 122.671 158.422 122.705 158.422C122.739 158.422 122.773 158.422 122.807 158.422C122.841 158.422 122.875 158.422 122.909 158.422C122.943 158.422 122.977 158.422 123.011 158.422C123.045 158.422 123.079 158.422 123.113 158.422C123.147 158.422 123.18 158.422 123.214 158.422C123.248 158.422 123.282 158.422 123.316 158.422C123.349 158.422 123.383 158.422 123.417 158.422C123.451 158.422 123.485 158.422 123.518 158.422C123.552 158.422 123.586 158.422 123.619 158.422C123.653 158.422 123.687 158.422 123.721 158.422C123.754 158.422 123.788 158.422 123.822 158.422C123.855 158.422 123.889 158.422 123.922 158.422C123.956 158.422 123.99 158.422 124.023 158.422C124.057 158.422 124.09 158.422 124.124 158.422C124.158 158.422 124.191 158.422 124.225 158.422C124.258 158.422 124.292 158.422 124.325 158.422C124.359 158.422 124.392 158.422 124.426 158.422C124.459 158.422 124.493 158.422 124.526 158.422C124.559 158.422 124.593 158.422 124.626 158.422C124.66 158.422 124.693 158.422 124.726 158.422C124.76 158.422 124.793 158.422 124.827 158.422C124.86 158.422 124.893 158.422 124.927 158.422C124.96 158.422 124.993 158.422 125.026 158.422C125.06 158.422 125.093 158.422 125.126 158.422C125.16 158.422 125.193 158.422 125.226 158.422C125.259 158.422 125.293 158.422 125.326 158.422C125.359 158.422 125.392 158.422 125.425 158.422C125.459 158.422 125.492 158.422 125.525 158.422C125.558 158.422 125.591 158.422 125.624 158.422C125.657 158.422 125.691 158.422 125.724 158.422C125.757 158.422 125.79 158.422 125.823 158.422C125.856 158.422 125.889 158.422 125.922 158.422C125.955 158.422 125.988 158.422 126.021 158.422C126.054 158.422 126.087 158.422 126.12 158.422C126.153 158.422 126.186 158.422 126.219 158.422C126.252 158.422 126.285 158.422 126.318 158.422C126.351 158.422 126.384 158.422 126.417 158.422C126.45 158.422 126.483 158.422 126.516 158.422C126.549 158.422 126.581 158.422 126.614 158.422C126.647 158.422 126.68 158.422 126.713 158.422C126.746 158.422 126.779 158.422 126.811 158.422C126.844 158.422 126.877 158.422 126.91 158.422C126.943 158.422 126.975 158.422 127.008 158.422C127.041 158.422 127.074 158.422 127.106 158.422C127.139 158.422 127.172 158.422 127.205 158.422C127.237 158.422 127.27 158.422 127.303 158.422C127.336 158.422 127.368 158.422 127.401 158.422C127.434 158.422 127.466 158.422 127.499 158.422C127.532 158.422 127.564 158.422 127.597 158.422C127.629 158.422 127.662 158.422 127.695 158.422C127.727 158.422 127.76 158.422 127.792 158.422C127.825 158.422 127.858 158.422 127.89 158.422C127.923 158.422 127.955 158.422 127.988 158.422C128.02 158.422 128.053 158.422 128.085 158.422C128.118 158.422 128.15 158.422 128.183 158.422C128.215 158.422 128.248 158.422 128.28 158.422C128.313 158.422 128.345 158.422 128.378 158.422C128.41 158.422 128.443 158.422 128.475 158.422C128.508 158.422 128.54 158.422 128.572 158.422C128.605 158.422 128.637 158.422 128.67 158.422C128.702 158.422 128.734 158.422 128.767 158.422C128.799 158.422 128.831 158.422 128.864 158.422C128.896 158.422 128.928 158.422 128.961 158.422C128.993 158.422 129.025 158.422 129.058 158.422C129.09 158.422 129.122 158.422 129.155 158.422C129.187 158.422 129.219 158.422 129.251 158.422C129.284 158.422 129.316 158.422 129.348 158.422C129.38 158.422 129.413 158.422 129.445 158.422C129.477 158.422 129.509 158.422 129.542 158.422C129.574 158.422 129.606 158.422 129.638 158.422C129.67 158.422 129.703 158.422 129.735 158.422C129.767 158.422 129.799 158.422 129.831 158.422C129.863 158.422 129.896 158.422 129.928 158.422C129.96 158.422 129.992 158.422 130.024 158.422C130.056 158.422 130.088 158.422 130.12 158.422C130.152 158.422 130.185 158.422 130.217 158.422C130.249 158.422 130.281 158.422 130.313 158.422C130.345 158.422 130.377 158.422 130.409 158.422C130.441 158.422 130.473 158.422 130.505 158.422C130.537 158.422 130.569 158.422 130.601 158.422C130.633 158.422 130.665 158.422 130.697 158.422C130.729 158.422 130.761 158.422 130.793 158.422C130.825 158.422 130.857 158.422 130.889 158.422C130.921 158.422 130.953 158.422 130.985 158.422C131.017 158.422 131.049 158.422 131.081 158.422C131.113 158.422 131.144 158.422 131.176 158.422C131.208 158.422 131.24 158.422 131.272 158.422C131.304 158.422 131.336 158.422 131.368 158.422C131.4 158.422 131.431 158.422 131.463 158.422C131.495 158.422 131.527 158.422 131.559 158.422C131.591 158.422 131.623 158.422 131.654 158.422C131.686 158.422 131.718 158.422 131.75 158.422C131.782 158.422 131.814 158.422 131.845 158.422C131.877 158.422 131.909 158.422 131.941 158.422C131.973 158.422 132.004 158.422 132.036 158.422C132.068 158.422 132.1 158.422 132.131 158.422C132.163 158.422 132.195 158.422 132.227 158.422C132.258 158.422 132.29 158.422 132.322 158.422C132.354 158.422 132.385 158.422 132.417 158.422C132.449 158.422 132.481 158.422 132.512 158.422C132.544 158.422 132.576 158.422 132.607 158.422C132.639 158.422 132.671 158.422 132.702 158.422C132.734 158.422 132.766 158.422 132.797 158.422C132.829 158.422 132.861 158.422 132.892 158.422C132.924 158.422 132.956 158.422 132.987 158.422C133.019 158.422 133.051 158.422 133.082 158.422C133.114 158.422 133.146 158.422 133.177 158.422C133.209 158.422 133.24 158.422 133.272 158.422C133.304 158.422 133.335 158.422 133.367 158.422C133.398 158.422 133.43 158.422 133.462 158.422C133.493 158.422 133.525 158.422 133.556 158.422C133.588 158.422 133.619 158.422 133.651 158.422C133.683 158.422 133.714 158.422 133.746 158.422C133.777 158.422 133.809 158.422 133.84 158.422C133.872 158.422 133.903 158.422 133.935 158.422C133.966 158.422 133.998 158.422 134.03 158.422C134.061 158.422 134.093 158.422 134.124 158.422C134.156 158.422 134.187 158.422 134.219 158.422C134.25 158.422 134.282 158.422 134.313 158.422C134.345 158.422 134.376 158.422 134.408 158.422C134.439 158.422 134.471 158.422 134.502 158.422C134.533 158.422 134.565 158.422 134.596 158.422C134.628 158.422 134.659 158.422 134.691 158.422C134.722 158.422 134.754 158.422 134.785 158.422C134.817 158.422 134.848 158.422 134.879 158.422C134.911 158.422 134.942 158.422 134.974 158.422C135.005 158.422 135.037 158.422 135.068 158.422C135.1 158.422 135.131 158.422 135.162 158.422C135.194 158.422 135.225 158.422 135.257 158.422C135.288 158.422 135.319 158.422 135.351 158.422C135.382 158.422 135.414 158.422 135.445 158.422C135.476 158.422 135.508 158.422 135.539 158.422C135.571 158.422 135.602 158.422 135.633 158.422C135.665 158.422 135.696 158.422 135.727 158.422C135.759 158.422 135.79 158.422 135.822 158.422C135.853 158.422 135.884 158.422 135.916 158.422C135.947 158.422 135.978 158.422 136.01 158.422C136.041 158.422 136.072 158.422 136.104 158.422C136.135 158.422 136.166 158.422 136.198 158.422C136.229 158.422 136.261 158.422 136.292 158.422C136.323 158.422 136.355 158.422 136.386 158.422C136.417 158.422 136.449 158.422 136.48 158.422C136.511 158.422 136.542 158.422 136.574 158.422C136.605 158.422 136.636 158.422 136.668 158.422C136.699 158.422 136.73 158.422 136.762 158.422C136.793 158.422 136.824 158.422 136.856 158.422C136.887 158.422 136.918 158.422 136.95 158.422C136.981 158.422 137.012 158.422 137.044 158.422C137.075 158.422 137.106 158.422 137.137 158.422C137.169 158.422 137.2 158.422 137.231 158.422C137.263 158.422 137.294 158.422 137.325 158.422C137.356 158.422 137.388 158.422 137.419 158.422C137.45 158.422 137.482 158.422 137.513 158.422C137.544 158.422 137.575 158.422 137.607 158.422C137.638 158.422 137.669 158.422 137.701 158.422C137.732 158.422 137.763 158.422 137.794 158.422C137.826 158.422 137.857 158.422 137.888 158.422C137.92 158.422 137.951 158.422 137.982 158.422C138.013 158.422 138.045 158.422 138.076 158.422C138.107 158.422 138.138 158.422 138.17 158.422C138.201 158.422 138.232 158.422 138.264 158.422C138.295 158.422 138.326 158.422 138.357 158.422C138.389 158.422 138.42 158.422 138.451 158.422C138.482 158.422 138.514 158.422 138.545 158.422C138.576 158.422 138.608 158.422 138.639 158.422C138.67 158.422 138.701 158.422 138.733 158.422C138.764 158.422 138.795 158.422 138.826 158.422C138.858 158.422 138.889 158.422 138.92 158.422C138.951 158.422 138.983 158.422 139.014 158.422C139.045 158.422 139.077 158.422 139.108 158.422C139.139 158.422 139.17 158.422 139.202 158.422C139.233 158.422 139.264 158.422 139.295 158.422C139.327 158.422 139.358 158.422 139.389 158.422C139.42 158.422 139.452 158.422 139.483 158.422C139.514 158.422 139.546 158.422 139.577 158.422C139.608 158.422 139.639 158.422 139.671 158.422C139.702 158.422 139.733 158.422 139.764 158.422C139.796 158.422 139.827 158.422 139.858 158.422C139.89 158.422 139.921 158.422 139.952 158.422C139.983 158.422 140.015 158.422 140.046 158.422C140.077 158.422 140.109 158.422 140.14 158.422C140.171 158.422 140.202 158.422 140.234 158.422C140.265 158.422 140.296 158.422 140.328 158.422C140.359 158.422 140.39 158.422 140.421 158.422C140.453 158.422 140.484 158.422 140.515 158.422C140.547 158.422 140.578 158.422 140.609 158.422C140.641 158.422 140.672 158.422 140.703 158.422C140.734 158.422 140.766 158.422 140.797 158.422C140.828 158.422 140.86 158.422 140.891 158.422C140.922 158.422 140.954 158.422 140.985 158.422C141.016 158.422 141.048 158.422 141.079 158.422C141.11 158.422 141.142 158.422 141.173 158.422C141.204 158.422 141.236 158.422 141.267 158.422C141.298 158.422 141.33 158.422 141.361 158.422C141.392 158.422 141.424 158.422 141.455 158.422C141.486 158.422 141.518 158.422 141.549 158.422C141.58 158.422 141.612 158.422 141.643 158.422C141.674 158.422 141.706 158.422 141.737 158.422C141.768 158.422 141.8 158.422 141.831 158.422C141.862 158.422 141.894 158.422 141.925 158.422C141.957 158.422 141.988 158.422 142.019 158.422C142.051 158.422 142.082 158.422 142.113 158.422C142.145 158.422 142.176 158.422 142.208 158.422C142.239 158.422 142.27 158.422 142.302 158.422C142.333 158.422 142.365 158.422 142.396 158.422C142.427 158.422 142.459 158.422 142.49 158.422C142.522 158.422 142.553 158.422 142.585 158.422C142.616 158.422 142.647 158.422 142.679 158.422C142.71 158.422 142.742 158.422 142.773 158.422C142.805 158.422 142.836 158.422 142.867 158.422C142.899 158.422 142.93 158.422 142.962 158.422C142.993 158.422 143.025 158.422 143.056 158.422C143.088 158.422 143.119 158.422 143.151 158.422C143.182 158.422 143.213 158.422 143.245 158.422C143.276 158.422 143.308 158.422 143.339 158.422C143.371 158.422 143.402 158.422 143.434 158.422C143.465 158.422 143.497 158.422 143.528 158.422C143.56 158.422 143.591 158.422 143.623 158.422C143.654 158.422 143.686 158.422 143.718 158.422C143.749 158.422 143.781 158.422 143.812 158.422C143.844 158.422 143.875 158.422 143.907 158.422C143.938 158.422 143.97 158.422 144.001 158.422C144.033 158.422 144.065 158.422 144.096 158.422C144.128 158.422 144.159 158.422 144.191 158.422C144.222 158.422 144.254 158.422 144.286 158.422C144.317 158.422 144.349 158.422 144.38 158.422C144.412 158.422 144.444 158.422 144.475 158.422C144.507 158.422 144.538 158.422 144.57 158.422C144.602 158.422 144.633 158.422 144.665 158.422C144.697 158.422 144.728 158.422 144.76 158.422C144.792 158.422 144.823 158.422 144.855 158.422C144.887 158.422 144.918 158.422 144.95 158.422C144.982 158.422 145.013 158.422 145.045 158.422C145.077 158.422 145.108 158.422 145.14 158.422C145.172 158.422 145.203 158.422 145.235 158.422C145.267 158.422 145.299 158.422 145.33 158.422C145.362 158.422 145.394 158.422 145.426 158.422C145.457 158.422 145.489 158.422 145.521 158.422C145.553 158.422 145.584 158.422 145.616 158.422C145.648 158.422 145.68 158.422 145.711 158.422C145.743 158.422 145.775 158.422 145.807 158.422C145.839 158.422 145.87 158.422 145.902 158.422C145.934 158.422 145.966 158.422 145.998 158.422C146.029 158.422 146.061 158.422 146.093 158.422C146.125 158.422 146.157 158.422 146.189 158.422C146.221 158.422 146.252 158.422 146.284 158.422C146.316 158.422 146.348 158.422 146.38 158.422C146.412 158.422 146.444 158.422 146.476 158.422C146.508 158.422 146.539 158.422 146.571 158.422C146.603 158.422 146.635 158.422 146.667 158.422C146.699 158.422 146.731 158.422 146.763 158.422C146.795 158.422 146.827 158.422 146.859 158.422C146.891 158.422 146.923 158.422 146.955 158.422C146.987 158.422 147.019 158.422 147.051 158.422C147.083 158.422 147.115 158.422 147.147 158.422C147.179 158.422 147.211 158.422 147.243 158.422C147.275 158.422 147.307 158.422 147.339 158.422C147.371 158.422 147.403 158.422 147.435 158.422C147.467 158.422 147.499 158.422 147.531 158.422C147.564 158.422 147.596 158.422 147.628 158.422C147.66 158.422 147.692 158.422 147.724 158.422C147.756 158.422 147.788 158.422 147.821 158.422C147.853 158.422 147.885 158.422 147.917 158.422C147.949 158.422 147.981 158.422 148.014 158.422C148.046 158.422 148.078 158.422 148.11 158.422C148.142 158.422 148.174 158.422 148.207 158.422C148.239 158.422 148.271 158.422 148.303 158.422C148.336 158.422 148.368 158.422 148.4 158.422C148.432 158.422 148.465 158.422 148.497 158.422C148.529 158.422 148.562 158.422 148.594 158.422C148.626 158.422 148.658 158.422 148.691 158.422C148.723 158.422 148.755 158.422 148.788 158.422C148.82 158.422 148.852 158.422 148.885 158.422C148.917 158.422 148.95 158.422 148.982 158.422C149.014 158.422 149.047 158.422 149.079 158.422C149.111 158.422 149.144 158.422 149.176 158.422C149.209 158.422 149.241 158.422 149.274 158.422C149.306 158.422 149.339 158.422 149.371 158.422C149.403 158.422 149.436 158.422 149.468 158.422C149.501 158.422 149.533 158.422 149.566 158.422C149.598 158.422 149.631 158.422 149.663 158.422C149.696 158.422 149.729 158.422 149.761 158.422C149.794 158.422 149.826 158.422 149.859 158.422C149.891 158.422 149.924 158.422 149.957 158.422C149.989 158.422 150.022 158.422 150.054 158.422C150.087 158.422 150.12 158.422 150.152 158.422C150.185 158.422 150.218 158.422 150.25 158.422C150.283 158.422 150.316 158.422 150.348 158.422C150.381 158.422 150.414 158.422 150.446 158.422C150.479 158.422 150.512 158.422 150.545 158.422C150.577 158.422 150.61 158.422 150.643 158.422C150.676 158.422 150.708 158.422 150.741 158.422C150.774 158.422 150.807 158.422 150.84 158.422C150.872 158.422 150.905 158.422 150.938 158.422C150.971 158.422 151.004 158.422 151.037 158.422C151.069 158.422 151.102 158.422 151.135 158.422C151.168 158.422 151.201 158.422 151.234 158.422C151.267 158.422 151.3 158.422 151.333 158.422C151.366 158.422 151.399 158.422 151.432 158.422C151.464 158.422 151.497 158.422 151.53 158.422C151.563 158.422 151.596 158.422 151.629 158.422C151.662 158.422 151.696 158.422 151.729 158.422C151.762 158.422 151.795 158.422 151.828 158.422C151.861 158.422 151.894 158.422 151.927 158.422C151.96 158.422 151.993 158.422 152.026 158.422C152.059 158.422 152.093 158.422 152.126 158.422C152.159 158.422 152.192 158.422 152.225 158.422C152.258 158.422 152.292 158.422 152.325 158.422C152.358 158.422 152.391 158.422 152.424 158.422C152.458 158.422 152.491 158.422 152.524 158.422C152.557 158.422 152.591 158.422 152.624 158.422C152.657 158.422 152.691 158.422 152.724 158.422C152.757 158.422 152.79 158.422 152.824 158.422C152.857 158.422 152.891 158.422 152.924 158.422C152.957 158.422 152.991 158.422 153.024 158.422C153.057 158.422 153.091 158.422 153.124 158.422C153.158 158.422 153.191 158.422 153.225 158.422C153.258 158.422 153.292 158.422 153.325 158.422C153.359 158.422 153.392 158.422 153.426 158.422C153.459 158.422 153.493 158.422 153.526 158.422C153.56 158.422 153.593 158.422 153.627 158.422C153.66 158.422 153.694 158.422 153.728 158.422C153.761 158.422 153.795 158.422 153.828 158.422C153.862 158.422 153.896 158.422 153.929 158.422C153.963 158.422 153.997 158.422 154.03 158.422C154.064 158.422 154.098 158.422 154.132 158.422C154.165 158.422 154.199 158.422 154.233 158.422C154.267 158.422 154.3 158.422 154.334 158.422C154.368 158.422 154.402 158.422 154.436 158.422C154.469 158.422 154.503 158.422 154.537 158.422C154.571 158.422 154.605 158.422 154.639 158.422C154.673 158.422 154.707 158.422 154.74 158.422C154.774 158.422 154.808 158.422 154.842 158.422C154.876 158.422 154.91 158.422 154.944 158.422C154.978 158.422 155.012 158.422 155.046 158.422C155.08 158.422 155.114 158.422 155.148 158.422C155.182 158.422 155.216 158.422 155.25 158.422C155.285 158.422 155.319 158.422 155.353 158.422C155.387 158.422 155.421 158.422 155.455 158.422C155.489 158.422 155.523 158.422 155.558 158.422C155.592 158.422 155.626 158.422 155.66 158.422C155.694 158.422 155.729 158.422 155.763 158.422C155.797 158.422 155.831 158.422 155.866 158.422C155.9 158.422 155.934 158.422 155.969 158.422C156.003 158.422 156.037 158.422 156.072 158.422C156.106 158.422 156.14 158.422 156.175 158.422C156.209 158.422 156.244 158.422 156.278 158.422C156.312 158.422 156.347 158.422 156.381 158.422C156.416 158.422 156.45 158.422 156.485 158.422C156.519 158.422 156.554 158.422 156.588 158.422C156.623 158.422 156.657 158.422 156.692 158.422C156.727 158.422 156.761 158.422 156.796 158.422C156.83 158.422 156.865 158.422 156.9 158.422C156.934 158.422 156.969 158.422 157.004 158.422C157.038 158.422 157.073 158.422 157.108 158.422C157.142 158.422 157.177 158.422 157.212 158.422C157.247 158.422 157.281 158.422 157.316 158.422C157.351 158.422 157.386 158.422 157.421 158.422C157.455 158.422 157.49 158.422 157.525 158.422C157.56 158.422 157.595 158.422 157.63 158.422C157.665 158.422 157.699 158.422 157.734 158.422C157.769 158.422 157.804 158.422 157.839 158.422C157.874 158.422 157.909 158.422 157.944 158.422C157.979 158.422 158.014 158.422 158.049 158.422C158.084 158.422 158.119 158.422 158.155 158.422C158.19 158.422 158.225 158.422 158.26 158.422C158.295 158.422 158.33 158.422 158.365 158.422C158.4 158.422 158.436 158.422 158.471 158.422C158.506 158.422 158.541 158.422 158.577 158.422C158.612 158.422 158.647 158.422 158.682 158.422C158.718 158.422 158.753 158.422 158.788 158.422C158.824 158.422 158.859 158.422 158.894 158.422C158.93 158.422 158.965 158.422 159 158.422C159.036 158.422 159.071 158.422 159.107 158.422C159.142 158.422 159.178 158.422 159.213 158.422C159.249 158.422 159.284 158.422 159.32 158.422C159.355 158.422 159.391 158.422 159.426 158.422C159.462 158.422 159.497 158.422 159.533 158.422C159.569 158.422 159.604 158.422 159.64 158.422V156.422ZM168.644 147.422C168.644 152.392 164.611 156.422 159.64 156.422V158.422C165.714 158.422 170.644 153.498 170.644 147.422H168.644Z" fill="#679BFF"/>
<path d="M49.3556 102.178C49.3556 102.73 49.8033 103.178 50.3556 103.178C50.9078 103.178 51.3556 102.73 51.3556 102.178L49.3556 102.178ZM112.663 63.2848C113.053 62.8943 113.053 62.2612 112.663 61.8706L106.299 55.5067C105.908 55.1161 105.275 55.1161 104.885 55.5067C104.494 55.8972 104.494 56.5304 104.885 56.9209L110.541 62.5777L104.885 68.2346C104.494 68.6251 104.494 69.2583 104.885 69.6488C105.275 70.0393 105.908 70.0393 106.299 69.6488L112.663 63.2848ZM111.956 61.5777L109.806 61.5777L109.806 63.5777L111.956 63.5777L111.956 61.5777ZM105.506 61.5777L101.206 61.5777L101.206 63.5777L105.506 63.5777L105.506 61.5777ZM96.9056 61.5777L92.6056 61.5777L92.6056 63.5777L96.9056 63.5777L96.9056 61.5777ZM88.3056 61.5777L84.0056 61.5777L84.0056 63.5777L88.3056 63.5777L88.3056 61.5777ZM79.7056 61.5777L75.4056 61.5777L75.4056 63.5777L79.7056 63.5777L79.7056 61.5777ZM71.1056 61.5777L66.8056 61.5777L66.8056 63.5777L71.1056 63.5777L71.1056 61.5777ZM62.5056 61.5777L60.3556 61.5777L60.3556 63.5777L62.5056 63.5777L62.5056 61.5777ZM60.3556 61.5777C59.6222 61.5777 58.9046 61.6496 58.2099 61.7871L58.598 63.7491C59.1656 63.6368 59.7532 63.5777 60.3556 63.5777L60.3556 61.5777ZM54.2431 63.4311C53.0439 64.2339 52.0117 65.2661 51.2089 66.4653L52.8709 67.5779C53.5282 66.596 54.3738 65.7504 55.3557 65.093L54.2431 63.4311ZM49.5649 70.432C49.4275 71.1268 49.3556 71.8444 49.3556 72.5777L51.3556 72.5777C51.3556 71.9754 51.4146 71.3878 51.5269 70.8202L49.5649 70.432ZM49.3556 72.5777L49.3556 74.4277L51.3556 74.4277L51.3556 72.5777L49.3556 72.5777ZM49.3556 78.1277L49.3556 81.8277L51.3556 81.8277L51.3556 78.1277L49.3556 78.1277ZM49.3556 85.5277L49.3556 89.2277L51.3556 89.2277L51.3556 85.5277L49.3556 85.5277ZM49.3556 92.9277L49.3556 96.6277L51.3556 96.6277L51.3556 92.9277L49.3556 92.9277ZM49.3556 100.328L49.3556 102.178L51.3556 102.178L51.3556 100.328L49.3556 100.328Z" fill="#679BFF"/>
</svg>
