<svg fill="none" xmlns="http://www.w3.org/2000/svg" viewBox="0 0 500 370">
  <g clip-path="url(#clip0)">
    <path fill="#fff" d="M0 0h500v370H0z"/>
    <path d="M170.771 139.524c-14.857 1.592-31.756 12.985-33.762 26.36-6.76-11.712-30.664-15.108-45.028-11.11-37.987 10.509-42.845 56.259-20.947 82.195 11.758 13.976 27.002 25.228 43.126 34.852 13.519 8.068 47.457 24.167 47.528 24.096.105.071 25.77-27.457 35.381-39.983 11.477-14.931 21.51-31.031 27.355-48.368 10.843-32.199-14.47-72.288-53.653-68.042z" fill="#7315CD"/>
    <path d="M396.662 61.822c-16.335-2.83-37.846 4.14-44.042 17.833-3.696-14.578-28.164-25.547-44.746-25.653-43.725-.389-62.771 46.989-47.281 81.382 8.344 18.505 21.229 35.206 35.523 50.421 11.969 12.737 43.373 40.336 43.478 40.266.106.106 35.839-21.478 49.886-31.881 16.758-12.455 32.389-26.572 43.866-43.309 21.37-31.066 6.443-81.593-36.684-89.059z" fill="#A467DE"/>
    <path d="M124.931 343.932v-43.521l-10.913-28.661 3.52-14.153 17.251-3.892 1.056 9.2-10.562 3.892 7.745 15.215 19.258 9.447-7.288 10.013 5.633 51.306-25.7-8.846z" fill="#D7D9DA"/>
    <path d="M124.934 305.611s10.42 4.848 20.524 0l.845 7.537s-11.125 5.06-21.334-.46v-7.077h-.035z" fill="#5C5D5F"/>
    <path d="M118.95 336.148l-9.188 123.488h66.115c-6.548-47.343-20.313-115.703-20.313-115.703l-36.614-7.785z" fill="#939598"/>
    <path d="M353.711 266.514l.035-26.254 15.139-21.23v-13.8l-19.715-12.738-5.281 8.138 12.498 15.286-16.723 10.19-22.179-19.814-1.76 14.507 10.913 23.353-2.464 24.414 29.22 6.015.317-8.067z" fill="#939597"/>
    <path d="M317.661 257.453l42.774 10.757 5.21 99.992 36.861 91.43h-90.654l-11.301-91.536 17.11-110.643z" fill="#C7C9CB"/>
  </g>
  <defs>
    <clipPath id="clip0">
      <path fill="#fff" d="M0 0h500v370H0z"/>
    </clipPath>
  </defs>
</svg>
