<svg width="450" height="450" viewBox="0 0 450 450" fill="none" xmlns="http://www.w3.org/2000/svg">
<g clip-path="url(#clip0)">
<path d="M151.07 102.986L166.2 111.716L224.4 78.1156L166.2 44.5156L108 78.1156L128.04 89.6856" fill="#181D29"/>
<path d="M151.07 102.986L166.2 111.716L224.4 78.1156L166.2 44.5156L108 78.1156L128.04 89.6856" stroke="#939393" stroke-width="2" stroke-linecap="round" stroke-linejoin="round"/>
<path d="M166.2 149.408L166.2 305.216L224.4 271.616V78.9084" stroke="#939393" stroke-width="2" stroke-linecap="round" stroke-linejoin="round"/>
<path d="M224.4 105.166V78.1156L166.2 111.716V127.246" stroke="#939393" stroke-width="2" stroke-linecap="round" stroke-linejoin="round"/>
<path d="M147.4 100.866L166.2 111.716V305.216L108 271.616V78.1156L130.1 90.8756" fill="#181D29"/>
<path d="M108 183.486V78.1156L130.1 90.8756" stroke="#939393" stroke-width="2" stroke-linecap="round" stroke-linejoin="round"/>
<path d="M166.2 149.556V305.216L108 271.616V222.066" stroke="#939393" stroke-width="2" stroke-linecap="round" stroke-linejoin="round"/>
<path d="M147.4 100.866L166.2 111.716V127.246" stroke="#939393" stroke-width="2" stroke-linecap="round" stroke-linejoin="round"/>
<path d="M123.85 217.416V262.446" stroke="#939393" stroke-width="2" stroke-linecap="round" stroke-linejoin="round"/>
<path d="M123.85 117.406V193.016" stroke="#939393" stroke-width="2" stroke-linecap="round" stroke-linejoin="round"/>
<path d="M139.68 175.586V269.736" stroke="#679BFF" stroke-width="2" stroke-linecap="round" stroke-linejoin="round"/>
<path d="M139.68 124.696V161.286" stroke="#679BFF" stroke-width="2" stroke-linecap="round" stroke-linejoin="round"/>
<path d="M208 239.726V262.446" stroke="#939393" stroke-width="2" stroke-linecap="round" stroke-linejoin="round"/>
<path d="M208 117.406V209.046" stroke="#939393" stroke-width="2" stroke-linecap="round" stroke-linejoin="round"/>
<path d="M192.17 186.046V269.736" stroke="#679BFF" stroke-width="2" stroke-linecap="round" stroke-linejoin="round"/>
<path d="M192.17 124.696V157.456" stroke="#679BFF" stroke-width="2" stroke-linecap="round" stroke-linejoin="round"/>
</g>
<path d="M203 172.718L249.44 199.528L295.88 172.718L249.44 145.908L203 172.718Z" fill="#181D29" stroke="#939393" stroke-width="2" stroke-linecap="round" stroke-linejoin="round"/>
<path d="M295.88 275.278V172.719L249.44 199.528V353.939L295.88 327.129V297.129" fill="#181D29"/>
<path d="M295.88 275.278V172.719L249.44 199.528V353.939L295.88 327.129V297.129" stroke="#939393" stroke-width="2" stroke-linecap="round" stroke-linejoin="round"/>
<path d="M203 239.028V172.719L249.44 199.528V353.939L203 327.129V272.489" fill="#181D29"/>
<path d="M203 239.028V172.719L249.44 199.528V353.939L203 327.129V272.489" stroke="#939393" stroke-width="2" stroke-linecap="round" stroke-linejoin="round"/>
<path d="M275.23 221.598V320.788" stroke="#679BFF" stroke-width="2" stroke-linecap="round" stroke-linejoin="round"/>
<path d="M223.47 266.219V321.079" stroke="#679BFF" stroke-width="2" stroke-linecap="round" stroke-linejoin="round"/>
<path d="M223.47 205.339V241.118" stroke="#679BFF" stroke-width="2" stroke-linecap="round" stroke-linejoin="round"/>
<path d="M285 249.718L331.44 276.528L377.88 249.718L331.44 222.908L285 249.718Z" fill="#181D29" stroke="#939393" stroke-width="2" stroke-linecap="round" stroke-linejoin="round"/>
<path d="M377.88 322.278V249.719L331.44 276.528V400.939L377.88 374.129V344.129" fill="#181D29"/>
<path d="M377.88 322.278V249.719L331.44 276.528V400.939L377.88 374.129V344.129" stroke="#939393" stroke-width="2" stroke-linecap="round" stroke-linejoin="round"/>
<path d="M285 286.028V249.719L331.44 276.528V400.939L285 374.129V319.489" fill="#181D29"/>
<path d="M285 286.028V249.719L331.44 276.528V400.939L285 374.129V319.489" stroke="#939393" stroke-width="2" stroke-linecap="round" stroke-linejoin="round"/>
<path d="M357.23 278.598V367.788" stroke="#679BFF" stroke-width="2" stroke-linecap="round" stroke-linejoin="round"/>
<path d="M305.47 313.219V368.079" stroke="#679BFF" stroke-width="2" stroke-linecap="round" stroke-linejoin="round"/>
<path d="M305.47 278.339V294.339" stroke="#679BFF" stroke-width="2" stroke-linecap="round" stroke-linejoin="round"/>
<circle r="1.79014" transform="matrix(0.866044 -0.499967 0.866044 0.499967 166.213 77.2567)" stroke="#679BFF"/>
<g opacity="0.6">
<circle r="11.3918" transform="matrix(0.866044 -0.499967 0.866044 0.499967 166.213 77.2567)" stroke="#679BFF" stroke-width="2"/>
</g>
<g opacity="0.2">
<circle r="28.3212" transform="matrix(0.866044 -0.499967 0.866044 0.499967 166.213 77.2566)" stroke="#679BFF" stroke-width="2"/>
</g>
<g opacity="0.1">
<circle r="50.26" transform="matrix(0.866044 -0.499967 0.866044 0.499967 166.213 77.2566)" stroke="#679BFF" stroke-width="2"/>
</g>
<circle r="3.16447" transform="matrix(0.866044 -0.499967 0.866044 0.499967 331.787 249.619)" stroke="#679BFF" stroke-width="2"/>
<g opacity="0.8">
<circle r="10.0925" transform="matrix(0.866044 -0.499967 0.866044 0.499967 331.787 249.619)" stroke="#679BFF" stroke-width="2"/>
</g>
<g opacity="0.4">
<circle r="19.9073" transform="matrix(0.866044 -0.499967 0.866044 0.499967 331.787 249.619)" stroke="#679BFF" stroke-width="2"/>
</g>
<g opacity="0.2">
<circle r="32.6087" transform="matrix(0.866044 -0.499967 0.866044 0.499967 331.786 249.619)" stroke="#679BFF" stroke-width="2"/>
</g>
<g opacity="0.1">
<circle r="51.0834" transform="matrix(0.866044 -0.499967 0.866044 0.499967 331.787 249.619)" stroke="#679BFF" stroke-width="2"/>
</g>
<path d="M167 65.0994C167 65.0994 178.709 24.6862 204.927 46.421C231.145 68.1559 251 168 251 168" stroke="url(#paint0_linear)" stroke-width="4" stroke-linecap="square"/>
<path d="M251 168.432C251 168.432 262.291 138.754 287.573 154.715C312.855 170.677 332 244 332 244" stroke="url(#paint1_linear)" stroke-width="4" stroke-linecap="square"/>
<g clip-path="url(#clip1)">
<path d="M332 248.075C332 248.075 324.667 242.575 324.667 237.075C324.667 232.492 328.333 229.742 332 229.742C335.667 229.742 339.333 232.492 339.333 237.075C339.333 242.575 332 248.075 332 248.075ZM332 239.825C332.729 239.825 333.429 239.535 333.945 239.02C334.46 238.504 334.75 237.805 334.75 237.075C334.75 236.346 334.46 235.646 333.945 235.131C333.429 234.615 332.729 234.325 332 234.325C331.271 234.325 330.571 234.615 330.055 235.131C329.54 235.646 329.25 236.346 329.25 237.075C329.25 237.805 329.54 238.504 330.055 239.02C330.571 239.535 331.271 239.825 332 239.825Z" fill="#181D29" stroke="#679BFF" stroke-width="2"/>
</g>
<defs>
<linearGradient id="paint0_linear" x1="251" y1="168" x2="167" y2="168" gradientUnits="userSpaceOnUse">
<stop stop-color="#679BFF"/>
<stop offset="1" stop-color="#679BFF" stop-opacity="0"/>
</linearGradient>
<linearGradient id="paint1_linear" x1="332" y1="244" x2="251" y2="244" gradientUnits="userSpaceOnUse">
<stop stop-color="#679BFF"/>
<stop offset="1" stop-color="#679BFF" stop-opacity="0"/>
</linearGradient>
<clipPath id="clip0">
<rect width="120" height="265" fill="white" transform="translate(106 41.9084)"/>
</clipPath>
<clipPath id="clip1">
<rect width="22" height="22" fill="white" transform="translate(321 227.908)"/>
</clipPath>
</defs>
</svg>
